<?xml version="1.0" encoding="utf-8" standalone="no"?>
<!DOCTYPE svg PUBLIC "-//W3C//DTD SVG 1.1//EN"
  "http://www.w3.org/Graphics/SVG/1.1/DTD/svg11.dtd">
<!-- Created with matplotlib (http://matplotlib.org/) -->
<svg height="277pt" version="1.1" viewBox="0 0 419 277" width="419pt" xmlns="http://www.w3.org/2000/svg" xmlns:xlink="http://www.w3.org/1999/xlink">
 <defs>
  <style type="text/css">
*{stroke-linecap:butt;stroke-linejoin:round;}
  </style>
 </defs>
 <g id="figure_1">
  <g id="patch_1">
   <path d="
M0 277.121
L419.67 277.121
L419.67 0
L0 0
z
" style="fill:#ffffff;"/>
  </g>
  <g id="axes_1">
   <g id="patch_2">
    <path d="
M30.7625 238.501
L394.03 238.501
L394.03 32.6206
L30.7625 32.6206
z
" style="fill:#ffffff;"/>
   </g>
   <g id="line2d_1">
    <path clip-path="url(#p29de5ed8c5)" d="
M37.7484 531.484" style="fill:none;"/>
   </g>
   <g id="line2d_2">
    <path clip-path="url(#p29de5ed8c5)" d="
M37.7484 228.355
L63.5835 215.408
L89.7984 201.994
L114.362 189.172
L139.319 175.894
L163.651 162.705
L188.909 148.76
L214.966 134.103
L241.02 119.172
L266.213 104.473
L290.132 90.2787
L315.326 75.0768
L341.061 59.283
L366.971 43.1103
L387.044 30.3936
L387.044 30.3936" style="fill:none;stroke:#0000ff;stroke-linecap:square;stroke-width:2.0;"/>
   </g>
   <g id="matplotlib.axis_1">
    <g id="xtick_1">
     <g id="line2d_3">
      <defs>
       <path d="
M0 0
L0 -4" id="m93b0483c22" style="stroke:#000000;stroke-width:0.5;"/>
      </defs>
      <g>
       <use style="stroke:#000000;stroke-width:0.5;" x="212.39625" xlink:href="#m93b0483c22" y="248.500625"/>
      </g>
     </g>
     <g id="text_1">
      <!-- 2 -->
      <defs>
       <path d="
M19.1875 8.29688
L53.6094 8.29688
L53.6094 0
L7.32812 0
L7.32812 8.29688
Q12.9375 14.1094 22.625 23.8906
Q32.3281 33.6875 34.8125 36.5312
Q39.5469 41.8438 41.4219 45.5312
Q43.3125 49.2188 43.3125 52.7812
Q43.3125 58.5938 39.2344 62.25
Q35.1562 65.9219 28.6094 65.9219
Q23.9688 65.9219 18.8125 64.3125
Q13.6719 62.7031 7.8125 59.4219
L7.8125 69.3906
Q13.7656 71.7812 18.9375 73
Q24.125 74.2188 28.4219 74.2188
Q39.75 74.2188 46.4844 68.5469
Q53.2188 62.8906 53.2188 53.4219
Q53.2188 48.9219 51.5312 44.8906
Q49.8594 40.875 45.4062 35.4062
Q44.1875 33.9844 37.6406 27.2188
Q31.1094 20.4531 19.1875 8.29688" id="BitstreamVeraSans-Roman-32"/>
      </defs>
      <g transform="translate(208.2309375 266.1778125)scale(0.18 -0.18)">
       <use xlink:href="#BitstreamVeraSans-Roman-32"/>
      </g>
     </g>
    </g>
    <g id="text_2">
     <!-- $x$ -->
     <defs>
      <path d="
M7.8125 2.875
Q9.57812 1.51562 12.7969 1.51562
Q15.9219 1.51562 18.3125 4.51562
Q20.7031 7.51562 21.5781 11.0781
L26.125 28.8125
Q27.2031 33.6406 27.2031 35.4062
Q27.2031 37.8906 25.8125 39.75
Q24.4219 41.6094 21.9219 41.6094
Q18.75 41.6094 15.9688 39.625
Q13.1875 37.6406 11.2812 34.5938
Q9.375 31.5469 8.59375 28.4219
Q8.40625 27.7812 7.8125 27.7812
L6.59375 27.7812
Q5.8125 27.7812 5.8125 28.7188
L5.8125 29
Q6.78125 32.7188 9.125 36.25
Q11.4688 39.7969 14.8594 41.9844
Q18.2656 44.1875 22.125 44.1875
Q25.7812 44.1875 28.7344 42.2344
Q31.6875 40.2812 32.9062 36.9219
Q34.625 39.9844 37.2812 42.0781
Q39.9375 44.1875 43.1094 44.1875
Q45.2656 44.1875 47.5 43.4219
Q49.75 42.6719 51.1719 41.1094
Q52.5938 39.5469 52.5938 37.2031
Q52.5938 34.6719 50.9531 32.8281
Q49.3125 31 46.7812 31
Q45.1719 31 44.0938 32.0312
Q43.0156 33.0625 43.0156 34.625
Q43.0156 36.7188 44.4531 38.2969
Q45.9062 39.8906 47.9062 40.1875
Q46.0938 41.6094 42.9219 41.6094
Q39.7031 41.6094 37.3281 38.625
Q34.9688 35.6406 33.9844 31.9844
L29.5938 14.3125
Q28.5156 10.2969 28.5156 7.71875
Q28.5156 5.17188 29.9531 3.34375
Q31.3906 1.51562 33.7969 1.51562
Q38.4844 1.51562 42.1562 5.64062
Q45.8438 9.76562 47.0156 14.7031
Q47.2188 15.2812 47.7969 15.2812
L49.0312 15.2812
Q49.4219 15.2812 49.6562 15.0156
Q49.9062 14.75 49.9062 14.4062
Q49.9062 14.3125 49.8125 14.1094
Q48.3906 8.15625 43.8438 3.51562
Q39.3125 -1.125 33.5938 -1.125
Q29.9375 -1.125 26.9844 0.84375
Q24.0312 2.82812 22.7969 6.20312
Q21.2344 3.26562 18.4688 1.0625
Q15.7188 -1.125 12.5938 -1.125
Q10.4531 -1.125 8.17188 -0.359375
Q5.90625 0.390625 4.48438 1.95312
Q3.07812 3.51562 3.07812 5.90625
Q3.07812 8.25 4.70312 10.1719
Q6.34375 12.1094 8.79688 12.1094
Q10.4531 12.1094 11.5781 11.1094
Q12.7031 10.1094 12.7031 8.5
Q12.7031 6.39062 11.2969 4.82812
Q9.90625 3.26562 7.8125 2.875" id="Cmmi10-78"/>
     </defs>
     <g transform="translate(402.03 248.500625)scale(0.18 -0.18)">
      <use transform="translate(0.0 0.8125)" xlink:href="#Cmmi10-78"/>
     </g>
    </g>
   </g>
   <g id="matplotlib.axis_2">
    <g id="ytick_1">
     <g id="line2d_4">
      <defs>
       <path d="
M0 0
L4 0" id="m728421d6d4" style="stroke:#000000;stroke-width:0.5;"/>
      </defs>
      <g>
       <use style="stroke:#000000;stroke-width:0.5;" x="20.7625" xlink:href="#m728421d6d4" y="135.560625"/>
      </g>
     </g>
     <g id="text_3">
      <!-- 4 -->
      <defs>
       <path d="
M37.7969 64.3125
L12.8906 25.3906
L37.7969 25.3906
z

M35.2031 72.9062
L47.6094 72.9062
L47.6094 25.3906
L58.0156 25.3906
L58.0156 17.1875
L47.6094 17.1875
L47.6094 0
L37.7969 0
L37.7969 17.1875
L4.89062 17.1875
L4.89062 26.7031
z
" id="BitstreamVeraSans-Roman-34"/>
      </defs>
      <g transform="translate(7.2 140.5275)scale(0.18 -0.18)">
       <use xlink:href="#BitstreamVeraSans-Roman-34"/>
      </g>
     </g>
    </g>
    <g id="text_4">
     <!-- $y$ -->
     <defs>
      <path d="
M8.40625 -14.3125
Q10.5 -17.9219 15.7188 -17.9219
Q20.4531 -17.9219 23.9219 -14.5938
Q27.3906 -11.2812 29.5156 -6.5625
Q31.6406 -1.85938 32.8125 3.07812
Q28.375 -1.125 23.1875 -1.125
Q19.2344 -1.125 16.4531 0.234375
Q13.6719 1.60938 12.125 4.3125
Q10.5938 7.03125 10.5938 10.8906
Q10.5938 14.1562 11.4688 17.5938
Q12.3594 21.0469 13.9375 25.2656
Q15.5312 29.5 16.7031 32.625
Q18.0156 36.2812 18.0156 38.625
Q18.0156 41.6094 15.8281 41.6094
Q11.8594 41.6094 9.29688 37.5312
Q6.73438 33.4531 5.51562 28.4219
Q5.32812 27.7812 4.6875 27.7812
L3.51562 27.7812
Q2.6875 27.7812 2.6875 28.7188
L2.6875 29
Q4.29688 34.9688 7.60938 39.5781
Q10.9375 44.1875 16.0156 44.1875
Q19.5781 44.1875 22.0469 41.8438
Q24.5156 39.5 24.5156 35.8906
Q24.5156 34.0312 23.6875 31.9844
Q23.25 30.7656 21.6875 26.6562
Q20.125 22.5625 19.2812 19.875
Q18.4531 17.1875 17.9219 14.5938
Q17.3906 12.0156 17.3906 9.42188
Q17.3906 6.10938 18.7969 3.8125
Q20.2188 1.51562 23.2969 1.51562
Q29.5 1.51562 34.4219 9.07812
L42 39.8906
Q42.3281 41.2188 43.5469 42.1562
Q44.7812 43.1094 46.1875 43.1094
Q47.4062 43.1094 48.3125 42.3281
Q49.2188 41.5469 49.2188 40.2812
Q49.2188 39.7031 49.125 39.5
L39.2031 -0.296875
Q37.8906 -5.42188 34.375 -10.1094
Q30.8594 -14.7969 25.9062 -17.6562
Q20.9531 -20.5156 15.5781 -20.5156
Q12.9844 -20.5156 10.4375 -19.5
Q7.90625 -18.5 6.34375 -16.5
Q4.78125 -14.5 4.78125 -11.8125
Q4.78125 -9.07812 6.39062 -7.07812
Q8.01562 -5.07812 10.6875 -5.07812
Q12.3125 -5.07812 13.4062 -6.07812
Q14.5 -7.07812 14.5 -8.6875
Q14.5 -10.9844 12.7812 -12.6875
Q11.0781 -14.4062 8.79688 -14.4062
Q8.6875 -14.3594 8.59375 -14.3281
Q8.5 -14.3125 8.40625 -14.3125" id="Cmmi10-79"/>
     </defs>
     <g transform="translate(16.2625 20.840625)scale(0.18 -0.18)">
      <use transform="translate(0.0 0.8125)" xlink:href="#Cmmi10-79"/>
     </g>
    </g>
   </g>
   <g id="patch_3">
    <path d="
M30.7625 248.501
L394.03 248.501" style="fill:none;stroke:#000000;stroke-width:0.8;"/>
   </g>
   <g id="patch_4">
    <path d="
M20.7625 238.501
L20.7625 32.6206" style="fill:none;stroke:#000000;stroke-width:0.8;"/>
   </g>
   <g id="text_5">
    <!-- $\}$ -->
    <defs>
     <path d="
M11.0781 -115.094
L11.0781 -113.922
Q11.0781 -113.234 11.8125 -113.094
Q25.4844 -108.641 25.4844 -100.203
L25.4844 -71
Q25.4844 -61.0781 41.7031 -56
Q34.6719 -53.6094 30.0781 -50.1406
Q25.4844 -46.6875 25.4844 -40.9219
L25.4844 -11.7188
Q25.4844 -3.21875 11.8125 1.21875
Q11.0781 1.375 11.0781 2
L11.0781 3.21875
Q11.0781 4 12.0156 4
L13.1875 4
Q21.2344 2.04688 27.0156 -1.51562
Q32.8125 -5.07812 32.8125 -11.5312
L32.8125 -40.7188
Q32.8125 -45.7031 36.7812 -49.0938
Q40.7656 -52.4844 46.4844 -54.5938
Q47.125 -54.7812 47.125 -55.4219
L47.125 -56.5938
Q47.125 -56.8906 46.4844 -57.4219
Q43.2656 -58.5 40.0938 -60.375
Q36.9219 -62.25 34.8594 -65.0156
Q32.8125 -67.7812 32.8125 -71.1875
L32.8125 -100.391
Q32.8125 -104.891 29.7031 -108.031
Q26.6094 -111.188 22.4531 -112.922
Q18.3125 -114.656 13.1875 -115.922
L12.0156 -115.922
Q11.625 -115.922 11.3438 -115.641
Q11.0781 -115.375 11.0781 -115.094" id="Cmex10-aa"/>
    </defs>
    <g transform="translate(29.4884134615 126.264471154)scale(0.28 -0.28)">
     <use transform="translate(0.0 94.0)" xlink:href="#Cmex10-aa"/>
    </g>
   </g>
   <g id="text_6">
    <!-- $\epsilon$ -->
    <defs>
     <path d="
M12.3125 14.1094
Q12.3125 10.75 13.5312 7.85938
Q14.75 4.98438 17.2031 3.25
Q19.6719 1.51562 23 1.51562
Q25.25 1.51562 27.7812 2.48438
Q30.3281 3.46875 32.5 4.64062
Q34.6719 5.8125 34.7188 5.8125
Q35.25 5.8125 35.5625 5.20312
Q35.8906 4.59375 35.8906 4
Q35.8906 3.46875 35.5938 3.32812
Q29.3438 -1.125 22.9062 -1.125
Q17.625 -1.125 13.375 1.34375
Q9.125 3.8125 6.8125 8.20312
Q4.5 12.5938 4.5 17.8281
Q4.5 23 6.59375 27.6562
Q8.6875 32.3281 12.3906 35.7969
Q16.1094 39.2656 20.7969 41.1875
Q25.4844 43.1094 30.6094 43.1094
L36.2812 43.1094
Q37.7969 43.1094 37.7969 41.6094
Q37.7969 40.7656 37.2344 40.1719
Q36.6719 39.5938 35.8906 39.5938
L30.4219 39.5938
Q26.4219 39.5938 23.1719 37.8281
Q19.9219 36.0781 17.7188 32.9531
Q15.5312 29.8281 14.3125 25.875
L31.9844 25.875
Q32.6719 25.875 33.0781 25.4531
Q33.5 25.0469 33.5 24.4219
Q33.5 23.5781 32.9531 22.9844
Q32.4219 22.4062 31.5938 22.4062
L13.375 22.4062
Q12.3125 17.2344 12.3125 14.1094" id="Cmmi10-b2"/>
    </defs>
    <g transform="translate(48.0302403846 120.731346154)scale(0.18 -0.18)">
     <use transform="translate(0.0 0.890625)" xlink:href="#Cmmi10-b2"/>
    </g>
   </g>
   <g id="text_7">
    <!-- $\}$ -->
    <g transform="translate(265.818774038 246.341394231)rotate(-90.0)scale(0.4 -0.4)">
     <use transform="translate(0.0 94.0)" xlink:href="#Cmex10-aa"/>
    </g>
   </g>
   <g id="text_8">
    <!-- $\delta$ -->
    <defs>
     <path d="
M20.0156 -1.51562
Q16.5469 -1.51562 13.5625 -0.21875
Q10.5938 1.07812 8.375 3.51562
Q6.15625 5.95312 5.07812 8.95312
Q4 11.9688 4 15.4844
Q4 21.7344 6.95312 27.6094
Q9.90625 33.5 15.0156 37.7969
Q20.125 42.0938 26.125 43.6094
Q23.1875 49.0312 21.6562 52.9531
Q20.125 56.8906 20.125 60.9844
Q20.125 64.0156 21.5312 66.3281
Q22.9531 68.6562 25.4375 69.9688
Q27.9375 71.2969 31 71.2969
Q33.9844 71.2969 42.8281 69.2812
Q45.125 68.75 45.125 66.6094
Q45.125 64.9375 43.8906 63.5625
Q42.6719 62.2031 41.0156 62.2031
Q39.7969 62.2031 38.8125 62.7656
Q37.8438 63.3281 35.7344 64.7344
Q33.6406 66.1562 31.9844 66.9062
Q30.3281 67.6719 28.5156 67.6719
Q26.4688 67.6719 24.8281 66.4219
Q23.1875 65.1875 23.1875 63.1875
Q23.1875 60.0156 26 55.8906
Q28.8125 51.7656 33.9844 45.3125
Q39.8906 37.7969 39.8906 28.7188
Q39.8906 24.2188 38.5938 18.9844
Q37.3125 13.7656 34.8438 9.125
Q32.375 4.5 28.5312 1.48438
Q24.7031 -1.51562 20.0156 -1.51562
M20.2188 1.21875
Q24.125 1.21875 26.9219 5.26562
Q29.7344 9.32812 31.1719 14.9219
Q32.625 20.5156 32.625 24.3125
Q32.625 31.7812 27.3906 41.1094
Q22.125 39.6562 18.3125 34.9688
Q14.5 30.2812 12.5469 24.1719
Q10.5938 18.0625 10.5938 12.5938
Q10.5938 7.8125 13.0781 4.51562
Q15.5781 1.21875 20.2188 1.21875" id="Cmmi10-b1"/>
    </defs>
    <g transform="translate(246.768774038 224.661153846)scale(0.18 -0.18)">
     <use transform="translate(0.0 0.703125)" xlink:href="#Cmmi10-b1"/>
    </g>
   </g>
   <g id="line2d_5">
    <path clip-path="url(#p29de5ed8c5)" d="
M37.7484 174.163
L142.537 174.163" style="fill:none;stroke:#ff0000;stroke-dasharray:6.000000,6.000000;stroke-dashoffset:0.0;"/>
   </g>
   <g id="line2d_6">
    <path clip-path="url(#p29de5ed8c5)" d="
M37.7484 94.9785
L282.255 94.9785" style="fill:none;stroke:#ff0000;stroke-dasharray:6.000000,6.000000;stroke-dashoffset:0.0;"/>
   </g>
   <g id="line2d_7">
    <path clip-path="url(#p29de5ed8c5)" d="
M281.557 234.541
L281.557 95.3941" style="fill:none;stroke:#808080;stroke-dasharray:6.000000,6.000000;stroke-dashoffset:0.0;"/>
   </g>
   <g id="line2d_8">
    <path clip-path="url(#p29de5ed8c5)" d="
M282.954 234.541
L282.954 94.5627" style="fill:none;stroke:#808080;stroke-dasharray:6.000000,6.000000;stroke-dashoffset:0.0;"/>
   </g>
   <g id="line2d_9">
    <path clip-path="url(#p29de5ed8c5)" d="
M141.839 234.541
L141.839 174.539" style="fill:none;stroke:#808080;stroke-dasharray:6.000000,6.000000;stroke-dashoffset:0.0;"/>
   </g>
   <g id="line2d_10">
    <path clip-path="url(#p29de5ed8c5)" d="
M143.236 234.541
L143.236 173.787" style="fill:none;stroke:#808080;stroke-dasharray:6.000000,6.000000;stroke-dashoffset:0.0;"/>
   </g>
   <g id="PathCollection_1">
    <defs>
     <path d="
M0 2.73861
C0.726289 2.73861 1.42293 2.45006 1.93649 1.93649
C2.45006 1.42293 2.73861 0.726289 2.73861 0
C2.73861 -0.726289 2.45006 -1.42293 1.93649 -1.93649
C1.42293 -2.45006 0.726289 -2.73861 0 -2.73861
C-0.726289 -2.73861 -1.42293 -2.45006 -1.93649 -1.93649
C-2.45006 -1.42293 -2.73861 -0.726289 -2.73861 0
C-2.73861 0.726289 -2.45006 1.42293 -1.93649 1.93649
C-1.42293 2.45006 -0.726289 2.73861 0 2.73861
z
" id="C0_0_976255c095"/>
    </defs>
    <g clip-path="url(#p29de5ed8c5)">
     <use style="fill:#0000ff;" x="212.39625" xlink:href="#C0_0_976255c095" y="135.560625"/>
    </g>
    <g clip-path="url(#p29de5ed8c5)">
     <use style="fill:#0000ff;" x="282.255384615" xlink:href="#C0_0_976255c095" y="94.9785096154"/>
    </g>
    <g clip-path="url(#p29de5ed8c5)">
     <use style="fill:#0000ff;" x="142.537115385" xlink:href="#C0_0_976255c095" y="174.163125"/>
    </g>
   </g>
  </g>
 </g>
 <defs>
  <clipPath id="p29de5ed8c5">
   <rect height="205.88" width="363.2675" x="30.7625" y="32.620625"/>
  </clipPath>
 </defs>
</svg>
