<?xml version="1.0" encoding="utf-8" standalone="no"?>
<!DOCTYPE svg PUBLIC "-//W3C//DTD SVG 1.1//EN"
  "http://www.w3.org/Graphics/SVG/1.1/DTD/svg11.dtd">
<!-- Created with matplotlib (http://matplotlib.org/) -->
<svg height="276pt" version="1.1" viewBox="0 0 419 276" width="419pt" xmlns="http://www.w3.org/2000/svg" xmlns:xlink="http://www.w3.org/1999/xlink">
 <defs>
  <style type="text/css">
*{stroke-linecap:butt;stroke-linejoin:round;}
  </style>
 </defs>
 <g id="figure_1">
  <g id="patch_1">
   <path d="
M0 276.801
L419.67 276.801
L419.67 0
L0 0
z
" style="fill:#ffffff;"/>
  </g>
  <g id="axes_1">
   <g id="patch_2">
    <path d="
M7.2 269.601
L394.03 269.601
L394.03 32.6206
L7.2 32.6206
z
" style="fill:#ffffff;"/>
   </g>
   <g id="line2d_1">
    <path clip-path="url(#pbf35efca70)" d="
M14.639 151.111
L386.591 151.111
L386.591 151.111" style="fill:none;"/>
   </g>
   <g id="line2d_2">
    <path clip-path="url(#pbf35efca70)" d="
M14.639 179.557
L20.1943 179.58
L29.2367 179.384
L36.8707 179.58
L38.2983 179.513
L46.3102 178.816
L47.9328 178.862
L51.843 179.31
L54.0399 179.55
L56.5321 179.539
L58.8827 179.132
L61.9121 178.155
L64.3915 177.328
L66.2068 176.944
L67.7422 176.865
L69.6969 177.132
L71.9556 177.867
L75.7565 179.302
L76.8822 179.533
L78.5 179.549
L80.0244 179.155
L80.9097 178.733
L82.6459 177.522
L84.3774 175.92
L88.3511 171.942
L89.4463 171.087
L90.8088 170.335
L91.6237 170.082
L92.9256 170.016
L93.6202 170.156
L95.0094 170.791
L96.1717 171.65
L97.5749 173
L102.326 178.127
L103.39 178.921
L104.481 179.437
L105.443 179.594
L106.405 179.438
L107.298 178.995
L108.19 178.256
L109.169 177.108
L110.148 175.62
L111.609 172.824
L112.919 169.83
L115.344 163.521
L118.609 154.951
L120.005 151.803
L121.331 149.324
L122.393 147.775
L123.455 146.664
L124.277 146.124
L125.038 145.881
L125.8 145.887
L126.561 146.141
L127.322 146.637
L128.397 147.732
L129.473 149.254
L130.53 151.121
L132.04 154.312
L133.209 157.1
L139.215 172.037
L140.761 175.066
L141.895 176.86
L143.019 178.221
L144.142 179.131
L144.912 179.478
L145.683 179.594
L146.58 179.431
L147.478 178.946
L148.076 178.445
L149.257 177.045
L149.872 176.106
L151.103 173.813
L152.273 171.15
L153.989 166.481
L155.7 161.054
L157.96 152.968
L160.863 141.628
L166.699 118.397
L169.512 108.124
L171.741 100.743
L173.479 95.5167
L175.754 89.4293
L177.509 85.3158
L179.048 82.1182
L180.999 78.5924
L182.761 75.883
L184.674 73.4103
L186.756 71.2172
L187.936 70.1801
L189.706 68.8751
L192.112 67.5219
L194.502 66.5866
L196.354 66.1011
L198.234 65.7965
L201.104 65.6668
L204.006 65.9376
L206.607 66.549
L208.755 67.3552
L210.334 68.1495
L212.152 69.3058
L214.098 70.8715
L216.089 72.8749
L217.828 75.0027
L219.572 77.5281
L221.535 80.8844
L223.623 85.0999
L225.714 90.025
L227.318 94.2935
L229.239 99.9607
L231.739 108.196
L234.183 117.079
L236.628 126.581
L243.4 153.457
L245.623 161.364
L247.527 167.316
L248.923 171.065
L250.222 174.009
L251.608 176.505
L252.448 177.673
L253.288 178.57
L254.128 179.188
L254.839 179.492
L255.601 179.593
L256.362 179.465
L257.124 179.109
L257.885 178.534
L258.967 177.353
L260.049 175.777
L261.122 173.863
L262.911 170.029
L264.481 166.192
L269.235 154.21
L270.93 150.687
L272.077 148.759
L273.208 147.298
L273.942 146.609
L274.636 146.157
L275.291 145.915
L275.946 145.856
L276.601 145.981
L277.256 146.29
L277.919 146.788
L278.922 147.883
L279.924 149.365
L280.784 150.916
L282.359 154.326
L283.518 157.191
L289.251 172.02
L290.645 174.853
L291.606 176.459
L292.6 177.784
L293.511 178.683
L294.339 179.233
L295.249 179.547
L296.24 179.557
L297.379 179.179
L298.667 178.326
L299.944 177.14
L304.962 171.733
L306.349 170.713
L307.695 170.133
L308.832 169.992
L309.802 170.129
L310.758 170.485
L312.033 171.265
L313.643 172.638
L318.778 177.681
L319.996 178.544
L321.333 179.204
L322.18 179.455
L323.028 179.578
L324.718 179.475
L326.634 178.928
L331.376 177.17
L332.861 176.906
L334.639 176.901
L336.08 177.135
L338.357 177.813
L342.178 179.088
L344.4 179.509
L346.934 179.566
L348.987 179.363
L352.609 178.913
L355.227 178.82
L356.313 178.863
L365.109 179.593
L369.249 179.478
L374.451 179.383
L384.302 179.586
L386.591 179.557
L386.591 179.557" style="fill:none;stroke:#0000ff;stroke-linecap:square;stroke-width:2.0;"/>
   </g>
   <g id="line2d_3">
    <path clip-path="url(#pbf35efca70)" d="
M7.2 322.01" style="fill:none;stroke:#000000;stroke-dasharray:1.000000,3.000000;stroke-dashoffset:0.0;stroke-width:0.5;"/>
   </g>
   <g id="line2d_4">
    <path clip-path="url(#pbf35efca70)" d="
M7.2 293.526" style="fill:none;stroke:#000000;stroke-dasharray:1.000000,3.000000;stroke-dashoffset:0.0;stroke-width:0.5;"/>
   </g>
   <g id="line2d_5">
    <path clip-path="url(#pbf35efca70)" d="
M7.2 265.043
L394.03 265.043" style="fill:none;stroke:#000000;stroke-dasharray:1.000000,3.000000;stroke-dashoffset:0.0;stroke-width:0.5;"/>
   </g>
   <g id="line2d_6">
    <path clip-path="url(#pbf35efca70)" d="
M7.2 236.56
L394.03 236.56" style="fill:none;stroke:#000000;stroke-dasharray:1.000000,3.000000;stroke-dashoffset:0.0;stroke-width:0.5;"/>
   </g>
   <g id="line2d_7">
    <path clip-path="url(#pbf35efca70)" d="
M7.2 208.077
L394.03 208.077" style="fill:none;stroke:#000000;stroke-dasharray:1.000000,3.000000;stroke-dashoffset:0.0;stroke-width:0.5;"/>
   </g>
   <g id="line2d_8">
    <path clip-path="url(#pbf35efca70)" d="
M7.2 179.594
L394.03 179.594" style="fill:none;stroke:#000000;stroke-dasharray:1.000000,3.000000;stroke-dashoffset:0.0;stroke-width:0.5;"/>
   </g>
   <g id="line2d_9">
    <path clip-path="url(#pbf35efca70)" d="
M7.2 151.111
L394.03 151.111" style="fill:none;stroke:#000000;stroke-dasharray:1.000000,3.000000;stroke-dashoffset:0.0;stroke-width:0.5;"/>
   </g>
   <g id="line2d_10">
    <path clip-path="url(#pbf35efca70)" d="
M7.2 122.627
L394.03 122.627" style="fill:none;stroke:#000000;stroke-dasharray:1.000000,3.000000;stroke-dashoffset:0.0;stroke-width:0.5;"/>
   </g>
   <g id="line2d_11">
    <path clip-path="url(#pbf35efca70)" d="
M7.2 94.1443
L394.03 94.1443" style="fill:none;stroke:#000000;stroke-dasharray:1.000000,3.000000;stroke-dashoffset:0.0;stroke-width:0.5;"/>
   </g>
   <g id="line2d_12">
    <path clip-path="url(#pbf35efca70)" d="
M7.2 65.6611
L394.03 65.6611" style="fill:none;stroke:#000000;stroke-dasharray:1.000000,3.000000;stroke-dashoffset:0.0;stroke-width:0.5;"/>
   </g>
   <g id="line2d_13">
    <path clip-path="url(#pbf35efca70)" d="
M7.2 37.1779
L394.03 37.1779" style="fill:none;stroke:#000000;stroke-dasharray:1.000000,3.000000;stroke-dashoffset:0.0;stroke-width:0.5;"/>
   </g>
   <g id="line2d_14">
    <path clip-path="url(#pbf35efca70)" d="
M7.2 8.69476
L394.03 8.69476" style="fill:none;stroke:#000000;stroke-dasharray:1.000000,3.000000;stroke-dashoffset:0.0;stroke-width:0.5;"/>
   </g>
   <g id="line2d_15">
    <path clip-path="url(#pbf35efca70)" d="
M7.2 -19.7884" style="fill:none;stroke:#000000;stroke-dasharray:1.000000,3.000000;stroke-dashoffset:0.0;stroke-width:0.5;"/>
   </g>
   <g id="line2d_16">
    <path clip-path="url(#pbf35efca70)" d="
M14.639 269.601
L14.639 32.6206" style="fill:none;stroke:#000000;stroke-dasharray:1.000000,3.000000;stroke-dashoffset:0.0;stroke-width:0.5;"/>
   </g>
   <g id="line2d_17">
    <path clip-path="url(#pbf35efca70)" d="
M45.635 269.601
L45.635 32.6206" style="fill:none;stroke:#000000;stroke-dasharray:1.000000,3.000000;stroke-dashoffset:0.0;stroke-width:0.5;"/>
   </g>
   <g id="line2d_18">
    <path clip-path="url(#pbf35efca70)" d="
M76.631 269.601
L76.631 32.6206" style="fill:none;stroke:#000000;stroke-dasharray:1.000000,3.000000;stroke-dashoffset:0.0;stroke-width:0.5;"/>
   </g>
   <g id="line2d_19">
    <path clip-path="url(#pbf35efca70)" d="
M107.627 269.601
L107.627 32.6206" style="fill:none;stroke:#000000;stroke-dasharray:1.000000,3.000000;stroke-dashoffset:0.0;stroke-width:0.5;"/>
   </g>
   <g id="line2d_20">
    <path clip-path="url(#pbf35efca70)" d="
M138.623 269.601
L138.623 32.6206" style="fill:none;stroke:#000000;stroke-dasharray:1.000000,3.000000;stroke-dashoffset:0.0;stroke-width:0.5;"/>
   </g>
   <g id="line2d_21">
    <path clip-path="url(#pbf35efca70)" d="
M169.619 269.601
L169.619 32.6206" style="fill:none;stroke:#000000;stroke-dasharray:1.000000,3.000000;stroke-dashoffset:0.0;stroke-width:0.5;"/>
   </g>
   <g id="line2d_22">
    <path clip-path="url(#pbf35efca70)" d="
M200.615 269.601
L200.615 32.6206" style="fill:none;stroke:#000000;stroke-dasharray:1.000000,3.000000;stroke-dashoffset:0.0;stroke-width:0.5;"/>
   </g>
   <g id="line2d_23">
    <path clip-path="url(#pbf35efca70)" d="
M231.611 269.601
L231.611 32.6206" style="fill:none;stroke:#000000;stroke-dasharray:1.000000,3.000000;stroke-dashoffset:0.0;stroke-width:0.5;"/>
   </g>
   <g id="line2d_24">
    <path clip-path="url(#pbf35efca70)" d="
M262.607 269.601
L262.607 32.6206" style="fill:none;stroke:#000000;stroke-dasharray:1.000000,3.000000;stroke-dashoffset:0.0;stroke-width:0.5;"/>
   </g>
   <g id="line2d_25">
    <path clip-path="url(#pbf35efca70)" d="
M293.603 269.601
L293.603 32.6206" style="fill:none;stroke:#000000;stroke-dasharray:1.000000,3.000000;stroke-dashoffset:0.0;stroke-width:0.5;"/>
   </g>
   <g id="line2d_26">
    <path clip-path="url(#pbf35efca70)" d="
M324.599 269.601
L324.599 32.6206" style="fill:none;stroke:#000000;stroke-dasharray:1.000000,3.000000;stroke-dashoffset:0.0;stroke-width:0.5;"/>
   </g>
   <g id="line2d_27">
    <path clip-path="url(#pbf35efca70)" d="
M355.595 269.601
L355.595 32.6206" style="fill:none;stroke:#000000;stroke-dasharray:1.000000,3.000000;stroke-dashoffset:0.0;stroke-width:0.5;"/>
   </g>
   <g id="line2d_28">
    <path clip-path="url(#pbf35efca70)" d="
M386.591 269.601
L386.591 32.6206" style="fill:none;stroke:#000000;stroke-dasharray:1.000000,3.000000;stroke-dashoffset:0.0;stroke-width:0.5;"/>
   </g>
   <g id="matplotlib.axis_1">
    <g id="text_1">
     <!-- $x$ -->
     <defs>
      <path d="
M7.8125 2.875
Q9.57812 1.51562 12.7969 1.51562
Q15.9219 1.51562 18.3125 4.51562
Q20.7031 7.51562 21.5781 11.0781
L26.125 28.8125
Q27.2031 33.6406 27.2031 35.4062
Q27.2031 37.8906 25.8125 39.75
Q24.4219 41.6094 21.9219 41.6094
Q18.75 41.6094 15.9688 39.625
Q13.1875 37.6406 11.2812 34.5938
Q9.375 31.5469 8.59375 28.4219
Q8.40625 27.7812 7.8125 27.7812
L6.59375 27.7812
Q5.8125 27.7812 5.8125 28.7188
L5.8125 29
Q6.78125 32.7188 9.125 36.25
Q11.4688 39.7969 14.8594 41.9844
Q18.2656 44.1875 22.125 44.1875
Q25.7812 44.1875 28.7344 42.2344
Q31.6875 40.2812 32.9062 36.9219
Q34.625 39.9844 37.2812 42.0781
Q39.9375 44.1875 43.1094 44.1875
Q45.2656 44.1875 47.5 43.4219
Q49.75 42.6719 51.1719 41.1094
Q52.5938 39.5469 52.5938 37.2031
Q52.5938 34.6719 50.9531 32.8281
Q49.3125 31 46.7812 31
Q45.1719 31 44.0938 32.0312
Q43.0156 33.0625 43.0156 34.625
Q43.0156 36.7188 44.4531 38.2969
Q45.9062 39.8906 47.9062 40.1875
Q46.0938 41.6094 42.9219 41.6094
Q39.7031 41.6094 37.3281 38.625
Q34.9688 35.6406 33.9844 31.9844
L29.5938 14.3125
Q28.5156 10.2969 28.5156 7.71875
Q28.5156 5.17188 29.9531 3.34375
Q31.3906 1.51562 33.7969 1.51562
Q38.4844 1.51562 42.1562 5.64062
Q45.8438 9.76562 47.0156 14.7031
Q47.2188 15.2812 47.7969 15.2812
L49.0312 15.2812
Q49.4219 15.2812 49.6562 15.0156
Q49.9062 14.75 49.9062 14.4062
Q49.9062 14.3125 49.8125 14.1094
Q48.3906 8.15625 43.8438 3.51562
Q39.3125 -1.125 33.5938 -1.125
Q29.9375 -1.125 26.9844 0.84375
Q24.0312 2.82812 22.7969 6.20312
Q21.2344 3.26562 18.4688 1.0625
Q15.7188 -1.125 12.5938 -1.125
Q10.4531 -1.125 8.17188 -0.359375
Q5.90625 0.390625 4.48438 1.95312
Q3.07812 3.51562 3.07812 5.90625
Q3.07812 8.25 4.70312 10.1719
Q6.34375 12.1094 8.79688 12.1094
Q10.4531 12.1094 11.5781 11.1094
Q12.7031 10.1094 12.7031 8.5
Q12.7031 6.39062 11.2969 4.82812
Q9.90625 3.26562 7.8125 2.875" id="Cmmi10-78"/>
     </defs>
     <g transform="translate(402.03 151.110625)scale(0.18 -0.18)">
      <use transform="translate(0.0 0.8125)" xlink:href="#Cmmi10-78"/>
     </g>
    </g>
   </g>
   <g id="matplotlib.axis_2">
    <g id="text_2">
     <!-- $y$ -->
     <defs>
      <path d="
M8.40625 -14.3125
Q10.5 -17.9219 15.7188 -17.9219
Q20.4531 -17.9219 23.9219 -14.5938
Q27.3906 -11.2812 29.5156 -6.5625
Q31.6406 -1.85938 32.8125 3.07812
Q28.375 -1.125 23.1875 -1.125
Q19.2344 -1.125 16.4531 0.234375
Q13.6719 1.60938 12.125 4.3125
Q10.5938 7.03125 10.5938 10.8906
Q10.5938 14.1562 11.4688 17.5938
Q12.3594 21.0469 13.9375 25.2656
Q15.5312 29.5 16.7031 32.625
Q18.0156 36.2812 18.0156 38.625
Q18.0156 41.6094 15.8281 41.6094
Q11.8594 41.6094 9.29688 37.5312
Q6.73438 33.4531 5.51562 28.4219
Q5.32812 27.7812 4.6875 27.7812
L3.51562 27.7812
Q2.6875 27.7812 2.6875 28.7188
L2.6875 29
Q4.29688 34.9688 7.60938 39.5781
Q10.9375 44.1875 16.0156 44.1875
Q19.5781 44.1875 22.0469 41.8438
Q24.5156 39.5 24.5156 35.8906
Q24.5156 34.0312 23.6875 31.9844
Q23.25 30.7656 21.6875 26.6562
Q20.125 22.5625 19.2812 19.875
Q18.4531 17.1875 17.9219 14.5938
Q17.3906 12.0156 17.3906 9.42188
Q17.3906 6.10938 18.7969 3.8125
Q20.2188 1.51562 23.2969 1.51562
Q29.5 1.51562 34.4219 9.07812
L42 39.8906
Q42.3281 41.2188 43.5469 42.1562
Q44.7812 43.1094 46.1875 43.1094
Q47.4062 43.1094 48.3125 42.3281
Q49.2188 41.5469 49.2188 40.2812
Q49.2188 39.7031 49.125 39.5
L39.2031 -0.296875
Q37.8906 -5.42188 34.375 -10.1094
Q30.8594 -14.7969 25.9062 -17.6562
Q20.9531 -20.5156 15.5781 -20.5156
Q12.9844 -20.5156 10.4375 -19.5
Q7.90625 -18.5 6.34375 -16.5
Q4.78125 -14.5 4.78125 -11.8125
Q4.78125 -9.07812 6.39062 -7.07812
Q8.01562 -5.07812 10.6875 -5.07812
Q12.3125 -5.07812 13.4062 -6.07812
Q14.5 -7.07812 14.5 -8.6875
Q14.5 -10.9844 12.7812 -12.6875
Q11.0781 -14.4062 8.79688 -14.4062
Q8.6875 -14.3594 8.59375 -14.3281
Q8.5 -14.3125 8.40625 -14.3125" id="Cmmi10-79"/>
     </defs>
     <g transform="translate(196.115 20.840625)scale(0.18 -0.18)">
      <use transform="translate(0.0 0.8125)" xlink:href="#Cmmi10-79"/>
     </g>
    </g>
   </g>
   <g id="patch_3">
    <path d="
M7.2 151.111
L394.03 151.111" style="fill:none;stroke:#000000;stroke-width:0.8;"/>
   </g>
   <g id="patch_4">
    <path d="
M200.615 269.601
L200.615 32.6206" style="fill:none;stroke:#000000;stroke-width:0.8;"/>
   </g>
  </g>
 </g>
 <defs>
  <clipPath id="pbf35efca70">
   <rect height="236.98" width="386.83" x="7.2" y="32.620625"/>
  </clipPath>
 </defs>
</svg>
