<?xml version="1.0" encoding="utf-8" standalone="no"?>
<!DOCTYPE svg PUBLIC "-//W3C//DTD SVG 1.1//EN"
  "http://www.w3.org/Graphics/SVG/1.1/DTD/svg11.dtd">
<!-- Created with matplotlib (http://matplotlib.org/) -->
<svg height="276pt" version="1.1" viewBox="0 0 276 276" width="276pt" xmlns="http://www.w3.org/2000/svg" xmlns:xlink="http://www.w3.org/1999/xlink">
 <defs>
  <style type="text/css">
*{stroke-linecap:butt;stroke-linejoin:round;}
  </style>
 </defs>
 <g id="figure_1">
  <g id="patch_1">
   <path d="
M0 276.801
L276.942 276.801
L276.942 0
L0 0
z
" style="fill:#ffffff;"/>
  </g>
  <g id="axes_1">
   <g id="patch_2">
    <path d="
M40.0985 269.601
L236.069 269.601
L236.069 32.6206
L40.0985 32.6206
z
" style="fill:#ffffff;"/>
   </g>
   <g id="patch_3">
    <path clip-path="url(#p7cb1dda936)" d="
M43.8672 151.111
L43.8672 94.1443
L44.0757 94.1443
L44.6329 94.1443
L44.9888 94.1443
L45.3635 94.1443
L45.936 94.1443
L46.1067 94.1443
L46.8769 94.1443
L47.0242 94.1443
L47.6253 94.1443
L48.0843 94.1443
L48.3206 94.1443
L48.6844 94.1443
L49.0241 94.1443
L49.3681 94.1443
L49.9167 94.1443
L50.3378 94.1443
L50.8663 94.1443
L51.3411 94.1443
L51.6131 94.1443
L51.9014 94.1443
L52.4494 94.1443
L52.8386 94.1443
L53.0707 94.1443
L53.532 94.1443
L53.8249 94.1443
L54.5418 94.1443
L54.7905 94.1443
L55.203 94.1443
L55.6406 94.1443
L55.9169 94.1443
L56.4472 94.1443
L56.6514 94.1443
L57.4395 94.1443
L57.4684 94.1443
L58.101 94.1443
L58.578 94.1443
L58.8511 94.1443
L59.1257 94.1443
L59.5767 94.1443
L60.0625 94.1443
L60.4364 94.1443
L61.0593 94.1443
L61.3356 94.1443
L61.6186 94.1443
L62.3195 94.1443
L62.6078 94.1443
L63.0142 94.1443
L63.3924 94.1443
L63.8063 94.1443
L63.97 94.1443
L64.7425 94.1443
L65.0378 94.1443
L65.2552 94.1443
L65.6226 94.1443
L66.1125 94.1443
L66.6265 94.1443
L66.8045 94.1443
L67.3803 94.1443
L67.8624 94.1443
L68.1342 94.1443
L68.4665 94.1443
L68.9625 94.1443
L69.2487 94.1443
L69.8445 94.1443
L70.2479 94.1443
L70.8104 94.1443
L70.9583 94.1443
L71.2762 94.1443
L71.7155 94.1443
L72.2961 94.1443
L72.6102 94.1443
L73.1766 94.1443
L73.6755 94.1443
L74.0726 94.1443
L74.2796 94.1443
L74.5946 94.1443
L75.1255 94.1443
L75.5556 94.1443
L75.7813 94.1443
L76.4649 94.1443
L76.9086 94.1443
L77.1447 94.1443
L77.5954 94.1443
L77.8544 94.1443
L78.209 94.1443
L78.8129 94.1443
L79.2235 94.1443
L79.7624 94.1443
L79.8911 94.1443
L80.3213 94.1443
L80.8451 94.1443
L81.2382 94.1443
L81.6814 94.1443
L81.8277 94.1443
L82.594 94.1443
L82.7023 94.1443
L83.3549 94.1443
L83.5742 94.1443
L84.1597 94.1443
L84.6344 94.1443
L84.6638 94.1443
L85.2581 94.1443
L85.629 94.1443
L85.9093 94.1443
L86.6804 94.1443
L86.9032 94.1443
L87.4622 94.1443
L87.6596 94.1443
L88.2586 94.1443
L88.5058 94.1443
L88.9359 94.1443
L89.438 94.1443
L89.6066 94.1443
L90.0642 94.1443
L90.4866 94.1443
L90.7404 94.1443
L91.5175 94.1443
L91.6331 94.1443
L92.1489 94.1443
L92.5466 94.1443
L92.8208 94.1443
L93.2112 94.1443
L93.6608 94.1443
L94.2718 94.1443
L94.5412 94.1443
L95.0447 94.1443
L95.4865 94.1443
L95.8603 94.1443
L96.0789 94.1443
L96.5114 94.1443
L97.0265 94.1443
L97.5178 94.1443
L98.0132 94.1443
L98.222 94.1443
L98.8262 94.1443
L98.9232 94.1443
L99.3079 94.1443
L99.9141 94.1443
L100.134 94.1443
L100.613 94.1443
L101.097 94.1443
L101.63 94.1443
L101.851 94.1443
L102.275 94.1443
L102.872 94.1443
L103.048 94.1443
L103.446 94.1443
L103.74 94.1443
L104.149 94.1443
L104.838 94.1443
L105.183 94.1443
L105.375 94.1443
L105.765 94.1443
L106.348 94.1443
L106.698 94.1443
L107.105 94.1443
L107.585 94.1443
L107.932 94.1443
L108.2 94.1443
L108.935 94.1443
L109.287 94.1443
L109.746 94.1443
L110.132 94.1443
L110.324 94.1443
L110.733 94.1443
L111.09 94.1443
L111.453 94.1443
L111.897 94.1443
L112.277 94.1443
L112.96 94.1443
L113.358 94.1443
L113.666 94.1443
L113.894 94.1443
L114.362 94.1443
L114.869 94.1443
L115.227 94.1443
L115.514 94.1443
L116.094 94.1443
L116.563 94.1443
L116.891 94.1443
L117.379 94.1443
L117.734 94.1443
L118.137 94.1443
L118.646 94.1443
L118.845 94.1443
L119.491 94.1443
L119.858 94.1443
L120.137 94.1443
L120.484 94.1443
L120.981 94.1443
L121.344 94.1443
L121.83 94.1443
L122.244 94.1443
L122.496 94.1443
L123.151 94.1443
L123.543 94.1443
L123.726 94.1443
L124.343 94.1443
L124.624 94.1443
L124.624 151.111
z
" style="fill:#008000;opacity:0.5;"/>
   </g>
   <g id="patch_4">
    <path clip-path="url(#p7cb1dda936)" d="
M124.624 151.111
L124.624 227.066
L124.821 227.066
L124.85 227.066
L125.047 227.066
L125.15 227.066
L125.271 227.066
L125.468 227.066
L125.529 227.066
L125.703 227.066
L125.846 227.066
L125.917 227.066
L126.125 227.066
L126.191 227.066
L126.431 227.066
L126.527 227.066
L126.641 227.066
L126.729 227.066
L126.98 227.066
L127.036 227.066
L127.195 227.066
L127.321 227.066
L127.438 227.066
L127.667 227.066
L127.733 227.066
L127.809 227.066
L127.948 227.066
L128.197 227.066
L128.271 227.066
L128.46 227.066
L128.568 227.066
L128.669 227.066
L128.772 227.066
L128.95 227.066
L129.128 227.066
L129.275 227.066
L129.365 227.066
L129.473 227.066
L129.668 227.066
L129.723 227.066
L129.884 227.066
L130.02 227.066
L130.2 227.066
L130.271 227.066
L130.398 227.066
L130.582 227.066
L130.703 227.066
L130.827 227.066
L130.996 227.066
L131.098 227.066
L131.262 227.066
L131.359 227.066
L131.458 227.066
L131.629 227.066
L131.748 227.066
L131.984 227.066
L132.064 227.066
L132.224 227.066
L132.36 227.066
L132.47 227.066
L132.662 227.066
L132.742 227.066
L132.87 227.066
L133.01 227.066
L133.082 227.066
L133.235 227.066
L133.391 227.066
L133.603 227.066
L133.677 227.066
L133.879 227.066
L133.996 227.066
L134.075 227.066
L134.207 227.066
L134.409 227.066
L134.506 227.066
L134.689 227.066
L134.798 227.066
L134.961 227.066
L135.106 227.066
L135.155 227.066
L135.251 227.066
L135.449 227.066
L135.561 227.066
L135.662 227.066
L135.813 227.066
L135.974 227.066
L136.087 227.066
L136.248 227.066
L136.347 227.066
L136.542 227.066
L136.658 227.066
L136.842 227.066
L136.896 227.066
L137.011 227.066
L137.201 227.066
L137.355 227.066
L137.502 227.066
L137.633 227.066
L137.732 227.066
L137.884 227.066
L137.975 227.066
L138.136 227.066
L138.33 227.066
L138.396 227.066
L138.548 227.066
L138.758 227.066
L138.863 227.066
L138.913 227.066
L139.145 227.066
L139.212 227.066
L139.324 227.066
L139.494 227.066
L139.598 227.066
L139.738 227.066
L139.86 227.066
L140.085 227.066
L140.208 227.066
L140.296 227.066
L140.459 227.066
L140.559 227.066
L140.749 227.066
L140.838 227.066
L141.002 227.066
L141.081 227.066
L141.205 227.066
L141.441 227.066
L141.599 227.066
L141.653 227.066
L141.81 227.066
L141.99 227.066
L142.138 227.066
L142.231 227.066
L142.41 227.066
L142.543 227.066
L142.635 227.066
L142.793 227.066
L142.864 227.066
L142.986 227.066
L143.144 227.066
L143.336 227.066
L143.471 227.066
L143.552 227.066
L143.731 227.066
L143.785 227.066
L143.939 227.066
L144.05 227.066
L144.302 227.066
L144.348 227.066
L144.547 227.066
L144.705 227.066
L144.835 227.066
L144.929 227.066
L145.1 227.066
L145.149 227.066
L145.369 227.066
L145.505 227.066
L145.65 227.066
L145.764 227.066
L145.872 227.066
L146.014 227.066
L146.182 227.066
L146.257 227.066
L146.383 227.066
L146.561 227.066
L146.715 227.066
L146.765 227.066
L146.976 227.066
L147.135 227.066
L147.201 227.066
L147.35 227.066
L147.552 227.066
L147.625 227.066
L147.78 227.066
L147.871 227.066
L147.975 227.066
L148.122 227.066
L148.269 227.066
L148.418 227.066
L148.623 227.066
L148.654 227.066
L148.832 227.066
L149.003 227.066
L149.087 227.066
L149.247 227.066
L149.324 227.066
L149.472 227.066
L149.707 227.066
L149.792 227.066
L149.917 227.066
L150.092 227.066
L150.238 227.066
L150.312 227.066
L150.463 227.066
L150.601 227.066
L150.781 227.066
L150.833 227.066
L151.034 227.066
L151.096 227.066
L151.222 227.066
L151.37 227.066
L151.543 227.066
L151.543 151.111
z
" style="fill:#008000;opacity:0.5;"/>
   </g>
   <g id="patch_5">
    <path clip-path="url(#p7cb1dda936)" d="
M151.543 151.111
L151.543 94.1443
L151.921 94.1443
L152.007 94.1443
L152.425 94.1443
L152.657 94.1443
L152.938 94.1443
L153.199 94.1443
L153.488 94.1443
L153.59 94.1443
L153.872 94.1443
L154.238 94.1443
L154.587 94.1443
L154.7 94.1443
L154.926 94.1443
L155.26 94.1443
L155.567 94.1443
L155.841 94.1443
L156.197 94.1443
L156.436 94.1443
L156.636 94.1443
L156.945 94.1443
L157.18 94.1443
L157.582 94.1443
L157.89 94.1443
L157.926 94.1443
L158.389 94.1443
L158.489 94.1443
L158.878 94.1443
L159.209 94.1443
L159.47 94.1443
L159.67 94.1443
L159.895 94.1443
L160.205 94.1443
L160.489 94.1443
L160.655 94.1443
L161.029 94.1443
L161.238 94.1443
L161.569 94.1443
L161.9 94.1443
L162.193 94.1443
L162.391 94.1443
L162.769 94.1443
L162.908 94.1443
L163.142 94.1443
L163.573 94.1443
L163.66 94.1443
L164.035 94.1443
L164.392 94.1443
L164.443 94.1443
L164.679 94.1443
L165.2 94.1443
L165.454 94.1443
L165.554 94.1443
L165.971 94.1443
L166.242 94.1443
L166.496 94.1443
L166.599 94.1443
L166.981 94.1443
L167.307 94.1443
L167.554 94.1443
L167.797 94.1443
L168.017 94.1443
L168.354 94.1443
L168.497 94.1443
L168.965 94.1443
L169.036 94.1443
L169.275 94.1443
L169.681 94.1443
L169.978 94.1443
L170.298 94.1443
L170.41 94.1443
L170.63 94.1443
L170.948 94.1443
L171.377 94.1443
L171.47 94.1443
L171.777 94.1443
L172.063 94.1443
L172.461 94.1443
L172.663 94.1443
L172.946 94.1443
L173.287 94.1443
L173.413 94.1443
L173.638 94.1443
L173.911 94.1443
L174.392 94.1443
L174.425 94.1443
L174.783 94.1443
L175.156 94.1443
L175.462 94.1443
L175.534 94.1443
L176 94.1443
L176.292 94.1443
L176.474 94.1443
L176.718 94.1443
L176.885 94.1443
L177.305 94.1443
L177.492 94.1443
L177.73 94.1443
L177.969 94.1443
L178.408 94.1443
L178.589 94.1443
L178.915 94.1443
L179.081 94.1443
L179.309 94.1443
L179.769 94.1443
L180.007 94.1443
L180.099 94.1443
L180.513 94.1443
L180.676 94.1443
L181.038 94.1443
L181.334 94.1443
L181.652 94.1443
L181.862 94.1443
L182.047 94.1443
L182.453 94.1443
L182.54 94.1443
L182.864 94.1443
L183.077 94.1443
L183.474 94.1443
L183.751 94.1443
L184.071 94.1443
L184.186 94.1443
L184.633 94.1443
L184.938 94.1443
L185.086 94.1443
L185.479 94.1443
L185.644 94.1443
L185.925 94.1443
L186.254 94.1443
L186.444 94.1443
L186.59 94.1443
L186.997 94.1443
L187.244 94.1443
L187.596 94.1443
L187.799 94.1443
L188.093 94.1443
L188.34 94.1443
L188.738 94.1443
L188.995 94.1443
L189.278 94.1443
L189.341 94.1443
L189.563 94.1443
L189.906 94.1443
L190.188 94.1443
L190.556 94.1443
L190.891 94.1443
L191.104 94.1443
L191.246 94.1443
L191.711 94.1443
L191.801 94.1443
L192.025 94.1443
L192.318 94.1443
L192.786 94.1443
L192.902 94.1443
L193.093 94.1443
L193.48 94.1443
L193.664 94.1443
L194.082 94.1443
L194.385 94.1443
L194.543 94.1443
L194.789 94.1443
L195.153 94.1443
L195.484 94.1443
L195.654 94.1443
L195.985 94.1443
L196.101 94.1443
L196.506 94.1443
L196.806 94.1443
L196.987 94.1443
L197.394 94.1443
L197.433 94.1443
L197.805 94.1443
L198.089 94.1443
L198.218 94.1443
L198.67 94.1443
L198.769 94.1443
L199.279 94.1443
L199.422 94.1443
L199.804 94.1443
L199.965 94.1443
L200.162 94.1443
L200.452 94.1443
L200.682 94.1443
L201.078 94.1443
L201.328 94.1443
L201.559 94.1443
L201.735 94.1443
L202.013 94.1443
L202.41 94.1443
L202.745 94.1443
L202.892 94.1443
L203.177 94.1443
L203.373 94.1443
L203.627 94.1443
L203.938 94.1443
L204.373 94.1443
L204.695 94.1443
L204.758 94.1443
L205.131 94.1443
L205.382 94.1443
L205.382 151.111
z
" style="fill:#008000;opacity:0.5;"/>
   </g>
   <g id="line2d_1">
    <path clip-path="url(#p7cb1dda936)" d="
M43.8672 151.111
L232.301 151.111
L232.301 151.111" style="fill:none;"/>
   </g>
   <g id="line2d_2">
    <path clip-path="url(#p7cb1dda936)" d="
M43.8672 94.1443
L124.624 94.1443
L124.624 94.1443" style="fill:none;stroke:#0000ff;stroke-linecap:square;stroke-width:2.0;"/>
   </g>
   <g id="line2d_3">
    <path clip-path="url(#p7cb1dda936)" d="
M124.624 227.066
L151.543 227.066
L151.543 227.066" style="fill:none;stroke:#0000ff;stroke-linecap:square;stroke-width:2.0;"/>
   </g>
   <g id="line2d_4">
    <path clip-path="url(#p7cb1dda936)" d="
M151.543 94.1443
L205.382 94.1443
L205.382 94.1443" style="fill:none;stroke:#0000ff;stroke-linecap:square;stroke-width:2.0;"/>
   </g>
   <g id="line2d_5">
    <path clip-path="url(#p7cb1dda936)" d="
M40.0985 265.043
L236.069 265.043" style="fill:none;stroke:#000000;stroke-dasharray:1.000000,3.000000;stroke-dashoffset:0.0;stroke-width:0.5;"/>
   </g>
   <g id="line2d_6">
    <path clip-path="url(#p7cb1dda936)" d="
M40.0985 236.56
L236.069 236.56" style="fill:none;stroke:#000000;stroke-dasharray:1.000000,3.000000;stroke-dashoffset:0.0;stroke-width:0.5;"/>
   </g>
   <g id="line2d_7">
    <path clip-path="url(#p7cb1dda936)" d="
M40.0985 208.077
L236.069 208.077" style="fill:none;stroke:#000000;stroke-dasharray:1.000000,3.000000;stroke-dashoffset:0.0;stroke-width:0.5;"/>
   </g>
   <g id="line2d_8">
    <path clip-path="url(#p7cb1dda936)" d="
M40.0985 179.594
L236.069 179.594" style="fill:none;stroke:#000000;stroke-dasharray:1.000000,3.000000;stroke-dashoffset:0.0;stroke-width:0.5;"/>
   </g>
   <g id="line2d_9">
    <path clip-path="url(#p7cb1dda936)" d="
M40.0985 151.111
L236.069 151.111" style="fill:none;stroke:#000000;stroke-dasharray:1.000000,3.000000;stroke-dashoffset:0.0;stroke-width:0.5;"/>
   </g>
   <g id="line2d_10">
    <path clip-path="url(#p7cb1dda936)" d="
M40.0985 122.627
L236.069 122.627" style="fill:none;stroke:#000000;stroke-dasharray:1.000000,3.000000;stroke-dashoffset:0.0;stroke-width:0.5;"/>
   </g>
   <g id="line2d_11">
    <path clip-path="url(#p7cb1dda936)" d="
M40.0985 94.1443
L236.069 94.1443" style="fill:none;stroke:#000000;stroke-dasharray:1.000000,3.000000;stroke-dashoffset:0.0;stroke-width:0.5;"/>
   </g>
   <g id="line2d_12">
    <path clip-path="url(#p7cb1dda936)" d="
M40.0985 65.6611
L236.069 65.6611" style="fill:none;stroke:#000000;stroke-dasharray:1.000000,3.000000;stroke-dashoffset:0.0;stroke-width:0.5;"/>
   </g>
   <g id="line2d_13">
    <path clip-path="url(#p7cb1dda936)" d="
M40.0985 37.1779
L236.069 37.1779" style="fill:none;stroke:#000000;stroke-dasharray:1.000000,3.000000;stroke-dashoffset:0.0;stroke-width:0.5;"/>
   </g>
   <g id="line2d_14">
    <path clip-path="url(#p7cb1dda936)" d="
M70.7862 269.601
L70.7862 32.6206" style="fill:none;stroke:#000000;stroke-dasharray:1.000000,3.000000;stroke-dashoffset:0.0;stroke-width:0.5;"/>
   </g>
   <g id="line2d_15">
    <path clip-path="url(#p7cb1dda936)" d="
M97.7053 269.601
L97.7053 32.6206" style="fill:none;stroke:#000000;stroke-dasharray:1.000000,3.000000;stroke-dashoffset:0.0;stroke-width:0.5;"/>
   </g>
   <g id="line2d_16">
    <path clip-path="url(#p7cb1dda936)" d="
M124.624 269.601
L124.624 32.6206" style="fill:none;stroke:#000000;stroke-dasharray:1.000000,3.000000;stroke-dashoffset:0.0;stroke-width:0.5;"/>
   </g>
   <g id="line2d_17">
    <path clip-path="url(#p7cb1dda936)" d="
M151.543 269.601
L151.543 32.6206" style="fill:none;stroke:#000000;stroke-dasharray:1.000000,3.000000;stroke-dashoffset:0.0;stroke-width:0.5;"/>
   </g>
   <g id="line2d_18">
    <path clip-path="url(#p7cb1dda936)" d="
M178.462 269.601
L178.462 32.6206" style="fill:none;stroke:#000000;stroke-dasharray:1.000000,3.000000;stroke-dashoffset:0.0;stroke-width:0.5;"/>
   </g>
   <g id="line2d_19">
    <path clip-path="url(#p7cb1dda936)" d="
M205.382 269.601
L205.382 32.6206" style="fill:none;stroke:#000000;stroke-dasharray:1.000000,3.000000;stroke-dashoffset:0.0;stroke-width:0.5;"/>
   </g>
   <g id="line2d_20">
    <path clip-path="url(#p7cb1dda936)" d="
M232.301 269.601
L232.301 32.6206" style="fill:none;stroke:#000000;stroke-dasharray:1.000000,3.000000;stroke-dashoffset:0.0;stroke-width:0.5;"/>
   </g>
   <g id="matplotlib.axis_1">
    <g id="xtick_1">
     <g id="line2d_21">
      <defs>
       <path d="
M0 0
L0 -4" id="m93b0483c22" style="stroke:#000000;stroke-width:0.5;"/>
      </defs>
      <g>
       <use style="stroke:#000000;stroke-width:0.5;" x="97.7053043111" xlink:href="#m93b0483c22" y="151.110625"/>
      </g>
     </g>
     <g id="text_1">
      <!-- 1 -->
      <defs>
       <path d="
M12.4062 8.29688
L28.5156 8.29688
L28.5156 63.9219
L10.9844 60.4062
L10.9844 69.3906
L28.4219 72.9062
L38.2812 72.9062
L38.2812 8.29688
L54.3906 8.29688
L54.3906 0
L12.4062 0
z
" id="BitstreamVeraSans-Roman-31"/>
      </defs>
      <g transform="translate(93.7987418111 168.7878125)scale(0.18 -0.18)">
       <use xlink:href="#BitstreamVeraSans-Roman-31"/>
      </g>
     </g>
    </g>
    <g id="xtick_2">
     <g id="line2d_22">
      <g>
       <use style="stroke:#000000;stroke-width:0.5;" x="151.543421122" xlink:href="#m93b0483c22" y="151.110625"/>
      </g>
     </g>
     <g id="text_2">
      <!-- 2 -->
      <defs>
       <path d="
M19.1875 8.29688
L53.6094 8.29688
L53.6094 0
L7.32812 0
L7.32812 8.29688
Q12.9375 14.1094 22.625 23.8906
Q32.3281 33.6875 34.8125 36.5312
Q39.5469 41.8438 41.4219 45.5312
Q43.3125 49.2188 43.3125 52.7812
Q43.3125 58.5938 39.2344 62.25
Q35.1562 65.9219 28.6094 65.9219
Q23.9688 65.9219 18.8125 64.3125
Q13.6719 62.7031 7.8125 59.4219
L7.8125 69.3906
Q13.7656 71.7812 18.9375 73
Q24.125 74.2188 28.4219 74.2188
Q39.75 74.2188 46.4844 68.5469
Q53.2188 62.8906 53.2188 53.4219
Q53.2188 48.9219 51.5312 44.8906
Q49.8594 40.875 45.4062 35.4062
Q44.1875 33.9844 37.6406 27.2188
Q31.1094 20.4531 19.1875 8.29688" id="BitstreamVeraSans-Roman-32"/>
      </defs>
      <g transform="translate(147.378108622 168.7878125)scale(0.18 -0.18)">
       <use xlink:href="#BitstreamVeraSans-Roman-32"/>
      </g>
     </g>
    </g>
    <g id="xtick_3">
     <g id="line2d_23">
      <g>
       <use style="stroke:#000000;stroke-width:0.5;" x="205.381537933" xlink:href="#m93b0483c22" y="151.110625"/>
      </g>
     </g>
     <g id="text_3">
      <!-- 3 -->
      <defs>
       <path d="
M40.5781 39.3125
Q47.6562 37.7969 51.625 33
Q55.6094 28.2188 55.6094 21.1875
Q55.6094 10.4062 48.1875 4.48438
Q40.7656 -1.42188 27.0938 -1.42188
Q22.5156 -1.42188 17.6562 -0.515625
Q12.7969 0.390625 7.625 2.20312
L7.625 11.7188
Q11.7188 9.32812 16.5938 8.10938
Q21.4844 6.89062 26.8125 6.89062
Q36.0781 6.89062 40.9375 10.5469
Q45.7969 14.2031 45.7969 21.1875
Q45.7969 27.6406 41.2812 31.2656
Q36.7656 34.9062 28.7188 34.9062
L20.2188 34.9062
L20.2188 43.0156
L29.1094 43.0156
Q36.375 43.0156 40.2344 45.9219
Q44.0938 48.8281 44.0938 54.2969
Q44.0938 59.9062 40.1094 62.9062
Q36.1406 65.9219 28.7188 65.9219
Q24.6562 65.9219 20.0156 65.0312
Q15.375 64.1562 9.8125 62.3125
L9.8125 71.0938
Q15.4375 72.6562 20.3438 73.4375
Q25.25 74.2188 29.5938 74.2188
Q40.8281 74.2188 47.3594 69.1094
Q53.9062 64.0156 53.9062 55.3281
Q53.9062 49.2656 50.4375 45.0938
Q46.9688 40.9219 40.5781 39.3125" id="BitstreamVeraSans-Roman-33"/>
      </defs>
      <g transform="translate(201.062944183 168.7878125)scale(0.18 -0.18)">
       <use xlink:href="#BitstreamVeraSans-Roman-33"/>
      </g>
     </g>
    </g>
    <g id="text_4">
     <!-- hrs -->
     <defs>
      <path d="
M41.1094 46.2969
Q39.5938 47.1719 37.8125 47.5781
Q36.0312 48 33.8906 48
Q26.2656 48 22.1875 43.0469
Q18.1094 38.0938 18.1094 28.8125
L18.1094 0
L9.07812 0
L9.07812 54.6875
L18.1094 54.6875
L18.1094 46.1875
Q20.9531 51.1719 25.4844 53.5781
Q30.0312 56 36.5312 56
Q37.4531 56 38.5781 55.875
Q39.7031 55.7656 41.0625 55.5156
z
" id="BitstreamVeraSans-Roman-72"/>
      <path d="
M54.8906 33.0156
L54.8906 0
L45.9062 0
L45.9062 32.7188
Q45.9062 40.4844 42.875 44.3281
Q39.8438 48.1875 33.7969 48.1875
Q26.5156 48.1875 22.3125 43.5469
Q18.1094 38.9219 18.1094 30.9062
L18.1094 0
L9.07812 0
L9.07812 75.9844
L18.1094 75.9844
L18.1094 46.1875
Q21.3438 51.125 25.7031 53.5625
Q30.0781 56 35.7969 56
Q45.2188 56 50.0469 50.1719
Q54.8906 44.3438 54.8906 33.0156" id="BitstreamVeraSans-Roman-68"/>
      <path d="
M44.2812 53.0781
L44.2812 44.5781
Q40.4844 46.5312 36.375 47.5
Q32.2812 48.4844 27.875 48.4844
Q21.1875 48.4844 17.8438 46.4375
Q14.5 44.3906 14.5 40.2812
Q14.5 37.1562 16.8906 35.375
Q19.2812 33.5938 26.5156 31.9844
L29.5938 31.2969
Q39.1562 29.25 43.1875 25.5156
Q47.2188 21.7812 47.2188 15.0938
Q47.2188 7.46875 41.1875 3.01562
Q35.1562 -1.42188 24.6094 -1.42188
Q20.2188 -1.42188 15.4531 -0.5625
Q10.6875 0.296875 5.42188 2
L5.42188 11.2812
Q10.4062 8.6875 15.2344 7.39062
Q20.0625 6.10938 24.8125 6.10938
Q31.1562 6.10938 34.5625 8.28125
Q37.9844 10.4531 37.9844 14.4062
Q37.9844 18.0625 35.5156 20.0156
Q33.0625 21.9688 24.7031 23.7812
L21.5781 24.5156
Q13.2344 26.2656 9.51562 29.9062
Q5.8125 33.5469 5.8125 39.8906
Q5.8125 47.6094 11.2812 51.7969
Q16.75 56 26.8125 56
Q31.7812 56 36.1719 55.2656
Q40.5781 54.5469 44.2812 53.0781" id="BitstreamVeraSans-Roman-73"/>
     </defs>
     <g transform="translate(244.069264516 151.110625)scale(0.18 -0.18)">
      <use xlink:href="#BitstreamVeraSans-Roman-68"/>
      <use x="63.37890625" xlink:href="#BitstreamVeraSans-Roman-72"/>
      <use x="104.4921875" xlink:href="#BitstreamVeraSans-Roman-73"/>
     </g>
    </g>
   </g>
   <g id="matplotlib.axis_2">
    <g id="ytick_1">
     <g id="line2d_24">
      <defs>
       <path d="
M0 0
L4 0" id="m728421d6d4" style="stroke:#000000;stroke-width:0.5;"/>
      </defs>
      <g>
       <use style="stroke:#000000;stroke-width:0.5;" x="43.8671875" xlink:href="#m728421d6d4" y="236.560144231"/>
      </g>
     </g>
     <g id="text_5">
      <!-- -4.5 -->
      <defs>
       <path d="
M10.6875 12.4062
L21 12.4062
L21 0
L10.6875 0
z
" id="BitstreamVeraSans-Roman-2e"/>
       <path d="
M4.89062 31.3906
L31.2031 31.3906
L31.2031 23.3906
L4.89062 23.3906
z
" id="BitstreamVeraSans-Roman-2d"/>
       <path d="
M37.7969 64.3125
L12.8906 25.3906
L37.7969 25.3906
z

M35.2031 72.9062
L47.6094 72.9062
L47.6094 25.3906
L58.0156 25.3906
L58.0156 17.1875
L47.6094 17.1875
L47.6094 0
L37.7969 0
L37.7969 17.1875
L4.89062 17.1875
L4.89062 26.7031
z
" id="BitstreamVeraSans-Roman-34"/>
       <path d="
M10.7969 72.9062
L49.5156 72.9062
L49.5156 64.5938
L19.8281 64.5938
L19.8281 46.7344
Q21.9688 47.4688 24.1094 47.8281
Q26.2656 48.1875 28.4219 48.1875
Q40.625 48.1875 47.75 41.5
Q54.8906 34.8125 54.8906 23.3906
Q54.8906 11.625 47.5625 5.09375
Q40.2344 -1.42188 26.9062 -1.42188
Q22.3125 -1.42188 17.5469 -0.640625
Q12.7969 0.140625 7.71875 1.70312
L7.71875 11.625
Q12.1094 9.23438 16.7969 8.0625
Q21.4844 6.89062 26.7031 6.89062
Q35.1562 6.89062 40.0781 11.3281
Q45.0156 15.7656 45.0156 23.3906
Q45.0156 31 40.0781 35.4375
Q35.1562 39.8906 26.7031 39.8906
Q22.75 39.8906 18.8125 39.0156
Q14.8906 38.1406 10.7969 36.2812
z
" id="BitstreamVeraSans-Roman-35"/>
      </defs>
      <g transform="translate(7.2 241.527019231)scale(0.18 -0.18)">
       <use xlink:href="#BitstreamVeraSans-Roman-2d"/>
       <use x="36.083984375" xlink:href="#BitstreamVeraSans-Roman-34"/>
       <use x="99.70703125" xlink:href="#BitstreamVeraSans-Roman-2e"/>
       <use x="131.494140625" xlink:href="#BitstreamVeraSans-Roman-35"/>
      </g>
     </g>
    </g>
    <g id="ytick_2">
     <g id="line2d_25">
      <g>
       <use style="stroke:#000000;stroke-width:0.5;" x="43.8671875" xlink:href="#m728421d6d4" y="208.076971154"/>
      </g>
     </g>
     <g id="text_6">
      <!-- -3 -->
      <g transform="translate(24.24375 213.043846154)scale(0.18 -0.18)">
       <use xlink:href="#BitstreamVeraSans-Roman-2d"/>
       <use x="36.083984375" xlink:href="#BitstreamVeraSans-Roman-33"/>
      </g>
     </g>
    </g>
    <g id="ytick_3">
     <g id="line2d_26">
      <g>
       <use style="stroke:#000000;stroke-width:0.5;" x="43.8671875" xlink:href="#m728421d6d4" y="179.593798077"/>
      </g>
     </g>
     <g id="text_7">
      <!-- -1.5 -->
      <g transform="translate(7.2 184.560673077)scale(0.18 -0.18)">
       <use xlink:href="#BitstreamVeraSans-Roman-2d"/>
       <use x="36.083984375" xlink:href="#BitstreamVeraSans-Roman-31"/>
       <use x="99.70703125" xlink:href="#BitstreamVeraSans-Roman-2e"/>
       <use x="131.494140625" xlink:href="#BitstreamVeraSans-Roman-35"/>
      </g>
     </g>
    </g>
    <g id="ytick_4">
     <g id="line2d_27">
      <g>
       <use style="stroke:#000000;stroke-width:0.5;" x="43.8671875" xlink:href="#m728421d6d4" y="151.110625"/>
      </g>
     </g>
    </g>
    <g id="ytick_5">
     <g id="line2d_28">
      <g>
       <use style="stroke:#000000;stroke-width:0.5;" x="43.8671875" xlink:href="#m728421d6d4" y="122.627451923"/>
      </g>
     </g>
     <g id="text_8">
      <!-- 1.5 -->
      <g transform="translate(14.7909375 127.594326923)scale(0.18 -0.18)">
       <use xlink:href="#BitstreamVeraSans-Roman-31"/>
       <use x="63.623046875" xlink:href="#BitstreamVeraSans-Roman-2e"/>
       <use x="95.41015625" xlink:href="#BitstreamVeraSans-Roman-35"/>
      </g>
     </g>
    </g>
    <g id="ytick_6">
     <g id="line2d_29">
      <g>
       <use style="stroke:#000000;stroke-width:0.5;" x="43.8671875" xlink:href="#m728421d6d4" y="94.1442788462"/>
      </g>
     </g>
     <g id="text_9">
      <!-- 3 -->
      <g transform="translate(31.23 99.1111538462)scale(0.18 -0.18)">
       <use xlink:href="#BitstreamVeraSans-Roman-33"/>
      </g>
     </g>
    </g>
    <g id="ytick_7">
     <g id="line2d_30">
      <g>
       <use style="stroke:#000000;stroke-width:0.5;" x="43.8671875" xlink:href="#m728421d6d4" y="65.6611057692"/>
      </g>
     </g>
     <g id="text_10">
      <!-- 4.5 -->
      <g transform="translate(13.6940625 70.6279807692)scale(0.18 -0.18)">
       <use xlink:href="#BitstreamVeraSans-Roman-34"/>
       <use x="63.623046875" xlink:href="#BitstreamVeraSans-Roman-2e"/>
       <use x="95.41015625" xlink:href="#BitstreamVeraSans-Roman-35"/>
      </g>
     </g>
    </g>
    <g id="text_11">
     <!-- mph -->
     <defs>
      <path d="
M52 44.1875
Q55.375 50.25 60.0625 53.125
Q64.75 56 71.0938 56
Q79.6406 56 84.2812 50.0156
Q88.9219 44.0469 88.9219 33.0156
L88.9219 0
L79.8906 0
L79.8906 32.7188
Q79.8906 40.5781 77.0938 44.375
Q74.3125 48.1875 68.6094 48.1875
Q61.625 48.1875 57.5625 43.5469
Q53.5156 38.9219 53.5156 30.9062
L53.5156 0
L44.4844 0
L44.4844 32.7188
Q44.4844 40.625 41.7031 44.4062
Q38.9219 48.1875 33.1094 48.1875
Q26.2188 48.1875 22.1562 43.5312
Q18.1094 38.875 18.1094 30.9062
L18.1094 0
L9.07812 0
L9.07812 54.6875
L18.1094 54.6875
L18.1094 46.1875
Q21.1875 51.2188 25.4844 53.6094
Q29.7812 56 35.6875 56
Q41.6562 56 45.8281 52.9688
Q50 49.9531 52 44.1875" id="BitstreamVeraSans-Roman-6d"/>
      <path d="
M18.1094 8.20312
L18.1094 -20.7969
L9.07812 -20.7969
L9.07812 54.6875
L18.1094 54.6875
L18.1094 46.3906
Q20.9531 51.2656 25.2656 53.625
Q29.5938 56 35.5938 56
Q45.5625 56 51.7812 48.0938
Q58.0156 40.1875 58.0156 27.2969
Q58.0156 14.4062 51.7812 6.48438
Q45.5625 -1.42188 35.5938 -1.42188
Q29.5938 -1.42188 25.2656 0.953125
Q20.9531 3.32812 18.1094 8.20312
M48.6875 27.2969
Q48.6875 37.2031 44.6094 42.8438
Q40.5312 48.4844 33.4062 48.4844
Q26.2656 48.4844 22.1875 42.8438
Q18.1094 37.2031 18.1094 27.2969
Q18.1094 17.3906 22.1875 11.75
Q26.2656 6.10938 33.4062 6.10938
Q40.5312 6.10938 44.6094 11.75
Q48.6875 17.3906 48.6875 27.2969" id="BitstreamVeraSans-Roman-70"/>
     </defs>
     <g transform="translate(25.26390625 20.8771875)scale(0.18 -0.18)">
      <use xlink:href="#BitstreamVeraSans-Roman-6d"/>
      <use x="97.412109375" xlink:href="#BitstreamVeraSans-Roman-70"/>
      <use x="160.888671875" xlink:href="#BitstreamVeraSans-Roman-68"/>
     </g>
    </g>
   </g>
   <g id="patch_6">
    <path d="
M40.0985 151.111
L236.069 151.111" style="fill:none;stroke:#000000;stroke-width:0.8;"/>
   </g>
   <g id="patch_7">
    <path d="
M43.8672 269.601
L43.8672 32.6206" style="fill:none;stroke:#000000;stroke-width:0.8;"/>
   </g>
   <g id="text_12">
    <!-- $y=v(t)$ -->
    <defs>
     <path d="
M31 -24.8125
Q25.4375 -20.4062 21.4062 -14.7188
Q17.3906 -9.03125 14.8125 -2.57812
Q12.25 3.85938 10.9844 10.8906
Q9.71875 17.9219 9.71875 25
Q9.71875 32.1719 10.9844 39.2031
Q12.25 46.2344 14.8594 52.7344
Q17.4844 59.2344 21.5312 64.8906
Q25.5938 70.5625 31 74.8125
Q31 75 31.5 75
L32.4219 75
Q32.7188 75 32.9531 74.7344
Q33.2031 74.4688 33.2031 74.125
Q33.2031 73.6875 33.0156 73.4844
Q28.125 68.7031 24.875 63.2344
Q21.625 57.7656 19.6406 51.5781
Q17.6719 45.4062 16.7969 38.7812
Q15.9219 32.1719 15.9219 25
Q15.9219 -6.78125 32.9062 -23.2969
Q33.2031 -23.5781 33.2031 -24.125
Q33.2031 -24.3594 32.9375 -24.6719
Q32.6719 -25 32.4219 -25
L31.5 -25
Q31 -25 31 -24.8125" id="Cmr10-28"/>
     <path d="
M6.5 -25
Q5.60938 -25 5.60938 -24.125
Q5.60938 -23.6875 5.8125 -23.4844
Q22.9062 -6.78125 22.9062 25
Q22.9062 56.7812 6 73.2969
Q5.60938 73.5312 5.60938 74.125
Q5.60938 74.4688 5.875 74.7344
Q6.15625 75 6.5 75
L7.42188 75
Q7.71875 75 7.90625 74.8125
Q15.0938 69.1406 19.875 61.0312
Q24.6562 52.9375 26.875 43.75
Q29.1094 34.5781 29.1094 25
Q29.1094 17.9219 27.9062 11.0625
Q26.7031 4.20312 24.0938 -2.45312
Q21.4844 -9.125 17.4844 -14.7656
Q13.4844 -20.4062 7.90625 -24.8125
Q7.71875 -25 7.42188 -25
z
" id="Cmr10-29"/>
     <path d="
M10.6875 11.2812
Q10.6875 13.5312 11.2188 16.2031
Q11.7656 18.8906 12.2969 20.625
Q12.8438 22.3594 14.75 27.3906
Q16.6562 32.4219 16.7031 32.625
Q18.0156 36.2812 18.0156 38.625
Q18.0156 41.6094 15.8281 41.6094
Q11.8594 41.6094 9.29688 37.5312
Q6.73438 33.4531 5.51562 28.4219
Q5.32812 27.7812 4.6875 27.7812
L3.51562 27.7812
Q2.6875 27.7812 2.6875 28.7188
L2.6875 29
Q4.29688 34.9688 7.60938 39.5781
Q10.9375 44.1875 16.0156 44.1875
Q19.5781 44.1875 22.0469 41.8438
Q24.5156 39.5 24.5156 35.8906
Q24.5156 34.0312 23.6875 31.9844
Q21.7344 26.9062 20.6094 23.8438
Q19.4844 20.7969 18.5312 17.0156
Q17.5781 13.2344 17.5781 10.0156
Q17.5781 6.25 19.3125 3.875
Q21.0469 1.51562 24.7031 1.51562
Q31.6406 1.51562 37.2031 12.2031
Q38.9688 15.6719 40.5312 20.3594
Q42.0938 25.0469 42.0938 27.9844
Q42.0938 31 41.1094 32.6875
Q40.1406 34.375 38.5781 36.2031
Q37.0156 38.0312 37.0156 39.1094
Q37.0156 41.0625 38.625 42.6719
Q40.2344 44.2812 42.1875 44.2812
Q44.5781 44.2812 45.625 42.0781
Q46.6875 39.8906 46.6875 37.1094
Q46.6875 33.7969 45.7344 29.2031
Q44.7812 24.6094 43.0938 19.6719
Q41.4062 14.75 39.9844 11.9219
Q33.4062 -1.125 24.6094 -1.125
Q18.3125 -1.125 14.5 2.01562
Q10.6875 5.17188 10.6875 11.2812" id="Cmmi10-76"/>
     <path d="
M6.20312 8.10938
Q6.20312 9.57812 6.5 10.8906
L13.7188 39.5938
L3.21875 39.5938
Q2.20312 39.5938 2.20312 40.9219
Q2.59375 43.1094 3.51562 43.1094
L14.5938 43.1094
L18.6094 59.4219
Q19 60.75 20.1719 61.6719
Q21.3438 62.5938 22.7969 62.5938
Q24.0781 62.5938 24.9219 61.8281
Q25.7812 61.0781 25.7812 59.8125
Q25.7812 59.5156 25.75 59.3438
Q25.7344 59.1875 25.6875 58.9844
L21.6875 43.1094
L31.9844 43.1094
Q33.0156 43.1094 33.0156 41.7969
Q32.9531 41.5469 32.8125 40.9531
Q32.6719 40.375 32.4219 39.9844
Q32.1719 39.5938 31.6875 39.5938
L20.7969 39.5938
L13.625 10.6875
Q12.8906 7.85938 12.8906 5.8125
Q12.8906 1.51562 15.8281 1.51562
Q20.2188 1.51562 23.6094 5.64062
Q27 9.76562 28.8125 14.7031
Q29.2031 15.2812 29.5938 15.2812
L30.8125 15.2812
Q31.2031 15.2812 31.4375 15.0156
Q31.6875 14.75 31.6875 14.4062
Q31.6875 14.2031 31.5938 14.1094
Q29.3906 8.0625 25.1875 3.46875
Q21 -1.125 15.5781 -1.125
Q11.625 -1.125 8.90625 1.45312
Q6.20312 4.04688 6.20312 8.10938" id="Cmmi10-74"/>
     <path d="
M7.51562 13.2812
Q6.6875 13.2812 6.14062 13.9062
Q5.60938 14.5469 5.60938 15.2812
Q5.60938 16.1094 6.14062 16.6875
Q6.6875 17.2812 7.51562 17.2812
L70.3125 17.2812
Q71.0469 17.2812 71.5781 16.6875
Q72.125 16.1094 72.125 15.2812
Q72.125 14.5469 71.5781 13.9062
Q71.0469 13.2812 70.3125 13.2812
z

M7.51562 32.7188
Q6.6875 32.7188 6.14062 33.2969
Q5.60938 33.8906 5.60938 34.7188
Q5.60938 35.4531 6.14062 36.0781
Q6.6875 36.7188 7.51562 36.7188
L70.3125 36.7188
Q71.0469 36.7188 71.5781 36.0781
Q72.125 35.4531 72.125 34.7188
Q72.125 33.8906 71.5781 33.2969
Q71.0469 32.7188 70.3125 32.7188
z
" id="Cmr10-3d"/>
     <path d="
M8.40625 -14.3125
Q10.5 -17.9219 15.7188 -17.9219
Q20.4531 -17.9219 23.9219 -14.5938
Q27.3906 -11.2812 29.5156 -6.5625
Q31.6406 -1.85938 32.8125 3.07812
Q28.375 -1.125 23.1875 -1.125
Q19.2344 -1.125 16.4531 0.234375
Q13.6719 1.60938 12.125 4.3125
Q10.5938 7.03125 10.5938 10.8906
Q10.5938 14.1562 11.4688 17.5938
Q12.3594 21.0469 13.9375 25.2656
Q15.5312 29.5 16.7031 32.625
Q18.0156 36.2812 18.0156 38.625
Q18.0156 41.6094 15.8281 41.6094
Q11.8594 41.6094 9.29688 37.5312
Q6.73438 33.4531 5.51562 28.4219
Q5.32812 27.7812 4.6875 27.7812
L3.51562 27.7812
Q2.6875 27.7812 2.6875 28.7188
L2.6875 29
Q4.29688 34.9688 7.60938 39.5781
Q10.9375 44.1875 16.0156 44.1875
Q19.5781 44.1875 22.0469 41.8438
Q24.5156 39.5 24.5156 35.8906
Q24.5156 34.0312 23.6875 31.9844
Q23.25 30.7656 21.6875 26.6562
Q20.125 22.5625 19.2812 19.875
Q18.4531 17.1875 17.9219 14.5938
Q17.3906 12.0156 17.3906 9.42188
Q17.3906 6.10938 18.7969 3.8125
Q20.2188 1.51562 23.2969 1.51562
Q29.5 1.51562 34.4219 9.07812
L42 39.8906
Q42.3281 41.2188 43.5469 42.1562
Q44.7812 43.1094 46.1875 43.1094
Q47.4062 43.1094 48.3125 42.3281
Q49.2188 41.5469 49.2188 40.2812
Q49.2188 39.7031 49.125 39.5
L39.2031 -0.296875
Q37.8906 -5.42188 34.375 -10.1094
Q30.8594 -14.7969 25.9062 -17.6562
Q20.9531 -20.5156 15.5781 -20.5156
Q12.9844 -20.5156 10.4375 -19.5
Q7.90625 -18.5 6.34375 -16.5
Q4.78125 -14.5 4.78125 -11.8125
Q4.78125 -9.07812 6.39062 -7.07812
Q8.01562 -5.07812 10.6875 -5.07812
Q12.3125 -5.07812 13.4062 -6.07812
Q14.5 -7.07812 14.5 -8.6875
Q14.5 -10.9844 12.7812 -12.6875
Q11.0781 -14.4062 8.79688 -14.4062
Q8.6875 -14.3594 8.59375 -14.3281
Q8.5 -14.3125 8.40625 -14.3125" id="Cmmi10-79"/>
    </defs>
    <g transform="translate(69.5353043111 84.4026923077)scale(0.18 -0.18)">
     <use xlink:href="#Cmmi10-79"/>
     <use transform="translate(66.58203125 0.0)" xlink:href="#Cmr10-3d"/>
     <use transform="translate(150.640625 0.0)" xlink:href="#Cmmi10-76"/>
     <use transform="translate(199.029296875 0.0)" xlink:href="#Cmr10-28"/>
     <use transform="translate(237.84765625 0.0)" xlink:href="#Cmmi10-74"/>
     <use transform="translate(273.931640625 0.0)" xlink:href="#Cmr10-29"/>
    </g>
   </g>
   <g id="text_13">
    <!-- $A_1 = 4.5$ -->
    <defs>
     <path d="
M9.28125 0
L9.28125 3.51562
Q21.7812 3.51562 21.7812 6.6875
L21.7812 59.1875
Q16.6094 56.6875 8.6875 56.6875
L8.6875 60.2031
Q20.9531 60.2031 27.2031 66.6094
L28.6094 66.6094
Q28.9531 66.6094 29.2656 66.3281
Q29.5938 66.0625 29.5938 65.7188
L29.5938 6.6875
Q29.5938 3.51562 42.0938 3.51562
L42.0938 0
z
" id="Cmr10-31"/>
     <path d="
M8.40625 5.51562
Q8.40625 7.76562 10.0625 9.375
Q11.7188 10.9844 13.9219 10.9844
Q15.2812 10.9844 16.5938 10.25
Q17.9219 9.51562 18.6562 8.20312
Q19.3906 6.89062 19.3906 5.51562
Q19.3906 3.32812 17.7656 1.65625
Q16.1562 0 13.9219 0
Q11.7188 0 10.0625 1.65625
Q8.40625 3.32812 8.40625 5.51562" id="Cmmi10-3a"/>
     <path d="
M8.6875 11.375
Q9.71875 8.45312 11.8438 6.04688
Q13.9688 3.65625 16.875 2.3125
Q19.7812 0.984375 22.9062 0.984375
Q30.125 0.984375 32.8594 6.59375
Q35.5938 12.2031 35.5938 20.2188
Q35.5938 23.6875 35.4688 26.0469
Q35.3594 28.4219 34.8125 30.6094
Q33.8906 34.125 31.5625 36.7656
Q29.25 39.4062 25.875 39.4062
Q22.5156 39.4062 20.0938 38.375
Q17.6719 37.3594 16.1562 35.9844
Q14.6562 34.625 13.4844 33.1094
Q12.3125 31.5938 12.0156 31.5
L10.8906 31.5
Q10.6406 31.5 10.2656 31.8125
Q9.90625 32.125 9.90625 32.4219
L9.90625 65.8281
Q9.90625 66.0625 10.2188 66.3281
Q10.5469 66.6094 10.8906 66.6094
L11.1875 66.6094
Q17.9219 63.375 25.4844 63.375
Q32.9062 63.375 39.7969 66.6094
L40.0938 66.6094
Q40.4375 66.6094 40.7188 66.3594
Q41.0156 66.1094 41.0156 65.8281
L41.0156 64.8906
Q41.0156 64.4062 40.8281 64.4062
Q37.4062 59.8594 32.25 57.3125
Q27.0938 54.7812 21.5781 54.7812
Q17.5781 54.7812 13.375 55.9062
L13.375 37.0156
Q16.7031 39.7031 19.3125 40.8438
Q21.9219 42 25.9844 42
Q31.5 42 35.8594 38.8125
Q40.2344 35.6406 42.5781 30.5312
Q44.9219 25.4375 44.9219 20.125
Q44.9219 14.1094 41.9688 8.98438
Q39.0156 3.85938 33.9375 0.828125
Q28.8594 -2.20312 22.9062 -2.20312
Q17.9688 -2.20312 13.8438 0.328125
Q9.71875 2.875 7.34375 7.17188
Q4.98438 11.4688 4.98438 16.3125
Q4.98438 18.5625 6.4375 19.9688
Q7.90625 21.3906 10.1094 21.3906
Q12.3125 21.3906 13.7969 19.9375
Q15.2812 18.5 15.2812 16.3125
Q15.2812 14.1562 13.7969 12.6719
Q12.3125 11.1875 10.1094 11.1875
Q9.76562 11.1875 9.32812 11.25
Q8.89062 11.3281 8.6875 11.375" id="Cmr10-35"/>
     <path d="
M4.5 0
Q3.51562 0 3.51562 1.3125
Q3.90625 3.51562 4.78125 3.51562
Q8.84375 3.51562 11.7969 5.125
Q14.75 6.73438 16.8906 10.1094
Q17.0938 10.2969 17.0938 10.2969
L52.7812 70.5156
Q53.5625 71.5781 54.6875 71.5781
L56 71.5781
Q56.2969 71.5781 56.5938 71.4531
Q56.8906 71.3438 57.1094 71.0625
Q57.3281 70.7969 57.3281 70.5156
L63.375 5.90625
Q63.375 5.46875 63.8125 4.59375
Q64.7969 3.51562 71.2969 3.51562
Q72.3125 3.51562 72.3125 2.20312
Q71.9688 0.875 71.75 0.4375
Q71.5312 0 70.6094 0
L45.6094 0
Q44.6719 0 44.6719 1.3125
Q45.2188 3.51562 46 3.51562
Q53.9062 3.51562 54.3906 6.20312
L52.875 22.7031
L28.2188 22.7031
L20.2188 9.28125
Q19.4844 8.20312 19.4844 6.78125
Q19.4844 5.03125 21.1719 4.26562
Q22.8594 3.51562 24.9062 3.51562
Q25.875 3.51562 25.875 2.20312
Q25.5312 0.78125 25.3281 0.390625
Q25.1406 0 24.2188 0
z

M30.1719 26.2188
L52.4844 26.2188
L49.5156 58.5938
z
" id="Cmmi10-41"/>
     <path d="
M2.78125 16.5
L2.78125 20.0156
L33.6875 66.1094
Q34.0312 66.6094 34.7188 66.6094
L36.1875 66.6094
Q37.3125 66.6094 37.3125 65.4844
L37.3125 20.0156
L47.125 20.0156
L47.125 16.5
L37.3125 16.5
L37.3125 6.6875
Q37.3125 4.64062 40.2344 4.07812
Q43.1719 3.51562 47.0156 3.51562
L47.0156 0
L19.4844 0
L19.4844 3.51562
Q23.3438 3.51562 26.2656 4.07812
Q29.2031 4.64062 29.2031 6.6875
L29.2031 16.5
z

M6.10938 20.0156
L29.7812 20.0156
L29.7812 55.4219
z
" id="Cmr10-34"/>
    </defs>
    <g transform="translate(52.2057751083 125.818012821)scale(0.18 -0.18)">
     <use transform="translate(0.0 0.421875)" xlink:href="#Cmmi10-41"/>
     <use transform="translate(75.0 -25.0875)scale(0.7)" xlink:href="#Cmr10-31"/>
     <use transform="translate(142.55859375 0.421875)" xlink:href="#Cmr10-3d"/>
     <use transform="translate(226.6171875 0.421875)" xlink:href="#Cmr10-34"/>
     <use transform="translate(276.6171875 0.421875)" xlink:href="#Cmmi10-3a"/>
     <use transform="translate(305.16015625 0.421875)" xlink:href="#Cmr10-35"/>
    </g>
   </g>
   <g id="text_14">
    <!-- $A_2 = 2$ -->
    <defs>
     <path d="
M4.98438 0
L4.98438 2.6875
Q4.98438 2.9375 5.17188 3.21875
L20.7031 20.4062
Q24.2188 24.2188 26.4062 26.7969
Q28.6094 29.3906 30.75 32.7656
Q32.9062 36.1406 34.1562 39.625
Q35.4062 43.1094 35.4062 47.0156
Q35.4062 51.125 33.8906 54.8594
Q32.375 58.5938 29.375 60.8438
Q26.375 63.0938 22.125 63.0938
Q17.7812 63.0938 14.3125 60.4688
Q10.8438 57.8594 9.42188 53.7188
Q9.8125 53.8125 10.5 53.8125
Q12.75 53.8125 14.3281 52.2969
Q15.9219 50.7812 15.9219 48.3906
Q15.9219 46.0938 14.3281 44.5
Q12.75 42.9219 10.5 42.9219
Q8.15625 42.9219 6.5625 44.5469
Q4.98438 46.1875 4.98438 48.3906
Q4.98438 52.1562 6.39062 55.4375
Q7.8125 58.7344 10.4688 61.2969
Q13.1406 63.875 16.4844 65.2344
Q19.8281 66.6094 23.5781 66.6094
Q29.2969 66.6094 34.2188 64.1875
Q39.1562 61.7656 42.0312 57.3438
Q44.9219 52.9375 44.9219 47.0156
Q44.9219 42.6719 43.0156 38.7656
Q41.1094 34.8594 38.125 31.6562
Q35.1562 28.4688 30.5156 24.4062
Q25.875 20.3594 24.4219 19
L13.0938 8.10938
L22.7031 8.10938
Q29.7812 8.10938 34.5469 8.21875
Q39.3125 8.34375 39.5938 8.59375
Q40.7656 9.85938 42 17.8281
L44.9219 17.8281
L42.0938 0
z
" id="Cmr10-32"/>
    </defs>
    <g transform="translate(113.153891919 197.975384615)scale(0.18 -0.18)">
     <use transform="translate(0.0 0.421875)" xlink:href="#Cmmi10-41"/>
     <use transform="translate(75.0 -25.0875)scale(0.7)" xlink:href="#Cmr10-32"/>
     <use transform="translate(142.55859375 0.421875)" xlink:href="#Cmr10-3d"/>
     <use transform="translate(226.6171875 0.421875)" xlink:href="#Cmr10-32"/>
    </g>
   </g>
   <g id="text_15">
    <!-- $A_3 = 3$ -->
    <defs>
     <path d="
M9.51562 7.71875
Q11.8594 4.29688 15.8125 2.64062
Q19.7812 0.984375 24.3125 0.984375
Q30.125 0.984375 32.5625 5.9375
Q35.0156 10.8906 35.0156 17.1875
Q35.0156 20.0156 34.5 22.8438
Q33.9844 25.6875 32.7656 28.125
Q31.5469 30.5625 29.4219 32.0312
Q27.2969 33.5 24.2188 33.5
L17.5781 33.5
Q16.7031 33.5 16.7031 34.4219
L16.7031 35.2969
Q16.7031 36.0781 17.5781 36.0781
L23.0938 36.5312
Q26.6094 36.5312 28.9219 39.1562
Q31.25 41.7969 32.3281 45.5781
Q33.4062 49.3594 33.4062 52.7812
Q33.4062 57.5625 31.1562 60.6406
Q28.9062 63.7188 24.3125 63.7188
Q20.5156 63.7188 17.0469 62.2812
Q13.5781 60.8438 11.5312 57.9062
Q11.7188 57.9531 11.8594 57.9844
Q12.0156 58.0156 12.2031 58.0156
Q14.4531 58.0156 15.9688 56.4531
Q17.4844 54.8906 17.4844 52.6875
Q17.4844 50.5312 15.9688 48.9688
Q14.4531 47.4062 12.2031 47.4062
Q10.0156 47.4062 8.45312 48.9688
Q6.89062 50.5312 6.89062 52.6875
Q6.89062 56.9844 9.46875 60.1562
Q12.0625 63.3281 16.1406 64.9688
Q20.2188 66.6094 24.3125 66.6094
Q27.3438 66.6094 30.7031 65.7031
Q34.0781 64.7969 36.8125 63.1094
Q39.5469 61.4219 41.2812 58.7812
Q43.0156 56.1562 43.0156 52.7812
Q43.0156 48.5781 41.1406 45.0156
Q39.2656 41.4531 35.9844 38.8594
Q32.7188 36.2812 28.8125 35.0156
Q33.1562 34.1875 37.0625 31.7344
Q40.9688 29.2969 43.3281 25.4844
Q45.7031 21.6875 45.7031 17.2812
Q45.7031 11.7656 42.6719 7.29688
Q39.6562 2.82812 34.7188 0.3125
Q29.7812 -2.20312 24.3125 -2.20312
Q19.625 -2.20312 14.9062 -0.40625
Q10.2031 1.375 7.20312 4.9375
Q4.20312 8.5 4.20312 13.4844
Q4.20312 15.9688 5.85938 17.625
Q7.51562 19.2812 10.0156 19.2812
Q11.625 19.2812 12.9688 18.5312
Q14.3125 17.7812 15.0625 16.4062
Q15.8281 15.0469 15.8281 13.4844
Q15.8281 11.0312 14.1094 9.375
Q12.4062 7.71875 10.0156 7.71875
z
" id="Cmr10-33"/>
    </defs>
    <g transform="translate(153.532479528 125.638012821)scale(0.18 -0.18)">
     <use transform="translate(0.0 0.421875)" xlink:href="#Cmmi10-41"/>
     <use transform="translate(75.0 -25.0875)scale(0.7)" xlink:href="#Cmr10-33"/>
     <use transform="translate(142.55859375 0.421875)" xlink:href="#Cmr10-3d"/>
     <use transform="translate(226.6171875 0.421875)" xlink:href="#Cmr10-33"/>
    </g>
   </g>
  </g>
 </g>
 <defs>
  <clipPath id="p7cb1dda936">
   <rect height="236.98" width="195.970745192" x="40.0985193232" y="32.620625"/>
  </clipPath>
 </defs>
</svg>
