<?xml version="1.0" encoding="utf-8" standalone="no"?>
<!DOCTYPE svg PUBLIC "-//W3C//DTD SVG 1.1//EN"
  "http://www.w3.org/Graphics/SVG/1.1/DTD/svg11.dtd">
<!-- Created with matplotlib (http://matplotlib.org/) -->
<svg height="280pt" version="1.1" viewBox="0 0 312 280" width="312pt" xmlns="http://www.w3.org/2000/svg" xmlns:xlink="http://www.w3.org/1999/xlink">
 <defs>
  <style type="text/css">
*{stroke-linecap:butt;stroke-linejoin:round;}
  </style>
 </defs>
 <g id="figure_1">
  <g id="patch_1">
   <path d="
M0 280.15
L312.48 280.15
L312.48 0
L0 0
z
" style="fill:#ffffff;"/>
  </g>
  <g id="axes_1">
   <g id="patch_2">
    <path d="
M7.2 269.28
L305.28 269.28
L305.28 7.2
L7.2 7.2
z
" style="fill:#ffffff;"/>
   </g>
   <g id="patch_3">
    <path clip-path="url(#pf300deb6a1)" d="
M98.9169 180.24
L98.9169 64.5231
L99.2173 64.9492
L99.2756 65.0329
L99.4935 65.3481
L99.7227 65.6842
L100.175 66.3618
L100.219 66.4285
L100.535 66.9135
L100.843 67.3943
L101.013 67.6623
L101.194 67.9525
L101.391 68.2687
L101.642 68.6794
L101.813 68.961
L102.035 69.331
L102.47 70.0679
L102.589 70.2728
L102.864 70.7494
L103.108 71.1772
L103.227 71.389
L103.564 71.9902
L103.763 72.3519
L103.887 72.5774
L104.231 73.2106
L104.428 73.5775
L104.596 73.8926
L104.814 74.3047
L105.09 74.8325
L105.28 75.2004
L105.681 75.982
L105.878 76.3712
L106.107 76.8284
L106.312 77.2386
L106.503 77.6257
L106.626 77.8756
L106.853 78.3389
L107.155 78.9634
L107.332 79.3323
L107.531 79.7488
L107.823 80.3672
L108.113 80.9848
L108.28 81.3439
L108.452 81.7165
L108.732 82.3271
L108.948 82.8004
L109.314 83.6117
L109.58 84.2045
L109.682 84.4348
L110.009 85.173
L110.247 85.7164
L110.493 86.281
L110.73 86.8275
L110.78 86.9434
L111.198 87.92
L111.295 88.1472
L111.643 88.9703
L111.873 89.5178
L111.974 89.7596
L112.324 90.6011
L112.4 90.7844
L112.744 91.6189
L112.905 92.0117
L113.208 92.7576
L113.439 93.3274
L113.685 93.9375
L113.75 94.101
L113.977 94.6684
L114.411 95.7589
L114.543 96.0939
L114.731 96.5717
L115.062 97.4157
L115.331 98.1079
L115.457 98.4337
L115.752 99.1958
L115.857 99.4686
L116.083 100.058
L116.427 100.959
L116.655 101.559
L116.77 101.861
L117.09 102.708
L117.389 103.506
L117.467 103.713
L117.656 104.22
L118.085 105.374
L118.274 105.884
L118.344 106.073
L118.755 107.189
L118.85 107.448
L119.187 108.368
L119.377 108.888
L119.545 109.352
L119.738 109.883
L120.052 110.751
L120.23 111.244
L120.567 112.182
L120.802 112.836
L120.964 113.291
L121.107 113.692
L121.349 114.37
L121.692 115.334
L121.805 115.653
L122.116 116.534
L122.299 117.051
L122.602 117.912
L122.853 118.627
L123.036 119.149
L123.175 119.546
L123.452 120.339
L123.684 121.002
L123.932 121.714
L124.275 122.702
L124.299 122.771
L124.578 123.576
L124.832 124.31
L124.998 124.787
L125.347 125.801
L125.551 126.39
L125.833 127.208
L126.04 127.811
L126.203 128.286
L126.5 129.149
L126.81 130.055
L126.955 130.476
L127.103 130.909
L127.442 131.9
L127.516 132.114
L127.808 132.97
L128.172 134.034
L128.336 134.515
L128.521 135.057
L128.794 135.855
L129.093 136.732
L129.306 137.356
L129.379 137.571
L129.722 138.576
L129.996 139.377
L130.215 140.019
L130.298 140.264
L130.588 141.113
L130.845 141.866
L131.163 142.795
L131.227 142.983
L131.615 144.117
L131.725 144.44
L132.013 145.282
L132.316 146.166
L132.428 146.492
L132.737 147.394
L132.876 147.797
L133.126 148.526
L133.448 149.461
L133.563 149.795
L133.878 150.708
L134.077 151.287
L134.363 152.113
L134.564 152.693
L134.775 153.302
L135.067 154.144
L135.123 154.304
L135.395 155.085
L135.773 156.169
L135.919 156.588
L136.206 157.407
L136.247 157.525
L136.467 158.153
L136.771 159.016
L137.078 159.888
L137.318 160.566
L137.584 161.315
L137.641 161.478
L137.886 162.167
L138.113 162.803
L138.526 163.958
L138.727 164.518
L138.824 164.789
L139.213 165.867
L139.362 166.279
L139.448 166.518
L139.9 167.761
L140.066 168.214
L140.351 168.996
L140.583 169.625
L140.665 169.847
L140.974 170.685
L141.089 170.996
L141.374 171.764
L141.659 172.528
L141.935 173.266
L142.041 173.548
L142.424 174.564
L142.505 174.777
L142.759 175.446
L142.925 175.881
L143.273 176.789
L143.542 177.487
L143.665 177.806
L143.99 178.644
L144.054 178.808
L144.372 179.622
L144.615 180.24
L144.615 180.24
z
" style="fill:#008000;opacity:0.5;"/>
   </g>
   <g id="patch_4">
    <path clip-path="url(#pf300deb6a1)" d="
M206.398 180.24
L206.398 175.711
L206.815 174.614
L207.051 173.988
L207.603 172.518
L207.81 171.962
L208.349 170.511
L208.668 169.645
L209.116 168.424
L209.495 167.383
L210.07 165.797
L210.348 165.026
L210.887 163.525
L211.234 162.552
L211.372 162.167
L212.096 160.125
L212.169 159.919
L212.755 158.255
L213.043 157.435
L213.594 155.859
L213.744 155.428
L214.348 153.691
L214.667 152.771
L215.123 151.455
L215.485 150.406
L215.736 149.677
L216.451 147.597
L216.687 146.908
L217.147 145.567
L217.625 144.172
L217.715 143.908
L218.302 142.192
L218.873 140.519
L219.21 139.53
L219.623 138.32
L219.829 137.717
L220.447 135.905
L220.831 134.782
L221.185 133.745
L221.313 133.37
L221.691 132.265
L222.191 130.805
L222.599 129.613
L223.146 128.02
L223.302 127.569
L223.728 126.329
L224.061 125.366
L224.612 123.77
L224.894 122.957
L225.441 121.383
L225.641 120.811
L226.34 118.812
L226.452 118.494
L227.184 116.413
L227.242 116.249
L227.859 114.51
L228.013 114.078
L228.452 112.848
L228.803 111.87
L229.292 110.513
L229.957 108.681
L230.241 107.904
L230.529 107.119
L230.945 105.99
L231.348 104.902
L231.622 104.165
L232.099 102.893
L232.592 101.587
L232.868 100.86
L233.442 99.3613
L233.592 98.9731
L234.161 97.5066
L234.522 96.5858
L234.915 95.588
L235.214 94.8352
L235.831 93.2978
L235.917 93.0846
L236.618 91.3669
L236.726 91.1031
L237.326 89.6597
L237.753 88.6433
L237.886 88.3293
L238.437 87.0403
L239.057 85.6117
L239.149 85.4005
L239.614 84.3503
L240.262 82.9072
L240.479 82.4292
L240.924 81.4623
L241.071 81.1441
L241.438 80.3615
L241.804 79.5884
L242.124 78.9193
L242.367 78.4179
L242.64 77.8595
L243.26 76.6095
L243.798 75.5496
L243.912 75.3271
L244.345 74.4932
L244.748 73.7317
L245.292 72.7217
L245.733 71.9215
L246.185 71.1152
L246.398 70.7428
L246.926 69.8334
L247.275 69.2436
L247.661 68.6056
L247.841 68.3111
L248.2 67.7345
L248.558 67.1689
L248.835 66.7394
L249.069 66.383
L249.449 65.8126
L249.944 65.0876
L250.332 64.5359
L250.795 63.8947
L251.254 63.2783
L251.494 62.963
L251.956 62.3718
L252.262 61.9917
L252.813 61.3279
L253.1 60.9942
L253.647 60.3785
L253.824 60.185
L254.157 59.8299
L254.493 59.4815
L254.83 59.144
L255.161 58.823
L255.657 58.3609
L255.91 58.1344
L256.293 57.8038
L256.779 57.4048
L257.167 57.1035
L257.554 56.8172
L257.774 56.6613
L258.157 56.4006
L258.517 56.1697
L259.018 55.8691
L259.477 55.6158
L259.736 55.4823
L260.236 55.244
L260.568 55.0996
L260.891 54.9698
L261.214 54.8505
L261.283 54.8265
L261.691 54.6939
L262.046 54.5923
L262.401 54.5036
L262.75 54.4288
L262.843 54.4109
L263.206 54.3499
L263.568 54.3023
L263.737 54.2846
L264.274 54.2481
L264.484 54.2418
L264.833 54.2413
L265.282 54.259
L265.633 54.2872
L265.983 54.3279
L266.374 54.3881
L266.591 54.4282
L267.163 54.557
L267.347 54.6055
L267.91 54.7756
L268.123 54.8483
L268.72 55.0762
L269.158 55.2667
L269.314 55.3394
L269.907 55.6375
L270.084 55.7332
L270.665 56.0694
L270.819 56.1647
L271.128 56.3621
L271.437 56.569
L271.879 56.8817
L272.066 57.0199
L272.638 57.464
L272.931 57.7037
L273.221 57.9488
L273.666 58.3417
L274.221 58.8589
L274.633 59.2624
L274.88 59.5114
L275.494 60.1574
L275.793 60.484
L276.167 60.9061
L276.637 61.4544
L276.906 61.7774
L277.184 62.1176
L277.501 62.5149
L278.041 63.214
L278.661 64.0483
L278.849 64.3076
L279.209 64.8155
L279.828 65.7124
L279.87 65.776
L280.329 66.4648
L280.787 67.1709
L281.332 68.0354
L281.471 68.2606
L282.012 69.1492
L282.583 70.1146
L282.88 70.6272
L283.322 71.4051
L283.46 71.6508
L283.825 72.3079
L284.19 72.9757
L284.553 73.6511
L284.969 74.4379
L285.217 74.9122
L285.217 180.24
z
" style="fill:#008000;opacity:0.5;"/>
   </g>
   <g id="patch_5">
    <path clip-path="url(#pf300deb6a1)" d="
M144.615 180.24
L144.615 180.24
L144.779 180.655
L145.171 181.643
L145.556 182.607
L145.709 182.986
L146.21 184.221
L146.373 184.621
L146.707 185.433
L147.152 186.506
L147.271 186.793
L147.683 187.772
L147.902 188.289
L148.382 189.412
L148.765 190.297
L148.951 190.724
L149.409 191.766
L149.564 192.115
L149.931 192.935
L150.085 193.277
L150.406 193.985
L150.862 194.976
L151.15 195.596
L151.489 196.318
L151.838 197.052
L152.115 197.631
L152.246 197.9
L152.534 198.492
L153.005 199.447
L153.192 199.82
L153.55 200.529
L153.903 201.218
L154.252 201.89
L154.473 202.311
L154.859 203.036
L155.29 203.833
L155.363 203.967
L155.86 204.864
L156.105 205.298
L156.352 205.732
L156.766 206.447
L157.014 206.868
L157.461 207.617
L157.76 208.105
L157.968 208.443
L158.188 208.795
L158.605 209.451
L158.794 209.744
L159.211 210.377
L159.493 210.796
L159.673 211.061
L160.123 211.709
L160.361 212.044
L160.687 212.496
L161.081 213.029
L161.271 213.281
L161.557 213.654
L161.844 214.02
L161.868 214.05
L162.281 214.564
L162.754 215.133
L163.039 215.465
L163.119 215.557
L163.63 216.13
L163.906 216.429
L164.045 216.578
L164.57 217.12
L164.698 217.248
L165.025 217.568
L165.285 217.815
L165.714 218.209
L166.016 218.475
L166.211 218.643
L166.564 218.936
L166.839 219.157
L167.201 219.435
L167.541 219.684
L167.862 219.909
L168.217 220.147
L168.483 220.316
L168.835 220.53
L169.053 220.655
L169.406 220.849
L169.878 221.088
L170.147 221.215
L170.321 221.293
L170.754 221.474
L170.985 221.562
L171.278 221.667
L171.567 221.761
L171.979 221.881
L172.17 221.931
L172.55 222.019
L172.814 222.072
L173.128 222.125
L173.558 222.181
L173.754 222.201
L174.152 222.228
L174.366 222.236
L174.84 222.238
L175.154 222.226
L175.356 222.213
L175.558 222.196
L175.9 222.157
L176.287 222.099
L176.494 222.062
L176.825 221.994
L177.169 221.91
L177.474 221.826
L177.773 221.735
L178.147 221.608
L178.501 221.474
L178.847 221.332
L179.111 221.215
L179.48 221.04
L179.756 220.9
L180.148 220.687
L180.342 220.577
L180.494 220.487
L180.774 220.317
L181.054 220.138
L181.122 220.094
L181.487 219.847
L181.795 219.628
L182.073 219.423
L182.497 219.095
L182.866 218.795
L183.057 218.634
L183.38 218.355
L183.59 218.168
L183.882 217.9
L184.174 217.625
L184.323 217.481
L184.766 217.041
L185.056 216.743
L185.215 216.575
L185.671 216.083
L185.892 215.838
L186.283 215.391
L186.416 215.236
L186.84 214.731
L187.233 214.248
L187.392 214.048
L187.825 213.493
L187.949 213.33
L188.444 212.669
L188.546 212.531
L188.866 212.089
L189.357 211.391
L189.555 211.105
L190.075 210.335
L190.385 209.864
L190.524 209.651
L190.988 208.925
L191.261 208.489
L191.508 208.09
L191.713 207.754
L192.113 207.09
L192.551 206.346
L192.723 206.049
L192.901 205.741
L193.282 205.071
L193.628 204.451
L194.006 203.764
L194.297 203.226
L194.687 202.497
L195.004 201.893
L195.173 201.569
L195.586 200.768
L195.827 200.295
L196.217 199.519
L196.465 199.018
L196.867 198.2
L197.116 197.685
L197.272 197.361
L197.649 196.572
L197.934 195.968
L198.224 195.347
L198.558 194.626
L199.091 193.458
L199.329 192.931
L199.499 192.552
L199.865 191.731
L200.228 190.905
L200.407 190.496
L200.715 189.786
L200.99 189.147
L201.332 188.346
L201.612 187.685
L202.072 186.59
L202.234 186.2
L202.527 185.492
L203.071 184.165
L203.257 183.708
L203.453 183.224
L204.044 181.752
L204.269 181.188
L204.67 180.171
L204.725 180.033
L205.308 178.543
L205.477 178.105
L205.761 177.371
L205.945 176.894
L206.398 175.711
L206.398 180.24
z
" style="fill:#ff0000;opacity:0.5;"/>
   </g>
   <g id="line2d_1">
    <path clip-path="url(#pf300deb6a1)" d="
M12.9323 180.24
L299.548 180.24
L299.548 180.24" style="fill:none;"/>
   </g>
   <g id="line2d_2">
    <path clip-path="url(#pf300deb6a1)" d="
M12.9323 205.536
L15.5908 200.591
L18.5864 194.378
L20.7542 189.496
L24.4715 180.458
L28.3114 170.38
L32.48 158.793
L38.7111 140.741
L47.6798 114.773
L52.5704 101.418
L55.8063 93.1468
L59.5839 84.2243
L62.4757 78.0193
L64.9291 73.2332
L67.4952 68.7369
L69.7643 65.2238
L71.7271 62.5533
L73.4818 60.4659
L75.8384 58.1222
L77.3188 56.9258
L78.6348 56.0443
L80.2021 55.2207
L81.8377 54.6259
L83.5886 54.2909
L85.0175 54.2495
L86.3809 54.4046
L88.014 54.84
L89.6625 55.554
L91.0673 56.3785
L92.7826 57.6515
L94.0802 58.8065
L95.7983 60.5857
L97.3838 62.4754
L99.5215 65.3889
L101.993 69.2614
L104.629 73.9543
L107.18 79.0153
L109.83 84.7692
L112.963 92.1545
L115.565 98.7111
L119.324 108.744
L123.646 120.893
L140.252 168.723
L144.215 179.221
L147.427 187.164
L150.47 194.126
L153.293 200.022
L155.681 204.543
L157.989 208.477
L160.369 212.056
L162.165 214.421
L164.198 216.738
L166.049 218.504
L167.589 219.719
L169.08 220.67
L170.699 221.452
L172.179 221.933
L173.633 222.189
L175.427 222.207
L177.403 221.847
L179.087 221.226
L180.832 220.28
L182.99 218.691
L184.448 217.359
L185.88 215.851
L187.859 213.449
L190.139 210.239
L192.717 206.06
L195.264 201.394
L198.476 194.805
L201.172 188.722
L204.565 180.439
L208.588 169.862
L212.957 157.679
L221.069 134.084
L226.952 117.071
L231.521 104.438
L235.681 93.6711
L239.452 84.7135
L242.28 78.5968
L244.76 73.7089
L247.644 68.6326
L249.664 65.4954
L251.905 62.4371
L254.058 59.9344
L256.157 57.9194
L257.773 56.6614
L259.639 55.5316
L261.358 54.801
L262.629 54.4532
L264.58 54.2404
L266.619 54.4338
L268.028 54.8151
L269.526 55.4416
L271.492 56.6068
L273.164 57.9002
L275.463 60.1237
L277.444 62.4425
L279.118 64.6851
L281.156 67.7535
L283.77 72.2077
L286.508 77.4624
L289.175 83.112
L291.778 89.0885
L294.934 96.8696
L298.061 105.077
L299.548 109.123
L299.548 109.123" style="fill:none;stroke:#0000ff;stroke-linecap:square;stroke-width:2.0;"/>
   </g>
   <g id="line2d_3">
    <path clip-path="url(#pf300deb6a1)" d="
M98.9169 64.5231
L101.013 67.6623
L103.227 71.389
L105.681 75.982
L108.28 81.3439
L110.78 86.9434
L113.977 94.6684
L117.656 104.22
L121.805 115.653
L127.516 132.114
L138.113 162.803
L142.505 174.777
L144.615 180.24
L144.615 180.24" style="fill:none;"/>
   </g>
   <g id="line2d_4">
    <path clip-path="url(#pf300deb6a1)" d="
M98.9169 180.24
L98.9169 64.5231" style="fill:none;stroke:#000000;stroke-linecap:square;"/>
   </g>
   <g id="line2d_5">
    <path clip-path="url(#pf300deb6a1)" d="
M206.398 175.711
L210.348 165.026
L215.485 150.406
L230.241 107.904
L234.161 97.5066
L237.326 89.6597
L240.479 82.4292
L243.26 76.6095
L245.733 71.9215
L248.2 67.7345
L250.332 64.5359
L252.262 61.9917
L254.157 59.8299
L255.91 58.1344
L257.774 56.6613
L259.477 55.6158
L260.891 54.9698
L262.401 54.5036
L263.737 54.2846
L265.282 54.259
L266.591 54.4282
L268.123 54.8483
L269.907 55.6375
L271.437 56.569
L273.221 57.9488
L274.88 59.5114
L276.906 61.7774
L278.849 64.3076
L280.787 67.1709
L282.88 70.6272
L285.217 74.9122
L285.217 74.9122" style="fill:none;"/>
   </g>
   <g id="line2d_6">
    <path clip-path="url(#pf300deb6a1)" d="
M144.615 180.24
L147.902 188.289
L150.862 194.976
L153.55 200.529
L156.105 205.298
L158.188 208.795
L160.361 212.044
L162.281 214.564
L164.045 216.578
L166.016 218.475
L167.541 219.684
L169.053 220.655
L170.754 221.474
L172.17 221.931
L173.754 222.201
L175.356 222.213
L176.825 221.994
L178.501 221.474
L180.148 220.687
L181.795 219.628
L183.59 218.168
L185.215 216.575
L187.233 214.248
L188.866 212.089
L190.988 208.925
L193.282 205.071
L195.827 200.295
L198.558 194.626
L201.612 187.685
L204.725 180.033
L206.398 175.711
L206.398 175.711" style="fill:none;"/>
   </g>
   <g id="line2d_7">
    <path clip-path="url(#pf300deb6a1)" d="
M285.217 180.24
L285.217 74.9122" style="fill:none;stroke:#000000;stroke-linecap:square;"/>
   </g>
   <g id="line2d_8">
    <path clip-path="url(#pf300deb6a1)" d="
M95.3342 243.24
L288.8 243.24" style="fill:none;stroke:#000000;stroke-linecap:square;stroke-width:2.0;"/>
   </g>
   <g id="line2d_9">
    <path clip-path="url(#pf300deb6a1)" d="
M98.9169 247.44
L98.9169 239.04" style="fill:none;stroke:#000000;stroke-linecap:square;stroke-width:2.0;"/>
   </g>
   <g id="line2d_10">
    <path clip-path="url(#pf300deb6a1)" d="
M144.615 247.44
L144.615 239.04" style="fill:none;stroke:#000000;stroke-linecap:square;stroke-width:2.0;"/>
   </g>
   <g id="line2d_11">
    <path clip-path="url(#pf300deb6a1)" d="
M206.398 247.44
L206.398 239.04" style="fill:none;stroke:#000000;stroke-linecap:square;stroke-width:2.0;"/>
   </g>
   <g id="line2d_12">
    <path clip-path="url(#pf300deb6a1)" d="
M285.217 247.44
L285.217 239.04" style="fill:none;stroke:#000000;stroke-linecap:square;stroke-width:2.0;"/>
   </g>
   <g id="matplotlib.axis_1"/>
   <g id="matplotlib.axis_2"/>
   <g id="patch_6">
    <path d="
M7.2 180.24
L305.28 180.24" style="fill:none;stroke:#000000;stroke-width:0.8;"/>
   </g>
   <g id="patch_7">
    <path d="
M84.5862 269.28
L84.5862 7.2" style="fill:none;stroke:#000000;stroke-width:0.8;"/>
   </g>
   <g id="text_1">
    <!-- $y=f(x)$ -->
    <defs>
     <path d="
M31 -24.8125
Q25.4375 -20.4062 21.4062 -14.7188
Q17.3906 -9.03125 14.8125 -2.57812
Q12.25 3.85938 10.9844 10.8906
Q9.71875 17.9219 9.71875 25
Q9.71875 32.1719 10.9844 39.2031
Q12.25 46.2344 14.8594 52.7344
Q17.4844 59.2344 21.5312 64.8906
Q25.5938 70.5625 31 74.8125
Q31 75 31.5 75
L32.4219 75
Q32.7188 75 32.9531 74.7344
Q33.2031 74.4688 33.2031 74.125
Q33.2031 73.6875 33.0156 73.4844
Q28.125 68.7031 24.875 63.2344
Q21.625 57.7656 19.6406 51.5781
Q17.6719 45.4062 16.7969 38.7812
Q15.9219 32.1719 15.9219 25
Q15.9219 -6.78125 32.9062 -23.2969
Q33.2031 -23.5781 33.2031 -24.125
Q33.2031 -24.3594 32.9375 -24.6719
Q32.6719 -25 32.4219 -25
L31.5 -25
Q31 -25 31 -24.8125" id="Cmr10-28"/>
     <path d="
M6.5 -25
Q5.60938 -25 5.60938 -24.125
Q5.60938 -23.6875 5.8125 -23.4844
Q22.9062 -6.78125 22.9062 25
Q22.9062 56.7812 6 73.2969
Q5.60938 73.5312 5.60938 74.125
Q5.60938 74.4688 5.875 74.7344
Q6.15625 75 6.5 75
L7.42188 75
Q7.71875 75 7.90625 74.8125
Q15.0938 69.1406 19.875 61.0312
Q24.6562 52.9375 26.875 43.75
Q29.1094 34.5781 29.1094 25
Q29.1094 17.9219 27.9062 11.0625
Q26.7031 4.20312 24.0938 -2.45312
Q21.4844 -9.125 17.4844 -14.7656
Q13.4844 -20.4062 7.90625 -24.8125
Q7.71875 -25 7.42188 -25
z
" id="Cmr10-29"/>
     <path d="
M7.51562 13.2812
Q6.6875 13.2812 6.14062 13.9062
Q5.60938 14.5469 5.60938 15.2812
Q5.60938 16.1094 6.14062 16.6875
Q6.6875 17.2812 7.51562 17.2812
L70.3125 17.2812
Q71.0469 17.2812 71.5781 16.6875
Q72.125 16.1094 72.125 15.2812
Q72.125 14.5469 71.5781 13.9062
Q71.0469 13.2812 70.3125 13.2812
z

M7.51562 32.7188
Q6.6875 32.7188 6.14062 33.2969
Q5.60938 33.8906 5.60938 34.7188
Q5.60938 35.4531 6.14062 36.0781
Q6.6875 36.7188 7.51562 36.7188
L70.3125 36.7188
Q71.0469 36.7188 71.5781 36.0781
Q72.125 35.4531 72.125 34.7188
Q72.125 33.8906 71.5781 33.2969
Q71.0469 32.7188 70.3125 32.7188
z
" id="Cmr10-3d"/>
     <path d="
M9.71875 -16.5
Q11.5781 -17.9219 14.2031 -17.9219
Q17.7812 -17.9219 20.0156 -10.0156
Q20.9531 -6.20312 25.0938 15.0938
L29.6875 39.5938
L21.0938 39.5938
Q20.125 39.5938 20.125 40.9219
Q20.5156 43.1094 21.3906 43.1094
L30.3281 43.1094
L31.5 49.6094
Q32.0781 52.6406 32.5625 54.8125
Q33.0625 56.9844 33.625 58.8281
Q34.1875 60.6875 35.2969 62.9844
Q37.0156 66.2656 39.9219 68.3906
Q42.8281 70.5156 46.1875 70.5156
Q48.3906 70.5156 50.4688 69.7031
Q52.5469 68.8906 53.8594 67.2812
Q55.1719 65.6719 55.1719 63.4844
Q55.1719 60.9375 53.4844 59.0469
Q51.8125 57.1719 49.4219 57.1719
Q47.7969 57.1719 46.6562 58.1719
Q45.5156 59.1875 45.5156 60.7969
Q45.5156 62.9844 47 64.625
Q48.4844 66.2656 50.6875 66.5
Q48.8281 67.9219 46.0938 67.9219
Q44.5781 67.9219 43.2344 66.5
Q41.8906 65.0938 41.5 63.4844
Q40.875 60.9375 38.7188 49.7031
L37.5 43.1094
L47.7969 43.1094
Q48.7812 43.1094 48.7812 41.7969
Q48.7344 41.5469 48.5781 40.9375
Q48.4375 40.3281 48.1719 39.9531
Q47.9062 39.5938 47.5156 39.5938
L36.8125 39.5938
L32.1719 15.1875
Q31.2969 9.85938 30.1406 4.35938
Q29 -1.125 26.9219 -6.90625
Q24.8594 -12.7031 21.625 -16.6094
Q18.4062 -20.5156 14.0156 -20.5156
Q10.6406 -20.5156 7.98438 -18.5781
Q5.32812 -16.6562 5.32812 -13.4844
Q5.32812 -10.9375 6.95312 -9.04688
Q8.59375 -7.17188 11.0781 -7.17188
Q12.75 -7.17188 13.8594 -8.17188
Q14.9844 -9.1875 14.9844 -10.7969
Q14.9844 -12.9375 13.3906 -14.7188
Q11.8125 -16.5 9.71875 -16.5" id="Cmmi10-66"/>
     <path d="
M7.8125 2.875
Q9.57812 1.51562 12.7969 1.51562
Q15.9219 1.51562 18.3125 4.51562
Q20.7031 7.51562 21.5781 11.0781
L26.125 28.8125
Q27.2031 33.6406 27.2031 35.4062
Q27.2031 37.8906 25.8125 39.75
Q24.4219 41.6094 21.9219 41.6094
Q18.75 41.6094 15.9688 39.625
Q13.1875 37.6406 11.2812 34.5938
Q9.375 31.5469 8.59375 28.4219
Q8.40625 27.7812 7.8125 27.7812
L6.59375 27.7812
Q5.8125 27.7812 5.8125 28.7188
L5.8125 29
Q6.78125 32.7188 9.125 36.25
Q11.4688 39.7969 14.8594 41.9844
Q18.2656 44.1875 22.125 44.1875
Q25.7812 44.1875 28.7344 42.2344
Q31.6875 40.2812 32.9062 36.9219
Q34.625 39.9844 37.2812 42.0781
Q39.9375 44.1875 43.1094 44.1875
Q45.2656 44.1875 47.5 43.4219
Q49.75 42.6719 51.1719 41.1094
Q52.5938 39.5469 52.5938 37.2031
Q52.5938 34.6719 50.9531 32.8281
Q49.3125 31 46.7812 31
Q45.1719 31 44.0938 32.0312
Q43.0156 33.0625 43.0156 34.625
Q43.0156 36.7188 44.4531 38.2969
Q45.9062 39.8906 47.9062 40.1875
Q46.0938 41.6094 42.9219 41.6094
Q39.7031 41.6094 37.3281 38.625
Q34.9688 35.6406 33.9844 31.9844
L29.5938 14.3125
Q28.5156 10.2969 28.5156 7.71875
Q28.5156 5.17188 29.9531 3.34375
Q31.3906 1.51562 33.7969 1.51562
Q38.4844 1.51562 42.1562 5.64062
Q45.8438 9.76562 47.0156 14.7031
Q47.2188 15.2812 47.7969 15.2812
L49.0312 15.2812
Q49.4219 15.2812 49.6562 15.0156
Q49.9062 14.75 49.9062 14.4062
Q49.9062 14.3125 49.8125 14.1094
Q48.3906 8.15625 43.8438 3.51562
Q39.3125 -1.125 33.5938 -1.125
Q29.9375 -1.125 26.9844 0.84375
Q24.0312 2.82812 22.7969 6.20312
Q21.2344 3.26562 18.4688 1.0625
Q15.7188 -1.125 12.5938 -1.125
Q10.4531 -1.125 8.17188 -0.359375
Q5.90625 0.390625 4.48438 1.95312
Q3.07812 3.51562 3.07812 5.90625
Q3.07812 8.25 4.70312 10.1719
Q6.34375 12.1094 8.79688 12.1094
Q10.4531 12.1094 11.5781 11.1094
Q12.7031 10.1094 12.7031 8.5
Q12.7031 6.39062 11.2969 4.82812
Q9.90625 3.26562 7.8125 2.875" id="Cmmi10-78"/>
     <path d="
M8.40625 -14.3125
Q10.5 -17.9219 15.7188 -17.9219
Q20.4531 -17.9219 23.9219 -14.5938
Q27.3906 -11.2812 29.5156 -6.5625
Q31.6406 -1.85938 32.8125 3.07812
Q28.375 -1.125 23.1875 -1.125
Q19.2344 -1.125 16.4531 0.234375
Q13.6719 1.60938 12.125 4.3125
Q10.5938 7.03125 10.5938 10.8906
Q10.5938 14.1562 11.4688 17.5938
Q12.3594 21.0469 13.9375 25.2656
Q15.5312 29.5 16.7031 32.625
Q18.0156 36.2812 18.0156 38.625
Q18.0156 41.6094 15.8281 41.6094
Q11.8594 41.6094 9.29688 37.5312
Q6.73438 33.4531 5.51562 28.4219
Q5.32812 27.7812 4.6875 27.7812
L3.51562 27.7812
Q2.6875 27.7812 2.6875 28.7188
L2.6875 29
Q4.29688 34.9688 7.60938 39.5781
Q10.9375 44.1875 16.0156 44.1875
Q19.5781 44.1875 22.0469 41.8438
Q24.5156 39.5 24.5156 35.8906
Q24.5156 34.0312 23.6875 31.9844
Q23.25 30.7656 21.6875 26.6562
Q20.125 22.5625 19.2812 19.875
Q18.4531 17.1875 17.9219 14.5938
Q17.3906 12.0156 17.3906 9.42188
Q17.3906 6.10938 18.7969 3.8125
Q20.2188 1.51562 23.2969 1.51562
Q29.5 1.51562 34.4219 9.07812
L42 39.8906
Q42.3281 41.2188 43.5469 42.1562
Q44.7812 43.1094 46.1875 43.1094
Q47.4062 43.1094 48.3125 42.3281
Q49.2188 41.5469 49.2188 40.2812
Q49.2188 39.7031 49.125 39.5
L39.2031 -0.296875
Q37.8906 -5.42188 34.375 -10.1094
Q30.8594 -14.7969 25.9062 -17.6562
Q20.9531 -20.5156 15.5781 -20.5156
Q12.9844 -20.5156 10.4375 -19.5
Q7.90625 -18.5 6.34375 -16.5
Q4.78125 -14.5 4.78125 -11.8125
Q4.78125 -9.07812 6.39062 -7.07812
Q8.01562 -5.07812 10.6875 -5.07812
Q12.3125 -5.07812 13.4062 -6.07812
Q14.5 -7.07812 14.5 -8.6875
Q14.5 -10.9844 12.7812 -12.6875
Q11.0781 -14.4062 8.79688 -14.4062
Q8.6875 -14.3594 8.59375 -14.3281
Q8.5 -14.3125 8.40625 -14.3125" id="Cmmi10-79"/>
    </defs>
    <g transform="translate(101.011153846 46.14)scale(0.18 -0.18)">
     <use xlink:href="#Cmmi10-79"/>
     <use transform="translate(66.58203125 0.0)" xlink:href="#Cmr10-3d"/>
     <use transform="translate(150.640625 0.0)" xlink:href="#Cmmi10-66"/>
     <use transform="translate(199.517578125 0.0)" xlink:href="#Cmr10-28"/>
     <use transform="translate(238.3359375 0.0)" xlink:href="#Cmmi10-78"/>
     <use transform="translate(295.416015625 0.0)" xlink:href="#Cmr10-29"/>
    </g>
   </g>
   <g id="text_2">
    <!-- $A_1$ -->
    <defs>
     <path d="
M9.28125 0
L9.28125 3.51562
Q21.7812 3.51562 21.7812 6.6875
L21.7812 59.1875
Q16.6094 56.6875 8.6875 56.6875
L8.6875 60.2031
Q20.9531 60.2031 27.2031 66.6094
L28.6094 66.6094
Q28.9531 66.6094 29.2656 66.3281
Q29.5938 66.0625 29.5938 65.7188
L29.5938 6.6875
Q29.5938 3.51562 42.0938 3.51562
L42.0938 0
z
" id="Cmr10-31"/>
     <path d="
M4.5 0
Q3.51562 0 3.51562 1.3125
Q3.90625 3.51562 4.78125 3.51562
Q8.84375 3.51562 11.7969 5.125
Q14.75 6.73438 16.8906 10.1094
Q17.0938 10.2969 17.0938 10.2969
L52.7812 70.5156
Q53.5625 71.5781 54.6875 71.5781
L56 71.5781
Q56.2969 71.5781 56.5938 71.4531
Q56.8906 71.3438 57.1094 71.0625
Q57.3281 70.7969 57.3281 70.5156
L63.375 5.90625
Q63.375 5.46875 63.8125 4.59375
Q64.7969 3.51562 71.2969 3.51562
Q72.3125 3.51562 72.3125 2.20312
Q71.9688 0.875 71.75 0.4375
Q71.5312 0 70.6094 0
L45.6094 0
Q44.6719 0 44.6719 1.3125
Q45.2188 3.51562 46 3.51562
Q53.9062 3.51562 54.3906 6.20312
L52.875 22.7031
L28.2188 22.7031
L20.2188 9.28125
Q19.4844 8.20312 19.4844 6.78125
Q19.4844 5.03125 21.1719 4.26562
Q22.8594 3.51562 24.9062 3.51562
Q25.875 3.51562 25.875 2.20312
Q25.5312 0.78125 25.3281 0.390625
Q25.1406 0 24.2188 0
z

M30.1719 26.2188
L52.4844 26.2188
L49.5156 58.5938
z
" id="Cmmi10-41"/>
    </defs>
    <g transform="translate(105.580384615 150.78)scale(0.18 -0.18)">
     <use transform="translate(0.0 0.421875)" xlink:href="#Cmmi10-41"/>
     <use transform="translate(75.0 -25.0875)scale(0.7)" xlink:href="#Cmr10-31"/>
    </g>
   </g>
   <g id="text_3">
    <!-- $A_2$ -->
    <defs>
     <path d="
M4.98438 0
L4.98438 2.6875
Q4.98438 2.9375 5.17188 3.21875
L20.7031 20.4062
Q24.2188 24.2188 26.4062 26.7969
Q28.6094 29.3906 30.75 32.7656
Q32.9062 36.1406 34.1562 39.625
Q35.4062 43.1094 35.4062 47.0156
Q35.4062 51.125 33.8906 54.8594
Q32.375 58.5938 29.375 60.8438
Q26.375 63.0938 22.125 63.0938
Q17.7812 63.0938 14.3125 60.4688
Q10.8438 57.8594 9.42188 53.7188
Q9.8125 53.8125 10.5 53.8125
Q12.75 53.8125 14.3281 52.2969
Q15.9219 50.7812 15.9219 48.3906
Q15.9219 46.0938 14.3281 44.5
Q12.75 42.9219 10.5 42.9219
Q8.15625 42.9219 6.5625 44.5469
Q4.98438 46.1875 4.98438 48.3906
Q4.98438 52.1562 6.39062 55.4375
Q7.8125 58.7344 10.4688 61.2969
Q13.1406 63.875 16.4844 65.2344
Q19.8281 66.6094 23.5781 66.6094
Q29.2969 66.6094 34.2188 64.1875
Q39.1562 61.7656 42.0312 57.3438
Q44.9219 52.9375 44.9219 47.0156
Q44.9219 42.6719 43.0156 38.7656
Q41.1094 34.8594 38.125 31.6562
Q35.1562 28.4688 30.5156 24.4062
Q25.875 20.3594 24.4219 19
L13.0938 8.10938
L22.7031 8.10938
Q29.7812 8.10938 34.5469 8.21875
Q39.3125 8.34375 39.5938 8.59375
Q40.7656 9.85938 42 17.8281
L44.9219 17.8281
L42.0938 0
z
" id="Cmr10-32"/>
    </defs>
    <g transform="translate(162.903461538 201.18)scale(0.18 -0.18)">
     <use transform="translate(0.0 0.421875)" xlink:href="#Cmmi10-41"/>
     <use transform="translate(75.0 -25.0875)scale(0.7)" xlink:href="#Cmr10-32"/>
    </g>
   </g>
   <g id="text_4">
    <!-- $A_3$ -->
    <defs>
     <path d="
M9.51562 7.71875
Q11.8594 4.29688 15.8125 2.64062
Q19.7812 0.984375 24.3125 0.984375
Q30.125 0.984375 32.5625 5.9375
Q35.0156 10.8906 35.0156 17.1875
Q35.0156 20.0156 34.5 22.8438
Q33.9844 25.6875 32.7656 28.125
Q31.5469 30.5625 29.4219 32.0312
Q27.2969 33.5 24.2188 33.5
L17.5781 33.5
Q16.7031 33.5 16.7031 34.4219
L16.7031 35.2969
Q16.7031 36.0781 17.5781 36.0781
L23.0938 36.5312
Q26.6094 36.5312 28.9219 39.1562
Q31.25 41.7969 32.3281 45.5781
Q33.4062 49.3594 33.4062 52.7812
Q33.4062 57.5625 31.1562 60.6406
Q28.9062 63.7188 24.3125 63.7188
Q20.5156 63.7188 17.0469 62.2812
Q13.5781 60.8438 11.5312 57.9062
Q11.7188 57.9531 11.8594 57.9844
Q12.0156 58.0156 12.2031 58.0156
Q14.4531 58.0156 15.9688 56.4531
Q17.4844 54.8906 17.4844 52.6875
Q17.4844 50.5312 15.9688 48.9688
Q14.4531 47.4062 12.2031 47.4062
Q10.0156 47.4062 8.45312 48.9688
Q6.89062 50.5312 6.89062 52.6875
Q6.89062 56.9844 9.46875 60.1562
Q12.0625 63.3281 16.1406 64.9688
Q20.2188 66.6094 24.3125 66.6094
Q27.3438 66.6094 30.7031 65.7031
Q34.0781 64.7969 36.8125 63.1094
Q39.5469 61.4219 41.2812 58.7812
Q43.0156 56.1562 43.0156 52.7812
Q43.0156 48.5781 41.1406 45.0156
Q39.2656 41.4531 35.9844 38.8594
Q32.7188 36.2812 28.8125 35.0156
Q33.1562 34.1875 37.0625 31.7344
Q40.9688 29.2969 43.3281 25.4844
Q45.7031 21.6875 45.7031 17.2812
Q45.7031 11.7656 42.6719 7.29688
Q39.6562 2.82812 34.7188 0.3125
Q29.7812 -2.20312 24.3125 -2.20312
Q19.625 -2.20312 14.9062 -0.40625
Q10.2031 1.375 7.20312 4.9375
Q4.20312 8.5 4.20312 13.4844
Q4.20312 15.9688 5.85938 17.625
Q7.51562 19.2812 10.0156 19.2812
Q11.625 19.2812 12.9688 18.5312
Q14.3125 17.7812 15.0625 16.4062
Q15.8281 15.0469 15.8281 13.4844
Q15.8281 11.0312 14.1094 9.375
Q12.4062 7.71875 10.0156 7.71875
z
" id="Cmr10-33"/>
    </defs>
    <g transform="translate(245.305384615 142.2)scale(0.18 -0.18)">
     <use transform="translate(0.0 0.421875)" xlink:href="#Cmmi10-41"/>
     <use transform="translate(75.0 -25.0875)scale(0.7)" xlink:href="#Cmr10-33"/>
    </g>
   </g>
   <g id="text_5">
    <!-- $a$ -->
    <defs>
     <path d="
M17.3906 -1.125
Q11.0781 -1.125 7.4375 3.64062
Q3.8125 8.40625 3.8125 14.8906
Q3.8125 21.2969 7.125 28.1719
Q10.4531 35.0625 16.0938 39.625
Q21.7344 44.1875 28.2188 44.1875
Q31.2031 44.1875 33.5469 42.5781
Q35.8906 40.9688 37.2031 38.1875
Q38.3281 42.1875 41.6094 42.1875
Q42.875 42.1875 43.7188 41.4219
Q44.5781 40.6719 44.5781 39.4062
Q44.5781 39.1094 44.5469 38.9531
Q44.5312 38.8125 44.4844 38.625
L37.5 10.6875
Q36.8125 7.71875 36.8125 5.8125
Q36.8125 1.51562 39.7031 1.51562
Q42.8281 1.51562 44.4531 5.48438
Q46.0938 9.46875 47.2188 14.7031
Q47.4062 15.2812 48 15.2812
L49.2188 15.2812
Q49.6094 15.2812 49.8438 14.9375
Q50.0938 14.5938 50.0938 14.3125
Q48.3438 7.32812 46.2656 3.09375
Q44.1875 -1.125 39.5 -1.125
Q36.1406 -1.125 33.5469 0.84375
Q30.9531 2.82812 30.3281 6.10938
Q23.875 -1.125 17.3906 -1.125
M17.4844 1.51562
Q21.0938 1.51562 24.4844 4.21875
Q27.875 6.9375 30.3281 10.5938
Q30.4219 10.6875 30.4219 10.8906
L35.7969 32.625
L35.8906 32.9062
Q35.2969 36.4688 33.3125 39.0312
Q31.3438 41.6094 27.9844 41.6094
Q24.6094 41.6094 21.7031 38.8438
Q18.7969 36.0781 16.7969 32.3281
Q14.8438 28.3281 13.0625 21.3438
Q11.2812 14.3594 11.2812 10.5
Q11.2812 7.03125 12.7656 4.26562
Q14.2656 1.51562 17.4844 1.51562" id="Cmmi10-61"/>
    </defs>
    <g transform="translate(94.1469230769 269.206875)scale(0.18 -0.18)">
     <use transform="translate(0.0 0.8125)" xlink:href="#Cmmi10-61"/>
    </g>
   </g>
   <g id="text_6">
    <!-- $b$ -->
    <defs>
     <path d="
M17.2812 -1.125
Q11.2344 -1.125 7.85938 3.60938
Q4.5 8.34375 4.5 14.7031
Q4.5 15.625 4.95312 18.3281
Q5.42188 21.0469 5.42188 21.6875
L15.0938 60.5
Q15.4844 62.2031 15.5781 63.1875
Q15.5781 64.7969 9.07812 64.7969
Q8.10938 64.7969 8.10938 66.1094
Q8.15625 66.3594 8.32812 66.9844
Q8.5 67.625 8.76562 67.9688
Q9.03125 68.3125 9.51562 68.3125
L23 69.3906
Q24.2188 69.3906 24.2188 68.1094
L16.7969 38.625
Q22.4688 44.1875 28.2188 44.1875
Q32.4688 44.1875 35.5156 41.9375
Q38.5781 39.7031 40.0938 36.0312
Q41.6094 32.375 41.6094 28.2188
Q41.6094 23.3906 39.7188 18.2344
Q37.8438 13.0938 34.5156 8.67188
Q31.2031 4.25 26.75 1.5625
Q22.3125 -1.125 17.2812 -1.125
M17.4844 1.51562
Q20.9062 1.51562 23.875 4.375
Q26.8594 7.23438 28.7188 10.7969
Q30.7188 14.7969 32.4531 21.6562
Q34.1875 28.5156 34.1875 32.625
Q34.1875 36.1875 32.6875 38.8906
Q31.2031 41.6094 27.9844 41.6094
Q24.3594 41.6094 21.0625 38.9375
Q17.7812 36.2812 15.2812 32.625
L12.5 21.2969
Q10.8906 14.9844 10.7969 11.1875
Q10.7969 7.42188 12.4219 4.46875
Q14.0625 1.51562 17.4844 1.51562" id="Cmmi10-62"/>
    </defs>
    <g transform="translate(140.744739627 269.206875)scale(0.18 -0.18)">
     <use transform="translate(0.0 0.609375)" xlink:href="#Cmmi10-62"/>
    </g>
   </g>
   <g id="text_7">
    <!-- $c$ -->
    <defs>
     <path d="
M11.7188 11.9219
Q11.7188 7.5625 13.9375 4.53125
Q16.1562 1.51562 20.3125 1.51562
Q26.2656 1.51562 31.75 4.25
Q37.25 6.98438 40.7188 11.8125
Q41.0156 12.1094 41.5 12.1094
Q42 12.1094 42.5 11.5469
Q43.0156 10.9844 43.0156 10.5
Q43.0156 10.1094 42.8281 9.90625
Q39.1562 4.78125 32.9531 1.82812
Q26.7656 -1.125 20.125 -1.125
Q15.3281 -1.125 11.6719 1.14062
Q8.01562 3.42188 6 7.21875
Q4 11.0312 4 15.8281
Q4 22.5625 7.76562 29.2031
Q11.5312 35.8438 17.7812 40.0156
Q24.0312 44.1875 30.9062 44.1875
Q35.4062 44.1875 38.9844 42.0156
Q42.5781 39.8438 42.5781 35.5938
Q42.5781 32.8594 40.9844 30.9219
Q39.4062 29 36.7188 29
Q35.1094 29 34 30
Q32.9062 31 32.9062 32.625
Q32.9062 34.9688 34.6094 36.625
Q36.3281 38.2812 38.625 38.2812
L38.8125 38.2812
Q37.6406 39.9844 35.4219 40.7969
Q33.2031 41.6094 30.8125 41.6094
Q24.9531 41.6094 20.5469 36.5938
Q16.1562 31.5938 13.9375 24.625
Q11.7188 17.6719 11.7188 11.9219" id="Cmmi10-63"/>
    </defs>
    <g transform="translate(202.437692308 269.206875)scale(0.18 -0.18)">
     <use transform="translate(0.0 0.8125)" xlink:href="#Cmmi10-63"/>
    </g>
   </g>
   <g id="text_8">
    <!-- $d$ -->
    <defs>
     <path d="
M17.3906 -1.125
Q11.0781 -1.125 7.4375 3.64062
Q3.8125 8.40625 3.8125 14.8906
Q3.8125 21.2969 7.125 28.1719
Q10.4531 35.0625 16.0938 39.625
Q21.7344 44.1875 28.2188 44.1875
Q31.1562 44.1875 33.5156 42.5469
Q35.8906 40.9219 37.2031 38.1875
L42.8281 60.5
Q43.2188 62.2031 43.3125 63.1875
Q43.3125 64.7969 36.8125 64.7969
Q35.7969 64.7969 35.7969 66.1094
Q35.8438 66.3594 36.0156 66.9844
Q36.1875 67.625 36.4531 67.9688
Q36.7188 68.3125 37.2031 68.3125
L50.6875 69.3906
Q51.9062 69.3906 51.9062 68.1094
L37.5 10.5938
Q36.8125 8.9375 36.8125 5.8125
Q36.8125 1.51562 39.7031 1.51562
Q42.8281 1.51562 44.4531 5.48438
Q46.0938 9.46875 47.2188 14.7031
Q47.4062 15.2812 48 15.2812
L49.2188 15.2812
Q49.6094 15.2812 49.8438 14.9375
Q50.0938 14.5938 50.0938 14.3125
Q48.3438 7.32812 46.2656 3.09375
Q44.1875 -1.125 39.5 -1.125
Q36.1406 -1.125 33.5469 0.84375
Q30.9531 2.82812 30.3281 6.10938
Q23.875 -1.125 17.3906 -1.125
M17.4844 1.51562
Q21.0938 1.51562 24.4844 4.21875
Q27.875 6.9375 30.3281 10.5938
Q30.4219 10.6875 30.4219 10.9844
L35.8906 33.0156
Q35.2969 36.5312 33.2969 39.0625
Q31.2969 41.6094 27.9844 41.6094
Q24.6094 41.6094 21.7031 38.8438
Q18.7969 36.0781 16.7969 32.3281
Q14.8438 28.3281 13.0625 21.3438
Q11.2812 14.3594 11.2812 10.5
Q11.2812 7.03125 12.7656 4.26562
Q14.2656 1.51562 17.4844 1.51562" id="Cmmi10-64"/>
    </defs>
    <g transform="translate(280.446923077 269.206875)scale(0.18 -0.18)">
     <use transform="translate(0.0 0.609375)" xlink:href="#Cmmi10-64"/>
    </g>
   </g>
  </g>
 </g>
 <defs>
  <clipPath id="pf300deb6a1">
   <rect height="262.08" width="298.08" x="7.2" y="7.2"/>
  </clipPath>
 </defs>
</svg>
