<?xml version="1.0" encoding="utf-8" standalone="no"?>
<!DOCTYPE svg PUBLIC "-//W3C//DTD SVG 1.1//EN"
  "http://www.w3.org/Graphics/SVG/1.1/DTD/svg11.dtd">
<!-- Created with matplotlib (http://matplotlib.org/) -->
<svg height="280pt" version="1.1" viewBox="0 0 312 280" width="312pt" xmlns="http://www.w3.org/2000/svg" xmlns:xlink="http://www.w3.org/1999/xlink">
 <defs>
  <style type="text/css">
*{stroke-linecap:butt;stroke-linejoin:round;}
  </style>
 </defs>
 <g id="figure_1">
  <g id="patch_1">
   <path d="
M0 280.15
L312.48 280.15
L312.48 0
L0 0
z
" style="fill:#ffffff;"/>
  </g>
  <g id="axes_1">
   <g id="patch_2">
    <path d="
M7.2 269.28
L305.28 269.28
L305.28 7.2
L7.2 7.2
z
" style="fill:#ffffff;"/>
   </g>
   <g id="patch_3">
    <path clip-path="url(#pf300deb6a1)" d="
M98.9169 180.24
L98.9169 64.5231
L106.679 64.5231
L106.679 180.24
z
" style="fill:#90ee90;"/>
   </g>
   <g id="patch_4">
    <path clip-path="url(#pf300deb6a1)" d="
M98.9169 180.24
L98.9169 64.5231
L106.679 64.5231
L106.679 180.24
z
" style="fill:none;stroke:#000000;"/>
   </g>
   <g id="patch_5">
    <path clip-path="url(#pf300deb6a1)" d="
M106.679 180.24
L106.679 77.9843
L114.442 77.9843
L114.442 180.24
z
" style="fill:#90ee90;"/>
   </g>
   <g id="patch_6">
    <path clip-path="url(#pf300deb6a1)" d="
M106.679 180.24
L106.679 77.9843
L114.442 77.9843
L114.442 180.24
z
" style="fill:none;stroke:#000000;"/>
   </g>
   <g id="patch_7">
    <path clip-path="url(#pf300deb6a1)" d="
M114.442 180.24
L114.442 95.8383
L122.204 95.8383
L122.204 180.24
z
" style="fill:#90ee90;"/>
   </g>
   <g id="patch_8">
    <path clip-path="url(#pf300deb6a1)" d="
M114.442 180.24
L114.442 95.8383
L122.204 95.8383
L122.204 180.24
z
" style="fill:none;stroke:#000000;"/>
   </g>
   <g id="patch_9">
    <path clip-path="url(#pf300deb6a1)" d="
M122.204 180.24
L122.204 116.784
L129.967 116.784
L129.967 180.24
z
" style="fill:#90ee90;"/>
   </g>
   <g id="patch_10">
    <path clip-path="url(#pf300deb6a1)" d="
M122.204 180.24
L122.204 116.784
L129.967 116.784
L129.967 180.24
z
" style="fill:none;stroke:#000000;"/>
   </g>
   <g id="patch_11">
    <path clip-path="url(#pf300deb6a1)" d="
M129.967 180.24
L129.967 139.293
L137.729 139.293
L137.729 180.24
z
" style="fill:#90ee90;"/>
   </g>
   <g id="patch_12">
    <path clip-path="url(#pf300deb6a1)" d="
M129.967 180.24
L129.967 139.293
L137.729 139.293
L137.729 180.24
z
" style="fill:none;stroke:#000000;"/>
   </g>
   <g id="patch_13">
    <path clip-path="url(#pf300deb6a1)" d="
M137.729 180.24
L137.729 161.726
L145.492 161.726
L145.492 180.24
z
" style="fill:#90ee90;"/>
   </g>
   <g id="patch_14">
    <path clip-path="url(#pf300deb6a1)" d="
M137.729 180.24
L137.729 161.726
L145.492 161.726
L145.492 180.24
z
" style="fill:none;stroke:#000000;"/>
   </g>
   <g id="patch_15">
    <path clip-path="url(#pf300deb6a1)" d="
M145.492 180.24
L145.492 182.446
L153.254 182.446
L153.254 180.24
z
" style="fill:#90ee90;"/>
   </g>
   <g id="patch_16">
    <path clip-path="url(#pf300deb6a1)" d="
M145.492 180.24
L145.492 182.446
L153.254 182.446
L153.254 180.24
z
" style="fill:none;stroke:#000000;"/>
   </g>
   <g id="patch_17">
    <path clip-path="url(#pf300deb6a1)" d="
M153.254 180.24
L153.254 199.944
L161.017 199.944
L161.017 180.24
z
" style="fill:#90ee90;"/>
   </g>
   <g id="patch_18">
    <path clip-path="url(#pf300deb6a1)" d="
M153.254 180.24
L153.254 199.944
L161.017 199.944
L161.017 180.24
z
" style="fill:none;stroke:#000000;"/>
   </g>
   <g id="patch_19">
    <path clip-path="url(#pf300deb6a1)" d="
M161.017 180.24
L161.017 212.943
L168.779 212.943
L168.779 180.24
z
" style="fill:#90ee90;"/>
   </g>
   <g id="patch_20">
    <path clip-path="url(#pf300deb6a1)" d="
M161.017 180.24
L161.017 212.943
L168.779 212.943
L168.779 180.24
z
" style="fill:none;stroke:#000000;"/>
   </g>
   <g id="patch_21">
    <path clip-path="url(#pf300deb6a1)" d="
M168.779 180.24
L168.779 220.497
L176.542 220.497
L176.542 180.24
z
" style="fill:#90ee90;"/>
   </g>
   <g id="patch_22">
    <path clip-path="url(#pf300deb6a1)" d="
M168.779 180.24
L168.779 220.497
L176.542 220.497
L176.542 180.24
z
" style="fill:none;stroke:#000000;"/>
   </g>
   <g id="patch_23">
    <path clip-path="url(#pf300deb6a1)" d="
M176.542 180.24
L176.542 222.053
L184.304 222.053
L184.304 180.24
z
" style="fill:#90ee90;"/>
   </g>
   <g id="patch_24">
    <path clip-path="url(#pf300deb6a1)" d="
M176.542 180.24
L176.542 222.053
L184.304 222.053
L184.304 180.24
z
" style="fill:none;stroke:#000000;"/>
   </g>
   <g id="patch_25">
    <path clip-path="url(#pf300deb6a1)" d="
M184.304 180.24
L184.304 217.499
L192.067 217.499
L192.067 180.24
z
" style="fill:#90ee90;"/>
   </g>
   <g id="patch_26">
    <path clip-path="url(#pf300deb6a1)" d="
M184.304 180.24
L184.304 217.499
L192.067 217.499
L192.067 180.24
z
" style="fill:none;stroke:#000000;"/>
   </g>
   <g id="patch_27">
    <path clip-path="url(#pf300deb6a1)" d="
M192.067 180.24
L192.067 207.167
L199.829 207.167
L199.829 180.24
z
" style="fill:#90ee90;"/>
   </g>
   <g id="patch_28">
    <path clip-path="url(#pf300deb6a1)" d="
M192.067 180.24
L192.067 207.167
L199.829 207.167
L199.829 180.24
z
" style="fill:none;stroke:#000000;"/>
   </g>
   <g id="patch_29">
    <path clip-path="url(#pf300deb6a1)" d="
M199.829 180.24
L199.829 191.81
L207.592 191.81
L207.592 180.24
z
" style="fill:#90ee90;"/>
   </g>
   <g id="patch_30">
    <path clip-path="url(#pf300deb6a1)" d="
M199.829 180.24
L199.829 191.81
L207.592 191.81
L207.592 180.24
z
" style="fill:none;stroke:#000000;"/>
   </g>
   <g id="patch_31">
    <path clip-path="url(#pf300deb6a1)" d="
M207.592 180.24
L207.592 172.547
L215.354 172.547
L215.354 180.24
z
" style="fill:#90ee90;"/>
   </g>
   <g id="patch_32">
    <path clip-path="url(#pf300deb6a1)" d="
M207.592 180.24
L207.592 172.547
L215.354 172.547
L215.354 180.24
z
" style="fill:none;stroke:#000000;"/>
   </g>
   <g id="patch_33">
    <path clip-path="url(#pf300deb6a1)" d="
M215.354 180.24
L215.354 150.784
L223.117 150.784
L223.117 180.24
z
" style="fill:#90ee90;"/>
   </g>
   <g id="patch_34">
    <path clip-path="url(#pf300deb6a1)" d="
M215.354 180.24
L215.354 150.784
L223.117 150.784
L223.117 180.24
z
" style="fill:none;stroke:#000000;"/>
   </g>
   <g id="patch_35">
    <path clip-path="url(#pf300deb6a1)" d="
M223.117 180.24
L223.117 128.105
L230.879 128.105
L230.879 180.24
z
" style="fill:#90ee90;"/>
   </g>
   <g id="patch_36">
    <path clip-path="url(#pf300deb6a1)" d="
M223.117 180.24
L223.117 128.105
L230.879 128.105
L230.879 180.24
z
" style="fill:none;stroke:#000000;"/>
   </g>
   <g id="patch_37">
    <path clip-path="url(#pf300deb6a1)" d="
M230.879 180.24
L230.879 106.166
L238.642 106.166
L238.642 180.24
z
" style="fill:#90ee90;"/>
   </g>
   <g id="patch_38">
    <path clip-path="url(#pf300deb6a1)" d="
M230.879 180.24
L230.879 106.166
L238.642 106.166
L238.642 180.24
z
" style="fill:none;stroke:#000000;"/>
   </g>
   <g id="patch_39">
    <path clip-path="url(#pf300deb6a1)" d="
M238.642 180.24
L238.642 86.5651
L246.404 86.5651
L246.404 180.24
z
" style="fill:#90ee90;"/>
   </g>
   <g id="patch_40">
    <path clip-path="url(#pf300deb6a1)" d="
M238.642 180.24
L238.642 86.5651
L246.404 86.5651
L246.404 180.24
z
" style="fill:none;stroke:#000000;"/>
   </g>
   <g id="patch_41">
    <path clip-path="url(#pf300deb6a1)" d="
M246.404 180.24
L246.404 70.7314
L254.167 70.7314
L254.167 180.24
z
" style="fill:#90ee90;"/>
   </g>
   <g id="patch_42">
    <path clip-path="url(#pf300deb6a1)" d="
M246.404 180.24
L246.404 70.7314
L254.167 70.7314
L254.167 180.24
z
" style="fill:none;stroke:#000000;"/>
   </g>
   <g id="patch_43">
    <path clip-path="url(#pf300deb6a1)" d="
M254.167 180.24
L254.167 59.8192
L261.929 59.8192
L261.929 180.24
z
" style="fill:#90ee90;"/>
   </g>
   <g id="patch_44">
    <path clip-path="url(#pf300deb6a1)" d="
M254.167 180.24
L254.167 59.8192
L261.929 59.8192
L261.929 180.24
z
" style="fill:none;stroke:#000000;"/>
   </g>
   <g id="patch_45">
    <path clip-path="url(#pf300deb6a1)" d="
M261.929 180.24
L261.929 54.6242
L269.692 54.6242
L269.692 180.24
z
" style="fill:#90ee90;"/>
   </g>
   <g id="patch_46">
    <path clip-path="url(#pf300deb6a1)" d="
M261.929 180.24
L261.929 54.6242
L269.692 54.6242
L269.692 180.24
z
" style="fill:none;stroke:#000000;"/>
   </g>
   <g id="patch_47">
    <path clip-path="url(#pf300deb6a1)" d="
M269.692 180.24
L269.692 55.5251
L277.454 55.5251
L277.454 180.24
z
" style="fill:#90ee90;"/>
   </g>
   <g id="patch_48">
    <path clip-path="url(#pf300deb6a1)" d="
M269.692 180.24
L269.692 55.5251
L277.454 55.5251
L277.454 180.24
z
" style="fill:none;stroke:#000000;"/>
   </g>
   <g id="patch_49">
    <path clip-path="url(#pf300deb6a1)" d="
M277.454 180.24
L277.454 62.4562
L285.217 62.4562
L285.217 180.24
z
" style="fill:#90ee90;"/>
   </g>
   <g id="patch_50">
    <path clip-path="url(#pf300deb6a1)" d="
M277.454 180.24
L277.454 62.4562
L285.217 62.4562
L285.217 180.24
z
" style="fill:none;stroke:#000000;"/>
   </g>
   <g id="line2d_1">
    <path clip-path="url(#pf300deb6a1)" d="
M12.9323 180.24
L299.548 180.24
L299.548 180.24" style="fill:none;"/>
   </g>
   <g id="line2d_2">
    <path clip-path="url(#pf300deb6a1)" d="
M95.3342 243.24
L288.8 243.24" style="fill:none;stroke:#000000;stroke-linecap:square;stroke-width:2.0;"/>
   </g>
   <g id="line2d_3">
    <path clip-path="url(#pf300deb6a1)" d="
M98.9169 247.44
L98.9169 239.04" style="fill:none;stroke:#000000;stroke-linecap:square;stroke-width:2.0;"/>
   </g>
   <g id="line2d_4">
    <path clip-path="url(#pf300deb6a1)" d="
M144.615 247.44
L144.615 239.04" style="fill:none;stroke:#000000;stroke-linecap:square;stroke-width:2.0;"/>
   </g>
   <g id="line2d_5">
    <path clip-path="url(#pf300deb6a1)" d="
M206.398 247.44
L206.398 239.04" style="fill:none;stroke:#000000;stroke-linecap:square;stroke-width:2.0;"/>
   </g>
   <g id="line2d_6">
    <path clip-path="url(#pf300deb6a1)" d="
M285.217 247.44
L285.217 239.04" style="fill:none;stroke:#000000;stroke-linecap:square;stroke-width:2.0;"/>
   </g>
   <g id="line2d_7">
    <path clip-path="url(#pf300deb6a1)" d="
M12.9323 205.536
L15.5603 200.65
L17.9866 195.673
L21.1261 188.628
L24.3524 180.76
L27.7704 171.839
L31.3644 161.947
L37.5014 144.282
L46.8679 117.067
L51.4827 104.309
L55.6229 93.6012
L59.2111 85.0655
L62.3669 78.2421
L65.2889 72.5705
L67.4188 68.8629
L69.8079 65.1608
L72.0708 62.1218
L73.898 60.0132
L75.8452 58.1162
L77.0262 57.1452
L79.2298 55.7026
L81.3369 54.7792
L82.8359 54.3966
L83.923 54.2625
L85.6753 54.3006
L87.1342 54.5717
L88.4907 55.0182
L89.8471 55.6511
L91.637 56.769
L93.6041 58.3637
L95.3971 60.145
L97.1394 62.1688
L99.0903 64.768
L101.104 67.807
L102.953 70.9047
L104.95 74.5637
L107.496 79.6766
L110.01 85.1771
L113.414 93.2657
L117.321 103.323
L121.645 115.203
L126.98 130.551
L138.447 163.738
L142.432 174.584
L146.178 184.143
L149.139 191.153
L152.252 197.914
L155.022 203.339
L157.872 208.288
L159.715 211.123
L162.092 214.331
L164.328 216.873
L166.377 218.783
L168.157 220.107
L169.596 220.948
L170.952 221.55
L172.969 222.099
L174.123 222.227
L175.652 222.187
L176.897 221.977
L178.544 221.458
L180.422 220.53
L181.996 219.48
L184.003 217.787
L186.015 215.698
L188.246 212.937
L190.157 210.21
L192.217 206.915
L194.64 202.585
L197.072 197.778
L199.498 192.555
L202.805 184.816
L205.927 176.941
L210.611 164.295
L216.491 147.481
L228.985 111.364
L232.693 101.32
L235.653 93.7401
L239.58 84.4264
L242.211 78.7394
L244.671 73.8756
L246.951 69.791
L248.964 66.5429
L251.33 63.178
L253.616 60.4127
L255.251 58.7367
L256.67 57.4922
L258.655 56.0843
L260.535 55.1134
L262.017 54.6001
L263.336 54.3312
L264.99 54.2452
L266.305 54.3763
L267.693 54.7061
L269.068 55.2261
L270.753 56.1234
L272.659 57.4807
L274.564 59.1931
L276.619 61.4323
L278.493 63.8192
L280.039 66.0273
L281.884 68.9377
L283.674 72.0337
L286.76 77.9741
L289.816 84.5422
L292.683 91.2624
L295.142 97.403
L299.548 109.123
L299.548 109.123" style="fill:none;stroke:#0000ff;stroke-linecap:square;stroke-width:2.0;"/>
   </g>
   <g id="matplotlib.axis_1"/>
   <g id="matplotlib.axis_2"/>
   <g id="patch_51">
    <path d="
M7.2 180.24
L305.28 180.24" style="fill:none;stroke:#000000;stroke-width:0.8;"/>
   </g>
   <g id="patch_52">
    <path d="
M84.5862 269.28
L84.5862 7.2" style="fill:none;stroke:#000000;stroke-width:0.8;"/>
   </g>
   <g id="text_1">
    <!-- $a$ -->
    <defs>
     <path d="
M17.3906 -1.125
Q11.0781 -1.125 7.4375 3.64062
Q3.8125 8.40625 3.8125 14.8906
Q3.8125 21.2969 7.125 28.1719
Q10.4531 35.0625 16.0938 39.625
Q21.7344 44.1875 28.2188 44.1875
Q31.2031 44.1875 33.5469 42.5781
Q35.8906 40.9688 37.2031 38.1875
Q38.3281 42.1875 41.6094 42.1875
Q42.875 42.1875 43.7188 41.4219
Q44.5781 40.6719 44.5781 39.4062
Q44.5781 39.1094 44.5469 38.9531
Q44.5312 38.8125 44.4844 38.625
L37.5 10.6875
Q36.8125 7.71875 36.8125 5.8125
Q36.8125 1.51562 39.7031 1.51562
Q42.8281 1.51562 44.4531 5.48438
Q46.0938 9.46875 47.2188 14.7031
Q47.4062 15.2812 48 15.2812
L49.2188 15.2812
Q49.6094 15.2812 49.8438 14.9375
Q50.0938 14.5938 50.0938 14.3125
Q48.3438 7.32812 46.2656 3.09375
Q44.1875 -1.125 39.5 -1.125
Q36.1406 -1.125 33.5469 0.84375
Q30.9531 2.82812 30.3281 6.10938
Q23.875 -1.125 17.3906 -1.125
M17.4844 1.51562
Q21.0938 1.51562 24.4844 4.21875
Q27.875 6.9375 30.3281 10.5938
Q30.4219 10.6875 30.4219 10.8906
L35.7969 32.625
L35.8906 32.9062
Q35.2969 36.4688 33.3125 39.0312
Q31.3438 41.6094 27.9844 41.6094
Q24.6094 41.6094 21.7031 38.8438
Q18.7969 36.0781 16.7969 32.3281
Q14.8438 28.3281 13.0625 21.3438
Q11.2812 14.3594 11.2812 10.5
Q11.2812 7.03125 12.7656 4.26562
Q14.2656 1.51562 17.4844 1.51562" id="Cmmi10-61"/>
    </defs>
    <g transform="translate(94.1469230769 269.206875)scale(0.18 -0.18)">
     <use transform="translate(0.0 0.8125)" xlink:href="#Cmmi10-61"/>
    </g>
   </g>
   <g id="text_2">
    <!-- $b$ -->
    <defs>
     <path d="
M17.2812 -1.125
Q11.2344 -1.125 7.85938 3.60938
Q4.5 8.34375 4.5 14.7031
Q4.5 15.625 4.95312 18.3281
Q5.42188 21.0469 5.42188 21.6875
L15.0938 60.5
Q15.4844 62.2031 15.5781 63.1875
Q15.5781 64.7969 9.07812 64.7969
Q8.10938 64.7969 8.10938 66.1094
Q8.15625 66.3594 8.32812 66.9844
Q8.5 67.625 8.76562 67.9688
Q9.03125 68.3125 9.51562 68.3125
L23 69.3906
Q24.2188 69.3906 24.2188 68.1094
L16.7969 38.625
Q22.4688 44.1875 28.2188 44.1875
Q32.4688 44.1875 35.5156 41.9375
Q38.5781 39.7031 40.0938 36.0312
Q41.6094 32.375 41.6094 28.2188
Q41.6094 23.3906 39.7188 18.2344
Q37.8438 13.0938 34.5156 8.67188
Q31.2031 4.25 26.75 1.5625
Q22.3125 -1.125 17.2812 -1.125
M17.4844 1.51562
Q20.9062 1.51562 23.875 4.375
Q26.8594 7.23438 28.7188 10.7969
Q30.7188 14.7969 32.4531 21.6562
Q34.1875 28.5156 34.1875 32.625
Q34.1875 36.1875 32.6875 38.8906
Q31.2031 41.6094 27.9844 41.6094
Q24.3594 41.6094 21.0625 38.9375
Q17.7812 36.2812 15.2812 32.625
L12.5 21.2969
Q10.8906 14.9844 10.7969 11.1875
Q10.7969 7.42188 12.4219 4.46875
Q14.0625 1.51562 17.4844 1.51562" id="Cmmi10-62"/>
    </defs>
    <g transform="translate(140.744739627 269.206875)scale(0.18 -0.18)">
     <use transform="translate(0.0 0.609375)" xlink:href="#Cmmi10-62"/>
    </g>
   </g>
   <g id="text_3">
    <!-- $c$ -->
    <defs>
     <path d="
M11.7188 11.9219
Q11.7188 7.5625 13.9375 4.53125
Q16.1562 1.51562 20.3125 1.51562
Q26.2656 1.51562 31.75 4.25
Q37.25 6.98438 40.7188 11.8125
Q41.0156 12.1094 41.5 12.1094
Q42 12.1094 42.5 11.5469
Q43.0156 10.9844 43.0156 10.5
Q43.0156 10.1094 42.8281 9.90625
Q39.1562 4.78125 32.9531 1.82812
Q26.7656 -1.125 20.125 -1.125
Q15.3281 -1.125 11.6719 1.14062
Q8.01562 3.42188 6 7.21875
Q4 11.0312 4 15.8281
Q4 22.5625 7.76562 29.2031
Q11.5312 35.8438 17.7812 40.0156
Q24.0312 44.1875 30.9062 44.1875
Q35.4062 44.1875 38.9844 42.0156
Q42.5781 39.8438 42.5781 35.5938
Q42.5781 32.8594 40.9844 30.9219
Q39.4062 29 36.7188 29
Q35.1094 29 34 30
Q32.9062 31 32.9062 32.625
Q32.9062 34.9688 34.6094 36.625
Q36.3281 38.2812 38.625 38.2812
L38.8125 38.2812
Q37.6406 39.9844 35.4219 40.7969
Q33.2031 41.6094 30.8125 41.6094
Q24.9531 41.6094 20.5469 36.5938
Q16.1562 31.5938 13.9375 24.625
Q11.7188 17.6719 11.7188 11.9219" id="Cmmi10-63"/>
    </defs>
    <g transform="translate(202.437692308 269.206875)scale(0.18 -0.18)">
     <use transform="translate(0.0 0.8125)" xlink:href="#Cmmi10-63"/>
    </g>
   </g>
   <g id="text_4">
    <!-- $d$ -->
    <defs>
     <path d="
M17.3906 -1.125
Q11.0781 -1.125 7.4375 3.64062
Q3.8125 8.40625 3.8125 14.8906
Q3.8125 21.2969 7.125 28.1719
Q10.4531 35.0625 16.0938 39.625
Q21.7344 44.1875 28.2188 44.1875
Q31.1562 44.1875 33.5156 42.5469
Q35.8906 40.9219 37.2031 38.1875
L42.8281 60.5
Q43.2188 62.2031 43.3125 63.1875
Q43.3125 64.7969 36.8125 64.7969
Q35.7969 64.7969 35.7969 66.1094
Q35.8438 66.3594 36.0156 66.9844
Q36.1875 67.625 36.4531 67.9688
Q36.7188 68.3125 37.2031 68.3125
L50.6875 69.3906
Q51.9062 69.3906 51.9062 68.1094
L37.5 10.5938
Q36.8125 8.9375 36.8125 5.8125
Q36.8125 1.51562 39.7031 1.51562
Q42.8281 1.51562 44.4531 5.48438
Q46.0938 9.46875 47.2188 14.7031
Q47.4062 15.2812 48 15.2812
L49.2188 15.2812
Q49.6094 15.2812 49.8438 14.9375
Q50.0938 14.5938 50.0938 14.3125
Q48.3438 7.32812 46.2656 3.09375
Q44.1875 -1.125 39.5 -1.125
Q36.1406 -1.125 33.5469 0.84375
Q30.9531 2.82812 30.3281 6.10938
Q23.875 -1.125 17.3906 -1.125
M17.4844 1.51562
Q21.0938 1.51562 24.4844 4.21875
Q27.875 6.9375 30.3281 10.5938
Q30.4219 10.6875 30.4219 10.9844
L35.8906 33.0156
Q35.2969 36.5312 33.2969 39.0625
Q31.2969 41.6094 27.9844 41.6094
Q24.6094 41.6094 21.7031 38.8438
Q18.7969 36.0781 16.7969 32.3281
Q14.8438 28.3281 13.0625 21.3438
Q11.2812 14.3594 11.2812 10.5
Q11.2812 7.03125 12.7656 4.26562
Q14.2656 1.51562 17.4844 1.51562" id="Cmmi10-64"/>
    </defs>
    <g transform="translate(280.446923077 269.206875)scale(0.18 -0.18)">
     <use transform="translate(0.0 0.609375)" xlink:href="#Cmmi10-64"/>
    </g>
   </g>
   <g id="text_5">
    <!-- $y=f(x)$ -->
    <defs>
     <path d="
M31 -24.8125
Q25.4375 -20.4062 21.4062 -14.7188
Q17.3906 -9.03125 14.8125 -2.57812
Q12.25 3.85938 10.9844 10.8906
Q9.71875 17.9219 9.71875 25
Q9.71875 32.1719 10.9844 39.2031
Q12.25 46.2344 14.8594 52.7344
Q17.4844 59.2344 21.5312 64.8906
Q25.5938 70.5625 31 74.8125
Q31 75 31.5 75
L32.4219 75
Q32.7188 75 32.9531 74.7344
Q33.2031 74.4688 33.2031 74.125
Q33.2031 73.6875 33.0156 73.4844
Q28.125 68.7031 24.875 63.2344
Q21.625 57.7656 19.6406 51.5781
Q17.6719 45.4062 16.7969 38.7812
Q15.9219 32.1719 15.9219 25
Q15.9219 -6.78125 32.9062 -23.2969
Q33.2031 -23.5781 33.2031 -24.125
Q33.2031 -24.3594 32.9375 -24.6719
Q32.6719 -25 32.4219 -25
L31.5 -25
Q31 -25 31 -24.8125" id="Cmr10-28"/>
     <path d="
M6.5 -25
Q5.60938 -25 5.60938 -24.125
Q5.60938 -23.6875 5.8125 -23.4844
Q22.9062 -6.78125 22.9062 25
Q22.9062 56.7812 6 73.2969
Q5.60938 73.5312 5.60938 74.125
Q5.60938 74.4688 5.875 74.7344
Q6.15625 75 6.5 75
L7.42188 75
Q7.71875 75 7.90625 74.8125
Q15.0938 69.1406 19.875 61.0312
Q24.6562 52.9375 26.875 43.75
Q29.1094 34.5781 29.1094 25
Q29.1094 17.9219 27.9062 11.0625
Q26.7031 4.20312 24.0938 -2.45312
Q21.4844 -9.125 17.4844 -14.7656
Q13.4844 -20.4062 7.90625 -24.8125
Q7.71875 -25 7.42188 -25
z
" id="Cmr10-29"/>
     <path d="
M7.51562 13.2812
Q6.6875 13.2812 6.14062 13.9062
Q5.60938 14.5469 5.60938 15.2812
Q5.60938 16.1094 6.14062 16.6875
Q6.6875 17.2812 7.51562 17.2812
L70.3125 17.2812
Q71.0469 17.2812 71.5781 16.6875
Q72.125 16.1094 72.125 15.2812
Q72.125 14.5469 71.5781 13.9062
Q71.0469 13.2812 70.3125 13.2812
z

M7.51562 32.7188
Q6.6875 32.7188 6.14062 33.2969
Q5.60938 33.8906 5.60938 34.7188
Q5.60938 35.4531 6.14062 36.0781
Q6.6875 36.7188 7.51562 36.7188
L70.3125 36.7188
Q71.0469 36.7188 71.5781 36.0781
Q72.125 35.4531 72.125 34.7188
Q72.125 33.8906 71.5781 33.2969
Q71.0469 32.7188 70.3125 32.7188
z
" id="Cmr10-3d"/>
     <path d="
M9.71875 -16.5
Q11.5781 -17.9219 14.2031 -17.9219
Q17.7812 -17.9219 20.0156 -10.0156
Q20.9531 -6.20312 25.0938 15.0938
L29.6875 39.5938
L21.0938 39.5938
Q20.125 39.5938 20.125 40.9219
Q20.5156 43.1094 21.3906 43.1094
L30.3281 43.1094
L31.5 49.6094
Q32.0781 52.6406 32.5625 54.8125
Q33.0625 56.9844 33.625 58.8281
Q34.1875 60.6875 35.2969 62.9844
Q37.0156 66.2656 39.9219 68.3906
Q42.8281 70.5156 46.1875 70.5156
Q48.3906 70.5156 50.4688 69.7031
Q52.5469 68.8906 53.8594 67.2812
Q55.1719 65.6719 55.1719 63.4844
Q55.1719 60.9375 53.4844 59.0469
Q51.8125 57.1719 49.4219 57.1719
Q47.7969 57.1719 46.6562 58.1719
Q45.5156 59.1875 45.5156 60.7969
Q45.5156 62.9844 47 64.625
Q48.4844 66.2656 50.6875 66.5
Q48.8281 67.9219 46.0938 67.9219
Q44.5781 67.9219 43.2344 66.5
Q41.8906 65.0938 41.5 63.4844
Q40.875 60.9375 38.7188 49.7031
L37.5 43.1094
L47.7969 43.1094
Q48.7812 43.1094 48.7812 41.7969
Q48.7344 41.5469 48.5781 40.9375
Q48.4375 40.3281 48.1719 39.9531
Q47.9062 39.5938 47.5156 39.5938
L36.8125 39.5938
L32.1719 15.1875
Q31.2969 9.85938 30.1406 4.35938
Q29 -1.125 26.9219 -6.90625
Q24.8594 -12.7031 21.625 -16.6094
Q18.4062 -20.5156 14.0156 -20.5156
Q10.6406 -20.5156 7.98438 -18.5781
Q5.32812 -16.6562 5.32812 -13.4844
Q5.32812 -10.9375 6.95312 -9.04688
Q8.59375 -7.17188 11.0781 -7.17188
Q12.75 -7.17188 13.8594 -8.17188
Q14.9844 -9.1875 14.9844 -10.7969
Q14.9844 -12.9375 13.3906 -14.7188
Q11.8125 -16.5 9.71875 -16.5" id="Cmmi10-66"/>
     <path d="
M7.8125 2.875
Q9.57812 1.51562 12.7969 1.51562
Q15.9219 1.51562 18.3125 4.51562
Q20.7031 7.51562 21.5781 11.0781
L26.125 28.8125
Q27.2031 33.6406 27.2031 35.4062
Q27.2031 37.8906 25.8125 39.75
Q24.4219 41.6094 21.9219 41.6094
Q18.75 41.6094 15.9688 39.625
Q13.1875 37.6406 11.2812 34.5938
Q9.375 31.5469 8.59375 28.4219
Q8.40625 27.7812 7.8125 27.7812
L6.59375 27.7812
Q5.8125 27.7812 5.8125 28.7188
L5.8125 29
Q6.78125 32.7188 9.125 36.25
Q11.4688 39.7969 14.8594 41.9844
Q18.2656 44.1875 22.125 44.1875
Q25.7812 44.1875 28.7344 42.2344
Q31.6875 40.2812 32.9062 36.9219
Q34.625 39.9844 37.2812 42.0781
Q39.9375 44.1875 43.1094 44.1875
Q45.2656 44.1875 47.5 43.4219
Q49.75 42.6719 51.1719 41.1094
Q52.5938 39.5469 52.5938 37.2031
Q52.5938 34.6719 50.9531 32.8281
Q49.3125 31 46.7812 31
Q45.1719 31 44.0938 32.0312
Q43.0156 33.0625 43.0156 34.625
Q43.0156 36.7188 44.4531 38.2969
Q45.9062 39.8906 47.9062 40.1875
Q46.0938 41.6094 42.9219 41.6094
Q39.7031 41.6094 37.3281 38.625
Q34.9688 35.6406 33.9844 31.9844
L29.5938 14.3125
Q28.5156 10.2969 28.5156 7.71875
Q28.5156 5.17188 29.9531 3.34375
Q31.3906 1.51562 33.7969 1.51562
Q38.4844 1.51562 42.1562 5.64062
Q45.8438 9.76562 47.0156 14.7031
Q47.2188 15.2812 47.7969 15.2812
L49.0312 15.2812
Q49.4219 15.2812 49.6562 15.0156
Q49.9062 14.75 49.9062 14.4062
Q49.9062 14.3125 49.8125 14.1094
Q48.3906 8.15625 43.8438 3.51562
Q39.3125 -1.125 33.5938 -1.125
Q29.9375 -1.125 26.9844 0.84375
Q24.0312 2.82812 22.7969 6.20312
Q21.2344 3.26562 18.4688 1.0625
Q15.7188 -1.125 12.5938 -1.125
Q10.4531 -1.125 8.17188 -0.359375
Q5.90625 0.390625 4.48438 1.95312
Q3.07812 3.51562 3.07812 5.90625
Q3.07812 8.25 4.70312 10.1719
Q6.34375 12.1094 8.79688 12.1094
Q10.4531 12.1094 11.5781 11.1094
Q12.7031 10.1094 12.7031 8.5
Q12.7031 6.39062 11.2969 4.82812
Q9.90625 3.26562 7.8125 2.875" id="Cmmi10-78"/>
     <path d="
M8.40625 -14.3125
Q10.5 -17.9219 15.7188 -17.9219
Q20.4531 -17.9219 23.9219 -14.5938
Q27.3906 -11.2812 29.5156 -6.5625
Q31.6406 -1.85938 32.8125 3.07812
Q28.375 -1.125 23.1875 -1.125
Q19.2344 -1.125 16.4531 0.234375
Q13.6719 1.60938 12.125 4.3125
Q10.5938 7.03125 10.5938 10.8906
Q10.5938 14.1562 11.4688 17.5938
Q12.3594 21.0469 13.9375 25.2656
Q15.5312 29.5 16.7031 32.625
Q18.0156 36.2812 18.0156 38.625
Q18.0156 41.6094 15.8281 41.6094
Q11.8594 41.6094 9.29688 37.5312
Q6.73438 33.4531 5.51562 28.4219
Q5.32812 27.7812 4.6875 27.7812
L3.51562 27.7812
Q2.6875 27.7812 2.6875 28.7188
L2.6875 29
Q4.29688 34.9688 7.60938 39.5781
Q10.9375 44.1875 16.0156 44.1875
Q19.5781 44.1875 22.0469 41.8438
Q24.5156 39.5 24.5156 35.8906
Q24.5156 34.0312 23.6875 31.9844
Q23.25 30.7656 21.6875 26.6562
Q20.125 22.5625 19.2812 19.875
Q18.4531 17.1875 17.9219 14.5938
Q17.3906 12.0156 17.3906 9.42188
Q17.3906 6.10938 18.7969 3.8125
Q20.2188 1.51562 23.2969 1.51562
Q29.5 1.51562 34.4219 9.07812
L42 39.8906
Q42.3281 41.2188 43.5469 42.1562
Q44.7812 43.1094 46.1875 43.1094
Q47.4062 43.1094 48.3125 42.3281
Q49.2188 41.5469 49.2188 40.2812
Q49.2188 39.7031 49.125 39.5
L39.2031 -0.296875
Q37.8906 -5.42188 34.375 -10.1094
Q30.8594 -14.7969 25.9062 -17.6562
Q20.9531 -20.5156 15.5781 -20.5156
Q12.9844 -20.5156 10.4375 -19.5
Q7.90625 -18.5 6.34375 -16.5
Q4.78125 -14.5 4.78125 -11.8125
Q4.78125 -9.07812 6.39062 -7.07812
Q8.01562 -5.07812 10.6875 -5.07812
Q12.3125 -5.07812 13.4062 -6.07812
Q14.5 -7.07812 14.5 -8.6875
Q14.5 -10.9844 12.7812 -12.6875
Q11.0781 -14.4062 8.79688 -14.4062
Q8.6875 -14.3594 8.59375 -14.3281
Q8.5 -14.3125 8.40625 -14.3125" id="Cmmi10-79"/>
    </defs>
    <g transform="translate(101.011153846 46.14)scale(0.18 -0.18)">
     <use xlink:href="#Cmmi10-79"/>
     <use transform="translate(66.58203125 0.0)" xlink:href="#Cmr10-3d"/>
     <use transform="translate(150.640625 0.0)" xlink:href="#Cmmi10-66"/>
     <use transform="translate(199.517578125 0.0)" xlink:href="#Cmr10-28"/>
     <use transform="translate(238.3359375 0.0)" xlink:href="#Cmmi10-78"/>
     <use transform="translate(295.416015625 0.0)" xlink:href="#Cmr10-29"/>
    </g>
   </g>
  </g>
 </g>
 <defs>
  <clipPath id="pf300deb6a1">
   <rect height="262.08" width="298.08" x="7.2" y="7.2"/>
  </clipPath>
 </defs>
</svg>
