<?xml version="1.0" encoding="utf-8" standalone="no"?>
<!DOCTYPE svg PUBLIC "-//W3C//DTD SVG 1.1//EN"
  "http://www.w3.org/Graphics/SVG/1.1/DTD/svg11.dtd">
<!-- Created with matplotlib (http://matplotlib.org/) -->
<svg height="276pt" version="1.1" viewBox="0 0 275 276" width="275pt" xmlns="http://www.w3.org/2000/svg" xmlns:xlink="http://www.w3.org/1999/xlink">
 <defs>
  <style type="text/css">
*{stroke-linecap:butt;stroke-linejoin:round;}
  </style>
 </defs>
 <g id="figure_1">
  <g id="patch_1">
   <path d="
M0 276.801
L275.67 276.801
L275.67 0
L0 0
z
" style="fill:#ffffff;"/>
  </g>
  <g id="axes_1">
   <g id="patch_2">
    <path d="
M7.2 269.601
L250.03 269.601
L250.03 32.6206
L7.2 32.6206
z
" style="fill:#ffffff;"/>
   </g>
   <g id="patch_3">
    <path clip-path="url(#pfbe49a6bba)" d="
M74.1339 194.635
L74.1339 163.699
L74.341 163.104
L74.5573 162.485
L74.7241 162.008
L75.0461 161.09
L75.1406 160.821
L75.3219 160.306
L75.5351 159.702
L75.7874 158.989
L75.9959 158.402
L76.178 157.89
L76.4392 157.158
L76.7239 156.363
L76.7909 156.176
L76.9797 155.651
L77.215 154.999
L77.494 154.228
L77.6956 153.673
L77.921 153.054
L78.0307 152.753
L78.401 151.743
L78.5913 151.226
L78.823 150.599
L78.8591 150.501
L79.1013 149.848
L79.2966 149.323
L79.5818 148.56
L79.7134 148.209
L79.9341 147.622
L80.2415 146.809
L80.2912 146.678
L80.507 146.11
L80.8154 145.302
L80.9427 144.969
L81.3072 144.022
L81.3748 143.848
L81.5628 143.362
L81.9552 142.355
L82.0385 142.142
L82.1754 141.793
L82.4279 141.152
L82.7393 140.366
L82.9732 139.779
L83.2039 139.202
L83.3792 138.766
L83.5542 138.332
L83.6868 138.005
L83.8708 137.552
L84.1833 136.787
L84.4549 136.127
L84.5927 135.793
L84.8634 135.141
L85.0731 134.639
L85.1204 134.526
L85.4332 133.782
L85.5937 133.402
L85.8817 132.725
L86.0001 132.449
L86.1706 132.051
L86.5401 131.196
L86.7352 130.748
L86.806 130.586
L87.0469 130.037
L87.3547 129.34
L87.4161 129.202
L87.7934 128.357
L87.9706 127.963
L88.0363 127.818
L88.3195 127.194
L88.4428 126.924
L88.7491 126.258
L88.8435 126.053
L89.1119 125.476
L89.3505 124.966
L89.6585 124.314
L89.7639 124.093
L90.089 123.413
L90.1382 123.311
L90.4325 122.703
L90.6498 122.258
L90.9231 121.702
L90.9586 121.631
L91.2517 121.041
L91.4686 120.609
L91.5633 120.421
L91.9296 119.701
L92.0236 119.517
L92.2258 119.125
L92.4693 118.656
L92.6215 118.365
L92.9998 117.649
L93.1798 117.311
L93.3484 116.998
L93.5317 116.659
L93.7121 116.328
L93.9281 115.934
L94.1639 115.508
L94.4374 115.02
L94.5746 114.776
L94.6951 114.564
L95.0456 113.952
L95.1122 113.837
L95.4799 113.206
L95.654 112.911
L95.7787 112.701
L95.9744 112.374
L96.1891 112.018
L96.447 111.595
L96.603 111.342
L96.8467 110.95
L97.0842 110.571
L97.2636 110.289
L97.5473 109.847
L97.6833 109.637
L97.8247 109.42
L98.2013 108.85
L98.2735 108.742
L98.5406 108.346
L98.6554 108.178
L98.981 107.705
L99.1282 107.494
L99.3233 107.217
L99.6374 106.777
L99.8907 106.427
L99.9347 106.367
L100.225 105.974
L100.316 105.851
L100.716 105.323
L100.744 105.287
L101.101 104.826
L101.332 104.534
L101.425 104.416
L101.619 104.175
L101.945 103.776
L102.077 103.616
L102.246 103.415
L102.533 103.077
L102.621 102.975
L102.906 102.648
L103.201 102.316
L103.308 102.198
L103.475 102.014
L103.851 101.609
L103.947 101.507
L104.129 101.316
L104.375 101.063
L104.665 100.77
L104.871 100.566
L104.906 100.531
L105.278 100.172
L105.345 100.108
L105.718 99.7604
L105.761 99.7217
L106.038 99.4712
L106.178 99.3466
L106.511 99.0576
L106.597 98.9847
L106.953 98.6872
L107.111 98.5586
L107.396 98.3309
L107.469 98.2734
L107.622 98.1551
L107.904 97.9414
L108.07 97.8186
L108.341 97.622
L108.533 97.4863
L108.829 97.2829
L108.987 97.1767
L109.114 97.0936
L109.403 96.9071
L109.505 96.8436
L109.871 96.6197
L110.026 96.5283
L110.256 96.396
L110.341 96.3478
L110.624 96.1925
L110.869 96.0627
L111.15 95.9197
L111.322 95.8349
L111.486 95.7558
L111.655 95.677
L111.936 95.5505
L112.046 95.5024
L112.293 95.398
L112.435 95.3398
L112.816 95.1919
L112.933 95.1485
L113.121 95.0808
L113.306 95.0168
L113.506 94.9506
L113.691 94.8921
L113.882 94.8343
L114.25 94.7299
L114.325 94.7101
L114.566 94.6485
L114.875 94.5757
L115.008 94.5465
L115.18 94.5105
L115.387 94.4701
L115.643 94.4243
L115.643 194.635
z
" style="fill:#0000ff;opacity:0.5;"/>
   </g>
   <g id="patch_4">
    <path clip-path="url(#pfbe49a6bba)" d="
M115.643 194.635
L115.643 94.4243
L115.966 94.3733
L116.262 94.3328
L116.853 94.2706
L116.994 94.2593
L117.478 94.231
L117.898 94.2195
L118.104 94.2183
L118.475 94.2232
L119.012 94.2466
L119.144 94.2553
L119.724 94.3071
L120.013 94.3409
L120.567 94.421
L120.752 94.4522
L121.179 94.5323
L121.462 94.5915
L121.856 94.6825
L122.236 94.779
L122.583 94.8749
L122.9 94.9686
L123.298 95.0949
L123.808 95.2702
L123.916 95.3094
L124.23 95.4267
L124.827 95.6652
L125.098 95.7795
L125.32 95.8766
L125.771 96.0818
L126.344 96.3581
L126.721 96.5494
L126.947 96.6674
L127.329 96.8725
L127.541 96.9901
L128.02 97.2627
L128.276 97.4128
L128.916 97.8025
L129.09 97.9116
L129.345 98.0735
L129.913 98.446
L130.419 98.7897
L130.489 98.8377
L131.122 99.2842
L131.256 99.381
L131.769 99.7578
L132.025 99.9492
L132.298 100.157
L132.962 100.672
L133.08 100.765
L133.645 101.219
L134.032 101.536
L134.42 101.858
L134.459 101.891
L134.834 102.207
L135.421 102.712
L135.782 103.027
L136.094 103.302
L136.402 103.576
L136.974 104.093
L137.118 104.223
L137.547 104.617
L137.935 104.977
L138.218 105.241
L138.484 105.492
L138.865 105.853
L139.217 106.188
L139.669 106.623
L140.198 107.135
L140.475 107.405
L141.005 107.925
L141.291 108.208
L141.718 108.63
L142.035 108.946
L142.271 109.18
L142.627 109.536
L143.042 109.953
L143.505 110.418
L143.785 110.7
L144.22 111.14
L144.656 111.58
L145.002 111.93
L145.045 111.973
L145.499 112.433
L146.099 113.039
L146.432 113.376
L146.661 113.606
L146.958 113.906
L147.233 114.183
L147.813 114.765
L148.111 115.063
L148.348 115.299
L148.68 115.63
L149.181 116.127
L149.51 116.452
L150.126 117.055
L150.477 117.397
L150.558 117.476
L151.199 118.094
L151.323 118.213
L151.623 118.499
L152.03 118.884
L152.568 119.388
L152.882 119.68
L153.072 119.855
L153.752 120.475
L154.111 120.799
L154.176 120.857
L154.726 121.344
L155.067 121.641
L155.366 121.9
L155.824 122.291
L156.2 122.607
L156.594 122.933
L156.894 123.178
L157.191 123.417
L157.53 123.687
L157.918 123.991
L158.404 124.363
L158.849 124.696
L158.916 124.746
L159.63 125.262
L159.803 125.384
L160.266 125.705
L160.376 125.78
L160.814 126.073
L161.212 126.331
L161.492 126.509
L162.046 126.85
L162.425 127.075
L162.582 127.166
L163.045 127.429
L163.638 127.748
L163.948 127.909
L164.257 128.063
L164.658 128.257
L164.922 128.379
L165.356 128.573
L165.747 128.739
L165.963 128.827
L166.316 128.965
L166.657 129.091
L167.273 129.303
L167.579 129.4
L167.745 129.45
L168.075 129.546
L168.563 129.674
L168.787 129.729
L169.347 129.851
L169.824 129.939
L170.214 130.001
L170.419 130.029
L170.734 130.068
L171.019 130.097
L171.376 130.126
L171.883 130.153
L172.097 130.16
L172.706 130.161
L172.862 130.157
L173.438 130.129
L173.578 130.118
L174.169 130.06
L174.339 130.038
L174.673 129.99
L175.074 129.922
L175.39 129.861
L175.729 129.787
L176.147 129.684
L176.639 129.547
L176.859 129.48
L177.31 129.332
L177.638 129.214
L177.92 129.107
L178.528 128.856
L178.684 128.787
L179.12 128.585
L179.596 128.348
L180.052 128.104
L180.292 127.97
L180.638 127.768
L180.92 127.597
L181.405 127.289
L181.691 127.099
L182.035 126.862
L182.334 126.648
L182.629 126.43
L183.121 126.053
L183.691 125.592
L183.888 125.427
L184.095 125.25
L184.668 124.743
L185.022 124.418
L185.499 123.963
L185.684 123.782
L186.173 123.29
L186.403 123.052
L186.786 122.648
L187.138 122.265
L187.488 121.876
L187.9 121.406
L188.285 120.954
L188.285 194.635
z
" style="fill:#ff0000;opacity:0.5;"/>
   </g>
   <g id="line2d_1">
    <path clip-path="url(#pfbe49a6bba)" d="
M11.8698 194.635
L245.36 194.635
L245.36 194.635" style="fill:none;"/>
   </g>
   <g id="line2d_2">
    <path clip-path="url(#pfbe49a6bba)" d="
M74.1339 163.699
L78.5913 151.226
L82.4279 141.152
L85.8817 132.725
L88.8435 126.053
L91.5633 120.421
L94.1639 115.508
L96.603 111.342
L98.981 107.705
L101.101 104.826
L103.308 102.198
L105.345 100.108
L107.469 98.2734
L109.403 96.9071
L111.15 95.9197
L112.933 95.1485
L114.566 94.6485
L115.643 94.4243
L115.643 94.4243" style="fill:none;stroke:#0000ff;stroke-linecap:square;"/>
   </g>
   <g id="line2d_3">
    <path clip-path="url(#pfbe49a6bba)" d="
M115.643 94.4243
L117.478 94.231
L119.144 94.2553
L121.179 94.5323
L122.9 94.9686
L125.098 95.7795
L127.329 96.8725
L129.345 98.0735
L132.025 99.9492
L134.834 102.207
L138.218 105.241
L142.627 109.536
L153.072 119.855
L156.594 122.933
L158.916 124.746
L161.492 126.509
L163.948 127.909
L165.963 128.827
L168.075 129.546
L170.214 130.001
L172.097 130.16
L174.169 130.06
L175.729 129.787
L177.638 129.214
L179.12 128.585
L180.92 127.597
L182.629 126.43
L184.668 124.743
L186.786 122.648
L188.285 120.954
L188.285 120.954" style="fill:none;stroke:#0000ff;stroke-linecap:square;"/>
   </g>
   <g id="line2d_4">
    <path clip-path="url(#pfbe49a6bba)" d="
M115.643 194.635
L115.643 94.4243" style="fill:none;stroke:#000000;stroke-linecap:square;stroke-width:1.5;"/>
   </g>
   <g id="line2d_5">
    <path clip-path="url(#pfbe49a6bba)" d="
M188.285 194.635
L188.285 120.954" style="fill:none;stroke:#000000;stroke-linecap:square;stroke-width:1.5;"/>
   </g>
   <g id="matplotlib.axis_1">
    <g id="xtick_1">
     <g id="line2d_6">
      <defs>
       <path d="
M0 0
L0 -4" id="m93b0483c22" style="stroke:#000000;stroke-width:0.5;"/>
      </defs>
      <g>
       <use style="stroke:#000000;stroke-width:0.5;" x="74.1339102564" xlink:href="#m93b0483c22" y="194.63519919"/>
      </g>
     </g>
     <g id="text_1">
      <!-- $a$ -->
      <defs>
       <path d="
M17.3906 -1.125
Q11.0781 -1.125 7.4375 3.64062
Q3.8125 8.40625 3.8125 14.8906
Q3.8125 21.2969 7.125 28.1719
Q10.4531 35.0625 16.0938 39.625
Q21.7344 44.1875 28.2188 44.1875
Q31.2031 44.1875 33.5469 42.5781
Q35.8906 40.9688 37.2031 38.1875
Q38.3281 42.1875 41.6094 42.1875
Q42.875 42.1875 43.7188 41.4219
Q44.5781 40.6719 44.5781 39.4062
Q44.5781 39.1094 44.5469 38.9531
Q44.5312 38.8125 44.4844 38.625
L37.5 10.6875
Q36.8125 7.71875 36.8125 5.8125
Q36.8125 1.51562 39.7031 1.51562
Q42.8281 1.51562 44.4531 5.48438
Q46.0938 9.46875 47.2188 14.7031
Q47.4062 15.2812 48 15.2812
L49.2188 15.2812
Q49.6094 15.2812 49.8438 14.9375
Q50.0938 14.5938 50.0938 14.3125
Q48.3438 7.32812 46.2656 3.09375
Q44.1875 -1.125 39.5 -1.125
Q36.1406 -1.125 33.5469 0.84375
Q30.9531 2.82812 30.3281 6.10938
Q23.875 -1.125 17.3906 -1.125
M17.4844 1.51562
Q21.0938 1.51562 24.4844 4.21875
Q27.875 6.9375 30.3281 10.5938
Q30.4219 10.6875 30.4219 10.8906
L35.7969 32.625
L35.8906 32.9062
Q35.2969 36.4688 33.3125 39.0312
Q31.3438 41.6094 27.9844 41.6094
Q24.6094 41.6094 21.7031 38.8438
Q18.7969 36.0781 16.7969 32.3281
Q14.8438 28.3281 13.0625 21.3438
Q11.2812 14.3594 11.2812 10.5
Q11.2812 7.03125 12.7656 4.26562
Q14.2656 1.51562 17.4844 1.51562" id="Cmmi10-61"/>
      </defs>
      <g transform="translate(69.3639102564 212.31238669)scale(0.18 -0.18)">
       <use transform="translate(0.0 0.8125)" xlink:href="#Cmmi10-61"/>
      </g>
     </g>
    </g>
    <g id="xtick_2">
     <g id="line2d_7">
      <g>
       <use style="stroke:#000000;stroke-width:0.5;" x="115.643311966" xlink:href="#m93b0483c22" y="194.63519919"/>
      </g>
     </g>
     <g id="text_2">
      <!-- $b$ -->
      <defs>
       <path d="
M17.2812 -1.125
Q11.2344 -1.125 7.85938 3.60938
Q4.5 8.34375 4.5 14.7031
Q4.5 15.625 4.95312 18.3281
Q5.42188 21.0469 5.42188 21.6875
L15.0938 60.5
Q15.4844 62.2031 15.5781 63.1875
Q15.5781 64.7969 9.07812 64.7969
Q8.10938 64.7969 8.10938 66.1094
Q8.15625 66.3594 8.32812 66.9844
Q8.5 67.625 8.76562 67.9688
Q9.03125 68.3125 9.51562 68.3125
L23 69.3906
Q24.2188 69.3906 24.2188 68.1094
L16.7969 38.625
Q22.4688 44.1875 28.2188 44.1875
Q32.4688 44.1875 35.5156 41.9375
Q38.5781 39.7031 40.0938 36.0312
Q41.6094 32.375 41.6094 28.2188
Q41.6094 23.3906 39.7188 18.2344
Q37.8438 13.0938 34.5156 8.67188
Q31.2031 4.25 26.75 1.5625
Q22.3125 -1.125 17.2812 -1.125
M17.4844 1.51562
Q20.9062 1.51562 23.875 4.375
Q26.8594 7.23438 28.7188 10.7969
Q30.7188 14.7969 32.4531 21.6562
Q34.1875 28.5156 34.1875 32.625
Q34.1875 36.1875 32.6875 38.8906
Q31.2031 41.6094 27.9844 41.6094
Q24.3594 41.6094 21.0625 38.9375
Q17.7812 36.2812 15.2812 32.625
L12.5 21.2969
Q10.8906 14.9844 10.7969 11.1875
Q10.7969 7.42188 12.4219 4.46875
Q14.0625 1.51562 17.4844 1.51562" id="Cmmi10-62"/>
      </defs>
      <g transform="translate(111.773311966 212.31238669)scale(0.18 -0.18)">
       <use transform="translate(0.0 0.609375)" xlink:href="#Cmmi10-62"/>
      </g>
     </g>
    </g>
    <g id="xtick_3">
     <g id="line2d_8">
      <g>
       <use style="stroke:#000000;stroke-width:0.5;" x="188.284764957" xlink:href="#m93b0483c22" y="194.63519919"/>
      </g>
     </g>
     <g id="text_3">
      <!-- $c$ -->
      <defs>
       <path d="
M11.7188 11.9219
Q11.7188 7.5625 13.9375 4.53125
Q16.1562 1.51562 20.3125 1.51562
Q26.2656 1.51562 31.75 4.25
Q37.25 6.98438 40.7188 11.8125
Q41.0156 12.1094 41.5 12.1094
Q42 12.1094 42.5 11.5469
Q43.0156 10.9844 43.0156 10.5
Q43.0156 10.1094 42.8281 9.90625
Q39.1562 4.78125 32.9531 1.82812
Q26.7656 -1.125 20.125 -1.125
Q15.3281 -1.125 11.6719 1.14062
Q8.01562 3.42188 6 7.21875
Q4 11.0312 4 15.8281
Q4 22.5625 7.76562 29.2031
Q11.5312 35.8438 17.7812 40.0156
Q24.0312 44.1875 30.9062 44.1875
Q35.4062 44.1875 38.9844 42.0156
Q42.5781 39.8438 42.5781 35.5938
Q42.5781 32.8594 40.9844 30.9219
Q39.4062 29 36.7188 29
Q35.1094 29 34 30
Q32.9062 31 32.9062 32.625
Q32.9062 34.9688 34.6094 36.625
Q36.3281 38.2812 38.625 38.2812
L38.8125 38.2812
Q37.6406 39.9844 35.4219 40.7969
Q33.2031 41.6094 30.8125 41.6094
Q24.9531 41.6094 20.5469 36.5938
Q16.1562 31.5938 13.9375 24.625
Q11.7188 17.6719 11.7188 11.9219" id="Cmmi10-63"/>
      </defs>
      <g transform="translate(184.324764957 212.31238669)scale(0.18 -0.18)">
       <use transform="translate(0.0 0.8125)" xlink:href="#Cmmi10-63"/>
      </g>
     </g>
    </g>
    <g id="text_4">
     <!-- $x$ -->
     <defs>
      <path d="
M7.8125 2.875
Q9.57812 1.51562 12.7969 1.51562
Q15.9219 1.51562 18.3125 4.51562
Q20.7031 7.51562 21.5781 11.0781
L26.125 28.8125
Q27.2031 33.6406 27.2031 35.4062
Q27.2031 37.8906 25.8125 39.75
Q24.4219 41.6094 21.9219 41.6094
Q18.75 41.6094 15.9688 39.625
Q13.1875 37.6406 11.2812 34.5938
Q9.375 31.5469 8.59375 28.4219
Q8.40625 27.7812 7.8125 27.7812
L6.59375 27.7812
Q5.8125 27.7812 5.8125 28.7188
L5.8125 29
Q6.78125 32.7188 9.125 36.25
Q11.4688 39.7969 14.8594 41.9844
Q18.2656 44.1875 22.125 44.1875
Q25.7812 44.1875 28.7344 42.2344
Q31.6875 40.2812 32.9062 36.9219
Q34.625 39.9844 37.2812 42.0781
Q39.9375 44.1875 43.1094 44.1875
Q45.2656 44.1875 47.5 43.4219
Q49.75 42.6719 51.1719 41.1094
Q52.5938 39.5469 52.5938 37.2031
Q52.5938 34.6719 50.9531 32.8281
Q49.3125 31 46.7812 31
Q45.1719 31 44.0938 32.0312
Q43.0156 33.0625 43.0156 34.625
Q43.0156 36.7188 44.4531 38.2969
Q45.9062 39.8906 47.9062 40.1875
Q46.0938 41.6094 42.9219 41.6094
Q39.7031 41.6094 37.3281 38.625
Q34.9688 35.6406 33.9844 31.9844
L29.5938 14.3125
Q28.5156 10.2969 28.5156 7.71875
Q28.5156 5.17188 29.9531 3.34375
Q31.3906 1.51562 33.7969 1.51562
Q38.4844 1.51562 42.1562 5.64062
Q45.8438 9.76562 47.0156 14.7031
Q47.2188 15.2812 47.7969 15.2812
L49.0312 15.2812
Q49.4219 15.2812 49.6562 15.0156
Q49.9062 14.75 49.9062 14.4062
Q49.9062 14.3125 49.8125 14.1094
Q48.3906 8.15625 43.8438 3.51562
Q39.3125 -1.125 33.5938 -1.125
Q29.9375 -1.125 26.9844 0.84375
Q24.0312 2.82812 22.7969 6.20312
Q21.2344 3.26562 18.4688 1.0625
Q15.7188 -1.125 12.5938 -1.125
Q10.4531 -1.125 8.17188 -0.359375
Q5.90625 0.390625 4.48438 1.95312
Q3.07812 3.51562 3.07812 5.90625
Q3.07812 8.25 4.70312 10.1719
Q6.34375 12.1094 8.79688 12.1094
Q10.4531 12.1094 11.5781 11.1094
Q12.7031 10.1094 12.7031 8.5
Q12.7031 6.39062 11.2969 4.82812
Q9.90625 3.26562 7.8125 2.875" id="Cmmi10-78"/>
     </defs>
     <g transform="translate(258.03 194.63519919)scale(0.18 -0.18)">
      <use transform="translate(0.0 0.8125)" xlink:href="#Cmmi10-78"/>
     </g>
    </g>
   </g>
   <g id="matplotlib.axis_2">
    <g id="text_5">
     <!-- $y$ -->
     <defs>
      <path d="
M8.40625 -14.3125
Q10.5 -17.9219 15.7188 -17.9219
Q20.4531 -17.9219 23.9219 -14.5938
Q27.3906 -11.2812 29.5156 -6.5625
Q31.6406 -1.85938 32.8125 3.07812
Q28.375 -1.125 23.1875 -1.125
Q19.2344 -1.125 16.4531 0.234375
Q13.6719 1.60938 12.125 4.3125
Q10.5938 7.03125 10.5938 10.8906
Q10.5938 14.1562 11.4688 17.5938
Q12.3594 21.0469 13.9375 25.2656
Q15.5312 29.5 16.7031 32.625
Q18.0156 36.2812 18.0156 38.625
Q18.0156 41.6094 15.8281 41.6094
Q11.8594 41.6094 9.29688 37.5312
Q6.73438 33.4531 5.51562 28.4219
Q5.32812 27.7812 4.6875 27.7812
L3.51562 27.7812
Q2.6875 27.7812 2.6875 28.7188
L2.6875 29
Q4.29688 34.9688 7.60938 39.5781
Q10.9375 44.1875 16.0156 44.1875
Q19.5781 44.1875 22.0469 41.8438
Q24.5156 39.5 24.5156 35.8906
Q24.5156 34.0312 23.6875 31.9844
Q23.25 30.7656 21.6875 26.6562
Q20.125 22.5625 19.2812 19.875
Q18.4531 17.1875 17.9219 14.5938
Q17.3906 12.0156 17.3906 9.42188
Q17.3906 6.10938 18.7969 3.8125
Q20.2188 1.51562 23.2969 1.51562
Q29.5 1.51562 34.4219 9.07812
L42 39.8906
Q42.3281 41.2188 43.5469 42.1562
Q44.7812 43.1094 46.1875 43.1094
Q47.4062 43.1094 48.3125 42.3281
Q49.2188 41.5469 49.2188 40.2812
Q49.2188 39.7031 49.125 39.5
L39.2031 -0.296875
Q37.8906 -5.42188 34.375 -10.1094
Q30.8594 -14.7969 25.9062 -17.6562
Q20.9531 -20.5156 15.5781 -20.5156
Q12.9844 -20.5156 10.4375 -19.5
Q7.90625 -18.5 6.34375 -16.5
Q4.78125 -14.5 4.78125 -11.8125
Q4.78125 -9.07812 6.39062 -7.07812
Q8.01562 -5.07812 10.6875 -5.07812
Q12.3125 -5.07812 13.4062 -6.07812
Q14.5 -7.07812 14.5 -8.6875
Q14.5 -10.9844 12.7812 -12.6875
Q11.0781 -14.4062 8.79688 -14.4062
Q8.6875 -14.3594 8.59375 -14.3281
Q8.5 -14.3125 8.40625 -14.3125" id="Cmmi10-79"/>
     </defs>
     <g transform="translate(59.2565598291 20.840625)scale(0.18 -0.18)">
      <use transform="translate(0.0 0.8125)" xlink:href="#Cmmi10-79"/>
     </g>
    </g>
   </g>
   <g id="patch_5">
    <path d="
M7.2 194.635
L250.03 194.635" style="fill:none;stroke:#000000;stroke-width:0.8;"/>
   </g>
   <g id="patch_6">
    <path d="
M63.7566 269.601
L63.7566 32.6206" style="fill:none;stroke:#000000;stroke-width:0.8;"/>
   </g>
   <g id="text_6">
    <!-- $A_1$ -->
    <defs>
     <path d="
M9.28125 0
L9.28125 3.51562
Q21.7812 3.51562 21.7812 6.6875
L21.7812 59.1875
Q16.6094 56.6875 8.6875 56.6875
L8.6875 60.2031
Q20.9531 60.2031 27.2031 66.6094
L28.6094 66.6094
Q28.9531 66.6094 29.2656 66.3281
Q29.5938 66.0625 29.5938 65.7188
L29.5938 6.6875
Q29.5938 3.51562 42.0938 3.51562
L42.0938 0
z
" id="Cmr10-31"/>
     <path d="
M4.5 0
Q3.51562 0 3.51562 1.3125
Q3.90625 3.51562 4.78125 3.51562
Q8.84375 3.51562 11.7969 5.125
Q14.75 6.73438 16.8906 10.1094
Q17.0938 10.2969 17.0938 10.2969
L52.7812 70.5156
Q53.5625 71.5781 54.6875 71.5781
L56 71.5781
Q56.2969 71.5781 56.5938 71.4531
Q56.8906 71.3438 57.1094 71.0625
Q57.3281 70.7969 57.3281 70.5156
L63.375 5.90625
Q63.375 5.46875 63.8125 4.59375
Q64.7969 3.51562 71.2969 3.51562
Q72.3125 3.51562 72.3125 2.20312
Q71.9688 0.875 71.75 0.4375
Q71.5312 0 70.6094 0
L45.6094 0
Q44.6719 0 44.6719 1.3125
Q45.2188 3.51562 46 3.51562
Q53.9062 3.51562 54.3906 6.20312
L52.875 22.7031
L28.2188 22.7031
L20.2188 9.28125
Q19.4844 8.20312 19.4844 6.78125
Q19.4844 5.03125 21.1719 4.26562
Q22.8594 3.51562 24.9062 3.51562
Q25.875 3.51562 25.875 2.20312
Q25.5312 0.78125 25.3281 0.390625
Q25.1406 0 24.2188 0
z

M30.1719 26.2188
L52.4844 26.2188
L49.5156 58.5938
z
" id="Cmmi10-41"/>
    </defs>
    <g transform="translate(83.6386111111 177.78089699)scale(0.18 -0.18)">
     <use transform="translate(0.0 0.421875)" xlink:href="#Cmmi10-41"/>
     <use transform="translate(75.0 -25.0875)scale(0.7)" xlink:href="#Cmr10-31"/>
    </g>
   </g>
   <g id="text_7">
    <!-- $A_2$ -->
    <defs>
     <path d="
M4.98438 0
L4.98438 2.6875
Q4.98438 2.9375 5.17188 3.21875
L20.7031 20.4062
Q24.2188 24.2188 26.4062 26.7969
Q28.6094 29.3906 30.75 32.7656
Q32.9062 36.1406 34.1562 39.625
Q35.4062 43.1094 35.4062 47.0156
Q35.4062 51.125 33.8906 54.8594
Q32.375 58.5938 29.375 60.8438
Q26.375 63.0938 22.125 63.0938
Q17.7812 63.0938 14.3125 60.4688
Q10.8438 57.8594 9.42188 53.7188
Q9.8125 53.8125 10.5 53.8125
Q12.75 53.8125 14.3281 52.2969
Q15.9219 50.7812 15.9219 48.3906
Q15.9219 46.0938 14.3281 44.5
Q12.75 42.9219 10.5 42.9219
Q8.15625 42.9219 6.5625 44.5469
Q4.98438 46.1875 4.98438 48.3906
Q4.98438 52.1562 6.39062 55.4375
Q7.8125 58.7344 10.4688 61.2969
Q13.1406 63.875 16.4844 65.2344
Q19.8281 66.6094 23.5781 66.6094
Q29.2969 66.6094 34.2188 64.1875
Q39.1562 61.7656 42.0312 57.3438
Q44.9219 52.9375 44.9219 47.0156
Q44.9219 42.6719 43.0156 38.7656
Q41.1094 34.8594 38.125 31.6562
Q35.1562 28.4688 30.5156 24.4062
Q25.875 20.3594 24.4219 19
L13.0938 8.10938
L22.7031 8.10938
Q29.7812 8.10938 34.5469 8.21875
Q39.3125 8.34375 39.5938 8.59375
Q40.7656 9.85938 42 17.8281
L44.9219 17.8281
L42.0938 0
z
" id="Cmr10-32"/>
    </defs>
    <g transform="translate(140.714038462 177.78089699)scale(0.18 -0.18)">
     <use transform="translate(0.0 0.421875)" xlink:href="#Cmmi10-41"/>
     <use transform="translate(75.0 -25.0875)scale(0.7)" xlink:href="#Cmr10-32"/>
    </g>
   </g>
   <g id="text_8">
    <!-- $y=f(x)$ -->
    <defs>
     <path d="
M31 -24.8125
Q25.4375 -20.4062 21.4062 -14.7188
Q17.3906 -9.03125 14.8125 -2.57812
Q12.25 3.85938 10.9844 10.8906
Q9.71875 17.9219 9.71875 25
Q9.71875 32.1719 10.9844 39.2031
Q12.25 46.2344 14.8594 52.7344
Q17.4844 59.2344 21.5312 64.8906
Q25.5938 70.5625 31 74.8125
Q31 75 31.5 75
L32.4219 75
Q32.7188 75 32.9531 74.7344
Q33.2031 74.4688 33.2031 74.125
Q33.2031 73.6875 33.0156 73.4844
Q28.125 68.7031 24.875 63.2344
Q21.625 57.7656 19.6406 51.5781
Q17.6719 45.4062 16.7969 38.7812
Q15.9219 32.1719 15.9219 25
Q15.9219 -6.78125 32.9062 -23.2969
Q33.2031 -23.5781 33.2031 -24.125
Q33.2031 -24.3594 32.9375 -24.6719
Q32.6719 -25 32.4219 -25
L31.5 -25
Q31 -25 31 -24.8125" id="Cmr10-28"/>
     <path d="
M6.5 -25
Q5.60938 -25 5.60938 -24.125
Q5.60938 -23.6875 5.8125 -23.4844
Q22.9062 -6.78125 22.9062 25
Q22.9062 56.7812 6 73.2969
Q5.60938 73.5312 5.60938 74.125
Q5.60938 74.4688 5.875 74.7344
Q6.15625 75 6.5 75
L7.42188 75
Q7.71875 75 7.90625 74.8125
Q15.0938 69.1406 19.875 61.0312
Q24.6562 52.9375 26.875 43.75
Q29.1094 34.5781 29.1094 25
Q29.1094 17.9219 27.9062 11.0625
Q26.7031 4.20312 24.0938 -2.45312
Q21.4844 -9.125 17.4844 -14.7656
Q13.4844 -20.4062 7.90625 -24.8125
Q7.71875 -25 7.42188 -25
z
" id="Cmr10-29"/>
     <path d="
M9.71875 -16.5
Q11.5781 -17.9219 14.2031 -17.9219
Q17.7812 -17.9219 20.0156 -10.0156
Q20.9531 -6.20312 25.0938 15.0938
L29.6875 39.5938
L21.0938 39.5938
Q20.125 39.5938 20.125 40.9219
Q20.5156 43.1094 21.3906 43.1094
L30.3281 43.1094
L31.5 49.6094
Q32.0781 52.6406 32.5625 54.8125
Q33.0625 56.9844 33.625 58.8281
Q34.1875 60.6875 35.2969 62.9844
Q37.0156 66.2656 39.9219 68.3906
Q42.8281 70.5156 46.1875 70.5156
Q48.3906 70.5156 50.4688 69.7031
Q52.5469 68.8906 53.8594 67.2812
Q55.1719 65.6719 55.1719 63.4844
Q55.1719 60.9375 53.4844 59.0469
Q51.8125 57.1719 49.4219 57.1719
Q47.7969 57.1719 46.6562 58.1719
Q45.5156 59.1875 45.5156 60.7969
Q45.5156 62.9844 47 64.625
Q48.4844 66.2656 50.6875 66.5
Q48.8281 67.9219 46.0938 67.9219
Q44.5781 67.9219 43.2344 66.5
Q41.8906 65.0938 41.5 63.4844
Q40.875 60.9375 38.7188 49.7031
L37.5 43.1094
L47.7969 43.1094
Q48.7812 43.1094 48.7812 41.7969
Q48.7344 41.5469 48.5781 40.9375
Q48.4375 40.3281 48.1719 39.9531
Q47.9062 39.5938 47.5156 39.5938
L36.8125 39.5938
L32.1719 15.1875
Q31.2969 9.85938 30.1406 4.35938
Q29 -1.125 26.9219 -6.90625
Q24.8594 -12.7031 21.625 -16.6094
Q18.4062 -20.5156 14.0156 -20.5156
Q10.6406 -20.5156 7.98438 -18.5781
Q5.32812 -16.6562 5.32812 -13.4844
Q5.32812 -10.9375 6.95312 -9.04688
Q8.59375 -7.17188 11.0781 -7.17188
Q12.75 -7.17188 13.8594 -8.17188
Q14.9844 -9.1875 14.9844 -10.7969
Q14.9844 -12.9375 13.3906 -14.7188
Q11.8125 -16.5 9.71875 -16.5" id="Cmmi10-66"/>
     <path d="
M7.51562 13.2812
Q6.6875 13.2812 6.14062 13.9062
Q5.60938 14.5469 5.60938 15.2812
Q5.60938 16.1094 6.14062 16.6875
Q6.6875 17.2812 7.51562 17.2812
L70.3125 17.2812
Q71.0469 17.2812 71.5781 16.6875
Q72.125 16.1094 72.125 15.2812
Q72.125 14.5469 71.5781 13.9062
Q71.0469 13.2812 70.3125 13.2812
z

M7.51562 32.7188
Q6.6875 32.7188 6.14062 33.2969
Q5.60938 33.8906 5.60938 34.7188
Q5.60938 35.4531 6.14062 36.0781
Q6.6875 36.7188 7.51562 36.7188
L70.3125 36.7188
Q71.0469 36.7188 71.5781 36.0781
Q72.125 35.4531 72.125 34.7188
Q72.125 33.8906 71.5781 33.2969
Q71.0469 32.7188 70.3125 32.7188
z
" id="Cmr10-3d"/>
    </defs>
    <g transform="translate(75.1159615385 83.6665370916)scale(0.18 -0.18)">
     <use xlink:href="#Cmmi10-79"/>
     <use transform="translate(66.58203125 0.0)" xlink:href="#Cmr10-3d"/>
     <use transform="translate(150.640625 0.0)" xlink:href="#Cmmi10-66"/>
     <use transform="translate(199.517578125 0.0)" xlink:href="#Cmr10-28"/>
     <use transform="translate(238.3359375 0.0)" xlink:href="#Cmmi10-78"/>
     <use transform="translate(295.416015625 0.0)" xlink:href="#Cmr10-29"/>
    </g>
   </g>
   <g id="line2d_9">
    <path clip-path="url(#pfbe49a6bba)" d="
M74.1339 194.635
L74.1339 163.699" style="fill:none;stroke:#000000;stroke-linecap:square;stroke-width:1.5;"/>
   </g>
   <g id="line2d_10">
    <path clip-path="url(#pfbe49a6bba)" d="
M37.8132 265.043
L40.6422 258.833
L43.6569 251.683
L47.394 242.138
L51.463 231.021
L56.1992 217.354
L64.3797 192.744
L72.4353 168.624
L77.0922 155.339
L81.1579 144.409
L84.4564 136.123
L88.0453 127.798
L90.62 122.319
L93.5584 116.61
L95.9515 112.412
L98.3252 108.665
L100.774 105.247
L103.037 102.5
L105.413 100.044
L107.205 98.4825
L108.845 97.272
L110.286 96.3788
L111.937 95.5498
L114.051 94.7852
L115.846 94.3913
L117.772 94.2217
L120.023 94.3422
L121.624 94.6277
L123.868 95.292
L126.287 96.33
L128.752 97.7007
L130.628 98.9345
L133.235 100.889
L136.65 103.8
L140.357 107.29
L147.654 114.606
L151.006 117.908
L155.21 121.765
L158.429 124.382
L161.225 126.34
L163.972 127.921
L165.815 128.767
L168.085 129.548
L169.825 129.939
L171.556 130.138
L173.559 130.12
L175.63 129.809
L176.965 129.447
L178.684 128.787
L180.189 128.028
L181.559 127.187
L183.824 125.481
L185.777 123.69
L187.498 121.865
L189.621 119.297
L191.803 116.295
L193.949 112.989
L196.003 109.504
L198.476 104.905
L201.107 99.549
L203.837 93.5144
L206.594 86.9653
L210.145 77.9248
L214.307 66.5908
L218.753 53.8005
L225.564 33.386
L235.496 3.57774
L237.077 -1
L237.077 -1" style="fill:none;stroke:#0000ff;stroke-linecap:square;stroke-width:2.0;"/>
   </g>
  </g>
 </g>
 <defs>
  <clipPath id="pfbe49a6bba">
   <rect height="236.98" width="242.83" x="7.2" y="32.620625"/>
  </clipPath>
 </defs>
</svg>
