<?xml version="1.0" encoding="utf-8" standalone="no"?>
<!DOCTYPE svg PUBLIC "-//W3C//DTD SVG 1.1//EN"
  "http://www.w3.org/Graphics/SVG/1.1/DTD/svg11.dtd">
<!-- Created with matplotlib (http://matplotlib.org/) -->
<svg height="277pt" version="1.1" viewBox="0 0 275 277" width="275pt" xmlns="http://www.w3.org/2000/svg" xmlns:xlink="http://www.w3.org/1999/xlink">
 <defs>
  <style type="text/css">
*{stroke-linecap:butt;stroke-linejoin:round;}
  </style>
 </defs>
 <g id="figure_1">
  <g id="patch_1">
   <path d="
M0 277.315
L275.67 277.315
L275.67 0
L0 0
z
" style="fill:#ffffff;"/>
  </g>
  <g id="axes_1">
   <g id="patch_2">
    <path d="
M7.2 252.931
L250.03 252.931
L250.03 32.6206
L7.2 32.6206
z
" style="fill:#ffffff;"/>
   </g>
   <g id="patch_3">
    <path clip-path="url(#p9ce254f00c)" d="
M52.7306 248.695
L52.7306 172.184
L53.7973 171.3
L54.0767 171.07
L55.0808 170.255
L55.7674 169.707
L56.2645 169.313
L57.5317 168.329
L58.2095 167.813
L58.747 167.41
L59.4395 166.898
L60.3808 166.216
L61.0795 165.721
L61.8737 165.17
L62.9036 164.474
L63.3791 164.16
L64.1474 163.664
L65.0402 163.103
L65.5376 162.799
L66.5256 162.211
L67.2648 161.787
L68.332 161.197
L69.1158 160.782
L69.5823 160.543
L70.4353 160.12
L71.1172 159.795
L71.7087 159.523
L72.4322 159.204
L73.2786 158.848
L73.7842 158.646
L75.0129 158.183
L75.741 157.928
L76.5129 157.676
L77.2657 157.446
L78.2053 157.183
L78.6646 157.063
L79.6479 156.829
L80.3717 156.676
L81.2007 156.519
L81.4546 156.476
L82.645 156.297
L83.278 156.22
L84.3055 156.121
L84.7704 156.086
L85.8039 156.035
L86.5691 156.018
L87.0727 156.016
L87.523 156.022
L88.3646 156.049
L89.559 156.126
L89.8983 156.155
L90.9437 156.269
L91.5223 156.347
L92.2864 156.465
L93.3717 156.664
L93.9738 156.789
L94.6954 156.954
L95.3973 157.13
L96.2783 157.371
L97.1614 157.635
L97.6993 157.807
L98.6658 158.138
L98.8866 158.217
L99.8849 158.593
L100.409 158.801
L101.553 159.283
L102.437 159.679
L103.409 160.139
L103.909 160.386
L104.784 160.832
L105.507 161.216
L106.098 161.539
L107.247 162.193
L107.506 162.345
L108.67 163.046
L109.329 163.457
L109.843 163.784
L110.496 164.207
L111.431 164.83
L111.982 165.205
L112.854 165.812
L113.659 166.385
L114.601 167.072
L115.462 167.714
L115.87 168.023
L116.569 168.557
L117.58 169.345
L118.475 170.057
L118.722 170.255
L120.099 171.376
L120.611 171.799
L121.499 172.541
L121.77 172.769
L123.004 173.819
L123.642 174.368
L124.637 175.231
L125.226 175.746
L125.953 176.387
L126.387 176.77
L127.114 177.416
L128.571 178.719
L128.695 178.831
L129.411 179.474
L130.158 180.149
L130.937 180.854
L131.9 181.727
L132.913 182.646
L133.693 183.353
L134.501 184.085
L134.989 184.527
L135.799 185.259
L136.801 186.161
L137.757 187.018
L138.33 187.53
L138.879 188.017
L139.49 188.558
L140.556 189.495
L141.049 189.926
L142.338 191.041
L142.929 191.547
L143.819 192.301
L144.172 192.598
L144.683 193.025
L146.016 194.123
L146.279 194.337
L147.617 195.41
L147.727 195.497
L148.955 196.455
L149.221 196.66
L150.16 197.372
L150.833 197.874
L151.824 198.596
L152.756 199.259
L153.635 199.869
L153.795 199.979
L154.584 200.51
L155.874 201.349
L156.322 201.633
L157.029 202.071
L158.13 202.729
L159.118 203.295
L159.784 203.664
L160.161 203.868
L161.378 204.501
L161.653 204.639
L162.526 205.063
L163.6 205.557
L164.022 205.743
L164.798 206.072
L165.633 206.407
L166.385 206.692
L167.318 207.023
L167.53 207.096
L168.254 207.331
L168.978 207.551
L169.41 207.675
L170.141 207.873
L171.098 208.107
L171.664 208.232
L172.844 208.463
L173.06 208.501
L174.294 208.688
L174.693 208.739
L175.833 208.857
L176.165 208.884
L177.154 208.943
L177.939 208.968
L178.839 208.974
L179.223 208.969
L179.878 208.95
L181.004 208.885
L181.574 208.837
L182.566 208.73
L182.903 208.687
L183.866 208.544
L184.62 208.413
L185.777 208.177
L185.952 208.138
L187.123 207.852
L187.77 207.677
L188.832 207.362
L188.874 207.349
L189.936 207
L190.815 206.687
L191.285 206.511
L192.487 206.031
L193.092 205.775
L193.638 205.534
L194.781 205.006
L195.569 204.621
L195.867 204.471
L197.246 203.749
L197.528 203.595
L198.466 203.07
L199.183 202.655
L199.678 202.361
L200.46 201.884
L201.297 201.359
L202.024 200.891
L203.337 200.015
L203.447 199.94
L204.499 199.211
L204.499 248.695
z
" style="fill:#0000ff;opacity:0.5;"/>
   </g>
   <g id="patch_4">
    <path clip-path="url(#p9ce254f00c)" d="
M99.4287 248.695
L99.4287 158.418
L134.452 158.418
L134.452 248.695
z
" style="fill:#90ee90;"/>
   </g>
   <g id="patch_5">
    <path clip-path="url(#p9ce254f00c)" d="
M99.4287 248.695
L99.4287 158.418
L134.452 158.418
L134.452 248.695
z
" style="fill:none;stroke:#000000;"/>
   </g>
   <g id="line2d_1">
    <path clip-path="url(#p9ce254f00c)" d="
M11.8698 248.695
L245.36 248.695
L245.36 248.695" style="fill:none;"/>
   </g>
   <g id="line2d_2">
    <path clip-path="url(#p9ce254f00c)" d="
M52.7306 172.184
L57.5317 168.329
L61.0795 165.721
L65.0402 163.103
L68.332 161.197
L71.7087 159.523
L75.0129 158.183
L78.2053 157.183
L81.2007 156.519
L83.278 156.22
L85.8039 156.035
L88.3646 156.049
L91.5223 156.347
L93.9738 156.789
L96.2783 157.371
L98.8866 158.217
L101.553 159.283
L104.784 160.832
L107.506 162.345
L111.431 164.83
L114.601 167.072
L118.722 170.255
L123.642 174.368
L130.158 180.149
L142.338 191.041
L146.279 194.337
L150.833 197.874
L154.584 200.51
L158.13 202.729
L161.653 204.639
L164.798 206.072
L167.53 207.096
L170.141 207.873
L173.06 208.501
L176.165 208.884
L179.223 208.969
L181.574 208.837
L184.62 208.413
L187.77 207.677
L190.815 206.687
L193.638 205.534
L197.246 203.749
L200.46 201.884
L203.447 199.94
L204.499 199.211
L204.499 199.211" style="fill:none;stroke:#0000ff;stroke-linecap:square;"/>
   </g>
   <g id="line2d_3">
    <path clip-path="url(#p9ce254f00c)" d="
M204.499 248.695
L204.499 199.211" style="fill:none;stroke:#000000;stroke-linecap:square;stroke-width:1.5;"/>
   </g>
   <g id="matplotlib.axis_1">
    <g id="xtick_1">
     <g id="line2d_4">
      <defs>
       <path d="
M0 0
L0 -4" id="m93b0483c22" style="stroke:#000000;stroke-width:0.5;"/>
      </defs>
      <g>
       <use style="stroke:#000000;stroke-width:0.5;" x="52.730625" xlink:href="#m93b0483c22" y="248.694648669"/>
      </g>
     </g>
     <g id="text_1">
      <!-- $a$ -->
      <defs>
       <path d="
M17.3906 -1.125
Q11.0781 -1.125 7.4375 3.64062
Q3.8125 8.40625 3.8125 14.8906
Q3.8125 21.2969 7.125 28.1719
Q10.4531 35.0625 16.0938 39.625
Q21.7344 44.1875 28.2188 44.1875
Q31.2031 44.1875 33.5469 42.5781
Q35.8906 40.9688 37.2031 38.1875
Q38.3281 42.1875 41.6094 42.1875
Q42.875 42.1875 43.7188 41.4219
Q44.5781 40.6719 44.5781 39.4062
Q44.5781 39.1094 44.5469 38.9531
Q44.5312 38.8125 44.4844 38.625
L37.5 10.6875
Q36.8125 7.71875 36.8125 5.8125
Q36.8125 1.51562 39.7031 1.51562
Q42.8281 1.51562 44.4531 5.48438
Q46.0938 9.46875 47.2188 14.7031
Q47.4062 15.2812 48 15.2812
L49.2188 15.2812
Q49.6094 15.2812 49.8438 14.9375
Q50.0938 14.5938 50.0938 14.3125
Q48.3438 7.32812 46.2656 3.09375
Q44.1875 -1.125 39.5 -1.125
Q36.1406 -1.125 33.5469 0.84375
Q30.9531 2.82812 30.3281 6.10938
Q23.875 -1.125 17.3906 -1.125
M17.4844 1.51562
Q21.0938 1.51562 24.4844 4.21875
Q27.875 6.9375 30.3281 10.5938
Q30.4219 10.6875 30.4219 10.8906
L35.7969 32.625
L35.8906 32.9062
Q35.2969 36.4688 33.3125 39.0312
Q31.3438 41.6094 27.9844 41.6094
Q24.6094 41.6094 21.7031 38.8438
Q18.7969 36.0781 16.7969 32.3281
Q14.8438 28.3281 13.0625 21.3438
Q11.2812 14.3594 11.2812 10.5
Q11.2812 7.03125 12.7656 4.26562
Q14.2656 1.51562 17.4844 1.51562" id="Cmmi10-61"/>
      </defs>
      <g transform="translate(47.960625 266.371836169)scale(0.18 -0.18)">
       <use transform="translate(0.0 0.8125)" xlink:href="#Cmmi10-61"/>
      </g>
     </g>
    </g>
    <g id="xtick_2">
     <g id="line2d_5">
      <g>
       <use style="stroke:#000000;stroke-width:0.5;" x="99.4287019231" xlink:href="#m93b0483c22" y="248.694648669"/>
      </g>
     </g>
     <g id="text_2">
      <!-- $x_i$ -->
      <defs>
       <path d="
M7.8125 7.17188
Q7.8125 9.03125 8.59375 11.0781
L16.7031 32.625
Q18.0156 36.2812 18.0156 38.625
Q18.0156 41.6094 15.8281 41.6094
Q11.8594 41.6094 9.29688 37.5312
Q6.73438 33.4531 5.51562 28.4219
Q5.32812 27.7812 4.6875 27.7812
L3.51562 27.7812
Q2.6875 27.7812 2.6875 28.7188
L2.6875 29
Q4.29688 34.9688 7.60938 39.5781
Q10.9375 44.1875 16.0156 44.1875
Q19.5781 44.1875 22.0469 41.8438
Q24.5156 39.5 24.5156 35.8906
Q24.5156 34.0312 23.6875 31.9844
L15.5781 10.5
Q14.2031 7.17188 14.2031 4.5
Q14.2031 1.51562 16.5 1.51562
Q20.4062 1.51562 23.0156 5.6875
Q25.6406 9.85938 26.7031 14.7031
Q26.9062 15.2812 27.4844 15.2812
L28.7188 15.2812
Q29.1094 15.2812 29.3438 15.0156
Q29.5938 14.75 29.5938 14.4062
Q29.5938 14.3125 29.5 14.1094
Q28.125 8.45312 24.7344 3.65625
Q21.3438 -1.125 16.3125 -1.125
Q12.7969 -1.125 10.2969 1.29688
Q7.8125 3.71875 7.8125 7.17188
M19.0938 60.5938
Q19.0938 62.7031 20.8438 64.4062
Q22.6094 66.1094 24.7031 66.1094
Q26.4219 66.1094 27.5156 65.0625
Q28.6094 64.0156 28.6094 62.4062
Q28.6094 60.1562 26.8281 58.4688
Q25.0469 56.7812 22.9062 56.7812
Q21.2969 56.7812 20.1875 57.875
Q19.0938 58.9844 19.0938 60.5938" id="Cmmi10-69"/>
       <path d="
M7.8125 2.875
Q9.57812 1.51562 12.7969 1.51562
Q15.9219 1.51562 18.3125 4.51562
Q20.7031 7.51562 21.5781 11.0781
L26.125 28.8125
Q27.2031 33.6406 27.2031 35.4062
Q27.2031 37.8906 25.8125 39.75
Q24.4219 41.6094 21.9219 41.6094
Q18.75 41.6094 15.9688 39.625
Q13.1875 37.6406 11.2812 34.5938
Q9.375 31.5469 8.59375 28.4219
Q8.40625 27.7812 7.8125 27.7812
L6.59375 27.7812
Q5.8125 27.7812 5.8125 28.7188
L5.8125 29
Q6.78125 32.7188 9.125 36.25
Q11.4688 39.7969 14.8594 41.9844
Q18.2656 44.1875 22.125 44.1875
Q25.7812 44.1875 28.7344 42.2344
Q31.6875 40.2812 32.9062 36.9219
Q34.625 39.9844 37.2812 42.0781
Q39.9375 44.1875 43.1094 44.1875
Q45.2656 44.1875 47.5 43.4219
Q49.75 42.6719 51.1719 41.1094
Q52.5938 39.5469 52.5938 37.2031
Q52.5938 34.6719 50.9531 32.8281
Q49.3125 31 46.7812 31
Q45.1719 31 44.0938 32.0312
Q43.0156 33.0625 43.0156 34.625
Q43.0156 36.7188 44.4531 38.2969
Q45.9062 39.8906 47.9062 40.1875
Q46.0938 41.6094 42.9219 41.6094
Q39.7031 41.6094 37.3281 38.625
Q34.9688 35.6406 33.9844 31.9844
L29.5938 14.3125
Q28.5156 10.2969 28.5156 7.71875
Q28.5156 5.17188 29.9531 3.34375
Q31.3906 1.51562 33.7969 1.51562
Q38.4844 1.51562 42.1562 5.64062
Q45.8438 9.76562 47.0156 14.7031
Q47.2188 15.2812 47.7969 15.2812
L49.0312 15.2812
Q49.4219 15.2812 49.6562 15.0156
Q49.9062 14.75 49.9062 14.4062
Q49.9062 14.3125 49.8125 14.1094
Q48.3906 8.15625 43.8438 3.51562
Q39.3125 -1.125 33.5938 -1.125
Q29.9375 -1.125 26.9844 0.84375
Q24.0312 2.82812 22.7969 6.20312
Q21.2344 3.26562 18.4688 1.0625
Q15.7188 -1.125 12.5938 -1.125
Q10.4531 -1.125 8.17188 -0.359375
Q5.90625 0.390625 4.48438 1.95312
Q3.07812 3.51562 3.07812 5.90625
Q3.07812 8.25 4.70312 10.1719
Q6.34375 12.1094 8.79688 12.1094
Q10.4531 12.1094 11.5781 11.1094
Q12.7031 10.1094 12.7031 8.5
Q12.7031 6.39062 11.2969 4.82812
Q9.90625 3.26562 7.8125 2.875" id="Cmmi10-78"/>
      </defs>
      <g transform="translate(91.1487019231 265.255273669)scale(0.18 -0.18)">
       <use transform="translate(0.0 0.8125)" xlink:href="#Cmmi10-78"/>
       <use transform="translate(57.080078125 -24.696875)scale(0.7)" xlink:href="#Cmmi10-69"/>
      </g>
     </g>
    </g>
    <g id="xtick_3">
     <g id="line2d_6">
      <g>
       <use style="stroke:#000000;stroke-width:0.5;" x="134.452259615" xlink:href="#m93b0483c22" y="248.694648669"/>
      </g>
     </g>
     <g id="text_3">
      <!-- $x_{i+1}$ -->
      <defs>
       <path d="
M7.51562 23
Q6.6875 23 6.14062 23.625
Q5.60938 24.2656 5.60938 25
Q5.60938 25.7344 6.14062 26.3594
Q6.6875 27 7.51562 27
L36.9219 27
L36.9219 56.5
Q36.9219 57.2812 37.5 57.7812
Q38.0938 58.2969 38.9219 58.2969
Q39.6562 58.2969 40.2812 57.7812
Q40.9219 57.2812 40.9219 56.5
L40.9219 27
L70.3125 27
Q71.0469 27 71.5781 26.3594
Q72.125 25.7344 72.125 25
Q72.125 24.2656 71.5781 23.625
Q71.0469 23 70.3125 23
L40.9219 23
L40.9219 -6.5
Q40.9219 -7.28125 40.2812 -7.78125
Q39.6562 -8.29688 38.9219 -8.29688
Q38.0938 -8.29688 37.5 -7.78125
Q36.9219 -7.28125 36.9219 -6.5
L36.9219 23
z
" id="Cmr10-2b"/>
       <path d="
M9.28125 0
L9.28125 3.51562
Q21.7812 3.51562 21.7812 6.6875
L21.7812 59.1875
Q16.6094 56.6875 8.6875 56.6875
L8.6875 60.2031
Q20.9531 60.2031 27.2031 66.6094
L28.6094 66.6094
Q28.9531 66.6094 29.2656 66.3281
Q29.5938 66.0625 29.5938 65.7188
L29.5938 6.6875
Q29.5938 3.51562 42.0938 3.51562
L42.0938 0
z
" id="Cmr10-31"/>
      </defs>
      <g transform="translate(117.532259615 264.355273669)scale(0.18 -0.18)">
       <use transform="translate(0.0 0.8125)" xlink:href="#Cmmi10-78"/>
       <use transform="translate(57.080078125 -24.696875)scale(0.7)" xlink:href="#Cmmi10-69"/>
       <use transform="translate(93.4677734375 -24.696875)scale(0.7)" xlink:href="#Cmr10-2b"/>
       <use transform="translate(152.308789063 -24.696875)scale(0.7)" xlink:href="#Cmr10-31"/>
      </g>
     </g>
    </g>
    <g id="xtick_4">
     <g id="line2d_7">
      <g>
       <use style="stroke:#000000;stroke-width:0.5;" x="204.499375" xlink:href="#m93b0483c22" y="248.694648669"/>
      </g>
     </g>
     <g id="text_4">
      <!-- $b$ -->
      <defs>
       <path d="
M17.2812 -1.125
Q11.2344 -1.125 7.85938 3.60938
Q4.5 8.34375 4.5 14.7031
Q4.5 15.625 4.95312 18.3281
Q5.42188 21.0469 5.42188 21.6875
L15.0938 60.5
Q15.4844 62.2031 15.5781 63.1875
Q15.5781 64.7969 9.07812 64.7969
Q8.10938 64.7969 8.10938 66.1094
Q8.15625 66.3594 8.32812 66.9844
Q8.5 67.625 8.76562 67.9688
Q9.03125 68.3125 9.51562 68.3125
L23 69.3906
Q24.2188 69.3906 24.2188 68.1094
L16.7969 38.625
Q22.4688 44.1875 28.2188 44.1875
Q32.4688 44.1875 35.5156 41.9375
Q38.5781 39.7031 40.0938 36.0312
Q41.6094 32.375 41.6094 28.2188
Q41.6094 23.3906 39.7188 18.2344
Q37.8438 13.0938 34.5156 8.67188
Q31.2031 4.25 26.75 1.5625
Q22.3125 -1.125 17.2812 -1.125
M17.4844 1.51562
Q20.9062 1.51562 23.875 4.375
Q26.8594 7.23438 28.7188 10.7969
Q30.7188 14.7969 32.4531 21.6562
Q34.1875 28.5156 34.1875 32.625
Q34.1875 36.1875 32.6875 38.8906
Q31.2031 41.6094 27.9844 41.6094
Q24.3594 41.6094 21.0625 38.9375
Q17.7812 36.2812 15.2812 32.625
L12.5 21.2969
Q10.8906 14.9844 10.7969 11.1875
Q10.7969 7.42188 12.4219 4.46875
Q14.0625 1.51562 17.4844 1.51562" id="Cmmi10-62"/>
      </defs>
      <g transform="translate(200.629375 266.371836169)scale(0.18 -0.18)">
       <use transform="translate(0.0 0.609375)" xlink:href="#Cmmi10-62"/>
      </g>
     </g>
    </g>
    <g id="text_5">
     <!-- $x$ -->
     <g transform="translate(258.03 248.694648669)scale(0.18 -0.18)">
      <use transform="translate(0.0 0.8125)" xlink:href="#Cmmi10-78"/>
     </g>
    </g>
   </g>
   <g id="matplotlib.axis_2">
    <g id="text_6">
     <!-- $y$ -->
     <defs>
      <path d="
M8.40625 -14.3125
Q10.5 -17.9219 15.7188 -17.9219
Q20.4531 -17.9219 23.9219 -14.5938
Q27.3906 -11.2812 29.5156 -6.5625
Q31.6406 -1.85938 32.8125 3.07812
Q28.375 -1.125 23.1875 -1.125
Q19.2344 -1.125 16.4531 0.234375
Q13.6719 1.60938 12.125 4.3125
Q10.5938 7.03125 10.5938 10.8906
Q10.5938 14.1562 11.4688 17.5938
Q12.3594 21.0469 13.9375 25.2656
Q15.5312 29.5 16.7031 32.625
Q18.0156 36.2812 18.0156 38.625
Q18.0156 41.6094 15.8281 41.6094
Q11.8594 41.6094 9.29688 37.5312
Q6.73438 33.4531 5.51562 28.4219
Q5.32812 27.7812 4.6875 27.7812
L3.51562 27.7812
Q2.6875 27.7812 2.6875 28.7188
L2.6875 29
Q4.29688 34.9688 7.60938 39.5781
Q10.9375 44.1875 16.0156 44.1875
Q19.5781 44.1875 22.0469 41.8438
Q24.5156 39.5 24.5156 35.8906
Q24.5156 34.0312 23.6875 31.9844
Q23.25 30.7656 21.6875 26.6562
Q20.125 22.5625 19.2812 19.875
Q18.4531 17.1875 17.9219 14.5938
Q17.3906 12.0156 17.3906 9.42188
Q17.3906 6.10938 18.7969 3.8125
Q20.2188 1.51562 23.2969 1.51562
Q29.5 1.51562 34.4219 9.07812
L42 39.8906
Q42.3281 41.2188 43.5469 42.1562
Q44.7812 43.1094 46.1875 43.1094
Q47.4062 43.1094 48.3125 42.3281
Q49.2188 41.5469 49.2188 40.2812
Q49.2188 39.7031 49.125 39.5
L39.2031 -0.296875
Q37.8906 -5.42188 34.375 -10.1094
Q30.8594 -14.7969 25.9062 -17.6562
Q20.9531 -20.5156 15.5781 -20.5156
Q12.9844 -20.5156 10.4375 -19.5
Q7.90625 -18.5 6.34375 -16.5
Q4.78125 -14.5 4.78125 -11.8125
Q4.78125 -9.07812 6.39062 -7.07812
Q8.01562 -5.07812 10.6875 -5.07812
Q12.3125 -5.07812 13.4062 -6.07812
Q14.5 -7.07812 14.5 -8.6875
Q14.5 -10.9844 12.7812 -12.6875
Q11.0781 -14.4062 8.79688 -14.4062
Q8.6875 -14.3594 8.59375 -14.3281
Q8.5 -14.3125 8.40625 -14.3125" id="Cmmi10-79"/>
     </defs>
     <g transform="translate(36.5561057692 20.840625)scale(0.18 -0.18)">
      <use transform="translate(0.0 0.8125)" xlink:href="#Cmmi10-79"/>
     </g>
    </g>
   </g>
   <g id="patch_6">
    <path d="
M7.2 248.695
L250.03 248.695" style="fill:none;stroke:#000000;stroke-width:0.8;"/>
   </g>
   <g id="patch_7">
    <path d="
M41.0561 252.931
L41.0561 32.6206" style="fill:none;stroke:#000000;stroke-width:0.8;"/>
   </g>
   <g id="text_7">
    <!-- $A$ -->
    <defs>
     <path d="
M4.5 0
Q3.51562 0 3.51562 1.3125
Q3.90625 3.51562 4.78125 3.51562
Q8.84375 3.51562 11.7969 5.125
Q14.75 6.73438 16.8906 10.1094
Q17.0938 10.2969 17.0938 10.2969
L52.7812 70.5156
Q53.5625 71.5781 54.6875 71.5781
L56 71.5781
Q56.2969 71.5781 56.5938 71.4531
Q56.8906 71.3438 57.1094 71.0625
Q57.3281 70.7969 57.3281 70.5156
L63.375 5.90625
Q63.375 5.46875 63.8125 4.59375
Q64.7969 3.51562 71.2969 3.51562
Q72.3125 3.51562 72.3125 2.20312
Q71.9688 0.875 71.75 0.4375
Q71.5312 0 70.6094 0
L45.6094 0
Q44.6719 0 44.6719 1.3125
Q45.2188 3.51562 46 3.51562
Q53.9062 3.51562 54.3906 6.20312
L52.875 22.7031
L28.2188 22.7031
L20.2188 9.28125
Q19.4844 8.20312 19.4844 6.78125
Q19.4844 5.03125 21.1719 4.26562
Q22.8594 3.51562 24.9062 3.51562
Q25.875 3.51562 25.875 2.20312
Q25.5312 0.78125 25.3281 0.390625
Q25.1406 0 24.2188 0
z

M30.1719 26.2188
L52.4844 26.2188
L49.5156 58.5938
z
" id="Cmmi10-41"/>
    </defs>
    <g transform="translate(110.190480769 213.942034024)scale(0.18 -0.18)">
     <use transform="translate(0.0 0.421875)" xlink:href="#Cmmi10-41"/>
    </g>
   </g>
   <g id="text_8">
    <!-- $A = f(x_i)\Delta x$ -->
    <defs>
     <path d="
M31 -24.8125
Q25.4375 -20.4062 21.4062 -14.7188
Q17.3906 -9.03125 14.8125 -2.57812
Q12.25 3.85938 10.9844 10.8906
Q9.71875 17.9219 9.71875 25
Q9.71875 32.1719 10.9844 39.2031
Q12.25 46.2344 14.8594 52.7344
Q17.4844 59.2344 21.5312 64.8906
Q25.5938 70.5625 31 74.8125
Q31 75 31.5 75
L32.4219 75
Q32.7188 75 32.9531 74.7344
Q33.2031 74.4688 33.2031 74.125
Q33.2031 73.6875 33.0156 73.4844
Q28.125 68.7031 24.875 63.2344
Q21.625 57.7656 19.6406 51.5781
Q17.6719 45.4062 16.7969 38.7812
Q15.9219 32.1719 15.9219 25
Q15.9219 -6.78125 32.9062 -23.2969
Q33.2031 -23.5781 33.2031 -24.125
Q33.2031 -24.3594 32.9375 -24.6719
Q32.6719 -25 32.4219 -25
L31.5 -25
Q31 -25 31 -24.8125" id="Cmr10-28"/>
     <path d="
M6.5 -25
Q5.60938 -25 5.60938 -24.125
Q5.60938 -23.6875 5.8125 -23.4844
Q22.9062 -6.78125 22.9062 25
Q22.9062 56.7812 6 73.2969
Q5.60938 73.5312 5.60938 74.125
Q5.60938 74.4688 5.875 74.7344
Q6.15625 75 6.5 75
L7.42188 75
Q7.71875 75 7.90625 74.8125
Q15.0938 69.1406 19.875 61.0312
Q24.6562 52.9375 26.875 43.75
Q29.1094 34.5781 29.1094 25
Q29.1094 17.9219 27.9062 11.0625
Q26.7031 4.20312 24.0938 -2.45312
Q21.4844 -9.125 17.4844 -14.7656
Q13.4844 -20.4062 7.90625 -24.8125
Q7.71875 -25 7.42188 -25
z
" id="Cmr10-29"/>
     <path d="
M9.71875 -16.5
Q11.5781 -17.9219 14.2031 -17.9219
Q17.7812 -17.9219 20.0156 -10.0156
Q20.9531 -6.20312 25.0938 15.0938
L29.6875 39.5938
L21.0938 39.5938
Q20.125 39.5938 20.125 40.9219
Q20.5156 43.1094 21.3906 43.1094
L30.3281 43.1094
L31.5 49.6094
Q32.0781 52.6406 32.5625 54.8125
Q33.0625 56.9844 33.625 58.8281
Q34.1875 60.6875 35.2969 62.9844
Q37.0156 66.2656 39.9219 68.3906
Q42.8281 70.5156 46.1875 70.5156
Q48.3906 70.5156 50.4688 69.7031
Q52.5469 68.8906 53.8594 67.2812
Q55.1719 65.6719 55.1719 63.4844
Q55.1719 60.9375 53.4844 59.0469
Q51.8125 57.1719 49.4219 57.1719
Q47.7969 57.1719 46.6562 58.1719
Q45.5156 59.1875 45.5156 60.7969
Q45.5156 62.9844 47 64.625
Q48.4844 66.2656 50.6875 66.5
Q48.8281 67.9219 46.0938 67.9219
Q44.5781 67.9219 43.2344 66.5
Q41.8906 65.0938 41.5 63.4844
Q40.875 60.9375 38.7188 49.7031
L37.5 43.1094
L47.7969 43.1094
Q48.7812 43.1094 48.7812 41.7969
Q48.7344 41.5469 48.5781 40.9375
Q48.4375 40.3281 48.1719 39.9531
Q47.9062 39.5938 47.5156 39.5938
L36.8125 39.5938
L32.1719 15.1875
Q31.2969 9.85938 30.1406 4.35938
Q29 -1.125 26.9219 -6.90625
Q24.8594 -12.7031 21.625 -16.6094
Q18.4062 -20.5156 14.0156 -20.5156
Q10.6406 -20.5156 7.98438 -18.5781
Q5.32812 -16.6562 5.32812 -13.4844
Q5.32812 -10.9375 6.95312 -9.04688
Q8.59375 -7.17188 11.0781 -7.17188
Q12.75 -7.17188 13.8594 -8.17188
Q14.9844 -9.1875 14.9844 -10.7969
Q14.9844 -12.9375 13.3906 -14.7188
Q11.8125 -16.5 9.71875 -16.5" id="Cmmi10-66"/>
     <path d="
M5.42188 0
Q4.59375 0 4.59375 0.78125
Q4.64062 0.875 4.65625 0.921875
Q4.6875 0.984375 4.6875 1.125
L39.1094 70.5156
Q39.5469 71.5781 40.9219 71.5781
L42.2812 71.5781
Q43.6562 71.5781 44.0938 70.5156
L78.5156 1.125
Q78.5625 1.03125 78.5781 0.953125
Q78.6094 0.875 78.6094 0.78125
Q78.6094 0 77.7812 0
z

M12.0156 8.01562
L64.7031 8.01562
L38.375 61.0781
z
" id="Cmr10-a2"/>
     <path d="
M7.51562 13.2812
Q6.6875 13.2812 6.14062 13.9062
Q5.60938 14.5469 5.60938 15.2812
Q5.60938 16.1094 6.14062 16.6875
Q6.6875 17.2812 7.51562 17.2812
L70.3125 17.2812
Q71.0469 17.2812 71.5781 16.6875
Q72.125 16.1094 72.125 15.2812
Q72.125 14.5469 71.5781 13.9062
Q71.0469 13.2812 70.3125 13.2812
z

M7.51562 32.7188
Q6.6875 32.7188 6.14062 33.2969
Q5.60938 33.8906 5.60938 34.7188
Q5.60938 35.4531 6.14062 36.0781
Q6.6875 36.7188 7.51562 36.7188
L70.3125 36.7188
Q71.0469 36.7188 71.5781 36.0781
Q72.125 35.4531 72.125 34.7188
Q72.125 33.8906 71.5781 33.2969
Q71.0469 32.7188 70.3125 32.7188
z
" id="Cmr10-3d"/>
    </defs>
    <g transform="translate(68.7004807692 149.497782893)scale(0.18 -0.18)">
     <use xlink:href="#Cmmi10-41"/>
     <use transform="translate(92.55859375 0.0)" xlink:href="#Cmr10-3d"/>
     <use transform="translate(176.6171875 0.0)" xlink:href="#Cmmi10-66"/>
     <use transform="translate(225.494140625 0.0)" xlink:href="#Cmr10-28"/>
     <use transform="translate(264.3125 0.0)" xlink:href="#Cmmi10-78"/>
     <use transform="translate(321.392578125 -25.509375)scale(0.7)" xlink:href="#Cmmi10-69"/>
     <use transform="translate(355.81640625 0.0)" xlink:href="#Cmr10-29"/>
     <use transform="translate(394.634765625 0.0)" xlink:href="#Cmr10-a2"/>
     <use transform="translate(477.935546875 0.0)" xlink:href="#Cmmi10-78"/>
    </g>
   </g>
   <g id="text_9">
    <!-- $y=f(x)$ -->
    <g transform="translate(180.186634615 163.991735406)scale(0.18 -0.18)">
     <use xlink:href="#Cmmi10-79"/>
     <use transform="translate(66.58203125 0.0)" xlink:href="#Cmr10-3d"/>
     <use transform="translate(150.640625 0.0)" xlink:href="#Cmmi10-66"/>
     <use transform="translate(199.517578125 0.0)" xlink:href="#Cmr10-28"/>
     <use transform="translate(238.3359375 0.0)" xlink:href="#Cmmi10-78"/>
     <use transform="translate(295.416015625 0.0)" xlink:href="#Cmr10-29"/>
    </g>
   </g>
   <g id="line2d_8">
    <path clip-path="url(#p9ce254f00c)" d="
M52.7306 248.695
L52.7306 172.184" style="fill:none;stroke:#000000;stroke-linecap:square;stroke-width:1.5;"/>
   </g>
   <g id="line2d_9">
    <path clip-path="url(#p9ce254f00c)" d="
M11.8698 204.777
L15.3573 202.913
L17.8162 201.422
L20.7222 199.487
L25.2246 196.165
L29.6086 192.617
L35.5044 187.502
L52.5351 172.347
L57.5048 168.35
L61.3999 165.497
L65.7171 162.69
L69.5304 160.569
L72.723 159.08
L76.2983 157.744
L79.4255 156.88
L81.7602 156.426
L84.3394 156.118
L87.1262 156.017
L89.9987 156.165
L92.4373 156.491
L95.2739 157.098
L98.673 158.14
L101.694 159.344
L104.398 160.633
L107.716 162.469
L111.834 165.104
L115.543 167.775
L120.392 171.618
L125.197 175.721
L134.86 184.411
L142.452 191.139
L146.752 194.719
L151.532 198.386
L155.426 201.062
L158.347 202.856
L162.327 204.968
L164.41 205.91
L167.948 207.233
L170.79 208.034
L173.685 208.602
L176.071 208.876
L178.415 208.975
L181.219 208.868
L183.438 208.611
L186.65 207.973
L189.958 206.993
L193.48 205.605
L196.266 204.267
L199.928 202.21
L203.953 199.592
L207.779 196.803
L212.858 192.729
L218.255 188.064
L235.856 172.4
L241.225 168.092
L245.36 165.099
L245.36 165.099" style="fill:none;stroke:#0000ff;stroke-linecap:square;stroke-width:2.0;"/>
   </g>
  </g>
 </g>
 <defs>
  <clipPath id="p9ce254f00c">
   <rect height="220.310769231" width="242.83" x="7.2" y="32.620625"/>
  </clipPath>
 </defs>
</svg>
