<?xml version="1.0" encoding="utf-8" standalone="no"?>
<!DOCTYPE svg PUBLIC "-//W3C//DTD SVG 1.1//EN"
  "http://www.w3.org/Graphics/SVG/1.1/DTD/svg11.dtd">
<!-- Created with matplotlib (http://matplotlib.org/) -->
<svg height="276pt" version="1.1" viewBox="0 0 276 276" width="276pt" xmlns="http://www.w3.org/2000/svg" xmlns:xlink="http://www.w3.org/1999/xlink">
 <defs>
  <style type="text/css">
*{stroke-linecap:butt;stroke-linejoin:round;}
  </style>
 </defs>
 <g id="figure_1">
  <g id="patch_1">
   <path d="
M0 276.48
L276.48 276.48
L276.48 0
L0 0
z
" style="fill:#ffffff;"/>
  </g>
  <g id="axes_1">
   <g id="patch_2">
    <path d="
M7.2 269.28
L269.28 269.28
L269.28 7.2
L7.2 7.2
z
" style="fill:#ffffff;"/>
   </g>
   <g id="patch_3">
    <path clip-path="url(#p70dab50bf0)" d="
M96.24 243.24
L96.24 180.24
L96.6452 179.835
L97.6132 178.867
L97.9612 178.519
L98.6253 177.855
L99.6418 176.838
L99.7407 176.739
L100.867 175.613
L101.254 175.226
L102.118 174.362
L102.521 173.959
L102.956 173.524
L103.528 172.952
L104.482 171.998
L105.209 171.271
L105.839 170.641
L106.429 170.051
L106.914 169.566
L107.592 168.888
L107.973 168.507
L109.18 167.3
L109.362 167.118
L110.009 166.471
L111.086 165.394
L111.609 164.871
L111.84 164.64
L112.432 164.048
L113.366 163.114
L113.765 162.715
L114.36 162.12
L115.359 161.121
L115.949 160.531
L116.554 159.926
L117.048 159.432
L117.932 158.548
L118.566 157.914
L119.091 157.389
L119.599 156.881
L120.343 156.137
L120.693 155.787
L121.874 154.606
L122.309 154.171
L122.664 153.816
L123.71 152.77
L123.986 152.494
L124.826 151.654
L125.599 150.881
L125.736 150.744
L126.387 150.093
L127.366 149.114
L128.197 148.283
L128.615 147.865
L129.41 147.07
L129.501 146.979
L130.689 145.791
L130.923 145.557
L131.7 144.78
L132.191 144.289
L133.089 143.391
L133.476 143.004
L134.179 142.301
L134.976 141.504
L135.205 141.275
L135.844 140.636
L136.571 139.909
L137.626 138.854
L137.923 138.557
L138.892 137.588
L139.563 136.917
L139.711 136.769
L140.484 135.996
L141.377 135.103
L141.61 134.87
L142.485 133.995
L142.971 133.509
L143.65 132.83
L144.193 132.287
L145.192 131.288
L145.408 131.072
L146.446 130.034
L147.063 129.417
L147.7 128.78
L148.421 128.059
L148.637 127.843
L149.203 127.277
L150.235 126.245
L150.73 125.75
L151.57 124.91
L151.726 124.754
L152.685 123.795
L153.121 123.359
L153.744 122.736
L154.712 121.768
L155.289 121.191
L155.7 120.78
L156.486 119.994
L157.193 119.287
L157.804 118.676
L158.017 118.463
L159.142 117.338
L159.765 116.715
L160.102 116.378
L160.943 115.537
L161.403 115.077
L162.26 114.22
L162.892 113.588
L163.186 113.294
L163.71 112.77
L164.4 112.08
L165.284 111.196
L165.9 110.58
L166.596 109.884
L167.197 109.283
L167.565 108.915
L168.701 107.779
L169.279 107.201
L169.784 106.696
L170.057 106.423
L171.214 105.266
L171.635 104.845
L172.296 104.184
L172.947 103.533
L173.42 103.06
L174.266 102.214
L174.91 101.57
L175.605 100.875
L176.171 100.309
L176.856 99.6238
L177.082 99.3981
L178.067 98.4126
L178.47 98.0102
L179.315 97.1652
L179.601 96.8785
L180.474 96.0056
L180.956 95.5241
L181.495 94.9847
L182.591 93.8893
L183.173 93.3073
L183.323 93.1575
L184.313 92.1671
L184.763 91.717
L185.305 91.1753
L186.388 90.0925
L186.862 89.6183
L187.624 88.8564
L188.022 88.4576
L188.538 87.9416
L189.6 86.8798
L189.99 86.49
L190.318 86.1616
L191.052 85.4277
L191.699 84.7811
L192.535 83.945
L193.138 83.3417
L193.876 82.6036
L194.363 82.1171
L195.104 81.3763
L195.734 80.7456
L196.501 79.9791
L197.224 79.2562
L197.564 78.9161
L198.235 78.2447
L198.994 77.4859
L199.674 76.8058
L200.161 76.3193
L200.999 75.4808
L201.512 74.9677
L201.987 74.4934
L202.686 73.7937
L202.99 73.4903
L204.128 72.3516
L204.401 72.079
L204.944 71.5358
L205.894 70.5864
L206.414 70.0659
L206.861 69.6189
L207.609 68.8712
L208.119 68.3609
L209.027 67.4533
L209.627 66.853
L210.387 66.0927
L211.134 65.3459
L211.469 65.0108
L212.14 64.34
L212.609 63.8707
L213.296 63.1837
L214.1 62.3802
L214.61 61.8696
L215.4 61.08
L215.938 60.5425
L216.402 60.0779
L217.102 59.3783
L217.79 58.6896
L218.3 58.1802
L218.987 57.4929
L219.962 56.5175
L220.538 55.9423
L220.708 55.7718
L221.405 55.0746
L222.24 54.24
L222.24 243.24
z
" style="fill:#008000;opacity:0.5;"/>
   </g>
   <g id="line2d_1">
    <path clip-path="url(#p70dab50bf0)" d="
M12.24 243.24
L264.24 243.24
L264.24 243.24" style="fill:none;"/>
   </g>
   <g id="line2d_2">
    <path clip-path="url(#p70dab50bf0)" d="
M12.24 264.24
L264.24 12.24
L264.24 12.24" style="fill:none;stroke:#0000ff;stroke-linecap:square;stroke-width:2.0;"/>
   </g>
   <g id="line2d_3">
    <path clip-path="url(#p70dab50bf0)" d="
M96.24 180.24
L222.24 54.24
L222.24 54.24" style="fill:none;"/>
   </g>
   <g id="matplotlib.axis_1">
    <g id="xtick_1">
     <g id="line2d_4">
      <defs>
       <path d="
M0 0
L0 -4" id="m93b0483c22" style="stroke:#000000;stroke-width:0.5;"/>
      </defs>
      <g>
       <use style="stroke:#000000;stroke-width:0.5;" x="96.24" xlink:href="#m93b0483c22" y="243.24"/>
      </g>
     </g>
     <g id="text_1">
      <!-- 1 -->
      <defs>
       <path d="
M12.4062 8.29688
L28.5156 8.29688
L28.5156 63.9219
L10.9844 60.4062
L10.9844 69.3906
L28.4219 72.9062
L38.2812 72.9062
L38.2812 8.29688
L54.3906 8.29688
L54.3906 0
L12.4062 0
z
" id="BitstreamVeraSans-Roman-31"/>
      </defs>
      <g transform="translate(92.3334375 260.9171875)scale(0.18 -0.18)">
       <use xlink:href="#BitstreamVeraSans-Roman-31"/>
      </g>
     </g>
    </g>
    <g id="xtick_2">
     <g id="line2d_5">
      <g>
       <use style="stroke:#000000;stroke-width:0.5;" x="222.24" xlink:href="#m93b0483c22" y="243.24"/>
      </g>
     </g>
     <g id="text_2">
      <!-- 4 -->
      <defs>
       <path d="
M37.7969 64.3125
L12.8906 25.3906
L37.7969 25.3906
z

M35.2031 72.9062
L47.6094 72.9062
L47.6094 25.3906
L58.0156 25.3906
L58.0156 17.1875
L47.6094 17.1875
L47.6094 0
L37.7969 0
L37.7969 17.1875
L4.89062 17.1875
L4.89062 26.7031
z
" id="BitstreamVeraSans-Roman-34"/>
      </defs>
      <g transform="translate(217.45875 260.9171875)scale(0.18 -0.18)">
       <use xlink:href="#BitstreamVeraSans-Roman-34"/>
      </g>
     </g>
    </g>
   </g>
   <g id="matplotlib.axis_2">
    <g id="ytick_1">
     <g id="line2d_6">
      <defs>
       <path d="
M0 0
L4 0" id="m728421d6d4" style="stroke:#000000;stroke-width:0.5;"/>
      </defs>
      <g>
       <use style="stroke:#000000;stroke-width:0.5;" x="54.24" xlink:href="#m728421d6d4" y="180.24"/>
      </g>
     </g>
     <g id="text_3">
      <!-- 3 -->
      <defs>
       <path d="
M40.5781 39.3125
Q47.6562 37.7969 51.625 33
Q55.6094 28.2188 55.6094 21.1875
Q55.6094 10.4062 48.1875 4.48438
Q40.7656 -1.42188 27.0938 -1.42188
Q22.5156 -1.42188 17.6562 -0.515625
Q12.7969 0.390625 7.625 2.20312
L7.625 11.7188
Q11.7188 9.32812 16.5938 8.10938
Q21.4844 6.89062 26.8125 6.89062
Q36.0781 6.89062 40.9375 10.5469
Q45.7969 14.2031 45.7969 21.1875
Q45.7969 27.6406 41.2812 31.2656
Q36.7656 34.9062 28.7188 34.9062
L20.2188 34.9062
L20.2188 43.0156
L29.1094 43.0156
Q36.375 43.0156 40.2344 45.9219
Q44.0938 48.8281 44.0938 54.2969
Q44.0938 59.9062 40.1094 62.9062
Q36.1406 65.9219 28.7188 65.9219
Q24.6562 65.9219 20.0156 65.0312
Q15.375 64.1562 9.8125 62.3125
L9.8125 71.0938
Q15.4375 72.6562 20.3438 73.4375
Q25.25 74.2188 29.5938 74.2188
Q40.8281 74.2188 47.3594 69.1094
Q53.9062 64.0156 53.9062 55.3281
Q53.9062 49.2656 50.4375 45.0938
Q46.9688 40.9219 40.5781 39.3125" id="BitstreamVeraSans-Roman-33"/>
      </defs>
      <g transform="translate(41.6028125 185.206875)scale(0.18 -0.18)">
       <use xlink:href="#BitstreamVeraSans-Roman-33"/>
      </g>
     </g>
    </g>
    <g id="ytick_2">
     <g id="line2d_7">
      <g>
       <use style="stroke:#000000;stroke-width:0.5;" x="54.24" xlink:href="#m728421d6d4" y="54.24"/>
      </g>
     </g>
     <g id="text_4">
      <!-- 9 -->
      <defs>
       <path d="
M10.9844 1.51562
L10.9844 10.5
Q14.7031 8.73438 18.5 7.8125
Q22.3125 6.89062 25.9844 6.89062
Q35.75 6.89062 40.8906 13.4531
Q46.0469 20.0156 46.7812 33.4062
Q43.9531 29.2031 39.5938 26.9531
Q35.25 24.7031 29.9844 24.7031
Q19.0469 24.7031 12.6719 31.3125
Q6.29688 37.9375 6.29688 49.4219
Q6.29688 60.6406 12.9375 67.4219
Q19.5781 74.2188 30.6094 74.2188
Q43.2656 74.2188 49.9219 64.5156
Q56.5938 54.8281 56.5938 36.375
Q56.5938 19.1406 48.4062 8.85938
Q40.2344 -1.42188 26.4219 -1.42188
Q22.7031 -1.42188 18.8906 -0.6875
Q15.0938 0.046875 10.9844 1.51562
M30.6094 32.4219
Q37.25 32.4219 41.125 36.9531
Q45.0156 41.5 45.0156 49.4219
Q45.0156 57.2812 41.125 61.8438
Q37.25 66.4062 30.6094 66.4062
Q23.9688 66.4062 20.0938 61.8438
Q16.2188 57.2812 16.2188 49.4219
Q16.2188 41.5 20.0938 36.9531
Q23.9688 32.4219 30.6094 32.4219" id="BitstreamVeraSans-Roman-39"/>
      </defs>
      <g transform="translate(41.1865625 59.206875)scale(0.18 -0.18)">
       <use xlink:href="#BitstreamVeraSans-Roman-39"/>
      </g>
     </g>
    </g>
   </g>
   <g id="patch_4">
    <path d="
M7.2 243.24
L269.28 243.24" style="fill:none;stroke:#000000;stroke-width:0.8;"/>
   </g>
   <g id="patch_5">
    <path d="
M54.24 269.28
L54.24 7.2" style="fill:none;stroke:#000000;stroke-width:0.8;"/>
   </g>
   <g id="text_5">
    <!-- $f(x)=2x+1$ -->
    <defs>
     <path d="
M4.98438 0
L4.98438 2.6875
Q4.98438 2.9375 5.17188 3.21875
L20.7031 20.4062
Q24.2188 24.2188 26.4062 26.7969
Q28.6094 29.3906 30.75 32.7656
Q32.9062 36.1406 34.1562 39.625
Q35.4062 43.1094 35.4062 47.0156
Q35.4062 51.125 33.8906 54.8594
Q32.375 58.5938 29.375 60.8438
Q26.375 63.0938 22.125 63.0938
Q17.7812 63.0938 14.3125 60.4688
Q10.8438 57.8594 9.42188 53.7188
Q9.8125 53.8125 10.5 53.8125
Q12.75 53.8125 14.3281 52.2969
Q15.9219 50.7812 15.9219 48.3906
Q15.9219 46.0938 14.3281 44.5
Q12.75 42.9219 10.5 42.9219
Q8.15625 42.9219 6.5625 44.5469
Q4.98438 46.1875 4.98438 48.3906
Q4.98438 52.1562 6.39062 55.4375
Q7.8125 58.7344 10.4688 61.2969
Q13.1406 63.875 16.4844 65.2344
Q19.8281 66.6094 23.5781 66.6094
Q29.2969 66.6094 34.2188 64.1875
Q39.1562 61.7656 42.0312 57.3438
Q44.9219 52.9375 44.9219 47.0156
Q44.9219 42.6719 43.0156 38.7656
Q41.1094 34.8594 38.125 31.6562
Q35.1562 28.4688 30.5156 24.4062
Q25.875 20.3594 24.4219 19
L13.0938 8.10938
L22.7031 8.10938
Q29.7812 8.10938 34.5469 8.21875
Q39.3125 8.34375 39.5938 8.59375
Q40.7656 9.85938 42 17.8281
L44.9219 17.8281
L42.0938 0
z
" id="Cmr10-32"/>
     <path d="
M9.28125 0
L9.28125 3.51562
Q21.7812 3.51562 21.7812 6.6875
L21.7812 59.1875
Q16.6094 56.6875 8.6875 56.6875
L8.6875 60.2031
Q20.9531 60.2031 27.2031 66.6094
L28.6094 66.6094
Q28.9531 66.6094 29.2656 66.3281
Q29.5938 66.0625 29.5938 65.7188
L29.5938 6.6875
Q29.5938 3.51562 42.0938 3.51562
L42.0938 0
z
" id="Cmr10-31"/>
     <path d="
M31 -24.8125
Q25.4375 -20.4062 21.4062 -14.7188
Q17.3906 -9.03125 14.8125 -2.57812
Q12.25 3.85938 10.9844 10.8906
Q9.71875 17.9219 9.71875 25
Q9.71875 32.1719 10.9844 39.2031
Q12.25 46.2344 14.8594 52.7344
Q17.4844 59.2344 21.5312 64.8906
Q25.5938 70.5625 31 74.8125
Q31 75 31.5 75
L32.4219 75
Q32.7188 75 32.9531 74.7344
Q33.2031 74.4688 33.2031 74.125
Q33.2031 73.6875 33.0156 73.4844
Q28.125 68.7031 24.875 63.2344
Q21.625 57.7656 19.6406 51.5781
Q17.6719 45.4062 16.7969 38.7812
Q15.9219 32.1719 15.9219 25
Q15.9219 -6.78125 32.9062 -23.2969
Q33.2031 -23.5781 33.2031 -24.125
Q33.2031 -24.3594 32.9375 -24.6719
Q32.6719 -25 32.4219 -25
L31.5 -25
Q31 -25 31 -24.8125" id="Cmr10-28"/>
     <path d="
M6.5 -25
Q5.60938 -25 5.60938 -24.125
Q5.60938 -23.6875 5.8125 -23.4844
Q22.9062 -6.78125 22.9062 25
Q22.9062 56.7812 6 73.2969
Q5.60938 73.5312 5.60938 74.125
Q5.60938 74.4688 5.875 74.7344
Q6.15625 75 6.5 75
L7.42188 75
Q7.71875 75 7.90625 74.8125
Q15.0938 69.1406 19.875 61.0312
Q24.6562 52.9375 26.875 43.75
Q29.1094 34.5781 29.1094 25
Q29.1094 17.9219 27.9062 11.0625
Q26.7031 4.20312 24.0938 -2.45312
Q21.4844 -9.125 17.4844 -14.7656
Q13.4844 -20.4062 7.90625 -24.8125
Q7.71875 -25 7.42188 -25
z
" id="Cmr10-29"/>
     <path d="
M9.71875 -16.5
Q11.5781 -17.9219 14.2031 -17.9219
Q17.7812 -17.9219 20.0156 -10.0156
Q20.9531 -6.20312 25.0938 15.0938
L29.6875 39.5938
L21.0938 39.5938
Q20.125 39.5938 20.125 40.9219
Q20.5156 43.1094 21.3906 43.1094
L30.3281 43.1094
L31.5 49.6094
Q32.0781 52.6406 32.5625 54.8125
Q33.0625 56.9844 33.625 58.8281
Q34.1875 60.6875 35.2969 62.9844
Q37.0156 66.2656 39.9219 68.3906
Q42.8281 70.5156 46.1875 70.5156
Q48.3906 70.5156 50.4688 69.7031
Q52.5469 68.8906 53.8594 67.2812
Q55.1719 65.6719 55.1719 63.4844
Q55.1719 60.9375 53.4844 59.0469
Q51.8125 57.1719 49.4219 57.1719
Q47.7969 57.1719 46.6562 58.1719
Q45.5156 59.1875 45.5156 60.7969
Q45.5156 62.9844 47 64.625
Q48.4844 66.2656 50.6875 66.5
Q48.8281 67.9219 46.0938 67.9219
Q44.5781 67.9219 43.2344 66.5
Q41.8906 65.0938 41.5 63.4844
Q40.875 60.9375 38.7188 49.7031
L37.5 43.1094
L47.7969 43.1094
Q48.7812 43.1094 48.7812 41.7969
Q48.7344 41.5469 48.5781 40.9375
Q48.4375 40.3281 48.1719 39.9531
Q47.9062 39.5938 47.5156 39.5938
L36.8125 39.5938
L32.1719 15.1875
Q31.2969 9.85938 30.1406 4.35938
Q29 -1.125 26.9219 -6.90625
Q24.8594 -12.7031 21.625 -16.6094
Q18.4062 -20.5156 14.0156 -20.5156
Q10.6406 -20.5156 7.98438 -18.5781
Q5.32812 -16.6562 5.32812 -13.4844
Q5.32812 -10.9375 6.95312 -9.04688
Q8.59375 -7.17188 11.0781 -7.17188
Q12.75 -7.17188 13.8594 -8.17188
Q14.9844 -9.1875 14.9844 -10.7969
Q14.9844 -12.9375 13.3906 -14.7188
Q11.8125 -16.5 9.71875 -16.5" id="Cmmi10-66"/>
     <path d="
M7.51562 23
Q6.6875 23 6.14062 23.625
Q5.60938 24.2656 5.60938 25
Q5.60938 25.7344 6.14062 26.3594
Q6.6875 27 7.51562 27
L36.9219 27
L36.9219 56.5
Q36.9219 57.2812 37.5 57.7812
Q38.0938 58.2969 38.9219 58.2969
Q39.6562 58.2969 40.2812 57.7812
Q40.9219 57.2812 40.9219 56.5
L40.9219 27
L70.3125 27
Q71.0469 27 71.5781 26.3594
Q72.125 25.7344 72.125 25
Q72.125 24.2656 71.5781 23.625
Q71.0469 23 70.3125 23
L40.9219 23
L40.9219 -6.5
Q40.9219 -7.28125 40.2812 -7.78125
Q39.6562 -8.29688 38.9219 -8.29688
Q38.0938 -8.29688 37.5 -7.78125
Q36.9219 -7.28125 36.9219 -6.5
L36.9219 23
z
" id="Cmr10-2b"/>
     <path d="
M7.51562 13.2812
Q6.6875 13.2812 6.14062 13.9062
Q5.60938 14.5469 5.60938 15.2812
Q5.60938 16.1094 6.14062 16.6875
Q6.6875 17.2812 7.51562 17.2812
L70.3125 17.2812
Q71.0469 17.2812 71.5781 16.6875
Q72.125 16.1094 72.125 15.2812
Q72.125 14.5469 71.5781 13.9062
Q71.0469 13.2812 70.3125 13.2812
z

M7.51562 32.7188
Q6.6875 32.7188 6.14062 33.2969
Q5.60938 33.8906 5.60938 34.7188
Q5.60938 35.4531 6.14062 36.0781
Q6.6875 36.7188 7.51562 36.7188
L70.3125 36.7188
Q71.0469 36.7188 71.5781 36.0781
Q72.125 35.4531 72.125 34.7188
Q72.125 33.8906 71.5781 33.2969
Q71.0469 32.7188 70.3125 32.7188
z
" id="Cmr10-3d"/>
     <path d="
M7.8125 2.875
Q9.57812 1.51562 12.7969 1.51562
Q15.9219 1.51562 18.3125 4.51562
Q20.7031 7.51562 21.5781 11.0781
L26.125 28.8125
Q27.2031 33.6406 27.2031 35.4062
Q27.2031 37.8906 25.8125 39.75
Q24.4219 41.6094 21.9219 41.6094
Q18.75 41.6094 15.9688 39.625
Q13.1875 37.6406 11.2812 34.5938
Q9.375 31.5469 8.59375 28.4219
Q8.40625 27.7812 7.8125 27.7812
L6.59375 27.7812
Q5.8125 27.7812 5.8125 28.7188
L5.8125 29
Q6.78125 32.7188 9.125 36.25
Q11.4688 39.7969 14.8594 41.9844
Q18.2656 44.1875 22.125 44.1875
Q25.7812 44.1875 28.7344 42.2344
Q31.6875 40.2812 32.9062 36.9219
Q34.625 39.9844 37.2812 42.0781
Q39.9375 44.1875 43.1094 44.1875
Q45.2656 44.1875 47.5 43.4219
Q49.75 42.6719 51.1719 41.1094
Q52.5938 39.5469 52.5938 37.2031
Q52.5938 34.6719 50.9531 32.8281
Q49.3125 31 46.7812 31
Q45.1719 31 44.0938 32.0312
Q43.0156 33.0625 43.0156 34.625
Q43.0156 36.7188 44.4531 38.2969
Q45.9062 39.8906 47.9062 40.1875
Q46.0938 41.6094 42.9219 41.6094
Q39.7031 41.6094 37.3281 38.625
Q34.9688 35.6406 33.9844 31.9844
L29.5938 14.3125
Q28.5156 10.2969 28.5156 7.71875
Q28.5156 5.17188 29.9531 3.34375
Q31.3906 1.51562 33.7969 1.51562
Q38.4844 1.51562 42.1562 5.64062
Q45.8438 9.76562 47.0156 14.7031
Q47.2188 15.2812 47.7969 15.2812
L49.0312 15.2812
Q49.4219 15.2812 49.6562 15.0156
Q49.9062 14.75 49.9062 14.4062
Q49.9062 14.3125 49.8125 14.1094
Q48.3906 8.15625 43.8438 3.51562
Q39.3125 -1.125 33.5938 -1.125
Q29.9375 -1.125 26.9844 0.84375
Q24.0312 2.82812 22.7969 6.20312
Q21.2344 3.26562 18.4688 1.0625
Q15.7188 -1.125 12.5938 -1.125
Q10.4531 -1.125 8.17188 -0.359375
Q5.90625 0.390625 4.48438 1.95312
Q3.07812 3.51562 3.07812 5.90625
Q3.07812 8.25 4.70312 10.1719
Q6.34375 12.1094 8.79688 12.1094
Q10.4531 12.1094 11.5781 11.1094
Q12.7031 10.1094 12.7031 8.5
Q12.7031 6.39062 11.2969 4.82812
Q9.90625 3.26562 7.8125 2.875" id="Cmmi10-78"/>
    </defs>
    <g transform="translate(120.78 53.49)scale(0.18 -0.18)">
     <use xlink:href="#Cmmi10-66"/>
     <use transform="translate(48.876953125 0.0)" xlink:href="#Cmr10-28"/>
     <use transform="translate(87.6953125 0.0)" xlink:href="#Cmmi10-78"/>
     <use transform="translate(144.775390625 0.0)" xlink:href="#Cmr10-29"/>
     <use transform="translate(201.15234375 0.0)" xlink:href="#Cmr10-3d"/>
     <use transform="translate(285.2109375 0.0)" xlink:href="#Cmr10-32"/>
     <use transform="translate(335.2109375 0.0)" xlink:href="#Cmmi10-78"/>
     <use transform="translate(409.849609375 0.0)" xlink:href="#Cmr10-2b"/>
     <use transform="translate(493.908203125 0.0)" xlink:href="#Cmr10-31"/>
    </g>
   </g>
   <g id="text_6">
    <!-- $\int_{1}^{4}(2x+1) \ dx $ -->
    <defs>
     <path d="
M17.3906 -1.125
Q11.0781 -1.125 7.4375 3.64062
Q3.8125 8.40625 3.8125 14.8906
Q3.8125 21.2969 7.125 28.1719
Q10.4531 35.0625 16.0938 39.625
Q21.7344 44.1875 28.2188 44.1875
Q31.1562 44.1875 33.5156 42.5469
Q35.8906 40.9219 37.2031 38.1875
L42.8281 60.5
Q43.2188 62.2031 43.3125 63.1875
Q43.3125 64.7969 36.8125 64.7969
Q35.7969 64.7969 35.7969 66.1094
Q35.8438 66.3594 36.0156 66.9844
Q36.1875 67.625 36.4531 67.9688
Q36.7188 68.3125 37.2031 68.3125
L50.6875 69.3906
Q51.9062 69.3906 51.9062 68.1094
L37.5 10.5938
Q36.8125 8.9375 36.8125 5.8125
Q36.8125 1.51562 39.7031 1.51562
Q42.8281 1.51562 44.4531 5.48438
Q46.0938 9.46875 47.2188 14.7031
Q47.4062 15.2812 48 15.2812
L49.2188 15.2812
Q49.6094 15.2812 49.8438 14.9375
Q50.0938 14.5938 50.0938 14.3125
Q48.3438 7.32812 46.2656 3.09375
Q44.1875 -1.125 39.5 -1.125
Q36.1406 -1.125 33.5469 0.84375
Q30.9531 2.82812 30.3281 6.10938
Q23.875 -1.125 17.3906 -1.125
M17.4844 1.51562
Q21.0938 1.51562 24.4844 4.21875
Q27.875 6.9375 30.3281 10.5938
Q30.4219 10.6875 30.4219 10.9844
L35.8906 33.0156
Q35.2969 36.5312 33.2969 39.0625
Q31.2969 41.6094 27.9844 41.6094
Q24.6094 41.6094 21.7031 38.8438
Q18.7969 36.0781 16.7969 32.3281
Q14.8438 28.3281 13.0625 21.3438
Q11.2812 14.3594 11.2812 10.5
Q11.2812 7.03125 12.7656 4.26562
Q14.2656 1.51562 17.4844 1.51562" id="Cmmi10-64"/>
     <path d="
M10.5938 -217.094
Q13.0938 -219.578 16.7031 -219.578
Q20.3125 -219.578 23.2812 -214.625
Q26.2656 -209.672 28.5156 -202.25
Q30.7656 -194.828 31.8125 -189.812
Q32.8594 -184.812 34.4219 -176.906
Q35.8438 -169.531 37.1562 -162.109
Q38.4844 -154.688 39.875 -146.312
Q41.2656 -137.938 42.7969 -129.312
Q44.3438 -120.703 46.2969 -110.984
Q48.9219 -98.1875 50.0625 -92.6875
Q51.2188 -87.2031 53.5625 -76.8281
Q55.9062 -66.4531 56.6562 -63.1562
Q57.4219 -59.8594 60.9844 -45.125
L62.3125 -39.8906
Q64.5469 -31.1094 65.7656 -26.5938
Q67 -22.0781 69.5625 -15.5469
Q72.125 -9.03125 75.5781 -4.51562
Q79.0469 0 83.2031 0
Q86.1406 0 88.6406 -1.3125
Q91.1562 -2.64062 92.7188 -4.9375
Q94.2812 -7.23438 94.2812 -10.2031
Q94.2812 -12.3594 92.8594 -13.7656
Q91.4531 -15.1875 89.3125 -15.1875
Q87.1094 -15.1875 85.6406 -13.7656
Q84.1875 -12.3594 84.1875 -10.2031
Q84.1875 -8.01562 85.6406 -6.54688
Q87.1094 -5.07812 89.3125 -5.07812
Q86.7188 -2.59375 83.2969 -2.59375
Q81.4531 -2.59375 79.2188 -8
Q77 -13.4219 75.125 -20.7656
Q73.25 -28.125 72.2344 -33.0312
Q71.2344 -37.9375 69.8281 -45.3125
Q68.1719 -53.6562 67.0625 -59.8594
Q65.9688 -66.0625 64.4062 -75.1875
Q62.8438 -84.3281 61.3438 -92.5781
Q59.8594 -100.828 57.8125 -111.188
Q56.5 -117.719 54 -129.562
Q51.5156 -141.406 50.7031 -144.969
Q49.9062 -148.531 46.6094 -162.391
Q43.3125 -176.266 43.1094 -177.094
L41.8906 -181.688
Q39.3125 -192.281 36.6875 -200.312
Q34.0781 -208.344 29.0156 -215.281
Q23.9688 -222.219 16.7031 -222.219
Q12.3594 -222.219 8.98438 -219.281
Q5.60938 -216.359 5.60938 -212.109
Q5.60938 -209.906 7.07812 -208.438
Q8.54688 -206.984 10.6875 -206.984
Q12.1094 -206.984 13.25 -207.656
Q14.4062 -208.344 15.0625 -209.516
Q15.7188 -210.688 15.7188 -212.109
Q15.7188 -214.266 14.25 -215.672
Q12.7969 -217.094 10.5938 -217.094" id="Cmex10-5a"/>
     <path d="
M2.78125 16.5
L2.78125 20.0156
L33.6875 66.1094
Q34.0312 66.6094 34.7188 66.6094
L36.1875 66.6094
Q37.3125 66.6094 37.3125 65.4844
L37.3125 20.0156
L47.125 20.0156
L47.125 16.5
L37.3125 16.5
L37.3125 6.6875
Q37.3125 4.64062 40.2344 4.07812
Q43.1719 3.51562 47.0156 3.51562
L47.0156 0
L19.4844 0
L19.4844 3.51562
Q23.3438 3.51562 26.2656 4.07812
Q29.2031 4.64062 29.2031 6.6875
L29.2031 16.5
z

M6.10938 20.0156
L29.7812 20.0156
L29.7812 55.4219
z
" id="Cmr10-34"/>
    </defs>
    <g transform="translate(103.44 196.32)scale(0.18 -0.18)">
     <use transform="translate(0.0 144.8828125)" xlink:href="#Cmex10-5a"/>
     <use transform="translate(95.516953125 119.3734375)scale(0.7)" xlink:href="#Cmr10-34"/>
     <use transform="translate(55.517578125 -102.8453125)scale(0.7)" xlink:href="#Cmr10-31"/>
     <use transform="translate(147.523203125 0.440104166667)" xlink:href="#Cmr10-28"/>
     <use transform="translate(186.3415625 0.440104166667)" xlink:href="#Cmr10-32"/>
     <use transform="translate(236.3415625 0.440104166667)" xlink:href="#Cmmi10-78"/>
     <use transform="translate(310.980234375 0.440104166667)" xlink:href="#Cmr10-2b"/>
     <use transform="translate(395.038828125 0.440104166667)" xlink:href="#Cmr10-31"/>
     <use transform="translate(445.038828125 0.440104166667)" xlink:href="#Cmr10-29"/>
     <use transform="translate(510.195078125 0.440104166667)" xlink:href="#Cmmi10-64"/>
     <use transform="translate(562.19703125 0.440104166667)" xlink:href="#Cmmi10-78"/>
    </g>
   </g>
  </g>
 </g>
 <defs>
  <clipPath id="p70dab50bf0">
   <rect height="262.08" width="262.08" x="7.2" y="7.2"/>
  </clipPath>
 </defs>
</svg>
