<?xml version="1.0" encoding="utf-8" standalone="no"?>
<!DOCTYPE svg PUBLIC "-//W3C//DTD SVG 1.1//EN"
  "http://www.w3.org/Graphics/SVG/1.1/DTD/svg11.dtd">
<!-- Created with matplotlib (http://matplotlib.org/) -->
<svg height="277pt" version="1.1" viewBox="0 0 275 277" width="275pt" xmlns="http://www.w3.org/2000/svg" xmlns:xlink="http://www.w3.org/1999/xlink">
 <defs>
  <style type="text/css">
*{stroke-linecap:butt;stroke-linejoin:round;}
  </style>
 </defs>
 <g id="figure_1">
  <g id="patch_1">
   <path d="
M0 277.315
L275.67 277.315
L275.67 0
L0 0
z
" style="fill:#ffffff;"/>
  </g>
  <g id="axes_1">
   <g id="patch_2">
    <path d="
M7.2 252.931
L250.03 252.931
L250.03 32.6206
L7.2 32.6206
z
" style="fill:#ffffff;"/>
   </g>
   <g id="patch_3">
    <path clip-path="url(#p9ce254f00c)" d="
M52.7306 248.695
L52.7306 95.673
L53.546 94.3185
L54.482 92.7848
L54.8989 92.1094
L56.0578 90.2583
L56.5412 89.498
L57.4968 88.017
L57.8535 87.472
L58.5131 86.4754
L59.1727 85.494
L59.8914 84.4426
L60.4749 83.6031
L61.4863 82.1793
L62.0636 81.3849
L62.3624 80.979
L63.3839 79.6197
L64.1988 78.5674
L65.1329 77.3976
L65.5629 76.8724
L66.4782 75.7829
L67.2419 74.9044
L68.2049 73.8371
L68.5696 73.4449
L69.5641 72.4096
L69.9609 72.0106
L70.7415 71.2499
L71.6668 70.3898
L72.2756 69.849
L72.8843 69.3285
L73.0943 69.1537
L73.6896 68.6714
L74.2849 68.2088
L75.2238 67.5201
L75.7734 67.1403
L76.7148 66.5303
L77.2122 66.2289
L77.7286 65.9313
L78.245 65.6496
L78.8974 65.3163
L79.1228 65.207
L79.9851 64.8172
L80.6011 64.5663
L81.2172 64.3384
L81.3327 64.2982
L82.0938 64.054
L82.8548 63.8453
L83.1762 63.7679
L84.0737 63.5855
L84.7826 63.4766
L85.3037 63.4164
L85.9123 63.3675
L86.5209 63.3415
L86.7011 63.3383
L87.218 63.3401
L87.7349 63.3586
L88.251 63.3936
L89.1831 63.4987
L89.7226 63.5842
L90.2621 63.6876
L90.9878 63.8551
L91.5505 64.0074
L92.1537 64.1921
L92.7569 64.3991
L92.8315 64.4263
L93.3513 64.6248
L93.8711 64.8397
L94.6849 65.2089
L95.0752 65.4001
L95.9322 65.8518
L96.6874 66.2859
L97.2632 66.6394
L97.839 67.0122
L98.1308 67.2085
L98.7213 67.6206
L99.3119 68.0527
L99.7751 68.4056
L100.33 68.844
L100.885 69.2997
L101.82 70.1062
L102.144 70.3964
L102.948 71.141
L103.476 71.6494
L104.236 72.4062
L104.823 73.0106
L105.409 73.6324
L105.862 74.1244
L106.718 75.082
L107.678 76.1972
L108.197 76.819
L108.85 77.6191
L109.503 78.4385
L110.062 79.1536
L110.798 80.1172
L111.78 81.44
L112.451 82.3647
L113.089 83.2619
L113.726 84.1734
L114.555 85.3818
L115.377 86.6049
L115.806 87.2525
L116.902 88.9359
L117.592 90.0161
L118.1 90.8204
L118.754 91.8663
L120.079 94.0247
L120.459 94.6519
L121.315 96.0779
L122.037 97.2954
L122.634 98.3097
L123.469 99.7423
L124.387 101.333
L125.423 103.146
L126.189 104.495
L126.825 105.623
L127.777 107.321
L128.444 108.516
L128.688 108.954
L130.028 111.369
L130.143 111.577
L131.663 114.33
L131.781 114.542
L133.107 116.948
L133.576 117.799
L133.956 118.488
L135.181 120.707
L135.665 121.581
L136.813 123.648
L137.179 124.306
L138.384 126.461
L138.722 127.062
L139.578 128.578
L140.536 130.261
L141.301 131.595
L142.327 133.368
L143.066 134.632
L143.419 135.232
L144.525 137.092
L144.934 137.772
L145.933 139.417
L146.579 140.465
L147.237 141.52
L147.792 142.403
L148.456 143.443
L149.12 144.47
L149.273 144.705
L150.522 146.592
L150.768 146.956
L151.772 148.424
L152.793 149.876
L153.614 151.015
L154.171 151.771
L154.731 152.519
L155.299 153.265
L155.867 153.996
L156.36 154.618
L156.899 155.287
L157.546 156.072
L158.193 156.838
L159.052 157.822
L159.383 158.193
L159.911 158.771
L160.536 159.439
L161.161 160.087
L162.135 161.057
L162.894 161.777
L163.061 161.931
L164.07 162.833
L164.863 163.503
L165.751 164.211
L166.176 164.535
L166.742 164.95
L167.309 165.346
L167.564 165.519
L168.202 165.934
L168.839 166.325
L169.78 166.86
L170.297 167.13
L170.957 167.454
L171.604 167.745
L172.175 167.98
L172.849 168.233
L173.522 168.458
L173.653 168.499
L174.297 168.683
L174.94 168.841
L175.373 168.934
L175.874 169.026
L176.375 169.103
L176.914 169.168
L177.672 169.229
L178.518 169.255
L179.258 169.242
L180.158 169.18
L180.829 169.1
L181.358 169.018
L182.068 168.881
L182.8 168.706
L183.682 168.453
L184.195 168.283
L184.708 168.098
L185.198 167.905
L185.837 167.633
L186.476 167.336
L186.712 167.22
L187.401 166.862
L188.09 166.477
L188.845 166.022
L189.469 165.621
L190.364 165.007
L190.519 164.896
L191.486 164.172
L192.015 163.754
L192.667 163.217
L193.319 162.656
L193.804 162.225
L194.587 161.501
L195.119 160.991
L195.879 160.236
L196.559 159.535
L197.218 158.833
L197.877 158.11
L198.028 157.942
L198.619 157.271
L199.21 156.584
L199.668 156.039
L200.599 154.903
L201.199 154.148
L201.8 153.378
L202.575 152.361
L203.162 151.574
L203.499 151.116
L204.499 149.728
L204.499 248.695
z
" style="fill:#ff0000;opacity:0.5;"/>
   </g>
   <g id="patch_4">
    <path clip-path="url(#p9ce254f00c)" d="
M99.4287 248.695
L99.4287 68.1406
L134.452 68.1406
L134.452 248.695
z
" style="fill:#90ee90;"/>
   </g>
   <g id="patch_5">
    <path clip-path="url(#p9ce254f00c)" d="
M99.4287 248.695
L99.4287 68.1406
L134.452 68.1406
L134.452 248.695
z
" style="fill:none;stroke:#000000;"/>
   </g>
   <g id="line2d_1">
    <path clip-path="url(#p9ce254f00c)" d="
M11.8698 248.695
L245.36 248.695
L245.36 248.695" style="fill:none;"/>
   </g>
   <g id="line2d_2">
    <path clip-path="url(#p9ce254f00c)" d="
M52.7306 95.673
L53.546 94.3185
L54.482 92.7848
L54.8989 92.1094
L56.0578 90.2583
L56.5412 89.498
L57.4968 88.017
L57.8535 87.472
L58.5131 86.4754
L59.1727 85.494
L59.8914 84.4426
L60.4749 83.6031
L61.4863 82.1793
L62.0636 81.3849
L62.3624 80.979
L63.3839 79.6197
L64.1988 78.5674
L65.1329 77.3976
L65.5629 76.8724
L66.4782 75.7829
L67.2419 74.9044
L68.2049 73.8371
L68.5696 73.4449
L69.5641 72.4096
L69.9609 72.0106
L70.7415 71.2499
L71.6668 70.3898
L72.2756 69.849
L72.8843 69.3285
L73.0943 69.1537
L73.6896 68.6714
L74.2849 68.2088
L75.2238 67.5201
L75.7734 67.1403
L76.7148 66.5303
L77.2122 66.2289
L77.7286 65.9313
L78.245 65.6496
L78.8974 65.3163
L79.1228 65.207
L79.9851 64.8172
L80.6011 64.5663
L81.2172 64.3384
L81.3327 64.2982
L82.0938 64.054
L82.8548 63.8453
L83.1762 63.7679
L84.0737 63.5855
L84.7826 63.4766
L85.3037 63.4164
L85.9123 63.3675
L86.5209 63.3415
L86.7011 63.3383
L87.218 63.3401
L87.7349 63.3586
L88.251 63.3936
L89.1831 63.4987
L89.7226 63.5842
L90.2621 63.6876
L90.9878 63.8551
L91.5505 64.0074
L92.1537 64.1921
L92.7569 64.3991
L92.8315 64.4263
L93.3513 64.6248
L93.8711 64.8397
L94.6849 65.2089
L95.0752 65.4001
L95.9322 65.8518
L96.6874 66.2859
L97.2632 66.6394
L97.839 67.0122
L98.1308 67.2085
L98.7213 67.6206
L99.3119 68.0527
L99.7751 68.4056
L100.33 68.844
L100.885 69.2997
L101.82 70.1062
L102.144 70.3964
L102.948 71.141
L103.476 71.6494
L104.236 72.4062
L104.823 73.0106
L105.409 73.6324
L105.862 74.1244
L106.718 75.082
L107.678 76.1972
L108.197 76.819
L108.85 77.6191
L109.503 78.4385
L110.062 79.1536
L110.798 80.1172
L111.78 81.44
L112.451 82.3647
L113.089 83.2619
L113.726 84.1734
L114.555 85.3818
L115.377 86.6049
L115.806 87.2525
L116.902 88.9359
L117.592 90.0161
L118.1 90.8204
L118.754 91.8663
L120.079 94.0247
L120.459 94.6519
L121.315 96.0779
L122.037 97.2954
L122.634 98.3097
L123.469 99.7423
L124.387 101.333
L125.423 103.146
L126.189 104.495
L126.825 105.623
L127.777 107.321
L128.444 108.516
L128.688 108.954
L130.028 111.369" style="fill:none;stroke:#0000ff;stroke-linecap:square;"/>
   </g>
   <g id="line2d_3">
    <path clip-path="url(#p9ce254f00c)" d="
M131.781 114.542
L133.107 116.948
L133.576 117.799
L133.956 118.488
L135.181 120.707
L135.665 121.581
L136.813 123.648
L137.179 124.306
L138.384 126.461
L138.722 127.062
L139.578 128.578
L140.536 130.261
L141.301 131.595
L142.327 133.368
L143.066 134.632
L143.419 135.232
L144.525 137.092
L144.934 137.772
L145.933 139.417
L146.579 140.465
L147.237 141.52
L147.792 142.403
L148.456 143.443
L149.12 144.47
L149.273 144.705
L150.522 146.592
L150.768 146.956
L151.772 148.424
L152.793 149.876
L153.614 151.015
L154.171 151.771
L154.731 152.519
L155.299 153.265
L155.867 153.996
L156.36 154.618
L156.899 155.287
L157.546 156.072
L158.193 156.838
L159.052 157.822
L159.383 158.193
L159.911 158.771
L160.536 159.439
L161.161 160.087
L162.135 161.057
L162.894 161.777
L163.061 161.931
L164.07 162.833
L164.863 163.503
L165.751 164.211
L166.176 164.535
L166.742 164.95
L167.309 165.346
L167.564 165.519
L168.202 165.934
L168.839 166.325
L169.78 166.86
L170.297 167.13
L170.957 167.454
L171.604 167.745
L172.175 167.98
L172.849 168.233
L173.522 168.458
L173.653 168.499
L174.297 168.683
L174.94 168.841
L175.373 168.934
L175.874 169.026
L176.375 169.103
L176.914 169.168
L177.672 169.229
L178.518 169.255
L179.258 169.242
L180.158 169.18
L180.829 169.1
L181.358 169.018
L182.068 168.881
L182.8 168.706
L183.682 168.453
L184.195 168.283
L184.708 168.098
L185.198 167.905
L185.837 167.633
L186.476 167.336
L186.712 167.22
L187.401 166.862
L188.09 166.477
L188.845 166.022
L189.469 165.621
L190.364 165.007
L190.519 164.896
L191.486 164.172
L192.015 163.754
L192.667 163.217
L193.319 162.656
L193.804 162.225
L194.587 161.501
L195.119 160.991
L195.879 160.236
L196.559 159.535
L197.218 158.833
L197.877 158.11
L198.028 157.942
L198.619 157.271
L199.21 156.584
L199.668 156.039
L200.599 154.903
L201.199 154.148
L201.8 153.378
L202.575 152.361
L203.162 151.574
L203.499 151.116
L204.499 149.728" style="fill:none;stroke:#0000ff;stroke-linecap:square;"/>
   </g>
   <g id="line2d_4">
    <path clip-path="url(#p9ce254f00c)" d="
M204.499 248.695
L204.499 149.728" style="fill:none;stroke:#000000;stroke-linecap:square;stroke-width:1.5;"/>
   </g>
   <g id="matplotlib.axis_1">
    <g id="xtick_1">
     <g id="line2d_5">
      <defs>
       <path d="
M0 0
L0 -4" id="m93b0483c22" style="stroke:#000000;stroke-width:0.5;"/>
      </defs>
      <g>
       <use style="stroke:#000000;stroke-width:0.5;" x="52.730625" xlink:href="#m93b0483c22" y="248.694648669"/>
      </g>
     </g>
     <g id="text_1">
      <!-- $a$ -->
      <defs>
       <path d="
M17.3906 -1.125
Q11.0781 -1.125 7.4375 3.64062
Q3.8125 8.40625 3.8125 14.8906
Q3.8125 21.2969 7.125 28.1719
Q10.4531 35.0625 16.0938 39.625
Q21.7344 44.1875 28.2188 44.1875
Q31.2031 44.1875 33.5469 42.5781
Q35.8906 40.9688 37.2031 38.1875
Q38.3281 42.1875 41.6094 42.1875
Q42.875 42.1875 43.7188 41.4219
Q44.5781 40.6719 44.5781 39.4062
Q44.5781 39.1094 44.5469 38.9531
Q44.5312 38.8125 44.4844 38.625
L37.5 10.6875
Q36.8125 7.71875 36.8125 5.8125
Q36.8125 1.51562 39.7031 1.51562
Q42.8281 1.51562 44.4531 5.48438
Q46.0938 9.46875 47.2188 14.7031
Q47.4062 15.2812 48 15.2812
L49.2188 15.2812
Q49.6094 15.2812 49.8438 14.9375
Q50.0938 14.5938 50.0938 14.3125
Q48.3438 7.32812 46.2656 3.09375
Q44.1875 -1.125 39.5 -1.125
Q36.1406 -1.125 33.5469 0.84375
Q30.9531 2.82812 30.3281 6.10938
Q23.875 -1.125 17.3906 -1.125
M17.4844 1.51562
Q21.0938 1.51562 24.4844 4.21875
Q27.875 6.9375 30.3281 10.5938
Q30.4219 10.6875 30.4219 10.8906
L35.7969 32.625
L35.8906 32.9062
Q35.2969 36.4688 33.3125 39.0312
Q31.3438 41.6094 27.9844 41.6094
Q24.6094 41.6094 21.7031 38.8438
Q18.7969 36.0781 16.7969 32.3281
Q14.8438 28.3281 13.0625 21.3438
Q11.2812 14.3594 11.2812 10.5
Q11.2812 7.03125 12.7656 4.26562
Q14.2656 1.51562 17.4844 1.51562" id="Cmmi10-61"/>
      </defs>
      <g transform="translate(47.960625 266.371836169)scale(0.18 -0.18)">
       <use transform="translate(0.0 0.8125)" xlink:href="#Cmmi10-61"/>
      </g>
     </g>
    </g>
    <g id="xtick_2">
     <g id="line2d_6">
      <g>
       <use style="stroke:#000000;stroke-width:0.5;" x="99.4287019231" xlink:href="#m93b0483c22" y="248.694648669"/>
      </g>
     </g>
     <g id="text_2">
      <!-- $x_i$ -->
      <defs>
       <path d="
M7.8125 7.17188
Q7.8125 9.03125 8.59375 11.0781
L16.7031 32.625
Q18.0156 36.2812 18.0156 38.625
Q18.0156 41.6094 15.8281 41.6094
Q11.8594 41.6094 9.29688 37.5312
Q6.73438 33.4531 5.51562 28.4219
Q5.32812 27.7812 4.6875 27.7812
L3.51562 27.7812
Q2.6875 27.7812 2.6875 28.7188
L2.6875 29
Q4.29688 34.9688 7.60938 39.5781
Q10.9375 44.1875 16.0156 44.1875
Q19.5781 44.1875 22.0469 41.8438
Q24.5156 39.5 24.5156 35.8906
Q24.5156 34.0312 23.6875 31.9844
L15.5781 10.5
Q14.2031 7.17188 14.2031 4.5
Q14.2031 1.51562 16.5 1.51562
Q20.4062 1.51562 23.0156 5.6875
Q25.6406 9.85938 26.7031 14.7031
Q26.9062 15.2812 27.4844 15.2812
L28.7188 15.2812
Q29.1094 15.2812 29.3438 15.0156
Q29.5938 14.75 29.5938 14.4062
Q29.5938 14.3125 29.5 14.1094
Q28.125 8.45312 24.7344 3.65625
Q21.3438 -1.125 16.3125 -1.125
Q12.7969 -1.125 10.2969 1.29688
Q7.8125 3.71875 7.8125 7.17188
M19.0938 60.5938
Q19.0938 62.7031 20.8438 64.4062
Q22.6094 66.1094 24.7031 66.1094
Q26.4219 66.1094 27.5156 65.0625
Q28.6094 64.0156 28.6094 62.4062
Q28.6094 60.1562 26.8281 58.4688
Q25.0469 56.7812 22.9062 56.7812
Q21.2969 56.7812 20.1875 57.875
Q19.0938 58.9844 19.0938 60.5938" id="Cmmi10-69"/>
       <path d="
M7.8125 2.875
Q9.57812 1.51562 12.7969 1.51562
Q15.9219 1.51562 18.3125 4.51562
Q20.7031 7.51562 21.5781 11.0781
L26.125 28.8125
Q27.2031 33.6406 27.2031 35.4062
Q27.2031 37.8906 25.8125 39.75
Q24.4219 41.6094 21.9219 41.6094
Q18.75 41.6094 15.9688 39.625
Q13.1875 37.6406 11.2812 34.5938
Q9.375 31.5469 8.59375 28.4219
Q8.40625 27.7812 7.8125 27.7812
L6.59375 27.7812
Q5.8125 27.7812 5.8125 28.7188
L5.8125 29
Q6.78125 32.7188 9.125 36.25
Q11.4688 39.7969 14.8594 41.9844
Q18.2656 44.1875 22.125 44.1875
Q25.7812 44.1875 28.7344 42.2344
Q31.6875 40.2812 32.9062 36.9219
Q34.625 39.9844 37.2812 42.0781
Q39.9375 44.1875 43.1094 44.1875
Q45.2656 44.1875 47.5 43.4219
Q49.75 42.6719 51.1719 41.1094
Q52.5938 39.5469 52.5938 37.2031
Q52.5938 34.6719 50.9531 32.8281
Q49.3125 31 46.7812 31
Q45.1719 31 44.0938 32.0312
Q43.0156 33.0625 43.0156 34.625
Q43.0156 36.7188 44.4531 38.2969
Q45.9062 39.8906 47.9062 40.1875
Q46.0938 41.6094 42.9219 41.6094
Q39.7031 41.6094 37.3281 38.625
Q34.9688 35.6406 33.9844 31.9844
L29.5938 14.3125
Q28.5156 10.2969 28.5156 7.71875
Q28.5156 5.17188 29.9531 3.34375
Q31.3906 1.51562 33.7969 1.51562
Q38.4844 1.51562 42.1562 5.64062
Q45.8438 9.76562 47.0156 14.7031
Q47.2188 15.2812 47.7969 15.2812
L49.0312 15.2812
Q49.4219 15.2812 49.6562 15.0156
Q49.9062 14.75 49.9062 14.4062
Q49.9062 14.3125 49.8125 14.1094
Q48.3906 8.15625 43.8438 3.51562
Q39.3125 -1.125 33.5938 -1.125
Q29.9375 -1.125 26.9844 0.84375
Q24.0312 2.82812 22.7969 6.20312
Q21.2344 3.26562 18.4688 1.0625
Q15.7188 -1.125 12.5938 -1.125
Q10.4531 -1.125 8.17188 -0.359375
Q5.90625 0.390625 4.48438 1.95312
Q3.07812 3.51562 3.07812 5.90625
Q3.07812 8.25 4.70312 10.1719
Q6.34375 12.1094 8.79688 12.1094
Q10.4531 12.1094 11.5781 11.1094
Q12.7031 10.1094 12.7031 8.5
Q12.7031 6.39062 11.2969 4.82812
Q9.90625 3.26562 7.8125 2.875" id="Cmmi10-78"/>
      </defs>
      <g transform="translate(91.1487019231 265.255273669)scale(0.18 -0.18)">
       <use transform="translate(0.0 0.8125)" xlink:href="#Cmmi10-78"/>
       <use transform="translate(57.080078125 -24.696875)scale(0.7)" xlink:href="#Cmmi10-69"/>
      </g>
     </g>
    </g>
    <g id="xtick_3">
     <g id="line2d_7">
      <g>
       <use style="stroke:#000000;stroke-width:0.5;" x="134.452259615" xlink:href="#m93b0483c22" y="248.694648669"/>
      </g>
     </g>
     <g id="text_3">
      <!-- $x_{i+1}$ -->
      <defs>
       <path d="
M7.51562 23
Q6.6875 23 6.14062 23.625
Q5.60938 24.2656 5.60938 25
Q5.60938 25.7344 6.14062 26.3594
Q6.6875 27 7.51562 27
L36.9219 27
L36.9219 56.5
Q36.9219 57.2812 37.5 57.7812
Q38.0938 58.2969 38.9219 58.2969
Q39.6562 58.2969 40.2812 57.7812
Q40.9219 57.2812 40.9219 56.5
L40.9219 27
L70.3125 27
Q71.0469 27 71.5781 26.3594
Q72.125 25.7344 72.125 25
Q72.125 24.2656 71.5781 23.625
Q71.0469 23 70.3125 23
L40.9219 23
L40.9219 -6.5
Q40.9219 -7.28125 40.2812 -7.78125
Q39.6562 -8.29688 38.9219 -8.29688
Q38.0938 -8.29688 37.5 -7.78125
Q36.9219 -7.28125 36.9219 -6.5
L36.9219 23
z
" id="Cmr10-2b"/>
       <path d="
M9.28125 0
L9.28125 3.51562
Q21.7812 3.51562 21.7812 6.6875
L21.7812 59.1875
Q16.6094 56.6875 8.6875 56.6875
L8.6875 60.2031
Q20.9531 60.2031 27.2031 66.6094
L28.6094 66.6094
Q28.9531 66.6094 29.2656 66.3281
Q29.5938 66.0625 29.5938 65.7188
L29.5938 6.6875
Q29.5938 3.51562 42.0938 3.51562
L42.0938 0
z
" id="Cmr10-31"/>
      </defs>
      <g transform="translate(117.532259615 264.355273669)scale(0.18 -0.18)">
       <use transform="translate(0.0 0.8125)" xlink:href="#Cmmi10-78"/>
       <use transform="translate(57.080078125 -24.696875)scale(0.7)" xlink:href="#Cmmi10-69"/>
       <use transform="translate(93.4677734375 -24.696875)scale(0.7)" xlink:href="#Cmr10-2b"/>
       <use transform="translate(152.308789063 -24.696875)scale(0.7)" xlink:href="#Cmr10-31"/>
      </g>
     </g>
    </g>
    <g id="xtick_4">
     <g id="line2d_8">
      <g>
       <use style="stroke:#000000;stroke-width:0.5;" x="204.499375" xlink:href="#m93b0483c22" y="248.694648669"/>
      </g>
     </g>
     <g id="text_4">
      <!-- $b$ -->
      <defs>
       <path d="
M17.2812 -1.125
Q11.2344 -1.125 7.85938 3.60938
Q4.5 8.34375 4.5 14.7031
Q4.5 15.625 4.95312 18.3281
Q5.42188 21.0469 5.42188 21.6875
L15.0938 60.5
Q15.4844 62.2031 15.5781 63.1875
Q15.5781 64.7969 9.07812 64.7969
Q8.10938 64.7969 8.10938 66.1094
Q8.15625 66.3594 8.32812 66.9844
Q8.5 67.625 8.76562 67.9688
Q9.03125 68.3125 9.51562 68.3125
L23 69.3906
Q24.2188 69.3906 24.2188 68.1094
L16.7969 38.625
Q22.4688 44.1875 28.2188 44.1875
Q32.4688 44.1875 35.5156 41.9375
Q38.5781 39.7031 40.0938 36.0312
Q41.6094 32.375 41.6094 28.2188
Q41.6094 23.3906 39.7188 18.2344
Q37.8438 13.0938 34.5156 8.67188
Q31.2031 4.25 26.75 1.5625
Q22.3125 -1.125 17.2812 -1.125
M17.4844 1.51562
Q20.9062 1.51562 23.875 4.375
Q26.8594 7.23438 28.7188 10.7969
Q30.7188 14.7969 32.4531 21.6562
Q34.1875 28.5156 34.1875 32.625
Q34.1875 36.1875 32.6875 38.8906
Q31.2031 41.6094 27.9844 41.6094
Q24.3594 41.6094 21.0625 38.9375
Q17.7812 36.2812 15.2812 32.625
L12.5 21.2969
Q10.8906 14.9844 10.7969 11.1875
Q10.7969 7.42188 12.4219 4.46875
Q14.0625 1.51562 17.4844 1.51562" id="Cmmi10-62"/>
      </defs>
      <g transform="translate(200.629375 266.371836169)scale(0.18 -0.18)">
       <use transform="translate(0.0 0.609375)" xlink:href="#Cmmi10-62"/>
      </g>
     </g>
    </g>
    <g id="text_5">
     <!-- $x$ -->
     <g transform="translate(258.03 248.694648669)scale(0.18 -0.18)">
      <use transform="translate(0.0 0.8125)" xlink:href="#Cmmi10-78"/>
     </g>
    </g>
   </g>
   <g id="matplotlib.axis_2">
    <g id="text_6">
     <!-- $y$ -->
     <defs>
      <path d="
M8.40625 -14.3125
Q10.5 -17.9219 15.7188 -17.9219
Q20.4531 -17.9219 23.9219 -14.5938
Q27.3906 -11.2812 29.5156 -6.5625
Q31.6406 -1.85938 32.8125 3.07812
Q28.375 -1.125 23.1875 -1.125
Q19.2344 -1.125 16.4531 0.234375
Q13.6719 1.60938 12.125 4.3125
Q10.5938 7.03125 10.5938 10.8906
Q10.5938 14.1562 11.4688 17.5938
Q12.3594 21.0469 13.9375 25.2656
Q15.5312 29.5 16.7031 32.625
Q18.0156 36.2812 18.0156 38.625
Q18.0156 41.6094 15.8281 41.6094
Q11.8594 41.6094 9.29688 37.5312
Q6.73438 33.4531 5.51562 28.4219
Q5.32812 27.7812 4.6875 27.7812
L3.51562 27.7812
Q2.6875 27.7812 2.6875 28.7188
L2.6875 29
Q4.29688 34.9688 7.60938 39.5781
Q10.9375 44.1875 16.0156 44.1875
Q19.5781 44.1875 22.0469 41.8438
Q24.5156 39.5 24.5156 35.8906
Q24.5156 34.0312 23.6875 31.9844
Q23.25 30.7656 21.6875 26.6562
Q20.125 22.5625 19.2812 19.875
Q18.4531 17.1875 17.9219 14.5938
Q17.3906 12.0156 17.3906 9.42188
Q17.3906 6.10938 18.7969 3.8125
Q20.2188 1.51562 23.2969 1.51562
Q29.5 1.51562 34.4219 9.07812
L42 39.8906
Q42.3281 41.2188 43.5469 42.1562
Q44.7812 43.1094 46.1875 43.1094
Q47.4062 43.1094 48.3125 42.3281
Q49.2188 41.5469 49.2188 40.2812
Q49.2188 39.7031 49.125 39.5
L39.2031 -0.296875
Q37.8906 -5.42188 34.375 -10.1094
Q30.8594 -14.7969 25.9062 -17.6562
Q20.9531 -20.5156 15.5781 -20.5156
Q12.9844 -20.5156 10.4375 -19.5
Q7.90625 -18.5 6.34375 -16.5
Q4.78125 -14.5 4.78125 -11.8125
Q4.78125 -9.07812 6.39062 -7.07812
Q8.01562 -5.07812 10.6875 -5.07812
Q12.3125 -5.07812 13.4062 -6.07812
Q14.5 -7.07812 14.5 -8.6875
Q14.5 -10.9844 12.7812 -12.6875
Q11.0781 -14.4062 8.79688 -14.4062
Q8.6875 -14.3594 8.59375 -14.3281
Q8.5 -14.3125 8.40625 -14.3125" id="Cmmi10-79"/>
     </defs>
     <g transform="translate(36.5561057692 20.840625)scale(0.18 -0.18)">
      <use transform="translate(0.0 0.8125)" xlink:href="#Cmmi10-79"/>
     </g>
    </g>
   </g>
   <g id="patch_6">
    <path d="
M7.2 248.695
L250.03 248.695" style="fill:none;stroke:#000000;stroke-width:0.8;"/>
   </g>
   <g id="patch_7">
    <path d="
M41.0561 252.931
L41.0561 32.6206" style="fill:none;stroke:#000000;stroke-width:0.8;"/>
   </g>
   <g id="text_7">
    <!-- $B$ -->
    <defs>
     <path d="
M4.98438 0
Q4 0 4 1.3125
Q4.04688 1.5625 4.1875 2.14062
Q4.34375 2.73438 4.57812 3.125
Q4.82812 3.51562 5.32812 3.51562
Q8.15625 3.51562 10.25 3.65625
Q12.3594 3.8125 13.8125 4.20312
Q14.9844 4.64062 15.7188 6.89062
L29.3906 61.8125
Q29.5938 62.7969 29.5938 63.1875
Q29.5938 64.2656 28.4219 64.4062
Q26.5156 64.7969 21.1875 64.7969
Q20.2188 64.7969 20.2188 66.1094
Q20.2656 66.3594 20.4062 66.9688
Q20.5625 67.5781 20.8281 67.9375
Q21.0938 68.3125 21.4844 68.3125
L57.3281 68.3125
Q60.5938 68.3125 63.7969 67.5
Q67 66.7031 69.7031 64.9375
Q72.4062 63.1875 74 60.5625
Q75.5938 57.9531 75.5938 54.5
Q75.5938 50.7344 73.6562 47.5
Q71.7344 44.2812 68.6719 41.8906
Q65.625 39.5 62.0781 37.9531
Q58.5469 36.4219 54.6875 35.6875
Q57.4219 35.6875 60.2188 34.6094
Q63.0312 33.5469 65.2344 31.6875
Q67.4375 29.8281 68.7812 27.2344
Q70.125 24.6562 70.125 21.6875
Q70.125 15.6719 65.9219 10.6875
Q61.7188 5.71875 55.3438 2.85938
Q48.9688 0 43.0156 0
z

M23.3906 4.29688
Q23.3906 3.51562 26.8125 3.51562
L41.1094 3.51562
Q46 3.51562 50.4844 6.21875
Q54.9844 8.9375 57.6875 13.4219
Q60.4062 17.9219 60.4062 22.7969
Q60.4062 25.7812 59.1562 28.4375
Q57.9062 31.1094 55.5625 32.6406
Q53.2188 34.1875 50.2031 34.1875
L30.7188 34.1875
L23.7812 6.5
Q23.3906 5.125 23.3906 4.29688
M31.3906 36.8125
L46.5781 36.8125
Q51.375 36.8125 55.8906 39.25
Q60.4062 41.7031 63.25 45.8906
Q66.1094 50.0938 66.1094 54.7812
Q66.1094 59.125 63.3906 61.9531
Q60.6875 64.7969 56.3906 64.7969
L42.6719 64.7969
Q39.9844 64.7969 39.0625 64.2969
Q38.1406 63.8125 37.5 61.375
z
" id="Cmmi10-42"/>
    </defs>
    <g transform="translate(110.100480769 213.942034024)scale(0.18 -0.18)">
     <use transform="translate(0.0 0.6875)" xlink:href="#Cmmi10-42"/>
    </g>
   </g>
   <g id="text_8">
    <!-- $B = 2f(x_i)\Delta x$ -->
    <defs>
     <path d="
M4.98438 0
L4.98438 2.6875
Q4.98438 2.9375 5.17188 3.21875
L20.7031 20.4062
Q24.2188 24.2188 26.4062 26.7969
Q28.6094 29.3906 30.75 32.7656
Q32.9062 36.1406 34.1562 39.625
Q35.4062 43.1094 35.4062 47.0156
Q35.4062 51.125 33.8906 54.8594
Q32.375 58.5938 29.375 60.8438
Q26.375 63.0938 22.125 63.0938
Q17.7812 63.0938 14.3125 60.4688
Q10.8438 57.8594 9.42188 53.7188
Q9.8125 53.8125 10.5 53.8125
Q12.75 53.8125 14.3281 52.2969
Q15.9219 50.7812 15.9219 48.3906
Q15.9219 46.0938 14.3281 44.5
Q12.75 42.9219 10.5 42.9219
Q8.15625 42.9219 6.5625 44.5469
Q4.98438 46.1875 4.98438 48.3906
Q4.98438 52.1562 6.39062 55.4375
Q7.8125 58.7344 10.4688 61.2969
Q13.1406 63.875 16.4844 65.2344
Q19.8281 66.6094 23.5781 66.6094
Q29.2969 66.6094 34.2188 64.1875
Q39.1562 61.7656 42.0312 57.3438
Q44.9219 52.9375 44.9219 47.0156
Q44.9219 42.6719 43.0156 38.7656
Q41.1094 34.8594 38.125 31.6562
Q35.1562 28.4688 30.5156 24.4062
Q25.875 20.3594 24.4219 19
L13.0938 8.10938
L22.7031 8.10938
Q29.7812 8.10938 34.5469 8.21875
Q39.3125 8.34375 39.5938 8.59375
Q40.7656 9.85938 42 17.8281
L44.9219 17.8281
L42.0938 0
z
" id="Cmr10-32"/>
     <path d="
M7.51562 13.2812
Q6.6875 13.2812 6.14062 13.9062
Q5.60938 14.5469 5.60938 15.2812
Q5.60938 16.1094 6.14062 16.6875
Q6.6875 17.2812 7.51562 17.2812
L70.3125 17.2812
Q71.0469 17.2812 71.5781 16.6875
Q72.125 16.1094 72.125 15.2812
Q72.125 14.5469 71.5781 13.9062
Q71.0469 13.2812 70.3125 13.2812
z

M7.51562 32.7188
Q6.6875 32.7188 6.14062 33.2969
Q5.60938 33.8906 5.60938 34.7188
Q5.60938 35.4531 6.14062 36.0781
Q6.6875 36.7188 7.51562 36.7188
L70.3125 36.7188
Q71.0469 36.7188 71.5781 36.0781
Q72.125 35.4531 72.125 34.7188
Q72.125 33.8906 71.5781 33.2969
Q71.0469 32.7188 70.3125 32.7188
z
" id="Cmr10-3d"/>
     <path d="
M31 -24.8125
Q25.4375 -20.4062 21.4062 -14.7188
Q17.3906 -9.03125 14.8125 -2.57812
Q12.25 3.85938 10.9844 10.8906
Q9.71875 17.9219 9.71875 25
Q9.71875 32.1719 10.9844 39.2031
Q12.25 46.2344 14.8594 52.7344
Q17.4844 59.2344 21.5312 64.8906
Q25.5938 70.5625 31 74.8125
Q31 75 31.5 75
L32.4219 75
Q32.7188 75 32.9531 74.7344
Q33.2031 74.4688 33.2031 74.125
Q33.2031 73.6875 33.0156 73.4844
Q28.125 68.7031 24.875 63.2344
Q21.625 57.7656 19.6406 51.5781
Q17.6719 45.4062 16.7969 38.7812
Q15.9219 32.1719 15.9219 25
Q15.9219 -6.78125 32.9062 -23.2969
Q33.2031 -23.5781 33.2031 -24.125
Q33.2031 -24.3594 32.9375 -24.6719
Q32.6719 -25 32.4219 -25
L31.5 -25
Q31 -25 31 -24.8125" id="Cmr10-28"/>
     <path d="
M6.5 -25
Q5.60938 -25 5.60938 -24.125
Q5.60938 -23.6875 5.8125 -23.4844
Q22.9062 -6.78125 22.9062 25
Q22.9062 56.7812 6 73.2969
Q5.60938 73.5312 5.60938 74.125
Q5.60938 74.4688 5.875 74.7344
Q6.15625 75 6.5 75
L7.42188 75
Q7.71875 75 7.90625 74.8125
Q15.0938 69.1406 19.875 61.0312
Q24.6562 52.9375 26.875 43.75
Q29.1094 34.5781 29.1094 25
Q29.1094 17.9219 27.9062 11.0625
Q26.7031 4.20312 24.0938 -2.45312
Q21.4844 -9.125 17.4844 -14.7656
Q13.4844 -20.4062 7.90625 -24.8125
Q7.71875 -25 7.42188 -25
z
" id="Cmr10-29"/>
     <path d="
M5.42188 0
Q4.59375 0 4.59375 0.78125
Q4.64062 0.875 4.65625 0.921875
Q4.6875 0.984375 4.6875 1.125
L39.1094 70.5156
Q39.5469 71.5781 40.9219 71.5781
L42.2812 71.5781
Q43.6562 71.5781 44.0938 70.5156
L78.5156 1.125
Q78.5625 1.03125 78.5781 0.953125
Q78.6094 0.875 78.6094 0.78125
Q78.6094 0 77.7812 0
z

M12.0156 8.01562
L64.7031 8.01562
L38.375 61.0781
z
" id="Cmr10-a2"/>
     <path d="
M9.71875 -16.5
Q11.5781 -17.9219 14.2031 -17.9219
Q17.7812 -17.9219 20.0156 -10.0156
Q20.9531 -6.20312 25.0938 15.0938
L29.6875 39.5938
L21.0938 39.5938
Q20.125 39.5938 20.125 40.9219
Q20.5156 43.1094 21.3906 43.1094
L30.3281 43.1094
L31.5 49.6094
Q32.0781 52.6406 32.5625 54.8125
Q33.0625 56.9844 33.625 58.8281
Q34.1875 60.6875 35.2969 62.9844
Q37.0156 66.2656 39.9219 68.3906
Q42.8281 70.5156 46.1875 70.5156
Q48.3906 70.5156 50.4688 69.7031
Q52.5469 68.8906 53.8594 67.2812
Q55.1719 65.6719 55.1719 63.4844
Q55.1719 60.9375 53.4844 59.0469
Q51.8125 57.1719 49.4219 57.1719
Q47.7969 57.1719 46.6562 58.1719
Q45.5156 59.1875 45.5156 60.7969
Q45.5156 62.9844 47 64.625
Q48.4844 66.2656 50.6875 66.5
Q48.8281 67.9219 46.0938 67.9219
Q44.5781 67.9219 43.2344 66.5
Q41.8906 65.0938 41.5 63.4844
Q40.875 60.9375 38.7188 49.7031
L37.5 43.1094
L47.7969 43.1094
Q48.7812 43.1094 48.7812 41.7969
Q48.7344 41.5469 48.5781 40.9375
Q48.4375 40.3281 48.1719 39.9531
Q47.9062 39.5938 47.5156 39.5938
L36.8125 39.5938
L32.1719 15.1875
Q31.2969 9.85938 30.1406 4.35938
Q29 -1.125 26.9219 -6.90625
Q24.8594 -12.7031 21.625 -16.6094
Q18.4062 -20.5156 14.0156 -20.5156
Q10.6406 -20.5156 7.98438 -18.5781
Q5.32812 -16.6562 5.32812 -13.4844
Q5.32812 -10.9375 6.95312 -9.04688
Q8.59375 -7.17188 11.0781 -7.17188
Q12.75 -7.17188 13.8594 -8.17188
Q14.9844 -9.1875 14.9844 -10.7969
Q14.9844 -12.9375 13.3906 -14.7188
Q11.8125 -16.5 9.71875 -16.5" id="Cmmi10-66"/>
    </defs>
    <g transform="translate(64.2004807692 59.2207469984)scale(0.18 -0.18)">
     <use xlink:href="#Cmmi10-42"/>
     <use transform="translate(93.33984375 0.0)" xlink:href="#Cmr10-3d"/>
     <use transform="translate(177.3984375 0.0)" xlink:href="#Cmr10-32"/>
     <use transform="translate(227.3984375 0.0)" xlink:href="#Cmmi10-66"/>
     <use transform="translate(276.275390625 0.0)" xlink:href="#Cmr10-28"/>
     <use transform="translate(315.09375 0.0)" xlink:href="#Cmmi10-78"/>
     <use transform="translate(372.173828125 -25.509375)scale(0.7)" xlink:href="#Cmmi10-69"/>
     <use transform="translate(406.59765625 0.0)" xlink:href="#Cmr10-29"/>
     <use transform="translate(445.416015625 0.0)" xlink:href="#Cmr10-a2"/>
     <use transform="translate(528.716796875 0.0)" xlink:href="#Cmmi10-78"/>
    </g>
   </g>
   <g id="text_9">
    <!-- $y=2f(x)$ -->
    <g transform="translate(152.337596154 114.508311789)scale(0.18 -0.18)">
     <use xlink:href="#Cmmi10-79"/>
     <use transform="translate(66.58203125 0.0)" xlink:href="#Cmr10-3d"/>
     <use transform="translate(150.640625 0.0)" xlink:href="#Cmr10-32"/>
     <use transform="translate(200.640625 0.0)" xlink:href="#Cmmi10-66"/>
     <use transform="translate(249.517578125 0.0)" xlink:href="#Cmr10-28"/>
     <use transform="translate(288.3359375 0.0)" xlink:href="#Cmmi10-78"/>
     <use transform="translate(345.416015625 0.0)" xlink:href="#Cmr10-29"/>
    </g>
   </g>
   <g id="line2d_9">
    <path clip-path="url(#p9ce254f00c)" d="
M52.7306 248.695
L52.7306 95.673" style="fill:none;stroke:#000000;stroke-linecap:square;stroke-width:1.5;"/>
   </g>
   <g id="line2d_10">
    <path clip-path="url(#p9ce254f00c)" d="
M11.8698 160.86
L13.0868 159.629
L14.1679 158.471
L17.0812 155.069
L20.0863 151.156
L23.2111 146.696
L27.0421 140.759
L31.5008 133.327
L37.7071 122.36
L50.378 99.6677
L54.3074 93.0691
L58.6262 86.306
L62.5465 80.7307
L65.1768 77.3436
L68.3376 73.6936
L70.7816 71.2116
L73.3296 68.9606
L75.7154 67.1795
L77.9523 65.8073
L79.5028 65.0297
L81.6945 64.1777
L83.9334 63.6107
L86.1156 63.3562
L87.9353 63.3702
L89.9324 63.6223
L91.5769 64.015
L93.3249 64.6143
L95.2589 65.4932
L96.9884 66.4683
L99.5466 68.23
L101.844 70.1273
L104.28 72.4511
L107.137 75.5638
L110.021 79.1014
L113.239 83.4755
L116.587 88.4477
L120.449 94.6347
L125.675 103.589
L133.163 117.051
L140.791 130.708
L145.257 138.306
L149.03 144.333
L152.742 149.805
L155.768 153.87
L159.077 157.85
L162.243 161.16
L164.104 162.863
L166.221 164.568
L168.062 165.845
L170.754 167.357
L172.743 168.195
L174.312 168.687
L176.42 169.109
L178.051 169.247
L180.37 169.158
L182.482 168.786
L184.6 168.138
L186.761 167.196
L188.507 166.23
L191.126 164.448
L193.278 162.693
L195.899 160.216
L198.68 157.201
L201.606 153.628
L204.682 149.47
L207.205 145.782
L210.149 141.202
L213.169 136.242
L218.533 126.941
L236.251 95.4433
L240.939 87.9257
L244.39 82.8494
L245.36 81.5028
L245.36 81.5028" style="fill:none;stroke:#0000ff;stroke-linecap:square;stroke-width:2.0;"/>
   </g>
  </g>
 </g>
 <defs>
  <clipPath id="p9ce254f00c">
   <rect height="220.310769231" width="242.83" x="7.2" y="32.620625"/>
  </clipPath>
 </defs>
</svg>
