<?xml version="1.0" encoding="utf-8" standalone="no"?>
<!DOCTYPE svg PUBLIC "-//W3C//DTD SVG 1.1//EN"
  "http://www.w3.org/Graphics/SVG/1.1/DTD/svg11.dtd">
<!-- Created with matplotlib (http://matplotlib.org/) -->
<svg height="276pt" version="1.1" viewBox="0 0 419 276" width="419pt" xmlns="http://www.w3.org/2000/svg" xmlns:xlink="http://www.w3.org/1999/xlink">
 <defs>
  <style type="text/css">
*{stroke-linecap:butt;stroke-linejoin:round;}
  </style>
 </defs>
 <g id="figure_1">
  <g id="patch_1">
   <path d="
M0 276.898
L419.349 276.898
L419.349 0
L0 0
z
" style="fill:#ffffff;"/>
  </g>
  <g id="axes_1">
   <g id="patch_2">
    <path d="
M7.2 265.963
L397.489 265.963
L397.489 32.6206
L7.2 32.6206
z
" style="fill:#ffffff;"/>
   </g>
   <g id="patch_3">
    <path clip-path="url(#p6dd7ee75f8)" d="
M61.6153 248.278
L61.6153 103.923
L62.5192 103.026
L63.4231 102.144
L64.0704 101.523
L64.7177 100.911
L65.0102 100.636
L65.8213 99.8849
L66.6324 99.1464
L67.4628 98.4036
L68.4777 97.514
L69.4926 96.6442
L70.7141 95.6234
L71.383 95.0764
L72.5425 94.1481
L73.7021 93.2449
L74.0957 92.944
L74.7282 92.4664
L75.3608 91.9961
L76.0317 91.5053
L76.7026 91.0227
L77.5544 90.4217
L78.4061 89.8337
L79.4028 89.1621
L80.3995 88.5081
L80.5163 88.4326
L81.6827 87.6916
L82.8491 86.9744
L83.7534 86.4343
L84.5874 85.9486
L85.4214 85.4748
L85.8236 85.2504
L87.1083 84.5519
L87.8257 84.1738
L88.5431 83.8041
L89.4266 83.3605
L90.3101 82.9295
L91.1646 82.5246
L92.0192 82.1314
L92.7346 81.8111
L93.6358 81.4191
L94.537 81.0398
L94.9928 80.8528
L95.7887 80.5339
L96.5846 80.2247
L97.3241 79.9461
L98.2824 79.5973
L99.2406 79.2623
L100.07 78.9833
L100.899 78.7145
L101.231 78.6096
L102.53 78.2151
L103.488 77.9395
L104.446 77.6769
L105.639 77.368
L106.558 77.1437
L107.866 76.8443
L108.646 76.6768
L109.427 76.5175
L110.265 76.3554
L111.283 76.1712
L112.3 76.0006
L113.176 75.8644
L114.053 75.738
L114.65 75.6575
L115.541 75.5457
L116.432 75.4438
L117.226 75.3613
L118.4 75.2534
L119.474 75.1693
L120.549 75.0989
L121.116 75.0673
L121.931 75.0283
L122.746 74.9971
L123.616 74.9721
L124.685 74.9532
L125.753 74.947
L125.935 74.9472
L127.097 74.9571
L128.258 74.9815
L129.621 75.0285
L130.413 75.0648
L131.793 75.1435
L133.302 75.2516
L134.211 75.3277
L134.874 75.3883
L136.1 75.5115
L137.326 75.6491
L138.354 75.7754
L139.175 75.8831
L140.874 76.1255
L141.563 76.2312
L143.246 76.5065
L144.771 76.7768
L146.027 77.014
L146.888 77.1839
L148.068 77.4264
L149.183 77.6656
L150.279 77.9099
L151.375 78.1632
L152.238 78.3688
L153.334 78.6378
L154.726 78.9915
L155.771 79.266
L156.817 79.5477
L157.073 79.618
L158.848 80.1155
L159.577 80.3257
L161.544 80.9088
L163.074 81.3782
L163.608 81.5451
L165.702 82.2147
L166.252 82.3944
L168.201 83.044
L169.057 83.3354
L170.605 83.8709
L171.219 84.0864
L173.473 84.8916
L173.851 85.0291
L175.847 85.7628
L176.643 86.0597
L178.032 86.5832
L180.142 87.3919
L181.153 87.7841
L182.11 88.1586
L183.391 88.6638
L185.119 89.3524
L186.051 89.7268
L187.248 90.2105
L189.143 90.9829
L190.368 91.4861
L191.36 91.8952
L192 92.1604
L194.212 93.0803
L195.644 93.6788
L196.202 93.9127
L197.718 94.549
L199.046 95.1081
L200.389 95.6743
L201.067 95.9601
L202.75 96.6705
L204.687 97.4877
L206.141 98.1003
L206.243 98.1431
L208.204 98.9673
L208.922 99.2683
L210.703 100.013
L212.415 100.725
L213.552 101.195
L214.218 101.47
L216.104 102.244
L217.323 102.74
L218.524 103.226
L219.305 103.54
L221.375 104.366
L223.026 105.015
L224.267 105.499
L225.078 105.812
L226.762 106.455
L227.454 106.717
L229.421 107.451
L230.167 107.725
L232.048 108.407
L232.7 108.64
L233.9 109.063
L235.594 109.65
L236.923 110.101
L237.744 110.376
L238.882 110.75
L240.466 111.26
L241.863 111.698
L243.554 112.213
L244.774 112.575
L245.294 112.726
L246.855 113.17
L247.684 113.4
L248.941 113.739
L250.198 114.068
L251.37 114.365
L252.167 114.561
L253.922 114.977
L254.562 115.123
L255.762 115.389
L256.819 115.614
L257.876 115.83
L258.788 116.009
L260.41 116.311
L261.478 116.498
L262.257 116.629
L263.384 116.808
L264.512 116.976
L264.599 116.988
L265.793 117.153
L266.986 117.305
L267.464 117.362
L268.489 117.477
L269.513 117.582
L270.048 117.632
L271.316 117.742
L272.86 117.853
L274.221 117.931
L275.387 117.983
L276.629 118.023
L277.62 118.042
L278.612 118.051
L279.945 118.046
L281.214 118.023
L282.268 117.99
L283.536 117.934
L285.014 117.844
L286.546 117.723
L287.557 117.628
L288.95 117.477
L290.351 117.3
L291.593 117.123
L292.673 116.952
L293.815 116.755
L294.605 116.609
L295.396 116.455
L296.66 116.19
L297.158 116.08
L298.405 115.79
L299.677 115.471
L300.991 115.118
L301.761 114.9
L302.531 114.673
L303.598 114.345
L304.664 114.001
L305.037 113.876
L306.417 113.398
L307.365 113.053
L308.458 112.638
L309.55 112.205
L310.612 111.767
L311.4 111.431
L312.188 111.084
L312.888 110.769
L313.587 110.445
L313.944 110.277
L314.971 109.782
L315.999 109.27
L317.042 108.732
L317.72 108.373
L318.67 107.857
L319.619 107.326
L319.619 248.278
z
" style="fill:#008000;opacity:0.5;"/>
   </g>
   <g id="line2d_1">
    <path clip-path="url(#p6dd7ee75f8)" d="
M14.7056 248.278
L389.984 248.278
L389.984 248.278" style="fill:none;"/>
   </g>
   <g id="line2d_2">
    <path clip-path="url(#p6dd7ee75f8)" d="
M61.6153 103.923
L65.838 99.8696
L70.1995 96.05
L73.9622 93.0458
L77.967 90.1352
L82.2643 87.331
L85.4875 85.4377
L89.8475 83.1535
L94.3167 81.1314
L98.074 79.672
L101.67 78.4737
L105.348 77.4417
L109.979 76.4096
L114.773 75.6415
L118.768 75.2231
L123.487 74.9753
L127.464 74.9632
L131.436 75.1213
L136.964 75.607
L142.395 76.3643
L147.709 77.3515
L153.547 78.6911
L158.929 80.1388
L165.998 82.3114
L172.774 84.6398
L181.899 88.0758
L192.736 92.4654
L222.552 104.83
L230.698 107.919
L238.955 110.774
L244.817 112.587
L250.782 114.217
L256.701 115.589
L262.709 116.702
L267.774 117.397
L273.195 117.874
L276.782 118.026
L281.379 118.019
L285.844 117.782
L290.222 117.317
L294.587 116.613
L298.826 115.687
L302.925 114.554
L306.952 113.205
L310.957 111.621
L314.571 109.977
L318.543 107.927
L322.782 105.447
L326.758 102.839
L331.095 99.6709
L334.538 96.909
L338.753 93.2192
L343.074 89.0755
L343.074 89.0755" style="fill:none;stroke:#0000ff;stroke-linecap:square;stroke-width:2.0;"/>
   </g>
   <g id="line2d_3">
    <path clip-path="url(#p6dd7ee75f8)" d="
M61.6153 103.923
L65.8213 99.8849
L69.4926 96.6442
L73.7021 93.2449
L77.5544 90.4217
L81.6827 87.6916
L85.8236 85.2504
L90.3101 82.9295
L94.537 81.0398
L98.2824 79.5973
L102.53 78.2151
L106.558 77.1437
L111.283 76.1712
L115.541 75.5457
L119.474 75.1693
L123.616 74.9721
L128.258 74.9815
L133.302 75.2516
L138.354 75.7754
L143.246 76.5065
L149.183 77.6656
L154.726 78.9915
L159.577 80.3257
L166.252 82.3944
L173.851 85.0291
L182.11 88.1586
L192 92.1604
L225.078 105.812
L233.9 109.063
L240.466 111.26
L246.855 113.17
L252.167 114.561
L257.876 115.83
L263.384 116.808
L268.489 117.477
L272.86 117.853
L277.62 118.042
L282.268 117.99
L286.546 117.723
L290.351 117.3
L294.605 116.609
L298.405 115.79
L302.531 114.673
L306.417 113.398
L310.612 111.767
L313.944 110.277
L317.72 108.373
L319.619 107.326
L319.619 107.326" style="fill:none;stroke:#0000ff;stroke-linecap:square;"/>
   </g>
   <g id="matplotlib.axis_1">
    <g id="xtick_1">
     <g id="line2d_4">
      <defs>
       <path d="
M0 0
L0 -4" id="m93b0483c22" style="stroke:#000000;stroke-width:0.5;"/>
      </defs>
      <g>
       <use style="stroke:#000000;stroke-width:0.5;" x="319.619139123" xlink:href="#m93b0483c22" y="248.277611753"/>
      </g>
     </g>
     <g id="text_1">
      <!-- $x$ -->
      <defs>
       <path d="
M7.8125 2.875
Q9.57812 1.51562 12.7969 1.51562
Q15.9219 1.51562 18.3125 4.51562
Q20.7031 7.51562 21.5781 11.0781
L26.125 28.8125
Q27.2031 33.6406 27.2031 35.4062
Q27.2031 37.8906 25.8125 39.75
Q24.4219 41.6094 21.9219 41.6094
Q18.75 41.6094 15.9688 39.625
Q13.1875 37.6406 11.2812 34.5938
Q9.375 31.5469 8.59375 28.4219
Q8.40625 27.7812 7.8125 27.7812
L6.59375 27.7812
Q5.8125 27.7812 5.8125 28.7188
L5.8125 29
Q6.78125 32.7188 9.125 36.25
Q11.4688 39.7969 14.8594 41.9844
Q18.2656 44.1875 22.125 44.1875
Q25.7812 44.1875 28.7344 42.2344
Q31.6875 40.2812 32.9062 36.9219
Q34.625 39.9844 37.2812 42.0781
Q39.9375 44.1875 43.1094 44.1875
Q45.2656 44.1875 47.5 43.4219
Q49.75 42.6719 51.1719 41.1094
Q52.5938 39.5469 52.5938 37.2031
Q52.5938 34.6719 50.9531 32.8281
Q49.3125 31 46.7812 31
Q45.1719 31 44.0938 32.0312
Q43.0156 33.0625 43.0156 34.625
Q43.0156 36.7188 44.4531 38.2969
Q45.9062 39.8906 47.9062 40.1875
Q46.0938 41.6094 42.9219 41.6094
Q39.7031 41.6094 37.3281 38.625
Q34.9688 35.6406 33.9844 31.9844
L29.5938 14.3125
Q28.5156 10.2969 28.5156 7.71875
Q28.5156 5.17188 29.9531 3.34375
Q31.3906 1.51562 33.7969 1.51562
Q38.4844 1.51562 42.1562 5.64062
Q45.8438 9.76562 47.0156 14.7031
Q47.2188 15.2812 47.7969 15.2812
L49.0312 15.2812
Q49.4219 15.2812 49.6562 15.0156
Q49.9062 14.75 49.9062 14.4062
Q49.9062 14.3125 49.8125 14.1094
Q48.3906 8.15625 43.8438 3.51562
Q39.3125 -1.125 33.5938 -1.125
Q29.9375 -1.125 26.9844 0.84375
Q24.0312 2.82812 22.7969 6.20312
Q21.2344 3.26562 18.4688 1.0625
Q15.7188 -1.125 12.5938 -1.125
Q10.4531 -1.125 8.17188 -0.359375
Q5.90625 0.390625 4.48438 1.95312
Q3.07812 3.51562 3.07812 5.90625
Q3.07812 8.25 4.70312 10.1719
Q6.34375 12.1094 8.79688 12.1094
Q10.4531 12.1094 11.5781 11.1094
Q12.7031 10.1094 12.7031 8.5
Q12.7031 6.39062 11.2969 4.82812
Q9.90625 3.26562 7.8125 2.875" id="Cmmi10-78"/>
      </defs>
      <g transform="translate(314.399139123 265.954799253)scale(0.18 -0.18)">
       <use transform="translate(0.0 0.8125)" xlink:href="#Cmmi10-78"/>
      </g>
     </g>
    </g>
    <g id="text_2">
     <!-- $t$ -->
     <defs>
      <path d="
M6.20312 8.10938
Q6.20312 9.57812 6.5 10.8906
L13.7188 39.5938
L3.21875 39.5938
Q2.20312 39.5938 2.20312 40.9219
Q2.59375 43.1094 3.51562 43.1094
L14.5938 43.1094
L18.6094 59.4219
Q19 60.75 20.1719 61.6719
Q21.3438 62.5938 22.7969 62.5938
Q24.0781 62.5938 24.9219 61.8281
Q25.7812 61.0781 25.7812 59.8125
Q25.7812 59.5156 25.75 59.3438
Q25.7344 59.1875 25.6875 58.9844
L21.6875 43.1094
L31.9844 43.1094
Q33.0156 43.1094 33.0156 41.7969
Q32.9531 41.5469 32.8125 40.9531
Q32.6719 40.375 32.4219 39.9844
Q32.1719 39.5938 31.6875 39.5938
L20.7969 39.5938
L13.625 10.6875
Q12.8906 7.85938 12.8906 5.8125
Q12.8906 1.51562 15.8281 1.51562
Q20.2188 1.51562 23.6094 5.64062
Q27 9.76562 28.8125 14.7031
Q29.2031 15.2812 29.5938 15.2812
L30.8125 15.2812
Q31.2031 15.2812 31.4375 15.0156
Q31.6875 14.75 31.6875 14.4062
Q31.6875 14.2031 31.5938 14.1094
Q29.3906 8.0625 25.1875 3.46875
Q21 -1.125 15.5781 -1.125
Q11.625 -1.125 8.90625 1.45312
Q6.20312 4.04688 6.20312 8.10938" id="Cmmi10-74"/>
     </defs>
     <g transform="translate(405.489375 248.277611753)scale(0.18 -0.18)">
      <use transform="translate(0.0 0.40625)" xlink:href="#Cmmi10-74"/>
     </g>
    </g>
   </g>
   <g id="matplotlib.axis_2">
    <g id="text_3">
     <!-- $y$ -->
     <defs>
      <path d="
M8.40625 -14.3125
Q10.5 -17.9219 15.7188 -17.9219
Q20.4531 -17.9219 23.9219 -14.5938
Q27.3906 -11.2812 29.5156 -6.5625
Q31.6406 -1.85938 32.8125 3.07812
Q28.375 -1.125 23.1875 -1.125
Q19.2344 -1.125 16.4531 0.234375
Q13.6719 1.60938 12.125 4.3125
Q10.5938 7.03125 10.5938 10.8906
Q10.5938 14.1562 11.4688 17.5938
Q12.3594 21.0469 13.9375 25.2656
Q15.5312 29.5 16.7031 32.625
Q18.0156 36.2812 18.0156 38.625
Q18.0156 41.6094 15.8281 41.6094
Q11.8594 41.6094 9.29688 37.5312
Q6.73438 33.4531 5.51562 28.4219
Q5.32812 27.7812 4.6875 27.7812
L3.51562 27.7812
Q2.6875 27.7812 2.6875 28.7188
L2.6875 29
Q4.29688 34.9688 7.60938 39.5781
Q10.9375 44.1875 16.0156 44.1875
Q19.5781 44.1875 22.0469 41.8438
Q24.5156 39.5 24.5156 35.8906
Q24.5156 34.0312 23.6875 31.9844
Q23.25 30.7656 21.6875 26.6562
Q20.125 22.5625 19.2812 19.875
Q18.4531 17.1875 17.9219 14.5938
Q17.3906 12.0156 17.3906 9.42188
Q17.3906 6.10938 18.7969 3.8125
Q20.2188 1.51562 23.2969 1.51562
Q29.5 1.51562 34.4219 9.07812
L42 39.8906
Q42.3281 41.2188 43.5469 42.1562
Q44.7812 43.1094 46.1875 43.1094
Q47.4062 43.1094 48.3125 42.3281
Q49.2188 41.5469 49.2188 40.2812
Q49.2188 39.7031 49.125 39.5
L39.2031 -0.296875
Q37.8906 -5.42188 34.375 -10.1094
Q30.8594 -14.7969 25.9062 -17.6562
Q20.9531 -20.5156 15.5781 -20.5156
Q12.9844 -20.5156 10.4375 -19.5
Q7.90625 -18.5 6.34375 -16.5
Q4.78125 -14.5 4.78125 -11.8125
Q4.78125 -9.07812 6.39062 -7.07812
Q8.01562 -5.07812 10.6875 -5.07812
Q12.3125 -5.07812 13.4062 -6.07812
Q14.5 -7.07812 14.5 -8.6875
Q14.5 -10.9844 12.7812 -12.6875
Q11.0781 -14.4062 8.79688 -14.4062
Q8.6875 -14.3594 8.59375 -14.3281
Q8.5 -14.3125 8.40625 -14.3125" id="Cmmi10-79"/>
     </defs>
     <g transform="translate(57.1153455529 20.840625)scale(0.18 -0.18)">
      <use transform="translate(0.0 0.8125)" xlink:href="#Cmmi10-79"/>
     </g>
    </g>
   </g>
   <g id="patch_4">
    <path d="
M7.2 248.278
L397.489 248.278" style="fill:none;stroke:#000000;stroke-width:0.8;"/>
   </g>
   <g id="patch_5">
    <path d="
M61.6153 265.963
L61.6153 32.6206" style="fill:none;stroke:#000000;stroke-width:0.8;"/>
   </g>
   <g id="text_4">
    <!-- $y=f(t)$ -->
    <defs>
     <path d="
M31 -24.8125
Q25.4375 -20.4062 21.4062 -14.7188
Q17.3906 -9.03125 14.8125 -2.57812
Q12.25 3.85938 10.9844 10.8906
Q9.71875 17.9219 9.71875 25
Q9.71875 32.1719 10.9844 39.2031
Q12.25 46.2344 14.8594 52.7344
Q17.4844 59.2344 21.5312 64.8906
Q25.5938 70.5625 31 74.8125
Q31 75 31.5 75
L32.4219 75
Q32.7188 75 32.9531 74.7344
Q33.2031 74.4688 33.2031 74.125
Q33.2031 73.6875 33.0156 73.4844
Q28.125 68.7031 24.875 63.2344
Q21.625 57.7656 19.6406 51.5781
Q17.6719 45.4062 16.7969 38.7812
Q15.9219 32.1719 15.9219 25
Q15.9219 -6.78125 32.9062 -23.2969
Q33.2031 -23.5781 33.2031 -24.125
Q33.2031 -24.3594 32.9375 -24.6719
Q32.6719 -25 32.4219 -25
L31.5 -25
Q31 -25 31 -24.8125" id="Cmr10-28"/>
     <path d="
M6.5 -25
Q5.60938 -25 5.60938 -24.125
Q5.60938 -23.6875 5.8125 -23.4844
Q22.9062 -6.78125 22.9062 25
Q22.9062 56.7812 6 73.2969
Q5.60938 73.5312 5.60938 74.125
Q5.60938 74.4688 5.875 74.7344
Q6.15625 75 6.5 75
L7.42188 75
Q7.71875 75 7.90625 74.8125
Q15.0938 69.1406 19.875 61.0312
Q24.6562 52.9375 26.875 43.75
Q29.1094 34.5781 29.1094 25
Q29.1094 17.9219 27.9062 11.0625
Q26.7031 4.20312 24.0938 -2.45312
Q21.4844 -9.125 17.4844 -14.7656
Q13.4844 -20.4062 7.90625 -24.8125
Q7.71875 -25 7.42188 -25
z
" id="Cmr10-29"/>
     <path d="
M9.71875 -16.5
Q11.5781 -17.9219 14.2031 -17.9219
Q17.7812 -17.9219 20.0156 -10.0156
Q20.9531 -6.20312 25.0938 15.0938
L29.6875 39.5938
L21.0938 39.5938
Q20.125 39.5938 20.125 40.9219
Q20.5156 43.1094 21.3906 43.1094
L30.3281 43.1094
L31.5 49.6094
Q32.0781 52.6406 32.5625 54.8125
Q33.0625 56.9844 33.625 58.8281
Q34.1875 60.6875 35.2969 62.9844
Q37.0156 66.2656 39.9219 68.3906
Q42.8281 70.5156 46.1875 70.5156
Q48.3906 70.5156 50.4688 69.7031
Q52.5469 68.8906 53.8594 67.2812
Q55.1719 65.6719 55.1719 63.4844
Q55.1719 60.9375 53.4844 59.0469
Q51.8125 57.1719 49.4219 57.1719
Q47.7969 57.1719 46.6562 58.1719
Q45.5156 59.1875 45.5156 60.7969
Q45.5156 62.9844 47 64.625
Q48.4844 66.2656 50.6875 66.5
Q48.8281 67.9219 46.0938 67.9219
Q44.5781 67.9219 43.2344 66.5
Q41.8906 65.0938 41.5 63.4844
Q40.875 60.9375 38.7188 49.7031
L37.5 43.1094
L47.7969 43.1094
Q48.7812 43.1094 48.7812 41.7969
Q48.7344 41.5469 48.5781 40.9375
Q48.4375 40.3281 48.1719 39.9531
Q47.9062 39.5938 47.5156 39.5938
L36.8125 39.5938
L32.1719 15.1875
Q31.2969 9.85938 30.1406 4.35938
Q29 -1.125 26.9219 -6.90625
Q24.8594 -12.7031 21.625 -16.6094
Q18.4062 -20.5156 14.0156 -20.5156
Q10.6406 -20.5156 7.98438 -18.5781
Q5.32812 -16.6562 5.32812 -13.4844
Q5.32812 -10.9375 6.95312 -9.04688
Q8.59375 -7.17188 11.0781 -7.17188
Q12.75 -7.17188 13.8594 -8.17188
Q14.9844 -9.1875 14.9844 -10.7969
Q14.9844 -12.9375 13.3906 -14.7188
Q11.8125 -16.5 9.71875 -16.5" id="Cmmi10-66"/>
     <path d="
M7.51562 13.2812
Q6.6875 13.2812 6.14062 13.9062
Q5.60938 14.5469 5.60938 15.2812
Q5.60938 16.1094 6.14062 16.6875
Q6.6875 17.2812 7.51562 17.2812
L70.3125 17.2812
Q71.0469 17.2812 71.5781 16.6875
Q72.125 16.1094 72.125 15.2812
Q72.125 14.5469 71.5781 13.9062
Q71.0469 13.2812 70.3125 13.2812
z

M7.51562 32.7188
Q6.6875 32.7188 6.14062 33.2969
Q5.60938 33.8906 5.60938 34.7188
Q5.60938 35.4531 6.14062 36.0781
Q6.6875 36.7188 7.51562 36.7188
L70.3125 36.7188
Q71.0469 36.7188 71.5781 36.0781
Q72.125 35.4531 72.125 34.7188
Q72.125 33.8906 71.5781 33.2969
Q71.0469 32.7188 70.3125 32.7188
z
" id="Cmr10-3d"/>
    </defs>
    <g transform="translate(314.814029447 80.3774043196)scale(0.18 -0.18)">
     <use xlink:href="#Cmmi10-79"/>
     <use transform="translate(66.58203125 0.0)" xlink:href="#Cmr10-3d"/>
     <use transform="translate(150.640625 0.0)" xlink:href="#Cmmi10-66"/>
     <use transform="translate(199.517578125 0.0)" xlink:href="#Cmr10-28"/>
     <use transform="translate(238.3359375 0.0)" xlink:href="#Cmmi10-74"/>
     <use transform="translate(274.419921875 0.0)" xlink:href="#Cmr10-29"/>
    </g>
   </g>
   <g id="text_5">
    <!-- $A(x)=\int_0^x f(t) \ dt$ -->
    <defs>
     <path d="
M25 -2.20312
Q12.75 -2.20312 8.32812 7.875
Q3.90625 17.9688 3.90625 31.8906
Q3.90625 40.5781 5.48438 48.2344
Q7.07812 55.9062 11.7812 61.25
Q16.5 66.6094 25 66.6094
Q31.5938 66.6094 35.7812 63.375
Q39.9844 60.1562 42.1875 55.0469
Q44.3906 49.9531 45.1875 44.1094
Q46 38.2812 46 31.8906
Q46 23.2969 44.4062 15.7969
Q42.8281 8.29688 38.1875 3.04688
Q33.5469 -2.20312 25 -2.20312
M25 0.390625
Q30.5625 0.390625 33.2969 6.09375
Q36.0312 11.8125 36.6719 18.75
Q37.3125 25.6875 37.3125 33.5
Q37.3125 41.0156 36.6719 47.3594
Q36.0312 53.7188 33.3125 58.8594
Q30.6094 64.0156 25 64.0156
Q19.3438 64.0156 16.6094 58.8281
Q13.875 53.6562 13.2344 47.3281
Q12.5938 41.0156 12.5938 33.5
Q12.5938 27.9375 12.8594 23
Q13.1406 18.0625 14.3125 12.8125
Q15.4844 7.5625 18.0938 3.96875
Q20.7031 0.390625 25 0.390625" id="Cmr10-30"/>
     <path d="
M10.5938 -217.094
Q13.0938 -219.578 16.7031 -219.578
Q20.3125 -219.578 23.2812 -214.625
Q26.2656 -209.672 28.5156 -202.25
Q30.7656 -194.828 31.8125 -189.812
Q32.8594 -184.812 34.4219 -176.906
Q35.8438 -169.531 37.1562 -162.109
Q38.4844 -154.688 39.875 -146.312
Q41.2656 -137.938 42.7969 -129.312
Q44.3438 -120.703 46.2969 -110.984
Q48.9219 -98.1875 50.0625 -92.6875
Q51.2188 -87.2031 53.5625 -76.8281
Q55.9062 -66.4531 56.6562 -63.1562
Q57.4219 -59.8594 60.9844 -45.125
L62.3125 -39.8906
Q64.5469 -31.1094 65.7656 -26.5938
Q67 -22.0781 69.5625 -15.5469
Q72.125 -9.03125 75.5781 -4.51562
Q79.0469 0 83.2031 0
Q86.1406 0 88.6406 -1.3125
Q91.1562 -2.64062 92.7188 -4.9375
Q94.2812 -7.23438 94.2812 -10.2031
Q94.2812 -12.3594 92.8594 -13.7656
Q91.4531 -15.1875 89.3125 -15.1875
Q87.1094 -15.1875 85.6406 -13.7656
Q84.1875 -12.3594 84.1875 -10.2031
Q84.1875 -8.01562 85.6406 -6.54688
Q87.1094 -5.07812 89.3125 -5.07812
Q86.7188 -2.59375 83.2969 -2.59375
Q81.4531 -2.59375 79.2188 -8
Q77 -13.4219 75.125 -20.7656
Q73.25 -28.125 72.2344 -33.0312
Q71.2344 -37.9375 69.8281 -45.3125
Q68.1719 -53.6562 67.0625 -59.8594
Q65.9688 -66.0625 64.4062 -75.1875
Q62.8438 -84.3281 61.3438 -92.5781
Q59.8594 -100.828 57.8125 -111.188
Q56.5 -117.719 54 -129.562
Q51.5156 -141.406 50.7031 -144.969
Q49.9062 -148.531 46.6094 -162.391
Q43.3125 -176.266 43.1094 -177.094
L41.8906 -181.688
Q39.3125 -192.281 36.6875 -200.312
Q34.0781 -208.344 29.0156 -215.281
Q23.9688 -222.219 16.7031 -222.219
Q12.3594 -222.219 8.98438 -219.281
Q5.60938 -216.359 5.60938 -212.109
Q5.60938 -209.906 7.07812 -208.438
Q8.54688 -206.984 10.6875 -206.984
Q12.1094 -206.984 13.25 -207.656
Q14.4062 -208.344 15.0625 -209.516
Q15.7188 -210.688 15.7188 -212.109
Q15.7188 -214.266 14.25 -215.672
Q12.7969 -217.094 10.5938 -217.094" id="Cmex10-5a"/>
     <path d="
M4.5 0
Q3.51562 0 3.51562 1.3125
Q3.90625 3.51562 4.78125 3.51562
Q8.84375 3.51562 11.7969 5.125
Q14.75 6.73438 16.8906 10.1094
Q17.0938 10.2969 17.0938 10.2969
L52.7812 70.5156
Q53.5625 71.5781 54.6875 71.5781
L56 71.5781
Q56.2969 71.5781 56.5938 71.4531
Q56.8906 71.3438 57.1094 71.0625
Q57.3281 70.7969 57.3281 70.5156
L63.375 5.90625
Q63.375 5.46875 63.8125 4.59375
Q64.7969 3.51562 71.2969 3.51562
Q72.3125 3.51562 72.3125 2.20312
Q71.9688 0.875 71.75 0.4375
Q71.5312 0 70.6094 0
L45.6094 0
Q44.6719 0 44.6719 1.3125
Q45.2188 3.51562 46 3.51562
Q53.9062 3.51562 54.3906 6.20312
L52.875 22.7031
L28.2188 22.7031
L20.2188 9.28125
Q19.4844 8.20312 19.4844 6.78125
Q19.4844 5.03125 21.1719 4.26562
Q22.8594 3.51562 24.9062 3.51562
Q25.875 3.51562 25.875 2.20312
Q25.5312 0.78125 25.3281 0.390625
Q25.1406 0 24.2188 0
z

M30.1719 26.2188
L52.4844 26.2188
L49.5156 58.5938
z
" id="Cmmi10-41"/>
     <path d="
M17.3906 -1.125
Q11.0781 -1.125 7.4375 3.64062
Q3.8125 8.40625 3.8125 14.8906
Q3.8125 21.2969 7.125 28.1719
Q10.4531 35.0625 16.0938 39.625
Q21.7344 44.1875 28.2188 44.1875
Q31.1562 44.1875 33.5156 42.5469
Q35.8906 40.9219 37.2031 38.1875
L42.8281 60.5
Q43.2188 62.2031 43.3125 63.1875
Q43.3125 64.7969 36.8125 64.7969
Q35.7969 64.7969 35.7969 66.1094
Q35.8438 66.3594 36.0156 66.9844
Q36.1875 67.625 36.4531 67.9688
Q36.7188 68.3125 37.2031 68.3125
L50.6875 69.3906
Q51.9062 69.3906 51.9062 68.1094
L37.5 10.5938
Q36.8125 8.9375 36.8125 5.8125
Q36.8125 1.51562 39.7031 1.51562
Q42.8281 1.51562 44.4531 5.48438
Q46.0938 9.46875 47.2188 14.7031
Q47.4062 15.2812 48 15.2812
L49.2188 15.2812
Q49.6094 15.2812 49.8438 14.9375
Q50.0938 14.5938 50.0938 14.3125
Q48.3438 7.32812 46.2656 3.09375
Q44.1875 -1.125 39.5 -1.125
Q36.1406 -1.125 33.5469 0.84375
Q30.9531 2.82812 30.3281 6.10938
Q23.875 -1.125 17.3906 -1.125
M17.4844 1.51562
Q21.0938 1.51562 24.4844 4.21875
Q27.875 6.9375 30.3281 10.5938
Q30.4219 10.6875 30.4219 10.9844
L35.8906 33.0156
Q35.2969 36.5312 33.2969 39.0625
Q31.2969 41.6094 27.9844 41.6094
Q24.6094 41.6094 21.7031 38.8438
Q18.7969 36.0781 16.7969 32.3281
Q14.8438 28.3281 13.0625 21.3438
Q11.2812 14.3594 11.2812 10.5
Q11.2812 7.03125 12.7656 4.26562
Q14.2656 1.51562 17.4844 1.51562" id="Cmmi10-64"/>
    </defs>
    <g transform="translate(122.397242338 173.983214259)scale(0.18 -0.18)">
     <use transform="translate(0.0 0.135416666667)" xlink:href="#Cmmi10-41"/>
     <use transform="translate(75.0 0.135416666667)" xlink:href="#Cmr10-28"/>
     <use transform="translate(113.818359375 0.135416666667)" xlink:href="#Cmmi10-78"/>
     <use transform="translate(170.8984375 0.135416666667)" xlink:href="#Cmr10-29"/>
     <use transform="translate(227.275390625 0.135416666667)" xlink:href="#Cmr10-3d"/>
     <use transform="translate(311.333984375 144.578125)" xlink:href="#Cmex10-5a"/>
     <use transform="translate(406.8509375 119.06875)scale(0.7)" xlink:href="#Cmmi10-78"/>
     <use transform="translate(366.8515625 -103.15)scale(0.7)" xlink:href="#Cmr10-30"/>
     <use transform="translate(480.937265625 0.135416666667)" xlink:href="#Cmmi10-66"/>
     <use transform="translate(529.81421875 0.135416666667)" xlink:href="#Cmr10-28"/>
     <use transform="translate(568.632578125 0.135416666667)" xlink:href="#Cmmi10-74"/>
     <use transform="translate(604.7165625 0.135416666667)" xlink:href="#Cmr10-29"/>
     <use transform="translate(669.8728125 0.135416666667)" xlink:href="#Cmmi10-64"/>
     <use transform="translate(721.874765625 0.135416666667)" xlink:href="#Cmmi10-74"/>
    </g>
   </g>
  </g>
 </g>
 <defs>
  <clipPath id="p6dd7ee75f8">
   <rect height="233.342443439" width="390.289375" x="7.2" y="32.620625"/>
  </clipPath>
 </defs>
</svg>
