<?xml version="1.0" encoding="utf-8" standalone="no"?>
<!DOCTYPE svg PUBLIC "-//W3C//DTD SVG 1.1//EN"
  "http://www.w3.org/Graphics/SVG/1.1/DTD/svg11.dtd">
<!-- Created with matplotlib (http://matplotlib.org/) -->
<svg height="276pt" version="1.1" viewBox="0 0 420 276" width="420pt" xmlns="http://www.w3.org/2000/svg" xmlns:xlink="http://www.w3.org/1999/xlink">
 <defs>
  <style type="text/css">
*{stroke-linecap:butt;stroke-linejoin:round;}
  </style>
 </defs>
 <g id="figure_1">
  <g id="patch_1">
   <path d="
M0 276.48
L420.48 276.48
L420.48 0
L0 0
z
" style="fill:#ffffff;"/>
  </g>
  <g id="axes_1">
   <g id="patch_2">
    <path d="
M7.2 269.28
L413.28 269.28
L413.28 7.2
L7.2 7.2
z
" style="fill:#ffffff;"/>
   </g>
   <g id="patch_3">
    <path clip-path="url(#pee1ae5a8af)" d="
M80.0862 156.24
L80.0862 48.24
L80.2574 48.2406
L80.6636 48.247
L80.9227 48.2547
L81.2401 48.2679
L81.2615 48.269
L81.5759 48.2865
L82.0153 48.318
L82.2809 48.341
L82.5551 48.3678
L82.64 48.3768
L83.0198 48.4204
L83.3357 48.4614
L83.4537 48.4777
L83.6112 48.5005
L83.9503 48.553
L84.2545 48.6041
L84.4289 48.6352
L84.7281 48.6915
L85.0844 48.7633
L85.2422 48.7969
L85.5559 48.8666
L85.8568 48.9373
L86.1309 49.005
L86.2246 49.0289
L86.6672 49.1465
L86.8614 49.2007
L87.2156 49.3035
L87.4834 49.3847
L87.7466 49.4673
L87.9422 49.5306
L88.1271 49.5919
L88.3509 49.6679
L88.645 49.771
L88.8405 49.8415
L89.1785 49.967
L89.513 50.0959
L89.7496 50.1898
L89.9181 50.258
L90.1882 50.3699
L90.5427 50.5212
L90.6675 50.5757
L90.9638 50.7075
L91.2775 50.851
L91.4713 50.9416
L91.6937 51.0476
L92.1251 51.2586
L92.3018 51.3472
L92.6396 51.5201
L92.7301 51.5672
L93.1196 51.7736
L93.3494 51.8983
L93.5727 52.0214
L93.9843 52.2535
L94.017 52.2723
L94.435 52.5154
L94.5896 52.6071
L95.0195 52.867
L95.1351 52.9381
L95.3633 53.08
L95.6309 53.249
L96.0727 53.5342
L96.1139 53.5612
L96.5751 53.8677
L96.7846 54.0097
L96.8812 54.0758
L97.304 54.3689
L97.6205 54.5929
L97.7905 54.7148
L98.1436 54.9715
L98.3056 55.0909
L98.5932 55.3053
L98.7531 55.4258
L99.1964 55.765
L99.329 55.8679
L99.4917 55.9951
L99.9322 56.3443
L100.045 56.4348
L100.497 56.8025
L100.759 57.0193
L100.919 57.1528
L101.146 57.3439
L101.448 57.6012
L101.678 57.7991
L101.907 57.998
L102.147 58.2091
L102.348 58.3869
L102.84 58.829
L103.052 59.0217
L103.317 59.2661
L103.453 59.3918
L103.642 59.5676
L104.106 60.0062
L104.249 60.1429
L104.548 60.4303
L104.8 60.6754
L105.162 61.0311
L105.336 61.2039
L105.644 61.5111
L105.73 61.5979
L106.07 61.9427
L106.257 62.1347
L106.668 62.5592
L106.943 62.846
L107.104 63.0151
L107.346 63.2721
L107.747 63.7006
L107.932 63.9004
L108.123 64.107
L108.497 64.5166
L108.644 64.6786
L108.87 64.9294
L109.221 65.3226
L109.47 65.6034
L109.72 65.8866
L110.003 66.2111
L110.258 66.5047
L110.459 66.7378
L110.682 66.9976
L111.094 67.4823
L111.345 67.7808
L111.64 68.1326
L111.758 68.2747
L112.137 68.7328
L112.312 68.9453
L112.703 69.4251
L112.797 69.5409
L113.133 69.9567
L113.398 70.2869
L113.592 70.531
L113.883 70.8985
L114.242 71.3544
L114.456 71.6276
L114.736 71.9882
L115.024 72.3607
L115.098 72.4569
L115.565 73.0674
L115.823 73.4068
L115.958 73.5845
L116.363 74.1234
L116.406 74.1805
L116.796 74.7031
L117.003 74.9833
L117.401 75.5234
L117.671 75.8919
L117.871 76.1664
L117.999 76.3424
L118.469 76.9916
L118.602 77.1771
L118.876 77.5601
L119 77.7338
L119.461 78.3825
L119.546 78.5039
L119.966 79.1004
L120.132 79.3374
L120.409 79.7348
L120.754 80.2318
L120.864 80.3901
L121.111 80.7481
L121.558 81.4005
L121.697 81.6037
L121.949 81.9738
L122.283 82.468
L122.57 82.8933
L122.693 83.0764
L123.037 83.5891
L123.278 83.95
L123.606 84.4442
L123.899 84.8861
L124.149 85.2653
L124.22 85.3728
L124.645 86.0215
L124.872 86.3692
L125.013 86.5861
L125.466 87.2834
L125.701 87.6464
L125.832 87.8498
L126.26 88.5166
L126.496 88.8858
L126.708 89.2166
L127.043 89.7439
L127.094 89.8244
L127.568 90.572
L127.795 90.9316
L127.857 91.0313
L128.251 91.6573
L128.551 92.1379
L128.653 92.3005
L128.916 92.7222
L129.145 93.0904
L129.65 93.9047
L129.91 94.3269
L130.029 94.5194
L130.244 94.8697
L130.611 95.466
L130.957 96.0318
L131.038 96.1652
L131.317 96.6224
L131.582 97.0573
L131.873 97.5368
L131.873 156.24
z
" style="fill:#008000;opacity:0.5;"/>
   </g>
   <g id="line2d_1">
    <path clip-path="url(#pee1ae5a8af)" d="
M15.0092 156.24
L405.471 156.24
L405.471 156.24" style="fill:none;"/>
   </g>
   <g id="line2d_2">
    <path clip-path="url(#pee1ae5a8af)" d="
M15.0092 120.24
L24.6927 103.564
L31.3207 92.619
L34.9173 86.9579
L40.0713 79.2929
L43.7739 74.1705
L46.4438 70.7028
L50.6682 65.6416
L54.9797 61.0612
L58.5199 57.7769
L59.7822 56.715
L62.4165 54.6899
L64.3143 53.3947
L67.352 51.6145
L70.5549 50.137
L72.9928 49.2928
L74.3362 48.9324
L77.3703 48.3946
L80.8806 48.2532
L82.5675 48.3691
L85.0055 48.747
L87.6132 49.4251
L90.332 50.4306
L93.471 51.9651
L96.7415 53.9804
L98.8876 55.5279
L100.868 57.1103
L103.35 59.2963
L106.871 62.7712
L109.702 65.8666
L113.36 70.2402
L116.907 74.8527
L121.902 81.9055
L124.009 85.0531
L130.52 95.3184
L135.115 102.949
L141.616 114.082
L155.925 138.734
L162.578 149.622
L166.259 155.339
L169.349 159.925
L174.973 167.691
L178.856 172.551
L181.642 175.757
L184.953 179.24
L188.454 182.512
L191.879 185.284
L194.835 187.32
L198.258 189.25
L200.063 190.079
L202.79 191.079
L206.502 191.947
L208.282 192.16
L209.951 192.238
L211.62 192.2
L214.008 191.942
L216.5 191.42
L219.915 190.286
L222.418 189.152
L224.302 188.132
L226.199 186.964
L228.753 185.17
L232.032 182.507
L235.427 179.339
L237.883 176.799
L242.11 171.967
L244.266 169.291
L248.555 163.582
L251.999 158.658
L257.608 150.088
L264.412 138.974
L271.302 127.207
L285.935 101.988
L291.632 92.613
L297.319 83.7741
L300.889 78.5664
L304.539 73.5629
L308.213 68.8904
L311.985 64.5148
L314.502 61.8493
L316.71 59.6883
L320.394 56.4683
L323.809 53.9326
L326.756 52.1057
L329.557 50.6893
L333.168 49.3322
L334.929 48.8655
L337.814 48.3795
L340.146 48.2413
L341.958 48.2913
L344.181 48.5405
L347.162 49.1987
L348.539 49.6271
L350.752 50.4785
L353.106 51.6028
L355.715 53.1074
L359.453 55.7252
L362.412 58.1716
L365.122 60.6893
L368.21 63.8681
L371.983 68.1754
L375.066 72.0163
L379.177 77.5511
L383.28 83.4926
L388.562 91.6636
L395.006 102.246
L404.41 118.397
L405.471 120.24
L405.471 120.24" style="fill:none;stroke:#0000ff;stroke-linecap:square;stroke-width:2.0;"/>
   </g>
   <g id="line2d_3">
    <path clip-path="url(#pee1ae5a8af)" d="
M80.0862 48.24
L82.2809 48.341
L84.7281 48.6915
L87.2156 49.3035
L89.513 50.0959
L91.6937 51.0476
L94.017 52.2723
L96.7846 54.0097
L99.329 55.8679
L102.147 58.2091
L104.8 60.6754
L107.932 63.9004
L111.094 67.4823
L114.456 71.6276
L117.999 76.3424
L121.949 81.9738
L126.26 88.5166
L131.317 96.6224
L131.873 97.5368
L131.873 97.5368" style="fill:none;stroke:#0000ff;stroke-linecap:square;"/>
   </g>
   <g id="line2d_4">
    <path clip-path="url(#pee1ae5a8af)" d="
M131.873 156.24
L131.873 97.5368" style="fill:none;stroke:#000000;stroke-linecap:square;"/>
   </g>
   <g id="matplotlib.axis_1">
    <g id="xtick_1">
     <g id="line2d_5">
      <defs>
       <path d="
M0 0
L0 -4" id="m93b0483c22" style="stroke:#000000;stroke-width:0.5;"/>
      </defs>
      <g>
       <use style="stroke:#000000;stroke-width:0.5;" x="131.872723791" xlink:href="#m93b0483c22" y="156.24"/>
      </g>
     </g>
     <g id="text_1">
      <!-- $x$ -->
      <defs>
       <path d="
M7.8125 2.875
Q9.57812 1.51562 12.7969 1.51562
Q15.9219 1.51562 18.3125 4.51562
Q20.7031 7.51562 21.5781 11.0781
L26.125 28.8125
Q27.2031 33.6406 27.2031 35.4062
Q27.2031 37.8906 25.8125 39.75
Q24.4219 41.6094 21.9219 41.6094
Q18.75 41.6094 15.9688 39.625
Q13.1875 37.6406 11.2812 34.5938
Q9.375 31.5469 8.59375 28.4219
Q8.40625 27.7812 7.8125 27.7812
L6.59375 27.7812
Q5.8125 27.7812 5.8125 28.7188
L5.8125 29
Q6.78125 32.7188 9.125 36.25
Q11.4688 39.7969 14.8594 41.9844
Q18.2656 44.1875 22.125 44.1875
Q25.7812 44.1875 28.7344 42.2344
Q31.6875 40.2812 32.9062 36.9219
Q34.625 39.9844 37.2812 42.0781
Q39.9375 44.1875 43.1094 44.1875
Q45.2656 44.1875 47.5 43.4219
Q49.75 42.6719 51.1719 41.1094
Q52.5938 39.5469 52.5938 37.2031
Q52.5938 34.6719 50.9531 32.8281
Q49.3125 31 46.7812 31
Q45.1719 31 44.0938 32.0312
Q43.0156 33.0625 43.0156 34.625
Q43.0156 36.7188 44.4531 38.2969
Q45.9062 39.8906 47.9062 40.1875
Q46.0938 41.6094 42.9219 41.6094
Q39.7031 41.6094 37.3281 38.625
Q34.9688 35.6406 33.9844 31.9844
L29.5938 14.3125
Q28.5156 10.2969 28.5156 7.71875
Q28.5156 5.17188 29.9531 3.34375
Q31.3906 1.51562 33.7969 1.51562
Q38.4844 1.51562 42.1562 5.64062
Q45.8438 9.76562 47.0156 14.7031
Q47.2188 15.2812 47.7969 15.2812
L49.0312 15.2812
Q49.4219 15.2812 49.6562 15.0156
Q49.9062 14.75 49.9062 14.4062
Q49.9062 14.3125 49.8125 14.1094
Q48.3906 8.15625 43.8438 3.51562
Q39.3125 -1.125 33.5938 -1.125
Q29.9375 -1.125 26.9844 0.84375
Q24.0312 2.82812 22.7969 6.20312
Q21.2344 3.26562 18.4688 1.0625
Q15.7188 -1.125 12.5938 -1.125
Q10.4531 -1.125 8.17188 -0.359375
Q5.90625 0.390625 4.48438 1.95312
Q3.07812 3.51562 3.07812 5.90625
Q3.07812 8.25 4.70312 10.1719
Q6.34375 12.1094 8.79688 12.1094
Q10.4531 12.1094 11.5781 11.1094
Q12.7031 10.1094 12.7031 8.5
Q12.7031 6.39062 11.2969 4.82812
Q9.90625 3.26562 7.8125 2.875" id="Cmmi10-78"/>
      </defs>
      <g transform="translate(126.652723791 173.9171875)scale(0.18 -0.18)">
       <use transform="translate(0.0 0.8125)" xlink:href="#Cmmi10-78"/>
      </g>
     </g>
    </g>
    <g id="xtick_2">
     <g id="line2d_6">
      <g>
       <use style="stroke:#000000;stroke-width:0.5;" x="210.24" xlink:href="#m93b0483c22" y="156.24"/>
      </g>
     </g>
     <g id="text_2">
      <!-- $\pi$ -->
      <defs>
       <path d="
M10.1094 1.70312
Q10.1094 2.25 10.5 3.32812
Q13.2812 9.125 15.6875 14.7188
Q18.1094 20.3125 20.0312 25.6094
Q21.9688 30.9062 23.5781 36.9219
L17.1875 36.9219
Q13.5312 36.9219 10.3438 34.625
Q7.17188 32.3281 5.07812 28.8125
Q4.89062 28.4219 4.5 28.4219
L3.32812 28.4219
Q2.39062 28.4219 2.39062 29.3906
Q2.39062 29.5938 2.59375 29.9844
Q5.85938 35.5469 9.59375 39.3281
Q13.3281 43.1094 18.0156 43.1094
L54.2969 43.1094
Q55.3281 43.1094 56.0469 42.4219
Q56.7812 41.75 56.7812 40.5781
Q56.7812 39.1094 55.7344 38.0156
Q54.6875 36.9219 53.2188 36.9219
L40.4844 36.9219
Q38.875 29.0469 38.7188 21.5781
Q38.7188 11.9688 42.0938 4.20312
Q42.3906 3.60938 42.3906 2.98438
Q42.3906 1.90625 41.75 0.96875
Q41.1094 0.046875 40.1094 -0.53125
Q39.1094 -1.125 37.9844 -1.125
Q35.3594 -1.125 34.375 3.17188
Q33.4062 7.46875 33.4062 11.5312
Q33.4062 17.2344 34.375 22.5312
Q35.3594 27.8281 37.5 36.9219
L26.6094 36.9219
Q18.7031 4.89062 17.0938 1.60938
Q15.6719 -1.125 13.1875 -1.125
Q11.9688 -1.125 11.0312 -0.3125
Q10.1094 0.484375 10.1094 1.70312" id="Cmmi10-bc"/>
      </defs>
      <g transform="translate(205.11 173.9171875)scale(0.18 -0.18)">
       <use transform="translate(0.0 0.890625)" xlink:href="#Cmmi10-bc"/>
      </g>
     </g>
    </g>
    <g id="xtick_3">
     <g id="line2d_7">
      <g>
       <use style="stroke:#000000;stroke-width:0.5;" x="340.393846154" xlink:href="#m93b0483c22" y="156.24"/>
      </g>
     </g>
     <g id="text_3">
      <!-- $2\pi$ -->
      <defs>
       <path d="
M4.98438 0
L4.98438 2.6875
Q4.98438 2.9375 5.17188 3.21875
L20.7031 20.4062
Q24.2188 24.2188 26.4062 26.7969
Q28.6094 29.3906 30.75 32.7656
Q32.9062 36.1406 34.1562 39.625
Q35.4062 43.1094 35.4062 47.0156
Q35.4062 51.125 33.8906 54.8594
Q32.375 58.5938 29.375 60.8438
Q26.375 63.0938 22.125 63.0938
Q17.7812 63.0938 14.3125 60.4688
Q10.8438 57.8594 9.42188 53.7188
Q9.8125 53.8125 10.5 53.8125
Q12.75 53.8125 14.3281 52.2969
Q15.9219 50.7812 15.9219 48.3906
Q15.9219 46.0938 14.3281 44.5
Q12.75 42.9219 10.5 42.9219
Q8.15625 42.9219 6.5625 44.5469
Q4.98438 46.1875 4.98438 48.3906
Q4.98438 52.1562 6.39062 55.4375
Q7.8125 58.7344 10.4688 61.2969
Q13.1406 63.875 16.4844 65.2344
Q19.8281 66.6094 23.5781 66.6094
Q29.2969 66.6094 34.2188 64.1875
Q39.1562 61.7656 42.0312 57.3438
Q44.9219 52.9375 44.9219 47.0156
Q44.9219 42.6719 43.0156 38.7656
Q41.1094 34.8594 38.125 31.6562
Q35.1562 28.4688 30.5156 24.4062
Q25.875 20.3594 24.4219 19
L13.0938 8.10938
L22.7031 8.10938
Q29.7812 8.10938 34.5469 8.21875
Q39.3125 8.34375 39.5938 8.59375
Q40.7656 9.85938 42 17.8281
L44.9219 17.8281
L42.0938 0
z
" id="Cmr10-32"/>
      </defs>
      <g transform="translate(330.763846154 173.9171875)scale(0.18 -0.18)">
       <use transform="translate(0.0 0.390625)" xlink:href="#Cmr10-32"/>
       <use transform="translate(50.0 0.390625)" xlink:href="#Cmmi10-bc"/>
      </g>
     </g>
    </g>
   </g>
   <g id="matplotlib.axis_2">
    <g id="ytick_1">
     <g id="line2d_8">
      <defs>
       <path d="
M0 0
L4 0" id="m728421d6d4" style="stroke:#000000;stroke-width:0.5;"/>
      </defs>
      <g>
       <use style="stroke:#000000;stroke-width:0.5;" x="80.0861538462" xlink:href="#m728421d6d4" y="228.24"/>
      </g>
     </g>
     <g id="text_4">
      <!-- -1 -->
      <defs>
       <path d="
M12.4062 8.29688
L28.5156 8.29688
L28.5156 63.9219
L10.9844 60.4062
L10.9844 69.3906
L28.4219 72.9062
L38.2812 72.9062
L38.2812 8.29688
L54.3906 8.29688
L54.3906 0
L12.4062 0
z
" id="BitstreamVeraSans-Roman-31"/>
       <path d="
M4.89062 31.3906
L31.2031 31.3906
L31.2031 23.3906
L4.89062 23.3906
z
" id="BitstreamVeraSans-Roman-2d"/>
      </defs>
      <g transform="translate(60.6820913462 233.206875)scale(0.18 -0.18)">
       <use xlink:href="#BitstreamVeraSans-Roman-2d"/>
       <use x="36.083984375" xlink:href="#BitstreamVeraSans-Roman-31"/>
      </g>
     </g>
    </g>
    <g id="ytick_2">
     <g id="line2d_9">
      <g>
       <use style="stroke:#000000;stroke-width:0.5;" x="80.0861538462" xlink:href="#m728421d6d4" y="84.24"/>
      </g>
     </g>
     <g id="text_5">
      <!-- 1 -->
      <g transform="translate(68.2730288462 89.206875)scale(0.18 -0.18)">
       <use xlink:href="#BitstreamVeraSans-Roman-31"/>
      </g>
     </g>
    </g>
   </g>
   <g id="patch_4">
    <path d="
M7.2 156.24
L413.28 156.24" style="fill:none;stroke:#000000;stroke-width:0.8;"/>
   </g>
   <g id="patch_5">
    <path d="
M80.0862 269.28
L80.0862 7.2" style="fill:none;stroke:#000000;stroke-width:0.8;"/>
   </g>
   <g id="text_6">
    <!-- $y=f(t)$ -->
    <defs>
     <path d="
M31 -24.8125
Q25.4375 -20.4062 21.4062 -14.7188
Q17.3906 -9.03125 14.8125 -2.57812
Q12.25 3.85938 10.9844 10.8906
Q9.71875 17.9219 9.71875 25
Q9.71875 32.1719 10.9844 39.2031
Q12.25 46.2344 14.8594 52.7344
Q17.4844 59.2344 21.5312 64.8906
Q25.5938 70.5625 31 74.8125
Q31 75 31.5 75
L32.4219 75
Q32.7188 75 32.9531 74.7344
Q33.2031 74.4688 33.2031 74.125
Q33.2031 73.6875 33.0156 73.4844
Q28.125 68.7031 24.875 63.2344
Q21.625 57.7656 19.6406 51.5781
Q17.6719 45.4062 16.7969 38.7812
Q15.9219 32.1719 15.9219 25
Q15.9219 -6.78125 32.9062 -23.2969
Q33.2031 -23.5781 33.2031 -24.125
Q33.2031 -24.3594 32.9375 -24.6719
Q32.6719 -25 32.4219 -25
L31.5 -25
Q31 -25 31 -24.8125" id="Cmr10-28"/>
     <path d="
M6.5 -25
Q5.60938 -25 5.60938 -24.125
Q5.60938 -23.6875 5.8125 -23.4844
Q22.9062 -6.78125 22.9062 25
Q22.9062 56.7812 6 73.2969
Q5.60938 73.5312 5.60938 74.125
Q5.60938 74.4688 5.875 74.7344
Q6.15625 75 6.5 75
L7.42188 75
Q7.71875 75 7.90625 74.8125
Q15.0938 69.1406 19.875 61.0312
Q24.6562 52.9375 26.875 43.75
Q29.1094 34.5781 29.1094 25
Q29.1094 17.9219 27.9062 11.0625
Q26.7031 4.20312 24.0938 -2.45312
Q21.4844 -9.125 17.4844 -14.7656
Q13.4844 -20.4062 7.90625 -24.8125
Q7.71875 -25 7.42188 -25
z
" id="Cmr10-29"/>
     <path d="
M7.51562 13.2812
Q6.6875 13.2812 6.14062 13.9062
Q5.60938 14.5469 5.60938 15.2812
Q5.60938 16.1094 6.14062 16.6875
Q6.6875 17.2812 7.51562 17.2812
L70.3125 17.2812
Q71.0469 17.2812 71.5781 16.6875
Q72.125 16.1094 72.125 15.2812
Q72.125 14.5469 71.5781 13.9062
Q71.0469 13.2812 70.3125 13.2812
z

M7.51562 32.7188
Q6.6875 32.7188 6.14062 33.2969
Q5.60938 33.8906 5.60938 34.7188
Q5.60938 35.4531 6.14062 36.0781
Q6.6875 36.7188 7.51562 36.7188
L70.3125 36.7188
Q71.0469 36.7188 71.5781 36.0781
Q72.125 35.4531 72.125 34.7188
Q72.125 33.8906 71.5781 33.2969
Q71.0469 32.7188 70.3125 32.7188
z
" id="Cmr10-3d"/>
     <path d="
M6.20312 8.10938
Q6.20312 9.57812 6.5 10.8906
L13.7188 39.5938
L3.21875 39.5938
Q2.20312 39.5938 2.20312 40.9219
Q2.59375 43.1094 3.51562 43.1094
L14.5938 43.1094
L18.6094 59.4219
Q19 60.75 20.1719 61.6719
Q21.3438 62.5938 22.7969 62.5938
Q24.0781 62.5938 24.9219 61.8281
Q25.7812 61.0781 25.7812 59.8125
Q25.7812 59.5156 25.75 59.3438
Q25.7344 59.1875 25.6875 58.9844
L21.6875 43.1094
L31.9844 43.1094
Q33.0156 43.1094 33.0156 41.7969
Q32.9531 41.5469 32.8125 40.9531
Q32.6719 40.375 32.4219 39.9844
Q32.1719 39.5938 31.6875 39.5938
L20.7969 39.5938
L13.625 10.6875
Q12.8906 7.85938 12.8906 5.8125
Q12.8906 1.51562 15.8281 1.51562
Q20.2188 1.51562 23.6094 5.64062
Q27 9.76562 28.8125 14.7031
Q29.2031 15.2812 29.5938 15.2812
L30.8125 15.2812
Q31.2031 15.2812 31.4375 15.0156
Q31.6875 14.75 31.6875 14.4062
Q31.6875 14.2031 31.5938 14.1094
Q29.3906 8.0625 25.1875 3.46875
Q21 -1.125 15.5781 -1.125
Q11.625 -1.125 8.90625 1.45312
Q6.20312 4.04688 6.20312 8.10938" id="Cmmi10-74"/>
     <path d="
M9.71875 -16.5
Q11.5781 -17.9219 14.2031 -17.9219
Q17.7812 -17.9219 20.0156 -10.0156
Q20.9531 -6.20312 25.0938 15.0938
L29.6875 39.5938
L21.0938 39.5938
Q20.125 39.5938 20.125 40.9219
Q20.5156 43.1094 21.3906 43.1094
L30.3281 43.1094
L31.5 49.6094
Q32.0781 52.6406 32.5625 54.8125
Q33.0625 56.9844 33.625 58.8281
Q34.1875 60.6875 35.2969 62.9844
Q37.0156 66.2656 39.9219 68.3906
Q42.8281 70.5156 46.1875 70.5156
Q48.3906 70.5156 50.4688 69.7031
Q52.5469 68.8906 53.8594 67.2812
Q55.1719 65.6719 55.1719 63.4844
Q55.1719 60.9375 53.4844 59.0469
Q51.8125 57.1719 49.4219 57.1719
Q47.7969 57.1719 46.6562 58.1719
Q45.5156 59.1875 45.5156 60.7969
Q45.5156 62.9844 47 64.625
Q48.4844 66.2656 50.6875 66.5
Q48.8281 67.9219 46.0938 67.9219
Q44.5781 67.9219 43.2344 66.5
Q41.8906 65.0938 41.5 63.4844
Q40.875 60.9375 38.7188 49.7031
L37.5 43.1094
L47.7969 43.1094
Q48.7812 43.1094 48.7812 41.7969
Q48.7344 41.5469 48.5781 40.9375
Q48.4375 40.3281 48.1719 39.9531
Q47.9062 39.5938 47.5156 39.5938
L36.8125 39.5938
L32.1719 15.1875
Q31.2969 9.85938 30.1406 4.35938
Q29 -1.125 26.9219 -6.90625
Q24.8594 -12.7031 21.625 -16.6094
Q18.4062 -20.5156 14.0156 -20.5156
Q10.6406 -20.5156 7.98438 -18.5781
Q5.32812 -16.6562 5.32812 -13.4844
Q5.32812 -10.9375 6.95312 -9.04688
Q8.59375 -7.17188 11.0781 -7.17188
Q12.75 -7.17188 13.8594 -8.17188
Q14.9844 -9.1875 14.9844 -10.7969
Q14.9844 -12.9375 13.3906 -14.7188
Q11.8125 -16.5 9.71875 -16.5" id="Cmmi10-66"/>
     <path d="
M8.40625 -14.3125
Q10.5 -17.9219 15.7188 -17.9219
Q20.4531 -17.9219 23.9219 -14.5938
Q27.3906 -11.2812 29.5156 -6.5625
Q31.6406 -1.85938 32.8125 3.07812
Q28.375 -1.125 23.1875 -1.125
Q19.2344 -1.125 16.4531 0.234375
Q13.6719 1.60938 12.125 4.3125
Q10.5938 7.03125 10.5938 10.8906
Q10.5938 14.1562 11.4688 17.5938
Q12.3594 21.0469 13.9375 25.2656
Q15.5312 29.5 16.7031 32.625
Q18.0156 36.2812 18.0156 38.625
Q18.0156 41.6094 15.8281 41.6094
Q11.8594 41.6094 9.29688 37.5312
Q6.73438 33.4531 5.51562 28.4219
Q5.32812 27.7812 4.6875 27.7812
L3.51562 27.7812
Q2.6875 27.7812 2.6875 28.7188
L2.6875 29
Q4.29688 34.9688 7.60938 39.5781
Q10.9375 44.1875 16.0156 44.1875
Q19.5781 44.1875 22.0469 41.8438
Q24.5156 39.5 24.5156 35.8906
Q24.5156 34.0312 23.6875 31.9844
Q23.25 30.7656 21.6875 26.6562
Q20.125 22.5625 19.2812 19.875
Q18.4531 17.1875 17.9219 14.5938
Q17.3906 12.0156 17.3906 9.42188
Q17.3906 6.10938 18.7969 3.8125
Q20.2188 1.51562 23.2969 1.51562
Q29.5 1.51562 34.4219 9.07812
L42 39.8906
Q42.3281 41.2188 43.5469 42.1562
Q44.7812 43.1094 46.1875 43.1094
Q47.4062 43.1094 48.3125 42.3281
Q49.2188 41.5469 49.2188 40.2812
Q49.2188 39.7031 49.125 39.5
L39.2031 -0.296875
Q37.8906 -5.42188 34.375 -10.1094
Q30.8594 -14.7969 25.9062 -17.6562
Q20.9531 -20.5156 15.5781 -20.5156
Q12.9844 -20.5156 10.4375 -19.5
Q7.90625 -18.5 6.34375 -16.5
Q4.78125 -14.5 4.78125 -11.8125
Q4.78125 -9.07812 6.39062 -7.07812
Q8.01562 -5.07812 10.6875 -5.07812
Q12.3125 -5.07812 13.4062 -6.07812
Q14.5 -7.07812 14.5 -8.6875
Q14.5 -10.9844 12.7812 -12.6875
Q11.0781 -14.4062 8.79688 -14.4062
Q8.6875 -14.3594 8.59375 -14.3281
Q8.5 -14.3125 8.40625 -14.3125" id="Cmmi10-79"/>
    </defs>
    <g transform="translate(227.900491658 88.74)scale(0.18 -0.18)">
     <use xlink:href="#Cmmi10-79"/>
     <use transform="translate(66.58203125 0.0)" xlink:href="#Cmr10-3d"/>
     <use transform="translate(150.640625 0.0)" xlink:href="#Cmmi10-66"/>
     <use transform="translate(199.517578125 0.0)" xlink:href="#Cmr10-28"/>
     <use transform="translate(238.3359375 0.0)" xlink:href="#Cmmi10-74"/>
     <use transform="translate(274.419921875 0.0)" xlink:href="#Cmr10-29"/>
    </g>
   </g>
   <g id="PathCollection_1">
    <defs>
     <path d="
M0 2.73861
C0.726289 2.73861 1.42293 2.45006 1.93649 1.93649
C2.45006 1.42293 2.73861 0.726289 2.73861 0
C2.73861 -0.726289 2.45006 -1.42293 1.93649 -1.93649
C1.42293 -2.45006 0.726289 -2.73861 0 -2.73861
C-0.726289 -2.73861 -1.42293 -2.45006 -1.93649 -1.93649
C-2.45006 -1.42293 -2.73861 -0.726289 -2.73861 0
C-2.73861 0.726289 -2.45006 1.42293 -1.93649 1.93649
C-1.42293 2.45006 -0.726289 2.73861 0 2.73861
z
" id="C0_0_976255c095"/>
    </defs>
    <g clip-path="url(#pee1ae5a8af)">
     <use style="fill:#ff0000;" x="131.872723791" xlink:href="#C0_0_976255c095" y="97.5367899075"/>
    </g>
   </g>
  </g>
 </g>
 <defs>
  <clipPath id="pee1ae5a8af">
   <rect height="262.08" width="406.08" x="7.2" y="7.2"/>
  </clipPath>
 </defs>
</svg>
