<?xml version="1.0" encoding="utf-8" standalone="no"?>
<!DOCTYPE svg PUBLIC "-//W3C//DTD SVG 1.1//EN"
  "http://www.w3.org/Graphics/SVG/1.1/DTD/svg11.dtd">
<!-- Created with matplotlib (http://matplotlib.org/) -->
<svg height="272pt" version="1.1" viewBox="0 0 274 272" width="274pt" xmlns="http://www.w3.org/2000/svg" xmlns:xlink="http://www.w3.org/1999/xlink">
 <defs>
  <style type="text/css">
*{stroke-linecap:butt;stroke-linejoin:round;}
  </style>
 </defs>
 <g id="figure_1">
  <g id="patch_1">
   <path d="
M0 272.636
L274.216 272.636
L274.216 0
L0 0
z
" style="fill:#ffffff;"/>
  </g>
  <g id="axes_1">
   <g id="patch_2">
    <path d="
M19.2209 248.955
L252.356 248.955
L252.356 33.2
L19.2209 33.2
z
" style="fill:#ffffff;"/>
   </g>
   <g id="patch_3">
    <path clip-path="url(#peb40f7712c)" d="
M79.7464 244.015
L79.7464 176.049
L80.3219 175.901
L80.7734 175.784
L81.2248 175.666
L81.7205 175.534
L82.2162 175.401
L82.4103 175.348
L82.7632 175.252
L83.1161 175.155
L83.4691 175.057
L83.822 174.958
L84.1358 174.869
L84.732 174.699
L85.0962 174.593
L85.4603 174.487
L85.9308 174.349
L86.4013 174.209
L86.8419 174.076
L87.2825 173.943
L87.823 173.777
L88.3635 173.609
L88.6865 173.508
L89.0094 173.406
L89.2066 173.343
L89.5372 173.238
L89.8678 173.131
L90.1984 173.024
L90.5289 172.917
L90.9245 172.787
L91.3201 172.656
L91.4396 172.616
L91.8603 172.475
L92.2809 172.333
L92.8285 172.146
L93.3761 171.958
L93.8678 171.787
L94.2437 171.655
L94.6195 171.522
L94.9878 171.391
L95.3561 171.259
L95.6868 171.139
L96.0175 171.019
L96.3387 170.902
L96.6598 170.784
L97.0199 170.65
L97.3801 170.516
L97.7402 170.381
L98.1003 170.245
L98.6519 170.036
L99.0988 169.864
L99.5674 169.683
L100.036 169.5
L100.386 169.362
L100.737 169.224
L101.231 169.027
L101.58 168.887
L101.928 168.746
L102.277 168.605
L102.625 168.463
L102.943 168.333
L103.26 168.202
L103.702 168.018
L104.144 167.834
L104.7 167.599
L105.019 167.464
L105.338 167.328
L105.735 167.157
L106.132 166.986
L106.635 166.767
L107.168 166.534
L107.701 166.298
L108.097 166.122
L108.493 165.944
L108.823 165.796
L109.154 165.646
L109.765 165.367
L110.246 165.146
L110.845 164.869
L111.443 164.59
L111.794 164.425
L112.13 164.266
L112.466 164.106
L112.802 163.946
L113.138 163.785
L113.645 163.54
L114.078 163.33
L114.51 163.119
L114.945 162.905
L115.516 162.622
L116.088 162.337
L116.254 162.254
L116.607 162.077
L116.959 161.898
L117.311 161.719
L117.664 161.54
L117.908 161.415
L118.249 161.239
L118.589 161.064
L118.98 160.86
L119.372 160.656
L119.689 160.49
L120.006 160.323
L120.388 160.121
L120.771 159.918
L121.134 159.724
L121.497 159.529
L122.02 159.247
L122.544 158.963
L122.979 158.725
L123.415 158.486
L123.765 158.293
L124.114 158.099
L124.632 157.811
L125.15 157.52
L125.73 157.193
L126.147 156.957
L126.563 156.719
L126.908 156.521
L127.254 156.323
L127.843 155.981
L128.241 155.75
L128.639 155.517
L128.948 155.336
L129.258 155.153
L129.586 154.959
L129.914 154.764
L130.328 154.518
L130.742 154.27
L131.085 154.064
L131.428 153.856
L131.948 153.541
L132.469 153.223
L132.715 153.072
L133.242 152.748
L133.769 152.422
L134.278 152.104
L134.788 151.785
L135.206 151.522
L135.563 151.297
L135.919 151.071
L136.5 150.701
L136.942 150.418
L137.383 150.133
L137.697 149.93
L138.011 149.726
L138.326 149.522
L138.64 149.317
L138.983 149.092
L139.345 148.854
L139.707 148.615
L140.103 148.353
L140.498 148.09
L140.967 147.776
L141.437 147.461
L141.789 147.224
L142.141 146.985
L142.549 146.708
L142.957 146.43
L143.315 146.185
L143.673 145.939
L144.188 145.584
L144.703 145.227
L145.052 144.984
L145.401 144.74
L145.886 144.4
L146.364 144.063
L146.688 143.833
L147.012 143.604
L147.336 143.373
L147.66 143.142
L148.252 142.717
L148.66 142.423
L149.067 142.129
L149.484 141.825
L150.038 141.421
L150.592 141.015
L151.058 140.672
L151.415 140.408
L151.772 140.143
L152.304 139.746
L152.837 139.347
L153.266 139.025
L153.694 138.702
L154 138.47
L154.306 138.238
L154.653 137.974
L154.999 137.709
L155.315 137.467
L155.651 137.209
L155.987 136.95
L156.466 136.58
L156.945 136.208
L157.253 135.967
L157.562 135.726
L157.87 135.485
L158.178 135.242
L158.548 134.951
L158.918 134.658
L159.284 134.369
L159.649 134.078
L159.996 133.801
L160.342 133.524
L160.895 133.08
L161.389 132.682
L161.882 132.282
L162.039 132.155
L162.486 131.791
L162.933 131.425
L163.371 131.066
L163.809 130.705
L164.268 130.325
L164.576 130.07
L164.883 129.815
L165.19 129.559
L165.498 129.302
L165.87 128.99
L166.242 128.677
L166.576 128.397
L166.909 128.115
L167.395 127.703
L167.875 127.295
L168.355 126.885
L168.815 126.49
L169.275 126.094
L169.685 125.741
L170.282 125.223
L170.719 124.843
L171.156 124.461
L171.463 124.192
L171.77 123.922
L172.077 123.652
L172.384 123.381
L172.547 123.237
L173.044 122.797
L173.54 122.355
L174.079 121.874
L174.423 121.566
L174.766 121.258
L175.109 120.949
L175.453 120.639
L176.046 120.101
L176.364 119.812
L176.798 119.416
L177.232 119.019
L177.664 118.623
L178.096 118.225
L178.463 117.887
L178.829 117.547
L179.362 117.052
L179.895 116.555
L180.083 116.379
L180.422 116.062
L180.761 115.744
L181.1 115.425
L181.438 115.106
L181.796 114.767
L182.36 114.232
L182.924 113.694
L183.311 113.324
L183.698 112.953
L183.89 112.769
L184.455 112.225
L185.02 111.679
L185.555 111.159
L186.043 110.683
L186.619 110.12
L187.194 109.555
L187.673 109.084
L188.151 108.611
L188.561 108.204
L188.971 107.796
L189.124 107.644
L189.432 107.337
L189.74 107.029
L190.048 106.72
L190.355 106.411
L190.771 105.993
L191.186 105.574
L191.773 104.979
L192.136 104.611
L192.498 104.242
L192.876 103.855
L193.319 103.402
L193.762 102.947
L194.15 102.548
L194.537 102.148
L195.086 101.579
L195.635 101.008
L196.18 100.44
L196.589 100.012
L196.896 99.6905
L197.202 99.3684
L197.509 99.0457
L197.815 98.7224
L198.23 98.2833
L198.646 97.8431
L199.004 97.4618
L199.34 97.1046
L199.675 96.7467
L199.997 96.4027
L200.318 96.058
L200.848 95.4889
L201.377 94.918
L201.767 94.4968
L202.156 94.0745
L202.624 93.5656
L203.092 93.0552
L203.535 92.5708
L203.978 92.085
L204.404 91.6174
L204.889 91.0828
L205.374 90.5466
L205.749 90.1302
L206.125 89.7129
L206.293 89.5261
L206.616 89.1653
L206.94 88.8038
L207.264 88.4416
L207.587 88.0787
L207.999 87.6162
L208.541 87.0046
L208.859 86.6462
L209.176 86.2872
L209.493 85.9275
L209.81 85.5671
L210.192 85.1325
L210.623 84.6405
L211.054 84.1473
L211.467 83.6731
L211.88 83.1978
L212.204 82.8244
L212.528 82.4503
L212.923 81.9935
L213.317 81.5357
L213.752 81.03
L214.187 80.523
L214.669 79.9597
L215.176 79.3655
L215.683 78.7696
L216.134 78.2371
L216.586 77.7032
L216.992 77.2219
L217.398 76.7395
L217.713 76.3653
L218.027 75.9905
L218.402 75.5434
L218.776 75.0954
L219.3 74.4657
L219.854 73.7988
L220.408 73.1299
L220.765 72.6979
L221.122 72.265
L221.358 71.9787
L221.686 71.5795
L222.013 71.1797
L222.341 70.7791
L222.669 70.3778
L223.086 69.8672
L223.502 69.3554
L223.594 69.2417
L224.063 68.6637
L224.532 68.0842
L225.118 67.3582
L225.704 66.6299
L225.819 66.4861
L226.191 66.0215
L226.564 65.5561
L226.936 65.0897
L227.308 64.6224
L227.361 64.5565
L227.938 63.8304
L228.515 63.1021
L228.853 62.6734
L229.192 62.2439
L229.192 244.015
z
" style="fill:#008000;opacity:0.5;"/>
   </g>
   <g id="line2d_1">
    <path clip-path="url(#peb40f7712c)" d="
M23.7043 244.015
L247.873 244.015
L247.873 244.015" style="fill:none;"/>
   </g>
   <g id="line2d_2">
    <path clip-path="url(#peb40f7712c)" d="
M23.7043 179.605
L29.5714 180.233
L35.484 180.629
L41.2144 180.786
L46.849 180.723
L52.5679 180.438
L58.4262 179.916
L63.922 179.215
L69.8429 178.229
L75.8186 176.993
L81.4642 175.603
L87.1683 173.978
L93.2401 172.005
L98.6814 170.024
L104.764 167.572
L110.805 164.888
L116.846 161.956
L122.728 158.862
L128.906 155.361
L134.939 151.69
L141.204 147.618
L147.319 143.385
L153.893 138.551
L160.243 133.604
L166.755 128.245
L173.164 122.69
L179.747 116.694
L186.526 110.211
L193.145 103.58
L200.13 96.2596
L207.175 88.5403
L214.145 80.5718
L221.119 72.2683
L228.11 63.613
L235.165 54.5422
L242.701 44.478
L247.873 37.3491
L247.873 37.3491" style="fill:none;stroke:#0000ff;stroke-linecap:square;stroke-width:2.0;"/>
   </g>
   <g id="line2d_3">
    <path clip-path="url(#peb40f7712c)" d="
M79.7464 176.049
L85.4603 174.487
L91.4396 172.616
L97.3801 170.516
L103.26 168.202
L109.154 165.646
L114.945 162.905
L121.134 159.724
L127.254 156.323
L133.242 152.748
L139.707 148.615
L145.886 144.4
L152.304 139.746
L158.918 134.658
L165.498 129.302
L172.077 123.652
L178.829 117.547
L185.555 111.159
L192.498 104.242
L199.34 97.1046
L206.293 89.5261
L213.317 81.5357
L220.408 73.1299
L227.361 64.5565
L229.192 62.2439
L229.192 62.2439" style="fill:none;stroke:#0000ff;stroke-linecap:square;"/>
   </g>
   <g id="matplotlib.axis_1">
    <g id="xtick_1">
     <g id="line2d_4">
      <defs>
       <path d="
M0 0
L0 -4" id="m93b0483c22" style="stroke:#000000;stroke-width:0.5;"/>
      </defs>
      <g>
       <use style="stroke:#000000;stroke-width:0.5;" x="79.7463859098" xlink:href="#m93b0483c22" y="244.015285594"/>
      </g>
     </g>
     <g id="text_1">
      <!-- 1 -->
      <defs>
       <path d="
M12.4062 8.29688
L28.5156 8.29688
L28.5156 63.9219
L10.9844 60.4062
L10.9844 69.3906
L28.4219 72.9062
L38.2812 72.9062
L38.2812 8.29688
L54.3906 8.29688
L54.3906 0
L12.4062 0
z
" id="BitstreamVeraSans-Roman-31"/>
      </defs>
      <g transform="translate(75.8398234098 261.692473094)scale(0.18 -0.18)">
       <use xlink:href="#BitstreamVeraSans-Roman-31"/>
      </g>
     </g>
    </g>
    <g id="xtick_2">
     <g id="line2d_5">
      <g>
       <use style="stroke:#000000;stroke-width:0.5;" x="154.469157729" xlink:href="#m93b0483c22" y="244.015285594"/>
      </g>
     </g>
     <g id="text_2">
      <!-- 3 -->
      <defs>
       <path d="
M40.5781 39.3125
Q47.6562 37.7969 51.625 33
Q55.6094 28.2188 55.6094 21.1875
Q55.6094 10.4062 48.1875 4.48438
Q40.7656 -1.42188 27.0938 -1.42188
Q22.5156 -1.42188 17.6562 -0.515625
Q12.7969 0.390625 7.625 2.20312
L7.625 11.7188
Q11.7188 9.32812 16.5938 8.10938
Q21.4844 6.89062 26.8125 6.89062
Q36.0781 6.89062 40.9375 10.5469
Q45.7969 14.2031 45.7969 21.1875
Q45.7969 27.6406 41.2812 31.2656
Q36.7656 34.9062 28.7188 34.9062
L20.2188 34.9062
L20.2188 43.0156
L29.1094 43.0156
Q36.375 43.0156 40.2344 45.9219
Q44.0938 48.8281 44.0938 54.2969
Q44.0938 59.9062 40.1094 62.9062
Q36.1406 65.9219 28.7188 65.9219
Q24.6562 65.9219 20.0156 65.0312
Q15.375 64.1562 9.8125 62.3125
L9.8125 71.0938
Q15.4375 72.6562 20.3438 73.4375
Q25.25 74.2188 29.5938 74.2188
Q40.8281 74.2188 47.3594 69.1094
Q53.9062 64.0156 53.9062 55.3281
Q53.9062 49.2656 50.4375 45.0938
Q46.9688 40.9219 40.5781 39.3125" id="BitstreamVeraSans-Roman-33"/>
      </defs>
      <g transform="translate(150.150563979 261.692473094)scale(0.18 -0.18)">
       <use xlink:href="#BitstreamVeraSans-Roman-33"/>
      </g>
     </g>
    </g>
    <g id="xtick_3">
     <g id="line2d_6">
      <g>
       <use style="stroke:#000000;stroke-width:0.5;" x="229.191929549" xlink:href="#m93b0483c22" y="244.015285594"/>
      </g>
     </g>
     <g id="text_3">
      <!-- 5 -->
      <defs>
       <path d="
M10.7969 72.9062
L49.5156 72.9062
L49.5156 64.5938
L19.8281 64.5938
L19.8281 46.7344
Q21.9688 47.4688 24.1094 47.8281
Q26.2656 48.1875 28.4219 48.1875
Q40.625 48.1875 47.75 41.5
Q54.8906 34.8125 54.8906 23.3906
Q54.8906 11.625 47.5625 5.09375
Q40.2344 -1.42188 26.9062 -1.42188
Q22.3125 -1.42188 17.5469 -0.640625
Q12.7969 0.140625 7.71875 1.70312
L7.71875 11.625
Q12.1094 9.23438 16.7969 8.0625
Q21.4844 6.89062 26.7031 6.89062
Q35.1562 6.89062 40.0781 11.3281
Q45.0156 15.7656 45.0156 23.3906
Q45.0156 31 40.0781 35.4375
Q35.1562 39.8906 26.7031 39.8906
Q22.75 39.8906 18.8125 39.0156
Q14.8906 38.1406 10.7969 36.2812
z
" id="BitstreamVeraSans-Roman-35"/>
      </defs>
      <g transform="translate(224.946460799 261.692473094)scale(0.18 -0.18)">
       <use xlink:href="#BitstreamVeraSans-Roman-35"/>
      </g>
     </g>
    </g>
    <g id="text_4">
     <!-- $t$ -->
     <defs>
      <path d="
M6.20312 8.10938
Q6.20312 9.57812 6.5 10.8906
L13.7188 39.5938
L3.21875 39.5938
Q2.20312 39.5938 2.20312 40.9219
Q2.59375 43.1094 3.51562 43.1094
L14.5938 43.1094
L18.6094 59.4219
Q19 60.75 20.1719 61.6719
Q21.3438 62.5938 22.7969 62.5938
Q24.0781 62.5938 24.9219 61.8281
Q25.7812 61.0781 25.7812 59.8125
Q25.7812 59.5156 25.75 59.3438
Q25.7344 59.1875 25.6875 58.9844
L21.6875 43.1094
L31.9844 43.1094
Q33.0156 43.1094 33.0156 41.7969
Q32.9531 41.5469 32.8125 40.9531
Q32.6719 40.375 32.4219 39.9844
Q32.1719 39.5938 31.6875 39.5938
L20.7969 39.5938
L13.625 10.6875
Q12.8906 7.85938 12.8906 5.8125
Q12.8906 1.51562 15.8281 1.51562
Q20.2188 1.51562 23.6094 5.64062
Q27 9.76562 28.8125 14.7031
Q29.2031 15.2812 29.5938 15.2812
L30.8125 15.2812
Q31.2031 15.2812 31.4375 15.0156
Q31.6875 14.75 31.6875 14.4062
Q31.6875 14.2031 31.5938 14.1094
Q29.3906 8.0625 25.1875 3.46875
Q21 -1.125 15.5781 -1.125
Q11.625 -1.125 8.90625 1.45312
Q6.20312 4.04688 6.20312 8.10938" id="Cmmi10-74"/>
     </defs>
     <g transform="translate(260.355988813 244.015285594)scale(0.18 -0.18)">
      <use transform="translate(0.0 0.40625)" xlink:href="#Cmmi10-74"/>
     </g>
    </g>
   </g>
   <g id="matplotlib.axis_2">
    <g id="ytick_1">
     <g id="line2d_7">
      <defs>
       <path d="
M0 0
L4 0" id="m728421d6d4" style="stroke:#000000;stroke-width:0.5;"/>
      </defs>
      <g>
       <use style="stroke:#000000;stroke-width:0.5;" x="42.385" xlink:href="#m728421d6d4" y="212.402871634"/>
      </g>
     </g>
     <g id="text_5">
      <!-- 20 -->
      <defs>
       <path d="
M19.1875 8.29688
L53.6094 8.29688
L53.6094 0
L7.32812 0
L7.32812 8.29688
Q12.9375 14.1094 22.625 23.8906
Q32.3281 33.6875 34.8125 36.5312
Q39.5469 41.8438 41.4219 45.5312
Q43.3125 49.2188 43.3125 52.7812
Q43.3125 58.5938 39.2344 62.25
Q35.1562 65.9219 28.6094 65.9219
Q23.9688 65.9219 18.8125 64.3125
Q13.6719 62.7031 7.8125 59.4219
L7.8125 69.3906
Q13.7656 71.7812 18.9375 73
Q24.125 74.2188 28.4219 74.2188
Q39.75 74.2188 46.4844 68.5469
Q53.2188 62.8906 53.2188 53.4219
Q53.2188 48.9219 51.5312 44.8906
Q49.8594 40.875 45.4062 35.4062
Q44.1875 33.9844 37.6406 27.2188
Q31.1094 20.4531 19.1875 8.29688" id="BitstreamVeraSans-Roman-32"/>
       <path d="
M31.7812 66.4062
Q24.1719 66.4062 20.3281 58.9062
Q16.5 51.4219 16.5 36.375
Q16.5 21.3906 20.3281 13.8906
Q24.1719 6.39062 31.7812 6.39062
Q39.4531 6.39062 43.2812 13.8906
Q47.125 21.3906 47.125 36.375
Q47.125 51.4219 43.2812 58.9062
Q39.4531 66.4062 31.7812 66.4062
M31.7812 74.2188
Q44.0469 74.2188 50.5156 64.5156
Q56.9844 54.8281 56.9844 36.375
Q56.9844 17.9688 50.5156 8.26562
Q44.0469 -1.42188 31.7812 -1.42188
Q19.5312 -1.42188 13.0625 8.26562
Q6.59375 17.9688 6.59375 36.375
Q6.59375 54.8281 13.0625 64.5156
Q19.5312 74.2188 31.7812 74.2188" id="BitstreamVeraSans-Roman-30"/>
      </defs>
      <g transform="translate(17.994375 217.369746634)scale(0.18 -0.18)">
       <use xlink:href="#BitstreamVeraSans-Roman-32"/>
       <use x="63.623046875" xlink:href="#BitstreamVeraSans-Roman-30"/>
      </g>
     </g>
    </g>
    <g id="ytick_2">
     <g id="line2d_8">
      <g>
       <use style="stroke:#000000;stroke-width:0.5;" x="42.385" xlink:href="#m728421d6d4" y="180.790457674"/>
      </g>
     </g>
     <g id="text_6">
      <!-- 40 -->
      <defs>
       <path d="
M37.7969 64.3125
L12.8906 25.3906
L37.7969 25.3906
z

M35.2031 72.9062
L47.6094 72.9062
L47.6094 25.3906
L58.0156 25.3906
L58.0156 17.1875
L47.6094 17.1875
L47.6094 0
L37.7969 0
L37.7969 17.1875
L4.89062 17.1875
L4.89062 26.7031
z
" id="BitstreamVeraSans-Roman-34"/>
      </defs>
      <g transform="translate(17.555625 185.757332674)scale(0.18 -0.18)">
       <use xlink:href="#BitstreamVeraSans-Roman-34"/>
       <use x="63.623046875" xlink:href="#BitstreamVeraSans-Roman-30"/>
      </g>
     </g>
    </g>
    <g id="ytick_3">
     <g id="line2d_9">
      <g>
       <use style="stroke:#000000;stroke-width:0.5;" x="42.385" xlink:href="#m728421d6d4" y="149.178043715"/>
      </g>
     </g>
     <g id="text_7">
      <!-- 60 -->
      <defs>
       <path d="
M33.0156 40.375
Q26.375 40.375 22.4844 35.8281
Q18.6094 31.2969 18.6094 23.3906
Q18.6094 15.5312 22.4844 10.9531
Q26.375 6.39062 33.0156 6.39062
Q39.6562 6.39062 43.5312 10.9531
Q47.4062 15.5312 47.4062 23.3906
Q47.4062 31.2969 43.5312 35.8281
Q39.6562 40.375 33.0156 40.375
M52.5938 71.2969
L52.5938 62.3125
Q48.875 64.0625 45.0938 64.9844
Q41.3125 65.9219 37.5938 65.9219
Q27.8281 65.9219 22.6719 59.3281
Q17.5312 52.7344 16.7969 39.4062
Q19.6719 43.6562 24.0156 45.9219
Q28.375 48.1875 33.5938 48.1875
Q44.5781 48.1875 50.9531 41.5156
Q57.3281 34.8594 57.3281 23.3906
Q57.3281 12.1562 50.6875 5.35938
Q44.0469 -1.42188 33.0156 -1.42188
Q20.3594 -1.42188 13.6719 8.26562
Q6.98438 17.9688 6.98438 36.375
Q6.98438 53.6562 15.1875 63.9375
Q23.3906 74.2188 37.2031 74.2188
Q40.9219 74.2188 44.7031 73.4844
Q48.4844 72.75 52.5938 71.2969" id="BitstreamVeraSans-Roman-36"/>
      </defs>
      <g transform="translate(17.9325 154.144918715)scale(0.18 -0.18)">
       <use xlink:href="#BitstreamVeraSans-Roman-36"/>
       <use x="63.623046875" xlink:href="#BitstreamVeraSans-Roman-30"/>
      </g>
     </g>
    </g>
    <g id="ytick_4">
     <g id="line2d_10">
      <g>
       <use style="stroke:#000000;stroke-width:0.5;" x="42.385" xlink:href="#m728421d6d4" y="117.565629755"/>
      </g>
     </g>
     <g id="text_8">
      <!-- 80 -->
      <defs>
       <path d="
M31.7812 34.625
Q24.75 34.625 20.7188 30.8594
Q16.7031 27.0938 16.7031 20.5156
Q16.7031 13.9219 20.7188 10.1562
Q24.75 6.39062 31.7812 6.39062
Q38.8125 6.39062 42.8594 10.1719
Q46.9219 13.9688 46.9219 20.5156
Q46.9219 27.0938 42.8906 30.8594
Q38.875 34.625 31.7812 34.625
M21.9219 38.8125
Q15.5781 40.375 12.0312 44.7188
Q8.5 49.0781 8.5 55.3281
Q8.5 64.0625 14.7188 69.1406
Q20.9531 74.2188 31.7812 74.2188
Q42.6719 74.2188 48.875 69.1406
Q55.0781 64.0625 55.0781 55.3281
Q55.0781 49.0781 51.5312 44.7188
Q48 40.375 41.7031 38.8125
Q48.8281 37.1562 52.7969 32.3125
Q56.7812 27.4844 56.7812 20.5156
Q56.7812 9.90625 50.3125 4.23438
Q43.8438 -1.42188 31.7812 -1.42188
Q19.7344 -1.42188 13.25 4.23438
Q6.78125 9.90625 6.78125 20.5156
Q6.78125 27.4844 10.7812 32.3125
Q14.7969 37.1562 21.9219 38.8125
M18.3125 54.3906
Q18.3125 48.7344 21.8438 45.5625
Q25.3906 42.3906 31.7812 42.3906
Q38.1406 42.3906 41.7188 45.5625
Q45.3125 48.7344 45.3125 54.3906
Q45.3125 60.0625 41.7188 63.2344
Q38.1406 66.4062 31.7812 66.4062
Q25.3906 66.4062 21.8438 63.2344
Q18.3125 60.0625 18.3125 54.3906" id="BitstreamVeraSans-Roman-38"/>
      </defs>
      <g transform="translate(17.8959375 122.532504755)scale(0.18 -0.18)">
       <use xlink:href="#BitstreamVeraSans-Roman-38"/>
       <use x="63.623046875" xlink:href="#BitstreamVeraSans-Roman-30"/>
      </g>
     </g>
    </g>
    <g id="ytick_5">
     <g id="line2d_11">
      <g>
       <use style="stroke:#000000;stroke-width:0.5;" x="42.385" xlink:href="#m728421d6d4" y="85.9532157952"/>
      </g>
     </g>
     <g id="text_9">
      <!-- 100 -->
      <g transform="translate(7.2 90.9200907952)scale(0.18 -0.18)">
       <use xlink:href="#BitstreamVeraSans-Roman-31"/>
       <use x="63.623046875" xlink:href="#BitstreamVeraSans-Roman-30"/>
       <use x="127.24609375" xlink:href="#BitstreamVeraSans-Roman-30"/>
      </g>
     </g>
    </g>
    <g id="ytick_6">
     <g id="line2d_12">
      <g>
       <use style="stroke:#000000;stroke-width:0.5;" x="42.385" xlink:href="#m728421d6d4" y="54.3408018355"/>
      </g>
     </g>
     <g id="text_10">
      <!-- 120 -->
      <g transform="translate(7.2 59.3076768355)scale(0.18 -0.18)">
       <use xlink:href="#BitstreamVeraSans-Roman-31"/>
       <use x="63.623046875" xlink:href="#BitstreamVeraSans-Roman-32"/>
       <use x="127.24609375" xlink:href="#BitstreamVeraSans-Roman-30"/>
      </g>
     </g>
    </g>
    <g id="text_11">
     <!-- $v(t)$ -->
     <defs>
      <path d="
M31 -24.8125
Q25.4375 -20.4062 21.4062 -14.7188
Q17.3906 -9.03125 14.8125 -2.57812
Q12.25 3.85938 10.9844 10.8906
Q9.71875 17.9219 9.71875 25
Q9.71875 32.1719 10.9844 39.2031
Q12.25 46.2344 14.8594 52.7344
Q17.4844 59.2344 21.5312 64.8906
Q25.5938 70.5625 31 74.8125
Q31 75 31.5 75
L32.4219 75
Q32.7188 75 32.9531 74.7344
Q33.2031 74.4688 33.2031 74.125
Q33.2031 73.6875 33.0156 73.4844
Q28.125 68.7031 24.875 63.2344
Q21.625 57.7656 19.6406 51.5781
Q17.6719 45.4062 16.7969 38.7812
Q15.9219 32.1719 15.9219 25
Q15.9219 -6.78125 32.9062 -23.2969
Q33.2031 -23.5781 33.2031 -24.125
Q33.2031 -24.3594 32.9375 -24.6719
Q32.6719 -25 32.4219 -25
L31.5 -25
Q31 -25 31 -24.8125" id="Cmr10-28"/>
      <path d="
M6.5 -25
Q5.60938 -25 5.60938 -24.125
Q5.60938 -23.6875 5.8125 -23.4844
Q22.9062 -6.78125 22.9062 25
Q22.9062 56.7812 6 73.2969
Q5.60938 73.5312 5.60938 74.125
Q5.60938 74.4688 5.875 74.7344
Q6.15625 75 6.5 75
L7.42188 75
Q7.71875 75 7.90625 74.8125
Q15.0938 69.1406 19.875 61.0312
Q24.6562 52.9375 26.875 43.75
Q29.1094 34.5781 29.1094 25
Q29.1094 17.9219 27.9062 11.0625
Q26.7031 4.20312 24.0938 -2.45312
Q21.4844 -9.125 17.4844 -14.7656
Q13.4844 -20.4062 7.90625 -24.8125
Q7.71875 -25 7.42188 -25
z
" id="Cmr10-29"/>
      <path d="
M10.6875 11.2812
Q10.6875 13.5312 11.2188 16.2031
Q11.7656 18.8906 12.2969 20.625
Q12.8438 22.3594 14.75 27.3906
Q16.6562 32.4219 16.7031 32.625
Q18.0156 36.2812 18.0156 38.625
Q18.0156 41.6094 15.8281 41.6094
Q11.8594 41.6094 9.29688 37.5312
Q6.73438 33.4531 5.51562 28.4219
Q5.32812 27.7812 4.6875 27.7812
L3.51562 27.7812
Q2.6875 27.7812 2.6875 28.7188
L2.6875 29
Q4.29688 34.9688 7.60938 39.5781
Q10.9375 44.1875 16.0156 44.1875
Q19.5781 44.1875 22.0469 41.8438
Q24.5156 39.5 24.5156 35.8906
Q24.5156 34.0312 23.6875 31.9844
Q21.7344 26.9062 20.6094 23.8438
Q19.4844 20.7969 18.5312 17.0156
Q17.5781 13.2344 17.5781 10.0156
Q17.5781 6.25 19.3125 3.875
Q21.0469 1.51562 24.7031 1.51562
Q31.6406 1.51562 37.2031 12.2031
Q38.9688 15.6719 40.5312 20.3594
Q42.0938 25.0469 42.0938 27.9844
Q42.0938 31 41.1094 32.6875
Q40.1406 34.375 38.5781 36.2031
Q37.0156 38.0312 37.0156 39.1094
Q37.0156 41.0625 38.625 42.6719
Q40.2344 44.2812 42.1875 44.2812
Q44.5781 44.2812 45.625 42.0781
Q46.6875 39.8906 46.6875 37.1094
Q46.6875 33.7969 45.7344 29.2031
Q44.7812 24.6094 43.0938 19.6719
Q41.4062 14.75 39.9844 11.9219
Q33.4062 -1.125 24.6094 -1.125
Q18.3125 -1.125 14.5 2.01562
Q10.6875 5.17188 10.6875 11.2812" id="Cmmi10-76"/>
     </defs>
     <g transform="translate(27.715 20.7)scale(0.18 -0.18)">
      <use xlink:href="#Cmmi10-76"/>
      <use transform="translate(48.388671875 0.0)" xlink:href="#Cmr10-28"/>
      <use transform="translate(87.20703125 0.0)" xlink:href="#Cmmi10-74"/>
      <use transform="translate(123.291015625 0.0)" xlink:href="#Cmr10-29"/>
     </g>
    </g>
   </g>
   <g id="patch_4">
    <path d="
M19.2209 244.015
L252.356 244.015" style="fill:none;stroke:#000000;stroke-width:0.8;"/>
   </g>
   <g id="patch_5">
    <path d="
M42.385 248.955
L42.385 33.2" style="fill:none;stroke:#000000;stroke-width:0.8;"/>
   </g>
   <g id="text_12">
    <!-- $D=\int_a^b v(t) \ dt$ -->
    <defs>
     <path d="
M10.5938 -217.094
Q13.0938 -219.578 16.7031 -219.578
Q20.3125 -219.578 23.2812 -214.625
Q26.2656 -209.672 28.5156 -202.25
Q30.7656 -194.828 31.8125 -189.812
Q32.8594 -184.812 34.4219 -176.906
Q35.8438 -169.531 37.1562 -162.109
Q38.4844 -154.688 39.875 -146.312
Q41.2656 -137.938 42.7969 -129.312
Q44.3438 -120.703 46.2969 -110.984
Q48.9219 -98.1875 50.0625 -92.6875
Q51.2188 -87.2031 53.5625 -76.8281
Q55.9062 -66.4531 56.6562 -63.1562
Q57.4219 -59.8594 60.9844 -45.125
L62.3125 -39.8906
Q64.5469 -31.1094 65.7656 -26.5938
Q67 -22.0781 69.5625 -15.5469
Q72.125 -9.03125 75.5781 -4.51562
Q79.0469 0 83.2031 0
Q86.1406 0 88.6406 -1.3125
Q91.1562 -2.64062 92.7188 -4.9375
Q94.2812 -7.23438 94.2812 -10.2031
Q94.2812 -12.3594 92.8594 -13.7656
Q91.4531 -15.1875 89.3125 -15.1875
Q87.1094 -15.1875 85.6406 -13.7656
Q84.1875 -12.3594 84.1875 -10.2031
Q84.1875 -8.01562 85.6406 -6.54688
Q87.1094 -5.07812 89.3125 -5.07812
Q86.7188 -2.59375 83.2969 -2.59375
Q81.4531 -2.59375 79.2188 -8
Q77 -13.4219 75.125 -20.7656
Q73.25 -28.125 72.2344 -33.0312
Q71.2344 -37.9375 69.8281 -45.3125
Q68.1719 -53.6562 67.0625 -59.8594
Q65.9688 -66.0625 64.4062 -75.1875
Q62.8438 -84.3281 61.3438 -92.5781
Q59.8594 -100.828 57.8125 -111.188
Q56.5 -117.719 54 -129.562
Q51.5156 -141.406 50.7031 -144.969
Q49.9062 -148.531 46.6094 -162.391
Q43.3125 -176.266 43.1094 -177.094
L41.8906 -181.688
Q39.3125 -192.281 36.6875 -200.312
Q34.0781 -208.344 29.0156 -215.281
Q23.9688 -222.219 16.7031 -222.219
Q12.3594 -222.219 8.98438 -219.281
Q5.60938 -216.359 5.60938 -212.109
Q5.60938 -209.906 7.07812 -208.438
Q8.54688 -206.984 10.6875 -206.984
Q12.1094 -206.984 13.25 -207.656
Q14.4062 -208.344 15.0625 -209.516
Q15.7188 -210.688 15.7188 -212.109
Q15.7188 -214.266 14.25 -215.672
Q12.7969 -217.094 10.5938 -217.094" id="Cmex10-5a"/>
     <path d="
M17.2812 -1.125
Q11.2344 -1.125 7.85938 3.60938
Q4.5 8.34375 4.5 14.7031
Q4.5 15.625 4.95312 18.3281
Q5.42188 21.0469 5.42188 21.6875
L15.0938 60.5
Q15.4844 62.2031 15.5781 63.1875
Q15.5781 64.7969 9.07812 64.7969
Q8.10938 64.7969 8.10938 66.1094
Q8.15625 66.3594 8.32812 66.9844
Q8.5 67.625 8.76562 67.9688
Q9.03125 68.3125 9.51562 68.3125
L23 69.3906
Q24.2188 69.3906 24.2188 68.1094
L16.7969 38.625
Q22.4688 44.1875 28.2188 44.1875
Q32.4688 44.1875 35.5156 41.9375
Q38.5781 39.7031 40.0938 36.0312
Q41.6094 32.375 41.6094 28.2188
Q41.6094 23.3906 39.7188 18.2344
Q37.8438 13.0938 34.5156 8.67188
Q31.2031 4.25 26.75 1.5625
Q22.3125 -1.125 17.2812 -1.125
M17.4844 1.51562
Q20.9062 1.51562 23.875 4.375
Q26.8594 7.23438 28.7188 10.7969
Q30.7188 14.7969 32.4531 21.6562
Q34.1875 28.5156 34.1875 32.625
Q34.1875 36.1875 32.6875 38.8906
Q31.2031 41.6094 27.9844 41.6094
Q24.3594 41.6094 21.0625 38.9375
Q17.7812 36.2812 15.2812 32.625
L12.5 21.2969
Q10.8906 14.9844 10.7969 11.1875
Q10.7969 7.42188 12.4219 4.46875
Q14.0625 1.51562 17.4844 1.51562" id="Cmmi10-62"/>
     <path d="
M17.3906 -1.125
Q11.0781 -1.125 7.4375 3.64062
Q3.8125 8.40625 3.8125 14.8906
Q3.8125 21.2969 7.125 28.1719
Q10.4531 35.0625 16.0938 39.625
Q21.7344 44.1875 28.2188 44.1875
Q31.2031 44.1875 33.5469 42.5781
Q35.8906 40.9688 37.2031 38.1875
Q38.3281 42.1875 41.6094 42.1875
Q42.875 42.1875 43.7188 41.4219
Q44.5781 40.6719 44.5781 39.4062
Q44.5781 39.1094 44.5469 38.9531
Q44.5312 38.8125 44.4844 38.625
L37.5 10.6875
Q36.8125 7.71875 36.8125 5.8125
Q36.8125 1.51562 39.7031 1.51562
Q42.8281 1.51562 44.4531 5.48438
Q46.0938 9.46875 47.2188 14.7031
Q47.4062 15.2812 48 15.2812
L49.2188 15.2812
Q49.6094 15.2812 49.8438 14.9375
Q50.0938 14.5938 50.0938 14.3125
Q48.3438 7.32812 46.2656 3.09375
Q44.1875 -1.125 39.5 -1.125
Q36.1406 -1.125 33.5469 0.84375
Q30.9531 2.82812 30.3281 6.10938
Q23.875 -1.125 17.3906 -1.125
M17.4844 1.51562
Q21.0938 1.51562 24.4844 4.21875
Q27.875 6.9375 30.3281 10.5938
Q30.4219 10.6875 30.4219 10.8906
L35.7969 32.625
L35.8906 32.9062
Q35.2969 36.4688 33.3125 39.0312
Q31.3438 41.6094 27.9844 41.6094
Q24.6094 41.6094 21.7031 38.8438
Q18.7969 36.0781 16.7969 32.3281
Q14.8438 28.3281 13.0625 21.3438
Q11.2812 14.3594 11.2812 10.5
Q11.2812 7.03125 12.7656 4.26562
Q14.2656 1.51562 17.4844 1.51562" id="Cmmi10-61"/>
     <path d="
M4.89062 0
Q3.90625 0 3.90625 1.3125
Q3.95312 1.5625 4.09375 2.17188
Q4.25 2.78125 4.51562 3.14062
Q4.78125 3.51562 5.17188 3.51562
Q11.2812 3.51562 13.7188 4.20312
Q14.9844 4.64062 15.5781 6.89062
L29.2969 61.8125
Q29.5 62.7969 29.5 63.1875
Q29.5 64.2656 28.3281 64.4062
Q26.4219 64.7969 21.0938 64.7969
Q20.125 64.7969 20.125 66.1094
Q20.1719 66.3594 20.3125 66.9688
Q20.4531 67.5781 20.7188 67.9375
Q21 68.3125 21.3906 68.3125
L57.3281 68.3125
Q64.3125 68.3125 69.5312 64.9219
Q74.75 61.5312 77.5312 55.7812
Q80.3281 50.0469 80.3281 43.1094
Q80.3281 35.4531 77.1406 27.7812
Q73.9688 20.125 68.25 13.7656
Q62.5469 7.42188 55.2188 3.70312
Q47.9062 0 40.1875 0
z

M23.5781 4.29688
Q23.5781 3.51562 27 3.51562
L38.625 3.51562
Q44.1875 3.51562 49.3594 5.8125
Q54.5469 8.10938 58.5938 12.1094
Q62.3594 15.875 65.2344 21.9688
Q68.1094 28.0781 69.7031 34.7188
Q71.2969 41.3594 71.2969 46.9219
Q71.2969 50.9844 70.0938 54.25
Q68.8906 57.5156 66.7188 59.8594
Q64.5469 62.2031 61.2812 63.5
Q58.0156 64.7969 53.9062 64.7969
L42.9219 64.7969
Q40.1875 64.7969 39.2969 64.3281
Q38.4219 63.875 37.7031 61.375
L24.0312 6.5
Q23.5781 5.28125 23.5781 4.29688" id="Cmmi10-44"/>
     <path d="
M17.3906 -1.125
Q11.0781 -1.125 7.4375 3.64062
Q3.8125 8.40625 3.8125 14.8906
Q3.8125 21.2969 7.125 28.1719
Q10.4531 35.0625 16.0938 39.625
Q21.7344 44.1875 28.2188 44.1875
Q31.1562 44.1875 33.5156 42.5469
Q35.8906 40.9219 37.2031 38.1875
L42.8281 60.5
Q43.2188 62.2031 43.3125 63.1875
Q43.3125 64.7969 36.8125 64.7969
Q35.7969 64.7969 35.7969 66.1094
Q35.8438 66.3594 36.0156 66.9844
Q36.1875 67.625 36.4531 67.9688
Q36.7188 68.3125 37.2031 68.3125
L50.6875 69.3906
Q51.9062 69.3906 51.9062 68.1094
L37.5 10.5938
Q36.8125 8.9375 36.8125 5.8125
Q36.8125 1.51562 39.7031 1.51562
Q42.8281 1.51562 44.4531 5.48438
Q46.0938 9.46875 47.2188 14.7031
Q47.4062 15.2812 48 15.2812
L49.2188 15.2812
Q49.6094 15.2812 49.8438 14.9375
Q50.0938 14.5938 50.0938 14.3125
Q48.3438 7.32812 46.2656 3.09375
Q44.1875 -1.125 39.5 -1.125
Q36.1406 -1.125 33.5469 0.84375
Q30.9531 2.82812 30.3281 6.10938
Q23.875 -1.125 17.3906 -1.125
M17.4844 1.51562
Q21.0938 1.51562 24.4844 4.21875
Q27.875 6.9375 30.3281 10.5938
Q30.4219 10.6875 30.4219 10.9844
L35.8906 33.0156
Q35.2969 36.5312 33.2969 39.0625
Q31.2969 41.6094 27.9844 41.6094
Q24.6094 41.6094 21.7031 38.8438
Q18.7969 36.0781 16.7969 32.3281
Q14.8438 28.3281 13.0625 21.3438
Q11.2812 14.3594 11.2812 10.5
Q11.2812 7.03125 12.7656 4.26562
Q14.2656 1.51562 17.4844 1.51562" id="Cmmi10-64"/>
     <path d="
M7.51562 13.2812
Q6.6875 13.2812 6.14062 13.9062
Q5.60938 14.5469 5.60938 15.2812
Q5.60938 16.1094 6.14062 16.6875
Q6.6875 17.2812 7.51562 17.2812
L70.3125 17.2812
Q71.0469 17.2812 71.5781 16.6875
Q72.125 16.1094 72.125 15.2812
Q72.125 14.5469 71.5781 13.9062
Q71.0469 13.2812 70.3125 13.2812
z

M7.51562 32.7188
Q6.6875 32.7188 6.14062 33.2969
Q5.60938 33.8906 5.60938 34.7188
Q5.60938 35.4531 6.14062 36.0781
Q6.6875 36.7188 7.51562 36.7188
L70.3125 36.7188
Q71.0469 36.7188 71.5781 36.0781
Q72.125 35.4531 72.125 34.7188
Q72.125 33.8906 71.5781 33.2969
Q71.0469 32.7188 70.3125 32.7188
z
" id="Cmr10-3d"/>
    </defs>
    <g transform="translate(111.279157729 195.474492211)scale(0.14 -0.14)">
     <use transform="translate(0.0 0.493229166667)" xlink:href="#Cmmi10-44"/>
     <use transform="translate(100.2734375 0.493229166667)" xlink:href="#Cmr10-3d"/>
     <use transform="translate(184.33203125 144.9359375)" xlink:href="#Cmex10-5a"/>
     <use transform="translate(279.848984375 119.4265625)scale(0.7)" xlink:href="#Cmmi10-62"/>
     <use transform="translate(239.849609375 -102.7921875)scale(0.7)" xlink:href="#Cmmi10-61"/>
     <use transform="translate(339.77515625 0.493229166667)" xlink:href="#Cmmi10-76"/>
     <use transform="translate(388.163828125 0.493229166667)" xlink:href="#Cmr10-28"/>
     <use transform="translate(426.9821875 0.493229166667)" xlink:href="#Cmmi10-74"/>
     <use transform="translate(463.066171875 0.493229166667)" xlink:href="#Cmr10-29"/>
     <use transform="translate(528.222421875 0.493229166667)" xlink:href="#Cmmi10-64"/>
     <use transform="translate(580.224375 0.493229166667)" xlink:href="#Cmmi10-74"/>
    </g>
   </g>
   <g id="text_13">
    <!-- $=284$ -->
    <defs>
     <path d="
M4.98438 0
L4.98438 2.6875
Q4.98438 2.9375 5.17188 3.21875
L20.7031 20.4062
Q24.2188 24.2188 26.4062 26.7969
Q28.6094 29.3906 30.75 32.7656
Q32.9062 36.1406 34.1562 39.625
Q35.4062 43.1094 35.4062 47.0156
Q35.4062 51.125 33.8906 54.8594
Q32.375 58.5938 29.375 60.8438
Q26.375 63.0938 22.125 63.0938
Q17.7812 63.0938 14.3125 60.4688
Q10.8438 57.8594 9.42188 53.7188
Q9.8125 53.8125 10.5 53.8125
Q12.75 53.8125 14.3281 52.2969
Q15.9219 50.7812 15.9219 48.3906
Q15.9219 46.0938 14.3281 44.5
Q12.75 42.9219 10.5 42.9219
Q8.15625 42.9219 6.5625 44.5469
Q4.98438 46.1875 4.98438 48.3906
Q4.98438 52.1562 6.39062 55.4375
Q7.8125 58.7344 10.4688 61.2969
Q13.1406 63.875 16.4844 65.2344
Q19.8281 66.6094 23.5781 66.6094
Q29.2969 66.6094 34.2188 64.1875
Q39.1562 61.7656 42.0312 57.3438
Q44.9219 52.9375 44.9219 47.0156
Q44.9219 42.6719 43.0156 38.7656
Q41.1094 34.8594 38.125 31.6562
Q35.1562 28.4688 30.5156 24.4062
Q25.875 20.3594 24.4219 19
L13.0938 8.10938
L22.7031 8.10938
Q29.7812 8.10938 34.5469 8.21875
Q39.3125 8.34375 39.5938 8.59375
Q40.7656 9.85938 42 17.8281
L44.9219 17.8281
L42.0938 0
z
" id="Cmr10-32"/>
     <path d="
M4.20312 15.1875
Q4.20312 21.1875 8.15625 25.7969
Q12.1094 30.4219 18.3125 33.5
L14.5938 35.8906
Q11.1875 38.1406 9.03125 41.875
Q6.89062 45.6094 6.89062 49.7031
Q6.89062 54.5 9.40625 58.3438
Q11.9219 62.2031 16.0938 64.4062
Q20.2656 66.6094 25 66.6094
Q29.4375 66.6094 33.5625 64.7969
Q37.7031 62.9844 40.3594 59.6094
Q43.0156 56.25 43.0156 51.6094
Q43.0156 48.25 41.4219 45.3594
Q39.8438 42.4844 37.0781 40.1875
Q34.3281 37.8906 31.2031 36.2812
L36.9219 32.625
Q40.875 30.0312 43.2812 25.8281
Q45.7031 21.625 45.7031 17
Q45.7031 11.5781 42.7969 7.125
Q39.8906 2.6875 35.1094 0.234375
Q30.3281 -2.20312 25 -2.20312
Q19.8281 -2.20312 15.0156 -0.09375
Q10.2031 2 7.20312 5.98438
Q4.20312 9.96875 4.20312 15.1875
M9.625 15.1875
Q9.625 11.2344 11.7969 7.95312
Q13.9688 4.6875 17.5312 2.82812
Q21.0938 0.984375 25 0.984375
Q30.8125 0.984375 35.5469 4.375
Q40.2812 7.76562 40.2812 13.375
Q40.2812 15.2812 39.5156 17.1562
Q38.7656 19.0469 37.4219 20.5781
Q36.0781 22.125 34.4219 23.0938
L21 31.7812
Q17.875 30.125 15.25 27.5781
Q12.6406 25.0469 11.125 21.875
Q9.625 18.7031 9.625 15.1875
M16.5 45.7031
L28.6094 37.8906
Q32.8125 40.3281 35.5 43.7969
Q38.1875 47.2656 38.1875 51.6094
Q38.1875 54.9844 36.2969 57.7812
Q34.4219 60.5938 31.3906 62.1562
Q28.375 63.7188 24.9062 63.7188
Q21.875 63.7188 18.7969 62.5469
Q15.7188 61.375 13.7188 59.0469
Q11.7188 56.7344 11.7188 53.6094
Q11.7188 48.9219 16.5 45.7031" id="Cmr10-38"/>
     <path d="
M2.78125 16.5
L2.78125 20.0156
L33.6875 66.1094
Q34.0312 66.6094 34.7188 66.6094
L36.1875 66.6094
Q37.3125 66.6094 37.3125 65.4844
L37.3125 20.0156
L47.125 20.0156
L47.125 16.5
L37.3125 16.5
L37.3125 6.6875
Q37.3125 4.64062 40.2344 4.07812
Q43.1719 3.51562 47.0156 3.51562
L47.0156 0
L19.4844 0
L19.4844 3.51562
Q23.3438 3.51562 26.2656 4.07812
Q29.2031 4.64062 29.2031 6.6875
L29.2031 16.5
z

M6.10938 20.0156
L29.7812 20.0156
L29.7812 55.4219
z
" id="Cmr10-34"/>
    </defs>
    <g transform="translate(122.631831084 230.228146133)scale(0.14 -0.14)">
     <use transform="translate(17.55859375 0.390625)" xlink:href="#Cmr10-3d"/>
     <use transform="translate(101.6171875 0.390625)" xlink:href="#Cmr10-32"/>
     <use transform="translate(151.6171875 0.390625)" xlink:href="#Cmr10-38"/>
     <use transform="translate(201.6171875 0.390625)" xlink:href="#Cmr10-34"/>
    </g>
   </g>
  </g>
 </g>
 <defs>
  <clipPath id="peb40f7712c">
   <rect height="215.754725275" width="233.135048077" x="19.2209407359" y="33.2"/>
  </clipPath>
 </defs>
</svg>
