<?xml version="1.0" encoding="utf-8" standalone="no"?>
<!DOCTYPE svg PUBLIC "-//W3C//DTD SVG 1.1//EN"
  "http://www.w3.org/Graphics/SVG/1.1/DTD/svg11.dtd">
<!-- Created with matplotlib (http://matplotlib.org/) -->
<svg height="276pt" version="1.1" viewBox="0 0 312 276" width="312pt" xmlns="http://www.w3.org/2000/svg" xmlns:xlink="http://www.w3.org/1999/xlink">
 <defs>
  <style type="text/css">
*{stroke-linecap:butt;stroke-linejoin:round;}
  </style>
 </defs>
 <g id="figure_1">
  <g id="patch_1">
   <path d="
M0 276.48
L312.48 276.48
L312.48 0
L0 0
z
" style="fill:#ffffff;"/>
  </g>
  <g id="axes_1">
   <g id="patch_2">
    <path d="
M7.2 269.28
L305.28 269.28
L305.28 7.2
L7.2 7.2
z
" style="fill:#ffffff;"/>
   </g>
   <g id="patch_3">
    <path clip-path="url(#p200f78260c)" d="
M98.9169 213.84
L98.9169 74.9797
L99.2148 75.4868
L99.2983 75.6306
L99.6379 76.2231
L99.823 76.5514
L99.961 76.7983
L100.296 77.4065
L100.563 77.8985
L100.641 78.0451
L101.022 78.764
L101.288 79.2746
L101.458 79.6056
L101.66 80.0022
L101.863 80.405
L102.197 81.0769
L102.395 81.4803
L102.648 82.0008
L102.899 82.5244
L102.994 82.7253
L103.378 83.5407
L103.507 83.8185
L103.786 84.4232
L103.916 84.7075
L104.101 85.1168
L104.499 86.0049
L104.721 86.5075
L104.79 86.6649
L105.182 87.5651
L105.306 87.8527
L105.563 88.4536
L105.808 89.032
L105.948 89.3656
L106.249 90.0871
L106.481 90.6489
L106.617 90.9791
L106.966 91.8394
L107.144 92.2816
L107.406 92.9364
L107.577 93.3667
L107.92 94.2404
L108.024 94.5071
L108.34 95.3207
L108.619 96.0479
L108.773 96.452
L109.073 97.2436
L109.224 97.6455
L109.41 98.1414
L109.729 99.0017
L109.899 99.4609
L110.097 100
L110.421 100.89
L110.692 101.641
L110.937 102.324
L111.133 102.873
L111.354 103.496
L111.562 104.086
L111.713 104.517
L111.966 105.239
L112.153 105.78
L112.393 106.473
L112.779 107.598
L112.858 107.83
L113.086 108.5
L113.321 109.196
L113.574 109.946
L113.733 110.422
L114.05 111.372
L114.372 112.347
L114.548 112.879
L114.729 113.431
L114.99 114.231
L115.213 114.918
L115.504 115.816
L115.581 116.054
L115.872 116.962
L116.078 117.604
L116.319 118.363
L116.662 119.443
L116.805 119.896
L116.978 120.448
L117.217 121.209
L117.463 121.997
L117.738 122.879
L117.969 123.624
L118.29 124.665
L118.522 125.418
L118.757 126.183
L118.986 126.934
L119.031 127.081
L119.438 128.421
L119.636 129.076
L119.921 130.017
L120.157 130.803
L120.248 131.104
L120.469 131.843
L120.773 132.861
L120.962 133.492
L121.254 134.476
L121.362 134.84
L121.753 136.16
L121.989 136.962
L122.033 137.111
L122.43 138.461
L122.61 139.074
L122.876 139.982
L122.932 140.175
L123.351 141.61
L123.466 142.004
L123.793 143.13
L124.004 143.859
L124.13 144.294
L124.425 145.311
L124.717 146.323
L124.965 147.185
L125.088 147.609
L125.361 148.56
L125.525 149.131
L125.885 150.384
L126.104 151.148
L126.299 151.831
L126.496 152.517
L126.727 153.327
L126.977 154.202
L127.255 155.177
L127.35 155.508
L127.655 156.579
L127.8 157.088
L128.184 158.436
L128.338 158.975
L128.496 159.531
L128.771 160.498
L129.063 161.526
L129.156 161.851
L129.439 162.847
L129.779 164.043
L130.023 164.901
L130.11 165.208
L130.338 166.009
L130.57 166.823
L130.741 167.426
L130.993 168.31
L131.363 169.609
L131.429 169.841
L131.834 171.261
L131.894 171.473
L132.15 172.371
L132.456 173.442
L132.666 174.177
L132.947 175.159
L133.073 175.599
L133.332 176.502
L133.597 177.426
L133.751 177.961
L134.099 179.173
L134.334 179.986
L134.471 180.463
L134.839 181.736
L134.953 182.131
L135.291 183.297
L135.449 183.843
L135.767 184.937
L135.978 185.661
L136.118 186.139
L136.291 186.734
L136.591 187.759
L136.771 188.373
L137.135 189.61
L137.358 190.366
L137.505 190.864
L137.703 191.535
L137.876 192.117
L138.275 193.46
L138.416 193.933
L138.747 195.039
L138.958 195.746
L139.152 196.389
L139.428 197.307
L139.488 197.503
L139.776 198.454
L140.074 199.436
L140.145 199.671
L140.503 200.843
L140.811 201.846
L140.896 202.122
L141.252 203.275
L141.501 204.077
L141.62 204.461
L141.855 205.214
L142.164 206.201
L142.334 206.74
L142.512 207.306
L142.744 208.04
L143.098 209.153
L143.336 209.895
L143.37 210.003
L143.762 211.22
L143.903 211.656
L144.067 212.162
L144.484 213.442
L144.615 213.84
L144.615 213.84
z
" style="fill:#008000;opacity:0.5;"/>
   </g>
   <g id="patch_4">
    <path clip-path="url(#p200f78260c)" d="
M206.398 213.84
L206.398 208.406
L206.762 207.255
L207.476 204.98
L207.741 204.131
L208.303 202.314
L208.563 201.468
L209.433 198.616
L209.58 198.134
L209.967 196.853
L210.676 194.49
L211.157 192.875
L211.698 191.049
L212.153 189.509
L212.296 189.022
L212.855 187.114
L213.283 185.649
L213.891 183.558
L214.335 182.027
L214.609 181.08
L215.467 178.099
L215.826 176.85
L216.212 175.502
L216.908 173.07
L216.937 172.969
L217.584 170.701
L218.055 169.047
L218.768 166.542
L219.172 165.124
L219.353 164.487
L219.849 162.74
L220.587 160.147
L220.724 159.666
L221.441 157.146
L221.762 156.021
L222.353 153.949
L222.758 152.534
L223.444 150.136
L223.59 149.629
L224.012 148.159
L224.463 146.594
L224.906 145.06
L225.535 142.891
L226.276 140.346
L226.51 139.545
L227.146 137.378
L227.58 135.907
L227.867 134.937
L228.175 133.899
L228.756 131.951
L229.384 129.864
L229.673 128.907
L230.384 126.567
L230.824 125.131
L230.986 124.604
L231.733 122.193
L231.955 121.482
L232.633 119.327
L233.197 117.552
L233.387 116.959
L233.984 115.104
L234.279 114.197
L234.762 112.722
L235.298 111.103
L235.911 109.271
L236.479 107.597
L236.595 107.26
L237.073 105.871
L237.664 104.178
L238.266 102.479
L238.644 101.423
L239.295 99.6351
L239.658 98.6511
L239.923 97.9419
L240.407 96.657
L240.831 95.5467
L241.529 93.7541
L241.875 92.8779
L242.57 91.1535
L242.705 90.8232
L243.458 89.0134
L243.841 88.1118
L244.384 86.856
L244.704 86.1296
L245.055 85.3425
L245.473 84.4207
L245.892 83.5157
L246.003 83.2767
L246.723 81.7681
L246.994 81.2129
L247.532 80.134
L248.061 79.1003
L248.469 78.3235
L248.916 77.4914
L249.388 76.6358
L249.7 76.0836
L250.398 74.8832
L250.714 74.3577
L251.126 73.6902
L251.537 73.0412
L251.975 72.3703
L252.452 71.6641
L252.566 71.4985
L253.022 70.8532
L253.573 70.1043
L253.956 69.6034
L254.298 69.1705
L254.64 68.7511
L254.853 68.4973
L255.366 67.9064
L255.894 67.3305
L256.403 66.8058
L257.003 66.2272
L257.396 65.8703
L257.985 65.371
L258.436 65.0167
L258.911 64.6695
L259.174 64.4886
L259.627 64.1972
L260.267 63.8283
L260.732 63.5909
L261.368 63.3089
L261.442 63.2792
L261.811 63.1419
L262.179 63.0211
L262.386 62.9603
L262.766 62.8628
L263.145 62.783
L263.518 62.7217
L263.81 62.6856
L264.322 62.6475
L264.695 62.64
L265.068 62.6496
L265.392 62.6718
L265.689 62.7034
L266.076 62.7609
L266.463 62.8368
L266.858 62.933
L267.471 63.1203
L267.587 63.161
L268.156 63.3837
L268.502 63.5388
L268.849 63.7085
L269.045 63.8111
L269.447 64.0354
L269.928 64.3304
L270.289 64.5697
L270.65 64.8246
L271.028 65.1083
L271.562 65.5382
L272.083 65.9914
L272.295 66.1841
L272.96 66.8254
L273.461 67.342
L273.993 67.9242
L274.491 68.4971
L274.579 68.6022
L275.077 69.2096
L275.438 69.6677
L275.799 70.1408
L276.167 70.6387
L276.813 71.55
L277.29 72.2508
L277.614 72.7436
L278.249 73.7394
L278.672 74.4272
L279.083 75.1157
L279.64 76.0758
L280.119 76.9285
L280.32 77.293
L280.927 78.4205
L281.469 79.4595
L281.663 79.84
L282.182 80.8724
L282.705 81.9423
L283.321 83.2346
L283.41 83.4262
L284.058 84.8324
L284.571 85.9726
L285.155 87.3031
L285.681 88.5278
L286.119 89.5681
L286.341 90.1015
L286.825 91.2791
L287.42 92.757
L288.027 94.2929
L288.376 95.1935
L288.724 96.0977
L289.427 97.9577
L289.81 98.9874
L290.025 99.5704
L290.571 101.067
L291.027 102.336
L291.772 104.441
L292.1 105.379
L292.705 107.131
L292.83 107.496
L293.314 108.921
L293.732 110.161
L294.472 112.39
L294.742 113.21
L295.239 114.731
L295.884 116.73
L296.117 117.458
L296.712 119.331
L297.101 120.564
L297.833 122.909
L298.237 124.213
L298.501 125.07
L299.156 127.21
L299.548 128.499
L299.548 213.84
z
" style="fill:#008000;opacity:0.5;"/>
   </g>
   <g id="patch_5">
    <path clip-path="url(#p200f78260c)" d="
M144.615 213.84
L144.615 213.84
L144.826 214.483
L145.288 215.875
L145.531 216.604
L145.721 217.17
L146.047 218.137
L146.517 219.517
L146.929 220.716
L147.085 221.169
L147.369 221.982
L147.866 223.399
L148.093 224.038
L148.477 225.112
L148.699 225.726
L148.902 226.286
L149.349 227.507
L149.605 228.199
L149.944 229.11
L150.352 230.19
L150.618 230.888
L150.804 231.373
L151.016 231.924
L151.556 233.305
L151.718 233.713
L152.196 234.908
L152.452 235.541
L152.811 236.419
L153.147 237.229
L153.303 237.601
L153.64 238.398
L153.916 239.043
L154.168 239.628
L154.609 240.633
L154.943 241.385
L155.146 241.835
L155.632 242.898
L155.697 243.039
L155.998 243.684
L156.375 244.478
L156.86 245.482
L157.163 246.096
L157.224 246.219
L157.75 247.261
L158.087 247.912
L158.382 248.473
L158.449 248.6
L158.906 249.449
L159.244 250.062
L159.457 250.444
L159.968 251.338
L160.292 251.889
L160.454 252.162
L160.68 252.537
L161.143 253.286
L161.472 253.804
L161.715 254.179
L161.968 254.565
L162.39 255.188
L162.751 255.707
L162.98 256.029
L163.232 256.375
L163.699 256.999
L163.958 257.334
L164.067 257.473
L164.515 258.029
L164.766 258.33
L165.192 258.825
L165.475 259.143
L165.806 259.501
L166.083 259.793
L166.43 260.143
L166.601 260.312
L166.885 260.583
L167.349 261.006
L167.522 261.157
L167.96 261.524
L168.178 261.698
L168.568 261.994
L168.703 262.093
L169.174 262.42
L169.594 262.688
L169.735 262.774
L169.935 262.891
L170.453 263.172
L170.729 263.308
L171.041 263.451
L171.331 263.573
L171.618 263.684
L171.943 263.798
L172.129 263.857
L172.475 263.955
L172.743 264.022
L173.012 264.08
L173.211 264.117
L173.502 264.162
L173.706 264.188
L174.068 264.221
L174.405 264.237
L174.605 264.24
L175.058 264.229
L175.427 264.201
L175.771 264.16
L176.021 264.121
L176.369 264.054
L176.704 263.976
L176.847 263.938
L177.223 263.828
L177.407 263.767
L177.907 263.582
L178.06 263.519
L178.304 263.413
L178.686 263.232
L178.991 263.075
L179.511 262.781
L179.826 262.588
L179.875 262.556
L180.209 262.336
L180.629 262.039
L181.06 261.713
L181.379 261.458
L181.554 261.312
L181.749 261.146
L182.25 260.697
L182.412 260.546
L182.806 260.166
L183.192 259.775
L183.414 259.542
L183.854 259.063
L183.947 258.96
L184.43 258.403
L184.677 258.11
L185.105 257.582
L185.364 257.253
L185.518 257.052
L185.758 256.737
L186.092 256.286
L186.619 255.549
L186.73 255.388
L187.229 254.655
L187.375 254.436
L187.791 253.797
L187.956 253.538
L188.45 252.746
L188.704 252.328
L189.133 251.607
L189.414 251.123
L189.753 250.529
L190.091 249.924
L190.263 249.612
L190.665 248.871
L190.921 248.388
L191.195 247.866
L191.523 247.231
L191.7 246.883
L192.242 245.799
L192.551 245.168
L192.748 244.76
L192.947 244.344
L193.308 243.581
L193.534 243.097
L194.034 242.007
L194.241 241.548
L194.731 240.449
L195.045 239.731
L195.131 239.533
L195.551 238.555
L195.816 237.932
L196.266 236.856
L196.476 236.347
L196.622 235.991
L197.083 234.857
L197.44 233.967
L197.851 232.926
L198.097 232.296
L198.282 231.82
L198.561 231.095
L198.847 230.346
L199.182 229.461
L199.714 228.035
L199.817 227.756
L200.036 227.163
L200.543 225.772
L200.727 225.262
L201.065 224.318
L201.41 223.347
L201.86 222.067
L202.076 221.447
L202.441 220.394
L202.814 219.306
L203.138 218.354
L203.368 217.674
L203.579 217.045
L203.903 216.077
L204.333 214.782
L204.67 213.759
L204.854 213.197
L205.28 211.888
L205.479 211.274
L205.724 210.512
L206.024 209.577
L206.398 208.406
L206.398 213.84
z
" style="fill:#ff0000;opacity:0.5;"/>
   </g>
   <g id="line2d_1">
    <path clip-path="url(#p200f78260c)" d="
M12.9323 213.84
L299.548 213.84
L299.548 213.84" style="fill:none;"/>
   </g>
   <g id="line2d_2">
    <path clip-path="url(#p200f78260c)" d="
M12.9323 244.195
L14.1991 241.451
L15.2907 238.964
L18.0356 232.234
L20.7527 224.951
L24.1414 215.102
L27.9422 203.204
L31.3128 192.062
L37.0075 172.422
L47.9014 134.532
L52.3826 119.848
L55.551 110.088
L58.8771 100.544
L61.397 93.8707
L63.6995 88.2414
L66.0457 83.0046
L68.2128 78.6453
L70.8409 74.0109
L73.2104 70.4758
L75.2117 67.9838
L76.766 66.3688
L78.3482 65.018
L80.2796 63.7757
L81.3335 63.2884
L82.3875 62.9365
L84.2165 62.6484
L85.7847 62.7281
L87.4771 63.1523
L89.2706 63.9833
L90.6288 64.8719
L92.3327 66.2994
L94.3841 68.4727
L96.3194 70.969
L98.5163 74.3129
L100.283 77.3823
L103.013 82.7654
L105.554 88.4324
L108.637 96.0943
L111.969 105.25
L115.528 115.89
L119.584 128.903
L124.966 147.187
L139.099 196.213
L143.456 210.269
L146.201 218.593
L149.836 228.821
L152.376 235.353
L155.15 241.844
L157.835 247.425
L159.753 250.964
L161.817 254.335
L163.536 256.784
L165.795 259.49
L167.782 261.377
L168.872 262.213
L170.772 263.329
L172.507 263.964
L174.106 264.223
L175.576 264.185
L177.28 263.809
L178.687 263.231
L179.755 262.632
L180.894 261.842
L182.941 260.03
L184.832 257.92
L186.636 255.524
L188.879 252.036
L190.607 248.978
L192.856 244.535
L195.479 238.725
L198.274 231.841
L201.516 223.048
L204.589 214.006
L208.529 201.578
L212.206 189.328
L218.244 168.383
L226.638 139.108
L231.052 124.392
L235.114 111.658
L238.419 102.05
L241.745 93.2065
L244.633 86.2884
L246.439 82.3565
L248.85 77.6117
L251.234 73.5169
L252.907 71.0136
L254.632 68.7619
L256.714 66.5006
L258.28 65.1361
L260.219 63.8542
L262.157 63.0277
L264.026 62.6656
L265.588 62.6915
L267.316 63.0685
L269.172 63.8797
L271.158 65.2102
L273.089 66.956
L275.013 69.1303
L276.878 71.6437
L278.821 74.676
L280.632 77.8691
L283.182 82.9411
L285.527 88.1682
L287.791 93.6932
L290.304 100.333
L292.98 107.935
L296.515 118.708
L299.548 128.499
L299.548 128.499" style="fill:none;stroke:#0000ff;stroke-linecap:square;stroke-width:2.0;"/>
   </g>
   <g id="line2d_3">
    <path clip-path="url(#p200f78260c)" d="
M98.9169 74.9797
L101.022 78.764
L102.994 82.7253
L105.306 87.8527
L107.92 94.2404
L110.692 101.641
L113.733 110.422
L117.217 121.209
L121.362 134.84
L126.977 154.202
L138.747 195.039
L142.744 208.04
L144.615 213.84
L144.615 213.84" style="fill:none;"/>
   </g>
   <g id="line2d_4">
    <path clip-path="url(#p200f78260c)" d="
M98.9169 213.84
L98.9169 74.9797" style="fill:none;stroke:#000000;stroke-linecap:square;"/>
   </g>
   <g id="line2d_5">
    <path clip-path="url(#p200f78260c)" d="
M206.398 208.406
L209.967 196.853
L214.609 181.08
L230.986 124.604
L234.762 112.722
L238.266 102.479
L240.831 95.5467
L243.841 88.1118
L246.003 83.2767
L248.469 78.3235
L250.714 74.3577
L252.566 71.4985
L254.64 68.7511
L256.403 66.8058
L257.985 65.371
L259.627 64.1972
L261.368 63.3089
L262.766 62.8628
L264.322 62.6475
L265.689 62.7034
L266.858 62.933
L268.502 63.5388
L269.928 64.3304
L271.562 65.5382
L272.96 66.8254
L274.579 68.6022
L276.167 70.6387
L278.249 73.7394
L280.32 77.293
L282.705 81.9423
L285.155 87.3031
L287.42 92.757
L290.025 99.5704
L292.83 107.496
L296.117 117.458
L299.548 128.499
L299.548 128.499" style="fill:none;"/>
   </g>
   <g id="line2d_6">
    <path clip-path="url(#p200f78260c)" d="
M144.615 213.84
L147.866 223.399
L150.804 231.373
L153.303 237.601
L155.697 243.039
L158.087 247.912
L160.292 251.889
L161.968 254.565
L164.067 257.473
L165.806 259.501
L167.522 261.157
L169.174 262.42
L170.729 263.308
L172.129 263.857
L173.502 264.162
L174.605 264.24
L176.021 264.121
L177.407 263.767
L178.991 263.075
L180.629 262.039
L182.25 260.697
L183.854 259.063
L185.518 257.052
L187.375 254.436
L189.414 251.123
L191.523 247.231
L193.534 243.097
L195.816 237.932
L198.561 231.095
L201.41 223.347
L204.67 213.759
L206.398 208.406
L206.398 208.406" style="fill:none;"/>
   </g>
   <g id="line2d_7">
    <path clip-path="url(#p200f78260c)" d="
M299.548 213.84
L299.548 128.499" style="fill:none;stroke:#000000;stroke-linecap:square;"/>
   </g>
   <g id="matplotlib.axis_1">
    <g id="xtick_1">
     <g id="line2d_8">
      <defs>
       <path d="
M0 0
L0 -4" id="m93b0483c22" style="stroke:#000000;stroke-width:0.5;"/>
      </defs>
      <g>
       <use style="stroke:#000000;stroke-width:0.5;" x="98.9169230769" xlink:href="#m93b0483c22" y="213.840028828"/>
      </g>
     </g>
     <g id="text_1">
      <!-- $a$ -->
      <defs>
       <path d="
M17.3906 -1.125
Q11.0781 -1.125 7.4375 3.64062
Q3.8125 8.40625 3.8125 14.8906
Q3.8125 21.2969 7.125 28.1719
Q10.4531 35.0625 16.0938 39.625
Q21.7344 44.1875 28.2188 44.1875
Q31.2031 44.1875 33.5469 42.5781
Q35.8906 40.9688 37.2031 38.1875
Q38.3281 42.1875 41.6094 42.1875
Q42.875 42.1875 43.7188 41.4219
Q44.5781 40.6719 44.5781 39.4062
Q44.5781 39.1094 44.5469 38.9531
Q44.5312 38.8125 44.4844 38.625
L37.5 10.6875
Q36.8125 7.71875 36.8125 5.8125
Q36.8125 1.51562 39.7031 1.51562
Q42.8281 1.51562 44.4531 5.48438
Q46.0938 9.46875 47.2188 14.7031
Q47.4062 15.2812 48 15.2812
L49.2188 15.2812
Q49.6094 15.2812 49.8438 14.9375
Q50.0938 14.5938 50.0938 14.3125
Q48.3438 7.32812 46.2656 3.09375
Q44.1875 -1.125 39.5 -1.125
Q36.1406 -1.125 33.5469 0.84375
Q30.9531 2.82812 30.3281 6.10938
Q23.875 -1.125 17.3906 -1.125
M17.4844 1.51562
Q21.0938 1.51562 24.4844 4.21875
Q27.875 6.9375 30.3281 10.5938
Q30.4219 10.6875 30.4219 10.8906
L35.7969 32.625
L35.8906 32.9062
Q35.2969 36.4688 33.3125 39.0312
Q31.3438 41.6094 27.9844 41.6094
Q24.6094 41.6094 21.7031 38.8438
Q18.7969 36.0781 16.7969 32.3281
Q14.8438 28.3281 13.0625 21.3438
Q11.2812 14.3594 11.2812 10.5
Q11.2812 7.03125 12.7656 4.26562
Q14.2656 1.51562 17.4844 1.51562" id="Cmmi10-61"/>
      </defs>
      <g transform="translate(94.1469230769 231.517216328)scale(0.18 -0.18)">
       <use transform="translate(0.0 0.8125)" xlink:href="#Cmmi10-61"/>
      </g>
     </g>
    </g>
    <g id="xtick_2">
     <g id="line2d_9">
      <g>
       <use style="stroke:#000000;stroke-width:0.5;" x="299.547692308" xlink:href="#m93b0483c22" y="213.840028828"/>
      </g>
     </g>
     <g id="text_2">
      <!-- $b$ -->
      <defs>
       <path d="
M17.2812 -1.125
Q11.2344 -1.125 7.85938 3.60938
Q4.5 8.34375 4.5 14.7031
Q4.5 15.625 4.95312 18.3281
Q5.42188 21.0469 5.42188 21.6875
L15.0938 60.5
Q15.4844 62.2031 15.5781 63.1875
Q15.5781 64.7969 9.07812 64.7969
Q8.10938 64.7969 8.10938 66.1094
Q8.15625 66.3594 8.32812 66.9844
Q8.5 67.625 8.76562 67.9688
Q9.03125 68.3125 9.51562 68.3125
L23 69.3906
Q24.2188 69.3906 24.2188 68.1094
L16.7969 38.625
Q22.4688 44.1875 28.2188 44.1875
Q32.4688 44.1875 35.5156 41.9375
Q38.5781 39.7031 40.0938 36.0312
Q41.6094 32.375 41.6094 28.2188
Q41.6094 23.3906 39.7188 18.2344
Q37.8438 13.0938 34.5156 8.67188
Q31.2031 4.25 26.75 1.5625
Q22.3125 -1.125 17.2812 -1.125
M17.4844 1.51562
Q20.9062 1.51562 23.875 4.375
Q26.8594 7.23438 28.7188 10.7969
Q30.7188 14.7969 32.4531 21.6562
Q34.1875 28.5156 34.1875 32.625
Q34.1875 36.1875 32.6875 38.8906
Q31.2031 41.6094 27.9844 41.6094
Q24.3594 41.6094 21.0625 38.9375
Q17.7812 36.2812 15.2812 32.625
L12.5 21.2969
Q10.8906 14.9844 10.7969 11.1875
Q10.7969 7.42188 12.4219 4.46875
Q14.0625 1.51562 17.4844 1.51562" id="Cmmi10-62"/>
      </defs>
      <g transform="translate(295.677692308 231.517216328)scale(0.18 -0.18)">
       <use transform="translate(0.0 0.609375)" xlink:href="#Cmmi10-62"/>
      </g>
     </g>
    </g>
   </g>
   <g id="matplotlib.axis_2"/>
   <g id="patch_6">
    <path d="
M7.2 213.84
L305.28 213.84" style="fill:none;stroke:#000000;stroke-width:0.8;"/>
   </g>
   <g id="patch_7">
    <path d="
M84.5862 269.28
L84.5862 7.2" style="fill:none;stroke:#000000;stroke-width:0.8;"/>
   </g>
   <g id="text_3">
    <!-- $y=v(t)$ -->
    <defs>
     <path d="
M31 -24.8125
Q25.4375 -20.4062 21.4062 -14.7188
Q17.3906 -9.03125 14.8125 -2.57812
Q12.25 3.85938 10.9844 10.8906
Q9.71875 17.9219 9.71875 25
Q9.71875 32.1719 10.9844 39.2031
Q12.25 46.2344 14.8594 52.7344
Q17.4844 59.2344 21.5312 64.8906
Q25.5938 70.5625 31 74.8125
Q31 75 31.5 75
L32.4219 75
Q32.7188 75 32.9531 74.7344
Q33.2031 74.4688 33.2031 74.125
Q33.2031 73.6875 33.0156 73.4844
Q28.125 68.7031 24.875 63.2344
Q21.625 57.7656 19.6406 51.5781
Q17.6719 45.4062 16.7969 38.7812
Q15.9219 32.1719 15.9219 25
Q15.9219 -6.78125 32.9062 -23.2969
Q33.2031 -23.5781 33.2031 -24.125
Q33.2031 -24.3594 32.9375 -24.6719
Q32.6719 -25 32.4219 -25
L31.5 -25
Q31 -25 31 -24.8125" id="Cmr10-28"/>
     <path d="
M6.5 -25
Q5.60938 -25 5.60938 -24.125
Q5.60938 -23.6875 5.8125 -23.4844
Q22.9062 -6.78125 22.9062 25
Q22.9062 56.7812 6 73.2969
Q5.60938 73.5312 5.60938 74.125
Q5.60938 74.4688 5.875 74.7344
Q6.15625 75 6.5 75
L7.42188 75
Q7.71875 75 7.90625 74.8125
Q15.0938 69.1406 19.875 61.0312
Q24.6562 52.9375 26.875 43.75
Q29.1094 34.5781 29.1094 25
Q29.1094 17.9219 27.9062 11.0625
Q26.7031 4.20312 24.0938 -2.45312
Q21.4844 -9.125 17.4844 -14.7656
Q13.4844 -20.4062 7.90625 -24.8125
Q7.71875 -25 7.42188 -25
z
" id="Cmr10-29"/>
     <path d="
M10.6875 11.2812
Q10.6875 13.5312 11.2188 16.2031
Q11.7656 18.8906 12.2969 20.625
Q12.8438 22.3594 14.75 27.3906
Q16.6562 32.4219 16.7031 32.625
Q18.0156 36.2812 18.0156 38.625
Q18.0156 41.6094 15.8281 41.6094
Q11.8594 41.6094 9.29688 37.5312
Q6.73438 33.4531 5.51562 28.4219
Q5.32812 27.7812 4.6875 27.7812
L3.51562 27.7812
Q2.6875 27.7812 2.6875 28.7188
L2.6875 29
Q4.29688 34.9688 7.60938 39.5781
Q10.9375 44.1875 16.0156 44.1875
Q19.5781 44.1875 22.0469 41.8438
Q24.5156 39.5 24.5156 35.8906
Q24.5156 34.0312 23.6875 31.9844
Q21.7344 26.9062 20.6094 23.8438
Q19.4844 20.7969 18.5312 17.0156
Q17.5781 13.2344 17.5781 10.0156
Q17.5781 6.25 19.3125 3.875
Q21.0469 1.51562 24.7031 1.51562
Q31.6406 1.51562 37.2031 12.2031
Q38.9688 15.6719 40.5312 20.3594
Q42.0938 25.0469 42.0938 27.9844
Q42.0938 31 41.1094 32.6875
Q40.1406 34.375 38.5781 36.2031
Q37.0156 38.0312 37.0156 39.1094
Q37.0156 41.0625 38.625 42.6719
Q40.2344 44.2812 42.1875 44.2812
Q44.5781 44.2812 45.625 42.0781
Q46.6875 39.8906 46.6875 37.1094
Q46.6875 33.7969 45.7344 29.2031
Q44.7812 24.6094 43.0938 19.6719
Q41.4062 14.75 39.9844 11.9219
Q33.4062 -1.125 24.6094 -1.125
Q18.3125 -1.125 14.5 2.01562
Q10.6875 5.17188 10.6875 11.2812" id="Cmmi10-76"/>
     <path d="
M6.20312 8.10938
Q6.20312 9.57812 6.5 10.8906
L13.7188 39.5938
L3.21875 39.5938
Q2.20312 39.5938 2.20312 40.9219
Q2.59375 43.1094 3.51562 43.1094
L14.5938 43.1094
L18.6094 59.4219
Q19 60.75 20.1719 61.6719
Q21.3438 62.5938 22.7969 62.5938
Q24.0781 62.5938 24.9219 61.8281
Q25.7812 61.0781 25.7812 59.8125
Q25.7812 59.5156 25.75 59.3438
Q25.7344 59.1875 25.6875 58.9844
L21.6875 43.1094
L31.9844 43.1094
Q33.0156 43.1094 33.0156 41.7969
Q32.9531 41.5469 32.8125 40.9531
Q32.6719 40.375 32.4219 39.9844
Q32.1719 39.5938 31.6875 39.5938
L20.7969 39.5938
L13.625 10.6875
Q12.8906 7.85938 12.8906 5.8125
Q12.8906 1.51562 15.8281 1.51562
Q20.2188 1.51562 23.6094 5.64062
Q27 9.76562 28.8125 14.7031
Q29.2031 15.2812 29.5938 15.2812
L30.8125 15.2812
Q31.2031 15.2812 31.4375 15.0156
Q31.6875 14.75 31.6875 14.4062
Q31.6875 14.2031 31.5938 14.1094
Q29.3906 8.0625 25.1875 3.46875
Q21 -1.125 15.5781 -1.125
Q11.625 -1.125 8.90625 1.45312
Q6.20312 4.04688 6.20312 8.10938" id="Cmmi10-74"/>
     <path d="
M7.51562 13.2812
Q6.6875 13.2812 6.14062 13.9062
Q5.60938 14.5469 5.60938 15.2812
Q5.60938 16.1094 6.14062 16.6875
Q6.6875 17.2812 7.51562 17.2812
L70.3125 17.2812
Q71.0469 17.2812 71.5781 16.6875
Q72.125 16.1094 72.125 15.2812
Q72.125 14.5469 71.5781 13.9062
Q71.0469 13.2812 70.3125 13.2812
z

M7.51562 32.7188
Q6.6875 32.7188 6.14062 33.2969
Q5.60938 33.8906 5.60938 34.7188
Q5.60938 35.4531 6.14062 36.0781
Q6.6875 36.7188 7.51562 36.7188
L70.3125 36.7188
Q71.0469 36.7188 71.5781 36.0781
Q72.125 35.4531 72.125 34.7188
Q72.125 33.8906 71.5781 33.2969
Q71.0469 32.7188 70.3125 32.7188
z
" id="Cmr10-3d"/>
     <path d="
M8.40625 -14.3125
Q10.5 -17.9219 15.7188 -17.9219
Q20.4531 -17.9219 23.9219 -14.5938
Q27.3906 -11.2812 29.5156 -6.5625
Q31.6406 -1.85938 32.8125 3.07812
Q28.375 -1.125 23.1875 -1.125
Q19.2344 -1.125 16.4531 0.234375
Q13.6719 1.60938 12.125 4.3125
Q10.5938 7.03125 10.5938 10.8906
Q10.5938 14.1562 11.4688 17.5938
Q12.3594 21.0469 13.9375 25.2656
Q15.5312 29.5 16.7031 32.625
Q18.0156 36.2812 18.0156 38.625
Q18.0156 41.6094 15.8281 41.6094
Q11.8594 41.6094 9.29688 37.5312
Q6.73438 33.4531 5.51562 28.4219
Q5.32812 27.7812 4.6875 27.7812
L3.51562 27.7812
Q2.6875 27.7812 2.6875 28.7188
L2.6875 29
Q4.29688 34.9688 7.60938 39.5781
Q10.9375 44.1875 16.0156 44.1875
Q19.5781 44.1875 22.0469 41.8438
Q24.5156 39.5 24.5156 35.8906
Q24.5156 34.0312 23.6875 31.9844
Q23.25 30.7656 21.6875 26.6562
Q20.125 22.5625 19.2812 19.875
Q18.4531 17.1875 17.9219 14.5938
Q17.3906 12.0156 17.3906 9.42188
Q17.3906 6.10938 18.7969 3.8125
Q20.2188 1.51562 23.2969 1.51562
Q29.5 1.51562 34.4219 9.07812
L42 39.8906
Q42.3281 41.2188 43.5469 42.1562
Q44.7812 43.1094 46.1875 43.1094
Q47.4062 43.1094 48.3125 42.3281
Q49.2188 41.5469 49.2188 40.2812
Q49.2188 39.7031 49.125 39.5
L39.2031 -0.296875
Q37.8906 -5.42188 34.375 -10.1094
Q30.8594 -14.7969 25.9062 -17.6562
Q20.9531 -20.5156 15.5781 -20.5156
Q12.9844 -20.5156 10.4375 -19.5
Q7.90625 -18.5 6.34375 -16.5
Q4.78125 -14.5 4.78125 -11.8125
Q4.78125 -9.07812 6.39062 -7.07812
Q8.01562 -5.07812 10.6875 -5.07812
Q12.3125 -5.07812 13.4062 -6.07812
Q14.5 -7.07812 14.5 -8.6875
Q14.5 -10.9844 12.7812 -12.6875
Q11.0781 -14.4062 8.79688 -14.4062
Q8.6875 -14.3594 8.59375 -14.3281
Q8.5 -14.3125 8.40625 -14.3125" id="Cmmi10-79"/>
    </defs>
    <g transform="translate(128.07 142.740018018)scale(0.18 -0.18)">
     <use xlink:href="#Cmmi10-79"/>
     <use transform="translate(66.58203125 0.0)" xlink:href="#Cmr10-3d"/>
     <use transform="translate(150.640625 0.0)" xlink:href="#Cmmi10-76"/>
     <use transform="translate(199.029296875 0.0)" xlink:href="#Cmr10-28"/>
     <use transform="translate(237.84765625 0.0)" xlink:href="#Cmmi10-74"/>
     <use transform="translate(273.931640625 0.0)" xlink:href="#Cmr10-29"/>
    </g>
   </g>
   <g id="text_4">
    <!-- $A_1$ -->
    <defs>
     <path d="
M9.28125 0
L9.28125 3.51562
Q21.7812 3.51562 21.7812 6.6875
L21.7812 59.1875
Q16.6094 56.6875 8.6875 56.6875
L8.6875 60.2031
Q20.9531 60.2031 27.2031 66.6094
L28.6094 66.6094
Q28.9531 66.6094 29.2656 66.3281
Q29.5938 66.0625 29.5938 65.7188
L29.5938 6.6875
Q29.5938 3.51562 42.0938 3.51562
L42.0938 0
z
" id="Cmr10-31"/>
     <path d="
M4.5 0
Q3.51562 0 3.51562 1.3125
Q3.90625 3.51562 4.78125 3.51562
Q8.84375 3.51562 11.7969 5.125
Q14.75 6.73438 16.8906 10.1094
Q17.0938 10.2969 17.0938 10.2969
L52.7812 70.5156
Q53.5625 71.5781 54.6875 71.5781
L56 71.5781
Q56.2969 71.5781 56.5938 71.4531
Q56.8906 71.3438 57.1094 71.0625
Q57.3281 70.7969 57.3281 70.5156
L63.375 5.90625
Q63.375 5.46875 63.8125 4.59375
Q64.7969 3.51562 71.2969 3.51562
Q72.3125 3.51562 72.3125 2.20312
Q71.9688 0.875 71.75 0.4375
Q71.5312 0 70.6094 0
L45.6094 0
Q44.6719 0 44.6719 1.3125
Q45.2188 3.51562 46 3.51562
Q53.9062 3.51562 54.3906 6.20312
L52.875 22.7031
L28.2188 22.7031
L20.2188 9.28125
Q19.4844 8.20312 19.4844 6.78125
Q19.4844 5.03125 21.1719 4.26562
Q22.8594 3.51562 24.9062 3.51562
Q25.875 3.51562 25.875 2.20312
Q25.5312 0.78125 25.3281 0.390625
Q25.1406 0 24.2188 0
z

M30.1719 26.2188
L52.4844 26.2188
L49.5156 58.5938
z
" id="Cmmi10-41"/>
    </defs>
    <g transform="translate(105.580384615 177.660023063)scale(0.18 -0.18)">
     <use transform="translate(0.0 0.421875)" xlink:href="#Cmmi10-41"/>
     <use transform="translate(75.0 -25.0875)scale(0.7)" xlink:href="#Cmr10-31"/>
    </g>
   </g>
   <g id="text_5">
    <!-- $A_2$ -->
    <defs>
     <path d="
M4.98438 0
L4.98438 2.6875
Q4.98438 2.9375 5.17188 3.21875
L20.7031 20.4062
Q24.2188 24.2188 26.4062 26.7969
Q28.6094 29.3906 30.75 32.7656
Q32.9062 36.1406 34.1562 39.625
Q35.4062 43.1094 35.4062 47.0156
Q35.4062 51.125 33.8906 54.8594
Q32.375 58.5938 29.375 60.8438
Q26.375 63.0938 22.125 63.0938
Q17.7812 63.0938 14.3125 60.4688
Q10.8438 57.8594 9.42188 53.7188
Q9.8125 53.8125 10.5 53.8125
Q12.75 53.8125 14.3281 52.2969
Q15.9219 50.7812 15.9219 48.3906
Q15.9219 46.0938 14.3281 44.5
Q12.75 42.9219 10.5 42.9219
Q8.15625 42.9219 6.5625 44.5469
Q4.98438 46.1875 4.98438 48.3906
Q4.98438 52.1562 6.39062 55.4375
Q7.8125 58.7344 10.4688 61.2969
Q13.1406 63.875 16.4844 65.2344
Q19.8281 66.6094 23.5781 66.6094
Q29.2969 66.6094 34.2188 64.1875
Q39.1562 61.7656 42.0312 57.3438
Q44.9219 52.9375 44.9219 47.0156
Q44.9219 42.6719 43.0156 38.7656
Q41.1094 34.8594 38.125 31.6562
Q35.1562 28.4688 30.5156 24.4062
Q25.875 20.3594 24.4219 19
L13.0938 8.10938
L22.7031 8.10938
Q29.7812 8.10938 34.5469 8.21875
Q39.3125 8.34375 39.5938 8.59375
Q40.7656 9.85938 42 17.8281
L44.9219 17.8281
L42.0938 0
z
" id="Cmr10-32"/>
    </defs>
    <g transform="translate(162.903461538 238.140031711)scale(0.18 -0.18)">
     <use transform="translate(0.0 0.421875)" xlink:href="#Cmmi10-41"/>
     <use transform="translate(75.0 -25.0875)scale(0.7)" xlink:href="#Cmr10-32"/>
    </g>
   </g>
   <g id="text_6">
    <!-- $A_3$ -->
    <defs>
     <path d="
M9.51562 7.71875
Q11.8594 4.29688 15.8125 2.64062
Q19.7812 0.984375 24.3125 0.984375
Q30.125 0.984375 32.5625 5.9375
Q35.0156 10.8906 35.0156 17.1875
Q35.0156 20.0156 34.5 22.8438
Q33.9844 25.6875 32.7656 28.125
Q31.5469 30.5625 29.4219 32.0312
Q27.2969 33.5 24.2188 33.5
L17.5781 33.5
Q16.7031 33.5 16.7031 34.4219
L16.7031 35.2969
Q16.7031 36.0781 17.5781 36.0781
L23.0938 36.5312
Q26.6094 36.5312 28.9219 39.1562
Q31.25 41.7969 32.3281 45.5781
Q33.4062 49.3594 33.4062 52.7812
Q33.4062 57.5625 31.1562 60.6406
Q28.9062 63.7188 24.3125 63.7188
Q20.5156 63.7188 17.0469 62.2812
Q13.5781 60.8438 11.5312 57.9062
Q11.7188 57.9531 11.8594 57.9844
Q12.0156 58.0156 12.2031 58.0156
Q14.4531 58.0156 15.9688 56.4531
Q17.4844 54.8906 17.4844 52.6875
Q17.4844 50.5312 15.9688 48.9688
Q14.4531 47.4062 12.2031 47.4062
Q10.0156 47.4062 8.45312 48.9688
Q6.89062 50.5312 6.89062 52.6875
Q6.89062 56.9844 9.46875 60.1562
Q12.0625 63.3281 16.1406 64.9688
Q20.2188 66.6094 24.3125 66.6094
Q27.3438 66.6094 30.7031 65.7031
Q34.0781 64.7969 36.8125 63.1094
Q39.5469 61.4219 41.2812 58.7812
Q43.0156 56.1562 43.0156 52.7812
Q43.0156 48.5781 41.1406 45.0156
Q39.2656 41.4531 35.9844 38.8594
Q32.7188 36.2812 28.8125 35.0156
Q33.1562 34.1875 37.0625 31.7344
Q40.9688 29.2969 43.3281 25.4844
Q45.7031 21.6875 45.7031 17.2812
Q45.7031 11.7656 42.6719 7.29688
Q39.6562 2.82812 34.7188 0.3125
Q29.7812 -2.20312 24.3125 -2.20312
Q19.625 -2.20312 14.9062 -0.40625
Q10.2031 1.375 7.20312 4.9375
Q4.20312 8.5 4.20312 13.4844
Q4.20312 15.9688 5.85938 17.625
Q7.51562 19.2812 10.0156 19.2812
Q11.625 19.2812 12.9688 18.5312
Q14.3125 17.7812 15.0625 16.4062
Q15.8281 15.0469 15.8281 13.4844
Q15.8281 11.0312 14.1094 9.375
Q12.4062 7.71875 10.0156 7.71875
z
" id="Cmr10-33"/>
    </defs>
    <g transform="translate(252.470769231 167.400021621)scale(0.18 -0.18)">
     <use transform="translate(0.0 0.421875)" xlink:href="#Cmmi10-41"/>
     <use transform="translate(75.0 -25.0875)scale(0.7)" xlink:href="#Cmr10-33"/>
    </g>
   </g>
  </g>
 </g>
 <defs>
  <clipPath id="p200f78260c">
   <rect height="262.08" width="298.08" x="7.2" y="7.2"/>
  </clipPath>
 </defs>
</svg>
