<?xml version="1.0" encoding="utf-8" standalone="no"?>
<!DOCTYPE svg PUBLIC "-//W3C//DTD SVG 1.1//EN"
  "http://www.w3.org/Graphics/SVG/1.1/DTD/svg11.dtd">
<!-- Created with matplotlib (http://matplotlib.org/) -->
<svg height="277pt" version="1.1" viewBox="0 0 420 277" width="420pt" xmlns="http://www.w3.org/2000/svg" xmlns:xlink="http://www.w3.org/1999/xlink">
 <defs>
  <style type="text/css">
*{stroke-linecap:butt;stroke-linejoin:round;}
  </style>
 </defs>
 <g id="figure_1">
  <g id="patch_1">
   <path d="
M0 277.479
L420.183 277.479
L420.183 0
L0 0
z
" style="fill:#ffffff;"/>
  </g>
  <g id="axes_1">
   <g id="patch_2">
    <path d="
M7.2 270.279
L388.743 270.279
L388.743 42.2988
L7.2 42.2988
z
" style="fill:#ffffff;"/>
   </g>
   <g id="patch_3">
    <path clip-path="url(#pcda5fb745c)" d="
M311.526 226.75
L309.887 226.703
L309.401 226.69
L307.634 226.639
L306.75 226.614
L304.913 226.56
L303.965 226.532
L302.716 226.495
L301.848 226.469
L300.651 226.433
L299.363 226.393
L297.621 226.34
L296.578 226.307
L296.093 226.292
L294.888 226.254
L292.942 226.192
L292.142 226.166
L290.425 226.11
L289.512 226.08
L288.722 226.054
L287.146 226.001
L286.033 225.964
L284.439 225.91
L283.867 225.89
L281.455 225.806
L280.354 225.767
L279.241 225.727
L278.808 225.712
L277.177 225.653
L276.488 225.628
L274.713 225.562
L273.583 225.52
L272.538 225.481
L270.66 225.409
L270.147 225.389
L268.037 225.307
L267.591 225.29
L265.773 225.217
L264.741 225.176
L263.731 225.135
L262.532 225.086
L261.293 225.034
L260.19 224.988
L258.085 224.899
L257.399 224.87
L255.838 224.802
L255.414 224.783
L253.537 224.7
L253.04 224.678
L251.783 224.621
L249.582 224.521
L248.531 224.472
L248.171 224.455
L246.804 224.391
L244.934 224.301
L243.748 224.244
L242.313 224.173
L241.837 224.149
L240.772 224.096
L239.393 224.027
L237.477 223.928
L236.443 223.874
L235.065 223.802
L233.961 223.743
L233.122 223.697
L231.659 223.618
L230.75 223.568
L229.496 223.498
L227.342 223.376
L226.4 223.321
L225.239 223.254
L223.83 223.17
L222.464 223.089
L221.262 223.016
L220.893 222.993
L219.635 222.915
L217.73 222.796
L217.192 222.762
L216.273 222.703
L213.936 222.55
L213.057 222.492
L212.306 222.441
L210.827 222.341
L209.316 222.237
L208.081 222.15
L206.485 222.036
L206.041 222.004
L205.209 221.944
L202.862 221.77
L202.33 221.73
L201.308 221.653
L199.512 221.514
L197.91 221.388
L197.269 221.337
L196.531 221.278
L195.328 221.18
L193.448 221.023
L191.855 220.888
L190.689 220.788
L190.288 220.753
L188.658 220.609
L187.299 220.487
L186.409 220.406
L185.133 220.287
L184.29 220.208
L182.524 220.04
L181.003 219.891
L180.335 219.825
L179.065 219.698
L177.728 219.561
L176.101 219.392
L175.58 219.337
L174.058 219.173
L172.19 218.968
L170.86 218.818
L169.836 218.701
L168.354 218.529
L167.343 218.409
L166.484 218.306
L165.031 218.128
L163.912 217.988
L163.152 217.892
L161.193 217.639
L160.875 217.597
L159.663 217.436
L157.955 217.204
L156.584 217.012
L155.735 216.892
L154.278 216.681
L153.245 216.529
L151.715 216.298
L150.113 216.05
L149.308 215.923
L148.475 215.789
L146.342 215.439
L145.603 215.314
L144.495 215.124
L143.234 214.904
L142.256 214.729
L140.553 214.418
L139.652 214.249
L138.161 213.964
L137.592 213.853
L136.346 213.605
L134.202 213.165
L133.078 212.927
L132.164 212.729
L130.608 212.385
L129.052 212.029
L127.917 211.762
L126.987 211.539
L125.852 211.26
L125.019 211.051
L123.596 210.685
L121.852 210.222
L121.514 210.13
L119.576 209.589
L118.691 209.334
L116.739 208.752
L116.029 208.533
L114.611 208.087
L113.044 207.574
L112.808 207.495
L111.348 206.997
L109.848 206.465
L108.37 205.921
L106.945 205.377
L106.718 205.288
L105.321 204.729
L104.177 204.256
L102.17 203.389
L101.436 203.06
L100.726 202.734
L98.7401 201.786
L97.1419 200.981
L96.0219 200.394
L94.9465 199.809
L93.5914 199.044
L93.322 198.888
L91.1414 197.572
L89.7206 196.661
L89.0501 196.215
L87.7473 195.319
L87.0266 194.804
L84.8696 193.182
L84.3232 192.749
L83.4794 192.063
L81.6247 190.474
L80.3624 189.323
L79.6669 188.662
L78.4906 187.501
L77.5016 186.477
L76.5126 185.408
L75.9385 184.766
L74.8589 183.511
L73.7793 182.191
L73.0441 181.252
L72.4379 180.453
L71.2731 178.847
L70.1084 177.143
L69.1904 175.725
L68.4601 174.546
L67.7298 173.319
L66.947 171.947
L66.947 171.947
L67.5893 171.565
L69.2676 170.59
L71.2482 169.475
L72.4539 168.815
L73.5447 168.229
L74.638 167.652
L75.3115 167.302
L77.2566 166.309
L77.6208 166.127
L79.4935 165.202
L80.7779 164.582
L81.3087 164.329
L82.7548 163.649
L84.4189 162.882
L85.7849 162.265
L86.6918 161.86
L88.1224 161.232
L88.6549 161
L90.185 160.344
L91.5776 159.756
L93.0602 159.14
L93.6384 158.903
L94.7976 158.432
L96.5233 157.74
L97.4166 157.387
L98.8689 156.82
L99.9005 156.422
L101.797 155.701
L102.334 155.499
L103.306 155.137
L104.47 154.707
L106.204 154.075
L107.051 153.769
L109.084 153.046
L109.683 152.836
L111.032 152.365
L112.702 151.79
L113.802 151.415
L114.412 151.209
L116.561 150.491
L116.878 150.386
L118.415 149.881
L120.038 149.354
L120.51 149.202
L122.176 148.669
L123.788 148.16
L125.321 147.682
L126.222 147.403
L126.808 147.223
L128.837 146.604
L130.026 146.245
L130.909 145.981
L131.592 145.777
L133.083 145.336
L134.078 145.045
L135.784 144.548
L137.194 144.142
L138.014 143.908
L139.071 143.608
L141.091 143.039
L142.1 142.758
L142.728 142.583
L143.764 142.297
L145.415 141.845
L147.441 141.296
L147.786 141.203
L148.835 140.922
L150.705 140.425
L152.261 140.016
L152.385 139.983
L154.811 139.352
L155.776 139.103
L156.432 138.935
L158.3 138.458
L159.607 138.128
L159.993 138.031
L161.925 137.548
L162.302 137.454
L164.236 136.976
L165.177 136.744
L167.053 136.287
L167.203 136.251
L169.264 135.754
L170.745 135.399
L171.627 135.19
L173.16 134.827
L173.793 134.679
L174.502 134.512
L176.81 133.975
L177.453 133.826
L179.314 133.398
L180.25 133.184
L181.249 132.957
L182.292 132.721
L183.192 132.518
L185.31 132.044
L186.269 131.83
L187.786 131.495
L188.832 131.264
L190.106 130.985
L190.877 130.817
L192.06 130.56
L193.358 130.28
L194.438 130.048
L195.936 129.727
L197.756 129.341
L199.006 129.077
L200.181 128.83
L201.331 128.59
L201.802 128.491
L203.182 128.205
L204.548 127.922
L206.137 127.596
L207.62 127.293
L207.888 127.239
L208.964 127.02
L210.746 126.66
L211.823 126.444
L212.747 126.259
L215.03 125.805
L215.106 125.79
L217.271 125.363
L218.383 125.145
L219.421 124.942
L220.248 124.781
L222.121 124.418
L223.359 124.179
L224.335 123.992
L225.279 123.811
L226.925 123.498
L227.942 123.305
L228.808 123.141
L229.864 122.942
L231.216 122.689
L232.344 122.478
L234.453 122.086
L235.024 121.98
L236.485 121.711
L238.344 121.37
L239.328 121.19
L240.842 120.915
L241.254 120.84
L242.199 120.669
L244.413 120.27
L244.562 120.244
L246.896 119.827
L247.187 119.775
L248.692 119.508
L249.869 119.3
L251.051 119.092
L252.822 118.781
L253.829 118.606
L254.534 118.483
L255.959 118.236
L257.954 117.891
L258.896 117.729
L260.107 117.522
L261.688 117.252
L262.914 117.044
L264.106 116.842
L265.064 116.68
L266.25 116.48
L267.844 116.213
L268.616 116.084
L269.862 115.876
L270.808 115.719
L272.348 115.464
L273.534 115.269
L275.252 114.986
L276.467 114.788
L277.088 114.686
L278.405 114.472
L279.552 114.286
L280.971 114.056
L282.55 113.802
L282.885 113.748
L284.692 113.459
L285.253 113.369
L287.101 113.075
L288.475 112.857
L289.992 112.618
L291.243 112.421
L291.263 112.418
L293.658 112.043
L294.681 111.883
L295.179 111.806
L296.822 111.551
L298.009 111.367
L299.047 111.207
L300.777 110.942
L302.099 110.739
L303.415 110.538
L304.721 110.34
L305.141 110.276
L306.375 110.089
L307.561 109.91
L309.214 109.661
L310.606 109.452
L311.526 109.315
z
" style="fill:#800080;opacity:0.5;"/>
   </g>
   <g id="line2d_1">
    <path clip-path="url(#pcda5fb745c)" d="
M14.5374 234.579
L381.405 234.579
L381.405 234.579" style="fill:none;"/>
   </g>
   <g id="line2d_2">
    <path clip-path="url(#pcda5fb745c)" d="
M32.0073 234.579
L32.0809 226.549
L32.1545 224.462
L32.5226 219.218
L33.038 215.226
L33.7743 211.417
L34.8114 207.562
L35.9661 204.272
L37.1207 201.573
L39.1692 197.65
L41.2369 194.392
L43.6838 191.115
L45.4139 189.066
L47.6508 186.664
L51.5255 182.996
L54.6615 180.37
L58.0311 177.805
L61.4745 175.404
L66.3873 172.283
L72.3753 168.858
L77.1145 166.381
L84.0096 163.069
L91.8793 159.63
L99.9102 156.419
L106.845 153.844
L115.537 150.832
L126.169 147.419
L135.422 144.653
L146.492 141.553
L158.796 138.333
L173.201 134.818
L185.759 131.944
L202.347 128.378
L219.898 124.849
L238.457 121.349
L259.039 117.705
L280.428 114.144
L303.32 110.553
L328.26 106.863
L355.503 103.063
L381.405 99.6423
L381.405 99.6423" style="fill:none;stroke:#ff0000;stroke-linecap:square;stroke-width:2.0;"/>
   </g>
   <g id="line2d_3">
    <path clip-path="url(#pcda5fb745c)" d="
M66.947 171.947
L71.2482 169.475
L77.2566 166.309
L82.7548 163.649
L90.185 160.344
L97.4166 157.387
L106.204 154.075
L114.412 151.209
L123.788 148.16
L134.078 145.045
L145.415 141.845
L158.3 138.458
L171.627 135.19
L186.269 131.83
L201.802 128.491
L219.421 124.942
L238.344 121.37
L258.896 117.729
L280.971 114.056
L305.141 110.276
L311.526 109.315
L311.526 109.315" style="fill:none;stroke:#ff0000;stroke-linecap:square;stroke-width:2.0;"/>
   </g>
   <g id="line2d_4">
    <path clip-path="url(#pcda5fb745c)" d="
M41.2966 -1
L42.1303 18.4041
L43.2687 40.2564
L44.2415 55.7089
L45.5491 72.9795
L46.6473 85.102
L48.0007 97.7508
L49.3084 108.093
L50.8963 118.726
L52.2856 126.663
L54.0281 135.203
L55.5295 141.546
L56.6018 145.602
L58.4739 151.895
L60.7346 158.402
L62.9784 163.921
L64.6537 167.547
L66.8949 171.853
L69.5255 176.251
L71.2645 178.835
L73.5839 181.945
L75.3334 184.07
L78.3768 187.385
L82.0224 190.825
L84.4359 192.839
L87.8176 195.368
L91.3728 197.716
L96.2637 200.522
L101.262 202.98
L106.103 205.045
L111.278 206.973
L115.697 208.43
L122.162 210.305
L127.711 211.713
L136.37 213.61
L145.012 215.214
L152.297 216.386
L163.223 217.901
L173.443 219.106
L187.523 220.507
L203.767 221.838
L220.938 222.996
L240.628 224.089
L263.724 225.135
L289.32 226.074
L322.198 227.038
L359.595 227.898
L381.405 228.315
L381.405 228.315" style="fill:none;stroke:#0000ff;stroke-linecap:square;stroke-width:2.0;"/>
   </g>
   <g id="matplotlib.axis_1">
    <g id="xtick_1">
     <g id="line2d_5">
      <defs>
       <path d="
M0 0
L0 -4" id="m93b0483c22" style="stroke:#000000;stroke-width:0.5;"/>
      </defs>
      <g>
       <use style="stroke:#000000;stroke-width:0.5;" x="66.9470398352" xlink:href="#m93b0483c22" y="234.578585165"/>
      </g>
     </g>
     <g id="text_1">
      <!-- 1 -->
      <defs>
       <path d="
M12.4062 8.29688
L28.5156 8.29688
L28.5156 63.9219
L10.9844 60.4062
L10.9844 69.3906
L28.4219 72.9062
L38.2812 72.9062
L38.2812 8.29688
L54.3906 8.29688
L54.3906 0
L12.4062 0
z
" id="BitstreamVeraSans-Roman-31"/>
      </defs>
      <g transform="translate(63.0404773352 252.255772665)scale(0.18 -0.18)">
       <use xlink:href="#BitstreamVeraSans-Roman-31"/>
      </g>
     </g>
    </g>
    <g id="xtick_2">
     <g id="line2d_6">
      <g>
       <use style="stroke:#000000;stroke-width:0.5;" x="311.525565476" xlink:href="#m93b0483c22" y="234.578585165"/>
      </g>
     </g>
     <g id="text_2">
      <!-- 8 -->
      <defs>
       <path d="
M31.7812 34.625
Q24.75 34.625 20.7188 30.8594
Q16.7031 27.0938 16.7031 20.5156
Q16.7031 13.9219 20.7188 10.1562
Q24.75 6.39062 31.7812 6.39062
Q38.8125 6.39062 42.8594 10.1719
Q46.9219 13.9688 46.9219 20.5156
Q46.9219 27.0938 42.8906 30.8594
Q38.875 34.625 31.7812 34.625
M21.9219 38.8125
Q15.5781 40.375 12.0312 44.7188
Q8.5 49.0781 8.5 55.3281
Q8.5 64.0625 14.7188 69.1406
Q20.9531 74.2188 31.7812 74.2188
Q42.6719 74.2188 48.875 69.1406
Q55.0781 64.0625 55.0781 55.3281
Q55.0781 49.0781 51.5312 44.7188
Q48 40.375 41.7031 38.8125
Q48.8281 37.1562 52.7969 32.3125
Q56.7812 27.4844 56.7812 20.5156
Q56.7812 9.90625 50.3125 4.23438
Q43.8438 -1.42188 31.7812 -1.42188
Q19.7344 -1.42188 13.25 4.23438
Q6.78125 9.90625 6.78125 20.5156
Q6.78125 27.4844 10.7812 32.3125
Q14.7969 37.1562 21.9219 38.8125
M18.3125 54.3906
Q18.3125 48.7344 21.8438 45.5625
Q25.3906 42.3906 31.7812 42.3906
Q38.1406 42.3906 41.7188 45.5625
Q45.3125 48.7344 45.3125 54.3906
Q45.3125 60.0625 41.7188 63.2344
Q38.1406 66.4062 31.7812 66.4062
Q25.3906 66.4062 21.8438 63.2344
Q18.3125 60.0625 18.3125 54.3906" id="BitstreamVeraSans-Roman-38"/>
      </defs>
      <g transform="translate(307.025565476 252.255772665)scale(0.18 -0.18)">
       <use xlink:href="#BitstreamVeraSans-Roman-38"/>
      </g>
     </g>
    </g>
    <g id="text_3">
     <!-- $x$ -->
     <defs>
      <path d="
M7.8125 2.875
Q9.57812 1.51562 12.7969 1.51562
Q15.9219 1.51562 18.3125 4.51562
Q20.7031 7.51562 21.5781 11.0781
L26.125 28.8125
Q27.2031 33.6406 27.2031 35.4062
Q27.2031 37.8906 25.8125 39.75
Q24.4219 41.6094 21.9219 41.6094
Q18.75 41.6094 15.9688 39.625
Q13.1875 37.6406 11.2812 34.5938
Q9.375 31.5469 8.59375 28.4219
Q8.40625 27.7812 7.8125 27.7812
L6.59375 27.7812
Q5.8125 27.7812 5.8125 28.7188
L5.8125 29
Q6.78125 32.7188 9.125 36.25
Q11.4688 39.7969 14.8594 41.9844
Q18.2656 44.1875 22.125 44.1875
Q25.7812 44.1875 28.7344 42.2344
Q31.6875 40.2812 32.9062 36.9219
Q34.625 39.9844 37.2812 42.0781
Q39.9375 44.1875 43.1094 44.1875
Q45.2656 44.1875 47.5 43.4219
Q49.75 42.6719 51.1719 41.1094
Q52.5938 39.5469 52.5938 37.2031
Q52.5938 34.6719 50.9531 32.8281
Q49.3125 31 46.7812 31
Q45.1719 31 44.0938 32.0312
Q43.0156 33.0625 43.0156 34.625
Q43.0156 36.7188 44.4531 38.2969
Q45.9062 39.8906 47.9062 40.1875
Q46.0938 41.6094 42.9219 41.6094
Q39.7031 41.6094 37.3281 38.625
Q34.9688 35.6406 33.9844 31.9844
L29.5938 14.3125
Q28.5156 10.2969 28.5156 7.71875
Q28.5156 5.17188 29.9531 3.34375
Q31.3906 1.51562 33.7969 1.51562
Q38.4844 1.51562 42.1562 5.64062
Q45.8438 9.76562 47.0156 14.7031
Q47.2188 15.2812 47.7969 15.2812
L49.0312 15.2812
Q49.4219 15.2812 49.6562 15.0156
Q49.9062 14.75 49.9062 14.4062
Q49.9062 14.3125 49.8125 14.1094
Q48.3906 8.15625 43.8438 3.51562
Q39.3125 -1.125 33.5938 -1.125
Q29.9375 -1.125 26.9844 0.84375
Q24.0312 2.82812 22.7969 6.20312
Q21.2344 3.26562 18.4688 1.0625
Q15.7188 -1.125 12.5938 -1.125
Q10.4531 -1.125 8.17188 -0.359375
Q5.90625 0.390625 4.48438 1.95312
Q3.07812 3.51562 3.07812 5.90625
Q3.07812 8.25 4.70312 10.1719
Q6.34375 12.1094 8.79688 12.1094
Q10.4531 12.1094 11.5781 11.1094
Q12.7031 10.1094 12.7031 8.5
Q12.7031 6.39062 11.2969 4.82812
Q9.90625 3.26562 7.8125 2.875" id="Cmmi10-78"/>
     </defs>
     <g transform="translate(396.7425 234.578585165)scale(0.28 -0.28)">
      <use transform="translate(0.0 0.8125)" xlink:href="#Cmmi10-78"/>
     </g>
    </g>
   </g>
   <g id="matplotlib.axis_2">
    <g id="ytick_1">
     <g id="line2d_7">
      <defs>
       <path d="
M0 0
L4 0" id="m728421d6d4" style="stroke:#000000;stroke-width:0.5;"/>
      </defs>
      <g>
       <use style="stroke:#000000;stroke-width:0.5;" x="32.0072504579" xlink:href="#m728421d6d4" y="171.946717033"/>
      </g>
     </g>
     <g id="text_4">
      <!-- 1 -->
      <g transform="translate(20.1941254579 176.913592033)scale(0.18 -0.18)">
       <use xlink:href="#BitstreamVeraSans-Roman-31"/>
      </g>
     </g>
    </g>
    <g id="ytick_2">
     <g id="line2d_8">
      <g>
       <use style="stroke:#000000;stroke-width:0.5;" x="32.0072504579" xlink:href="#m728421d6d4" y="109.314848901"/>
      </g>
     </g>
     <g id="text_5">
      <!-- 2 -->
      <defs>
       <path d="
M19.1875 8.29688
L53.6094 8.29688
L53.6094 0
L7.32812 0
L7.32812 8.29688
Q12.9375 14.1094 22.625 23.8906
Q32.3281 33.6875 34.8125 36.5312
Q39.5469 41.8438 41.4219 45.5312
Q43.3125 49.2188 43.3125 52.7812
Q43.3125 58.5938 39.2344 62.25
Q35.1562 65.9219 28.6094 65.9219
Q23.9688 65.9219 18.8125 64.3125
Q13.6719 62.7031 7.8125 59.4219
L7.8125 69.3906
Q13.7656 71.7812 18.9375 73
Q24.125 74.2188 28.4219 74.2188
Q39.75 74.2188 46.4844 68.5469
Q53.2188 62.8906 53.2188 53.4219
Q53.2188 48.9219 51.5312 44.8906
Q49.8594 40.875 45.4062 35.4062
Q44.1875 33.9844 37.6406 27.2188
Q31.1094 20.4531 19.1875 8.29688" id="BitstreamVeraSans-Roman-32"/>
      </defs>
      <g transform="translate(19.6766254579 114.281723901)scale(0.18 -0.18)">
       <use xlink:href="#BitstreamVeraSans-Roman-32"/>
      </g>
     </g>
    </g>
    <g id="text_6">
     <!-- $y$ -->
     <defs>
      <path d="
M8.40625 -14.3125
Q10.5 -17.9219 15.7188 -17.9219
Q20.4531 -17.9219 23.9219 -14.5938
Q27.3906 -11.2812 29.5156 -6.5625
Q31.6406 -1.85938 32.8125 3.07812
Q28.375 -1.125 23.1875 -1.125
Q19.2344 -1.125 16.4531 0.234375
Q13.6719 1.60938 12.125 4.3125
Q10.5938 7.03125 10.5938 10.8906
Q10.5938 14.1562 11.4688 17.5938
Q12.3594 21.0469 13.9375 25.2656
Q15.5312 29.5 16.7031 32.625
Q18.0156 36.2812 18.0156 38.625
Q18.0156 41.6094 15.8281 41.6094
Q11.8594 41.6094 9.29688 37.5312
Q6.73438 33.4531 5.51562 28.4219
Q5.32812 27.7812 4.6875 27.7812
L3.51562 27.7812
Q2.6875 27.7812 2.6875 28.7188
L2.6875 29
Q4.29688 34.9688 7.60938 39.5781
Q10.9375 44.1875 16.0156 44.1875
Q19.5781 44.1875 22.0469 41.8438
Q24.5156 39.5 24.5156 35.8906
Q24.5156 34.0312 23.6875 31.9844
Q23.25 30.7656 21.6875 26.6562
Q20.125 22.5625 19.2812 19.875
Q18.4531 17.1875 17.9219 14.5938
Q17.3906 12.0156 17.3906 9.42188
Q17.3906 6.10938 18.7969 3.8125
Q20.2188 1.51562 23.2969 1.51562
Q29.5 1.51562 34.4219 9.07812
L42 39.8906
Q42.3281 41.2188 43.5469 42.1562
Q44.7812 43.1094 46.1875 43.1094
Q47.4062 43.1094 48.3125 42.3281
Q49.2188 41.5469 49.2188 40.2812
Q49.2188 39.7031 49.125 39.5
L39.2031 -0.296875
Q37.8906 -5.42188 34.375 -10.1094
Q30.8594 -14.7969 25.9062 -17.6562
Q20.9531 -20.5156 15.5781 -20.5156
Q12.9844 -20.5156 10.4375 -19.5
Q7.90625 -18.5 6.34375 -16.5
Q4.78125 -14.5 4.78125 -11.8125
Q4.78125 -9.07812 6.39062 -7.07812
Q8.01562 -5.07812 10.6875 -5.07812
Q12.3125 -5.07812 13.4062 -6.07812
Q14.5 -7.07812 14.5 -8.6875
Q14.5 -10.9844 12.7812 -12.6875
Q11.0781 -14.4062 8.79688 -14.4062
Q8.6875 -14.3594 8.59375 -14.3281
Q8.5 -14.3125 8.40625 -14.3125" id="Cmmi10-79"/>
     </defs>
     <g transform="translate(25.0072504579 28.41875)scale(0.28 -0.28)">
      <use transform="translate(0.0 0.8125)" xlink:href="#Cmmi10-79"/>
     </g>
    </g>
   </g>
   <g id="patch_4">
    <path d="
M7.2 234.579
L388.743 234.579" style="fill:none;stroke:#000000;stroke-width:0.8;"/>
   </g>
   <g id="patch_5">
    <path d="
M32.0073 270.279
L32.0073 42.2987" style="fill:none;stroke:#000000;stroke-width:0.8;"/>
   </g>
   <g id="text_7">
    <!-- $y=\frac{1}{x}$ -->
    <defs>
     <path d="
M9.28125 0
L9.28125 3.51562
Q21.7812 3.51562 21.7812 6.6875
L21.7812 59.1875
Q16.6094 56.6875 8.6875 56.6875
L8.6875 60.2031
Q20.9531 60.2031 27.2031 66.6094
L28.6094 66.6094
Q28.9531 66.6094 29.2656 66.3281
Q29.5938 66.0625 29.5938 65.7188
L29.5938 6.6875
Q29.5938 3.51562 42.0938 3.51562
L42.0938 0
z
" id="Cmr10-31"/>
     <path d="
M7.51562 13.2812
Q6.6875 13.2812 6.14062 13.9062
Q5.60938 14.5469 5.60938 15.2812
Q5.60938 16.1094 6.14062 16.6875
Q6.6875 17.2812 7.51562 17.2812
L70.3125 17.2812
Q71.0469 17.2812 71.5781 16.6875
Q72.125 16.1094 72.125 15.2812
Q72.125 14.5469 71.5781 13.9062
Q71.0469 13.2812 70.3125 13.2812
z

M7.51562 32.7188
Q6.6875 32.7188 6.14062 33.2969
Q5.60938 33.8906 5.60938 34.7188
Q5.60938 35.4531 6.14062 36.0781
Q6.6875 36.7188 7.51562 36.7188
L70.3125 36.7188
Q71.0469 36.7188 71.5781 36.0781
Q72.125 35.4531 72.125 34.7188
Q72.125 33.8906 71.5781 33.2969
Q71.0469 32.7188 70.3125 32.7188
z
" id="Cmr10-3d"/>
    </defs>
    <g transform="translate(328.105354853 217.967431319)scale(0.18 -0.18)">
     <use transform="translate(0.0 0.8734375)" xlink:href="#Cmmi10-79"/>
     <use transform="translate(66.58203125 0.8734375)" xlink:href="#Cmr10-3d"/>
     <use transform="translate(152.640625 38.3734375)scale(0.7)" xlink:href="#Cmr10-31"/>
     <use transform="translate(150.640625 -23.8078125)scale(0.7)" xlink:href="#Cmmi10-78"/>
     <path d="
M150.641 13.3734
L150.641 19.6234
L190.597 19.6234
L190.597 13.3734
L150.641 13.3734
z
"/>
    </g>
   </g>
   <g id="text_8">
    <!-- $y=\sqrt[3]{x}$ -->
    <defs>
     <path d="
M9.51562 7.71875
Q11.8594 4.29688 15.8125 2.64062
Q19.7812 0.984375 24.3125 0.984375
Q30.125 0.984375 32.5625 5.9375
Q35.0156 10.8906 35.0156 17.1875
Q35.0156 20.0156 34.5 22.8438
Q33.9844 25.6875 32.7656 28.125
Q31.5469 30.5625 29.4219 32.0312
Q27.2969 33.5 24.2188 33.5
L17.5781 33.5
Q16.7031 33.5 16.7031 34.4219
L16.7031 35.2969
Q16.7031 36.0781 17.5781 36.0781
L23.0938 36.5312
Q26.6094 36.5312 28.9219 39.1562
Q31.25 41.7969 32.3281 45.5781
Q33.4062 49.3594 33.4062 52.7812
Q33.4062 57.5625 31.1562 60.6406
Q28.9062 63.7188 24.3125 63.7188
Q20.5156 63.7188 17.0469 62.2812
Q13.5781 60.8438 11.5312 57.9062
Q11.7188 57.9531 11.8594 57.9844
Q12.0156 58.0156 12.2031 58.0156
Q14.4531 58.0156 15.9688 56.4531
Q17.4844 54.8906 17.4844 52.6875
Q17.4844 50.5312 15.9688 48.9688
Q14.4531 47.4062 12.2031 47.4062
Q10.0156 47.4062 8.45312 48.9688
Q6.89062 50.5312 6.89062 52.6875
Q6.89062 56.9844 9.46875 60.1562
Q12.0625 63.3281 16.1406 64.9688
Q20.2188 66.6094 24.3125 66.6094
Q27.3438 66.6094 30.7031 65.7031
Q34.0781 64.7969 36.8125 63.1094
Q39.5469 61.4219 41.2812 58.7812
Q43.0156 56.1562 43.0156 52.7812
Q43.0156 48.5781 41.1406 45.0156
Q39.2656 41.4531 35.9844 38.8594
Q32.7188 36.2812 28.8125 35.0156
Q33.1562 34.1875 37.0625 31.7344
Q40.9688 29.2969 43.3281 25.4844
Q45.7031 21.6875 45.7031 17.2812
Q45.7031 11.7656 42.6719 7.29688
Q39.6562 2.82812 34.7188 0.3125
Q29.7812 -2.20312 24.3125 -2.20312
Q19.625 -2.20312 14.9062 -0.40625
Q10.2031 1.375 7.20312 4.9375
Q4.20312 8.5 4.20312 13.4844
Q4.20312 15.9688 5.85938 17.625
Q7.51562 19.2812 10.0156 19.2812
Q11.625 19.2812 12.9688 18.5312
Q14.3125 17.7812 15.0625 16.4062
Q15.8281 15.0469 15.8281 13.4844
Q15.8281 11.0312 14.1094 9.375
Q12.4062 7.71875 10.0156 7.71875
z
" id="Cmr10-33"/>
     <path d="
M42.3906 -116.016
L19.8281 -63.4844
L12.7969 -68.8906
L10.9844 -67.0938
L25.2969 -56
L46.3906 -105.078
L98.2969 3.07812
Q98.7812 4 100 4
Q100.828 4 101.406 3.40625
Q102 2.82812 102 2
Q102 1.51562 101.906 1.3125
L46.0938 -115.094
Q45.7031 -116.016 44.5781 -116.016
z
" id="Cmex10-70"/>
    </defs>
    <g transform="translate(101.991671245 130.462815934)scale(0.18 -0.18)">
     <use transform="translate(0.0 0.578125)" xlink:href="#Cmmi10-79"/>
     <use transform="translate(66.58203125 0.578125)" xlink:href="#Cmr10-3d"/>
     <use transform="translate(150.640625 45.83125)scale(0.49)" xlink:href="#Cmr10-33"/>
     <use transform="translate(143.25 73.453125)scale(0.63793776852)" xlink:href="#Cmex10-70"/>
     <use transform="translate(219.53125 0.5625)" xlink:href="#Cmmi10-78"/>
     <path d="
M207.031 69.5
L207.031 75.75
L289.111 75.75
L289.111 69.5
L207.031 69.5
z
"/>
    </g>
   </g>
  </g>
 </g>
 <defs>
  <clipPath id="pcda5fb745c">
   <rect height="227.98" width="381.5425" x="7.2" y="42.29875"/>
  </clipPath>
 </defs>
</svg>
