<?xml version="1.0" encoding="utf-8" standalone="no"?>
<!DOCTYPE svg PUBLIC "-//W3C//DTD SVG 1.1//EN"
  "http://www.w3.org/Graphics/SVG/1.1/DTD/svg11.dtd">
<!-- Created with matplotlib (http://matplotlib.org/) -->
<svg height="276pt" version="1.1" viewBox="0 0 419 276" width="419pt" xmlns="http://www.w3.org/2000/svg" xmlns:xlink="http://www.w3.org/1999/xlink">
 <defs>
  <style type="text/css">
*{stroke-linecap:butt;stroke-linejoin:round;}
  </style>
 </defs>
 <g id="figure_1">
  <g id="patch_1">
   <path d="
M0 276.801
L419.67 276.801
L419.67 0
L0 0
z
" style="fill:#ffffff;"/>
  </g>
  <g id="axes_1">
   <g id="patch_2">
    <path d="
M7.2 269.601
L394.03 269.601
L394.03 32.6206
L7.2 32.6206
z
" style="fill:#ffffff;"/>
   </g>
   <g id="patch_3">
    <path clip-path="url(#p4cffa25915)" d="
M36.5186 239.725
L36.5186 189.088
L38.3811 190.154
L39.5792 190.828
L40.5022 191.341
L41.997 192.159
L43.7292 193.088
L44.6607 193.58
L46.3051 194.434
L46.8492 194.713
L48.4717 195.532
L49.3835 195.985
L50.5132 196.538
L52.1758 197.337
L54.1965 198.283
L55.2697 198.775
L55.7024 198.971
L56.9057 199.51
L58.109 200.039
L59.1347 200.483
L60.2508 200.958
L62.1416 201.743
L62.8377 202.026
L63.5907 202.329
L64.9553 202.868
L66.9191 203.623
L68.6425 204.264
L69.1813 204.46
L70.6859 204.998
L71.5334 205.295
L72.9517 205.78
L74.1621 206.184
L75.3725 206.578
L76.6197 206.975
L77.6408 207.291
L78.6401 207.594
L80.2219 208.061
L81.8151 208.514
L82.8839 208.808
L84.5713 209.258
L84.9446 209.355
L86.133 209.658
L87.4011 209.97
L89.3401 210.427
L90.9829 210.795
L91.3484 210.875
L92.5975 211.139
L94.0808 211.44
L95.9387 211.797
L96.9314 211.978
L98.5201 212.254
L100.487 212.573
L101.269 212.693
L102.125 212.82
L104.002 213.08
L105.667 213.291
L106.972 213.444
L107.267 213.477
L108.451 213.604
L109.635 213.721
L110.722 213.821
L112.158 213.94
L112.916 213.998
L114.329 214.095
L115.045 214.139
L116.684 214.228
L118.509 214.306
L119.084 214.325
L121.048 214.377
L122.851 214.402
L123.33 214.405
L124.407 214.406
L125.484 214.4
L126.345 214.389
L127.803 214.36
L128.419 214.343
L129.506 214.308
L130.592 214.264
L131.243 214.235
L132.488 214.17
L134.027 214.077
L134.817 214.022
L136.524 213.891
L138.599 213.706
L139.548 213.611
L141.197 213.433
L141.566 213.391
L143.442 213.162
L144.332 213.045
L145.639 212.864
L147.67 212.56
L148.067 212.498
L149.199 212.314
L150.332 212.121
L150.916 212.018
L151.998 211.822
L153.081 211.618
L153.841 211.47
L155.558 211.122
L157.142 210.784
L158.193 210.55
L159.733 210.195
L160.473 210.018
L161.486 209.771
L162.648 209.479
L163.81 209.178
L164.81 208.911
L165.185 208.81
L166.623 208.412
L168.295 207.932
L170.055 207.407
L170.794 207.18
L172.72 206.572
L173.582 206.292
L174.787 205.893
L176.186 205.417
L177.97 204.791
L178.571 204.576
L179.741 204.15
L180.912 203.714
L181.343 203.551
L182.648 203.051
L184.199 202.442
L186.14 201.658
L187.465 201.108
L187.783 200.974
L189.276 200.338
L190.302 199.892
L191.45 199.384
L192.599 198.868
L193.042 198.667
L194.624 197.937
L196.306 197.142
L197.149 196.737
L198.434 196.111
L199.536 195.565
L201.618 194.511
L203.361 193.607
L204.728 192.884
L205.409 192.519
L207.269 191.507
L207.855 191.183
L209.716 190.141
L211.027 189.392
L211.469 189.138
L213.326 188.053
L215.173 186.951
L215.889 186.518
L217.796 185.348
L218.504 184.908
L219.519 184.27
L221.214 183.191
L222.454 182.389
L223.482 181.717
L225.187 180.587
L226.687 179.576
L228.227 178.523
L229.11 177.912
L230.585 176.88
L231.632 176.139
L233.456 174.831
L234.14 174.334
L236.017 172.956
L236.511 172.59
L237.71 171.694
L238.909 170.788
L239.481 170.352
L240.733 169.392
L242.312 168.166
L243.227 167.447
L245.169 165.905
L246.041 165.204
L247.105 164.342
L249.109 162.698
L250.661 161.407
L251.781 160.465
L253.37 159.115
L254.738 157.939
L255.427 157.342
L257.039 155.933
L258.201 154.907
L259.451 153.793
L260.882 152.505
L261.719 151.746
L263.655 149.971
L265.336 148.41
L265.464 148.291
L266.673 147.155
L267.883 146.01
L268.094 145.809
L269.556 144.409
L271.365 142.658
L272.097 141.943
L273.399 140.663
L275.542 138.533
L277.152 136.911
L277.518 136.54
L278.741 135.294
L280.189 133.806
L282.222 131.694
L283.739 130.1
L284.253 129.556
L285.374 128.364
L287.112 126.501
L289.131 124.311
L289.351 124.071
L291.428 121.786
L291.984 121.169
L293.168 119.851
L294.304 118.576
L295.441 117.292
L296.886 115.648
L297.734 114.677
L299.073 113.133
L299.073 239.725
z
" style="fill:#0000ff;opacity:0.5;"/>
   </g>
   <g id="line2d_1">
    <path clip-path="url(#p4cffa25915)" d="
M14.639 239.725
L386.591 239.725
L386.591 239.725" style="fill:none;"/>
   </g>
   <g id="line2d_2">
    <path clip-path="url(#p4cffa25915)" d="
M14.639 174.847
L22.2492 180.159
L28.7665 184.404
L34.3055 187.792
L41.2666 191.761
L48.0643 195.328
L54.8048 198.563
L60.4554 201.044
L66.7204 203.547
L73.3369 205.91
L77.8491 207.355
L84.3157 209.191
L90.6065 210.712
L97.3817 212.058
L102.642 212.894
L108.011 213.558
L114.847 214.127
L120.44 214.364
L125.96 214.394
L130.35 214.275
L136.468 213.896
L141.684 213.377
L148.202 212.476
L154.49 211.341
L160.318 210.055
L166.367 208.483
L171.921 206.827
L178.592 204.568
L185.203 202.04
L190.174 199.948
L195.919 197.327
L202.073 194.277
L208.181 191.003
L214.778 187.189
L219.514 184.274
L227.119 179.282
L232.807 175.299
L239.952 169.992
L245.788 165.408
L253.181 159.276
L260.871 152.516
L267.169 146.687
L274.373 139.699
L280.968 133
L288.144 125.384
L295.198 117.567
L302.382 109.268
L309.48 100.732
L316.468 92.0032
L324.232 81.9273
L330.84 73.0375
L338.399 62.5131
L346.328 51.0694
L354.141 39.3865
L361.812 27.5219
L370.418 13.7485
L377.908 1.36336
L379.312 -1
L379.312 -1" style="fill:none;stroke:#0000ff;stroke-linecap:square;stroke-width:2.0;"/>
   </g>
   <g id="line2d_3">
    <path clip-path="url(#p4cffa25915)" d="
M36.5186 189.088
L43.7292 193.088
L49.3835 195.985
L55.7024 198.971
L62.1416 201.743
L66.9191 203.623
L72.9517 205.78
L78.6401 207.594
L84.9446 209.355
L91.3484 210.875
L96.9314 211.978
L102.125 212.82
L108.451 213.604
L114.329 214.095
L119.084 214.325
L125.484 214.4
L131.243 214.235
L136.524 213.891
L143.442 213.162
L149.199 212.314
L155.558 211.122
L161.486 209.771
L166.623 208.412
L172.72 206.572
L178.571 204.576
L184.199 202.442
L190.302 199.892
L196.306 197.142
L201.618 194.511
L207.855 191.183
L213.326 188.053
L219.519 184.27
L226.687 179.576
L233.456 174.831
L239.481 170.352
L246.041 165.204
L251.781 160.465
L258.201 154.907
L265.464 148.291
L272.097 141.943
L278.741 135.294
L285.374 128.364
L293.168 119.851
L299.073 113.133
L299.073 113.133" style="fill:none;stroke:#0000ff;stroke-linecap:square;stroke-width:2.0;"/>
   </g>
   <g id="matplotlib.axis_1">
    <g id="xtick_1">
     <g id="line2d_4">
      <defs>
       <path d="
M0 0
L0 -4" id="m93b0483c22" style="stroke:#000000;stroke-width:0.5;"/>
      </defs>
      <g>
       <use style="stroke:#000000;stroke-width:0.5;" x="124.036662896" xlink:href="#m93b0483c22" y="239.724941239"/>
      </g>
     </g>
     <g id="text_1">
      <!-- 1 -->
      <defs>
       <path d="
M12.4062 8.29688
L28.5156 8.29688
L28.5156 63.9219
L10.9844 60.4062
L10.9844 69.3906
L28.4219 72.9062
L38.2812 72.9062
L38.2812 8.29688
L54.3906 8.29688
L54.3906 0
L12.4062 0
z
" id="BitstreamVeraSans-Roman-31"/>
      </defs>
      <g transform="translate(120.130100396 257.402128739)scale(0.18 -0.18)">
       <use xlink:href="#BitstreamVeraSans-Roman-31"/>
      </g>
     </g>
    </g>
    <g id="xtick_2">
     <g id="line2d_5">
      <g>
       <use style="stroke:#000000;stroke-width:0.5;" x="211.554762443" xlink:href="#m93b0483c22" y="239.724941239"/>
      </g>
     </g>
     <g id="text_2">
      <!-- 2 -->
      <defs>
       <path d="
M19.1875 8.29688
L53.6094 8.29688
L53.6094 0
L7.32812 0
L7.32812 8.29688
Q12.9375 14.1094 22.625 23.8906
Q32.3281 33.6875 34.8125 36.5312
Q39.5469 41.8438 41.4219 45.5312
Q43.3125 49.2188 43.3125 52.7812
Q43.3125 58.5938 39.2344 62.25
Q35.1562 65.9219 28.6094 65.9219
Q23.9688 65.9219 18.8125 64.3125
Q13.6719 62.7031 7.8125 59.4219
L7.8125 69.3906
Q13.7656 71.7812 18.9375 73
Q24.125 74.2188 28.4219 74.2188
Q39.75 74.2188 46.4844 68.5469
Q53.2188 62.8906 53.2188 53.4219
Q53.2188 48.9219 51.5312 44.8906
Q49.8594 40.875 45.4062 35.4062
Q44.1875 33.9844 37.6406 27.2188
Q31.1094 20.4531 19.1875 8.29688" id="BitstreamVeraSans-Roman-32"/>
      </defs>
      <g transform="translate(207.389449943 257.402128739)scale(0.18 -0.18)">
       <use xlink:href="#BitstreamVeraSans-Roman-32"/>
      </g>
     </g>
    </g>
    <g id="xtick_3">
     <g id="line2d_6">
      <g>
       <use style="stroke:#000000;stroke-width:0.5;" x="299.072861991" xlink:href="#m93b0483c22" y="239.724941239"/>
      </g>
     </g>
     <g id="text_3">
      <!-- 3 -->
      <defs>
       <path d="
M40.5781 39.3125
Q47.6562 37.7969 51.625 33
Q55.6094 28.2188 55.6094 21.1875
Q55.6094 10.4062 48.1875 4.48438
Q40.7656 -1.42188 27.0938 -1.42188
Q22.5156 -1.42188 17.6562 -0.515625
Q12.7969 0.390625 7.625 2.20312
L7.625 11.7188
Q11.7188 9.32812 16.5938 8.10938
Q21.4844 6.89062 26.8125 6.89062
Q36.0781 6.89062 40.9375 10.5469
Q45.7969 14.2031 45.7969 21.1875
Q45.7969 27.6406 41.2812 31.2656
Q36.7656 34.9062 28.7188 34.9062
L20.2188 34.9062
L20.2188 43.0156
L29.1094 43.0156
Q36.375 43.0156 40.2344 45.9219
Q44.0938 48.8281 44.0938 54.2969
Q44.0938 59.9062 40.1094 62.9062
Q36.1406 65.9219 28.7188 65.9219
Q24.6562 65.9219 20.0156 65.0312
Q15.375 64.1562 9.8125 62.3125
L9.8125 71.0938
Q15.4375 72.6562 20.3438 73.4375
Q25.25 74.2188 29.5938 74.2188
Q40.8281 74.2188 47.3594 69.1094
Q53.9062 64.0156 53.9062 55.3281
Q53.9062 49.2656 50.4375 45.0938
Q46.9688 40.9219 40.5781 39.3125" id="BitstreamVeraSans-Roman-33"/>
      </defs>
      <g transform="translate(294.754268241 257.402128739)scale(0.18 -0.18)">
       <use xlink:href="#BitstreamVeraSans-Roman-33"/>
      </g>
     </g>
    </g>
    <g id="text_4">
     <!-- $x$ -->
     <defs>
      <path d="
M7.8125 2.875
Q9.57812 1.51562 12.7969 1.51562
Q15.9219 1.51562 18.3125 4.51562
Q20.7031 7.51562 21.5781 11.0781
L26.125 28.8125
Q27.2031 33.6406 27.2031 35.4062
Q27.2031 37.8906 25.8125 39.75
Q24.4219 41.6094 21.9219 41.6094
Q18.75 41.6094 15.9688 39.625
Q13.1875 37.6406 11.2812 34.5938
Q9.375 31.5469 8.59375 28.4219
Q8.40625 27.7812 7.8125 27.7812
L6.59375 27.7812
Q5.8125 27.7812 5.8125 28.7188
L5.8125 29
Q6.78125 32.7188 9.125 36.25
Q11.4688 39.7969 14.8594 41.9844
Q18.2656 44.1875 22.125 44.1875
Q25.7812 44.1875 28.7344 42.2344
Q31.6875 40.2812 32.9062 36.9219
Q34.625 39.9844 37.2812 42.0781
Q39.9375 44.1875 43.1094 44.1875
Q45.2656 44.1875 47.5 43.4219
Q49.75 42.6719 51.1719 41.1094
Q52.5938 39.5469 52.5938 37.2031
Q52.5938 34.6719 50.9531 32.8281
Q49.3125 31 46.7812 31
Q45.1719 31 44.0938 32.0312
Q43.0156 33.0625 43.0156 34.625
Q43.0156 36.7188 44.4531 38.2969
Q45.9062 39.8906 47.9062 40.1875
Q46.0938 41.6094 42.9219 41.6094
Q39.7031 41.6094 37.3281 38.625
Q34.9688 35.6406 33.9844 31.9844
L29.5938 14.3125
Q28.5156 10.2969 28.5156 7.71875
Q28.5156 5.17188 29.9531 3.34375
Q31.3906 1.51562 33.7969 1.51562
Q38.4844 1.51562 42.1562 5.64062
Q45.8438 9.76562 47.0156 14.7031
Q47.2188 15.2812 47.7969 15.2812
L49.0312 15.2812
Q49.4219 15.2812 49.6562 15.0156
Q49.9062 14.75 49.9062 14.4062
Q49.9062 14.3125 49.8125 14.1094
Q48.3906 8.15625 43.8438 3.51562
Q39.3125 -1.125 33.5938 -1.125
Q29.9375 -1.125 26.9844 0.84375
Q24.0312 2.82812 22.7969 6.20312
Q21.2344 3.26562 18.4688 1.0625
Q15.7188 -1.125 12.5938 -1.125
Q10.4531 -1.125 8.17188 -0.359375
Q5.90625 0.390625 4.48438 1.95312
Q3.07812 3.51562 3.07812 5.90625
Q3.07812 8.25 4.70312 10.1719
Q6.34375 12.1094 8.79688 12.1094
Q10.4531 12.1094 11.5781 11.1094
Q12.7031 10.1094 12.7031 8.5
Q12.7031 6.39062 11.2969 4.82812
Q9.90625 3.26562 7.8125 2.875" id="Cmmi10-78"/>
     </defs>
     <g transform="translate(402.03 239.724941239)scale(0.18 -0.18)">
      <use transform="translate(0.0 0.8125)" xlink:href="#Cmmi10-78"/>
     </g>
    </g>
   </g>
   <g id="matplotlib.axis_2">
    <g id="ytick_1">
     <g id="line2d_7">
      <defs>
       <path d="
M0 0
L4 0" id="m728421d6d4" style="stroke:#000000;stroke-width:0.5;"/>
      </defs>
      <g>
       <use style="stroke:#000000;stroke-width:0.5;" x="36.5185633484" xlink:href="#m728421d6d4" y="189.088189103"/>
      </g>
     </g>
     <g id="text_5">
      <!-- 2 -->
      <g transform="translate(24.1879383484 194.055064103)scale(0.18 -0.18)">
       <use xlink:href="#BitstreamVeraSans-Roman-32"/>
      </g>
     </g>
    </g>
    <g id="ytick_2">
     <g id="line2d_8">
      <g>
       <use style="stroke:#000000;stroke-width:0.5;" x="36.5185633484" xlink:href="#m728421d6d4" y="138.451436966"/>
      </g>
     </g>
     <g id="text_6">
      <!-- 4 -->
      <defs>
       <path d="
M37.7969 64.3125
L12.8906 25.3906
L37.7969 25.3906
z

M35.2031 72.9062
L47.6094 72.9062
L47.6094 25.3906
L58.0156 25.3906
L58.0156 17.1875
L47.6094 17.1875
L47.6094 0
L37.7969 0
L37.7969 17.1875
L4.89062 17.1875
L4.89062 26.7031
z
" id="BitstreamVeraSans-Roman-34"/>
      </defs>
      <g transform="translate(22.9560633484 143.418311966)scale(0.18 -0.18)">
       <use xlink:href="#BitstreamVeraSans-Roman-34"/>
      </g>
     </g>
    </g>
    <g id="ytick_3">
     <g id="line2d_9">
      <g>
       <use style="stroke:#000000;stroke-width:0.5;" x="36.5185633484" xlink:href="#m728421d6d4" y="87.8146848291"/>
      </g>
     </g>
     <g id="text_7">
      <!-- 6 -->
      <defs>
       <path d="
M33.0156 40.375
Q26.375 40.375 22.4844 35.8281
Q18.6094 31.2969 18.6094 23.3906
Q18.6094 15.5312 22.4844 10.9531
Q26.375 6.39062 33.0156 6.39062
Q39.6562 6.39062 43.5312 10.9531
Q47.4062 15.5312 47.4062 23.3906
Q47.4062 31.2969 43.5312 35.8281
Q39.6562 40.375 33.0156 40.375
M52.5938 71.2969
L52.5938 62.3125
Q48.875 64.0625 45.0938 64.9844
Q41.3125 65.9219 37.5938 65.9219
Q27.8281 65.9219 22.6719 59.3281
Q17.5312 52.7344 16.7969 39.4062
Q19.6719 43.6562 24.0156 45.9219
Q28.375 48.1875 33.5938 48.1875
Q44.5781 48.1875 50.9531 41.5156
Q57.3281 34.8594 57.3281 23.3906
Q57.3281 12.1562 50.6875 5.35938
Q44.0469 -1.42188 33.0156 -1.42188
Q20.3594 -1.42188 13.6719 8.26562
Q6.98438 17.9688 6.98438 36.375
Q6.98438 53.6562 15.1875 63.9375
Q23.3906 74.2188 37.2031 74.2188
Q40.9219 74.2188 44.7031 73.4844
Q48.4844 72.75 52.5938 71.2969" id="BitstreamVeraSans-Roman-36"/>
      </defs>
      <g transform="translate(23.4566883484 92.7815598291)scale(0.18 -0.18)">
       <use xlink:href="#BitstreamVeraSans-Roman-36"/>
      </g>
     </g>
    </g>
    <g id="text_8">
     <!-- $y$ -->
     <defs>
      <path d="
M8.40625 -14.3125
Q10.5 -17.9219 15.7188 -17.9219
Q20.4531 -17.9219 23.9219 -14.5938
Q27.3906 -11.2812 29.5156 -6.5625
Q31.6406 -1.85938 32.8125 3.07812
Q28.375 -1.125 23.1875 -1.125
Q19.2344 -1.125 16.4531 0.234375
Q13.6719 1.60938 12.125 4.3125
Q10.5938 7.03125 10.5938 10.8906
Q10.5938 14.1562 11.4688 17.5938
Q12.3594 21.0469 13.9375 25.2656
Q15.5312 29.5 16.7031 32.625
Q18.0156 36.2812 18.0156 38.625
Q18.0156 41.6094 15.8281 41.6094
Q11.8594 41.6094 9.29688 37.5312
Q6.73438 33.4531 5.51562 28.4219
Q5.32812 27.7812 4.6875 27.7812
L3.51562 27.7812
Q2.6875 27.7812 2.6875 28.7188
L2.6875 29
Q4.29688 34.9688 7.60938 39.5781
Q10.9375 44.1875 16.0156 44.1875
Q19.5781 44.1875 22.0469 41.8438
Q24.5156 39.5 24.5156 35.8906
Q24.5156 34.0312 23.6875 31.9844
Q23.25 30.7656 21.6875 26.6562
Q20.125 22.5625 19.2812 19.875
Q18.4531 17.1875 17.9219 14.5938
Q17.3906 12.0156 17.3906 9.42188
Q17.3906 6.10938 18.7969 3.8125
Q20.2188 1.51562 23.2969 1.51562
Q29.5 1.51562 34.4219 9.07812
L42 39.8906
Q42.3281 41.2188 43.5469 42.1562
Q44.7812 43.1094 46.1875 43.1094
Q47.4062 43.1094 48.3125 42.3281
Q49.2188 41.5469 49.2188 40.2812
Q49.2188 39.7031 49.125 39.5
L39.2031 -0.296875
Q37.8906 -5.42188 34.375 -10.1094
Q30.8594 -14.7969 25.9062 -17.6562
Q20.9531 -20.5156 15.5781 -20.5156
Q12.9844 -20.5156 10.4375 -19.5
Q7.90625 -18.5 6.34375 -16.5
Q4.78125 -14.5 4.78125 -11.8125
Q4.78125 -9.07812 6.39062 -7.07812
Q8.01562 -5.07812 10.6875 -5.07812
Q12.3125 -5.07812 13.4062 -6.07812
Q14.5 -7.07812 14.5 -8.6875
Q14.5 -10.9844 12.7812 -12.6875
Q11.0781 -14.4062 8.79688 -14.4062
Q8.6875 -14.3594 8.59375 -14.3281
Q8.5 -14.3125 8.40625 -14.3125" id="Cmmi10-79"/>
     </defs>
     <g transform="translate(32.0185633484 20.840625)scale(0.18 -0.18)">
      <use transform="translate(0.0 0.8125)" xlink:href="#Cmmi10-79"/>
     </g>
    </g>
   </g>
   <g id="patch_4">
    <path d="
M7.2 239.725
L394.03 239.725" style="fill:none;stroke:#000000;stroke-width:0.8;"/>
   </g>
   <g id="patch_5">
    <path d="
M36.5186 269.601
L36.5186 32.6206" style="fill:none;stroke:#000000;stroke-width:0.8;"/>
   </g>
   <g id="text_9">
    <!-- $f$ -->
    <defs>
     <path d="
M9.71875 -16.5
Q11.5781 -17.9219 14.2031 -17.9219
Q17.7812 -17.9219 20.0156 -10.0156
Q20.9531 -6.20312 25.0938 15.0938
L29.6875 39.5938
L21.0938 39.5938
Q20.125 39.5938 20.125 40.9219
Q20.5156 43.1094 21.3906 43.1094
L30.3281 43.1094
L31.5 49.6094
Q32.0781 52.6406 32.5625 54.8125
Q33.0625 56.9844 33.625 58.8281
Q34.1875 60.6875 35.2969 62.9844
Q37.0156 66.2656 39.9219 68.3906
Q42.8281 70.5156 46.1875 70.5156
Q48.3906 70.5156 50.4688 69.7031
Q52.5469 68.8906 53.8594 67.2812
Q55.1719 65.6719 55.1719 63.4844
Q55.1719 60.9375 53.4844 59.0469
Q51.8125 57.1719 49.4219 57.1719
Q47.7969 57.1719 46.6562 58.1719
Q45.5156 59.1875 45.5156 60.7969
Q45.5156 62.9844 47 64.625
Q48.4844 66.2656 50.6875 66.5
Q48.8281 67.9219 46.0938 67.9219
Q44.5781 67.9219 43.2344 66.5
Q41.8906 65.0938 41.5 63.4844
Q40.875 60.9375 38.7188 49.7031
L37.5 43.1094
L47.7969 43.1094
Q48.7812 43.1094 48.7812 41.7969
Q48.7344 41.5469 48.5781 40.9375
Q48.4375 40.3281 48.1719 39.9531
Q47.9062 39.5938 47.5156 39.5938
L36.8125 39.5938
L32.1719 15.1875
Q31.2969 9.85938 30.1406 4.35938
Q29 -1.125 26.9219 -6.90625
Q24.8594 -12.7031 21.625 -16.6094
Q18.4062 -20.5156 14.0156 -20.5156
Q10.6406 -20.5156 7.98438 -18.5781
Q5.32812 -16.6562 5.32812 -13.4844
Q5.32812 -10.9375 6.95312 -9.04688
Q8.59375 -7.17188 11.0781 -7.17188
Q12.75 -7.17188 13.8594 -8.17188
Q14.9844 -9.1875 14.9844 -10.7969
Q14.9844 -12.9375 13.3906 -14.7188
Q11.8125 -16.5 9.71875 -16.5" id="Cmmi10-66"/>
    </defs>
    <g transform="translate(75.8676131222 225.666471688)scale(0.18 -0.18)">
     <use transform="translate(0.0 0.484375)" xlink:href="#Cmmi10-66"/>
    </g>
   </g>
  </g>
 </g>
 <defs>
  <clipPath id="p4cffa25915">
   <rect height="236.98" width="386.83" x="7.2" y="32.620625"/>
  </clipPath>
 </defs>
</svg>
