<?xml version="1.0" encoding="utf-8" standalone="no"?>
<!DOCTYPE svg PUBLIC "-//W3C//DTD SVG 1.1//EN"
  "http://www.w3.org/Graphics/SVG/1.1/DTD/svg11.dtd">
<!-- Created with matplotlib (http://matplotlib.org/) -->
<svg height="276pt" version="1.1" viewBox="0 0 275 276" width="275pt" xmlns="http://www.w3.org/2000/svg" xmlns:xlink="http://www.w3.org/1999/xlink">
 <defs>
  <style type="text/css">
*{stroke-linecap:butt;stroke-linejoin:round;}
  </style>
 </defs>
 <g id="figure_1">
  <g id="patch_1">
   <path d="
M0 276.801
L275.354 276.801
L275.354 0
L0 0
z
" style="fill:#ffffff;"/>
  </g>
  <g id="axes_1">
   <g id="patch_2">
    <path d="
M10.2979 269.601
L249.714 269.601
L249.714 32.6206
L10.2979 32.6206
z
" style="fill:#ffffff;"/>
   </g>
   <g id="patch_3">
    <path clip-path="url(#pedcb8f8c1d)" d="
M179.336 219.47
L178.93 219.33
L178.275 219.103
L177.083 218.69
L176.853 218.61
L176.157 218.369
L175.618 218.182
L174.625 217.838
L173.811 217.556
L173.507 217.451
L172.586 217.132
L172.3 217.033
L171.345 216.702
L170.888 216.543
L170.396 216.373
L169.699 216.132
L168.903 215.856
L167.793 215.471
L167.273 215.291
L166.537 215.036
L166.374 214.98
L165.142 214.553
L164.915 214.474
L164.392 214.293
L163.645 214.034
L162.486 213.633
L162.123 213.507
L161.233 213.198
L160.618 212.986
L160.099 212.806
L159.484 212.593
L158.911 212.394
L158.187 212.143
L157.343 211.851
L157.117 211.773
L156.007 211.388
L155.71 211.285
L155.055 211.058
L154.453 210.85
L153.358 210.47
L152.926 210.321
L151.913 209.97
L151.402 209.793
L151.222 209.73
L150.29 209.408
L149.817 209.244
L149.086 208.991
L148.439 208.766
L147.737 208.523
L147.103 208.304
L146.323 208.033
L145.61 207.786
L144.879 207.533
L144.162 207.285
L143.385 207.015
L143.114 206.922
L142.002 206.536
L141.839 206.48
L141.025 206.198
L140.032 205.854
L139.434 205.647
L139.033 205.508
L138.264 205.241
L137.526 204.985
L136.725 204.708
L136.314 204.566
L135.685 204.348
L134.963 204.098
L134.694 204.004
L133.495 203.589
L132.787 203.344
L132.655 203.298
L131.652 202.951
L131.177 202.786
L130.457 202.537
L129.995 202.377
L128.787 201.958
L128.417 201.83
L127.906 201.653
L127.07 201.363
L126.251 201.079
L125.733 200.9
L124.914 200.616
L124.768 200.566
L123.543 200.141
L123.338 200.07
L122.319 199.717
L121.52 199.441
L120.937 199.239
L120.703 199.157
L119.707 198.812
L119.505 198.742
L118.389 198.356
L118.008 198.224
L117.245 197.959
L116.329 197.642
L115.644 197.405
L115.461 197.341
L114.556 197.028
L113.633 196.708
L113.413 196.632
L112.425 196.29
L111.604 196.005
L111.218 195.871
L110.87 195.751
L110.049 195.467
L108.954 195.087
L108.406 194.897
L107.624 194.627
L107.235 194.491
L106.861 194.362
L106.099 194.098
L105.056 193.737
L104.658 193.599
L104.276 193.467
L103.093 193.057
L102.446 192.832
L102.015 192.683
L101.289 192.432
L100.454 192.142
L100.287 192.085
L99.3414 191.757
L98.8891 191.6
L97.9757 191.284
L97.376 191.076
L96.6111 190.811
L95.7699 190.52
L95.5463 190.442
L94.5697 190.104
L94.1572 189.961
L93.5395 189.747
L92.4874 189.382
L92.1581 189.268
L91.7162 189.115
L90.6951 188.762
L89.7666 188.44
L89.1524 188.227
L88.6625 188.057
L88.2074 187.9
L87.5793 187.682
L86.8203 187.419
L85.9802 187.128
L85.5324 186.973
L85.1169 186.829
L84.0226 186.45
L83.6647 186.326
L82.5308 185.933
L81.9436 185.73
L81.2134 185.477
L80.6726 185.289
L80.0044 185.058
L79.2205 184.786
L78.6483 184.588
L78.0595 184.384
L77.7576 184.28
L76.5807 183.872
L76.5268 183.853
L75.4742 183.488
L75.0431 183.339
L74.3056 183.084
L73.5073 182.807
L72.6348 182.505
L72.2715 182.379
L71.8393 182.229
L71.1852 182.003
L70.2524 181.679
L69.5751 181.445
L69.14 181.294
L68.1186 180.94
L67.6765 180.787
L67.1474 180.604
L66.2501 180.293
L65.8619 180.158
L65.2798 179.957
L64.5416 179.701
L63.5443 179.355
L62.7286 179.073
L62.4249 178.968
L61.6078 178.685
L61.232 178.554
L60.0666 178.151
L59.4802 177.947
L59.3241 177.893
L58.2264 177.513
L57.9281 177.41
L57.3129 177.197
L56.1098 176.78
L55.832 176.684
L55.2079 176.467
L54.1905 176.115
L53.9002 176.014
L53.0156 175.708
L52.7329 175.61
L51.5186 175.189
L50.8725 174.965
L50.4878 174.832
L49.9666 174.652
L49.1495 174.369
L48.539 174.157
L47.7889 173.897
L47.7889 173.897
L47.8077 172.806
L47.8266 172.354
L47.8454 172.007
L47.8643 171.715
L47.8831 171.457
L47.902 171.225
L47.9397 170.811
L47.9774 170.447
L48.0151 170.118
L48.0528 169.815
L48.0905 169.533
L48.1659 169.018
L48.2413 168.552
L48.3167 168.124
L48.3921 167.725
L48.4838 167.272
L48.5756 166.848
L48.6673 166.449
L48.7591 166.069
L48.9426 165.361
L49.1261 164.707
L49.3091 164.099
L49.492 163.526
L49.6749 162.983
L49.8578 162.466
L50.055 161.934
L50.2521 161.425
L50.6464 160.463
L51.018 159.617
L51.3895 158.818
L51.4988 158.59
L51.7822 158.017
L52.0656 157.463
L52.6323 156.408
L52.9653 155.817
L53.2983 155.244
L53.6296 154.691
L54.1941 153.785
L54.9951 152.564
L55.5054 151.822
L56.4256 150.543
L57.365 149.305
L57.9296 148.591
L58.6892 147.66
L59.0156 147.27
L59.618 146.565
L60.5792 145.476
L60.9136 145.107
L61.7578 144.196
L62.2796 143.646
L62.8467 143.06
L63.4959 142.402
L64.1253 141.777
L64.9161 141.009
L65.5987 140.36
L66.503 139.519
L66.9891 139.075
L67.5142 138.602
L68.1657 138.024
L69.0597 137.246
L69.9002 136.529
L70.5481 135.985
L70.7012 135.858
L71.4192 135.266
L72.5381 134.363
L72.9874 134.005
L73.7107 133.437
L74.5253 132.806
L74.9985 132.444
L75.6763 131.931
L76.1731 131.559
L76.9847 130.958
L77.569 130.53
L78.1332 130.121
L78.6894 129.722
L79.7859 128.945
L79.9991 128.795
L80.912 128.161
L81.7293 127.6
L82.2654 127.236
L82.9326 126.786
L83.3668 126.496
L84.3849 125.823
L84.6705 125.635
L85.1573 125.318
L86.1628 124.669
L87.0253 124.119
L87.4749 123.834
L88.2409 123.353
L88.9595 122.906
L89.679 122.463
L90.195 122.147
L90.8893 121.725
L91.471 121.374
L92.0608 121.021
L92.4129 120.811
L93.6158 120.1
L93.7931 119.996
L94.8125 119.402
L95.4444 119.037
L96.1003 118.661
L96.6871 118.327
L97.6666 117.773
L98.209 117.469
L98.975 117.042
L99.1287 116.956
L99.866 116.549
L100.822 116.025
L101.436 115.691
L102.167 115.296
L102.975 114.862
L103.053 114.82
L104.271 114.173
L104.727 113.932
L105.137 113.716
L105.683 113.431
L106.818 112.841
L107.006 112.744
L107.86 112.304
L108.472 111.991
L109.537 111.451
L109.603 111.417
L110.679 110.876
L111.528 110.452
L111.616 110.408
L112.273 110.082
L113.063 109.692
L114.184 109.143
L114.303 109.085
L115.104 108.696
L115.847 108.337
L116.735 107.911
L117.357 107.614
L118.089 107.266
L118.281 107.175
L119.225 106.73
L119.584 106.562
L120.772 106.007
L121.24 105.789
L121.821 105.52
L122.657 105.135
L123.411 104.79
L123.896 104.569
L124.605 104.247
L125.205 103.975
L125.968 103.631
L126.127 103.56
L127.182 103.088
L128.019 102.716
L128.408 102.544
L129.416 102.099
L129.802 101.929
L130.321 101.702
L131.132 101.348
L131.749 101.08
L132.356 100.817
L133.225 100.443
L133.529 100.312
L134.331 99.9687
L135.199 99.5989
L136.009 99.2554
L136.627 98.9944
L136.815 98.9154
L137.871 98.4719
L138.074 98.3868
L138.812 98.0788
L139.362 97.8502
L140.218 97.4958
L141.084 97.1385
L141.939 96.7876
L142.4 96.5993
L142.738 96.4612
L143.536 96.1366
L144.179 95.8759
L144.662 95.6804
L145.592 95.3058
L146.011 95.1377
L146.751 94.8418
L147.541 94.5266
L148.112 94.2998
L148.666 94.0804
L149.891 93.5972
L150.35 93.417
L150.669 93.2919
L151.675 92.8986
L152.332 92.6432
L153.165 92.32
L153.351 92.2479
L154.135 91.9454
L154.645 91.7491
L155.332 91.4854
L156.417 91.0707
L156.955 90.8661
L157.441 90.6815
L158.35 90.337
L158.708 90.202
L159.771 89.8017
L160.471 89.5394
L161.141 89.2889
L161.444 89.1761
L162.177 88.9033
L162.537 88.7697
L163.571 88.387
L163.91 88.2617
L164.699 87.9715
L165.172 87.7977
L166.086 87.4634
L166.948 87.1489
L167.136 87.0804
L168.255 86.6744
L168.56 86.5641
L169.336 86.284
L170.063 86.0223
L170.553 85.8464
L171.532 85.496
L172.032 85.3175
L172.856 85.0244
L173.366 84.8431
L174.128 84.5735
L174.938 84.2875
L175.254 84.1765
L175.931 83.9383
L176.821 83.6266
L177.17 83.5044
L177.685 83.325
L178.393 83.0783
L179.336 82.751
z
" style="fill:#800080;opacity:0.5;"/>
   </g>
   <g id="line2d_1">
    <path clip-path="url(#pedcb8f8c1d)" d="
M14.902 173.897
L245.11 173.897
L245.11 173.897" style="fill:none;"/>
   </g>
   <g id="line2d_2">
    <path clip-path="url(#pedcb8f8c1d)" d="
M47.7889 173.897
L47.9656 170.557
L48.319 168.111
L48.8491 165.715
L49.7769 162.692
L50.8196 160.062
L52.2094 157.189
L53.6323 154.687
L55.6793 151.574
L58.0181 148.481
L60.235 145.861
L63.8323 142.066
L67.0225 139.045
L70.8267 135.754
L75.1131 132.357
L80.0454 128.763
L85.8415 124.875
L92.0344 121.037
L98.6616 117.216
L106.306 113.106
L114.714 108.886
L123.487 104.755
L133.033 100.525
L143.485 96.1572
L154.758 91.7057
L166.474 87.3216
L178.606 83.0042
L192.479 78.3063
L207.342 73.5166
L223.262 68.6277
L240.219 63.6585
L245.11 62.2664
L245.11 62.2664" style="fill:none;stroke:#ff0000;stroke-linecap:square;stroke-width:2.0;"/>
   </g>
   <g id="line2d_3">
    <path clip-path="url(#pedcb8f8c1d)" d="
M47.7889 173.897
L47.9397 170.811
L48.3167 168.124
L48.9426 165.361
L49.8578 162.466
L51.018 159.617
L52.6323 156.408
L54.1941 153.785
L56.4256 150.543
L59.0156 147.27
L61.7578 144.196
L64.9161 141.009
L68.1657 138.024
L72.5381 134.363
L76.9847 130.958
L81.7293 127.6
L87.0253 124.119
L92.4129 120.811
L99.1287 116.956
L105.683 113.431
L113.063 109.692
L121.821 105.52
L131.132 101.348
L141.084 97.1385
L151.675 92.8986
L163.571 88.387
L175.931 83.9383
L179.336 82.751
L179.336 82.751" style="fill:none;stroke:#ff0000;stroke-linecap:square;stroke-width:2.0;"/>
   </g>
   <g id="line2d_4">
    <path clip-path="url(#pedcb8f8c1d)" d="
M14.902 162.504
L245.11 242.257
L245.11 242.257" style="fill:none;stroke:#0000ff;stroke-linecap:square;stroke-width:2.0;"/>
   </g>
   <g id="matplotlib.axis_1">
    <g id="xtick_1">
     <g id="line2d_5">
      <defs>
       <path d="
M0 0
L0 -4" id="m93b0483c22" style="stroke:#000000;stroke-width:0.5;"/>
      </defs>
      <g>
       <use style="stroke:#000000;stroke-width:0.5;" x="14.90203125" xlink:href="#m93b0483c22" y="173.897163462"/>
      </g>
     </g>
     <g id="text_1">
      <!-- -1 -->
      <defs>
       <path d="
M12.4062 8.29688
L28.5156 8.29688
L28.5156 63.9219
L10.9844 60.4062
L10.9844 69.3906
L28.4219 72.9062
L38.2812 72.9062
L38.2812 8.29688
L54.3906 8.29688
L54.3906 0
L12.4062 0
z
" id="BitstreamVeraSans-Roman-31"/>
       <path d="
M4.89062 31.3906
L31.2031 31.3906
L31.2031 23.3906
L4.89062 23.3906
z
" id="BitstreamVeraSans-Roman-2d"/>
      </defs>
      <g transform="translate(7.2 191.574350962)scale(0.18 -0.18)">
       <use xlink:href="#BitstreamVeraSans-Roman-2d"/>
       <use x="36.083984375" xlink:href="#BitstreamVeraSans-Roman-31"/>
      </g>
     </g>
    </g>
    <g id="xtick_2">
     <g id="line2d_6">
      <g>
       <use style="stroke:#000000;stroke-width:0.5;" x="47.7888523616" xlink:href="#m93b0483c22" y="173.897163462"/>
      </g>
     </g>
    </g>
    <g id="xtick_3">
     <g id="line2d_7">
      <g>
       <use style="stroke:#000000;stroke-width:0.5;" x="80.6756734732" xlink:href="#m93b0483c22" y="173.897163462"/>
      </g>
     </g>
     <g id="text_2">
      <!-- 1 -->
      <g transform="translate(76.7691109732 191.574350962)scale(0.18 -0.18)">
       <use xlink:href="#BitstreamVeraSans-Roman-31"/>
      </g>
     </g>
    </g>
    <g id="xtick_4">
     <g id="line2d_8">
      <g>
       <use style="stroke:#000000;stroke-width:0.5;" x="113.562494585" xlink:href="#m93b0483c22" y="173.897163462"/>
      </g>
     </g>
     <g id="text_3">
      <!-- 2 -->
      <defs>
       <path d="
M19.1875 8.29688
L53.6094 8.29688
L53.6094 0
L7.32812 0
L7.32812 8.29688
Q12.9375 14.1094 22.625 23.8906
Q32.3281 33.6875 34.8125 36.5312
Q39.5469 41.8438 41.4219 45.5312
Q43.3125 49.2188 43.3125 52.7812
Q43.3125 58.5938 39.2344 62.25
Q35.1562 65.9219 28.6094 65.9219
Q23.9688 65.9219 18.8125 64.3125
Q13.6719 62.7031 7.8125 59.4219
L7.8125 69.3906
Q13.7656 71.7812 18.9375 73
Q24.125 74.2188 28.4219 74.2188
Q39.75 74.2188 46.4844 68.5469
Q53.2188 62.8906 53.2188 53.4219
Q53.2188 48.9219 51.5312 44.8906
Q49.8594 40.875 45.4062 35.4062
Q44.1875 33.9844 37.6406 27.2188
Q31.1094 20.4531 19.1875 8.29688" id="BitstreamVeraSans-Roman-32"/>
      </defs>
      <g transform="translate(109.397182085 191.574350962)scale(0.18 -0.18)">
       <use xlink:href="#BitstreamVeraSans-Roman-32"/>
      </g>
     </g>
    </g>
    <g id="xtick_5">
     <g id="line2d_9">
      <g>
       <use style="stroke:#000000;stroke-width:0.5;" x="146.449315696" xlink:href="#m93b0483c22" y="173.897163462"/>
      </g>
     </g>
     <g id="text_4">
      <!-- 3 -->
      <defs>
       <path d="
M40.5781 39.3125
Q47.6562 37.7969 51.625 33
Q55.6094 28.2188 55.6094 21.1875
Q55.6094 10.4062 48.1875 4.48438
Q40.7656 -1.42188 27.0938 -1.42188
Q22.5156 -1.42188 17.6562 -0.515625
Q12.7969 0.390625 7.625 2.20312
L7.625 11.7188
Q11.7188 9.32812 16.5938 8.10938
Q21.4844 6.89062 26.8125 6.89062
Q36.0781 6.89062 40.9375 10.5469
Q45.7969 14.2031 45.7969 21.1875
Q45.7969 27.6406 41.2812 31.2656
Q36.7656 34.9062 28.7188 34.9062
L20.2188 34.9062
L20.2188 43.0156
L29.1094 43.0156
Q36.375 43.0156 40.2344 45.9219
Q44.0938 48.8281 44.0938 54.2969
Q44.0938 59.9062 40.1094 62.9062
Q36.1406 65.9219 28.7188 65.9219
Q24.6562 65.9219 20.0156 65.0312
Q15.375 64.1562 9.8125 62.3125
L9.8125 71.0938
Q15.4375 72.6562 20.3438 73.4375
Q25.25 74.2188 29.5938 74.2188
Q40.8281 74.2188 47.3594 69.1094
Q53.9062 64.0156 53.9062 55.3281
Q53.9062 49.2656 50.4375 45.0938
Q46.9688 40.9219 40.5781 39.3125" id="BitstreamVeraSans-Roman-33"/>
      </defs>
      <g transform="translate(142.130721946 191.574350962)scale(0.18 -0.18)">
       <use xlink:href="#BitstreamVeraSans-Roman-33"/>
      </g>
     </g>
    </g>
    <g id="xtick_6">
     <g id="line2d_10">
      <g>
       <use style="stroke:#000000;stroke-width:0.5;" x="179.336136808" xlink:href="#m93b0483c22" y="173.897163462"/>
      </g>
     </g>
     <g id="text_5">
      <!-- 4 -->
      <defs>
       <path d="
M37.7969 64.3125
L12.8906 25.3906
L37.7969 25.3906
z

M35.2031 72.9062
L47.6094 72.9062
L47.6094 25.3906
L58.0156 25.3906
L58.0156 17.1875
L47.6094 17.1875
L47.6094 0
L37.7969 0
L37.7969 17.1875
L4.89062 17.1875
L4.89062 26.7031
z
" id="BitstreamVeraSans-Roman-34"/>
      </defs>
      <g transform="translate(174.554886808 191.574350962)scale(0.18 -0.18)">
       <use xlink:href="#BitstreamVeraSans-Roman-34"/>
      </g>
     </g>
    </g>
    <g id="xtick_7">
     <g id="line2d_11">
      <g>
       <use style="stroke:#000000;stroke-width:0.5;" x="212.222957919" xlink:href="#m93b0483c22" y="173.897163462"/>
      </g>
     </g>
     <g id="text_6">
      <!-- 5 -->
      <defs>
       <path d="
M10.7969 72.9062
L49.5156 72.9062
L49.5156 64.5938
L19.8281 64.5938
L19.8281 46.7344
Q21.9688 47.4688 24.1094 47.8281
Q26.2656 48.1875 28.4219 48.1875
Q40.625 48.1875 47.75 41.5
Q54.8906 34.8125 54.8906 23.3906
Q54.8906 11.625 47.5625 5.09375
Q40.2344 -1.42188 26.9062 -1.42188
Q22.3125 -1.42188 17.5469 -0.640625
Q12.7969 0.140625 7.71875 1.70312
L7.71875 11.625
Q12.1094 9.23438 16.7969 8.0625
Q21.4844 6.89062 26.7031 6.89062
Q35.1562 6.89062 40.0781 11.3281
Q45.0156 15.7656 45.0156 23.3906
Q45.0156 31 40.0781 35.4375
Q35.1562 39.8906 26.7031 39.8906
Q22.75 39.8906 18.8125 39.0156
Q14.8906 38.1406 10.7969 36.2812
z
" id="BitstreamVeraSans-Roman-35"/>
      </defs>
      <g transform="translate(207.977489169 191.574350962)scale(0.18 -0.18)">
       <use xlink:href="#BitstreamVeraSans-Roman-35"/>
      </g>
     </g>
    </g>
    <g id="text_7">
     <!-- $x$ -->
     <defs>
      <path d="
M7.8125 2.875
Q9.57812 1.51562 12.7969 1.51562
Q15.9219 1.51562 18.3125 4.51562
Q20.7031 7.51562 21.5781 11.0781
L26.125 28.8125
Q27.2031 33.6406 27.2031 35.4062
Q27.2031 37.8906 25.8125 39.75
Q24.4219 41.6094 21.9219 41.6094
Q18.75 41.6094 15.9688 39.625
Q13.1875 37.6406 11.2812 34.5938
Q9.375 31.5469 8.59375 28.4219
Q8.40625 27.7812 7.8125 27.7812
L6.59375 27.7812
Q5.8125 27.7812 5.8125 28.7188
L5.8125 29
Q6.78125 32.7188 9.125 36.25
Q11.4688 39.7969 14.8594 41.9844
Q18.2656 44.1875 22.125 44.1875
Q25.7812 44.1875 28.7344 42.2344
Q31.6875 40.2812 32.9062 36.9219
Q34.625 39.9844 37.2812 42.0781
Q39.9375 44.1875 43.1094 44.1875
Q45.2656 44.1875 47.5 43.4219
Q49.75 42.6719 51.1719 41.1094
Q52.5938 39.5469 52.5938 37.2031
Q52.5938 34.6719 50.9531 32.8281
Q49.3125 31 46.7812 31
Q45.1719 31 44.0938 32.0312
Q43.0156 33.0625 43.0156 34.625
Q43.0156 36.7188 44.4531 38.2969
Q45.9062 39.8906 47.9062 40.1875
Q46.0938 41.6094 42.9219 41.6094
Q39.7031 41.6094 37.3281 38.625
Q34.9688 35.6406 33.9844 31.9844
L29.5938 14.3125
Q28.5156 10.2969 28.5156 7.71875
Q28.5156 5.17188 29.9531 3.34375
Q31.3906 1.51562 33.7969 1.51562
Q38.4844 1.51562 42.1562 5.64062
Q45.8438 9.76562 47.0156 14.7031
Q47.2188 15.2812 47.7969 15.2812
L49.0312 15.2812
Q49.4219 15.2812 49.6562 15.0156
Q49.9062 14.75 49.9062 14.4062
Q49.9062 14.3125 49.8125 14.1094
Q48.3906 8.15625 43.8438 3.51562
Q39.3125 -1.125 33.5938 -1.125
Q29.9375 -1.125 26.9844 0.84375
Q24.0312 2.82812 22.7969 6.20312
Q21.2344 3.26562 18.4688 1.0625
Q15.7188 -1.125 12.5938 -1.125
Q10.4531 -1.125 8.17188 -0.359375
Q5.90625 0.390625 4.48438 1.95312
Q3.07812 3.51562 3.07812 5.90625
Q3.07812 8.25 4.70312 10.1719
Q6.34375 12.1094 8.79688 12.1094
Q10.4531 12.1094 11.5781 11.1094
Q12.7031 10.1094 12.7031 8.5
Q12.7031 6.39062 11.2969 4.82812
Q9.90625 3.26562 7.8125 2.875" id="Cmmi10-78"/>
     </defs>
     <g transform="translate(257.713933987 173.897163462)scale(0.18 -0.18)">
      <use transform="translate(0.0 0.8125)" xlink:href="#Cmmi10-78"/>
     </g>
    </g>
   </g>
   <g id="matplotlib.axis_2">
    <g id="ytick_1">
     <g id="line2d_12">
      <defs>
       <path d="
M0 0
L4 0" id="m728421d6d4" style="stroke:#000000;stroke-width:0.5;"/>
      </defs>
      <g>
       <use style="stroke:#000000;stroke-width:0.5;" x="47.7888523616" xlink:href="#m728421d6d4" y="219.470240385"/>
      </g>
     </g>
     <g id="text_8">
      <!-- -1 -->
      <g transform="translate(28.3847898616 224.437115385)scale(0.18 -0.18)">
       <use xlink:href="#BitstreamVeraSans-Roman-2d"/>
       <use x="36.083984375" xlink:href="#BitstreamVeraSans-Roman-31"/>
      </g>
     </g>
    </g>
    <g id="ytick_2">
     <g id="line2d_13">
      <g>
       <use style="stroke:#000000;stroke-width:0.5;" x="47.7888523616" xlink:href="#m728421d6d4" y="173.897163462"/>
      </g>
     </g>
    </g>
    <g id="ytick_3">
     <g id="line2d_14">
      <g>
       <use style="stroke:#000000;stroke-width:0.5;" x="47.7888523616" xlink:href="#m728421d6d4" y="128.324086538"/>
      </g>
     </g>
     <g id="text_9">
      <!-- 1 -->
      <g transform="translate(35.9757273616 133.290961538)scale(0.18 -0.18)">
       <use xlink:href="#BitstreamVeraSans-Roman-31"/>
      </g>
     </g>
    </g>
    <g id="ytick_4">
     <g id="line2d_15">
      <g>
       <use style="stroke:#000000;stroke-width:0.5;" x="47.7888523616" xlink:href="#m728421d6d4" y="82.7510096154"/>
      </g>
     </g>
     <g id="text_10">
      <!-- 2 -->
      <g transform="translate(35.4582273616 87.7178846154)scale(0.18 -0.18)">
       <use xlink:href="#BitstreamVeraSans-Roman-32"/>
      </g>
     </g>
    </g>
    <g id="ytick_5">
     <g id="line2d_16">
      <g>
       <use style="stroke:#000000;stroke-width:0.5;" x="47.7888523616" xlink:href="#m728421d6d4" y="37.1779326923"/>
      </g>
     </g>
     <g id="text_11">
      <!-- 3 -->
      <g transform="translate(35.1516648616 42.1448076923)scale(0.18 -0.18)">
       <use xlink:href="#BitstreamVeraSans-Roman-33"/>
      </g>
     </g>
    </g>
    <g id="text_12">
     <!-- $y$ -->
     <defs>
      <path d="
M8.40625 -14.3125
Q10.5 -17.9219 15.7188 -17.9219
Q20.4531 -17.9219 23.9219 -14.5938
Q27.3906 -11.2812 29.5156 -6.5625
Q31.6406 -1.85938 32.8125 3.07812
Q28.375 -1.125 23.1875 -1.125
Q19.2344 -1.125 16.4531 0.234375
Q13.6719 1.60938 12.125 4.3125
Q10.5938 7.03125 10.5938 10.8906
Q10.5938 14.1562 11.4688 17.5938
Q12.3594 21.0469 13.9375 25.2656
Q15.5312 29.5 16.7031 32.625
Q18.0156 36.2812 18.0156 38.625
Q18.0156 41.6094 15.8281 41.6094
Q11.8594 41.6094 9.29688 37.5312
Q6.73438 33.4531 5.51562 28.4219
Q5.32812 27.7812 4.6875 27.7812
L3.51562 27.7812
Q2.6875 27.7812 2.6875 28.7188
L2.6875 29
Q4.29688 34.9688 7.60938 39.5781
Q10.9375 44.1875 16.0156 44.1875
Q19.5781 44.1875 22.0469 41.8438
Q24.5156 39.5 24.5156 35.8906
Q24.5156 34.0312 23.6875 31.9844
Q23.25 30.7656 21.6875 26.6562
Q20.125 22.5625 19.2812 19.875
Q18.4531 17.1875 17.9219 14.5938
Q17.3906 12.0156 17.3906 9.42188
Q17.3906 6.10938 18.7969 3.8125
Q20.2188 1.51562 23.2969 1.51562
Q29.5 1.51562 34.4219 9.07812
L42 39.8906
Q42.3281 41.2188 43.5469 42.1562
Q44.7812 43.1094 46.1875 43.1094
Q47.4062 43.1094 48.3125 42.3281
Q49.2188 41.5469 49.2188 40.2812
Q49.2188 39.7031 49.125 39.5
L39.2031 -0.296875
Q37.8906 -5.42188 34.375 -10.1094
Q30.8594 -14.7969 25.9062 -17.6562
Q20.9531 -20.5156 15.5781 -20.5156
Q12.9844 -20.5156 10.4375 -19.5
Q7.90625 -18.5 6.34375 -16.5
Q4.78125 -14.5 4.78125 -11.8125
Q4.78125 -9.07812 6.39062 -7.07812
Q8.01562 -5.07812 10.6875 -5.07812
Q12.3125 -5.07812 13.4062 -6.07812
Q14.5 -7.07812 14.5 -8.6875
Q14.5 -10.9844 12.7812 -12.6875
Q11.0781 -14.4062 8.79688 -14.4062
Q8.6875 -14.3594 8.59375 -14.3281
Q8.5 -14.3125 8.40625 -14.3125" id="Cmmi10-79"/>
     </defs>
     <g transform="translate(43.2888523616 20.840625)scale(0.18 -0.18)">
      <use transform="translate(0.0 0.8125)" xlink:href="#Cmmi10-79"/>
     </g>
    </g>
   </g>
   <g id="patch_4">
    <path d="
M10.2979 173.897
L249.714 173.897" style="fill:none;stroke:#000000;stroke-width:0.8;"/>
   </g>
   <g id="patch_5">
    <path d="
M47.7889 269.601
L47.7889 32.6206" style="fill:none;stroke:#000000;stroke-width:0.8;"/>
   </g>
   <g id="text_13">
    <!-- $y=-\frac{1}{4}x$ -->
    <defs>
     <path d="
M9.28125 0
L9.28125 3.51562
Q21.7812 3.51562 21.7812 6.6875
L21.7812 59.1875
Q16.6094 56.6875 8.6875 56.6875
L8.6875 60.2031
Q20.9531 60.2031 27.2031 66.6094
L28.6094 66.6094
Q28.9531 66.6094 29.2656 66.3281
Q29.5938 66.0625 29.5938 65.7188
L29.5938 6.6875
Q29.5938 3.51562 42.0938 3.51562
L42.0938 0
z
" id="Cmr10-31"/>
     <path d="
M10.2031 23
Q9.375 23 8.82812 23.625
Q8.29688 24.2656 8.29688 25
Q8.29688 25.7344 8.82812 26.3594
Q9.375 27 10.2031 27
L67.5781 27
Q68.3594 27 68.875 26.3594
Q69.3906 25.7344 69.3906 25
Q69.3906 24.2656 68.875 23.625
Q68.3594 23 67.5781 23
z
" id="Cmsy10-a1"/>
     <path d="
M2.78125 16.5
L2.78125 20.0156
L33.6875 66.1094
Q34.0312 66.6094 34.7188 66.6094
L36.1875 66.6094
Q37.3125 66.6094 37.3125 65.4844
L37.3125 20.0156
L47.125 20.0156
L47.125 16.5
L37.3125 16.5
L37.3125 6.6875
Q37.3125 4.64062 40.2344 4.07812
Q43.1719 3.51562 47.0156 3.51562
L47.0156 0
L19.4844 0
L19.4844 3.51562
Q23.3438 3.51562 26.2656 4.07812
Q29.2031 4.64062 29.2031 6.6875
L29.2031 16.5
z

M6.10938 20.0156
L29.7812 20.0156
L29.7812 55.4219
z
" id="Cmr10-34"/>
     <path d="
M7.51562 13.2812
Q6.6875 13.2812 6.14062 13.9062
Q5.60938 14.5469 5.60938 15.2812
Q5.60938 16.1094 6.14062 16.6875
Q6.6875 17.2812 7.51562 17.2812
L70.3125 17.2812
Q71.0469 17.2812 71.5781 16.6875
Q72.125 16.1094 72.125 15.2812
Q72.125 14.5469 71.5781 13.9062
Q71.0469 13.2812 70.3125 13.2812
z

M7.51562 32.7188
Q6.6875 32.7188 6.14062 33.2969
Q5.60938 33.8906 5.60938 34.7188
Q5.60938 35.4531 6.14062 36.0781
Q6.6875 36.7188 7.51562 36.7188
L70.3125 36.7188
Q71.0469 36.7188 71.5781 36.0781
Q72.125 35.4531 72.125 34.7188
Q72.125 33.8906 71.5781 33.2969
Q71.0469 32.7188 70.3125 32.7188
z
" id="Cmr10-3d"/>
    </defs>
    <g transform="translate(67.149084029 223.430240385)scale(0.18 -0.18)">
     <use transform="translate(0.0 0.8734375)" xlink:href="#Cmmi10-79"/>
     <use transform="translate(66.58203125 0.8734375)" xlink:href="#Cmr10-3d"/>
     <use transform="translate(150.640625 0.8734375)" xlink:href="#Cmsy10-a1"/>
     <use transform="translate(228.326171875 38.3734375)scale(0.7)" xlink:href="#Cmr10-31"/>
     <use transform="translate(228.326171875 -39.503125)scale(0.7)" xlink:href="#Cmr10-34"/>
     <use transform="translate(275.826171875 0.8734375)" xlink:href="#Cmmi10-78"/>
     <path d="
M228.326 13.3734
L228.326 19.6234
L263.326 19.6234
L263.326 13.3734
L228.326 13.3734
z
"/>
    </g>
   </g>
   <g id="text_14">
    <!-- $y=\sqrt{x}$ -->
    <defs>
     <path d="
M42.3906 -116.016
L19.8281 -63.4844
L12.7969 -68.8906
L10.9844 -67.0938
L25.2969 -56
L46.3906 -105.078
L98.2969 3.07812
Q98.7812 4 100 4
Q100.828 4 101.406 3.40625
Q102 2.82812 102 2
Q102 1.51562 101.906 1.3125
L46.0938 -115.094
Q45.7031 -116.016 44.5781 -116.016
z
" id="Cmex10-70"/>
    </defs>
    <g transform="translate(70.389084029 99.6342788462)scale(0.18 -0.18)">
     <use transform="translate(0.0 0.578125)" xlink:href="#Cmmi10-79"/>
     <use transform="translate(66.58203125 0.578125)" xlink:href="#Cmr10-3d"/>
     <use transform="translate(150.640625 73.453125)scale(0.63793776852)" xlink:href="#Cmex10-70"/>
     <use transform="translate(226.921875 0.5625)" xlink:href="#Cmmi10-78"/>
     <path d="
M214.422 69.5
L214.422 75.75
L296.502 75.75
L296.502 69.5
L214.422 69.5
z
"/>
    </g>
   </g>
  </g>
 </g>
 <defs>
  <clipPath id="pedcb8f8c1d">
   <rect height="236.98" width="239.416057692" x="10.2978762944" y="32.620625"/>
  </clipPath>
 </defs>
</svg>
