<?xml version="1.0" encoding="utf-8" standalone="no"?>
<!DOCTYPE svg PUBLIC "-//W3C//DTD SVG 1.1//EN"
  "http://www.w3.org/Graphics/SVG/1.1/DTD/svg11.dtd">
<!-- Created with matplotlib (http://matplotlib.org/) -->
<svg height="277pt" version="1.1" viewBox="0 0 275 277" width="275pt" xmlns="http://www.w3.org/2000/svg" xmlns:xlink="http://www.w3.org/1999/xlink">
 <defs>
  <style type="text/css">
*{stroke-linecap:butt;stroke-linejoin:round;}
  </style>
 </defs>
 <g id="figure_1">
  <g id="patch_1">
   <path d="
M0 277.315
L275.67 277.315
L275.67 0
L0 0
z
" style="fill:#ffffff;"/>
  </g>
  <g id="axes_1">
   <g id="patch_2">
    <path d="
M7.2 252.931
L250.03 252.931
L250.03 32.6206
L7.2 32.6206
z
" style="fill:#ffffff;"/>
   </g>
   <g id="patch_3">
    <path clip-path="url(#p9ce254f00c)" d="
M70.2424 248.695
L70.2424 189.115
L70.7265 189.333
L71.9748 189.878
L72.1195 189.94
L72.9909 190.303
L74.174 190.779
L74.3077 190.831
L75.1226 191.144
L76.4432 191.629
L77.0906 191.858
L77.7836 192.094
L78.2353 192.245
L79.0069 192.494
L79.8238 192.748
L80.5168 192.956
L80.9325 193.077
L82.0082 193.377
L82.6091 193.537
L83.3435 193.725
L84.0803 193.905
L84.7875 194.069
L85.7475 194.281
L86.1779 194.371
L86.7738 194.491
L87.9693 194.715
L88.8351 194.863
L89.162 194.916
L90.0802 195.056
L90.9422 195.176
L91.5363 195.251
L92.456 195.358
L93.1419 195.428
L93.3798 195.451
L94.1519 195.519
L95.3278 195.605
L96.1545 195.652
L96.7199 195.678
L97.3253 195.701
L97.9199 195.718
L99.1335 195.735
L99.6178 195.735
L100.265 195.73
L101.321 195.708
L102.111 195.679
L102.776 195.648
L102.978 195.637
L103.796 195.587
L104.966 195.497
L105.384 195.46
L106.35 195.363
L106.663 195.329
L107.643 195.211
L108.471 195.1
L109.317 194.975
L109.569 194.936
L110.81 194.729
L111.655 194.574
L111.683 194.568
L112.429 194.422
L113.84 194.121
L114.205 194.039
L115.275 193.784
L115.746 193.666
L116.476 193.477
L117.021 193.33
L117.651 193.155
L118.328 192.96
L119.463 192.616
L120.418 192.312
L121.022 192.112
L121.488 191.954
L122.102 191.74
L122.795 191.492
L123.587 191.2
L124.348 190.909
L125.069 190.626
L125.829 190.319
L126.362 190.098
L127.289 189.703
L128.388 189.218
L129.013 188.934
L129.948 188.497
L130.635 188.168
L130.793 188.091
L131.644 187.67
L132.35 187.312
L133.007 186.973
L133.825 186.541
L134.618 186.112
L135.718 185.501
L135.916 185.389
L137.274 184.605
L138.031 184.155
L138.155 184.08
L139.468 183.277
L139.774 183.085
L140.435 182.668
L141.4 182.045
L142.235 181.495
L142.971 181.001
L143.882 180.379
L144.658 179.838
L145.404 179.309
L145.934 178.928
L146.484 178.528
L147.572 177.723
L148.339 177.145
L148.844 176.759
L149.163 176.513
L150.288 175.634
L150.953 175.105
L151.783 174.434
L152.528 173.824
L152.938 173.484
L153.488 173.024
L154.903 171.819
L155.181 171.579
L156.395 170.516
L156.818 170.14
L157.441 169.581
L158.275 168.825
L158.696 168.438
L159.792 167.419
L160.711 166.55
L160.876 166.393
L161.634 165.664
L162.316 165.001
L163.686 163.648
L163.789 163.545
L164.994 162.328
L165.538 161.771
L166.175 161.114
L167.284 159.953
L167.468 159.759
L168.5 158.66
L169.346 157.745
L169.937 157.101
L171.049 155.872
L171.25 155.649
L172.164 154.622
L172.653 154.067
L173.932 152.598
L174.601 151.821
L175.267 151.039
L175.78 150.433
L176.896 149.098
L177.191 148.742
L177.889 147.895
L178.542 147.096
L179.307 146.15
L180.361 144.833
L181.283 143.667
L181.666 143.178
L182.379 142.262
L183.205 141.193
L183.857 140.341
L184.933 138.92
L185.653 137.959
L186.38 136.98
L186.485 136.838
L187.763 135.096
L188.158 134.553
L189.357 132.887
L189.88 132.154
L190.813 130.836
L191.11 130.414
L191.629 129.672
L192.492 128.429
L193.362 127.165
L194.257 125.852
L195.163 124.511
L195.276 124.343
L196.628 122.314
L197.069 121.647
L198.07 120.12
L198.583 119.33
L199.667 117.651
L199.741 117.535
L200.751 115.953
L201.456 114.84
L202.218 113.627
L202.766 112.749
L203.617 111.377
L204.216 110.404
L205.19 108.81
L206.211 107.124
L206.512 106.624
L207.466 105.029
L207.999 104.131
L208.855 102.682
L209.45 101.667
L210.272 100.256
L211.023 98.9566
L211.944 97.3528
L212.446 96.4732
L212.942 95.6006
L213.631 94.3813
L214.961 92.0059
L215.327 91.3484
L216.174 89.8167
L216.174 248.695
z
" style="fill:#0000ff;opacity:0.5;"/>
   </g>
   <g id="line2d_1">
    <path clip-path="url(#p9ce254f00c)" d="
M11.8698 248.695
L245.36 248.695
L245.36 248.695" style="fill:none;"/>
   </g>
   <g id="line2d_2">
    <path clip-path="url(#p9ce254f00c)" d="
M70.2424 189.115
L74.3077 190.831
L78.2353 192.245
L82.0082 193.377
L85.7475 194.281
L89.162 194.916
L93.3798 195.451
L97.3253 195.701
L101.321 195.708
L105.384 195.46
L109.569 194.936
L113.84 194.121
L117.651 193.155
L121.488 191.954
L125.069 190.626
L129.013 188.934
L133.007 186.973
L137.274 184.605
L141.4 182.045
L145.934 178.928
L150.288 175.634
L154.903 171.819
L158.696 168.438
L163.686 163.648
L167.468 159.759
L172.164 154.622
L176.896 149.098
L181.666 143.178
L186.485 136.838
L191.629 129.672
L197.069 121.647
L202.218 113.627
L207.466 105.029
L212.942 95.6006
L216.174 89.8167
L216.174 89.8167" style="fill:none;stroke:#0000ff;stroke-linecap:square;"/>
   </g>
   <g id="line2d_3">
    <path clip-path="url(#p9ce254f00c)" d="
M216.174 248.695
L216.174 89.8167" style="fill:none;stroke:#000000;stroke-linecap:square;stroke-width:1.5;"/>
   </g>
   <g id="matplotlib.axis_1">
    <g id="xtick_1">
     <g id="line2d_4">
      <defs>
       <path d="
M0 0
L0 -4" id="m93b0483c22" style="stroke:#000000;stroke-width:0.5;"/>
      </defs>
      <g>
       <use style="stroke:#000000;stroke-width:0.5;" x="70.2424038462" xlink:href="#m93b0483c22" y="248.694648669"/>
      </g>
     </g>
     <g id="text_1">
      <!-- $a$ -->
      <defs>
       <path d="
M17.3906 -1.125
Q11.0781 -1.125 7.4375 3.64062
Q3.8125 8.40625 3.8125 14.8906
Q3.8125 21.2969 7.125 28.1719
Q10.4531 35.0625 16.0938 39.625
Q21.7344 44.1875 28.2188 44.1875
Q31.2031 44.1875 33.5469 42.5781
Q35.8906 40.9688 37.2031 38.1875
Q38.3281 42.1875 41.6094 42.1875
Q42.875 42.1875 43.7188 41.4219
Q44.5781 40.6719 44.5781 39.4062
Q44.5781 39.1094 44.5469 38.9531
Q44.5312 38.8125 44.4844 38.625
L37.5 10.6875
Q36.8125 7.71875 36.8125 5.8125
Q36.8125 1.51562 39.7031 1.51562
Q42.8281 1.51562 44.4531 5.48438
Q46.0938 9.46875 47.2188 14.7031
Q47.4062 15.2812 48 15.2812
L49.2188 15.2812
Q49.6094 15.2812 49.8438 14.9375
Q50.0938 14.5938 50.0938 14.3125
Q48.3438 7.32812 46.2656 3.09375
Q44.1875 -1.125 39.5 -1.125
Q36.1406 -1.125 33.5469 0.84375
Q30.9531 2.82812 30.3281 6.10938
Q23.875 -1.125 17.3906 -1.125
M17.4844 1.51562
Q21.0938 1.51562 24.4844 4.21875
Q27.875 6.9375 30.3281 10.5938
Q30.4219 10.6875 30.4219 10.8906
L35.7969 32.625
L35.8906 32.9062
Q35.2969 36.4688 33.3125 39.0312
Q31.3438 41.6094 27.9844 41.6094
Q24.6094 41.6094 21.7031 38.8438
Q18.7969 36.0781 16.7969 32.3281
Q14.8438 28.3281 13.0625 21.3438
Q11.2812 14.3594 11.2812 10.5
Q11.2812 7.03125 12.7656 4.26562
Q14.2656 1.51562 17.4844 1.51562" id="Cmmi10-61"/>
      </defs>
      <g transform="translate(65.4724038462 266.371836169)scale(0.18 -0.18)">
       <use transform="translate(0.0 0.8125)" xlink:href="#Cmmi10-61"/>
      </g>
     </g>
    </g>
    <g id="xtick_2">
     <g id="line2d_5">
      <g>
       <use style="stroke:#000000;stroke-width:0.5;" x="216.173894231" xlink:href="#m93b0483c22" y="248.694648669"/>
      </g>
     </g>
     <g id="text_2">
      <!-- $b$ -->
      <defs>
       <path d="
M17.2812 -1.125
Q11.2344 -1.125 7.85938 3.60938
Q4.5 8.34375 4.5 14.7031
Q4.5 15.625 4.95312 18.3281
Q5.42188 21.0469 5.42188 21.6875
L15.0938 60.5
Q15.4844 62.2031 15.5781 63.1875
Q15.5781 64.7969 9.07812 64.7969
Q8.10938 64.7969 8.10938 66.1094
Q8.15625 66.3594 8.32812 66.9844
Q8.5 67.625 8.76562 67.9688
Q9.03125 68.3125 9.51562 68.3125
L23 69.3906
Q24.2188 69.3906 24.2188 68.1094
L16.7969 38.625
Q22.4688 44.1875 28.2188 44.1875
Q32.4688 44.1875 35.5156 41.9375
Q38.5781 39.7031 40.0938 36.0312
Q41.6094 32.375 41.6094 28.2188
Q41.6094 23.3906 39.7188 18.2344
Q37.8438 13.0938 34.5156 8.67188
Q31.2031 4.25 26.75 1.5625
Q22.3125 -1.125 17.2812 -1.125
M17.4844 1.51562
Q20.9062 1.51562 23.875 4.375
Q26.8594 7.23438 28.7188 10.7969
Q30.7188 14.7969 32.4531 21.6562
Q34.1875 28.5156 34.1875 32.625
Q34.1875 36.1875 32.6875 38.8906
Q31.2031 41.6094 27.9844 41.6094
Q24.3594 41.6094 21.0625 38.9375
Q17.7812 36.2812 15.2812 32.625
L12.5 21.2969
Q10.8906 14.9844 10.7969 11.1875
Q10.7969 7.42188 12.4219 4.46875
Q14.0625 1.51562 17.4844 1.51562" id="Cmmi10-62"/>
      </defs>
      <g transform="translate(212.303894231 266.371836169)scale(0.18 -0.18)">
       <use transform="translate(0.0 0.609375)" xlink:href="#Cmmi10-62"/>
      </g>
     </g>
    </g>
    <g id="text_3">
     <!-- $x$ -->
     <defs>
      <path d="
M7.8125 2.875
Q9.57812 1.51562 12.7969 1.51562
Q15.9219 1.51562 18.3125 4.51562
Q20.7031 7.51562 21.5781 11.0781
L26.125 28.8125
Q27.2031 33.6406 27.2031 35.4062
Q27.2031 37.8906 25.8125 39.75
Q24.4219 41.6094 21.9219 41.6094
Q18.75 41.6094 15.9688 39.625
Q13.1875 37.6406 11.2812 34.5938
Q9.375 31.5469 8.59375 28.4219
Q8.40625 27.7812 7.8125 27.7812
L6.59375 27.7812
Q5.8125 27.7812 5.8125 28.7188
L5.8125 29
Q6.78125 32.7188 9.125 36.25
Q11.4688 39.7969 14.8594 41.9844
Q18.2656 44.1875 22.125 44.1875
Q25.7812 44.1875 28.7344 42.2344
Q31.6875 40.2812 32.9062 36.9219
Q34.625 39.9844 37.2812 42.0781
Q39.9375 44.1875 43.1094 44.1875
Q45.2656 44.1875 47.5 43.4219
Q49.75 42.6719 51.1719 41.1094
Q52.5938 39.5469 52.5938 37.2031
Q52.5938 34.6719 50.9531 32.8281
Q49.3125 31 46.7812 31
Q45.1719 31 44.0938 32.0312
Q43.0156 33.0625 43.0156 34.625
Q43.0156 36.7188 44.4531 38.2969
Q45.9062 39.8906 47.9062 40.1875
Q46.0938 41.6094 42.9219 41.6094
Q39.7031 41.6094 37.3281 38.625
Q34.9688 35.6406 33.9844 31.9844
L29.5938 14.3125
Q28.5156 10.2969 28.5156 7.71875
Q28.5156 5.17188 29.9531 3.34375
Q31.3906 1.51562 33.7969 1.51562
Q38.4844 1.51562 42.1562 5.64062
Q45.8438 9.76562 47.0156 14.7031
Q47.2188 15.2812 47.7969 15.2812
L49.0312 15.2812
Q49.4219 15.2812 49.6562 15.0156
Q49.9062 14.75 49.9062 14.4062
Q49.9062 14.3125 49.8125 14.1094
Q48.3906 8.15625 43.8438 3.51562
Q39.3125 -1.125 33.5938 -1.125
Q29.9375 -1.125 26.9844 0.84375
Q24.0312 2.82812 22.7969 6.20312
Q21.2344 3.26562 18.4688 1.0625
Q15.7188 -1.125 12.5938 -1.125
Q10.4531 -1.125 8.17188 -0.359375
Q5.90625 0.390625 4.48438 1.95312
Q3.07812 3.51562 3.07812 5.90625
Q3.07812 8.25 4.70312 10.1719
Q6.34375 12.1094 8.79688 12.1094
Q10.4531 12.1094 11.5781 11.1094
Q12.7031 10.1094 12.7031 8.5
Q12.7031 6.39062 11.2969 4.82812
Q9.90625 3.26562 7.8125 2.875" id="Cmmi10-78"/>
     </defs>
     <g transform="translate(258.03 248.694648669)scale(0.18 -0.18)">
      <use transform="translate(0.0 0.8125)" xlink:href="#Cmmi10-78"/>
     </g>
    </g>
   </g>
   <g id="matplotlib.axis_2">
    <g id="text_4">
     <!-- $y$ -->
     <defs>
      <path d="
M8.40625 -14.3125
Q10.5 -17.9219 15.7188 -17.9219
Q20.4531 -17.9219 23.9219 -14.5938
Q27.3906 -11.2812 29.5156 -6.5625
Q31.6406 -1.85938 32.8125 3.07812
Q28.375 -1.125 23.1875 -1.125
Q19.2344 -1.125 16.4531 0.234375
Q13.6719 1.60938 12.125 4.3125
Q10.5938 7.03125 10.5938 10.8906
Q10.5938 14.1562 11.4688 17.5938
Q12.3594 21.0469 13.9375 25.2656
Q15.5312 29.5 16.7031 32.625
Q18.0156 36.2812 18.0156 38.625
Q18.0156 41.6094 15.8281 41.6094
Q11.8594 41.6094 9.29688 37.5312
Q6.73438 33.4531 5.51562 28.4219
Q5.32812 27.7812 4.6875 27.7812
L3.51562 27.7812
Q2.6875 27.7812 2.6875 28.7188
L2.6875 29
Q4.29688 34.9688 7.60938 39.5781
Q10.9375 44.1875 16.0156 44.1875
Q19.5781 44.1875 22.0469 41.8438
Q24.5156 39.5 24.5156 35.8906
Q24.5156 34.0312 23.6875 31.9844
Q23.25 30.7656 21.6875 26.6562
Q20.125 22.5625 19.2812 19.875
Q18.4531 17.1875 17.9219 14.5938
Q17.3906 12.0156 17.3906 9.42188
Q17.3906 6.10938 18.7969 3.8125
Q20.2188 1.51562 23.2969 1.51562
Q29.5 1.51562 34.4219 9.07812
L42 39.8906
Q42.3281 41.2188 43.5469 42.1562
Q44.7812 43.1094 46.1875 43.1094
Q47.4062 43.1094 48.3125 42.3281
Q49.2188 41.5469 49.2188 40.2812
Q49.2188 39.7031 49.125 39.5
L39.2031 -0.296875
Q37.8906 -5.42188 34.375 -10.1094
Q30.8594 -14.7969 25.9062 -17.6562
Q20.9531 -20.5156 15.5781 -20.5156
Q12.9844 -20.5156 10.4375 -19.5
Q7.90625 -18.5 6.34375 -16.5
Q4.78125 -14.5 4.78125 -11.8125
Q4.78125 -9.07812 6.39062 -7.07812
Q8.01562 -5.07812 10.6875 -5.07812
Q12.3125 -5.07812 13.4062 -6.07812
Q14.5 -7.07812 14.5 -8.6875
Q14.5 -10.9844 12.7812 -12.6875
Q11.0781 -14.4062 8.79688 -14.4062
Q8.6875 -14.3594 8.59375 -14.3281
Q8.5 -14.3125 8.40625 -14.3125" id="Cmmi10-79"/>
     </defs>
     <g transform="translate(36.5561057692 20.840625)scale(0.18 -0.18)">
      <use transform="translate(0.0 0.8125)" xlink:href="#Cmmi10-79"/>
     </g>
    </g>
   </g>
   <g id="patch_4">
    <path d="
M7.2 248.695
L250.03 248.695" style="fill:none;stroke:#000000;stroke-width:0.8;"/>
   </g>
   <g id="patch_5">
    <path d="
M41.0561 252.931
L41.0561 32.6206" style="fill:none;stroke:#000000;stroke-width:0.8;"/>
   </g>
   <g id="text_5">
    <!-- $y=f(x)$ -->
    <defs>
     <path d="
M31 -24.8125
Q25.4375 -20.4062 21.4062 -14.7188
Q17.3906 -9.03125 14.8125 -2.57812
Q12.25 3.85938 10.9844 10.8906
Q9.71875 17.9219 9.71875 25
Q9.71875 32.1719 10.9844 39.2031
Q12.25 46.2344 14.8594 52.7344
Q17.4844 59.2344 21.5312 64.8906
Q25.5938 70.5625 31 74.8125
Q31 75 31.5 75
L32.4219 75
Q32.7188 75 32.9531 74.7344
Q33.2031 74.4688 33.2031 74.125
Q33.2031 73.6875 33.0156 73.4844
Q28.125 68.7031 24.875 63.2344
Q21.625 57.7656 19.6406 51.5781
Q17.6719 45.4062 16.7969 38.7812
Q15.9219 32.1719 15.9219 25
Q15.9219 -6.78125 32.9062 -23.2969
Q33.2031 -23.5781 33.2031 -24.125
Q33.2031 -24.3594 32.9375 -24.6719
Q32.6719 -25 32.4219 -25
L31.5 -25
Q31 -25 31 -24.8125" id="Cmr10-28"/>
     <path d="
M6.5 -25
Q5.60938 -25 5.60938 -24.125
Q5.60938 -23.6875 5.8125 -23.4844
Q22.9062 -6.78125 22.9062 25
Q22.9062 56.7812 6 73.2969
Q5.60938 73.5312 5.60938 74.125
Q5.60938 74.4688 5.875 74.7344
Q6.15625 75 6.5 75
L7.42188 75
Q7.71875 75 7.90625 74.8125
Q15.0938 69.1406 19.875 61.0312
Q24.6562 52.9375 26.875 43.75
Q29.1094 34.5781 29.1094 25
Q29.1094 17.9219 27.9062 11.0625
Q26.7031 4.20312 24.0938 -2.45312
Q21.4844 -9.125 17.4844 -14.7656
Q13.4844 -20.4062 7.90625 -24.8125
Q7.71875 -25 7.42188 -25
z
" id="Cmr10-29"/>
     <path d="
M9.71875 -16.5
Q11.5781 -17.9219 14.2031 -17.9219
Q17.7812 -17.9219 20.0156 -10.0156
Q20.9531 -6.20312 25.0938 15.0938
L29.6875 39.5938
L21.0938 39.5938
Q20.125 39.5938 20.125 40.9219
Q20.5156 43.1094 21.3906 43.1094
L30.3281 43.1094
L31.5 49.6094
Q32.0781 52.6406 32.5625 54.8125
Q33.0625 56.9844 33.625 58.8281
Q34.1875 60.6875 35.2969 62.9844
Q37.0156 66.2656 39.9219 68.3906
Q42.8281 70.5156 46.1875 70.5156
Q48.3906 70.5156 50.4688 69.7031
Q52.5469 68.8906 53.8594 67.2812
Q55.1719 65.6719 55.1719 63.4844
Q55.1719 60.9375 53.4844 59.0469
Q51.8125 57.1719 49.4219 57.1719
Q47.7969 57.1719 46.6562 58.1719
Q45.5156 59.1875 45.5156 60.7969
Q45.5156 62.9844 47 64.625
Q48.4844 66.2656 50.6875 66.5
Q48.8281 67.9219 46.0938 67.9219
Q44.5781 67.9219 43.2344 66.5
Q41.8906 65.0938 41.5 63.4844
Q40.875 60.9375 38.7188 49.7031
L37.5 43.1094
L47.7969 43.1094
Q48.7812 43.1094 48.7812 41.7969
Q48.7344 41.5469 48.5781 40.9375
Q48.4375 40.3281 48.1719 39.9531
Q47.9062 39.5938 47.5156 39.5938
L36.8125 39.5938
L32.1719 15.1875
Q31.2969 9.85938 30.1406 4.35938
Q29 -1.125 26.9219 -6.90625
Q24.8594 -12.7031 21.625 -16.6094
Q18.4062 -20.5156 14.0156 -20.5156
Q10.6406 -20.5156 7.98438 -18.5781
Q5.32812 -16.6562 5.32812 -13.4844
Q5.32812 -10.9375 6.95312 -9.04688
Q8.59375 -7.17188 11.0781 -7.17188
Q12.75 -7.17188 13.8594 -8.17188
Q14.9844 -9.1875 14.9844 -10.7969
Q14.9844 -12.9375 13.3906 -14.7188
Q11.8125 -16.5 9.71875 -16.5" id="Cmmi10-66"/>
     <path d="
M7.51562 13.2812
Q6.6875 13.2812 6.14062 13.9062
Q5.60938 14.5469 5.60938 15.2812
Q5.60938 16.1094 6.14062 16.6875
Q6.6875 17.2812 7.51562 17.2812
L70.3125 17.2812
Q71.0469 17.2812 71.5781 16.6875
Q72.125 16.1094 72.125 15.2812
Q72.125 14.5469 71.5781 13.9062
Q71.0469 13.2812 70.3125 13.2812
z

M7.51562 32.7188
Q6.6875 32.7188 6.14062 33.2969
Q5.60938 33.8906 5.60938 34.7188
Q5.60938 35.4531 6.14062 36.0781
Q6.6875 36.7188 7.51562 36.7188
L70.3125 36.7188
Q71.0469 36.7188 71.5781 36.0781
Q72.125 35.4531 72.125 34.7188
Q72.125 33.8906 71.5781 33.2969
Q71.0469 32.7188 70.3125 32.7188
z
" id="Cmr10-3d"/>
    </defs>
    <g transform="translate(165.593485577 66.1820515902)scale(0.18 -0.18)">
     <use xlink:href="#Cmmi10-79"/>
     <use transform="translate(66.58203125 0.0)" xlink:href="#Cmr10-3d"/>
     <use transform="translate(150.640625 0.0)" xlink:href="#Cmmi10-66"/>
     <use transform="translate(199.517578125 0.0)" xlink:href="#Cmr10-28"/>
     <use transform="translate(238.3359375 0.0)" xlink:href="#Cmmi10-78"/>
     <use transform="translate(295.416015625 0.0)" xlink:href="#Cmr10-29"/>
    </g>
   </g>
   <g id="text_6">
    <!-- $\int_{a}^{b}f(x) \ dx$ -->
    <defs>
     <path d="
M17.3906 -1.125
Q11.0781 -1.125 7.4375 3.64062
Q3.8125 8.40625 3.8125 14.8906
Q3.8125 21.2969 7.125 28.1719
Q10.4531 35.0625 16.0938 39.625
Q21.7344 44.1875 28.2188 44.1875
Q31.1562 44.1875 33.5156 42.5469
Q35.8906 40.9219 37.2031 38.1875
L42.8281 60.5
Q43.2188 62.2031 43.3125 63.1875
Q43.3125 64.7969 36.8125 64.7969
Q35.7969 64.7969 35.7969 66.1094
Q35.8438 66.3594 36.0156 66.9844
Q36.1875 67.625 36.4531 67.9688
Q36.7188 68.3125 37.2031 68.3125
L50.6875 69.3906
Q51.9062 69.3906 51.9062 68.1094
L37.5 10.5938
Q36.8125 8.9375 36.8125 5.8125
Q36.8125 1.51562 39.7031 1.51562
Q42.8281 1.51562 44.4531 5.48438
Q46.0938 9.46875 47.2188 14.7031
Q47.4062 15.2812 48 15.2812
L49.2188 15.2812
Q49.6094 15.2812 49.8438 14.9375
Q50.0938 14.5938 50.0938 14.3125
Q48.3438 7.32812 46.2656 3.09375
Q44.1875 -1.125 39.5 -1.125
Q36.1406 -1.125 33.5469 0.84375
Q30.9531 2.82812 30.3281 6.10938
Q23.875 -1.125 17.3906 -1.125
M17.4844 1.51562
Q21.0938 1.51562 24.4844 4.21875
Q27.875 6.9375 30.3281 10.5938
Q30.4219 10.6875 30.4219 10.9844
L35.8906 33.0156
Q35.2969 36.5312 33.2969 39.0625
Q31.2969 41.6094 27.9844 41.6094
Q24.6094 41.6094 21.7031 38.8438
Q18.7969 36.0781 16.7969 32.3281
Q14.8438 28.3281 13.0625 21.3438
Q11.2812 14.3594 11.2812 10.5
Q11.2812 7.03125 12.7656 4.26562
Q14.2656 1.51562 17.4844 1.51562" id="Cmmi10-64"/>
     <path d="
M10.5938 -217.094
Q13.0938 -219.578 16.7031 -219.578
Q20.3125 -219.578 23.2812 -214.625
Q26.2656 -209.672 28.5156 -202.25
Q30.7656 -194.828 31.8125 -189.812
Q32.8594 -184.812 34.4219 -176.906
Q35.8438 -169.531 37.1562 -162.109
Q38.4844 -154.688 39.875 -146.312
Q41.2656 -137.938 42.7969 -129.312
Q44.3438 -120.703 46.2969 -110.984
Q48.9219 -98.1875 50.0625 -92.6875
Q51.2188 -87.2031 53.5625 -76.8281
Q55.9062 -66.4531 56.6562 -63.1562
Q57.4219 -59.8594 60.9844 -45.125
L62.3125 -39.8906
Q64.5469 -31.1094 65.7656 -26.5938
Q67 -22.0781 69.5625 -15.5469
Q72.125 -9.03125 75.5781 -4.51562
Q79.0469 0 83.2031 0
Q86.1406 0 88.6406 -1.3125
Q91.1562 -2.64062 92.7188 -4.9375
Q94.2812 -7.23438 94.2812 -10.2031
Q94.2812 -12.3594 92.8594 -13.7656
Q91.4531 -15.1875 89.3125 -15.1875
Q87.1094 -15.1875 85.6406 -13.7656
Q84.1875 -12.3594 84.1875 -10.2031
Q84.1875 -8.01562 85.6406 -6.54688
Q87.1094 -5.07812 89.3125 -5.07812
Q86.7188 -2.59375 83.2969 -2.59375
Q81.4531 -2.59375 79.2188 -8
Q77 -13.4219 75.125 -20.7656
Q73.25 -28.125 72.2344 -33.0312
Q71.2344 -37.9375 69.8281 -45.3125
Q68.1719 -53.6562 67.0625 -59.8594
Q65.9688 -66.0625 64.4062 -75.1875
Q62.8438 -84.3281 61.3438 -92.5781
Q59.8594 -100.828 57.8125 -111.188
Q56.5 -117.719 54 -129.562
Q51.5156 -141.406 50.7031 -144.969
Q49.9062 -148.531 46.6094 -162.391
Q43.3125 -176.266 43.1094 -177.094
L41.8906 -181.688
Q39.3125 -192.281 36.6875 -200.312
Q34.0781 -208.344 29.0156 -215.281
Q23.9688 -222.219 16.7031 -222.219
Q12.3594 -222.219 8.98438 -219.281
Q5.60938 -216.359 5.60938 -212.109
Q5.60938 -209.906 7.07812 -208.438
Q8.54688 -206.984 10.6875 -206.984
Q12.1094 -206.984 13.25 -207.656
Q14.4062 -208.344 15.0625 -209.516
Q15.7188 -210.688 15.7188 -212.109
Q15.7188 -214.266 14.25 -215.672
Q12.7969 -217.094 10.5938 -217.094" id="Cmex10-5a"/>
    </defs>
    <g transform="translate(101.628149038 227.884988905)scale(0.18 -0.18)">
     <use transform="translate(0.0 144.9359375)" xlink:href="#Cmex10-5a"/>
     <use transform="translate(95.516953125 119.4265625)scale(0.7)" xlink:href="#Cmmi10-62"/>
     <use transform="translate(55.517578125 -102.7921875)scale(0.7)" xlink:href="#Cmmi10-61"/>
     <use transform="translate(142.567148438 0.493229166667)" xlink:href="#Cmmi10-66"/>
     <use transform="translate(191.444101563 0.493229166667)" xlink:href="#Cmr10-28"/>
     <use transform="translate(230.262460938 0.493229166667)" xlink:href="#Cmmi10-78"/>
     <use transform="translate(287.342539063 0.493229166667)" xlink:href="#Cmr10-29"/>
     <use transform="translate(352.498789063 0.493229166667)" xlink:href="#Cmmi10-64"/>
     <use transform="translate(404.500742188 0.493229166667)" xlink:href="#Cmmi10-78"/>
    </g>
   </g>
   <g id="line2d_6">
    <path clip-path="url(#p9ce254f00c)" d="
M70.2424 248.695
L70.2424 189.115" style="fill:none;stroke:#000000;stroke-linecap:square;stroke-width:1.5;"/>
   </g>
   <g id="line2d_7">
    <path clip-path="url(#p9ce254f00c)" d="
M11.8698 136.156
L17.3905 143.432
L22.506 149.752
L26.6155 154.534
L31.9986 160.401
L36.2825 164.748
L40.8331 169.053
L44.5788 172.355
L49.5055 176.367
L53.7582 179.526
L58.8957 182.968
L63.0594 185.456
L67.7772 187.95
L71.8347 189.818
L75.6095 191.326
L78.786 192.424
L82.3943 193.48
L86.4612 194.429
L90.5881 195.128
L93.5475 195.467
L98.2771 195.725
L101.866 195.689
L106.245 195.374
L109.457 194.954
L112.926 194.32
L116.962 193.346
L121.514 191.945
L125.485 190.459
L128.71 189.072
L132.419 187.277
L135.921 185.386
L140.262 182.778
L144.563 179.905
L147.803 177.55
L152.491 173.854
L156.491 170.431
L161.498 165.795
L166.828 160.433
L170.937 155.997
L175.797 150.412
L181.355 143.575
L184.998 138.833
L190.491 131.292
L194.619 125.317
L200.63 116.144
L206.592 106.49
L211.101 98.8208
L216.454 89.3083
L222.099 78.7928
L227.218 68.8299
L232.298 58.5393
L238.877 44.6161
L244.076 33.1369
L245.36 30.2375
L245.36 30.2375" style="fill:none;stroke:#0000ff;stroke-linecap:square;stroke-width:2.0;"/>
   </g>
  </g>
 </g>
 <defs>
  <clipPath id="p9ce254f00c">
   <rect height="220.310769231" width="242.83" x="7.2" y="32.620625"/>
  </clipPath>
 </defs>
</svg>
