<?xml version="1.0" encoding="utf-8" standalone="no"?>
<!DOCTYPE svg PUBLIC "-//W3C//DTD SVG 1.1//EN"
  "http://www.w3.org/Graphics/SVG/1.1/DTD/svg11.dtd">
<!-- Created with matplotlib (http://matplotlib.org/) -->
<svg height="276pt" version="1.1" viewBox="0 0 419 276" width="419pt" xmlns="http://www.w3.org/2000/svg" xmlns:xlink="http://www.w3.org/1999/xlink">
 <defs>
  <style type="text/css">
*{stroke-linecap:butt;stroke-linejoin:round;}
  </style>
 </defs>
 <g id="figure_1">
  <g id="patch_1">
   <path d="
M0 276.801
L419.67 276.801
L419.67 0
L0 0
z
" style="fill:#ffffff;"/>
  </g>
  <g id="axes_1">
   <g id="patch_2">
    <path d="
M7.2 269.601
L394.03 269.601
L394.03 32.6206
L7.2 32.6206
z
" style="fill:#ffffff;"/>
   </g>
   <g id="patch_3">
    <path clip-path="url(#p4cffa25915)" d="
M299.073 113.133
L298.137 114.214
L296.768 115.783
L294.786 118.033
L293.406 119.584
L291.829 121.342
L291.556 121.645
L290.467 122.847
L289.378 124.041
L288.923 124.538
L287.041 126.577
L285.973 127.725
L284.545 129.247
L282.999 130.879
L281.955 131.972
L280.796 133.178
L279.538 134.477
L278.06 135.989
L276.665 137.403
L275.622 138.452
L273.735 140.331
L272.487 141.561
L270.793 143.215
L270.236 143.753
L268.414 145.504
L267.372 146.495
L266.287 147.519
L265.227 148.512
L263.236 150.357
L262.303 151.213
L260.657 152.708
L260.14 153.175
L258.183 154.923
L256.546 156.366
L255.135 157.595
L254.101 158.488
L252.707 159.68
L251.304 160.867
L250.23 161.767
L249.346 162.502
L247.735 163.828
L246.637 164.722
L245.493 165.645
L243.5 167.232
L241.709 168.635
L240.583 169.508
L239.649 170.224
L238.339 171.22
L237.592 171.782
L236.339 172.718
L235.235 173.534
L234.13 174.342
L233.327 174.924
L232.167 175.758
L230.446 176.978
L228.599 178.267
L227.461 179.049
L225.896 180.111
L224.903 180.776
L223.962 181.401
L222.236 182.531
L221.11 183.258
L219.518 184.271
L217.979 185.235
L217.474 185.548
L216.5 186.146
L214.517 187.345
L213.378 188.022
L211.548 189.092
L210.501 189.694
L208.808 190.653
L208.507 190.821
L206.464 191.948
L205.238 192.611
L203.906 193.32
L203.392 193.591
L201.415 194.615
L200.122 195.271
L198.23 196.211
L196.956 196.83
L195.573 197.491
L194.411 198.036
L193.587 198.417
L191.559 199.336
L190.754 199.693
L189.346 200.308
L188.1 200.84
L186.92 201.336
L185.421 201.951
L184.28 202.41
L183.503 202.717
L181.792 203.38
L179.983 204.06
L178.43 204.627
L178.132 204.734
L176.527 205.299
L175.099 205.788
L173.999 206.155
L171.886 206.839
L170.938 207.135
L170.344 207.318
L168.379 207.907
L166.844 208.349
L165.205 208.804
L164.626 208.961
L162.55 209.503
L161.359 209.802
L161.178 209.847
L160.094 210.109
L159.01 210.363
L158.473 210.487
L156.973 210.821
L155.527 211.129
L153.733 211.491
L152.072 211.808
L151.759 211.866
L150.449 212.101
L149.059 212.337
L147.689 212.557
L146.522 212.735
L144.711 212.994
L143.209 213.192
L141.486 213.4
L141.05 213.45
L139.435 213.623
L137.561 213.802
L137.439 213.813
L136.163 213.921
L134.887 214.017
L133.978 214.08
L132.559 214.166
L131.548 214.22
L130.228 214.28
L128.852 214.33
L127.15 214.375
L125.759 214.397
L124.33 214.406
L123.704 214.406
L122.403 214.398
L121.442 214.384
L119.342 214.334
L118.181 214.293
L116.428 214.215
L116.129 214.2
L114.968 214.135
L113.807 214.061
L112.953 214
L111.108 213.854
L110.018 213.757
L109.657 213.723
L108.432 213.602
L107.208 213.47
L106.19 213.354
L104.665 213.166
L103.344 212.991
L101.972 212.797
L101.178 212.679
L99.4606 212.41
L98.3732 212.229
L97.5096 212.081
L96.3864 211.879
L95.2631 211.67
L93.9884 211.422
L92.7188 211.164
L91.6121 210.931
L90.3477 210.655
L89.6987 210.509
L87.8756 210.084
L87.0399 209.882
L85.861 209.589
L84.6822 209.287
L84.6644 209.282
L82.9794 208.834
L81.8516 208.524
L80.7238 208.205
L79.9093 207.97
L78.476 207.545
L77.5828 207.273
L76.1529 206.827
L74.164 206.185
L73.4718 205.955
L72.4226 205.601
L70.9156 205.079
L69.4786 204.567
L67.7268 203.925
L67.094 203.689
L65.469 203.068
L64.6706 202.757
L62.6865 201.965
L61.4104 201.442
L59.7645 200.752
L58.7933 200.336
L58.2004 200.079
L56.6773 199.408
L54.756 198.541
L53.8431 198.12
L52.6092 197.542
L51.1909 196.866
L49.488 196.036
L48.008 195.299
L47.4796 195.033
L45.8723 194.211
L44.8321 193.67
L43.0752 192.74
L41.9739 192.146
L40.6363 191.415
L39.3638 190.708
L37.3051 189.541
L36.5186 189.088
L36.5186 189.088
L38.3296 188.564
L39.6847 188.172
L40.7187 187.873
L41.8149 187.556
L43.3581 187.11
L44.7762 186.699
L45.7043 186.431
L46.9605 186.067
L48.3872 185.655
L50.0743 185.167
L50.4625 185.054
L51.8316 184.658
L54.19 183.976
L54.5366 183.876
L56.4195 183.331
L57.6982 182.961
L58.5657 182.71
L60.0966 182.267
L61.6141 181.828
L63.4237 181.305
L63.921 181.161
L65.0121 180.845
L67.4742 180.133
L68.3901 179.868
L70.0085 179.4
L70.9678 179.122
L72.3451 178.724
L73.9871 178.249
L74.343 178.146
L76.021 177.66
L77.5906 177.206
L79.0364 176.788
L80.6032 176.335
L81.7093 176.015
L82.8391 175.688
L83.6442 175.455
L84.7281 175.141
L86.6144 174.596
L88.3021 174.108
L89.5359 173.751
L90.8786 173.362
L91.2863 173.244
L93.3532 172.646
L94.7858 172.232
L96.1205 171.846
L97.3598 171.487
L98.291 171.218
L99.2775 170.932
L101.422 170.312
L101.885 170.178
L103.716 169.648
L104.878 169.312
L107.075 168.677
L107.565 168.535
L109.09 168.094
L110.171 167.781
L111.669 167.348
L113.395 166.848
L113.966 166.683
L116.075 166.073
L116.859 165.846
L118.237 165.448
L119.5 165.082
L120.813 164.702
L122.246 164.288
L123.625 163.889
L124.953 163.505
L125.618 163.312
L128.148 162.581
L129.4 162.218
L129.54 162.178
L131.018 161.75
L133.421 161.055
L134.507 160.741
L135.242 160.528
L136.684 160.111
L138.217 159.668
L139.8 159.209
L141.028 158.854
L142.467 158.438
L143.279 158.203
L145.243 157.635
L146.376 157.307
L147.691 156.927
L149.119 156.514
L150.246 156.188
L151.032 155.96
L153.12 155.356
L153.318 155.299
L155.042 154.8
L155.941 154.54
L158.181 153.892
L158.595 153.772
L160.039 153.355
L161.821 152.839
L162.997 152.499
L164.838 151.966
L166.289 151.547
L167.526 151.189
L168.919 150.786
L170.358 150.369
L171.059 150.167
L172.815 149.659
L173.365 149.5
L174.977 149.033
L176.682 148.54
L177.115 148.415
L178.627 147.977
L180.22 147.516
L181.954 147.015
L183.498 146.568
L183.763 146.491
L185.504 145.988
L186.831 145.604
L188.648 145.078
L190.032 144.678
L190.67 144.493
L192.104 144.078
L194.18 143.478
L194.831 143.289
L196.088 142.926
L197.518 142.512
L199.442 141.956
L200.192 141.739
L201.492 141.362
L202.943 140.943
L203.556 140.765
L205.561 140.185
L206.732 139.847
L207.905 139.507
L209.963 138.912
L210.92 138.635
L212.598 138.15
L213.948 137.759
L215.263 137.379
L216.353 137.063
L217.27 136.798
L218.515 136.438
L219.423 136.175
L221.582 135.551
L222.073 135.408
L224.004 134.85
L225.048 134.548
L226.48 134.134
L228.075 133.672
L229.019 133.399
L230.232 133.048
L231.204 132.767
L233.512 132.099
L234.233 131.891
L235.64 131.484
L237.563 130.927
L237.815 130.854
L239.042 130.5
L240.686 130.024
L242.392 129.53
L243.306 129.266
L244.717 128.858
L246.019 128.481
L247.429 128.073
L249.465 127.484
L250.661 127.138
L251.349 126.939
L253.372 126.354
L254.504 126.026
L255.871 125.631
L257.071 125.284
L257.98 125.021
L259.303 124.638
L260.565 124.273
L262.472 123.721
L263.149 123.526
L264.929 123.011
L266.652 122.512
L266.866 122.45
L269.047 121.819
L270.542 121.387
L271.072 121.233
L272.63 120.783
L274.433 120.261
L275.931 119.828
L276.537 119.652
L277.712 119.313
L278.73 119.018
L280.314 118.56
L282.163 118.025
L282.74 117.858
L284.177 117.442
L285.632 117.021
L287.722 116.417
L288.939 116.065
L289.485 115.907
L291.242 115.399
L293.117 114.856
L293.617 114.711
L295.537 114.156
L297.001 113.732
L298.033 113.434
z
" style="fill:#800080;opacity:0.5;"/>
   </g>
   <g id="line2d_1">
    <path clip-path="url(#p4cffa25915)" d="
M14.639 239.725
L386.591 239.725
L386.591 239.725" style="fill:none;"/>
   </g>
   <g id="line2d_2">
    <path clip-path="url(#p4cffa25915)" d="
M14.639 195.418
L386.591 87.8147
L386.591 87.8147" style="fill:none;stroke:#ff0000;stroke-linecap:square;stroke-width:2.0;"/>
   </g>
   <g id="line2d_3">
    <path clip-path="url(#p4cffa25915)" d="
M36.5186 189.088
L299.073 113.133
L299.073 113.133" style="fill:none;stroke:#ff0000;stroke-linecap:square;stroke-width:2.0;"/>
   </g>
   <g id="line2d_4">
    <path clip-path="url(#p4cffa25915)" d="
M14.639 174.847
L21.3486 179.55
L27.6287 183.683
L35.0923 188.256
L40.6299 191.411
L47.5729 195.08
L54.0543 198.218
L60.1709 200.924
L65.9389 203.249
L71.2612 205.2
L77.2041 207.157
L83.2763 208.915
L87.7612 210.057
L93.2571 211.275
L99.2624 212.378
L104.316 213.121
L109.762 213.733
L116.288 214.208
L121.822 214.39
L128.126 214.351
L132.571 214.166
L139.232 213.643
L145.407 212.897
L151.77 211.864
L158.313 210.523
L163.515 209.255
L170.437 207.29
L176.713 205.234
L183.3 202.797
L189.161 200.387
L194.497 197.996
L200.783 194.937
L206.976 191.668
L212.77 188.38
L217.73 185.389
L223.278 181.851
L229.164 177.875
L236.844 172.342
L243.52 167.216
L250.594 161.463
L256.478 156.425
L263.312 150.287
L270.753 143.253
L278.448 135.594
L286.174 127.509
L293.23 119.782
L300.597 111.361
L306.74 104.067
L313.876 95.2788
L320.808 86.4203
L328.014 76.875
L335.53 66.5524
L342.906 56.0596
L350.206 45.3208
L358.525 32.6535
L365.233 22.1057
L374.392 7.22416
L379.311 -1
L379.311 -1" style="fill:none;stroke:#0000ff;stroke-linecap:square;stroke-width:2.0;"/>
   </g>
   <g id="matplotlib.axis_1">
    <g id="xtick_1">
     <g id="line2d_5">
      <defs>
       <path d="
M0 0
L0 -4" id="m93b0483c22" style="stroke:#000000;stroke-width:0.5;"/>
      </defs>
      <g>
       <use style="stroke:#000000;stroke-width:0.5;" x="124.036662896" xlink:href="#m93b0483c22" y="239.724941239"/>
      </g>
     </g>
     <g id="text_1">
      <!-- 1 -->
      <defs>
       <path d="
M12.4062 8.29688
L28.5156 8.29688
L28.5156 63.9219
L10.9844 60.4062
L10.9844 69.3906
L28.4219 72.9062
L38.2812 72.9062
L38.2812 8.29688
L54.3906 8.29688
L54.3906 0
L12.4062 0
z
" id="BitstreamVeraSans-Roman-31"/>
      </defs>
      <g transform="translate(120.130100396 257.402128739)scale(0.18 -0.18)">
       <use xlink:href="#BitstreamVeraSans-Roman-31"/>
      </g>
     </g>
    </g>
    <g id="xtick_2">
     <g id="line2d_6">
      <g>
       <use style="stroke:#000000;stroke-width:0.5;" x="211.554762443" xlink:href="#m93b0483c22" y="239.724941239"/>
      </g>
     </g>
     <g id="text_2">
      <!-- 2 -->
      <defs>
       <path d="
M19.1875 8.29688
L53.6094 8.29688
L53.6094 0
L7.32812 0
L7.32812 8.29688
Q12.9375 14.1094 22.625 23.8906
Q32.3281 33.6875 34.8125 36.5312
Q39.5469 41.8438 41.4219 45.5312
Q43.3125 49.2188 43.3125 52.7812
Q43.3125 58.5938 39.2344 62.25
Q35.1562 65.9219 28.6094 65.9219
Q23.9688 65.9219 18.8125 64.3125
Q13.6719 62.7031 7.8125 59.4219
L7.8125 69.3906
Q13.7656 71.7812 18.9375 73
Q24.125 74.2188 28.4219 74.2188
Q39.75 74.2188 46.4844 68.5469
Q53.2188 62.8906 53.2188 53.4219
Q53.2188 48.9219 51.5312 44.8906
Q49.8594 40.875 45.4062 35.4062
Q44.1875 33.9844 37.6406 27.2188
Q31.1094 20.4531 19.1875 8.29688" id="BitstreamVeraSans-Roman-32"/>
      </defs>
      <g transform="translate(207.389449943 257.402128739)scale(0.18 -0.18)">
       <use xlink:href="#BitstreamVeraSans-Roman-32"/>
      </g>
     </g>
    </g>
    <g id="xtick_3">
     <g id="line2d_7">
      <g>
       <use style="stroke:#000000;stroke-width:0.5;" x="299.072861991" xlink:href="#m93b0483c22" y="239.724941239"/>
      </g>
     </g>
     <g id="text_3">
      <!-- 3 -->
      <defs>
       <path d="
M40.5781 39.3125
Q47.6562 37.7969 51.625 33
Q55.6094 28.2188 55.6094 21.1875
Q55.6094 10.4062 48.1875 4.48438
Q40.7656 -1.42188 27.0938 -1.42188
Q22.5156 -1.42188 17.6562 -0.515625
Q12.7969 0.390625 7.625 2.20312
L7.625 11.7188
Q11.7188 9.32812 16.5938 8.10938
Q21.4844 6.89062 26.8125 6.89062
Q36.0781 6.89062 40.9375 10.5469
Q45.7969 14.2031 45.7969 21.1875
Q45.7969 27.6406 41.2812 31.2656
Q36.7656 34.9062 28.7188 34.9062
L20.2188 34.9062
L20.2188 43.0156
L29.1094 43.0156
Q36.375 43.0156 40.2344 45.9219
Q44.0938 48.8281 44.0938 54.2969
Q44.0938 59.9062 40.1094 62.9062
Q36.1406 65.9219 28.7188 65.9219
Q24.6562 65.9219 20.0156 65.0312
Q15.375 64.1562 9.8125 62.3125
L9.8125 71.0938
Q15.4375 72.6562 20.3438 73.4375
Q25.25 74.2188 29.5938 74.2188
Q40.8281 74.2188 47.3594 69.1094
Q53.9062 64.0156 53.9062 55.3281
Q53.9062 49.2656 50.4375 45.0938
Q46.9688 40.9219 40.5781 39.3125" id="BitstreamVeraSans-Roman-33"/>
      </defs>
      <g transform="translate(294.754268241 257.402128739)scale(0.18 -0.18)">
       <use xlink:href="#BitstreamVeraSans-Roman-33"/>
      </g>
     </g>
    </g>
    <g id="text_4">
     <!-- $x$ -->
     <defs>
      <path d="
M7.8125 2.875
Q9.57812 1.51562 12.7969 1.51562
Q15.9219 1.51562 18.3125 4.51562
Q20.7031 7.51562 21.5781 11.0781
L26.125 28.8125
Q27.2031 33.6406 27.2031 35.4062
Q27.2031 37.8906 25.8125 39.75
Q24.4219 41.6094 21.9219 41.6094
Q18.75 41.6094 15.9688 39.625
Q13.1875 37.6406 11.2812 34.5938
Q9.375 31.5469 8.59375 28.4219
Q8.40625 27.7812 7.8125 27.7812
L6.59375 27.7812
Q5.8125 27.7812 5.8125 28.7188
L5.8125 29
Q6.78125 32.7188 9.125 36.25
Q11.4688 39.7969 14.8594 41.9844
Q18.2656 44.1875 22.125 44.1875
Q25.7812 44.1875 28.7344 42.2344
Q31.6875 40.2812 32.9062 36.9219
Q34.625 39.9844 37.2812 42.0781
Q39.9375 44.1875 43.1094 44.1875
Q45.2656 44.1875 47.5 43.4219
Q49.75 42.6719 51.1719 41.1094
Q52.5938 39.5469 52.5938 37.2031
Q52.5938 34.6719 50.9531 32.8281
Q49.3125 31 46.7812 31
Q45.1719 31 44.0938 32.0312
Q43.0156 33.0625 43.0156 34.625
Q43.0156 36.7188 44.4531 38.2969
Q45.9062 39.8906 47.9062 40.1875
Q46.0938 41.6094 42.9219 41.6094
Q39.7031 41.6094 37.3281 38.625
Q34.9688 35.6406 33.9844 31.9844
L29.5938 14.3125
Q28.5156 10.2969 28.5156 7.71875
Q28.5156 5.17188 29.9531 3.34375
Q31.3906 1.51562 33.7969 1.51562
Q38.4844 1.51562 42.1562 5.64062
Q45.8438 9.76562 47.0156 14.7031
Q47.2188 15.2812 47.7969 15.2812
L49.0312 15.2812
Q49.4219 15.2812 49.6562 15.0156
Q49.9062 14.75 49.9062 14.4062
Q49.9062 14.3125 49.8125 14.1094
Q48.3906 8.15625 43.8438 3.51562
Q39.3125 -1.125 33.5938 -1.125
Q29.9375 -1.125 26.9844 0.84375
Q24.0312 2.82812 22.7969 6.20312
Q21.2344 3.26562 18.4688 1.0625
Q15.7188 -1.125 12.5938 -1.125
Q10.4531 -1.125 8.17188 -0.359375
Q5.90625 0.390625 4.48438 1.95312
Q3.07812 3.51562 3.07812 5.90625
Q3.07812 8.25 4.70312 10.1719
Q6.34375 12.1094 8.79688 12.1094
Q10.4531 12.1094 11.5781 11.1094
Q12.7031 10.1094 12.7031 8.5
Q12.7031 6.39062 11.2969 4.82812
Q9.90625 3.26562 7.8125 2.875" id="Cmmi10-78"/>
     </defs>
     <g transform="translate(402.03 239.724941239)scale(0.18 -0.18)">
      <use transform="translate(0.0 0.8125)" xlink:href="#Cmmi10-78"/>
     </g>
    </g>
   </g>
   <g id="matplotlib.axis_2">
    <g id="ytick_1">
     <g id="line2d_8">
      <defs>
       <path d="
M0 0
L4 0" id="m728421d6d4" style="stroke:#000000;stroke-width:0.5;"/>
      </defs>
      <g>
       <use style="stroke:#000000;stroke-width:0.5;" x="36.5185633484" xlink:href="#m728421d6d4" y="189.088189103"/>
      </g>
     </g>
     <g id="text_5">
      <!-- 2 -->
      <g transform="translate(24.1879383484 194.055064103)scale(0.18 -0.18)">
       <use xlink:href="#BitstreamVeraSans-Roman-32"/>
      </g>
     </g>
    </g>
    <g id="ytick_2">
     <g id="line2d_9">
      <g>
       <use style="stroke:#000000;stroke-width:0.5;" x="36.5185633484" xlink:href="#m728421d6d4" y="138.451436966"/>
      </g>
     </g>
     <g id="text_6">
      <!-- 4 -->
      <defs>
       <path d="
M37.7969 64.3125
L12.8906 25.3906
L37.7969 25.3906
z

M35.2031 72.9062
L47.6094 72.9062
L47.6094 25.3906
L58.0156 25.3906
L58.0156 17.1875
L47.6094 17.1875
L47.6094 0
L37.7969 0
L37.7969 17.1875
L4.89062 17.1875
L4.89062 26.7031
z
" id="BitstreamVeraSans-Roman-34"/>
      </defs>
      <g transform="translate(22.9560633484 143.418311966)scale(0.18 -0.18)">
       <use xlink:href="#BitstreamVeraSans-Roman-34"/>
      </g>
     </g>
    </g>
    <g id="ytick_3">
     <g id="line2d_10">
      <g>
       <use style="stroke:#000000;stroke-width:0.5;" x="36.5185633484" xlink:href="#m728421d6d4" y="87.8146848291"/>
      </g>
     </g>
     <g id="text_7">
      <!-- 6 -->
      <defs>
       <path d="
M33.0156 40.375
Q26.375 40.375 22.4844 35.8281
Q18.6094 31.2969 18.6094 23.3906
Q18.6094 15.5312 22.4844 10.9531
Q26.375 6.39062 33.0156 6.39062
Q39.6562 6.39062 43.5312 10.9531
Q47.4062 15.5312 47.4062 23.3906
Q47.4062 31.2969 43.5312 35.8281
Q39.6562 40.375 33.0156 40.375
M52.5938 71.2969
L52.5938 62.3125
Q48.875 64.0625 45.0938 64.9844
Q41.3125 65.9219 37.5938 65.9219
Q27.8281 65.9219 22.6719 59.3281
Q17.5312 52.7344 16.7969 39.4062
Q19.6719 43.6562 24.0156 45.9219
Q28.375 48.1875 33.5938 48.1875
Q44.5781 48.1875 50.9531 41.5156
Q57.3281 34.8594 57.3281 23.3906
Q57.3281 12.1562 50.6875 5.35938
Q44.0469 -1.42188 33.0156 -1.42188
Q20.3594 -1.42188 13.6719 8.26562
Q6.98438 17.9688 6.98438 36.375
Q6.98438 53.6562 15.1875 63.9375
Q23.3906 74.2188 37.2031 74.2188
Q40.9219 74.2188 44.7031 73.4844
Q48.4844 72.75 52.5938 71.2969" id="BitstreamVeraSans-Roman-36"/>
      </defs>
      <g transform="translate(23.4566883484 92.7815598291)scale(0.18 -0.18)">
       <use xlink:href="#BitstreamVeraSans-Roman-36"/>
      </g>
     </g>
    </g>
    <g id="text_8">
     <!-- $y$ -->
     <defs>
      <path d="
M8.40625 -14.3125
Q10.5 -17.9219 15.7188 -17.9219
Q20.4531 -17.9219 23.9219 -14.5938
Q27.3906 -11.2812 29.5156 -6.5625
Q31.6406 -1.85938 32.8125 3.07812
Q28.375 -1.125 23.1875 -1.125
Q19.2344 -1.125 16.4531 0.234375
Q13.6719 1.60938 12.125 4.3125
Q10.5938 7.03125 10.5938 10.8906
Q10.5938 14.1562 11.4688 17.5938
Q12.3594 21.0469 13.9375 25.2656
Q15.5312 29.5 16.7031 32.625
Q18.0156 36.2812 18.0156 38.625
Q18.0156 41.6094 15.8281 41.6094
Q11.8594 41.6094 9.29688 37.5312
Q6.73438 33.4531 5.51562 28.4219
Q5.32812 27.7812 4.6875 27.7812
L3.51562 27.7812
Q2.6875 27.7812 2.6875 28.7188
L2.6875 29
Q4.29688 34.9688 7.60938 39.5781
Q10.9375 44.1875 16.0156 44.1875
Q19.5781 44.1875 22.0469 41.8438
Q24.5156 39.5 24.5156 35.8906
Q24.5156 34.0312 23.6875 31.9844
Q23.25 30.7656 21.6875 26.6562
Q20.125 22.5625 19.2812 19.875
Q18.4531 17.1875 17.9219 14.5938
Q17.3906 12.0156 17.3906 9.42188
Q17.3906 6.10938 18.7969 3.8125
Q20.2188 1.51562 23.2969 1.51562
Q29.5 1.51562 34.4219 9.07812
L42 39.8906
Q42.3281 41.2188 43.5469 42.1562
Q44.7812 43.1094 46.1875 43.1094
Q47.4062 43.1094 48.3125 42.3281
Q49.2188 41.5469 49.2188 40.2812
Q49.2188 39.7031 49.125 39.5
L39.2031 -0.296875
Q37.8906 -5.42188 34.375 -10.1094
Q30.8594 -14.7969 25.9062 -17.6562
Q20.9531 -20.5156 15.5781 -20.5156
Q12.9844 -20.5156 10.4375 -19.5
Q7.90625 -18.5 6.34375 -16.5
Q4.78125 -14.5 4.78125 -11.8125
Q4.78125 -9.07812 6.39062 -7.07812
Q8.01562 -5.07812 10.6875 -5.07812
Q12.3125 -5.07812 13.4062 -6.07812
Q14.5 -7.07812 14.5 -8.6875
Q14.5 -10.9844 12.7812 -12.6875
Q11.0781 -14.4062 8.79688 -14.4062
Q8.6875 -14.3594 8.59375 -14.3281
Q8.5 -14.3125 8.40625 -14.3125" id="Cmmi10-79"/>
     </defs>
     <g transform="translate(32.0185633484 20.840625)scale(0.18 -0.18)">
      <use transform="translate(0.0 0.8125)" xlink:href="#Cmmi10-79"/>
     </g>
    </g>
   </g>
   <g id="patch_4">
    <path d="
M7.2 239.725
L394.03 239.725" style="fill:none;stroke:#000000;stroke-width:0.8;"/>
   </g>
   <g id="patch_5">
    <path d="
M36.5186 269.601
L36.5186 32.6206" style="fill:none;stroke:#000000;stroke-width:0.8;"/>
   </g>
   <g id="text_9">
    <!-- $g$ -->
    <defs>
     <path d="
M1.42188 -14.3125
Q1.42188 -11.8594 3.09375 -10.0312
Q4.78125 -8.20312 7.17188 -8.20312
Q8.79688 -8.20312 9.89062 -9.20312
Q10.9844 -10.2031 10.9844 -11.8125
Q10.9844 -13.625 9.95312 -15.0625
Q8.9375 -16.5 7.32812 -17.0938
Q10.0156 -17.9219 15.7188 -17.9219
Q20.3125 -17.9219 24.125 -14.375
Q27.9375 -10.8438 29.1094 -6.20312
L31.9844 5.51562
Q26.5625 0 20.7031 0
Q16.4062 0 13.3438 2.1875
Q10.2969 4.39062 8.6875 8.04688
Q7.07812 11.7188 7.07812 15.8281
Q7.07812 20.4062 8.95312 25.4375
Q10.8438 30.4688 14.2344 34.7656
Q17.625 39.0625 22.0156 41.625
Q26.4219 44.1875 31.2969 44.1875
Q34.2344 44.1875 36.5781 42.5781
Q38.9219 40.9688 40.2812 38.2812
Q41.2656 42.1875 44.5781 42.1875
Q45.8438 42.1875 46.7188 41.4219
Q47.6094 40.6719 47.6094 39.4062
Q47.6094 39.1094 47.5781 38.9531
Q47.5625 38.8125 47.5156 38.625
L36.0781 -6.78125
Q35.2969 -9.90625 33.2031 -12.5
Q31.1094 -15.0938 28.2656 -16.8281
Q25.4375 -18.5625 22.0625 -19.5312
Q18.7031 -20.5156 15.5781 -20.5156
Q9.85938 -20.5156 5.64062 -19.4062
Q1.42188 -18.3125 1.42188 -14.3125
M20.9062 2.59375
Q27.2969 2.59375 33.5 11.375
L39.0156 33.2031
Q38.3281 36.6719 36.2812 39.1406
Q34.2344 41.6094 31.1094 41.6094
Q27.7812 41.6094 24.8281 38.8906
Q21.875 36.1875 19.9219 32.4219
Q18.0625 28.8125 16.3281 22.0469
Q14.5938 15.2812 14.5938 11.375
Q14.5938 7.95312 16.1562 5.26562
Q17.7188 2.59375 20.9062 2.59375" id="Cmmi10-67"/>
    </defs>
    <g transform="translate(75.9576131222 168.700125534)scale(0.18 -0.18)">
     <use transform="translate(0.0 0.8125)" xlink:href="#Cmmi10-67"/>
    </g>
   </g>
   <g id="text_10">
    <!-- $f$ -->
    <defs>
     <path d="
M9.71875 -16.5
Q11.5781 -17.9219 14.2031 -17.9219
Q17.7812 -17.9219 20.0156 -10.0156
Q20.9531 -6.20312 25.0938 15.0938
L29.6875 39.5938
L21.0938 39.5938
Q20.125 39.5938 20.125 40.9219
Q20.5156 43.1094 21.3906 43.1094
L30.3281 43.1094
L31.5 49.6094
Q32.0781 52.6406 32.5625 54.8125
Q33.0625 56.9844 33.625 58.8281
Q34.1875 60.6875 35.2969 62.9844
Q37.0156 66.2656 39.9219 68.3906
Q42.8281 70.5156 46.1875 70.5156
Q48.3906 70.5156 50.4688 69.7031
Q52.5469 68.8906 53.8594 67.2812
Q55.1719 65.6719 55.1719 63.4844
Q55.1719 60.9375 53.4844 59.0469
Q51.8125 57.1719 49.4219 57.1719
Q47.7969 57.1719 46.6562 58.1719
Q45.5156 59.1875 45.5156 60.7969
Q45.5156 62.9844 47 64.625
Q48.4844 66.2656 50.6875 66.5
Q48.8281 67.9219 46.0938 67.9219
Q44.5781 67.9219 43.2344 66.5
Q41.8906 65.0938 41.5 63.4844
Q40.875 60.9375 38.7188 49.7031
L37.5 43.1094
L47.7969 43.1094
Q48.7812 43.1094 48.7812 41.7969
Q48.7344 41.5469 48.5781 40.9375
Q48.4375 40.3281 48.1719 39.9531
Q47.9062 39.5938 47.5156 39.5938
L36.8125 39.5938
L32.1719 15.1875
Q31.2969 9.85938 30.1406 4.35938
Q29 -1.125 26.9219 -6.90625
Q24.8594 -12.7031 21.625 -16.6094
Q18.4062 -20.5156 14.0156 -20.5156
Q10.6406 -20.5156 7.98438 -18.5781
Q5.32812 -16.6562 5.32812 -13.4844
Q5.32812 -10.9375 6.95312 -9.04688
Q8.59375 -7.17188 11.0781 -7.17188
Q12.75 -7.17188 13.8594 -8.17188
Q14.9844 -9.1875 14.9844 -10.7969
Q14.9844 -12.9375 13.3906 -14.7188
Q11.8125 -16.5 9.71875 -16.5" id="Cmmi10-66"/>
    </defs>
    <g transform="translate(75.8676131222 225.666471688)scale(0.18 -0.18)">
     <use transform="translate(0.0 0.484375)" xlink:href="#Cmmi10-66"/>
    </g>
   </g>
  </g>
 </g>
 <defs>
  <clipPath id="p4cffa25915">
   <rect height="236.98" width="386.83" x="7.2" y="32.620625"/>
  </clipPath>
 </defs>
</svg>
