<?xml version="1.0" encoding="utf-8" standalone="no"?>
<!DOCTYPE svg PUBLIC "-//W3C//DTD SVG 1.1//EN"
  "http://www.w3.org/Graphics/SVG/1.1/DTD/svg11.dtd">
<!-- Created with matplotlib (http://matplotlib.org/) -->
<svg height="276pt" version="1.1" viewBox="0 0 275 276" width="275pt" xmlns="http://www.w3.org/2000/svg" xmlns:xlink="http://www.w3.org/1999/xlink">
 <defs>
  <style type="text/css">
*{stroke-linecap:butt;stroke-linejoin:round;}
  </style>
 </defs>
 <g id="figure_1">
  <g id="patch_1">
   <path d="
M0 276.801
L275.67 276.801
L275.67 0
L0 0
z
" style="fill:#ffffff;"/>
  </g>
  <g id="axes_1">
   <g id="patch_2">
    <path d="
M7.2 269.601
L250.03 269.601
L250.03 32.6206
L7.2 32.6206
z
" style="fill:#ffffff;"/>
   </g>
   <g id="patch_3">
    <path clip-path="url(#pfbe49a6bba)" d="
M198.662 167.387
L198.123 167.762
L196.916 168.604
L196.558 168.853
L195.59 169.528
L195.095 169.874
L194.247 170.465
L193.83 170.755
L193.12 171.25
L192.085 171.972
L191.608 172.304
L191.209 172.582
L189.959 173.454
L189.245 173.951
L188.53 174.45
L188.164 174.705
L187.7 175.028
L187.024 175.499
L185.642 176.463
L185.019 176.897
L184.321 177.383
L183.903 177.675
L182.921 178.359
L182.409 178.716
L181.741 179.182
L181.289 179.497
L180.566 180.001
L179.604 180.671
L178.865 181.187
L178.381 181.524
L177.268 182.3
L176.967 182.51
L176.292 182.98
L175.539 183.506
L175.051 183.845
L174 184.578
L173.396 184.999
L172.523 185.608
L172.037 185.947
L171.377 186.407
L170.69 186.886
L169.772 187.525
L168.751 188.237
L168.736 188.248
L167.717 188.958
L166.966 189.482
L166.159 190.044
L165.276 190.659
L164.746 191.029
L163.826 191.67
L163.357 191.997
L162.614 192.515
L161.768 193.105
L161.261 193.458
L160.747 193.816
L160.176 194.215
L159.118 194.952
L158.395 195.456
L157.586 196.02
L157.039 196.401
L156.741 196.609
L155.553 197.437
L154.722 198.016
L154.556 198.132
L153.737 198.703
L152.842 199.327
L152.172 199.794
L151.154 200.504
L150.814 200.741
L150.021 201.294
L149.09 201.942
L148.905 202.071
L148.008 202.697
L147.376 203.137
L146.914 203.459
L146.023 204.08
L145.395 204.518
L144.448 205.179
L143.788 205.638
L143.063 206.144
L142.047 206.852
L141.733 207.071
L140.705 207.787
L139.988 208.287
L139.817 208.406
L138.951 209.01
L138.234 209.51
L137.286 210.171
L136.383 210.8
L136.146 210.965
L135.65 211.311
L134.297 212.254
L134.185 212.332
L132.852 213.261
L132.782 213.31
L131.835 213.971
L131.359 214.302
L130.047 215.217
L129.538 215.572
L128.936 215.992
L128.055 216.605
L127.802 216.782
L126.725 217.533
L125.902 218.106
L125.244 218.565
L124.949 218.771
L124.337 219.197
L123.051 220.094
L122.763 220.294
L121.725 221.018
L120.972 221.543
L120.657 221.763
L119.861 222.317
L119.24 222.75
L118.167 223.498
L117.53 223.942
L117.024 224.295
L116.502 224.659
L115.528 225.338
L114.823 225.829
L114.412 226.115
L113.245 226.929
L112.851 227.204
L111.894 227.871
L111.224 228.338
L110.328 228.962
L109.907 229.256
L109.354 229.641
L108.63 230.146
L107.59 230.871
L107.33 231.052
L106.529 231.611
L105.603 232.256
L105.057 232.637
L104.099 233.305
L103.85 233.478
L103.241 233.903
L101.999 234.769
L101.629 235.026
L100.575 235.761
L100.124 236.075
L99.6691 236.393
L98.9185 236.916
L98.0653 237.511
L97.3102 238.037
L96.5965 238.534
L95.7297 239.139
L94.9094 239.71
L94.8053 239.783
L93.7148 240.543
L92.9413 241.082
L92.4271 241.441
L91.9739 241.757
L90.9429 242.475
L90.5936 242.719
L89.8443 243.241
L88.8817 243.912
L88.2709 244.338
L87.2006 245.084
L86.66 245.461
L85.9482 245.957
L85.3376 246.383
L84.6645 246.852
L83.7073 247.519
L83.036 247.987
L82.1777 248.585
L82.1018 248.638
L81.2732 249.216
L80.0453 250.072
L79.3932 250.526
L78.7636 250.965
L78.0269 251.479
L77.7197 251.693
L77.1922 252.061
L75.9089 252.955
L75.2708 253.4
L75.0823 253.531
L73.8771 254.372
L73.6854 254.505
L72.5963 255.264
L71.7984 255.821
L71.252 256.201
L70.4123 256.787
L69.5584 257.382
L69.0262 257.753
L68.4966 258.122
L67.9213 258.523
L67.2083 259.02
L66.515 259.504
L65.692 260.077
L64.6409 260.81
L64.5141 260.898
L63.2539 261.777
L62.5939 262.237
L62.2977 262.443
L61.6633 262.886
L60.467 263.719
L60.1192 263.962
L59.5355 264.369
L58.5679 265.043
L58.5679 167.387
L58.9741 167.951
L59.91 169.231
L60.4948 170.018
L61.0363 170.737
L61.9755 171.964
L62.6156 172.785
L63.5936 174.016
L64.4015 175.012
L64.6204 175.278
L65.2233 176.004
L65.8263 176.72
L66.4491 177.447
L66.7324 177.774
L67.3363 178.464
L67.9402 179.142
L68.6532 179.929
L69.0219 180.33
L70.0752 181.453
L70.6351 182.037
L70.9329 182.343
L71.8863 183.307
L72.4053 183.82
L73.433 184.813
L73.8788 185.233
L74.9834 186.25
L75.3283 186.56
L76.0505 187.198
L76.7633 187.812
L77.3147 188.277
L78.3176 189.098
L79.1162 189.731
L79.6399 190.136
L80.5431 190.815
L81.2817 191.352
L81.5504 191.543
L82.651 192.305
L82.8914 192.466
L83.7875 193.053
L84.394 193.436
L84.9718 193.791
L85.5496 194.136
L85.7369 194.246
L86.8518 194.877
L87.1944 195.064
L88.133 195.557
L88.761 195.872
L89.2275 196.099
L89.8371 196.385
L90.4467 196.661
L90.6549 196.752
L91.6696 197.179
L92.5859 197.539
L93.0477 197.71
L93.5536 197.891
L94.1837 198.106
L94.8138 198.308
L95.1404 198.408
L96.0007 198.657
L96.7765 198.863
L97.3392 199.001
L97.6808 199.08
L98.6822 199.292
L99.4457 199.433
L100.336 199.576
L100.961 199.662
L101.531 199.731
L101.925 199.772
L103.038 199.865
L103.376 199.886
L103.99 199.915
L104.622 199.933
L105.253 199.939
L105.566 199.938
L106.462 199.918
L106.917 199.898
L107.588 199.858
L108.678 199.765
L109.58 199.661
L110.154 199.582
L110.658 199.505
L111.381 199.381
L111.751 199.311
L112.897 199.07
L113.198 199
L114.016 198.796
L114.548 198.653
L115.368 198.416
L116.033 198.208
L116.935 197.906
L117.662 197.645
L118.387 197.369
L119.153 197.06
L119.688 196.834
L120.729 196.37
L120.951 196.266
L121.531 195.99
L122.111 195.703
L122.602 195.453
L123.136 195.172
L123.907 194.752
L124.794 194.247
L125.279 193.96
L126.139 193.435
L126.805 193.014
L127.498 192.561
L128.143 192.126
L129.259 191.346
L129.486 191.182
L130.078 190.749
L131.019 190.039
L132.011 189.262
L132.501 188.867
L133.41 188.115
L133.549 187.998
L134.237 187.41
L134.924 186.809
L135.564 186.236
L135.938 185.896
L136.879 185.021
L137.506 184.423
L138.242 183.706
L138.87 183.082
L139.521 182.423
L139.944 181.987
L140.668 181.23
L141.325 180.53
L142.226 179.547
L142.914 178.781
L143.416 178.213
L144.331 177.159
L145.367 175.934
L145.876 175.321
L146.456 174.613
L147.485 173.332
L147.742 173.007
L148.445 172.108
L149.023 171.358
L149.602 170.597
L150.265 169.713
L151.011 168.702
L151.196 168.449
L151.838 167.563
L152.479 166.665
L152.9 166.069
L153.722 164.889
L154.57 163.653
L155.235 162.667
L155.681 161.999
L156.119 161.336
L156.812 160.277
L157.614 159.033
L158.308 157.941
L158.888 157.018
L159.468 156.084
L159.843 155.475
L160.697 154.073
L161.548 152.655
L161.774 152.274
L162.553 150.949
L163.38 149.526
L164.029 148.393
L164.578 147.426
L165.411 145.941
L166.071 144.75
L167.038 142.98
L168.028 141.139
L168.243 140.736
L169.353 138.63
L169.514 138.322
L170.16 137.077
L170.806 135.819
L171.019 135.401
L171.754 133.95
L172.275 132.912
L173.395 130.653
L173.698 130.036
L174.64 128.096
L175.736 125.81
L176.299 124.619
L176.938 123.259
L177.458 122.142
L178.212 120.509
L178.722 119.394
L179.341 118.032
L179.959 116.658
L180.642 115.129
L180.744 114.899
L181.865 112.355
L182.291 111.377
L182.918 109.931
L183.908 107.619
L184.745 105.644
L185.257 104.426
L186.015 102.607
L186.757 100.81
L187.682 98.5476
L188.07 97.5903
L189.036 95.1878
L189.167 94.8597
L189.902 93.0097
L190.708 90.9635
L191.733 88.333
L192.081 87.4335
L192.907 85.2816
L193.986 82.442
L194.781 80.3283
L195.223 79.1438
L195.771 77.6674
L196.325 76.1647
L196.948 74.467
L197.57 72.7578
L198.253 70.8696
L198.662 69.7301
z
" style="fill:#800080;opacity:0.5;"/>
   </g>
   <g id="line2d_1">
    <path clip-path="url(#pfbe49a6bba)" d="
M93.5914 232.491
L245.36 232.491
L245.36 232.491" style="fill:none;"/>
   </g>
   <g id="line2d_2">
    <path clip-path="url(#pfbe49a6bba)" d="
M11.8698 69.7301
L16.2947 81.7758
L20.5991 92.9327
L25.1573 104.144
L29.8145 114.959
L33.6925 123.47
L37.717 131.827
L41.7717 139.759
L45.3635 146.375
L49.0273 152.727
L53.3416 159.693
L56.4591 164.38
L60.5729 170.122
L64.092 174.633
L67.7976 178.983
L71.3316 182.749
L74.8134 186.096
L78.0509 188.883
L81.2461 191.327
L83.8459 193.09
L86.9311 194.921
L90.2939 196.593
L93.256 197.786
L95.8865 198.626
L98.8167 199.318
L101.682 199.747
L104.086 199.918
L106.947 199.897
L110.195 199.576
L113.472 198.934
L115.956 198.233
L118.908 197.161
L121.833 195.842
L125.161 194.031
L128.547 191.848
L131.516 189.653
L135.079 186.671
L137.88 184.061
L140.968 180.912
L144.197 177.314
L146.946 174.007
L151.067 168.626
L154.92 163.135
L158.97 156.887
L162.743 150.624
L166.291 144.348
L170.264 136.875
L174.518 128.35
L178.993 118.798
L182.615 110.631
L187.469 99.0692
L192.569 86.1656
L197.688 72.4321
L202.324 59.3195
L207.695 43.3268
L212.544 28.1467
L217.103 13.2341
L221.288 -1
L221.288 -1" style="fill:none;stroke:#ff0000;stroke-linecap:square;stroke-width:2.0;"/>
   </g>
   <g id="line2d_3">
    <path clip-path="url(#pfbe49a6bba)" d="
M58.5679 167.387
L61.9755 171.964
L65.2233 176.004
L68.6532 179.929
L71.8863 183.307
L75.3283 186.56
L78.3176 189.098
L81.5504 191.543
L84.9718 193.791
L88.133 195.557
L90.6549 196.752
L93.5536 197.891
L96.0007 198.657
L98.6822 199.292
L101.531 199.731
L103.99 199.915
L106.917 199.898
L109.58 199.661
L111.751 199.311
L114.548 198.653
L117.662 197.645
L120.729 196.37
L123.136 195.172
L126.139 193.435
L129.259 191.346
L132.011 189.262
L134.924 186.809
L138.242 183.706
L141.325 180.53
L144.331 177.159
L147.742 173.007
L151.196 168.449
L154.57 163.653
L158.308 157.941
L161.774 152.274
L165.411 145.941
L169.514 138.322
L173.698 130.036
L178.212 120.509
L182.291 111.377
L186.757 100.81
L190.708 90.9635
L195.771 77.6674
L198.662 69.7301
L198.662 69.7301" style="fill:none;stroke:#ff0000;stroke-linecap:square;stroke-width:2.0;"/>
   </g>
   <g id="line2d_4">
    <path clip-path="url(#pfbe49a6bba)" d="
M40.2668 277.801
L245.36 134.835
L245.36 134.835" style="fill:none;stroke:#0000ff;stroke-linecap:square;stroke-width:2.0;"/>
   </g>
   <g id="matplotlib.axis_1">
    <g id="xtick_1">
     <g id="line2d_5">
      <defs>
       <path d="
M0 0
L0 -4" id="m93b0483c22" style="stroke:#000000;stroke-width:0.5;"/>
      </defs>
      <g>
       <use style="stroke:#000000;stroke-width:0.5;" x="58.5678846154" xlink:href="#m93b0483c22" y="232.491119505"/>
      </g>
     </g>
     <g id="text_1">
      <!-- -1 -->
      <defs>
       <path d="
M12.4062 8.29688
L28.5156 8.29688
L28.5156 63.9219
L10.9844 60.4062
L10.9844 69.3906
L28.4219 72.9062
L38.2812 72.9062
L38.2812 8.29688
L54.3906 8.29688
L54.3906 0
L12.4062 0
z
" id="BitstreamVeraSans-Roman-31"/>
       <path d="
M4.89062 31.3906
L31.2031 31.3906
L31.2031 23.3906
L4.89062 23.3906
z
" id="BitstreamVeraSans-Roman-2d"/>
      </defs>
      <g transform="translate(50.8658533654 250.168307005)scale(0.18 -0.18)">
       <use xlink:href="#BitstreamVeraSans-Roman-2d"/>
       <use x="36.083984375" xlink:href="#BitstreamVeraSans-Roman-31"/>
      </g>
     </g>
    </g>
    <g id="xtick_2">
     <g id="line2d_6">
      <g>
       <use style="stroke:#000000;stroke-width:0.5;" x="105.265961538" xlink:href="#m93b0483c22" y="232.491119505"/>
      </g>
     </g>
    </g>
    <g id="xtick_3">
     <g id="line2d_7">
      <g>
       <use style="stroke:#000000;stroke-width:0.5;" x="151.964038462" xlink:href="#m93b0483c22" y="232.491119505"/>
      </g>
     </g>
     <g id="text_2">
      <!-- 1 -->
      <g transform="translate(148.057475962 250.168307005)scale(0.18 -0.18)">
       <use xlink:href="#BitstreamVeraSans-Roman-31"/>
      </g>
     </g>
    </g>
    <g id="xtick_4">
     <g id="line2d_8">
      <g>
       <use style="stroke:#000000;stroke-width:0.5;" x="198.662115385" xlink:href="#m93b0483c22" y="232.491119505"/>
      </g>
     </g>
     <g id="text_3">
      <!-- 2 -->
      <defs>
       <path d="
M19.1875 8.29688
L53.6094 8.29688
L53.6094 0
L7.32812 0
L7.32812 8.29688
Q12.9375 14.1094 22.625 23.8906
Q32.3281 33.6875 34.8125 36.5312
Q39.5469 41.8438 41.4219 45.5312
Q43.3125 49.2188 43.3125 52.7812
Q43.3125 58.5938 39.2344 62.25
Q35.1562 65.9219 28.6094 65.9219
Q23.9688 65.9219 18.8125 64.3125
Q13.6719 62.7031 7.8125 59.4219
L7.8125 69.3906
Q13.7656 71.7812 18.9375 73
Q24.125 74.2188 28.4219 74.2188
Q39.75 74.2188 46.4844 68.5469
Q53.2188 62.8906 53.2188 53.4219
Q53.2188 48.9219 51.5312 44.8906
Q49.8594 40.875 45.4062 35.4062
Q44.1875 33.9844 37.6406 27.2188
Q31.1094 20.4531 19.1875 8.29688" id="BitstreamVeraSans-Roman-32"/>
      </defs>
      <g transform="translate(194.496802885 250.168307005)scale(0.18 -0.18)">
       <use xlink:href="#BitstreamVeraSans-Roman-32"/>
      </g>
     </g>
    </g>
    <g id="text_4">
     <!-- $x$ -->
     <defs>
      <path d="
M7.8125 2.875
Q9.57812 1.51562 12.7969 1.51562
Q15.9219 1.51562 18.3125 4.51562
Q20.7031 7.51562 21.5781 11.0781
L26.125 28.8125
Q27.2031 33.6406 27.2031 35.4062
Q27.2031 37.8906 25.8125 39.75
Q24.4219 41.6094 21.9219 41.6094
Q18.75 41.6094 15.9688 39.625
Q13.1875 37.6406 11.2812 34.5938
Q9.375 31.5469 8.59375 28.4219
Q8.40625 27.7812 7.8125 27.7812
L6.59375 27.7812
Q5.8125 27.7812 5.8125 28.7188
L5.8125 29
Q6.78125 32.7188 9.125 36.25
Q11.4688 39.7969 14.8594 41.9844
Q18.2656 44.1875 22.125 44.1875
Q25.7812 44.1875 28.7344 42.2344
Q31.6875 40.2812 32.9062 36.9219
Q34.625 39.9844 37.2812 42.0781
Q39.9375 44.1875 43.1094 44.1875
Q45.2656 44.1875 47.5 43.4219
Q49.75 42.6719 51.1719 41.1094
Q52.5938 39.5469 52.5938 37.2031
Q52.5938 34.6719 50.9531 32.8281
Q49.3125 31 46.7812 31
Q45.1719 31 44.0938 32.0312
Q43.0156 33.0625 43.0156 34.625
Q43.0156 36.7188 44.4531 38.2969
Q45.9062 39.8906 47.9062 40.1875
Q46.0938 41.6094 42.9219 41.6094
Q39.7031 41.6094 37.3281 38.625
Q34.9688 35.6406 33.9844 31.9844
L29.5938 14.3125
Q28.5156 10.2969 28.5156 7.71875
Q28.5156 5.17188 29.9531 3.34375
Q31.3906 1.51562 33.7969 1.51562
Q38.4844 1.51562 42.1562 5.64062
Q45.8438 9.76562 47.0156 14.7031
Q47.2188 15.2812 47.7969 15.2812
L49.0312 15.2812
Q49.4219 15.2812 49.6562 15.0156
Q49.9062 14.75 49.9062 14.4062
Q49.9062 14.3125 49.8125 14.1094
Q48.3906 8.15625 43.8438 3.51562
Q39.3125 -1.125 33.5938 -1.125
Q29.9375 -1.125 26.9844 0.84375
Q24.0312 2.82812 22.7969 6.20312
Q21.2344 3.26562 18.4688 1.0625
Q15.7188 -1.125 12.5938 -1.125
Q10.4531 -1.125 8.17188 -0.359375
Q5.90625 0.390625 4.48438 1.95312
Q3.07812 3.51562 3.07812 5.90625
Q3.07812 8.25 4.70312 10.1719
Q6.34375 12.1094 8.79688 12.1094
Q10.4531 12.1094 11.5781 11.1094
Q12.7031 10.1094 12.7031 8.5
Q12.7031 6.39062 11.2969 4.82812
Q9.90625 3.26562 7.8125 2.875" id="Cmmi10-78"/>
     </defs>
     <g transform="translate(258.03 232.491119505)scale(0.18 -0.18)">
      <use transform="translate(0.0 0.8125)" xlink:href="#Cmmi10-78"/>
     </g>
    </g>
   </g>
   <g id="matplotlib.axis_2">
    <g id="ytick_1">
     <g id="line2d_9">
      <defs>
       <path d="
M0 0
L4 0" id="m728421d6d4" style="stroke:#000000;stroke-width:0.5;"/>
      </defs>
      <g>
       <use style="stroke:#000000;stroke-width:0.5;" x="105.265961538" xlink:href="#m728421d6d4" y="167.386723901"/>
      </g>
     </g>
     <g id="text_5">
      <!-- 2 -->
      <g transform="translate(92.9353365385 172.353598901)scale(0.18 -0.18)">
       <use xlink:href="#BitstreamVeraSans-Roman-32"/>
      </g>
     </g>
    </g>
    <g id="ytick_2">
     <g id="line2d_10">
      <g>
       <use style="stroke:#000000;stroke-width:0.5;" x="105.265961538" xlink:href="#m728421d6d4" y="102.282328297"/>
      </g>
     </g>
     <g id="text_6">
      <!-- 4 -->
      <defs>
       <path d="
M37.7969 64.3125
L12.8906 25.3906
L37.7969 25.3906
z

M35.2031 72.9062
L47.6094 72.9062
L47.6094 25.3906
L58.0156 25.3906
L58.0156 17.1875
L47.6094 17.1875
L47.6094 0
L37.7969 0
L37.7969 17.1875
L4.89062 17.1875
L4.89062 26.7031
z
" id="BitstreamVeraSans-Roman-34"/>
      </defs>
      <g transform="translate(91.7034615385 107.249203297)scale(0.18 -0.18)">
       <use xlink:href="#BitstreamVeraSans-Roman-34"/>
      </g>
     </g>
    </g>
    <g id="ytick_3">
     <g id="line2d_11">
      <g>
       <use style="stroke:#000000;stroke-width:0.5;" x="105.265961538" xlink:href="#m728421d6d4" y="37.1779326923"/>
      </g>
     </g>
     <g id="text_7">
      <!-- 6 -->
      <defs>
       <path d="
M33.0156 40.375
Q26.375 40.375 22.4844 35.8281
Q18.6094 31.2969 18.6094 23.3906
Q18.6094 15.5312 22.4844 10.9531
Q26.375 6.39062 33.0156 6.39062
Q39.6562 6.39062 43.5312 10.9531
Q47.4062 15.5312 47.4062 23.3906
Q47.4062 31.2969 43.5312 35.8281
Q39.6562 40.375 33.0156 40.375
M52.5938 71.2969
L52.5938 62.3125
Q48.875 64.0625 45.0938 64.9844
Q41.3125 65.9219 37.5938 65.9219
Q27.8281 65.9219 22.6719 59.3281
Q17.5312 52.7344 16.7969 39.4062
Q19.6719 43.6562 24.0156 45.9219
Q28.375 48.1875 33.5938 48.1875
Q44.5781 48.1875 50.9531 41.5156
Q57.3281 34.8594 57.3281 23.3906
Q57.3281 12.1562 50.6875 5.35938
Q44.0469 -1.42188 33.0156 -1.42188
Q20.3594 -1.42188 13.6719 8.26562
Q6.98438 17.9688 6.98438 36.375
Q6.98438 53.6562 15.1875 63.9375
Q23.3906 74.2188 37.2031 74.2188
Q40.9219 74.2188 44.7031 73.4844
Q48.4844 72.75 52.5938 71.2969" id="BitstreamVeraSans-Roman-36"/>
      </defs>
      <g transform="translate(92.2040865385 42.1448076923)scale(0.18 -0.18)">
       <use xlink:href="#BitstreamVeraSans-Roman-36"/>
      </g>
     </g>
    </g>
    <g id="text_8">
     <!-- $y$ -->
     <defs>
      <path d="
M8.40625 -14.3125
Q10.5 -17.9219 15.7188 -17.9219
Q20.4531 -17.9219 23.9219 -14.5938
Q27.3906 -11.2812 29.5156 -6.5625
Q31.6406 -1.85938 32.8125 3.07812
Q28.375 -1.125 23.1875 -1.125
Q19.2344 -1.125 16.4531 0.234375
Q13.6719 1.60938 12.125 4.3125
Q10.5938 7.03125 10.5938 10.8906
Q10.5938 14.1562 11.4688 17.5938
Q12.3594 21.0469 13.9375 25.2656
Q15.5312 29.5 16.7031 32.625
Q18.0156 36.2812 18.0156 38.625
Q18.0156 41.6094 15.8281 41.6094
Q11.8594 41.6094 9.29688 37.5312
Q6.73438 33.4531 5.51562 28.4219
Q5.32812 27.7812 4.6875 27.7812
L3.51562 27.7812
Q2.6875 27.7812 2.6875 28.7188
L2.6875 29
Q4.29688 34.9688 7.60938 39.5781
Q10.9375 44.1875 16.0156 44.1875
Q19.5781 44.1875 22.0469 41.8438
Q24.5156 39.5 24.5156 35.8906
Q24.5156 34.0312 23.6875 31.9844
Q23.25 30.7656 21.6875 26.6562
Q20.125 22.5625 19.2812 19.875
Q18.4531 17.1875 17.9219 14.5938
Q17.3906 12.0156 17.3906 9.42188
Q17.3906 6.10938 18.7969 3.8125
Q20.2188 1.51562 23.2969 1.51562
Q29.5 1.51562 34.4219 9.07812
L42 39.8906
Q42.3281 41.2188 43.5469 42.1562
Q44.7812 43.1094 46.1875 43.1094
Q47.4062 43.1094 48.3125 42.3281
Q49.2188 41.5469 49.2188 40.2812
Q49.2188 39.7031 49.125 39.5
L39.2031 -0.296875
Q37.8906 -5.42188 34.375 -10.1094
Q30.8594 -14.7969 25.9062 -17.6562
Q20.9531 -20.5156 15.5781 -20.5156
Q12.9844 -20.5156 10.4375 -19.5
Q7.90625 -18.5 6.34375 -16.5
Q4.78125 -14.5 4.78125 -11.8125
Q4.78125 -9.07812 6.39062 -7.07812
Q8.01562 -5.07812 10.6875 -5.07812
Q12.3125 -5.07812 13.4062 -6.07812
Q14.5 -7.07812 14.5 -8.6875
Q14.5 -10.9844 12.7812 -12.6875
Q11.0781 -14.4062 8.79688 -14.4062
Q8.6875 -14.3594 8.59375 -14.3281
Q8.5 -14.3125 8.40625 -14.3125" id="Cmmi10-79"/>
     </defs>
     <g transform="translate(100.765961538 20.840625)scale(0.18 -0.18)">
      <use transform="translate(0.0 0.8125)" xlink:href="#Cmmi10-79"/>
     </g>
    </g>
   </g>
   <g id="patch_4">
    <path d="
M7.2 232.491
L250.03 232.491" style="fill:none;stroke:#000000;stroke-width:0.8;"/>
   </g>
   <g id="patch_5">
    <path d="
M105.266 269.601
L105.266 32.6206" style="fill:none;stroke:#000000;stroke-width:0.8;"/>
   </g>
   <g id="text_9">
    <!-- $y=x^2+1$ -->
    <defs>
     <path d="
M4.98438 0
L4.98438 2.6875
Q4.98438 2.9375 5.17188 3.21875
L20.7031 20.4062
Q24.2188 24.2188 26.4062 26.7969
Q28.6094 29.3906 30.75 32.7656
Q32.9062 36.1406 34.1562 39.625
Q35.4062 43.1094 35.4062 47.0156
Q35.4062 51.125 33.8906 54.8594
Q32.375 58.5938 29.375 60.8438
Q26.375 63.0938 22.125 63.0938
Q17.7812 63.0938 14.3125 60.4688
Q10.8438 57.8594 9.42188 53.7188
Q9.8125 53.8125 10.5 53.8125
Q12.75 53.8125 14.3281 52.2969
Q15.9219 50.7812 15.9219 48.3906
Q15.9219 46.0938 14.3281 44.5
Q12.75 42.9219 10.5 42.9219
Q8.15625 42.9219 6.5625 44.5469
Q4.98438 46.1875 4.98438 48.3906
Q4.98438 52.1562 6.39062 55.4375
Q7.8125 58.7344 10.4688 61.2969
Q13.1406 63.875 16.4844 65.2344
Q19.8281 66.6094 23.5781 66.6094
Q29.2969 66.6094 34.2188 64.1875
Q39.1562 61.7656 42.0312 57.3438
Q44.9219 52.9375 44.9219 47.0156
Q44.9219 42.6719 43.0156 38.7656
Q41.1094 34.8594 38.125 31.6562
Q35.1562 28.4688 30.5156 24.4062
Q25.875 20.3594 24.4219 19
L13.0938 8.10938
L22.7031 8.10938
Q29.7812 8.10938 34.5469 8.21875
Q39.3125 8.34375 39.5938 8.59375
Q40.7656 9.85938 42 17.8281
L44.9219 17.8281
L42.0938 0
z
" id="Cmr10-32"/>
     <path d="
M7.51562 23
Q6.6875 23 6.14062 23.625
Q5.60938 24.2656 5.60938 25
Q5.60938 25.7344 6.14062 26.3594
Q6.6875 27 7.51562 27
L36.9219 27
L36.9219 56.5
Q36.9219 57.2812 37.5 57.7812
Q38.0938 58.2969 38.9219 58.2969
Q39.6562 58.2969 40.2812 57.7812
Q40.9219 57.2812 40.9219 56.5
L40.9219 27
L70.3125 27
Q71.0469 27 71.5781 26.3594
Q72.125 25.7344 72.125 25
Q72.125 24.2656 71.5781 23.625
Q71.0469 23 70.3125 23
L40.9219 23
L40.9219 -6.5
Q40.9219 -7.28125 40.2812 -7.78125
Q39.6562 -8.29688 38.9219 -8.29688
Q38.0938 -8.29688 37.5 -7.78125
Q36.9219 -7.28125 36.9219 -6.5
L36.9219 23
z
" id="Cmr10-2b"/>
     <path d="
M9.28125 0
L9.28125 3.51562
Q21.7812 3.51562 21.7812 6.6875
L21.7812 59.1875
Q16.6094 56.6875 8.6875 56.6875
L8.6875 60.2031
Q20.9531 60.2031 27.2031 66.6094
L28.6094 66.6094
Q28.9531 66.6094 29.2656 66.3281
Q29.5938 66.0625 29.5938 65.7188
L29.5938 6.6875
Q29.5938 3.51562 42.0938 3.51562
L42.0938 0
z
" id="Cmr10-31"/>
     <path d="
M7.51562 13.2812
Q6.6875 13.2812 6.14062 13.9062
Q5.60938 14.5469 5.60938 15.2812
Q5.60938 16.1094 6.14062 16.6875
Q6.6875 17.2812 7.51562 17.2812
L70.3125 17.2812
Q71.0469 17.2812 71.5781 16.6875
Q72.125 16.1094 72.125 15.2812
Q72.125 14.5469 71.5781 13.9062
Q71.0469 13.2812 70.3125 13.2812
z

M7.51562 32.7188
Q6.6875 32.7188 6.14062 33.2969
Q5.60938 33.8906 5.60938 34.7188
Q5.60938 35.4531 6.14062 36.0781
Q6.6875 36.7188 7.51562 36.7188
L70.3125 36.7188
Q71.0469 36.7188 71.5781 36.0781
Q72.125 35.4531 72.125 34.7188
Q72.125 33.8906 71.5781 33.2969
Q71.0469 32.7188 70.3125 32.7188
z
" id="Cmr10-3d"/>
    </defs>
    <g transform="translate(113.534038462 75.9401304945)scale(0.18 -0.18)">
     <use transform="translate(0.0 0.8578125)" xlink:href="#Cmmi10-79"/>
     <use transform="translate(66.58203125 0.8578125)" xlink:href="#Cmr10-3d"/>
     <use transform="translate(150.640625 0.8578125)" xlink:href="#Cmmi10-78"/>
     <use transform="translate(207.720703125 43.3734375)scale(0.7)" xlink:href="#Cmr10-32"/>
     <use transform="translate(292.285546875 0.8578125)" xlink:href="#Cmr10-2b"/>
     <use transform="translate(376.344140625 0.8578125)" xlink:href="#Cmr10-31"/>
    </g>
   </g>
   <g id="text_10">
    <!-- $y=x$ -->
    <g transform="translate(156.593076923 213.007283654)scale(0.18 -0.18)">
     <use transform="translate(0.0 0.8125)" xlink:href="#Cmmi10-79"/>
     <use transform="translate(66.58203125 0.8125)" xlink:href="#Cmr10-3d"/>
     <use transform="translate(150.640625 0.8125)" xlink:href="#Cmmi10-78"/>
    </g>
   </g>
  </g>
 </g>
 <defs>
  <clipPath id="pfbe49a6bba">
   <rect height="236.98" width="242.83" x="7.2" y="32.620625"/>
  </clipPath>
 </defs>
</svg>
