<?xml version="1.0" encoding="utf-8" standalone="no"?>
<!DOCTYPE svg PUBLIC "-//W3C//DTD SVG 1.1//EN"
  "http://www.w3.org/Graphics/SVG/1.1/DTD/svg11.dtd">
<!-- Created with matplotlib (http://matplotlib.org/) -->
<svg height="276pt" version="1.1" viewBox="0 0 419 276" width="419pt" xmlns="http://www.w3.org/2000/svg" xmlns:xlink="http://www.w3.org/1999/xlink">
 <defs>
  <style type="text/css">
*{stroke-linecap:butt;stroke-linejoin:round;}
  </style>
 </defs>
 <g id="figure_1">
  <g id="patch_1">
   <path d="
M0 276.801
L419.67 276.801
L419.67 0
L0 0
z
" style="fill:#ffffff;"/>
  </g>
  <g id="axes_1">
   <g id="patch_2">
    <path d="
M7.2 269.601
L394.03 269.601
L394.03 32.6206
L7.2 32.6206
z
" style="fill:#ffffff;"/>
   </g>
   <g id="patch_3">
    <path clip-path="url(#pbf35efca70)" d="
M349.396 82.751
L347.986 82.9672
L347.285 83.0748
L346.326 83.2224
L345.239 83.3898
L343.388 83.6759
L343.221 83.7016
L341.041 84.0397
L340.927 84.0573
L339.517 84.2767
L338.378 84.4543
L336.826 84.6969
L335.698 84.8736
L334.962 84.9891
L333.345 85.2433
L332.645 85.3536
L331.171 85.5863
L329.808 85.802
L328.787 85.964
L328.257 86.0481
L327.454 86.1758
L325.769 86.4444
L324.189 86.6969
L323.044 86.8804
L322.017 87.0454
L321.325 87.1567
L320.324 87.3179
L318.919 87.5447
L318.412 87.6267
L316.75 87.8961
L316.259 87.9759
L314.91 88.1952
L313.174 88.4785
L312.946 88.5158
L311.637 88.7301
L310.553 88.908
L308.662 89.2192
L308.014 89.326
L307.092 89.4783
L305.838 89.6859
L304.323 89.9375
L302.935 90.1685
L302.716 90.205
L300.856 90.5159
L299.591 90.728
L298.496 90.9119
L298.162 90.968
L296.624 91.2274
L295.416 91.4317
L294.957 91.5094
L293.634 91.7339
L292.534 91.9209
L291.146 92.1576
L289.464 92.4454
L289.003 92.5244
L288.276 92.6493
L287.007 92.8676
L285.121 93.1932
L284.086 93.3724
L283.325 93.5044
L282.426 93.6606
L281.466 93.8279
L279.881 94.1047
L279.286 94.2089
L278.023 94.4305
L276.001 94.7864
L275.265 94.9164
L273.757 95.1833
L273.532 95.2233
L272.424 95.4201
L270.546 95.7549
L269.286 95.9804
L268.315 96.1544
L267.432 96.3131
L266.116 96.5503
L265.004 96.7513
L264.144 96.907
L263.321 97.0565
L262.414 97.2214
L260.444 97.5808
L259.969 97.6677
L258.252 97.9828
L257.188 98.1787
L255.923 98.4124
L255.707 98.4523
L254.393 98.6959
L252.752 99.0012
L251.552 99.2251
L250.644 99.395
L249.889 99.5366
L248.321 99.8316
L246.806 100.118
L246.605 100.156
L245.659 100.335
L244.217 100.609
L242.616 100.915
L241.748 101.081
L240.456 101.329
L239.245 101.562
L238.426 101.721
L237.604 101.88
L236.416 102.11
L235.225 102.342
L233.802 102.621
L233.273 102.724
L232.174 102.94
L231.022 103.167
L229.741 103.42
L227.795 103.807
L227.51 103.864
L225.963 104.173
L225.427 104.28
L223.98 104.571
L223.13 104.742
L221.203 105.132
L220.723 105.23
L219.452 105.489
L218.454 105.693
L217.066 105.977
L215.641 106.271
L214.58 106.49
L213.865 106.639
L212.893 106.841
L211.853 107.057
L209.919 107.462
L209.085 107.638
L207.713 107.928
L206.552 108.174
L206.281 108.231
L204.756 108.556
L203.6 108.804
L203.04 108.924
L201.215 109.317
L200.364 109.501
L198.925 109.814
L197.976 110.021
L196.381 110.371
L195.676 110.526
L194.512 110.783
L193.032 111.111
L192.914 111.137
L190.727 111.626
L189.966 111.796
L188.546 112.117
L188.188 112.197
L187.114 112.441
L185.665 112.771
L184.664 113
L183.389 113.293
L181.834 113.652
L181.49 113.732
L179.603 114.171
L179.363 114.227
L178.323 114.471
L177.195 114.737
L175.399 115.162
L173.962 115.505
L172.924 115.753
L172.15 115.94
L170.907 116.24
L169.712 116.53
L168.706 116.775
L167.721 117.016
L166.907 117.216
L165.151 117.651
L164.68 117.768
L162.86 118.222
L162.316 118.358
L160.991 118.693
L159.31 119.119
L158.413 119.348
L157.459 119.593
L156.111 119.941
L155.326 120.144
L154.648 120.321
L153.439 120.637
L151.615 121.117
L150.674 121.366
L149.266 121.742
L148.642 121.909
L148.055 122.067
L146.178 122.575
L144.827 122.944
L144.628 122.998
L142.803 123.501
L142.212 123.665
L141 124.003
L140.142 124.244
L138.761 124.633
L137.603 124.963
L136.28 125.341
L135.463 125.577
L134.155 125.956
L132.72 126.376
L131.591 126.709
L130.458 127.045
L129.998 127.183
L128.046 127.769
L127.575 127.912
L126.225 128.324
L126.225 219.47
L126.878 219.07
L128.24 218.235
L129.811 217.273
L130.28 216.986
L132.3 215.748
L132.725 215.488
L133.838 214.806
L135.166 213.993
L136.613 213.106
L137.911 212.311
L138.727 211.811
L139.724 211.2
L140.751 210.571
L142.405 209.558
L143.57 208.844
L144.233 208.438
L145.622 207.587
L146.449 207.081
L147.895 206.194
L148.452 205.853
L149.293 205.338
L150.958 204.318
L152.119 203.607
L153.626 202.683
L153.922 202.503
L155.02 201.83
L156.888 200.685
L157.116 200.545
L158.581 199.648
L159.851 198.87
L161.05 198.135
L162.256 197.396
L162.944 196.975
L164.884 195.787
L164.949 195.747
L166.228 194.963
L167.375 194.261
L169.244 193.116
L169.639 192.874
L171.239 191.893
L171.801 191.549
L173.808 190.32
L173.901 190.263
L175.286 189.414
L176.218 188.844
L177.9 187.813
L178.975 187.154
L179.726 186.694
L181.027 185.897
L181.971 185.319
L183.475 184.397
L184.869 183.544
L185.909 182.906
L186.54 182.52
L188.069 181.583
L189.25 180.859
L189.721 180.571
L191.726 179.343
L192.743 178.72
L193.387 178.325
L195.064 177.298
L196.254 176.569
L197.36 175.891
L197.967 175.519
L199.372 174.658
L199.755 174.424
L201.626 173.278
L202.774 172.574
L204.161 171.725
L204.643 171.43
L205.507 170.9
L207.121 169.911
L208.029 169.355
L209.527 168.437
L210.034 168.127
L211.266 167.372
L212.051 166.892
L213.233 166.167
L214.76 165.232
L215.734 164.635
L216.657 164.07
L217.778 163.383
L219.411 162.382
L220.228 161.882
L221.335 161.204
L222.621 160.416
L223.673 159.771
L225.138 158.874
L225.624 158.576
L226.915 157.785
L228.22 156.985
L229.591 156.146
L230.627 155.511
L231.893 154.736
L232.31 154.48
L234.359 153.225
L235.174 152.725
L235.857 152.307
L237.742 151.152
L238.773 150.521
L239.095 150.323
L240.576 149.416
L241.256 149
L242.582 148.187
L244.297 147.137
L244.606 146.948
L246.781 145.615
L247.221 145.345
L248.204 144.743
L249.779 143.778
L250.867 143.111
L251.822 142.527
L252.596 142.053
L254.562 140.848
L255.561 140.236
L255.855 140.056
L257.44 139.085
L258.76 138.277
L259.321 137.933
L261.196 136.784
L262.292 136.113
L262.798 135.803
L264.467 134.78
L265.319 134.258
L266.798 133.352
L267.542 132.896
L268.287 132.44
L269.911 131.445
L271.009 130.772
L272.517 129.849
L273.694 129.127
L274.043 128.914
L275.664 127.921
L277.042 127.076
L277.861 126.575
L278.593 126.126
L280.109 125.198
L281.157 124.555
L282.379 123.807
L283.726 122.982
L284.137 122.73
L284.933 122.242
L286.567 121.241
L287.666 120.568
L288.358 120.144
L289.446 119.477
L291.456 118.246
L292.52 117.594
L293.88 116.761
L294.941 116.111
L295.486 115.778
L297.116 114.779
L297.851 114.328
L299.254 113.469
L299.668 113.215
L300.753 112.55
L302.706 111.354
L303.484 110.877
L305.054 109.915
L305.89 109.404
L307.113 108.654
L307.525 108.402
L309.417 107.243
L309.77 107.027
L311.237 106.128
L312.728 105.215
L313.157 104.952
L314.486 104.137
L315.866 103.292
L316.685 102.79
L318.473 101.695
L319.297 101.19
L320.189 100.644
L321.442 99.8761
L322.916 98.9732
L323.936 98.3479
L324.679 97.8932
L326.248 96.932
L326.834 96.5728
L328.244 95.7091
L329.24 95.099
L330.846 94.1148
L331.383 93.7861
L332.566 93.0611
L333.385 92.5594
L334.764 91.7149
L335.934 90.9979
L336.84 90.4427
L337.668 89.9354
L339.192 89.0023
L340.937 87.9331
L341.149 87.8034
L342.759 86.8166
L343.906 86.1139
L344.561 85.7132
L346.431 84.5675
L347.369 83.9929
L348.185 83.4925
z
" style="fill:#800080;opacity:0.5;"/>
   </g>
   <g id="patch_4">
    <path clip-path="url(#pbf35efca70)" d="
M126.225 128.324
L125.786 128.459
L125.415 128.573
L124.924 128.724
L124.583 128.83
L124.336 128.906
L123.917 129.037
L123.542 129.153
L123.177 129.267
L122.919 129.348
L122.452 129.495
L121.951 129.653
L121.676 129.739
L121.401 129.826
L121.051 129.937
L120.589 130.084
L120.326 130.168
L120.017 130.267
L119.475 130.441
L119.219 130.523
L118.584 130.728
L118.306 130.818
L118.027 130.908
L117.564 131.059
L117.276 131.153
L116.844 131.294
L116.479 131.414
L116.038 131.559
L115.762 131.65
L115.372 131.779
L115.077 131.877
L114.54 132.056
L114.113 132.199
L113.924 132.262
L113.373 132.447
L113.133 132.528
L112.855 132.622
L112.3 132.81
L112.011 132.908
L111.824 132.972
L111.191 133.189
L110.94 133.275
L110.39 133.464
L109.972 133.609
L109.621 133.731
L109.44 133.794
L108.907 133.98
L108.652 134.069
L108.137 134.25
L107.851 134.351
L107.552 134.456
L107.238 134.567
L106.815 134.718
L106.444 134.851
L106.112 134.969
L105.648 135.136
L105.115 135.329
L105.025 135.361
L104.699 135.479
L104.348 135.607
L103.837 135.794
L103.562 135.895
L102.875 136.148
L102.817 136.169
L102.293 136.364
L101.78 136.555
L101.696 136.586
L101.029 136.837
L100.687 136.966
L100.248 137.132
L100.164 137.164
L99.6327 137.367
L99.408 137.453
L98.7722 137.697
L98.6207 137.755
L98.2926 137.882
L97.9321 138.022
L97.5142 138.185
L96.9959 138.388
L96.6231 138.535
L96.1673 138.716
L96.1188 138.735
L95.4813 138.989
L95.3 139.062
L94.9935 139.185
L94.3894 139.428
L93.9279 139.616
L93.8778 139.636
L93.4857 139.796
L93.0704 139.967
L92.7332 140.106
L92.374 140.254
L91.6847 140.542
L91.3919 140.664
L90.9402 140.855
L90.6072 140.996
L90.2645 141.141
L89.9325 141.283
L89.6196 141.417
L89.1637 141.614
L88.8977 141.729
L88.5338 141.888
L88.1964 142.035
L87.6213 142.288
L87.2382 142.458
L87.1142 142.513
L86.6144 142.736
L86.3819 142.84
L86.0376 142.995
L85.5794 143.203
L85.0643 143.438
L84.7724 143.572
L84.2122 143.831
L84.1132 143.877
L83.6113 144.112
L83.0685 144.367
L82.7849 144.501
L82.4268 144.672
L82.1401 144.809
L81.7888 144.978
L81.3292 145.201
L81.0811 145.322
L80.7626 145.478
L80.4312 145.641
L79.7995 145.955
L79.4092 146.151
L79.1341 146.289
L78.9055 146.405
L78.5392 146.592
L78.1515 146.791
L77.6781 147.036
L77.4202 147.17
L76.8742 147.457
L76.6586 147.571
L76.0444 147.899
L75.9268 147.962
L75.407 148.243
L75.0121 148.459
L74.5683 148.704
L74.1178 148.955
L74.0669 148.983
L73.3997 149.36
L73.2537 149.443
L72.6121 149.812
L72.4517 149.905
L72.1398 150.087
L71.5312 150.447
L71.1454 150.678
L70.9158 150.816
L70.4763 151.083
L70.1237 151.3
L69.6037 151.624
L69.2189 151.866
L69.1486 151.911
L68.7215 152.184
L68.129 152.568
L67.8155 152.774
L67.6858 152.86
L67.2402 153.158
L66.89 153.395
L66.4894 153.67
L65.9224 154.065
L65.6227 154.277
L65.143 154.621
L64.9973 154.727
L64.6389 154.99
L64.3318 155.218
L63.8061 155.615
L63.4323 155.903
L63.1036 156.159
L62.8373 156.37
L62.2935 156.809
L62.0752 156.988
L61.627 157.362
L61.0826 157.828
L60.7413 158.128
L60.5954 158.257
L60.0526 158.75
L59.5989 159.174
L59.2687 159.49
L58.9224 159.83
L58.5609 160.193
L58.2009 160.565
L57.9122 160.871
L57.645 161.16
L57.3778 161.456
L56.9794 161.912
L56.8136 162.106
L56.5168 162.463
L56.22 162.832
L55.9117 163.228
L55.7327 163.464
L55.5536 163.707
L55.2938 164.069
L55.0339 164.446
L54.8243 164.76
L54.6125 165.09
L54.4007 165.432
L54.2017 165.767
L54.0027 166.116
L53.8882 166.324
L53.7738 166.538
L53.6593 166.759
L53.5448 166.986
L53.3979 167.29
L53.2509 167.608
L53.1685 167.794
L53.0862 167.985
L53.0048 168.18
L52.9233 168.383
L52.8419 168.593
L52.7605 168.812
L52.679 169.041
L52.5976 169.281
L52.5162 169.534
L52.4347 169.803
L52.368 170.037
L52.3013 170.286
L52.2679 170.417
L52.2346 170.554
L52.2012 170.696
L52.1679 170.845
L52.1345 171.002
L52.1011 171.167
L52.0678 171.344
L52.0344 171.533
L52.0177 171.634
L52.001 171.739
L51.9844 171.85
L51.9677 171.967
L51.951 172.092
L51.9343 172.226
L51.9176 172.371
L51.901 172.532
L51.8843 172.715
L51.8676 172.932
L51.8509 173.215
L51.8342 173.897
L51.8342 173.897
L51.8409 174.33
L51.8477 174.509
L51.8544 174.647
L51.8611 174.763
L51.8678 174.865
L51.8745 174.957
L51.8812 175.042
L51.8879 175.121
L51.9013 175.266
L51.9148 175.397
L51.9282 175.517
L51.9416 175.628
L51.955 175.733
L51.9684 175.833
L51.9953 176.018
L52.0221 176.187
L52.049 176.346
L52.0764 176.497
L52.1038 176.641
L52.1313 176.777
L52.1587 176.907
L52.1861 177.032
L52.2136 177.151
L52.2684 177.379
L52.3233 177.592
L52.3782 177.794
L52.4331 177.986
L52.4879 178.169
L52.5635 178.409
L52.6391 178.638
L52.7147 178.855
L52.7903 179.064
L52.8636 179.258
L52.9369 179.446
L53.0102 179.627
L53.0835 179.803
L53.1568 179.974
L53.2301 180.14
L53.3767 180.459
L53.5025 180.722
L53.6284 180.975
L53.7542 181.219
L53.8801 181.455
L53.9614 181.603
L54.1113 181.87
L54.2613 182.129
L54.4112 182.379
L54.5612 182.623
L54.773 182.955
L54.9848 183.276
L55.1845 183.569
L55.3842 183.853
L55.6115 184.166
L55.8221 184.449
L56.0326 184.724
L56.346 185.121
L56.5697 185.395
L56.7933 185.664
L57.1118 186.036
L57.312 186.264
L57.7238 186.72
L58.0375 187.057
L58.3512 187.386
L58.5172 187.557
L58.9114 187.954
L59.2265 188.263
L59.6853 188.702
L60.1739 189.156
L60.3126 189.282
L60.6478 189.584
L60.9829 189.879
L61.1815 190.052
L61.695 190.489
L62.1043 190.83
L62.1829 190.895
L62.6252 191.254
L63.0037 191.556
L63.5724 192
L63.6729 192.077
L64.1489 192.439
L64.3664 192.602
L64.9852 193.059
L65.4202 193.373
L65.5885 193.493
L66.1265 193.873
L66.2975 193.992
L66.7317 194.291
L67.0762 194.526
L67.4616 194.785
L67.7914 195.004
L68.3171 195.349
L68.6765 195.582
L69.1038 195.855
L69.4074 196.047
L69.5975 196.167
L69.9846 196.408
L70.4264 196.68
L70.7258 196.863
L71.1298 197.107
L71.6439 197.415
L71.8662 197.546
L72.3616 197.837
L72.7961 198.089
L73.1531 198.294
L73.6953 198.602
L73.8675 198.699
L74.2062 198.889
L74.6215 199.12
L74.9686 199.312
L75.4718 199.586
L75.676 199.697
L76.0026 199.873
L76.3733 200.072
L76.8045 200.301
L77.2051 200.512
L77.6052 200.721
L77.9351 200.892
L78.5233 201.194
L78.9113 201.392
L78.9619 201.418
L79.4801 201.679
L80.0082 201.943
L80.3292 202.103
L80.5097 202.192
L81.0502 202.457
L81.4905 202.672
L81.7422 202.794
L82.2189 203.023
L82.3646 203.093
L83.0135 203.401
L83.2091 203.494
L83.4563 203.61
L83.8987 203.817
L84.5269 204.109
L84.8297 204.248
L85.017 204.334
L85.3524 204.488
L85.9842 204.775
L86.2376 204.889
L86.6867 205.091
L86.9881 205.225
L87.2449 205.34
L87.7556 205.566
L88.0209 205.682
L88.3844 205.842
L88.9474 206.087
L89.13 206.166
L89.759 206.437
L89.9991 206.54
L90.4597 206.736
L90.6456 206.815
L91.1794 207.04
L91.5994 207.217
L91.9893 207.38
L92.1981 207.467
L92.6393 207.65
L92.9378 207.773
L93.3843 207.956
L93.8794 208.159
L94.1277 208.26
L94.3478 208.349
L94.6721 208.48
L95.1474 208.672
L95.5935 208.85
L96.1192 209.06
L96.4065 209.173
L96.7872 209.324
L97.1399 209.462
L97.5351 209.617
L97.9743 209.788
L98.3298 209.926
L98.7111 210.074
L98.9815 210.178
L99.1235 210.233
L99.5159 210.383
L100.132 210.618
L100.342 210.698
L100.693 210.831
L101.009 210.95
L101.671 211.199
L101.796 211.245
L102.213 211.401
L102.842 211.634
L103.207 211.769
L103.405 211.842
L103.706 211.952
L104.091 212.093
L104.361 212.192
L104.941 212.403
L105.327 212.542
L105.619 212.648
L106.093 212.818
L106.399 212.928
L106.629 213.01
L107.076 213.169
L107.71 213.394
L107.938 213.474
L108.132 213.543
L108.568 213.696
L109.161 213.903
L109.462 214.008
L109.691 214.088
L110.261 214.286
L110.382 214.327
L111.05 214.557
L111.238 214.622
L111.827 214.823
L112.133 214.927
L112.282 214.978
L112.756 215.139
L113.058 215.241
L113.33 215.333
L113.925 215.533
L114.118 215.597
L114.45 215.708
L114.953 215.876
L115.416 216.029
L115.733 216.134
L116.198 216.288
L116.554 216.405
L117.039 216.564
L117.332 216.66
L117.483 216.709
L117.915 216.85
L118.311 216.978
L118.65 217.088
L119.243 217.279
L119.392 217.327
L119.926 217.498
L120.124 217.562
L120.71 217.749
L120.919 217.815
L121.393 217.966
L121.585 218.026
L122.037 218.169
L122.581 218.34
L122.777 218.402
L123.296 218.564
L123.691 218.688
L123.802 218.722
L124.419 218.914
L124.821 219.038
L124.996 219.092
L125.623 219.286
L125.883 219.365
L126.225 219.47
z
" style="fill:#800080;opacity:0.5;"/>
   </g>
   <g id="line2d_1">
    <path clip-path="url(#pbf35efca70)" d="
M14.639 173.897
L386.591 173.897
L386.591 173.897" style="fill:none;"/>
   </g>
   <g id="line2d_2">
    <path clip-path="url(#pbf35efca70)" d="
M51.8342 173.897
L51.896 172.584
L52.0194 171.623
L52.4516 169.745
L53.069 168.026
L54.0704 165.996
L55.3729 163.958
L56.6688 162.279
L58.9172 159.835
L61.3092 157.633
L63.7617 155.649
L67.7137 152.842
L71.0045 150.762
L75.5699 148.155
L79.8105 145.95
L86.547 142.766
L93.3785 139.84
L100.992 136.851
L108.668 134.063
L118.572 130.732
L129.022 127.475
L141.679 123.813
L154.273 120.418
L168.522 116.82
L183.214 113.333
L199.541 109.68
L217.597 105.868
L236.74 102.047
L258.831 97.8766
L280.125 94.0621
L306.166 89.6316
L332.247 85.4164
L362.052 80.8329
L386.591 77.2221
L386.591 77.2221" style="fill:none;stroke:#ff0000;stroke-linecap:square;stroke-width:2.0;"/>
   </g>
   <g id="line2d_3">
    <path clip-path="url(#pbf35efca70)" d="
M51.8342 173.897
L52.0435 176.314
L52.4621 178.084
L53.09 179.818
L53.9482 181.58
L55.2673 183.687
L56.8075 185.681
L58.8326 187.875
L60.5546 189.501
L63.108 191.638
L66.7879 194.33
L70.7154 196.857
L74.4654 199.034
L78.799 201.335
L85.1187 204.381
L89.8988 206.497
L97.5542 209.625
L105.31 212.537
L114.621 215.765
L124.349 218.892
L135.012 222.087
L146.968 225.434
L160.965 229.095
L176.593 232.915
L192.477 236.56
L209.962 240.341
L229.752 244.376
L249.685 248.219
L271.971 252.294
L296.274 256.508
L322.061 260.756
L350.214 265.169
L379.256 269.507
L386.591 270.572
L386.591 270.572" style="fill:none;stroke:#ff0000;stroke-linecap:square;stroke-width:2.0;"/>
   </g>
   <g id="line2d_4">
    <path clip-path="url(#pbf35efca70)" d="
M51.8342 265.043
L386.591 59.9645
L386.591 59.9645" style="fill:none;stroke:#0000ff;stroke-linecap:square;stroke-width:2.0;"/>
   </g>
   <g id="line2d_5">
    <path clip-path="url(#pbf35efca70)" d="
M126.225 219.47
L349.396 82.751
L349.396 82.751" style="fill:none;stroke:#0000ff;stroke-linecap:square;"/>
   </g>
   <g id="line2d_6">
    <path clip-path="url(#pbf35efca70)" d="
M51.8342 173.897
L51.9684 175.833
L52.3233 177.592
L52.9369 179.446
L53.7542 181.219
L54.773 182.955
L56.0326 184.724
L57.7238 186.72
L59.6853 188.702
L62.1829 190.895
L64.9852 193.059
L68.3171 195.349
L72.3616 197.837
L76.8045 200.301
L81.7422 202.794
L87.7556 205.566
L94.3478 208.349
L101.796 211.245
L110.261 214.286
L119.392 217.327
L126.225 219.47
L126.225 219.47" style="fill:none;stroke:#ff0000;stroke-linecap:square;"/>
   </g>
   <g id="matplotlib.axis_1">
    <g id="xtick_1">
     <g id="line2d_7">
      <defs>
       <path d="
M0 0
L0 -4" id="m93b0483c22" style="stroke:#000000;stroke-width:0.5;"/>
      </defs>
      <g>
       <use style="stroke:#000000;stroke-width:0.5;" x="51.8342307692" xlink:href="#m93b0483c22" y="173.897163462"/>
      </g>
     </g>
     <g id="text_1">
      <!-- -1 -->
      <defs>
       <path d="
M12.4062 8.29688
L28.5156 8.29688
L28.5156 63.9219
L10.9844 60.4062
L10.9844 69.3906
L28.4219 72.9062
L38.2812 72.9062
L38.2812 8.29688
L54.3906 8.29688
L54.3906 0
L12.4062 0
z
" id="BitstreamVeraSans-Roman-31"/>
       <path d="
M4.89062 31.3906
L31.2031 31.3906
L31.2031 23.3906
L4.89062 23.3906
z
" id="BitstreamVeraSans-Roman-2d"/>
      </defs>
      <g transform="translate(44.1321995192 191.574350962)scale(0.18 -0.18)">
       <use xlink:href="#BitstreamVeraSans-Roman-2d"/>
       <use x="36.083984375" xlink:href="#BitstreamVeraSans-Roman-31"/>
      </g>
     </g>
    </g>
    <g id="xtick_2">
     <g id="line2d_8">
      <g>
       <use style="stroke:#000000;stroke-width:0.5;" x="126.224615385" xlink:href="#m93b0483c22" y="173.897163462"/>
      </g>
     </g>
    </g>
    <g id="xtick_3">
     <g id="line2d_9">
      <g>
       <use style="stroke:#000000;stroke-width:0.5;" x="200.615" xlink:href="#m93b0483c22" y="173.897163462"/>
      </g>
     </g>
     <g id="text_2">
      <!-- 1 -->
      <g transform="translate(196.7084375 191.574350962)scale(0.18 -0.18)">
       <use xlink:href="#BitstreamVeraSans-Roman-31"/>
      </g>
     </g>
    </g>
    <g id="xtick_4">
     <g id="line2d_10">
      <g>
       <use style="stroke:#000000;stroke-width:0.5;" x="275.005384615" xlink:href="#m93b0483c22" y="173.897163462"/>
      </g>
     </g>
     <g id="text_3">
      <!-- 2 -->
      <defs>
       <path d="
M19.1875 8.29688
L53.6094 8.29688
L53.6094 0
L7.32812 0
L7.32812 8.29688
Q12.9375 14.1094 22.625 23.8906
Q32.3281 33.6875 34.8125 36.5312
Q39.5469 41.8438 41.4219 45.5312
Q43.3125 49.2188 43.3125 52.7812
Q43.3125 58.5938 39.2344 62.25
Q35.1562 65.9219 28.6094 65.9219
Q23.9688 65.9219 18.8125 64.3125
Q13.6719 62.7031 7.8125 59.4219
L7.8125 69.3906
Q13.7656 71.7812 18.9375 73
Q24.125 74.2188 28.4219 74.2188
Q39.75 74.2188 46.4844 68.5469
Q53.2188 62.8906 53.2188 53.4219
Q53.2188 48.9219 51.5312 44.8906
Q49.8594 40.875 45.4062 35.4062
Q44.1875 33.9844 37.6406 27.2188
Q31.1094 20.4531 19.1875 8.29688" id="BitstreamVeraSans-Roman-32"/>
      </defs>
      <g transform="translate(270.840072115 191.574350962)scale(0.18 -0.18)">
       <use xlink:href="#BitstreamVeraSans-Roman-32"/>
      </g>
     </g>
    </g>
    <g id="xtick_5">
     <g id="line2d_11">
      <g>
       <use style="stroke:#000000;stroke-width:0.5;" x="349.395769231" xlink:href="#m93b0483c22" y="173.897163462"/>
      </g>
     </g>
     <g id="text_4">
      <!-- 3 -->
      <defs>
       <path d="
M40.5781 39.3125
Q47.6562 37.7969 51.625 33
Q55.6094 28.2188 55.6094 21.1875
Q55.6094 10.4062 48.1875 4.48438
Q40.7656 -1.42188 27.0938 -1.42188
Q22.5156 -1.42188 17.6562 -0.515625
Q12.7969 0.390625 7.625 2.20312
L7.625 11.7188
Q11.7188 9.32812 16.5938 8.10938
Q21.4844 6.89062 26.8125 6.89062
Q36.0781 6.89062 40.9375 10.5469
Q45.7969 14.2031 45.7969 21.1875
Q45.7969 27.6406 41.2812 31.2656
Q36.7656 34.9062 28.7188 34.9062
L20.2188 34.9062
L20.2188 43.0156
L29.1094 43.0156
Q36.375 43.0156 40.2344 45.9219
Q44.0938 48.8281 44.0938 54.2969
Q44.0938 59.9062 40.1094 62.9062
Q36.1406 65.9219 28.7188 65.9219
Q24.6562 65.9219 20.0156 65.0312
Q15.375 64.1562 9.8125 62.3125
L9.8125 71.0938
Q15.4375 72.6562 20.3438 73.4375
Q25.25 74.2188 29.5938 74.2188
Q40.8281 74.2188 47.3594 69.1094
Q53.9062 64.0156 53.9062 55.3281
Q53.9062 49.2656 50.4375 45.0938
Q46.9688 40.9219 40.5781 39.3125" id="BitstreamVeraSans-Roman-33"/>
      </defs>
      <g transform="translate(345.077175481 191.574350962)scale(0.18 -0.18)">
       <use xlink:href="#BitstreamVeraSans-Roman-33"/>
      </g>
     </g>
    </g>
    <g id="text_5">
     <!-- $x$ -->
     <defs>
      <path d="
M7.8125 2.875
Q9.57812 1.51562 12.7969 1.51562
Q15.9219 1.51562 18.3125 4.51562
Q20.7031 7.51562 21.5781 11.0781
L26.125 28.8125
Q27.2031 33.6406 27.2031 35.4062
Q27.2031 37.8906 25.8125 39.75
Q24.4219 41.6094 21.9219 41.6094
Q18.75 41.6094 15.9688 39.625
Q13.1875 37.6406 11.2812 34.5938
Q9.375 31.5469 8.59375 28.4219
Q8.40625 27.7812 7.8125 27.7812
L6.59375 27.7812
Q5.8125 27.7812 5.8125 28.7188
L5.8125 29
Q6.78125 32.7188 9.125 36.25
Q11.4688 39.7969 14.8594 41.9844
Q18.2656 44.1875 22.125 44.1875
Q25.7812 44.1875 28.7344 42.2344
Q31.6875 40.2812 32.9062 36.9219
Q34.625 39.9844 37.2812 42.0781
Q39.9375 44.1875 43.1094 44.1875
Q45.2656 44.1875 47.5 43.4219
Q49.75 42.6719 51.1719 41.1094
Q52.5938 39.5469 52.5938 37.2031
Q52.5938 34.6719 50.9531 32.8281
Q49.3125 31 46.7812 31
Q45.1719 31 44.0938 32.0312
Q43.0156 33.0625 43.0156 34.625
Q43.0156 36.7188 44.4531 38.2969
Q45.9062 39.8906 47.9062 40.1875
Q46.0938 41.6094 42.9219 41.6094
Q39.7031 41.6094 37.3281 38.625
Q34.9688 35.6406 33.9844 31.9844
L29.5938 14.3125
Q28.5156 10.2969 28.5156 7.71875
Q28.5156 5.17188 29.9531 3.34375
Q31.3906 1.51562 33.7969 1.51562
Q38.4844 1.51562 42.1562 5.64062
Q45.8438 9.76562 47.0156 14.7031
Q47.2188 15.2812 47.7969 15.2812
L49.0312 15.2812
Q49.4219 15.2812 49.6562 15.0156
Q49.9062 14.75 49.9062 14.4062
Q49.9062 14.3125 49.8125 14.1094
Q48.3906 8.15625 43.8438 3.51562
Q39.3125 -1.125 33.5938 -1.125
Q29.9375 -1.125 26.9844 0.84375
Q24.0312 2.82812 22.7969 6.20312
Q21.2344 3.26562 18.4688 1.0625
Q15.7188 -1.125 12.5938 -1.125
Q10.4531 -1.125 8.17188 -0.359375
Q5.90625 0.390625 4.48438 1.95312
Q3.07812 3.51562 3.07812 5.90625
Q3.07812 8.25 4.70312 10.1719
Q6.34375 12.1094 8.79688 12.1094
Q10.4531 12.1094 11.5781 11.1094
Q12.7031 10.1094 12.7031 8.5
Q12.7031 6.39062 11.2969 4.82812
Q9.90625 3.26562 7.8125 2.875" id="Cmmi10-78"/>
     </defs>
     <g transform="translate(402.03 173.897163462)scale(0.18 -0.18)">
      <use transform="translate(0.0 0.8125)" xlink:href="#Cmmi10-78"/>
     </g>
    </g>
   </g>
   <g id="matplotlib.axis_2">
    <g id="ytick_1">
     <g id="line2d_12">
      <defs>
       <path d="
M0 0
L4 0" id="m728421d6d4" style="stroke:#000000;stroke-width:0.5;"/>
      </defs>
      <g>
       <use style="stroke:#000000;stroke-width:0.5;" x="126.224615385" xlink:href="#m728421d6d4" y="219.470240385"/>
      </g>
     </g>
     <g id="text_6">
      <!-- -1 -->
      <g transform="translate(106.820552885 224.437115385)scale(0.18 -0.18)">
       <use xlink:href="#BitstreamVeraSans-Roman-2d"/>
       <use x="36.083984375" xlink:href="#BitstreamVeraSans-Roman-31"/>
      </g>
     </g>
    </g>
    <g id="ytick_2">
     <g id="line2d_13">
      <g>
       <use style="stroke:#000000;stroke-width:0.5;" x="126.224615385" xlink:href="#m728421d6d4" y="173.897163462"/>
      </g>
     </g>
    </g>
    <g id="ytick_3">
     <g id="line2d_14">
      <g>
       <use style="stroke:#000000;stroke-width:0.5;" x="126.224615385" xlink:href="#m728421d6d4" y="128.324086538"/>
      </g>
     </g>
     <g id="text_7">
      <!-- 1 -->
      <g transform="translate(114.411490385 133.290961538)scale(0.18 -0.18)">
       <use xlink:href="#BitstreamVeraSans-Roman-31"/>
      </g>
     </g>
    </g>
    <g id="ytick_4">
     <g id="line2d_15">
      <g>
       <use style="stroke:#000000;stroke-width:0.5;" x="126.224615385" xlink:href="#m728421d6d4" y="82.7510096154"/>
      </g>
     </g>
     <g id="text_8">
      <!-- 2 -->
      <g transform="translate(113.893990385 87.7178846154)scale(0.18 -0.18)">
       <use xlink:href="#BitstreamVeraSans-Roman-32"/>
      </g>
     </g>
    </g>
    <g id="text_9">
     <!-- $y$ -->
     <defs>
      <path d="
M8.40625 -14.3125
Q10.5 -17.9219 15.7188 -17.9219
Q20.4531 -17.9219 23.9219 -14.5938
Q27.3906 -11.2812 29.5156 -6.5625
Q31.6406 -1.85938 32.8125 3.07812
Q28.375 -1.125 23.1875 -1.125
Q19.2344 -1.125 16.4531 0.234375
Q13.6719 1.60938 12.125 4.3125
Q10.5938 7.03125 10.5938 10.8906
Q10.5938 14.1562 11.4688 17.5938
Q12.3594 21.0469 13.9375 25.2656
Q15.5312 29.5 16.7031 32.625
Q18.0156 36.2812 18.0156 38.625
Q18.0156 41.6094 15.8281 41.6094
Q11.8594 41.6094 9.29688 37.5312
Q6.73438 33.4531 5.51562 28.4219
Q5.32812 27.7812 4.6875 27.7812
L3.51562 27.7812
Q2.6875 27.7812 2.6875 28.7188
L2.6875 29
Q4.29688 34.9688 7.60938 39.5781
Q10.9375 44.1875 16.0156 44.1875
Q19.5781 44.1875 22.0469 41.8438
Q24.5156 39.5 24.5156 35.8906
Q24.5156 34.0312 23.6875 31.9844
Q23.25 30.7656 21.6875 26.6562
Q20.125 22.5625 19.2812 19.875
Q18.4531 17.1875 17.9219 14.5938
Q17.3906 12.0156 17.3906 9.42188
Q17.3906 6.10938 18.7969 3.8125
Q20.2188 1.51562 23.2969 1.51562
Q29.5 1.51562 34.4219 9.07812
L42 39.8906
Q42.3281 41.2188 43.5469 42.1562
Q44.7812 43.1094 46.1875 43.1094
Q47.4062 43.1094 48.3125 42.3281
Q49.2188 41.5469 49.2188 40.2812
Q49.2188 39.7031 49.125 39.5
L39.2031 -0.296875
Q37.8906 -5.42188 34.375 -10.1094
Q30.8594 -14.7969 25.9062 -17.6562
Q20.9531 -20.5156 15.5781 -20.5156
Q12.9844 -20.5156 10.4375 -19.5
Q7.90625 -18.5 6.34375 -16.5
Q4.78125 -14.5 4.78125 -11.8125
Q4.78125 -9.07812 6.39062 -7.07812
Q8.01562 -5.07812 10.6875 -5.07812
Q12.3125 -5.07812 13.4062 -6.07812
Q14.5 -7.07812 14.5 -8.6875
Q14.5 -10.9844 12.7812 -12.6875
Q11.0781 -14.4062 8.79688 -14.4062
Q8.6875 -14.3594 8.59375 -14.3281
Q8.5 -14.3125 8.40625 -14.3125" id="Cmmi10-79"/>
     </defs>
     <g transform="translate(121.724615385 20.840625)scale(0.18 -0.18)">
      <use transform="translate(0.0 0.8125)" xlink:href="#Cmmi10-79"/>
     </g>
    </g>
   </g>
   <g id="patch_5">
    <path d="
M7.2 173.897
L394.03 173.897" style="fill:none;stroke:#000000;stroke-width:0.8;"/>
   </g>
   <g id="patch_6">
    <path d="
M126.225 269.601
L126.225 32.6206" style="fill:none;stroke:#000000;stroke-width:0.8;"/>
   </g>
   <g id="text_10">
    <!-- $x=y^2-1$ -->
    <defs>
     <path d="
M4.98438 0
L4.98438 2.6875
Q4.98438 2.9375 5.17188 3.21875
L20.7031 20.4062
Q24.2188 24.2188 26.4062 26.7969
Q28.6094 29.3906 30.75 32.7656
Q32.9062 36.1406 34.1562 39.625
Q35.4062 43.1094 35.4062 47.0156
Q35.4062 51.125 33.8906 54.8594
Q32.375 58.5938 29.375 60.8438
Q26.375 63.0938 22.125 63.0938
Q17.7812 63.0938 14.3125 60.4688
Q10.8438 57.8594 9.42188 53.7188
Q9.8125 53.8125 10.5 53.8125
Q12.75 53.8125 14.3281 52.2969
Q15.9219 50.7812 15.9219 48.3906
Q15.9219 46.0938 14.3281 44.5
Q12.75 42.9219 10.5 42.9219
Q8.15625 42.9219 6.5625 44.5469
Q4.98438 46.1875 4.98438 48.3906
Q4.98438 52.1562 6.39062 55.4375
Q7.8125 58.7344 10.4688 61.2969
Q13.1406 63.875 16.4844 65.2344
Q19.8281 66.6094 23.5781 66.6094
Q29.2969 66.6094 34.2188 64.1875
Q39.1562 61.7656 42.0312 57.3438
Q44.9219 52.9375 44.9219 47.0156
Q44.9219 42.6719 43.0156 38.7656
Q41.1094 34.8594 38.125 31.6562
Q35.1562 28.4688 30.5156 24.4062
Q25.875 20.3594 24.4219 19
L13.0938 8.10938
L22.7031 8.10938
Q29.7812 8.10938 34.5469 8.21875
Q39.3125 8.34375 39.5938 8.59375
Q40.7656 9.85938 42 17.8281
L44.9219 17.8281
L42.0938 0
z
" id="Cmr10-32"/>
     <path d="
M9.28125 0
L9.28125 3.51562
Q21.7812 3.51562 21.7812 6.6875
L21.7812 59.1875
Q16.6094 56.6875 8.6875 56.6875
L8.6875 60.2031
Q20.9531 60.2031 27.2031 66.6094
L28.6094 66.6094
Q28.9531 66.6094 29.2656 66.3281
Q29.5938 66.0625 29.5938 65.7188
L29.5938 6.6875
Q29.5938 3.51562 42.0938 3.51562
L42.0938 0
z
" id="Cmr10-31"/>
     <path d="
M10.2031 23
Q9.375 23 8.82812 23.625
Q8.29688 24.2656 8.29688 25
Q8.29688 25.7344 8.82812 26.3594
Q9.375 27 10.2031 27
L67.5781 27
Q68.3594 27 68.875 26.3594
Q69.3906 25.7344 69.3906 25
Q69.3906 24.2656 68.875 23.625
Q68.3594 23 67.5781 23
z
" id="Cmsy10-a1"/>
     <path d="
M7.51562 13.2812
Q6.6875 13.2812 6.14062 13.9062
Q5.60938 14.5469 5.60938 15.2812
Q5.60938 16.1094 6.14062 16.6875
Q6.6875 17.2812 7.51562 17.2812
L70.3125 17.2812
Q71.0469 17.2812 71.5781 16.6875
Q72.125 16.1094 72.125 15.2812
Q72.125 14.5469 71.5781 13.9062
Q71.0469 13.2812 70.3125 13.2812
z

M7.51562 32.7188
Q6.6875 32.7188 6.14062 33.2969
Q5.60938 33.8906 5.60938 34.7188
Q5.60938 35.4531 6.14062 36.0781
Q6.6875 36.7188 7.51562 36.7188
L70.3125 36.7188
Q71.0469 36.7188 71.5781 36.0781
Q72.125 35.4531 72.125 34.7188
Q72.125 33.8906 71.5781 33.2969
Q71.0469 32.7188 70.3125 32.7188
z
" id="Cmr10-3d"/>
    </defs>
    <g transform="translate(224.167788462 88.2710096154)scale(0.16 -0.16)">
     <use transform="translate(0.0 0.8578125)" xlink:href="#Cmmi10-78"/>
     <use transform="translate(74.638671875 0.8578125)" xlink:href="#Cmr10-3d"/>
     <use transform="translate(158.697265625 0.8578125)" xlink:href="#Cmmi10-79"/>
     <use transform="translate(207.720703125 43.3734375)scale(0.7)" xlink:href="#Cmr10-32"/>
     <use transform="translate(274.726953125 0.8578125)" xlink:href="#Cmsy10-a1"/>
     <use transform="translate(352.4125 0.8578125)" xlink:href="#Cmr10-31"/>
    </g>
   </g>
   <g id="text_11">
    <!-- $y = x-1$ -->
    <g transform="translate(285.320576923 132.706586538)scale(0.16 -0.16)">
     <use transform="translate(0.0 0.390625)" xlink:href="#Cmmi10-79"/>
     <use transform="translate(66.58203125 0.390625)" xlink:href="#Cmr10-3d"/>
     <use transform="translate(150.640625 0.390625)" xlink:href="#Cmmi10-78"/>
     <use transform="translate(207.720703125 0.390625)" xlink:href="#Cmsy10-a1"/>
     <use transform="translate(285.40625 0.390625)" xlink:href="#Cmr10-31"/>
    </g>
   </g>
  </g>
 </g>
 <defs>
  <clipPath id="pbf35efca70">
   <rect height="236.98" width="386.83" x="7.2" y="32.620625"/>
  </clipPath>
 </defs>
</svg>
