<?xml version="1.0" encoding="utf-8" standalone="no"?>
<!DOCTYPE svg PUBLIC "-//W3C//DTD SVG 1.1//EN"
  "http://www.w3.org/Graphics/SVG/1.1/DTD/svg11.dtd">
<!-- Created with matplotlib (http://matplotlib.org/) -->
<svg height="276pt" version="1.1" viewBox="0 0 419 276" width="419pt" xmlns="http://www.w3.org/2000/svg" xmlns:xlink="http://www.w3.org/1999/xlink">
 <defs>
  <style type="text/css">
*{stroke-linecap:butt;stroke-linejoin:round;}
  </style>
 </defs>
 <g id="figure_1">
  <g id="patch_1">
   <path d="
M0 276.801
L419.67 276.801
L419.67 0
L0 0
z
" style="fill:#ffffff;"/>
  </g>
  <g id="axes_1">
   <g id="patch_2">
    <path d="
M7.2 269.601
L394.03 269.601
L394.03 32.6206
L7.2 32.6206
z
" style="fill:#ffffff;"/>
   </g>
   <g id="patch_3">
    <path clip-path="url(#p4cffa25915)" d="
M36.5186 239.725
L36.5186 189.088
L38.2299 188.593
L38.7097 188.454
L40.4086 187.963
L41.3042 187.704
L42.7139 187.296
L44.9935 186.636
L45.8524 186.388
L46.8066 186.112
L48.4793 185.628
L49.4348 185.352
L51.5955 184.727
L52.589 184.439
L54.0619 184.013
L55.5545 183.581
L56.623 183.272
L57.0831 183.139
L58.7863 182.646
L60.8031 182.063
L62.0072 181.714
L63.3893 181.315
L64.5572 180.977
L66.0672 180.54
L67.4232 180.148
L68.1641 179.933
L69.9731 179.41
L71.182 179.06
L72.5624 178.661
L73.1384 178.494
L74.5366 178.09
L76.6089 177.49
L77.8627 177.128
L78.169 177.039
L80.3606 176.405
L81.2205 176.156
L82.4162 175.81
L84.34 175.254
L85.4009 174.947
L87.1862 174.43
L87.6482 174.297
L89.6171 173.727
L90.3525 173.514
L92.0053 173.036
L93.0175 172.743
L94.326 172.365
L95.9346 171.9
L97.2899 171.507
L98.893 171.044
L99.6513 170.824
L101.649 170.247
L102.508 169.998
L103.505 169.71
L105.63 169.095
L106.01 168.985
L107.308 168.609
L109.623 167.94
L110.139 167.79
L111.811 167.307
L113.367 166.856
L114.997 166.385
L116.305 166.006
L116.528 165.942
L118.001 165.516
L119.217 165.164
L121.583 164.48
L122.406 164.242
L124.216 163.718
L124.967 163.501
L126.272 163.123
L127.217 162.85
L129.009 162.331
L129.963 162.055
L131.486 161.615
L133.093 161.15
L134.645 160.701
L135.61 160.422
L137.241 159.95
L138.633 159.547
L140.076 159.13
L140.127 159.115
L141.536 158.707
L143.572 158.118
L145.348 157.605
L146.588 157.246
L147.914 156.862
L148.232 156.77
L149.424 156.426
L151.955 155.693
L152.292 155.596
L154.423 154.979
L155.195 154.756
L157.176 154.183
L157.928 153.965
L159.384 153.544
L160.539 153.21
L161.327 152.982
L163.823 152.26
L164.819 151.972
L166.256 151.556
L166.96 151.352
L168.265 150.975
L170.245 150.402
L171.585 150.014
L171.811 149.949
L173.515 149.456
L174.986 149.031
L176.376 148.628
L177.839 148.205
L179.113 147.837
L179.851 147.623
L181.737 147.077
L183.266 146.635
L184.33 146.327
L185.47 145.998
L187.118 145.521
L188.839 145.023
L189.27 144.898
L190.967 144.407
L192.278 144.028
L193.846 143.575
L194.36 143.426
L196.819 142.714
L197.699 142.46
L198.902 142.112
L199.901 141.823
L200.922 141.527
L202.49 141.074
L204.183 140.584
L204.926 140.369
L206.061 140.041
L207.98 139.486
L209.09 139.165
L210.08 138.878
L211.596 138.44
L213.494 137.89
L214.915 137.479
L215.432 137.33
L217.671 136.682
L218.1 136.558
L220.332 135.912
L220.945 135.735
L221.996 135.431
L224.338 134.753
L225.627 134.38
L226.67 134.079
L228.415 133.574
L228.68 133.497
L230.241 133.046
L231.954 132.55
L232.771 132.314
L234.388 131.846
L236.32 131.287
L236.487 131.239
L238.842 130.557
L239.79 130.283
L240.672 130.028
L242.452 129.513
L244.116 129.032
L245.607 128.6
L246.029 128.478
L247.777 127.973
L248.712 127.702
L250.017 127.324
L251.359 126.936
L252.309 126.662
L254.134 126.134
L256.044 125.581
L256.687 125.395
L258.158 124.97
L259.594 124.554
L260.315 124.345
L261.685 123.949
L263.025 123.561
L265.154 122.946
L265.782 122.764
L266.98 122.417
L269.381 121.723
L269.489 121.691
L271.604 121.08
L273.232 120.609
L273.419 120.555
L275.186 120.043
L276.904 119.546
L277.7 119.316
L279.032 118.931
L280.249 118.579
L281.508 118.214
L283.266 117.706
L284.529 117.34
L286.223 116.85
L287.102 116.596
L287.89 116.368
L290.389 115.645
L291.153 115.424
L291.884 115.213
L294.16 114.554
L295.411 114.193
L295.828 114.072
L297.728 113.522
L299.073 113.133
L299.073 239.725
z
" style="fill:#ff0000;opacity:0.5;"/>
   </g>
   <g id="line2d_1">
    <path clip-path="url(#p4cffa25915)" d="
M14.639 239.725
L386.591 239.725
L386.591 239.725" style="fill:none;"/>
   </g>
   <g id="line2d_2">
    <path clip-path="url(#p4cffa25915)" d="
M14.639 195.418
L386.591 87.8147
L386.591 87.8147" style="fill:none;stroke:#ff0000;stroke-linecap:square;stroke-width:2.0;"/>
   </g>
   <g id="line2d_3">
    <path clip-path="url(#p4cffa25915)" d="
M36.5186 189.088
L299.073 113.133
L299.073 113.133" style="fill:none;stroke:#ff0000;stroke-linecap:square;stroke-width:2.0;"/>
   </g>
   <g id="matplotlib.axis_1">
    <g id="xtick_1">
     <g id="line2d_4">
      <defs>
       <path d="
M0 0
L0 -4" id="m93b0483c22" style="stroke:#000000;stroke-width:0.5;"/>
      </defs>
      <g>
       <use style="stroke:#000000;stroke-width:0.5;" x="124.036662896" xlink:href="#m93b0483c22" y="239.724941239"/>
      </g>
     </g>
     <g id="text_1">
      <!-- 1 -->
      <defs>
       <path d="
M12.4062 8.29688
L28.5156 8.29688
L28.5156 63.9219
L10.9844 60.4062
L10.9844 69.3906
L28.4219 72.9062
L38.2812 72.9062
L38.2812 8.29688
L54.3906 8.29688
L54.3906 0
L12.4062 0
z
" id="BitstreamVeraSans-Roman-31"/>
      </defs>
      <g transform="translate(120.130100396 257.402128739)scale(0.18 -0.18)">
       <use xlink:href="#BitstreamVeraSans-Roman-31"/>
      </g>
     </g>
    </g>
    <g id="xtick_2">
     <g id="line2d_5">
      <g>
       <use style="stroke:#000000;stroke-width:0.5;" x="211.554762443" xlink:href="#m93b0483c22" y="239.724941239"/>
      </g>
     </g>
     <g id="text_2">
      <!-- 2 -->
      <defs>
       <path d="
M19.1875 8.29688
L53.6094 8.29688
L53.6094 0
L7.32812 0
L7.32812 8.29688
Q12.9375 14.1094 22.625 23.8906
Q32.3281 33.6875 34.8125 36.5312
Q39.5469 41.8438 41.4219 45.5312
Q43.3125 49.2188 43.3125 52.7812
Q43.3125 58.5938 39.2344 62.25
Q35.1562 65.9219 28.6094 65.9219
Q23.9688 65.9219 18.8125 64.3125
Q13.6719 62.7031 7.8125 59.4219
L7.8125 69.3906
Q13.7656 71.7812 18.9375 73
Q24.125 74.2188 28.4219 74.2188
Q39.75 74.2188 46.4844 68.5469
Q53.2188 62.8906 53.2188 53.4219
Q53.2188 48.9219 51.5312 44.8906
Q49.8594 40.875 45.4062 35.4062
Q44.1875 33.9844 37.6406 27.2188
Q31.1094 20.4531 19.1875 8.29688" id="BitstreamVeraSans-Roman-32"/>
      </defs>
      <g transform="translate(207.389449943 257.402128739)scale(0.18 -0.18)">
       <use xlink:href="#BitstreamVeraSans-Roman-32"/>
      </g>
     </g>
    </g>
    <g id="xtick_3">
     <g id="line2d_6">
      <g>
       <use style="stroke:#000000;stroke-width:0.5;" x="299.072861991" xlink:href="#m93b0483c22" y="239.724941239"/>
      </g>
     </g>
     <g id="text_3">
      <!-- 3 -->
      <defs>
       <path d="
M40.5781 39.3125
Q47.6562 37.7969 51.625 33
Q55.6094 28.2188 55.6094 21.1875
Q55.6094 10.4062 48.1875 4.48438
Q40.7656 -1.42188 27.0938 -1.42188
Q22.5156 -1.42188 17.6562 -0.515625
Q12.7969 0.390625 7.625 2.20312
L7.625 11.7188
Q11.7188 9.32812 16.5938 8.10938
Q21.4844 6.89062 26.8125 6.89062
Q36.0781 6.89062 40.9375 10.5469
Q45.7969 14.2031 45.7969 21.1875
Q45.7969 27.6406 41.2812 31.2656
Q36.7656 34.9062 28.7188 34.9062
L20.2188 34.9062
L20.2188 43.0156
L29.1094 43.0156
Q36.375 43.0156 40.2344 45.9219
Q44.0938 48.8281 44.0938 54.2969
Q44.0938 59.9062 40.1094 62.9062
Q36.1406 65.9219 28.7188 65.9219
Q24.6562 65.9219 20.0156 65.0312
Q15.375 64.1562 9.8125 62.3125
L9.8125 71.0938
Q15.4375 72.6562 20.3438 73.4375
Q25.25 74.2188 29.5938 74.2188
Q40.8281 74.2188 47.3594 69.1094
Q53.9062 64.0156 53.9062 55.3281
Q53.9062 49.2656 50.4375 45.0938
Q46.9688 40.9219 40.5781 39.3125" id="BitstreamVeraSans-Roman-33"/>
      </defs>
      <g transform="translate(294.754268241 257.402128739)scale(0.18 -0.18)">
       <use xlink:href="#BitstreamVeraSans-Roman-33"/>
      </g>
     </g>
    </g>
    <g id="text_4">
     <!-- $x$ -->
     <defs>
      <path d="
M7.8125 2.875
Q9.57812 1.51562 12.7969 1.51562
Q15.9219 1.51562 18.3125 4.51562
Q20.7031 7.51562 21.5781 11.0781
L26.125 28.8125
Q27.2031 33.6406 27.2031 35.4062
Q27.2031 37.8906 25.8125 39.75
Q24.4219 41.6094 21.9219 41.6094
Q18.75 41.6094 15.9688 39.625
Q13.1875 37.6406 11.2812 34.5938
Q9.375 31.5469 8.59375 28.4219
Q8.40625 27.7812 7.8125 27.7812
L6.59375 27.7812
Q5.8125 27.7812 5.8125 28.7188
L5.8125 29
Q6.78125 32.7188 9.125 36.25
Q11.4688 39.7969 14.8594 41.9844
Q18.2656 44.1875 22.125 44.1875
Q25.7812 44.1875 28.7344 42.2344
Q31.6875 40.2812 32.9062 36.9219
Q34.625 39.9844 37.2812 42.0781
Q39.9375 44.1875 43.1094 44.1875
Q45.2656 44.1875 47.5 43.4219
Q49.75 42.6719 51.1719 41.1094
Q52.5938 39.5469 52.5938 37.2031
Q52.5938 34.6719 50.9531 32.8281
Q49.3125 31 46.7812 31
Q45.1719 31 44.0938 32.0312
Q43.0156 33.0625 43.0156 34.625
Q43.0156 36.7188 44.4531 38.2969
Q45.9062 39.8906 47.9062 40.1875
Q46.0938 41.6094 42.9219 41.6094
Q39.7031 41.6094 37.3281 38.625
Q34.9688 35.6406 33.9844 31.9844
L29.5938 14.3125
Q28.5156 10.2969 28.5156 7.71875
Q28.5156 5.17188 29.9531 3.34375
Q31.3906 1.51562 33.7969 1.51562
Q38.4844 1.51562 42.1562 5.64062
Q45.8438 9.76562 47.0156 14.7031
Q47.2188 15.2812 47.7969 15.2812
L49.0312 15.2812
Q49.4219 15.2812 49.6562 15.0156
Q49.9062 14.75 49.9062 14.4062
Q49.9062 14.3125 49.8125 14.1094
Q48.3906 8.15625 43.8438 3.51562
Q39.3125 -1.125 33.5938 -1.125
Q29.9375 -1.125 26.9844 0.84375
Q24.0312 2.82812 22.7969 6.20312
Q21.2344 3.26562 18.4688 1.0625
Q15.7188 -1.125 12.5938 -1.125
Q10.4531 -1.125 8.17188 -0.359375
Q5.90625 0.390625 4.48438 1.95312
Q3.07812 3.51562 3.07812 5.90625
Q3.07812 8.25 4.70312 10.1719
Q6.34375 12.1094 8.79688 12.1094
Q10.4531 12.1094 11.5781 11.1094
Q12.7031 10.1094 12.7031 8.5
Q12.7031 6.39062 11.2969 4.82812
Q9.90625 3.26562 7.8125 2.875" id="Cmmi10-78"/>
     </defs>
     <g transform="translate(402.03 239.724941239)scale(0.18 -0.18)">
      <use transform="translate(0.0 0.8125)" xlink:href="#Cmmi10-78"/>
     </g>
    </g>
   </g>
   <g id="matplotlib.axis_2">
    <g id="ytick_1">
     <g id="line2d_7">
      <defs>
       <path d="
M0 0
L4 0" id="m728421d6d4" style="stroke:#000000;stroke-width:0.5;"/>
      </defs>
      <g>
       <use style="stroke:#000000;stroke-width:0.5;" x="36.5185633484" xlink:href="#m728421d6d4" y="189.088189103"/>
      </g>
     </g>
     <g id="text_5">
      <!-- 2 -->
      <g transform="translate(24.1879383484 194.055064103)scale(0.18 -0.18)">
       <use xlink:href="#BitstreamVeraSans-Roman-32"/>
      </g>
     </g>
    </g>
    <g id="ytick_2">
     <g id="line2d_8">
      <g>
       <use style="stroke:#000000;stroke-width:0.5;" x="36.5185633484" xlink:href="#m728421d6d4" y="138.451436966"/>
      </g>
     </g>
     <g id="text_6">
      <!-- 4 -->
      <defs>
       <path d="
M37.7969 64.3125
L12.8906 25.3906
L37.7969 25.3906
z

M35.2031 72.9062
L47.6094 72.9062
L47.6094 25.3906
L58.0156 25.3906
L58.0156 17.1875
L47.6094 17.1875
L47.6094 0
L37.7969 0
L37.7969 17.1875
L4.89062 17.1875
L4.89062 26.7031
z
" id="BitstreamVeraSans-Roman-34"/>
      </defs>
      <g transform="translate(22.9560633484 143.418311966)scale(0.18 -0.18)">
       <use xlink:href="#BitstreamVeraSans-Roman-34"/>
      </g>
     </g>
    </g>
    <g id="ytick_3">
     <g id="line2d_9">
      <g>
       <use style="stroke:#000000;stroke-width:0.5;" x="36.5185633484" xlink:href="#m728421d6d4" y="87.8146848291"/>
      </g>
     </g>
     <g id="text_7">
      <!-- 6 -->
      <defs>
       <path d="
M33.0156 40.375
Q26.375 40.375 22.4844 35.8281
Q18.6094 31.2969 18.6094 23.3906
Q18.6094 15.5312 22.4844 10.9531
Q26.375 6.39062 33.0156 6.39062
Q39.6562 6.39062 43.5312 10.9531
Q47.4062 15.5312 47.4062 23.3906
Q47.4062 31.2969 43.5312 35.8281
Q39.6562 40.375 33.0156 40.375
M52.5938 71.2969
L52.5938 62.3125
Q48.875 64.0625 45.0938 64.9844
Q41.3125 65.9219 37.5938 65.9219
Q27.8281 65.9219 22.6719 59.3281
Q17.5312 52.7344 16.7969 39.4062
Q19.6719 43.6562 24.0156 45.9219
Q28.375 48.1875 33.5938 48.1875
Q44.5781 48.1875 50.9531 41.5156
Q57.3281 34.8594 57.3281 23.3906
Q57.3281 12.1562 50.6875 5.35938
Q44.0469 -1.42188 33.0156 -1.42188
Q20.3594 -1.42188 13.6719 8.26562
Q6.98438 17.9688 6.98438 36.375
Q6.98438 53.6562 15.1875 63.9375
Q23.3906 74.2188 37.2031 74.2188
Q40.9219 74.2188 44.7031 73.4844
Q48.4844 72.75 52.5938 71.2969" id="BitstreamVeraSans-Roman-36"/>
      </defs>
      <g transform="translate(23.4566883484 92.7815598291)scale(0.18 -0.18)">
       <use xlink:href="#BitstreamVeraSans-Roman-36"/>
      </g>
     </g>
    </g>
    <g id="text_8">
     <!-- $y$ -->
     <defs>
      <path d="
M8.40625 -14.3125
Q10.5 -17.9219 15.7188 -17.9219
Q20.4531 -17.9219 23.9219 -14.5938
Q27.3906 -11.2812 29.5156 -6.5625
Q31.6406 -1.85938 32.8125 3.07812
Q28.375 -1.125 23.1875 -1.125
Q19.2344 -1.125 16.4531 0.234375
Q13.6719 1.60938 12.125 4.3125
Q10.5938 7.03125 10.5938 10.8906
Q10.5938 14.1562 11.4688 17.5938
Q12.3594 21.0469 13.9375 25.2656
Q15.5312 29.5 16.7031 32.625
Q18.0156 36.2812 18.0156 38.625
Q18.0156 41.6094 15.8281 41.6094
Q11.8594 41.6094 9.29688 37.5312
Q6.73438 33.4531 5.51562 28.4219
Q5.32812 27.7812 4.6875 27.7812
L3.51562 27.7812
Q2.6875 27.7812 2.6875 28.7188
L2.6875 29
Q4.29688 34.9688 7.60938 39.5781
Q10.9375 44.1875 16.0156 44.1875
Q19.5781 44.1875 22.0469 41.8438
Q24.5156 39.5 24.5156 35.8906
Q24.5156 34.0312 23.6875 31.9844
Q23.25 30.7656 21.6875 26.6562
Q20.125 22.5625 19.2812 19.875
Q18.4531 17.1875 17.9219 14.5938
Q17.3906 12.0156 17.3906 9.42188
Q17.3906 6.10938 18.7969 3.8125
Q20.2188 1.51562 23.2969 1.51562
Q29.5 1.51562 34.4219 9.07812
L42 39.8906
Q42.3281 41.2188 43.5469 42.1562
Q44.7812 43.1094 46.1875 43.1094
Q47.4062 43.1094 48.3125 42.3281
Q49.2188 41.5469 49.2188 40.2812
Q49.2188 39.7031 49.125 39.5
L39.2031 -0.296875
Q37.8906 -5.42188 34.375 -10.1094
Q30.8594 -14.7969 25.9062 -17.6562
Q20.9531 -20.5156 15.5781 -20.5156
Q12.9844 -20.5156 10.4375 -19.5
Q7.90625 -18.5 6.34375 -16.5
Q4.78125 -14.5 4.78125 -11.8125
Q4.78125 -9.07812 6.39062 -7.07812
Q8.01562 -5.07812 10.6875 -5.07812
Q12.3125 -5.07812 13.4062 -6.07812
Q14.5 -7.07812 14.5 -8.6875
Q14.5 -10.9844 12.7812 -12.6875
Q11.0781 -14.4062 8.79688 -14.4062
Q8.6875 -14.3594 8.59375 -14.3281
Q8.5 -14.3125 8.40625 -14.3125" id="Cmmi10-79"/>
     </defs>
     <g transform="translate(32.0185633484 20.840625)scale(0.18 -0.18)">
      <use transform="translate(0.0 0.8125)" xlink:href="#Cmmi10-79"/>
     </g>
    </g>
   </g>
   <g id="patch_4">
    <path d="
M7.2 239.725
L394.03 239.725" style="fill:none;stroke:#000000;stroke-width:0.8;"/>
   </g>
   <g id="patch_5">
    <path d="
M36.5186 269.601
L36.5186 32.6206" style="fill:none;stroke:#000000;stroke-width:0.8;"/>
   </g>
   <g id="text_9">
    <!-- $g$ -->
    <defs>
     <path d="
M1.42188 -14.3125
Q1.42188 -11.8594 3.09375 -10.0312
Q4.78125 -8.20312 7.17188 -8.20312
Q8.79688 -8.20312 9.89062 -9.20312
Q10.9844 -10.2031 10.9844 -11.8125
Q10.9844 -13.625 9.95312 -15.0625
Q8.9375 -16.5 7.32812 -17.0938
Q10.0156 -17.9219 15.7188 -17.9219
Q20.3125 -17.9219 24.125 -14.375
Q27.9375 -10.8438 29.1094 -6.20312
L31.9844 5.51562
Q26.5625 0 20.7031 0
Q16.4062 0 13.3438 2.1875
Q10.2969 4.39062 8.6875 8.04688
Q7.07812 11.7188 7.07812 15.8281
Q7.07812 20.4062 8.95312 25.4375
Q10.8438 30.4688 14.2344 34.7656
Q17.625 39.0625 22.0156 41.625
Q26.4219 44.1875 31.2969 44.1875
Q34.2344 44.1875 36.5781 42.5781
Q38.9219 40.9688 40.2812 38.2812
Q41.2656 42.1875 44.5781 42.1875
Q45.8438 42.1875 46.7188 41.4219
Q47.6094 40.6719 47.6094 39.4062
Q47.6094 39.1094 47.5781 38.9531
Q47.5625 38.8125 47.5156 38.625
L36.0781 -6.78125
Q35.2969 -9.90625 33.2031 -12.5
Q31.1094 -15.0938 28.2656 -16.8281
Q25.4375 -18.5625 22.0625 -19.5312
Q18.7031 -20.5156 15.5781 -20.5156
Q9.85938 -20.5156 5.64062 -19.4062
Q1.42188 -18.3125 1.42188 -14.3125
M20.9062 2.59375
Q27.2969 2.59375 33.5 11.375
L39.0156 33.2031
Q38.3281 36.6719 36.2812 39.1406
Q34.2344 41.6094 31.1094 41.6094
Q27.7812 41.6094 24.8281 38.8906
Q21.875 36.1875 19.9219 32.4219
Q18.0625 28.8125 16.3281 22.0469
Q14.5938 15.2812 14.5938 11.375
Q14.5938 7.95312 16.1562 5.26562
Q17.7188 2.59375 20.9062 2.59375" id="Cmmi10-67"/>
    </defs>
    <g transform="translate(75.9576131222 168.700125534)scale(0.18 -0.18)">
     <use transform="translate(0.0 0.8125)" xlink:href="#Cmmi10-67"/>
    </g>
   </g>
  </g>
 </g>
 <defs>
  <clipPath id="p4cffa25915">
   <rect height="236.98" width="386.83" x="7.2" y="32.620625"/>
  </clipPath>
 </defs>
</svg>
