<?xml version="1.0" encoding="utf-8" standalone="no"?>
<!DOCTYPE svg PUBLIC "-//W3C//DTD SVG 1.1//EN"
  "http://www.w3.org/Graphics/SVG/1.1/DTD/svg11.dtd">
<!-- Created with matplotlib (http://matplotlib.org/) -->
<svg height="277pt" version="1.1" viewBox="0 0 275 277" width="275pt" xmlns="http://www.w3.org/2000/svg" xmlns:xlink="http://www.w3.org/1999/xlink">
 <defs>
  <style type="text/css">
*{stroke-linecap:butt;stroke-linejoin:round;}
  </style>
 </defs>
 <g id="figure_1">
  <g id="patch_1">
   <path d="
M0 277.315
L275.67 277.315
L275.67 0
L0 0
z
" style="fill:#ffffff;"/>
  </g>
  <g id="axes_1">
   <g id="patch_2">
    <path d="
M7.2 252.931
L250.03 252.931
L250.03 32.6206
L7.2 32.6206
z
" style="fill:#ffffff;"/>
   </g>
   <g id="patch_3">
    <path clip-path="url(#p9ce254f00c)" d="
M70.2424 248.695
L70.2424 167.049
L70.6615 167.049
L71.5611 167.049
L72.1056 167.049
L73.0986 167.049
L73.8345 167.049
L74.4813 167.049
L75.7355 167.049
L76.2659 167.049
L76.6122 167.049
L77.3558 167.049
L78.0144 167.049
L78.8115 167.049
L79.5398 167.049
L80.368 167.049
L81.2356 167.049
L82.3175 167.049
L82.9158 167.049
L83.3023 167.049
L83.9363 167.049
L84.6514 167.049
L85.6021 167.049
L86.2667 167.049
L87.4162 167.049
L87.9823 167.049
L88.8738 167.049
L89.5291 167.049
L89.9519 167.049
L91.1295 167.049
L91.4 167.049
L92.0277 167.049
L93.22 167.049
L93.9398 167.049
L94.3284 167.049
L95.5161 167.049
L96.0749 167.049
L96.397 167.049
L97.6349 167.049
L97.8655 167.049
L98.7979 167.049
L99.7235 167.049
L100.283 167.049
L100.767 167.049
L102.081 167.049
L102.413 167.049
L103.596 167.049
L104.194 167.049
L104.876 167.049
L105.457 167.049
L106.087 167.049
L107.082 167.049
L108.001 167.049
L108.118 167.049
L109.058 167.049
L109.662 167.049
L110.879 167.049
L111.538 167.049
L112.321 167.049
L112.74 167.049
L113.599 167.049
L114.424 167.049
L115.246 167.049
L115.571 167.049
L116.777 167.049
L116.84 167.049
L117.997 167.049
L118.486 167.049
L119.279 167.049
L119.751 167.049
L120.828 167.049
L121.705 167.049
L122.082 167.049
L122.758 167.049
L123.829 167.049
L124.546 167.049
L125.334 167.049
L126.18 167.049
L126.87 167.049
L127.451 167.049
L127.92 167.049
L129.234 167.049
L129.709 167.049
L130.227 167.049
L131.394 167.049
L131.79 167.049
L132.209 167.049
L133.099 167.049
L134.359 167.049
L134.951 167.049
L135.356 167.049
L136.197 167.049
L136.985 167.049
L137.437 167.049
L138.445 167.049
L139.515 167.049
L140.229 167.049
L140.92 167.049
L141.573 167.049
L142.258 167.049
L142.983 167.049
L143.443 167.049
L144.132 167.049
L144.805 167.049
L145.726 167.049
L146.74 167.049
L147.112 167.049
L147.733 167.049
L148.436 167.049
L149.205 167.049
L150.462 167.049
L151.121 167.049
L151.309 167.049
L152.499 167.049
L152.877 167.049
L153.594 167.049
L154.431 167.049
L155.148 167.049
L155.824 167.049
L156.778 167.049
L157.468 167.049
L158.253 167.049
L158.657 167.049
L159.965 167.049
L160.634 167.049
L161.439 167.049
L162.251 167.049
L162.888 167.049
L163.379 167.049
L164.105 167.049
L164.939 167.049
L165.445 167.049
L166.134 167.049
L166.819 167.049
L167.757 167.049
L168.847 167.049
L168.887 167.049
L170.296 167.049
L170.643 167.049
L171.123 167.049
L172.111 167.049
L173.178 167.049
L173.675 167.049
L174.376 167.049
L175.363 167.049
L176.067 167.049
L176.712 167.049
L177.138 167.049
L177.734 167.049
L178.417 167.049
L179.418 167.049
L180.289 167.049
L181.223 167.049
L182.063 167.049
L182.135 167.049
L183.344 167.049
L184.243 167.049
L184.624 167.049
L185.139 167.049
L186.406 167.049
L186.517 167.049
L187.328 167.049
L188.181 167.049
L188.846 167.049
L189.515 167.049
L190.368 167.049
L191.391 167.049
L191.964 167.049
L192.99 167.049
L193.544 167.049
L194.016 167.049
L194.903 167.049
L195.717 167.049
L196.696 167.049
L196.803 167.049
L197.775 167.049
L198.9 167.049
L199.16 167.049
L200.01 167.049
L200.76 167.049
L201.72 167.049
L201.983 167.049
L202.933 167.049
L203.964 167.049
L204.308 167.049
L205.337 167.049
L206.1 167.049
L206.981 167.049
L207.306 167.049
L208.126 167.049
L208.954 167.049
L209.265 167.049
L210.559 167.049
L210.808 167.049
L211.488 167.049
L212.319 167.049
L213.249 167.049
L213.887 167.049
L214.543 167.049
L215.743 167.049
L216.174 167.049
L216.174 248.695
z
" style="fill:#808080;opacity:0.5;"/>
   </g>
   <g id="patch_4">
    <path clip-path="url(#p9ce254f00c)" d="
M160.185 167.049
L159.561 167.635
L159.11 168.055
L158.93 168.222
L158.323 168.781
L157.911 169.156
L157.683 169.363
L156.854 170.108
L156.594 170.34
L156.049 170.821
L155.513 171.291
L155.08 171.667
L154.792 171.916
L154.285 172.35
L153.746 172.807
L153.329 173.158
L152.994 173.438
L152.62 173.748
L151.825 174.4
L151.42 174.729
L150.932 175.121
L150.915 175.135
L150.316 175.611
L149.643 176.14
L149.449 176.291
L149.11 176.554
L148.387 177.108
L148.172 177.272
L147.449 177.815
L147.151 178.037
L146.628 178.423
L146.266 178.687
L145.718 179.084
L145.051 179.56
L144.683 179.82
L144.31 180.081
L143.863 180.392
L143.324 180.762
L143.144 180.884
L142.736 181.16
L142.043 181.623
L141.837 181.759
L141.083 182.251
L140.729 182.479
L140.521 182.613
L139.851 183.037
L139.212 183.435
L138.881 183.64
L138.666 183.771
L138.182 184.064
L137.669 184.371
L137.169 184.667
L136.619 184.987
L136.266 185.19
L135.58 185.579
L135.211 185.785
L134.912 185.951
L134.62 186.111
L134.071 186.409
L133.355 186.791
L133.094 186.927
L132.774 187.094
L132.114 187.433
L131.888 187.547
L131.069 187.955
L130.942 188.018
L130.309 188.324
L129.868 188.535
L129.445 188.734
L129.052 188.916
L128.435 189.197
L127.955 189.411
L127.648 189.547
L127.233 189.727
L126.731 189.943
L126.083 190.214
L125.821 190.322
L125.229 190.562
L124.966 190.667
L124.476 190.86
L123.855 191.099
L123.782 191.126
L123.168 191.356
L122.736 191.514
L122.293 191.673
L121.668 191.892
L121.443 191.969
L120.817 192.18
L120.389 192.321
L120.089 192.418
L119.508 192.602
L118.834 192.809
L118.752 192.833
L118.012 193.052
L117.676 193.148
L117.201 193.281
L116.982 193.341
L116.552 193.457
L116.087 193.579
L115.319 193.773
L114.834 193.891
L114.672 193.93
L114.201 194.04
L113.513 194.194
L112.972 194.31
L112.897 194.326
L112.453 194.417
L111.895 194.528
L111.368 194.628
L110.753 194.739
L110.434 194.794
L110.146 194.843
L109.424 194.959
L109.09 195.01
L108.512 195.094
L108.297 195.124
L107.732 195.2
L107.417 195.239
L106.661 195.329
L106.305 195.368
L106.111 195.388
L105.593 195.44
L105.185 195.478
L104.429 195.541
L104.216 195.557
L103.563 195.603
L103.062 195.633
L102.828 195.646
L102.297 195.671
L101.976 195.685
L101.652 195.697
L100.835 195.72
L100.359 195.729
L100.211 195.731
L99.4511 195.735
L99.0537 195.734
L98.6005 195.73
L98.4289 195.728
L97.6917 195.712
L97.3494 195.702
L96.8562 195.684
L96.3519 195.662
L95.898 195.638
L95.3574 195.607
L95.0573 195.587
L94.6764 195.56
L94.2559 195.527
L93.692 195.48
L93.4528 195.458
L92.9214 195.406
L92.4671 195.359
L91.8213 195.286
L91.3463 195.228
L91.2451 195.215
L90.5824 195.127
L90.005 195.045
L89.8402 195.021
L89.0239 194.894
L88.6585 194.834
L88.5214 194.811
L88.0803 194.734
L87.5128 194.632
L86.8168 194.499
L86.7083 194.478
L85.9866 194.331
L85.7038 194.271
L85.3458 194.194
L84.4874 194
L84.1302 193.916
L83.706 193.814
L83.2367 193.698
L82.7459 193.572
L82.4559 193.497
L81.916 193.352
L81.7089 193.295
L81.2142 193.157
L80.491 192.948
L79.9737 192.794
L79.7117 192.714
L79.5004 192.649
L79.0099 192.495
L78.2196 192.24
L77.9142 192.138
L77.6356 192.044
L77.0209 191.833
L76.6958 191.719
L76.2829 191.572
L75.7302 191.371
L75.1157 191.142
L74.5395 190.921
L74.3872 190.862
L73.9295 190.682
L73.4758 190.501
L73.0212 190.316
L72.3273 190.027
L72.1403 189.948
L71.4086 189.634
L71.0256 189.466
L70.9096 189.415
L70.2424 189.115
L70.2424 167.049
L70.8395 167.049
L71.359 167.049
L71.7288 167.049
L71.933 167.049
L72.5605 167.049
L72.924 167.049
L73.4879 167.049
L74.006 167.049
L74.3632 167.049
L74.5705 167.049
L75.4195 167.049
L75.666 167.049
L76.3362 167.049
L76.7081 167.049
L77.0057 167.049
L77.4277 167.049
L77.7557 167.049
L78.539 167.049
L78.8432 167.049
L79.3089 167.049
L79.8133 167.049
L80.2964 167.049
L80.6205 167.049
L81.1956 167.049
L81.462 167.049
L81.8997 167.049
L82.3041 167.049
L82.9213 167.049
L83.5658 167.049
L83.9461 167.049
L84.0821 167.049
L84.5849 167.049
L84.9437 167.049
L85.6938 167.049
L86.1247 167.049
L86.3089 167.049
L86.8069 167.049
L87.4416 167.049
L88.0869 167.049
L88.3649 167.049
L88.6305 167.049
L89.2679 167.049
L89.4821 167.049
L90.2324 167.049
L90.4783 167.049
L91.1333 167.049
L91.3783 167.049
L91.8975 167.049
L92.5701 167.049
L92.8715 167.049
L93.1947 167.049
L93.7953 167.049
L94.1078 167.049
L94.4329 167.049
L94.9557 167.049
L95.4727 167.049
L95.9147 167.049
L96.3117 167.049
L96.8167 167.049
L97.516 167.049
L97.6067 167.049
L98.2402 167.049
L98.7836 167.049
L99.1854 167.049
L99.7802 167.049
L100.038 167.049
L100.324 167.049
L100.81 167.049
L101.355 167.049
L101.698 167.049
L102.126 167.049
L102.614 167.049
L103.16 167.049
L103.493 167.049
L104.264 167.049
L104.475 167.049
L105.191 167.049
L105.309 167.049
L105.8 167.049
L106.179 167.049
L106.645 167.049
L107.419 167.049
L107.639 167.049
L108.41 167.049
L108.596 167.049
L109.182 167.049
L109.743 167.049
L109.88 167.049
L110.474 167.049
L110.809 167.049
L111.362 167.049
L111.758 167.049
L112.405 167.049
L112.853 167.049
L113.013 167.049
L113.681 167.049
L114.186 167.049
L114.38 167.049
L114.871 167.049
L115.219 167.049
L115.735 167.049
L116.46 167.049
L116.692 167.049
L117.065 167.049
L117.76 167.049
L118.148 167.049
L118.745 167.049
L119.192 167.049
L119.429 167.049
L120.036 167.049
L120.383 167.049
L120.772 167.049
L121.416 167.049
L121.921 167.049
L122.134 167.049
L122.669 167.049
L123.184 167.049
L123.799 167.049
L123.909 167.049
L124.429 167.049
L125.089 167.049
L125.604 167.049
L125.799 167.049
L126.473 167.049
L126.907 167.049
L127.209 167.049
L127.691 167.049
L127.975 167.049
L128.75 167.049
L129.055 167.049
L129.424 167.049
L129.897 167.049
L130.575 167.049
L130.687 167.049
L131.367 167.049
L131.816 167.049
L132.274 167.049
L132.407 167.049
L133.282 167.049
L133.5 167.049
L133.917 167.049
L134.405 167.049
L134.955 167.049
L135.483 167.049
L135.598 167.049
L136.296 167.049
L136.593 167.049
L137.217 167.049
L137.444 167.049
L137.855 167.049
L138.517 167.049
L139.021 167.049
L139.177 167.049
L139.817 167.049
L140.203 167.049
L140.872 167.049
L141.247 167.049
L141.747 167.049
L142.008 167.049
L142.782 167.049
L143.022 167.049
L143.564 167.049
L144.101 167.049
L144.554 167.049
L144.788 167.049
L145.319 167.049
L145.761 167.049
L146.332 167.049
L146.447 167.049
L147.182 167.049
L147.725 167.049
L148.013 167.049
L148.567 167.049
L148.679 167.049
L149.488 167.049
L149.948 167.049
L150.243 167.049
L150.679 167.049
L151.047 167.049
L151.493 167.049
L151.949 167.049
L152.583 167.049
L152.953 167.049
L153.462 167.049
L153.662 167.049
L154.533 167.049
L154.889 167.049
L155.307 167.049
L155.783 167.049
L155.986 167.049
L156.662 167.049
L157.041 167.049
L157.655 167.049
L157.803 167.049
L158.6 167.049
L158.958 167.049
L159.46 167.049
L159.583 167.049
L160.185 167.049
z
" style="fill:#006400;opacity:0.5;"/>
   </g>
   <g id="patch_5">
    <path clip-path="url(#p9ce254f00c)" d="
M216.174 167.049
L215.764 167.049
L215.492 167.049
L215.221 167.049
L214.911 167.049
L214.826 167.049
L214.531 167.049
L214.311 167.049
L213.941 167.049
L213.604 167.049
L213.462 167.049
L213.003 167.049
L212.66 167.049
L212.614 167.049
L212.359 167.049
L211.848 167.049
L211.718 167.049
L211.435 167.049
L210.991 167.049
L210.695 167.049
L210.447 167.049
L210.243 167.049
L209.976 167.049
L209.594 167.049
L209.372 167.049
L209.268 167.049
L208.725 167.049
L208.616 167.049
L208.257 167.049
L208.148 167.049
L207.759 167.049
L207.479 167.049
L207.115 167.049
L206.946 167.049
L206.504 167.049
L206.216 167.049
L205.985 167.049
L205.731 167.049
L205.44 167.049
L205.232 167.049
L204.819 167.049
L204.745 167.049
L204.28 167.049
L203.995 167.049
L203.87 167.049
L203.42 167.049
L203.249 167.049
L202.985 167.049
L202.556 167.049
L202.355 167.049
L201.974 167.049
L201.725 167.049
L201.616 167.049
L201.316 167.049
L201.078 167.049
L200.706 167.049
L200.487 167.049
L200.045 167.049
L199.826 167.049
L199.601 167.049
L199.252 167.049
L198.998 167.049
L198.679 167.049
L198.345 167.049
L198.075 167.049
L197.812 167.049
L197.476 167.049
L197.331 167.049
L197.005 167.049
L196.789 167.049
L196.406 167.049
L196.238 167.049
L195.986 167.049
L195.758 167.049
L195.428 167.049
L194.946 167.049
L194.895 167.049
L194.501 167.049
L194.152 167.049
L193.996 167.049
L193.615 167.049
L193.407 167.049
L192.993 167.049
L192.698 167.049
L192.649 167.049
L192.255 167.049
L192.057 167.049
L191.613 167.049
L191.457 167.049
L191.102 167.049
L190.741 167.049
L190.698 167.049
L190.274 167.049
L189.997 167.049
L189.72 167.049
L189.453 167.049
L189.055 167.049
L188.89 167.049
L188.505 167.049
L188.283 167.049
L188.007 167.049
L187.771 167.049
L187.378 167.049
L187.252 167.049
L186.975 167.049
L186.596 167.049
L186.437 167.049
L186.104 167.049
L185.654 167.049
L185.57 167.049
L185.133 167.049
L184.9 167.049
L184.53 167.049
L184.338 167.049
L184.172 167.049
L183.825 167.049
L183.518 167.049
L183.131 167.049
L182.847 167.049
L182.677 167.049
L182.489 167.049
L182.131 167.049
L181.797 167.049
L181.694 167.049
L181.347 167.049
L181.052 167.049
L180.7 167.049
L180.456 167.049
L180.097 167.049
L179.812 167.049
L179.713 167.049
L179.235 167.049
L179.065 167.049
L178.631 167.049
L178.496 167.049
L178.065 167.049
L177.931 167.049
L177.646 167.049
L177.462 167.049
L177.177 167.049
L176.823 167.049
L176.561 167.049
L176.105 167.049
L175.916 167.049
L175.776 167.049
L175.301 167.049
L174.971 167.049
L174.935 167.049
L174.421 167.049
L174.275 167.049
L174.106 167.049
L173.682 167.049
L173.432 167.049
L173.006 167.049
L172.87 167.049
L172.552 167.049
L172.193 167.049
L171.971 167.049
L171.697 167.049
L171.39 167.049
L171.243 167.049
L171.003 167.049
L170.67 167.049
L170.36 167.049
L170.13 167.049
L169.657 167.049
L169.337 167.049
L169.279 167.049
L168.868 167.049
L168.759 167.049
L168.235 167.049
L167.938 167.049
L167.725 167.049
L167.436 167.049
L167.357 167.049
L166.975 167.049
L166.518 167.049
L166.362 167.049
L165.991 167.049
L165.881 167.049
L165.422 167.049
L165.153 167.049
L165.095 167.049
L164.57 167.049
L164.278 167.049
L164.14 167.049
L163.748 167.049
L163.54 167.049
L163.36 167.049
L162.967 167.049
L162.771 167.049
L162.514 167.049
L162.126 167.049
L161.914 167.049
L161.528 167.049
L161.186 167.049
L160.906 167.049
L160.674 167.049
L160.551 167.049
L160.185 167.049
L160.185 167.049
L160.564 166.689
L160.87 166.398
L160.905 166.365
L161.323 165.964
L161.477 165.815
L161.807 165.497
L162.175 165.139
L162.313 165.004
L162.585 164.737
L163.037 164.292
L163.205 164.127
L163.54 163.793
L163.816 163.518
L164.264 163.068
L164.505 162.825
L164.569 162.76
L165.094 162.226
L165.313 162.002
L165.407 161.906
L165.906 161.392
L166.052 161.241
L166.439 160.839
L166.608 160.663
L166.815 160.446
L167.32 159.916
L167.524 159.7
L167.811 159.395
L167.923 159.276
L168.231 158.948
L168.565 158.59
L168.805 158.331
L169.24 157.861
L169.494 157.585
L169.848 157.198
L170.172 156.842
L170.296 156.707
L170.62 156.349
L170.89 156.049
L171.076 155.843
L171.428 155.45
L171.793 155.04
L172.015 154.79
L172.28 154.49
L172.611 154.115
L172.809 153.889
L173.229 153.409
L173.279 153.351
L173.563 153.025
L173.91 152.624
L174.175 152.318
L174.432 152.018
L174.679 151.729
L175.195 151.124
L175.515 150.747
L175.625 150.616
L175.972 150.204
L176.165 149.975
L176.638 149.409
L176.806 149.206
L176.983 148.993
L177.332 148.572
L177.689 148.139
L177.797 148.007
L178.321 147.367
L178.597 147.027
L178.883 146.675
L178.981 146.554
L179.343 146.106
L179.471 145.946
L179.937 145.365
L180.028 145.251
L180.321 144.883
L180.617 144.51
L180.894 144.16
L181.265 143.69
L181.646 143.204
L181.924 142.847
L182.131 142.582
L182.412 142.221
L182.674 141.882
L183.103 141.326
L183.29 141.081
L183.443 140.883
L183.924 140.252
L184.026 140.118
L184.243 139.833
L184.608 139.351
L184.908 138.952
L185.185 138.583
L185.388 138.313
L185.735 137.849
L186.197 137.228
L186.448 136.888
L186.619 136.656
L186.773 136.447
L187.078 136.034
L187.433 135.548
L187.862 134.96
L188.054 134.696
L188.394 134.227
L188.646 133.878
L188.896 133.53
L189.033 133.34
L189.517 132.664
L189.8 132.268
L190.104 131.84
L190.421 131.392
L190.45 131.35
L190.776 130.889
L191.2 130.285
L191.387 130.018
L191.615 129.692
L192.012 129.123
L192.2 128.852
L192.527 128.379
L192.682 128.155
L193.052 127.618
L193.296 127.262
L193.62 126.788
L193.911 126.361
L194.154 126.004
L194.491 125.507
L194.893 124.912
L195.146 124.536
L195.446 124.09
L195.64 123.799
L195.819 123.531
L196.278 122.842
L196.538 122.45
L196.722 122.172
L197.175 121.486
L197.348 121.222
L197.649 120.764
L197.81 120.518
L198.087 120.094
L198.342 119.702
L198.728 119.108
L199.017 118.661
L199.344 118.154
L199.703 117.596
L199.744 117.532
L200.186 116.84
L200.476 116.386
L200.629 116.145
L200.849 115.798
L201.255 115.157
L201.631 114.562
L201.776 114.332
L202.099 113.816
L202.252 113.571
L202.602 113.012
L203.038 112.311
L203.092 112.224
L203.602 111.401
L203.68 111.274
L204.053 110.669
L204.314 110.244
L204.755 109.523
L204.819 109.419
L205.161 108.857
L205.529 108.252
L205.628 108.088
L206.033 107.418
L206.415 106.785
L206.571 106.524
L206.803 106.138
L207.283 105.336
L207.323 105.269
L207.796 104.473
L207.901 104.296
L208.384 103.48
L208.479 103.319
L208.933 102.549
L209.144 102.188
L209.453 101.661
L209.617 101.38
L209.939 100.829
L210.348 100.125
L210.659 99.5873
L210.737 99.4522
L211.184 98.6776
L211.502 98.1244
L211.673 97.8267
L211.956 97.3317
L212.133 97.0218
L212.639 96.1343
L212.938 95.6076
L213.108 95.3073
L213.261 95.0361
L213.666 94.3179
L213.801 94.0778
L214.257 93.2656
L214.573 92.701
L214.692 92.4893
L215.068 91.8135
L215.256 91.4751
L215.601 90.8532
L215.76 90.5657
L216.174 89.8167
z
" style="fill:#0000ff;opacity:0.5;"/>
   </g>
   <g id="line2d_1">
    <path clip-path="url(#p9ce254f00c)" d="
M11.8698 248.695
L245.36 248.695
L245.36 248.695" style="fill:none;"/>
   </g>
   <g id="line2d_2">
    <path clip-path="url(#p9ce254f00c)" d="
M11.8698 167.049
L245.36 167.049
L245.36 167.049" style="fill:none;stroke:#006400;stroke-linecap:square;stroke-width:2.0;"/>
   </g>
   <g id="line2d_3">
    <path clip-path="url(#p9ce254f00c)" d="
M70.2424 167.049
L216.174 167.049
L216.174 167.049" style="fill:none;"/>
   </g>
   <g id="line2d_4">
    <path clip-path="url(#p9ce254f00c)" d="
M70.2424 167.049
L160.185 167.049
L160.185 167.049" style="fill:none;stroke:#0000ff;stroke-linecap:square;"/>
   </g>
   <g id="line2d_5">
    <path clip-path="url(#p9ce254f00c)" d="
M160.185 167.049
L164.569 162.76
L169.24 157.861
L173.91 152.624
L178.597 147.027
L183.443 140.883
L188.394 134.227
L193.296 127.262
L198.342 119.702
L203.602 111.401
L208.479 103.319
L213.801 94.0778
L216.174 89.8167
L216.174 89.8167" style="fill:none;stroke:#0000ff;stroke-linecap:square;"/>
   </g>
   <g id="line2d_6">
    <path clip-path="url(#p9ce254f00c)" d="
M216.174 248.695
L216.174 89.8167" style="fill:none;stroke:#000000;stroke-linecap:square;stroke-width:1.5;"/>
   </g>
   <g id="matplotlib.axis_1">
    <g id="xtick_1">
     <g id="line2d_7">
      <defs>
       <path d="
M0 0
L0 -4" id="m93b0483c22" style="stroke:#000000;stroke-width:0.5;"/>
      </defs>
      <g>
       <use style="stroke:#000000;stroke-width:0.5;" x="70.2424038462" xlink:href="#m93b0483c22" y="248.694648669"/>
      </g>
     </g>
     <g id="text_1">
      <!-- $a$ -->
      <defs>
       <path d="
M17.3906 -1.125
Q11.0781 -1.125 7.4375 3.64062
Q3.8125 8.40625 3.8125 14.8906
Q3.8125 21.2969 7.125 28.1719
Q10.4531 35.0625 16.0938 39.625
Q21.7344 44.1875 28.2188 44.1875
Q31.2031 44.1875 33.5469 42.5781
Q35.8906 40.9688 37.2031 38.1875
Q38.3281 42.1875 41.6094 42.1875
Q42.875 42.1875 43.7188 41.4219
Q44.5781 40.6719 44.5781 39.4062
Q44.5781 39.1094 44.5469 38.9531
Q44.5312 38.8125 44.4844 38.625
L37.5 10.6875
Q36.8125 7.71875 36.8125 5.8125
Q36.8125 1.51562 39.7031 1.51562
Q42.8281 1.51562 44.4531 5.48438
Q46.0938 9.46875 47.2188 14.7031
Q47.4062 15.2812 48 15.2812
L49.2188 15.2812
Q49.6094 15.2812 49.8438 14.9375
Q50.0938 14.5938 50.0938 14.3125
Q48.3438 7.32812 46.2656 3.09375
Q44.1875 -1.125 39.5 -1.125
Q36.1406 -1.125 33.5469 0.84375
Q30.9531 2.82812 30.3281 6.10938
Q23.875 -1.125 17.3906 -1.125
M17.4844 1.51562
Q21.0938 1.51562 24.4844 4.21875
Q27.875 6.9375 30.3281 10.5938
Q30.4219 10.6875 30.4219 10.8906
L35.7969 32.625
L35.8906 32.9062
Q35.2969 36.4688 33.3125 39.0312
Q31.3438 41.6094 27.9844 41.6094
Q24.6094 41.6094 21.7031 38.8438
Q18.7969 36.0781 16.7969 32.3281
Q14.8438 28.3281 13.0625 21.3438
Q11.2812 14.3594 11.2812 10.5
Q11.2812 7.03125 12.7656 4.26562
Q14.2656 1.51562 17.4844 1.51562" id="Cmmi10-61"/>
      </defs>
      <g transform="translate(65.4724038462 266.371836169)scale(0.18 -0.18)">
       <use transform="translate(0.0 0.8125)" xlink:href="#Cmmi10-61"/>
      </g>
     </g>
    </g>
    <g id="xtick_2">
     <g id="line2d_8">
      <g>
       <use style="stroke:#000000;stroke-width:0.5;" x="216.173894231" xlink:href="#m93b0483c22" y="248.694648669"/>
      </g>
     </g>
     <g id="text_2">
      <!-- $b$ -->
      <defs>
       <path d="
M17.2812 -1.125
Q11.2344 -1.125 7.85938 3.60938
Q4.5 8.34375 4.5 14.7031
Q4.5 15.625 4.95312 18.3281
Q5.42188 21.0469 5.42188 21.6875
L15.0938 60.5
Q15.4844 62.2031 15.5781 63.1875
Q15.5781 64.7969 9.07812 64.7969
Q8.10938 64.7969 8.10938 66.1094
Q8.15625 66.3594 8.32812 66.9844
Q8.5 67.625 8.76562 67.9688
Q9.03125 68.3125 9.51562 68.3125
L23 69.3906
Q24.2188 69.3906 24.2188 68.1094
L16.7969 38.625
Q22.4688 44.1875 28.2188 44.1875
Q32.4688 44.1875 35.5156 41.9375
Q38.5781 39.7031 40.0938 36.0312
Q41.6094 32.375 41.6094 28.2188
Q41.6094 23.3906 39.7188 18.2344
Q37.8438 13.0938 34.5156 8.67188
Q31.2031 4.25 26.75 1.5625
Q22.3125 -1.125 17.2812 -1.125
M17.4844 1.51562
Q20.9062 1.51562 23.875 4.375
Q26.8594 7.23438 28.7188 10.7969
Q30.7188 14.7969 32.4531 21.6562
Q34.1875 28.5156 34.1875 32.625
Q34.1875 36.1875 32.6875 38.8906
Q31.2031 41.6094 27.9844 41.6094
Q24.3594 41.6094 21.0625 38.9375
Q17.7812 36.2812 15.2812 32.625
L12.5 21.2969
Q10.8906 14.9844 10.7969 11.1875
Q10.7969 7.42188 12.4219 4.46875
Q14.0625 1.51562 17.4844 1.51562" id="Cmmi10-62"/>
      </defs>
      <g transform="translate(212.303894231 266.371836169)scale(0.18 -0.18)">
       <use transform="translate(0.0 0.609375)" xlink:href="#Cmmi10-62"/>
      </g>
     </g>
    </g>
    <g id="text_3">
     <!-- $x$ -->
     <defs>
      <path d="
M7.8125 2.875
Q9.57812 1.51562 12.7969 1.51562
Q15.9219 1.51562 18.3125 4.51562
Q20.7031 7.51562 21.5781 11.0781
L26.125 28.8125
Q27.2031 33.6406 27.2031 35.4062
Q27.2031 37.8906 25.8125 39.75
Q24.4219 41.6094 21.9219 41.6094
Q18.75 41.6094 15.9688 39.625
Q13.1875 37.6406 11.2812 34.5938
Q9.375 31.5469 8.59375 28.4219
Q8.40625 27.7812 7.8125 27.7812
L6.59375 27.7812
Q5.8125 27.7812 5.8125 28.7188
L5.8125 29
Q6.78125 32.7188 9.125 36.25
Q11.4688 39.7969 14.8594 41.9844
Q18.2656 44.1875 22.125 44.1875
Q25.7812 44.1875 28.7344 42.2344
Q31.6875 40.2812 32.9062 36.9219
Q34.625 39.9844 37.2812 42.0781
Q39.9375 44.1875 43.1094 44.1875
Q45.2656 44.1875 47.5 43.4219
Q49.75 42.6719 51.1719 41.1094
Q52.5938 39.5469 52.5938 37.2031
Q52.5938 34.6719 50.9531 32.8281
Q49.3125 31 46.7812 31
Q45.1719 31 44.0938 32.0312
Q43.0156 33.0625 43.0156 34.625
Q43.0156 36.7188 44.4531 38.2969
Q45.9062 39.8906 47.9062 40.1875
Q46.0938 41.6094 42.9219 41.6094
Q39.7031 41.6094 37.3281 38.625
Q34.9688 35.6406 33.9844 31.9844
L29.5938 14.3125
Q28.5156 10.2969 28.5156 7.71875
Q28.5156 5.17188 29.9531 3.34375
Q31.3906 1.51562 33.7969 1.51562
Q38.4844 1.51562 42.1562 5.64062
Q45.8438 9.76562 47.0156 14.7031
Q47.2188 15.2812 47.7969 15.2812
L49.0312 15.2812
Q49.4219 15.2812 49.6562 15.0156
Q49.9062 14.75 49.9062 14.4062
Q49.9062 14.3125 49.8125 14.1094
Q48.3906 8.15625 43.8438 3.51562
Q39.3125 -1.125 33.5938 -1.125
Q29.9375 -1.125 26.9844 0.84375
Q24.0312 2.82812 22.7969 6.20312
Q21.2344 3.26562 18.4688 1.0625
Q15.7188 -1.125 12.5938 -1.125
Q10.4531 -1.125 8.17188 -0.359375
Q5.90625 0.390625 4.48438 1.95312
Q3.07812 3.51562 3.07812 5.90625
Q3.07812 8.25 4.70312 10.1719
Q6.34375 12.1094 8.79688 12.1094
Q10.4531 12.1094 11.5781 11.1094
Q12.7031 10.1094 12.7031 8.5
Q12.7031 6.39062 11.2969 4.82812
Q9.90625 3.26562 7.8125 2.875" id="Cmmi10-78"/>
     </defs>
     <g transform="translate(258.03 248.694648669)scale(0.18 -0.18)">
      <use transform="translate(0.0 0.8125)" xlink:href="#Cmmi10-78"/>
     </g>
    </g>
   </g>
   <g id="matplotlib.axis_2">
    <g id="text_4">
     <!-- $y$ -->
     <defs>
      <path d="
M8.40625 -14.3125
Q10.5 -17.9219 15.7188 -17.9219
Q20.4531 -17.9219 23.9219 -14.5938
Q27.3906 -11.2812 29.5156 -6.5625
Q31.6406 -1.85938 32.8125 3.07812
Q28.375 -1.125 23.1875 -1.125
Q19.2344 -1.125 16.4531 0.234375
Q13.6719 1.60938 12.125 4.3125
Q10.5938 7.03125 10.5938 10.8906
Q10.5938 14.1562 11.4688 17.5938
Q12.3594 21.0469 13.9375 25.2656
Q15.5312 29.5 16.7031 32.625
Q18.0156 36.2812 18.0156 38.625
Q18.0156 41.6094 15.8281 41.6094
Q11.8594 41.6094 9.29688 37.5312
Q6.73438 33.4531 5.51562 28.4219
Q5.32812 27.7812 4.6875 27.7812
L3.51562 27.7812
Q2.6875 27.7812 2.6875 28.7188
L2.6875 29
Q4.29688 34.9688 7.60938 39.5781
Q10.9375 44.1875 16.0156 44.1875
Q19.5781 44.1875 22.0469 41.8438
Q24.5156 39.5 24.5156 35.8906
Q24.5156 34.0312 23.6875 31.9844
Q23.25 30.7656 21.6875 26.6562
Q20.125 22.5625 19.2812 19.875
Q18.4531 17.1875 17.9219 14.5938
Q17.3906 12.0156 17.3906 9.42188
Q17.3906 6.10938 18.7969 3.8125
Q20.2188 1.51562 23.2969 1.51562
Q29.5 1.51562 34.4219 9.07812
L42 39.8906
Q42.3281 41.2188 43.5469 42.1562
Q44.7812 43.1094 46.1875 43.1094
Q47.4062 43.1094 48.3125 42.3281
Q49.2188 41.5469 49.2188 40.2812
Q49.2188 39.7031 49.125 39.5
L39.2031 -0.296875
Q37.8906 -5.42188 34.375 -10.1094
Q30.8594 -14.7969 25.9062 -17.6562
Q20.9531 -20.5156 15.5781 -20.5156
Q12.9844 -20.5156 10.4375 -19.5
Q7.90625 -18.5 6.34375 -16.5
Q4.78125 -14.5 4.78125 -11.8125
Q4.78125 -9.07812 6.39062 -7.07812
Q8.01562 -5.07812 10.6875 -5.07812
Q12.3125 -5.07812 13.4062 -6.07812
Q14.5 -7.07812 14.5 -8.6875
Q14.5 -10.9844 12.7812 -12.6875
Q11.0781 -14.4062 8.79688 -14.4062
Q8.6875 -14.3594 8.59375 -14.3281
Q8.5 -14.3125 8.40625 -14.3125" id="Cmmi10-79"/>
     </defs>
     <g transform="translate(36.5561057692 20.840625)scale(0.18 -0.18)">
      <use transform="translate(0.0 0.8125)" xlink:href="#Cmmi10-79"/>
     </g>
    </g>
   </g>
   <g id="patch_6">
    <path d="
M7.2 248.695
L250.03 248.695" style="fill:none;stroke:#000000;stroke-width:0.8;"/>
   </g>
   <g id="patch_7">
    <path d="
M41.0561 252.931
L41.0561 32.6206" style="fill:none;stroke:#000000;stroke-width:0.8;"/>
   </g>
   <g id="text_5">
    <!-- $y=f(x)$ -->
    <defs>
     <path d="
M31 -24.8125
Q25.4375 -20.4062 21.4062 -14.7188
Q17.3906 -9.03125 14.8125 -2.57812
Q12.25 3.85938 10.9844 10.8906
Q9.71875 17.9219 9.71875 25
Q9.71875 32.1719 10.9844 39.2031
Q12.25 46.2344 14.8594 52.7344
Q17.4844 59.2344 21.5312 64.8906
Q25.5938 70.5625 31 74.8125
Q31 75 31.5 75
L32.4219 75
Q32.7188 75 32.9531 74.7344
Q33.2031 74.4688 33.2031 74.125
Q33.2031 73.6875 33.0156 73.4844
Q28.125 68.7031 24.875 63.2344
Q21.625 57.7656 19.6406 51.5781
Q17.6719 45.4062 16.7969 38.7812
Q15.9219 32.1719 15.9219 25
Q15.9219 -6.78125 32.9062 -23.2969
Q33.2031 -23.5781 33.2031 -24.125
Q33.2031 -24.3594 32.9375 -24.6719
Q32.6719 -25 32.4219 -25
L31.5 -25
Q31 -25 31 -24.8125" id="Cmr10-28"/>
     <path d="
M6.5 -25
Q5.60938 -25 5.60938 -24.125
Q5.60938 -23.6875 5.8125 -23.4844
Q22.9062 -6.78125 22.9062 25
Q22.9062 56.7812 6 73.2969
Q5.60938 73.5312 5.60938 74.125
Q5.60938 74.4688 5.875 74.7344
Q6.15625 75 6.5 75
L7.42188 75
Q7.71875 75 7.90625 74.8125
Q15.0938 69.1406 19.875 61.0312
Q24.6562 52.9375 26.875 43.75
Q29.1094 34.5781 29.1094 25
Q29.1094 17.9219 27.9062 11.0625
Q26.7031 4.20312 24.0938 -2.45312
Q21.4844 -9.125 17.4844 -14.7656
Q13.4844 -20.4062 7.90625 -24.8125
Q7.71875 -25 7.42188 -25
z
" id="Cmr10-29"/>
     <path d="
M9.71875 -16.5
Q11.5781 -17.9219 14.2031 -17.9219
Q17.7812 -17.9219 20.0156 -10.0156
Q20.9531 -6.20312 25.0938 15.0938
L29.6875 39.5938
L21.0938 39.5938
Q20.125 39.5938 20.125 40.9219
Q20.5156 43.1094 21.3906 43.1094
L30.3281 43.1094
L31.5 49.6094
Q32.0781 52.6406 32.5625 54.8125
Q33.0625 56.9844 33.625 58.8281
Q34.1875 60.6875 35.2969 62.9844
Q37.0156 66.2656 39.9219 68.3906
Q42.8281 70.5156 46.1875 70.5156
Q48.3906 70.5156 50.4688 69.7031
Q52.5469 68.8906 53.8594 67.2812
Q55.1719 65.6719 55.1719 63.4844
Q55.1719 60.9375 53.4844 59.0469
Q51.8125 57.1719 49.4219 57.1719
Q47.7969 57.1719 46.6562 58.1719
Q45.5156 59.1875 45.5156 60.7969
Q45.5156 62.9844 47 64.625
Q48.4844 66.2656 50.6875 66.5
Q48.8281 67.9219 46.0938 67.9219
Q44.5781 67.9219 43.2344 66.5
Q41.8906 65.0938 41.5 63.4844
Q40.875 60.9375 38.7188 49.7031
L37.5 43.1094
L47.7969 43.1094
Q48.7812 43.1094 48.7812 41.7969
Q48.7344 41.5469 48.5781 40.9375
Q48.4375 40.3281 48.1719 39.9531
Q47.9062 39.5938 47.5156 39.5938
L36.8125 39.5938
L32.1719 15.1875
Q31.2969 9.85938 30.1406 4.35938
Q29 -1.125 26.9219 -6.90625
Q24.8594 -12.7031 21.625 -16.6094
Q18.4062 -20.5156 14.0156 -20.5156
Q10.6406 -20.5156 7.98438 -18.5781
Q5.32812 -16.6562 5.32812 -13.4844
Q5.32812 -10.9375 6.95312 -9.04688
Q8.59375 -7.17188 11.0781 -7.17188
Q12.75 -7.17188 13.8594 -8.17188
Q14.9844 -9.1875 14.9844 -10.7969
Q14.9844 -12.9375 13.3906 -14.7188
Q11.8125 -16.5 9.71875 -16.5" id="Cmmi10-66"/>
     <path d="
M7.51562 13.2812
Q6.6875 13.2812 6.14062 13.9062
Q5.60938 14.5469 5.60938 15.2812
Q5.60938 16.1094 6.14062 16.6875
Q6.6875 17.2812 7.51562 17.2812
L70.3125 17.2812
Q71.0469 17.2812 71.5781 16.6875
Q72.125 16.1094 72.125 15.2812
Q72.125 14.5469 71.5781 13.9062
Q71.0469 13.2812 70.3125 13.2812
z

M7.51562 32.7188
Q6.6875 32.7188 6.14062 33.2969
Q5.60938 33.8906 5.60938 34.7188
Q5.60938 35.4531 6.14062 36.0781
Q6.6875 36.7188 7.51562 36.7188
L70.3125 36.7188
Q71.0469 36.7188 71.5781 36.0781
Q72.125 35.4531 72.125 34.7188
Q72.125 33.8906 71.5781 33.2969
Q71.0469 32.7188 70.3125 32.7188
z
" id="Cmr10-3d"/>
    </defs>
    <g transform="translate(165.593485577 66.1820515902)scale(0.18 -0.18)">
     <use xlink:href="#Cmmi10-79"/>
     <use transform="translate(66.58203125 0.0)" xlink:href="#Cmr10-3d"/>
     <use transform="translate(150.640625 0.0)" xlink:href="#Cmmi10-66"/>
     <use transform="translate(199.517578125 0.0)" xlink:href="#Cmr10-28"/>
     <use transform="translate(238.3359375 0.0)" xlink:href="#Cmmi10-78"/>
     <use transform="translate(295.416015625 0.0)" xlink:href="#Cmr10-29"/>
    </g>
   </g>
   <g id="text_6">
    <!-- $A_1$ -->
    <defs>
     <path d="
M9.28125 0
L9.28125 3.51562
Q21.7812 3.51562 21.7812 6.6875
L21.7812 59.1875
Q16.6094 56.6875 8.6875 56.6875
L8.6875 60.2031
Q20.9531 60.2031 27.2031 66.6094
L28.6094 66.6094
Q28.9531 66.6094 29.2656 66.3281
Q29.5938 66.0625 29.5938 65.7188
L29.5938 6.6875
Q29.5938 3.51562 42.0938 3.51562
L42.0938 0
z
" id="Cmr10-31"/>
     <path d="
M4.5 0
Q3.51562 0 3.51562 1.3125
Q3.90625 3.51562 4.78125 3.51562
Q8.84375 3.51562 11.7969 5.125
Q14.75 6.73438 16.8906 10.1094
Q17.0938 10.2969 17.0938 10.2969
L52.7812 70.5156
Q53.5625 71.5781 54.6875 71.5781
L56 71.5781
Q56.2969 71.5781 56.5938 71.4531
Q56.8906 71.3438 57.1094 71.0625
Q57.3281 70.7969 57.3281 70.5156
L63.375 5.90625
Q63.375 5.46875 63.8125 4.59375
Q64.7969 3.51562 71.2969 3.51562
Q72.3125 3.51562 72.3125 2.20312
Q71.9688 0.875 71.75 0.4375
Q71.5312 0 70.6094 0
L45.6094 0
Q44.6719 0 44.6719 1.3125
Q45.2188 3.51562 46 3.51562
Q53.9062 3.51562 54.3906 6.20312
L52.875 22.7031
L28.2188 22.7031
L20.2188 9.28125
Q19.4844 8.20312 19.4844 6.78125
Q19.4844 5.03125 21.1719 4.26562
Q22.8594 3.51562 24.9062 3.51562
Q25.875 3.51562 25.875 2.20312
Q25.5312 0.78125 25.3281 0.390625
Q25.1406 0 24.2188 0
z

M30.1719 26.2188
L52.4844 26.2188
L49.5156 58.5938
z
" id="Cmmi10-41"/>
    </defs>
    <g transform="translate(92.2891893032 184.428684416)scale(0.18 -0.18)">
     <use transform="translate(0.0 0.421875)" xlink:href="#Cmmi10-41"/>
     <use transform="translate(75.0 -25.0875)scale(0.7)" xlink:href="#Cmr10-31"/>
    </g>
   </g>
   <g id="text_7">
    <!-- $A_2$ -->
    <defs>
     <path d="
M4.98438 0
L4.98438 2.6875
Q4.98438 2.9375 5.17188 3.21875
L20.7031 20.4062
Q24.2188 24.2188 26.4062 26.7969
Q28.6094 29.3906 30.75 32.7656
Q32.9062 36.1406 34.1562 39.625
Q35.4062 43.1094 35.4062 47.0156
Q35.4062 51.125 33.8906 54.8594
Q32.375 58.5938 29.375 60.8438
Q26.375 63.0938 22.125 63.0938
Q17.7812 63.0938 14.3125 60.4688
Q10.8438 57.8594 9.42188 53.7188
Q9.8125 53.8125 10.5 53.8125
Q12.75 53.8125 14.3281 52.2969
Q15.9219 50.7812 15.9219 48.3906
Q15.9219 46.0938 14.3281 44.5
Q12.75 42.9219 10.5 42.9219
Q8.15625 42.9219 6.5625 44.5469
Q4.98438 46.1875 4.98438 48.3906
Q4.98438 52.1562 6.39062 55.4375
Q7.8125 58.7344 10.4688 61.2969
Q13.1406 63.875 16.4844 65.2344
Q19.8281 66.6094 23.5781 66.6094
Q29.2969 66.6094 34.2188 64.1875
Q39.1562 61.7656 42.0312 57.3438
Q44.9219 52.9375 44.9219 47.0156
Q44.9219 42.6719 43.0156 38.7656
Q41.1094 34.8594 38.125 31.6562
Q35.1562 28.4688 30.5156 24.4062
Q25.875 20.3594 24.4219 19
L13.0938 8.10938
L22.7031 8.10938
Q29.7812 8.10938 34.5469 8.21875
Q39.3125 8.34375 39.5938 8.59375
Q40.7656 9.85938 42 17.8281
L44.9219 17.8281
L42.0938 0
z
" id="Cmr10-32"/>
    </defs>
    <g transform="translate(188.603972957 157.949024652)scale(0.18 -0.18)">
     <use transform="translate(0.0 0.421875)" xlink:href="#Cmmi10-41"/>
     <use transform="translate(75.0 -25.0875)scale(0.7)" xlink:href="#Cmr10-32"/>
    </g>
   </g>
   <g id="line2d_9">
    <path clip-path="url(#p9ce254f00c)" d="
M70.2424 248.695
L70.2424 167.049" style="fill:none;stroke:#000000;stroke-linecap:square;stroke-width:1.5;"/>
   </g>
   <g id="line2d_10">
    <path clip-path="url(#p9ce254f00c)" d="
M11.8698 136.156
L16.1842 141.883
L21.4444 148.474
L26.5728 154.485
L31.6312 160.014
L36.4963 164.957
L40.856 169.074
L45.4277 173.073
L49.9684 176.724
L54.1116 179.776
L58.0511 182.43
L61.1227 184.332
L65.9361 187.018
L69.3539 188.706
L72.8866 190.261
L76.1091 191.509
L80.9601 193.085
L84.9931 194.116
L88.1444 194.746
L92.538 195.366
L96.5314 195.67
L100.304 195.729
L104.046 195.57
L108.188 195.139
L111.691 194.567
L116.303 193.522
L120.956 192.134
L124.639 190.796
L128.85 189.008
L133.085 186.932
L136.748 184.912
L141.183 182.187
L144.123 180.212
L148.94 176.685
L153.46 173.048
L158.199 168.894
L163.548 163.785
L168.277 158.898
L172.84 153.853
L177.766 148.045
L182.046 142.692
L186.386 136.972
L191.708 129.559
L195.58 123.889
L201.776 114.331
L206.35 106.893
L212.311 96.71
L217.604 87.2051
L222.851 77.3547
L227.738 67.7934
L233.89 55.2321
L239.459 43.3526
L245.36 30.2375
L245.36 30.2375" style="fill:none;stroke:#0000ff;stroke-linecap:square;stroke-width:2.0;"/>
   </g>
  </g>
 </g>
 <defs>
  <clipPath id="p9ce254f00c">
   <rect height="220.310769231" width="242.83" x="7.2" y="32.620625"/>
  </clipPath>
 </defs>
</svg>
