<?xml version="1.0" encoding="utf-8" standalone="no"?>
<!DOCTYPE svg PUBLIC "-//W3C//DTD SVG 1.1//EN"
  "http://www.w3.org/Graphics/SVG/1.1/DTD/svg11.dtd">
<!-- Created with matplotlib (http://matplotlib.org/) -->
<svg height="277pt" version="1.1" viewBox="0 0 275 277" width="275pt" xmlns="http://www.w3.org/2000/svg" xmlns:xlink="http://www.w3.org/1999/xlink">
 <defs>
  <style type="text/css">
*{stroke-linecap:butt;stroke-linejoin:round;}
  </style>
 </defs>
 <g id="figure_1">
  <g id="patch_1">
   <path d="
M0 277.315
L275.67 277.315
L275.67 0
L0 0
z
" style="fill:#ffffff;"/>
  </g>
  <g id="axes_1">
   <g id="patch_2">
    <path d="
M7.2 252.931
L250.03 252.931
L250.03 32.6206
L7.2 32.6206
z
" style="fill:#ffffff;"/>
   </g>
   <g id="patch_3">
    <path clip-path="url(#p9ce254f00c)" d="
M70.2424 248.695
L70.2424 167.049
L71.0255 167.049
L71.4227 167.049
L72.4287 167.049
L73.1333 167.049
L73.6761 167.049
L74.3979 167.049
L75.44 167.049
L75.7913 167.049
L76.8728 167.049
L77.2919 167.049
L78.675 167.049
L78.8197 167.049
L79.978 167.049
L80.3593 167.049
L81.1789 167.049
L81.6711 167.049
L82.6475 167.049
L83.7686 167.049
L84.2363 167.049
L84.8349 167.049
L85.9439 167.049
L86.0942 167.049
L87.4249 167.049
L87.7029 167.049
L88.6446 167.049
L89.1865 167.049
L89.934 167.049
L90.6634 167.049
L91.838 167.049
L92.1241 167.049
L92.8679 167.049
L93.9543 167.049
L94.6278 167.049
L95.5154 167.049
L96.2292 167.049
L96.629 167.049
L97.4976 167.049
L98.1367 167.049
L98.9542 167.049
L99.5155 167.049
L100.661 167.049
L101.132 167.049
L101.456 167.049
L102.339 167.049
L103.354 167.049
L103.786 167.049
L104.643 167.049
L105.12 167.049
L106.534 167.049
L107.184 167.049
L107.83 167.049
L108.332 167.049
L109.02 167.049
L109.721 167.049
L110.562 167.049
L111.585 167.049
L112.18 167.049
L112.521 167.049
L113.23 167.049
L113.933 167.049
L115.188 167.049
L115.831 167.049
L116.613 167.049
L117.237 167.049
L117.716 167.049
L118.365 167.049
L119.637 167.049
L120.257 167.049
L120.811 167.049
L121.366 167.049
L122.12 167.049
L123.069 167.049
L124.012 167.049
L124.872 167.049
L124.99 167.049
L126.192 167.049
L126.707 167.049
L127.32 167.049
L128.505 167.049
L128.876 167.049
L129.952 167.049
L130.477 167.049
L130.867 167.049
L132.182 167.049
L132.329 167.049
L133.239 167.049
L134.026 167.049
L134.733 167.049
L135.613 167.049
L136.139 167.049
L137.276 167.049
L137.954 167.049
L138.583 167.049
L139.328 167.049
L139.764 167.049
L140.438 167.049
L141.11 167.049
L142.1 167.049
L142.765 167.049
L143.413 167.049
L144.138 167.049
L145.358 167.049
L145.707 167.049
L146.155 167.049
L147.479 167.049
L148.319 167.049
L148.606 167.049
L149.443 167.049
L150.206 167.049
L151.018 167.049
L151.9 167.049
L152.355 167.049
L152.792 167.049
L153.921 167.049
L154.545 167.049
L155.114 167.049
L156.081 167.049
L156.656 167.049
L157.237 167.049
L157.991 167.049
L158.737 167.049
L159.627 167.049
L160.779 167.049
L161.09 167.049
L161.852 167.049
L162.7 167.049
L163.452 167.049
L164.089 167.049
L165.16 167.049
L165.443 167.049
L166.563 167.049
L167.402 167.049
L167.441 167.049
L168.702 167.049
L168.967 167.049
L169.72 167.049
L170.999 167.049
L171.671 167.049
L172.442 167.049
L172.837 167.049
L173.559 167.049
L174.541 167.049
L175.232 167.049
L175.49 167.049
L176.913 167.049
L177.102 167.049
L177.881 167.049
L178.862 167.049
L179.644 167.049
L180.35 167.049
L181.097 167.049
L181.709 167.049
L182.341 167.049
L183.317 167.049
L183.747 167.049
L184.798 167.049
L185.208 167.049
L186.371 167.049
L186.507 167.049
L187.283 167.049
L187.964 167.049
L189.271 167.049
L189.893 167.049
L190.81 167.049
L191.438 167.049
L192.327 167.049
L192.595 167.049
L193.577 167.049
L193.885 167.049
L194.911 167.049
L195.625 167.049
L196.64 167.049
L196.794 167.049
L198.11 167.049
L198.277 167.049
L199.486 167.049
L200.129 167.049
L200.523 167.049
L201.416 167.049
L202.392 167.049
L202.971 167.049
L203.771 167.049
L204.096 167.049
L205.507 167.049
L206.142 167.049
L206.813 167.049
L207.35 167.049
L208.108 167.049
L208.925 167.049
L209.699 167.049
L210.014 167.049
L210.738 167.049
L211.893 167.049
L212.749 167.049
L213.41 167.049
L213.677 167.049
L214.643 167.049
L215.414 167.049
L216.174 167.049
L216.174 248.695
z
" style="fill:#008000;opacity:0.5;"/>
   </g>
   <g id="line2d_1">
    <path clip-path="url(#p9ce254f00c)" d="
M11.8698 248.695
L245.36 248.695
L245.36 248.695" style="fill:none;"/>
   </g>
   <g id="line2d_2">
    <path clip-path="url(#p9ce254f00c)" d="
M11.8698 167.049
L245.36 167.049
L245.36 167.049" style="fill:none;stroke:#006400;stroke-linecap:square;stroke-width:2.0;"/>
   </g>
   <g id="line2d_3">
    <path clip-path="url(#p9ce254f00c)" d="
M70.2424 167.049
L216.174 167.049
L216.174 167.049" style="fill:none;"/>
   </g>
   <g id="line2d_4">
    <path clip-path="url(#p9ce254f00c)" d="
M216.174 248.695
L216.174 167.049" style="fill:none;stroke:#000000;stroke-linecap:square;stroke-width:1.5;"/>
   </g>
   <g id="matplotlib.axis_1">
    <g id="xtick_1">
     <g id="line2d_5">
      <defs>
       <path d="
M0 0
L0 -4" id="m93b0483c22" style="stroke:#000000;stroke-width:0.5;"/>
      </defs>
      <g>
       <use style="stroke:#000000;stroke-width:0.5;" x="70.2424038462" xlink:href="#m93b0483c22" y="248.694648669"/>
      </g>
     </g>
     <g id="text_1">
      <!-- $a$ -->
      <defs>
       <path d="
M17.3906 -1.125
Q11.0781 -1.125 7.4375 3.64062
Q3.8125 8.40625 3.8125 14.8906
Q3.8125 21.2969 7.125 28.1719
Q10.4531 35.0625 16.0938 39.625
Q21.7344 44.1875 28.2188 44.1875
Q31.2031 44.1875 33.5469 42.5781
Q35.8906 40.9688 37.2031 38.1875
Q38.3281 42.1875 41.6094 42.1875
Q42.875 42.1875 43.7188 41.4219
Q44.5781 40.6719 44.5781 39.4062
Q44.5781 39.1094 44.5469 38.9531
Q44.5312 38.8125 44.4844 38.625
L37.5 10.6875
Q36.8125 7.71875 36.8125 5.8125
Q36.8125 1.51562 39.7031 1.51562
Q42.8281 1.51562 44.4531 5.48438
Q46.0938 9.46875 47.2188 14.7031
Q47.4062 15.2812 48 15.2812
L49.2188 15.2812
Q49.6094 15.2812 49.8438 14.9375
Q50.0938 14.5938 50.0938 14.3125
Q48.3438 7.32812 46.2656 3.09375
Q44.1875 -1.125 39.5 -1.125
Q36.1406 -1.125 33.5469 0.84375
Q30.9531 2.82812 30.3281 6.10938
Q23.875 -1.125 17.3906 -1.125
M17.4844 1.51562
Q21.0938 1.51562 24.4844 4.21875
Q27.875 6.9375 30.3281 10.5938
Q30.4219 10.6875 30.4219 10.8906
L35.7969 32.625
L35.8906 32.9062
Q35.2969 36.4688 33.3125 39.0312
Q31.3438 41.6094 27.9844 41.6094
Q24.6094 41.6094 21.7031 38.8438
Q18.7969 36.0781 16.7969 32.3281
Q14.8438 28.3281 13.0625 21.3438
Q11.2812 14.3594 11.2812 10.5
Q11.2812 7.03125 12.7656 4.26562
Q14.2656 1.51562 17.4844 1.51562" id="Cmmi10-61"/>
      </defs>
      <g transform="translate(65.4724038462 266.371836169)scale(0.18 -0.18)">
       <use transform="translate(0.0 0.8125)" xlink:href="#Cmmi10-61"/>
      </g>
     </g>
    </g>
    <g id="xtick_2">
     <g id="line2d_6">
      <g>
       <use style="stroke:#000000;stroke-width:0.5;" x="216.173894231" xlink:href="#m93b0483c22" y="248.694648669"/>
      </g>
     </g>
     <g id="text_2">
      <!-- $b$ -->
      <defs>
       <path d="
M17.2812 -1.125
Q11.2344 -1.125 7.85938 3.60938
Q4.5 8.34375 4.5 14.7031
Q4.5 15.625 4.95312 18.3281
Q5.42188 21.0469 5.42188 21.6875
L15.0938 60.5
Q15.4844 62.2031 15.5781 63.1875
Q15.5781 64.7969 9.07812 64.7969
Q8.10938 64.7969 8.10938 66.1094
Q8.15625 66.3594 8.32812 66.9844
Q8.5 67.625 8.76562 67.9688
Q9.03125 68.3125 9.51562 68.3125
L23 69.3906
Q24.2188 69.3906 24.2188 68.1094
L16.7969 38.625
Q22.4688 44.1875 28.2188 44.1875
Q32.4688 44.1875 35.5156 41.9375
Q38.5781 39.7031 40.0938 36.0312
Q41.6094 32.375 41.6094 28.2188
Q41.6094 23.3906 39.7188 18.2344
Q37.8438 13.0938 34.5156 8.67188
Q31.2031 4.25 26.75 1.5625
Q22.3125 -1.125 17.2812 -1.125
M17.4844 1.51562
Q20.9062 1.51562 23.875 4.375
Q26.8594 7.23438 28.7188 10.7969
Q30.7188 14.7969 32.4531 21.6562
Q34.1875 28.5156 34.1875 32.625
Q34.1875 36.1875 32.6875 38.8906
Q31.2031 41.6094 27.9844 41.6094
Q24.3594 41.6094 21.0625 38.9375
Q17.7812 36.2812 15.2812 32.625
L12.5 21.2969
Q10.8906 14.9844 10.7969 11.1875
Q10.7969 7.42188 12.4219 4.46875
Q14.0625 1.51562 17.4844 1.51562" id="Cmmi10-62"/>
      </defs>
      <g transform="translate(212.303894231 266.371836169)scale(0.18 -0.18)">
       <use transform="translate(0.0 0.609375)" xlink:href="#Cmmi10-62"/>
      </g>
     </g>
    </g>
    <g id="text_3">
     <!-- $x$ -->
     <defs>
      <path d="
M7.8125 2.875
Q9.57812 1.51562 12.7969 1.51562
Q15.9219 1.51562 18.3125 4.51562
Q20.7031 7.51562 21.5781 11.0781
L26.125 28.8125
Q27.2031 33.6406 27.2031 35.4062
Q27.2031 37.8906 25.8125 39.75
Q24.4219 41.6094 21.9219 41.6094
Q18.75 41.6094 15.9688 39.625
Q13.1875 37.6406 11.2812 34.5938
Q9.375 31.5469 8.59375 28.4219
Q8.40625 27.7812 7.8125 27.7812
L6.59375 27.7812
Q5.8125 27.7812 5.8125 28.7188
L5.8125 29
Q6.78125 32.7188 9.125 36.25
Q11.4688 39.7969 14.8594 41.9844
Q18.2656 44.1875 22.125 44.1875
Q25.7812 44.1875 28.7344 42.2344
Q31.6875 40.2812 32.9062 36.9219
Q34.625 39.9844 37.2812 42.0781
Q39.9375 44.1875 43.1094 44.1875
Q45.2656 44.1875 47.5 43.4219
Q49.75 42.6719 51.1719 41.1094
Q52.5938 39.5469 52.5938 37.2031
Q52.5938 34.6719 50.9531 32.8281
Q49.3125 31 46.7812 31
Q45.1719 31 44.0938 32.0312
Q43.0156 33.0625 43.0156 34.625
Q43.0156 36.7188 44.4531 38.2969
Q45.9062 39.8906 47.9062 40.1875
Q46.0938 41.6094 42.9219 41.6094
Q39.7031 41.6094 37.3281 38.625
Q34.9688 35.6406 33.9844 31.9844
L29.5938 14.3125
Q28.5156 10.2969 28.5156 7.71875
Q28.5156 5.17188 29.9531 3.34375
Q31.3906 1.51562 33.7969 1.51562
Q38.4844 1.51562 42.1562 5.64062
Q45.8438 9.76562 47.0156 14.7031
Q47.2188 15.2812 47.7969 15.2812
L49.0312 15.2812
Q49.4219 15.2812 49.6562 15.0156
Q49.9062 14.75 49.9062 14.4062
Q49.9062 14.3125 49.8125 14.1094
Q48.3906 8.15625 43.8438 3.51562
Q39.3125 -1.125 33.5938 -1.125
Q29.9375 -1.125 26.9844 0.84375
Q24.0312 2.82812 22.7969 6.20312
Q21.2344 3.26562 18.4688 1.0625
Q15.7188 -1.125 12.5938 -1.125
Q10.4531 -1.125 8.17188 -0.359375
Q5.90625 0.390625 4.48438 1.95312
Q3.07812 3.51562 3.07812 5.90625
Q3.07812 8.25 4.70312 10.1719
Q6.34375 12.1094 8.79688 12.1094
Q10.4531 12.1094 11.5781 11.1094
Q12.7031 10.1094 12.7031 8.5
Q12.7031 6.39062 11.2969 4.82812
Q9.90625 3.26562 7.8125 2.875" id="Cmmi10-78"/>
     </defs>
     <g transform="translate(258.03 248.694648669)scale(0.18 -0.18)">
      <use transform="translate(0.0 0.8125)" xlink:href="#Cmmi10-78"/>
     </g>
    </g>
   </g>
   <g id="matplotlib.axis_2">
    <g id="text_4">
     <!-- $y$ -->
     <defs>
      <path d="
M8.40625 -14.3125
Q10.5 -17.9219 15.7188 -17.9219
Q20.4531 -17.9219 23.9219 -14.5938
Q27.3906 -11.2812 29.5156 -6.5625
Q31.6406 -1.85938 32.8125 3.07812
Q28.375 -1.125 23.1875 -1.125
Q19.2344 -1.125 16.4531 0.234375
Q13.6719 1.60938 12.125 4.3125
Q10.5938 7.03125 10.5938 10.8906
Q10.5938 14.1562 11.4688 17.5938
Q12.3594 21.0469 13.9375 25.2656
Q15.5312 29.5 16.7031 32.625
Q18.0156 36.2812 18.0156 38.625
Q18.0156 41.6094 15.8281 41.6094
Q11.8594 41.6094 9.29688 37.5312
Q6.73438 33.4531 5.51562 28.4219
Q5.32812 27.7812 4.6875 27.7812
L3.51562 27.7812
Q2.6875 27.7812 2.6875 28.7188
L2.6875 29
Q4.29688 34.9688 7.60938 39.5781
Q10.9375 44.1875 16.0156 44.1875
Q19.5781 44.1875 22.0469 41.8438
Q24.5156 39.5 24.5156 35.8906
Q24.5156 34.0312 23.6875 31.9844
Q23.25 30.7656 21.6875 26.6562
Q20.125 22.5625 19.2812 19.875
Q18.4531 17.1875 17.9219 14.5938
Q17.3906 12.0156 17.3906 9.42188
Q17.3906 6.10938 18.7969 3.8125
Q20.2188 1.51562 23.2969 1.51562
Q29.5 1.51562 34.4219 9.07812
L42 39.8906
Q42.3281 41.2188 43.5469 42.1562
Q44.7812 43.1094 46.1875 43.1094
Q47.4062 43.1094 48.3125 42.3281
Q49.2188 41.5469 49.2188 40.2812
Q49.2188 39.7031 49.125 39.5
L39.2031 -0.296875
Q37.8906 -5.42188 34.375 -10.1094
Q30.8594 -14.7969 25.9062 -17.6562
Q20.9531 -20.5156 15.5781 -20.5156
Q12.9844 -20.5156 10.4375 -19.5
Q7.90625 -18.5 6.34375 -16.5
Q4.78125 -14.5 4.78125 -11.8125
Q4.78125 -9.07812 6.39062 -7.07812
Q8.01562 -5.07812 10.6875 -5.07812
Q12.3125 -5.07812 13.4062 -6.07812
Q14.5 -7.07812 14.5 -8.6875
Q14.5 -10.9844 12.7812 -12.6875
Q11.0781 -14.4062 8.79688 -14.4062
Q8.6875 -14.3594 8.59375 -14.3281
Q8.5 -14.3125 8.40625 -14.3125" id="Cmmi10-79"/>
     </defs>
     <g transform="translate(36.5561057692 20.840625)scale(0.18 -0.18)">
      <use transform="translate(0.0 0.8125)" xlink:href="#Cmmi10-79"/>
     </g>
    </g>
   </g>
   <g id="patch_4">
    <path d="
M7.2 248.695
L250.03 248.695" style="fill:none;stroke:#000000;stroke-width:0.8;"/>
   </g>
   <g id="patch_5">
    <path d="
M41.0561 252.931
L41.0561 32.6206" style="fill:none;stroke:#000000;stroke-width:0.8;"/>
   </g>
   <g id="text_5">
    <!-- $y=f(x)$ -->
    <defs>
     <path d="
M31 -24.8125
Q25.4375 -20.4062 21.4062 -14.7188
Q17.3906 -9.03125 14.8125 -2.57812
Q12.25 3.85938 10.9844 10.8906
Q9.71875 17.9219 9.71875 25
Q9.71875 32.1719 10.9844 39.2031
Q12.25 46.2344 14.8594 52.7344
Q17.4844 59.2344 21.5312 64.8906
Q25.5938 70.5625 31 74.8125
Q31 75 31.5 75
L32.4219 75
Q32.7188 75 32.9531 74.7344
Q33.2031 74.4688 33.2031 74.125
Q33.2031 73.6875 33.0156 73.4844
Q28.125 68.7031 24.875 63.2344
Q21.625 57.7656 19.6406 51.5781
Q17.6719 45.4062 16.7969 38.7812
Q15.9219 32.1719 15.9219 25
Q15.9219 -6.78125 32.9062 -23.2969
Q33.2031 -23.5781 33.2031 -24.125
Q33.2031 -24.3594 32.9375 -24.6719
Q32.6719 -25 32.4219 -25
L31.5 -25
Q31 -25 31 -24.8125" id="Cmr10-28"/>
     <path d="
M6.5 -25
Q5.60938 -25 5.60938 -24.125
Q5.60938 -23.6875 5.8125 -23.4844
Q22.9062 -6.78125 22.9062 25
Q22.9062 56.7812 6 73.2969
Q5.60938 73.5312 5.60938 74.125
Q5.60938 74.4688 5.875 74.7344
Q6.15625 75 6.5 75
L7.42188 75
Q7.71875 75 7.90625 74.8125
Q15.0938 69.1406 19.875 61.0312
Q24.6562 52.9375 26.875 43.75
Q29.1094 34.5781 29.1094 25
Q29.1094 17.9219 27.9062 11.0625
Q26.7031 4.20312 24.0938 -2.45312
Q21.4844 -9.125 17.4844 -14.7656
Q13.4844 -20.4062 7.90625 -24.8125
Q7.71875 -25 7.42188 -25
z
" id="Cmr10-29"/>
     <path d="
M9.71875 -16.5
Q11.5781 -17.9219 14.2031 -17.9219
Q17.7812 -17.9219 20.0156 -10.0156
Q20.9531 -6.20312 25.0938 15.0938
L29.6875 39.5938
L21.0938 39.5938
Q20.125 39.5938 20.125 40.9219
Q20.5156 43.1094 21.3906 43.1094
L30.3281 43.1094
L31.5 49.6094
Q32.0781 52.6406 32.5625 54.8125
Q33.0625 56.9844 33.625 58.8281
Q34.1875 60.6875 35.2969 62.9844
Q37.0156 66.2656 39.9219 68.3906
Q42.8281 70.5156 46.1875 70.5156
Q48.3906 70.5156 50.4688 69.7031
Q52.5469 68.8906 53.8594 67.2812
Q55.1719 65.6719 55.1719 63.4844
Q55.1719 60.9375 53.4844 59.0469
Q51.8125 57.1719 49.4219 57.1719
Q47.7969 57.1719 46.6562 58.1719
Q45.5156 59.1875 45.5156 60.7969
Q45.5156 62.9844 47 64.625
Q48.4844 66.2656 50.6875 66.5
Q48.8281 67.9219 46.0938 67.9219
Q44.5781 67.9219 43.2344 66.5
Q41.8906 65.0938 41.5 63.4844
Q40.875 60.9375 38.7188 49.7031
L37.5 43.1094
L47.7969 43.1094
Q48.7812 43.1094 48.7812 41.7969
Q48.7344 41.5469 48.5781 40.9375
Q48.4375 40.3281 48.1719 39.9531
Q47.9062 39.5938 47.5156 39.5938
L36.8125 39.5938
L32.1719 15.1875
Q31.2969 9.85938 30.1406 4.35938
Q29 -1.125 26.9219 -6.90625
Q24.8594 -12.7031 21.625 -16.6094
Q18.4062 -20.5156 14.0156 -20.5156
Q10.6406 -20.5156 7.98438 -18.5781
Q5.32812 -16.6562 5.32812 -13.4844
Q5.32812 -10.9375 6.95312 -9.04688
Q8.59375 -7.17188 11.0781 -7.17188
Q12.75 -7.17188 13.8594 -8.17188
Q14.9844 -9.1875 14.9844 -10.7969
Q14.9844 -12.9375 13.3906 -14.7188
Q11.8125 -16.5 9.71875 -16.5" id="Cmmi10-66"/>
     <path d="
M7.51562 13.2812
Q6.6875 13.2812 6.14062 13.9062
Q5.60938 14.5469 5.60938 15.2812
Q5.60938 16.1094 6.14062 16.6875
Q6.6875 17.2812 7.51562 17.2812
L70.3125 17.2812
Q71.0469 17.2812 71.5781 16.6875
Q72.125 16.1094 72.125 15.2812
Q72.125 14.5469 71.5781 13.9062
Q71.0469 13.2812 70.3125 13.2812
z

M7.51562 32.7188
Q6.6875 32.7188 6.14062 33.2969
Q5.60938 33.8906 5.60938 34.7188
Q5.60938 35.4531 6.14062 36.0781
Q6.6875 36.7188 7.51562 36.7188
L70.3125 36.7188
Q71.0469 36.7188 71.5781 36.0781
Q72.125 35.4531 72.125 34.7188
Q72.125 33.8906 71.5781 33.2969
Q71.0469 32.7188 70.3125 32.7188
z
" id="Cmr10-3d"/>
    </defs>
    <g transform="translate(165.593485577 66.1820515902)scale(0.18 -0.18)">
     <use xlink:href="#Cmmi10-79"/>
     <use transform="translate(66.58203125 0.0)" xlink:href="#Cmr10-3d"/>
     <use transform="translate(150.640625 0.0)" xlink:href="#Cmmi10-66"/>
     <use transform="translate(199.517578125 0.0)" xlink:href="#Cmr10-28"/>
     <use transform="translate(238.3359375 0.0)" xlink:href="#Cmmi10-78"/>
     <use transform="translate(295.416015625 0.0)" xlink:href="#Cmr10-29"/>
    </g>
   </g>
   <g id="text_6">
    <!-- $f_{AVG[a,b]}$ -->
    <defs>
     <path d="
M2.20312 -25
L2.20312 -21
L11.9219 -21
L11.9219 71
L2.20312 71
L2.20312 75
L15.9219 75
L15.9219 -25
z
" id="Cmr10-5d"/>
     <path d="
M11.8125 -25
L11.8125 75
L25.4844 75
L25.4844 71
L15.8281 71
L15.8281 -21
L25.4844 -21
L25.4844 -25
z
" id="Cmr10-5b"/>
     <path d="
M22.0156 -1.125
L14.0156 62.5938
Q13.2812 64.7969 6.5 64.7969
Q5.51562 64.7969 5.51562 66.1094
Q5.71875 67.1875 6 67.75
Q6.29688 68.3125 7.17188 68.3125
L31.5938 68.3125
Q32.125 68.3125 32.375 67.9219
Q32.625 67.5312 32.625 67
Q32.2344 64.7969 31.2969 64.7969
Q23.4844 64.7969 23 62.1094
L29.5938 9.8125
L60.4062 58.9844
Q61.2812 60.6406 61.2812 61.625
Q61.2812 63.375 59.6875 64.0781
Q58.1094 64.7969 56 64.7969
Q54.9844 64.7969 54.9844 66.1094
Q55.1719 66.8906 55.3125 67.3281
Q55.4688 67.7812 55.7656 68.0469
Q56.0625 68.3125 56.6875 68.3125
L75.9844 68.3125
Q76.9062 68.3125 76.9062 67
Q76.5156 64.7969 75.5938 64.7969
Q68.0625 64.7969 63.8125 58.2031
Q63.625 58.0156 63.4844 58.0156
L26.6094 -1.125
Q25.875 -2.20312 24.7031 -2.20312
L23.2969 -2.20312
Q22.1719 -2.20312 22.0156 -1.125" id="Cmmi10-56"/>
     <path d="
M14.5938 21.9219
Q14.5938 15.7188 17.0625 11.0469
Q19.5312 6.39062 24.1719 3.84375
Q28.8125 1.3125 34.9062 1.3125
Q40.875 1.3125 46.2344 4.125
Q51.6094 6.9375 52.9844 12.2031
L55.1719 20.7969
Q55.2188 21.0938 55.2656 21.4062
Q55.3281 21.7344 55.3281 21.9219
Q55.3281 22.9531 54.6875 23.0938
Q52.2031 23.7812 44.6719 23.7812
Q43.7031 23.7812 43.7031 25.0938
Q44 26.3125 44.2344 26.7969
Q44.4844 27.2969 45.4062 27.2969
L71.1875 27.2969
Q72.2188 27.2969 72.2188 25.9844
Q72.1719 25.7344 72.0156 25.1406
Q71.875 24.5625 71.625 24.1719
Q71.3906 23.7812 70.9062 23.7812
Q67.5781 23.7812 66.0312 23.2344
Q64.5 22.7031 63.9219 20.4062
L61.7188 11.8125
L58.8906 0.6875
Q58.7344 0 58.0156 0
Q57.1719 0 55.6094 2.25
Q54.0469 4.5 53.4219 6
Q49.9531 1.90625 44.1406 -0.140625
Q38.3281 -2.20312 32.1719 -2.20312
Q24.4219 -2.20312 18.1875 1.3125
Q11.9688 4.82812 8.51562 11.0781
Q5.07812 17.3281 5.07812 25.2031
Q5.07812 33.5938 8.8125 41.7656
Q12.5469 49.9531 18.9375 56.4219
Q25.3438 62.8906 33.4688 66.7031
Q41.6094 70.5156 49.9062 70.5156
Q53.2188 70.5156 56.2656 69.4844
Q59.3281 68.4531 61.9375 66.4219
Q64.5469 64.4062 66.2188 61.7188
L74.125 70.3125
Q74.125 70.5156 74.6094 70.5156
L75.2031 70.5156
Q75.5938 70.5156 75.8594 70.1875
Q76.125 69.875 76.125 69.4844
L69.2812 42.4844
Q69.2812 41.7969 68.5 41.7969
L66.7031 41.7969
Q65.9219 41.7969 65.9219 42.9219
Q66.3125 45.125 66.3125 48.0938
Q66.3125 53.0312 64.6406 57.375
Q62.9844 61.7188 59.4688 64.3594
Q55.9531 67 50.875 67
Q42.8281 67 35.9844 62.9219
Q29.1562 58.8438 24.4062 52.1406
Q19.6719 45.4531 17.125 37.4375
Q14.5938 29.4375 14.5938 21.9219" id="Cmmi10-47"/>
     <path d="
M4.5 0
Q3.51562 0 3.51562 1.3125
Q3.90625 3.51562 4.78125 3.51562
Q8.84375 3.51562 11.7969 5.125
Q14.75 6.73438 16.8906 10.1094
Q17.0938 10.2969 17.0938 10.2969
L52.7812 70.5156
Q53.5625 71.5781 54.6875 71.5781
L56 71.5781
Q56.2969 71.5781 56.5938 71.4531
Q56.8906 71.3438 57.1094 71.0625
Q57.3281 70.7969 57.3281 70.5156
L63.375 5.90625
Q63.375 5.46875 63.8125 4.59375
Q64.7969 3.51562 71.2969 3.51562
Q72.3125 3.51562 72.3125 2.20312
Q71.9688 0.875 71.75 0.4375
Q71.5312 0 70.6094 0
L45.6094 0
Q44.6719 0 44.6719 1.3125
Q45.2188 3.51562 46 3.51562
Q53.9062 3.51562 54.3906 6.20312
L52.875 22.7031
L28.2188 22.7031
L20.2188 9.28125
Q19.4844 8.20312 19.4844 6.78125
Q19.4844 5.03125 21.1719 4.26562
Q22.8594 3.51562 24.9062 3.51562
Q25.875 3.51562 25.875 2.20312
Q25.5312 0.78125 25.3281 0.390625
Q25.1406 0 24.2188 0
z

M30.1719 26.2188
L52.4844 26.2188
L49.5156 58.5938
z
" id="Cmmi10-41"/>
     <path d="
M9.90625 -18.0156
Q9.90625 -17.5781 10.2969 -17.1875
Q13.9219 -13.7188 15.9219 -9.17188
Q17.9219 -4.64062 17.9219 0.390625
L17.9219 1.60938
Q16.3125 0 13.9219 0
Q11.625 0 10.0156 1.60938
Q8.40625 3.21875 8.40625 5.51562
Q8.40625 7.85938 10.0156 9.42188
Q11.625 10.9844 13.9219 10.9844
Q17.4844 10.9844 19 7.6875
Q20.5156 4.39062 20.5156 0.390625
Q20.5156 -5.17188 18.2812 -10.1719
Q16.0625 -15.1875 12.0156 -19.1875
Q11.625 -19.3906 11.375 -19.3906
Q10.8906 -19.3906 10.3906 -18.9375
Q9.90625 -18.5 9.90625 -18.0156" id="Cmmi10-3b"/>
    </defs>
    <g transform="translate(55.6755528846 156.239024652)scale(0.18 -0.18)">
     <use transform="translate(0.0 0.484375)" xlink:href="#Cmmi10-66"/>
     <use transform="translate(48.876953125 -25.025)scale(0.7)" xlink:href="#Cmmi10-41"/>
     <use transform="translate(101.376953125 -25.025)scale(0.7)" xlink:href="#Cmmi10-56"/>
     <use transform="translate(142.1875 -25.025)scale(0.7)" xlink:href="#Cmmi10-47"/>
     <use transform="translate(197.216796875 -25.025)scale(0.7)" xlink:href="#Cmr10-5b"/>
     <use transform="translate(216.596679688 -25.025)scale(0.7)" xlink:href="#Cmmi10-61"/>
     <use transform="translate(253.544921875 -25.025)scale(0.7)" xlink:href="#Cmmi10-3b"/>
     <use transform="translate(274.3125 -25.025)scale(0.7)" xlink:href="#Cmmi10-62"/>
     <use transform="translate(304.356445312 -25.025)scale(0.7)" xlink:href="#Cmr10-5d"/>
    </g>
   </g>
   <g id="text_7">
    <!-- $(b-a)\cdot f_{AVG[a,b]}$ -->
    <defs>
     <path d="
M8.40625 25
Q8.40625 26.4219 9.125 27.6875
Q9.85938 28.9531 11.1562 29.7344
Q12.4531 30.5156 13.9219 30.5156
Q15.3281 30.5156 16.625 29.7344
Q17.9219 28.9531 18.6562 27.6875
Q19.3906 26.4219 19.3906 25
Q19.3906 22.75 17.7969 21.1094
Q16.2188 19.4844 13.9219 19.4844
Q11.6719 19.4844 10.0312 21.1094
Q8.40625 22.75 8.40625 25" id="Cmsy10-a2"/>
     <path d="
M10.2031 23
Q9.375 23 8.82812 23.625
Q8.29688 24.2656 8.29688 25
Q8.29688 25.7344 8.82812 26.3594
Q9.375 27 10.2031 27
L67.5781 27
Q68.3594 27 68.875 26.3594
Q69.3906 25.7344 69.3906 25
Q69.3906 24.2656 68.875 23.625
Q68.3594 23 67.5781 23
z
" id="Cmsy10-a1"/>
    </defs>
    <g transform="translate(87.3181490385 225.004988905)scale(0.18 -0.18)">
     <use xlink:href="#Cmr10-28"/>
     <use transform="translate(38.818359375 0.0)" xlink:href="#Cmmi10-62"/>
     <use transform="translate(81.73828125 0.0)" xlink:href="#Cmsy10-a1"/>
     <use transform="translate(159.423828125 0.0)" xlink:href="#Cmmi10-61"/>
     <use transform="translate(212.20703125 0.0)" xlink:href="#Cmr10-29"/>
     <use transform="translate(268.583984375 0.0)" xlink:href="#Cmsy10-a2"/>
     <use transform="translate(297.126953125 0.0)" xlink:href="#Cmmi10-66"/>
     <use transform="translate(346.00390625 -25.509375)scale(0.7)" xlink:href="#Cmmi10-41"/>
     <use transform="translate(398.50390625 -25.509375)scale(0.7)" xlink:href="#Cmmi10-56"/>
     <use transform="translate(439.314453125 -25.509375)scale(0.7)" xlink:href="#Cmmi10-47"/>
     <use transform="translate(494.34375 -25.509375)scale(0.7)" xlink:href="#Cmr10-5b"/>
     <use transform="translate(513.723632812 -25.509375)scale(0.7)" xlink:href="#Cmmi10-61"/>
     <use transform="translate(550.671875 -25.509375)scale(0.7)" xlink:href="#Cmmi10-3b"/>
     <use transform="translate(571.439453125 -25.509375)scale(0.7)" xlink:href="#Cmmi10-62"/>
     <use transform="translate(601.483398438 -25.509375)scale(0.7)" xlink:href="#Cmr10-5d"/>
    </g>
   </g>
   <g id="line2d_7">
    <path clip-path="url(#p9ce254f00c)" d="
M70.2424 248.695
L70.2424 167.049" style="fill:none;stroke:#000000;stroke-linecap:square;stroke-width:1.5;"/>
   </g>
   <g id="line2d_8">
    <path clip-path="url(#p9ce254f00c)" d="
M11.8698 136.156
L16.5388 142.341
L21.2997 148.298
L26.5932 154.508
L30.4427 158.751
L35.4779 163.953
L40.0669 168.351
L44.3819 172.187
L47.8845 175.088
L52.7166 178.778
L56.9486 181.712
L60.5668 183.999
L64.443 186.223
L69.2335 188.65
L72.9486 190.286
L76.5364 191.663
L80.8878 193.064
L85.1148 194.143
L88.9246 194.878
L92.9842 195.413
L96.3565 195.662
L99.5589 195.735
L102.895 195.642
L107.191 195.267
L109.85 194.891
L113.613 194.172
L118.351 192.953
L122.164 191.718
L126.419 190.074
L130.539 188.214
L134.574 186.136
L138.927 183.611
L142.774 181.134
L147.392 177.858
L151.739 174.47
L156.442 170.474
L161.062 166.215
L165.234 162.083
L170.404 156.587
L174.647 151.767
L180.046 145.228
L184.702 139.226
L189.905 132.12
L194.323 125.756
L200.593 116.202
L205.442 108.394
L209.72 101.204
L214.29 93.2068
L219.796 83.142
L225.038 73.1229
L230.578 62.0676
L236.404 49.9289
L242.456 36.7591
L245.36 30.2375
L245.36 30.2375" style="fill:none;stroke:#0000ff;stroke-linecap:square;stroke-width:2.0;"/>
   </g>
  </g>
 </g>
 <defs>
  <clipPath id="p9ce254f00c">
   <rect height="220.310769231" width="242.83" x="7.2" y="32.620625"/>
  </clipPath>
 </defs>
</svg>
