<?xml version="1.0" encoding="utf-8" standalone="no"?>
<!DOCTYPE svg PUBLIC "-//W3C//DTD SVG 1.1//EN"
  "http://www.w3.org/Graphics/SVG/1.1/DTD/svg11.dtd">
<!-- Created with matplotlib (http://matplotlib.org/) -->
<svg height="276pt" version="1.1" viewBox="0 0 276 276" width="276pt" xmlns="http://www.w3.org/2000/svg" xmlns:xlink="http://www.w3.org/1999/xlink">
 <defs>
  <style type="text/css">
*{stroke-linecap:butt;stroke-linejoin:round;}
  </style>
 </defs>
 <g id="figure_1">
  <g id="patch_1">
   <path d="
M0 276.801
L276.92 276.801
L276.92 0
L0 0
z
" style="fill:#ffffff;"/>
  </g>
  <g id="axes_1">
   <g id="patch_2">
    <path d="
M34.8904 269.601
L233.463 269.601
L233.463 32.6206
L34.8904 32.6206
z
" style="fill:#ffffff;"/>
   </g>
   <g id="line2d_1">
    <path clip-path="url(#p331d239072)" d="
M38.7091 37.1779
L229.644 265.043
L229.644 265.043" style="fill:none;stroke:#0000ff;stroke-linecap:square;stroke-width:2.0;"/>
   </g>
   <g id="matplotlib.axis_1">
    <g id="xtick_1">
     <g id="line2d_2">
      <path d="
M86.4428 269.601
L86.4428 32.6206" style="fill:none;stroke:#000000;stroke-dasharray:1.000000,3.000000;stroke-dashoffset:0.0;stroke-width:0.5;"/>
     </g>
     <g id="line2d_3">
      <defs>
       <path d="
M0 0
L0 -4" id="m93b0483c22" style="stroke:#000000;stroke-width:0.5;"/>
      </defs>
      <g>
       <use style="stroke:#000000;stroke-width:0.5;" x="86.4427903107" xlink:href="#m93b0483c22" y="151.110625"/>
      </g>
     </g>
     <g id="text_1">
      <!-- 0.5 -->
      <defs>
       <path d="
M31.7812 66.4062
Q24.1719 66.4062 20.3281 58.9062
Q16.5 51.4219 16.5 36.375
Q16.5 21.3906 20.3281 13.8906
Q24.1719 6.39062 31.7812 6.39062
Q39.4531 6.39062 43.2812 13.8906
Q47.125 21.3906 47.125 36.375
Q47.125 51.4219 43.2812 58.9062
Q39.4531 66.4062 31.7812 66.4062
M31.7812 74.2188
Q44.0469 74.2188 50.5156 64.5156
Q56.9844 54.8281 56.9844 36.375
Q56.9844 17.9688 50.5156 8.26562
Q44.0469 -1.42188 31.7812 -1.42188
Q19.5312 -1.42188 13.0625 8.26562
Q6.59375 17.9688 6.59375 36.375
Q6.59375 54.8281 13.0625 64.5156
Q19.5312 74.2188 31.7812 74.2188" id="BitstreamVeraSans-Roman-30"/>
       <path d="
M10.6875 12.4062
L21 12.4062
L21 0
L10.6875 0
z
" id="BitstreamVeraSans-Roman-2e"/>
       <path d="
M10.7969 72.9062
L49.5156 72.9062
L49.5156 64.5938
L19.8281 64.5938
L19.8281 46.7344
Q21.9688 47.4688 24.1094 47.8281
Q26.2656 48.1875 28.4219 48.1875
Q40.625 48.1875 47.75 41.5
Q54.8906 34.8125 54.8906 23.3906
Q54.8906 11.625 47.5625 5.09375
Q40.2344 -1.42188 26.9062 -1.42188
Q22.3125 -1.42188 17.5469 -0.640625
Q12.7969 0.140625 7.71875 1.70312
L7.71875 11.625
Q12.1094 9.23438 16.7969 8.0625
Q21.4844 6.89062 26.7031 6.89062
Q35.1562 6.89062 40.0781 11.3281
Q45.0156 15.7656 45.0156 23.3906
Q45.0156 31 40.0781 35.4375
Q35.1562 39.8906 26.7031 39.8906
Q22.75 39.8906 18.8125 39.0156
Q14.8906 38.1406 10.7969 36.2812
z
" id="BitstreamVeraSans-Roman-35"/>
      </defs>
      <g transform="translate(73.5095090607 168.7878125)scale(0.18 -0.18)">
       <use xlink:href="#BitstreamVeraSans-Roman-30"/>
       <use x="63.623046875" xlink:href="#BitstreamVeraSans-Roman-2e"/>
       <use x="95.41015625" xlink:href="#BitstreamVeraSans-Roman-35"/>
      </g>
     </g>
    </g>
    <g id="xtick_2">
     <g id="line2d_4">
      <path d="
M134.177 269.601
L134.177 32.6206" style="fill:none;stroke:#000000;stroke-dasharray:1.000000,3.000000;stroke-dashoffset:0.0;stroke-width:0.5;"/>
     </g>
     <g id="line2d_5">
      <g>
       <use style="stroke:#000000;stroke-width:0.5;" x="134.176518121" xlink:href="#m93b0483c22" y="151.110625"/>
      </g>
     </g>
     <g id="text_2">
      <!-- 1 -->
      <defs>
       <path d="
M12.4062 8.29688
L28.5156 8.29688
L28.5156 63.9219
L10.9844 60.4062
L10.9844 69.3906
L28.4219 72.9062
L38.2812 72.9062
L38.2812 8.29688
L54.3906 8.29688
L54.3906 0
L12.4062 0
z
" id="BitstreamVeraSans-Roman-31"/>
      </defs>
      <g transform="translate(130.269955621 168.7878125)scale(0.18 -0.18)">
       <use xlink:href="#BitstreamVeraSans-Roman-31"/>
      </g>
     </g>
    </g>
    <g id="xtick_3">
     <g id="line2d_6">
      <path d="
M181.91 269.601
L181.91 32.6206" style="fill:none;stroke:#000000;stroke-dasharray:1.000000,3.000000;stroke-dashoffset:0.0;stroke-width:0.5;"/>
     </g>
     <g id="line2d_7">
      <g>
       <use style="stroke:#000000;stroke-width:0.5;" x="181.910245932" xlink:href="#m93b0483c22" y="151.110625"/>
      </g>
     </g>
     <g id="text_3">
      <!-- 1.5 -->
      <g transform="translate(169.372120932 168.7878125)scale(0.18 -0.18)">
       <use xlink:href="#BitstreamVeraSans-Roman-31"/>
       <use x="63.623046875" xlink:href="#BitstreamVeraSans-Roman-2e"/>
       <use x="95.41015625" xlink:href="#BitstreamVeraSans-Roman-35"/>
      </g>
     </g>
    </g>
    <g id="xtick_4">
     <g id="line2d_8">
      <path d="
M229.644 269.601
L229.644 32.6206" style="fill:none;stroke:#000000;stroke-dasharray:1.000000,3.000000;stroke-dashoffset:0.0;stroke-width:0.5;"/>
     </g>
     <g id="line2d_9">
      <g>
       <use style="stroke:#000000;stroke-width:0.5;" x="229.643973743" xlink:href="#m93b0483c22" y="151.110625"/>
      </g>
     </g>
     <g id="text_4">
      <!-- 2 -->
      <defs>
       <path d="
M19.1875 8.29688
L53.6094 8.29688
L53.6094 0
L7.32812 0
L7.32812 8.29688
Q12.9375 14.1094 22.625 23.8906
Q32.3281 33.6875 34.8125 36.5312
Q39.5469 41.8438 41.4219 45.5312
Q43.3125 49.2188 43.3125 52.7812
Q43.3125 58.5938 39.2344 62.25
Q35.1562 65.9219 28.6094 65.9219
Q23.9688 65.9219 18.8125 64.3125
Q13.6719 62.7031 7.8125 59.4219
L7.8125 69.3906
Q13.7656 71.7812 18.9375 73
Q24.125 74.2188 28.4219 74.2188
Q39.75 74.2188 46.4844 68.5469
Q53.2188 62.8906 53.2188 53.4219
Q53.2188 48.9219 51.5312 44.8906
Q49.8594 40.875 45.4062 35.4062
Q44.1875 33.9844 37.6406 27.2188
Q31.1094 20.4531 19.1875 8.29688" id="BitstreamVeraSans-Roman-32"/>
      </defs>
      <g transform="translate(225.478661243 168.7878125)scale(0.18 -0.18)">
       <use xlink:href="#BitstreamVeraSans-Roman-32"/>
      </g>
     </g>
    </g>
    <g id="text_5">
     <!-- sec -->
     <defs>
      <path d="
M56.2031 29.5938
L56.2031 25.2031
L14.8906 25.2031
Q15.4844 15.9219 20.4844 11.0625
Q25.4844 6.20312 34.4219 6.20312
Q39.5938 6.20312 44.4531 7.46875
Q49.3125 8.73438 54.1094 11.2812
L54.1094 2.78125
Q49.2656 0.734375 44.1875 -0.34375
Q39.1094 -1.42188 33.8906 -1.42188
Q20.7969 -1.42188 13.1562 6.1875
Q5.51562 13.8125 5.51562 26.8125
Q5.51562 40.2344 12.7656 48.1094
Q20.0156 56 32.3281 56
Q43.3594 56 49.7812 48.8906
Q56.2031 41.7969 56.2031 29.5938
M47.2188 32.2344
Q47.125 39.5938 43.0938 43.9844
Q39.0625 48.3906 32.4219 48.3906
Q24.9062 48.3906 20.3906 44.1406
Q15.875 39.8906 15.1875 32.1719
z
" id="BitstreamVeraSans-Roman-65"/>
      <path d="
M44.2812 53.0781
L44.2812 44.5781
Q40.4844 46.5312 36.375 47.5
Q32.2812 48.4844 27.875 48.4844
Q21.1875 48.4844 17.8438 46.4375
Q14.5 44.3906 14.5 40.2812
Q14.5 37.1562 16.8906 35.375
Q19.2812 33.5938 26.5156 31.9844
L29.5938 31.2969
Q39.1562 29.25 43.1875 25.5156
Q47.2188 21.7812 47.2188 15.0938
Q47.2188 7.46875 41.1875 3.01562
Q35.1562 -1.42188 24.6094 -1.42188
Q20.2188 -1.42188 15.4531 -0.5625
Q10.6875 0.296875 5.42188 2
L5.42188 11.2812
Q10.4062 8.6875 15.2344 7.39062
Q20.0625 6.10938 24.8125 6.10938
Q31.1562 6.10938 34.5625 8.28125
Q37.9844 10.4531 37.9844 14.4062
Q37.9844 18.0625 35.5156 20.0156
Q33.0625 21.9688 24.7031 23.7812
L21.5781 24.5156
Q13.2344 26.2656 9.51562 29.9062
Q5.8125 33.5469 5.8125 39.8906
Q5.8125 47.6094 11.2812 51.7969
Q16.75 56 26.8125 56
Q31.7812 56 36.1719 55.2656
Q40.5781 54.5469 44.2812 53.0781" id="BitstreamVeraSans-Roman-73"/>
      <path d="
M48.7812 52.5938
L48.7812 44.1875
Q44.9688 46.2969 41.1406 47.3438
Q37.3125 48.3906 33.4062 48.3906
Q24.6562 48.3906 19.8125 42.8438
Q14.9844 37.3125 14.9844 27.2969
Q14.9844 17.2812 19.8125 11.7344
Q24.6562 6.20312 33.4062 6.20312
Q37.3125 6.20312 41.1406 7.25
Q44.9688 8.29688 48.7812 10.4062
L48.7812 2.09375
Q45.0156 0.34375 40.9844 -0.53125
Q36.9688 -1.42188 32.4219 -1.42188
Q20.0625 -1.42188 12.7812 6.34375
Q5.51562 14.1094 5.51562 27.2969
Q5.51562 40.6719 12.8594 48.3281
Q20.2188 56 33.0156 56
Q37.1562 56 41.1094 55.1406
Q45.0625 54.2969 48.7812 52.5938" id="BitstreamVeraSans-Roman-63"/>
     </defs>
     <g transform="translate(241.462671967 151.110625)scale(0.18 -0.18)">
      <use xlink:href="#BitstreamVeraSans-Roman-73"/>
      <use x="52.099609375" xlink:href="#BitstreamVeraSans-Roman-65"/>
      <use x="113.623046875" xlink:href="#BitstreamVeraSans-Roman-63"/>
     </g>
    </g>
   </g>
   <g id="matplotlib.axis_2">
    <g id="ytick_1">
     <g id="line2d_10">
      <path d="
M34.8904 236.56
L233.463 236.56" style="fill:none;stroke:#000000;stroke-dasharray:1.000000,3.000000;stroke-dashoffset:0.0;stroke-width:0.5;"/>
     </g>
     <g id="line2d_11">
      <defs>
       <path d="
M0 0
L4 0" id="m728421d6d4" style="stroke:#000000;stroke-width:0.5;"/>
      </defs>
      <g>
       <use style="stroke:#000000;stroke-width:0.5;" x="38.7090625" xlink:href="#m728421d6d4" y="236.560144231"/>
      </g>
     </g>
     <g id="text_6">
      <!-- -24 -->
      <defs>
       <path d="
M4.89062 31.3906
L31.2031 31.3906
L31.2031 23.3906
L4.89062 23.3906
z
" id="BitstreamVeraSans-Roman-2d"/>
       <path d="
M37.7969 64.3125
L12.8906 25.3906
L37.7969 25.3906
z

M35.2031 72.9062
L47.6094 72.9062
L47.6094 25.3906
L58.0156 25.3906
L58.0156 17.1875
L47.6094 17.1875
L47.6094 0
L37.7969 0
L37.7969 17.1875
L4.89062 17.1875
L4.89062 26.7031
z
" id="BitstreamVeraSans-Roman-34"/>
      </defs>
      <g transform="translate(7.2 241.527019231)scale(0.18 -0.18)">
       <use xlink:href="#BitstreamVeraSans-Roman-2d"/>
       <use x="36.083984375" xlink:href="#BitstreamVeraSans-Roman-32"/>
       <use x="99.70703125" xlink:href="#BitstreamVeraSans-Roman-34"/>
      </g>
     </g>
    </g>
    <g id="ytick_2">
     <g id="line2d_12">
      <path d="
M34.8904 193.835
L233.463 193.835" style="fill:none;stroke:#000000;stroke-dasharray:1.000000,3.000000;stroke-dashoffset:0.0;stroke-width:0.5;"/>
     </g>
     <g id="line2d_13">
      <g>
       <use style="stroke:#000000;stroke-width:0.5;" x="38.7090625" xlink:href="#m728421d6d4" y="193.835384615"/>
      </g>
     </g>
     <g id="text_7">
      <!-- -12 -->
      <g transform="translate(7.993125 198.802259615)scale(0.18 -0.18)">
       <use xlink:href="#BitstreamVeraSans-Roman-2d"/>
       <use x="36.083984375" xlink:href="#BitstreamVeraSans-Roman-31"/>
       <use x="99.70703125" xlink:href="#BitstreamVeraSans-Roman-32"/>
      </g>
     </g>
    </g>
    <g id="ytick_3">
     <g id="line2d_14">
      <path d="
M34.8904 108.386
L233.463 108.386" style="fill:none;stroke:#000000;stroke-dasharray:1.000000,3.000000;stroke-dashoffset:0.0;stroke-width:0.5;"/>
     </g>
     <g id="line2d_15">
      <g>
       <use style="stroke:#000000;stroke-width:0.5;" x="38.7090625" xlink:href="#m728421d6d4" y="108.385865385"/>
      </g>
     </g>
     <g id="text_8">
      <!-- 12 -->
      <g transform="translate(15.5840625 113.352740385)scale(0.18 -0.18)">
       <use xlink:href="#BitstreamVeraSans-Roman-31"/>
       <use x="63.623046875" xlink:href="#BitstreamVeraSans-Roman-32"/>
      </g>
     </g>
    </g>
    <g id="ytick_4">
     <g id="line2d_16">
      <path d="
M34.8904 65.6611
L233.463 65.6611" style="fill:none;stroke:#000000;stroke-dasharray:1.000000,3.000000;stroke-dashoffset:0.0;stroke-width:0.5;"/>
     </g>
     <g id="line2d_17">
      <g>
       <use style="stroke:#000000;stroke-width:0.5;" x="38.7090625" xlink:href="#m728421d6d4" y="65.6611057692"/>
      </g>
     </g>
     <g id="text_9">
      <!-- 24 -->
      <g transform="translate(14.1328125 70.6279807692)scale(0.18 -0.18)">
       <use xlink:href="#BitstreamVeraSans-Roman-32"/>
       <use x="63.623046875" xlink:href="#BitstreamVeraSans-Roman-34"/>
      </g>
     </g>
    </g>
    <g id="text_10">
     <!-- ft/sec -->
     <defs>
      <path d="
M18.3125 70.2188
L18.3125 54.6875
L36.8125 54.6875
L36.8125 47.7031
L18.3125 47.7031
L18.3125 18.0156
Q18.3125 11.3281 20.1406 9.42188
Q21.9688 7.51562 27.5938 7.51562
L36.8125 7.51562
L36.8125 0
L27.5938 0
Q17.1875 0 13.2344 3.875
Q9.28125 7.76562 9.28125 18.0156
L9.28125 47.7031
L2.6875 47.7031
L2.6875 54.6875
L9.28125 54.6875
L9.28125 70.2188
z
" id="BitstreamVeraSans-Roman-74"/>
      <path d="
M37.1094 75.9844
L37.1094 68.5
L28.5156 68.5
Q23.6875 68.5 21.7969 66.5469
Q19.9219 64.5938 19.9219 59.5156
L19.9219 54.6875
L34.7188 54.6875
L34.7188 47.7031
L19.9219 47.7031
L19.9219 0
L10.8906 0
L10.8906 47.7031
L2.29688 47.7031
L2.29688 54.6875
L10.8906 54.6875
L10.8906 58.5
Q10.8906 67.625 15.1406 71.7969
Q19.3906 75.9844 28.6094 75.9844
z
" id="BitstreamVeraSans-Roman-66"/>
      <path d="
M25.3906 72.9062
L33.6875 72.9062
L8.29688 -9.28125
L0 -9.28125
z
" id="BitstreamVeraSans-Roman-2f"/>
     </defs>
     <g transform="translate(14.72828125 20.8771875)scale(0.18 -0.18)">
      <use xlink:href="#BitstreamVeraSans-Roman-66"/>
      <use x="33.455078125" xlink:href="#BitstreamVeraSans-Roman-74"/>
      <use x="72.6640625" xlink:href="#BitstreamVeraSans-Roman-2f"/>
      <use x="106.35546875" xlink:href="#BitstreamVeraSans-Roman-73"/>
      <use x="158.455078125" xlink:href="#BitstreamVeraSans-Roman-65"/>
      <use x="219.978515625" xlink:href="#BitstreamVeraSans-Roman-63"/>
     </g>
    </g>
   </g>
   <g id="patch_3">
    <path d="
M34.8904 151.111
L233.463 151.111" style="fill:none;stroke:#000000;stroke-width:0.8;"/>
   </g>
   <g id="patch_4">
    <path d="
M38.7091 269.601
L38.7091 32.6206" style="fill:none;stroke:#000000;stroke-width:0.8;"/>
   </g>
   <g id="text_11">
    <!-- $v(t) = 32 - 32t$ -->
    <defs>
     <path d="
M9.51562 7.71875
Q11.8594 4.29688 15.8125 2.64062
Q19.7812 0.984375 24.3125 0.984375
Q30.125 0.984375 32.5625 5.9375
Q35.0156 10.8906 35.0156 17.1875
Q35.0156 20.0156 34.5 22.8438
Q33.9844 25.6875 32.7656 28.125
Q31.5469 30.5625 29.4219 32.0312
Q27.2969 33.5 24.2188 33.5
L17.5781 33.5
Q16.7031 33.5 16.7031 34.4219
L16.7031 35.2969
Q16.7031 36.0781 17.5781 36.0781
L23.0938 36.5312
Q26.6094 36.5312 28.9219 39.1562
Q31.25 41.7969 32.3281 45.5781
Q33.4062 49.3594 33.4062 52.7812
Q33.4062 57.5625 31.1562 60.6406
Q28.9062 63.7188 24.3125 63.7188
Q20.5156 63.7188 17.0469 62.2812
Q13.5781 60.8438 11.5312 57.9062
Q11.7188 57.9531 11.8594 57.9844
Q12.0156 58.0156 12.2031 58.0156
Q14.4531 58.0156 15.9688 56.4531
Q17.4844 54.8906 17.4844 52.6875
Q17.4844 50.5312 15.9688 48.9688
Q14.4531 47.4062 12.2031 47.4062
Q10.0156 47.4062 8.45312 48.9688
Q6.89062 50.5312 6.89062 52.6875
Q6.89062 56.9844 9.46875 60.1562
Q12.0625 63.3281 16.1406 64.9688
Q20.2188 66.6094 24.3125 66.6094
Q27.3438 66.6094 30.7031 65.7031
Q34.0781 64.7969 36.8125 63.1094
Q39.5469 61.4219 41.2812 58.7812
Q43.0156 56.1562 43.0156 52.7812
Q43.0156 48.5781 41.1406 45.0156
Q39.2656 41.4531 35.9844 38.8594
Q32.7188 36.2812 28.8125 35.0156
Q33.1562 34.1875 37.0625 31.7344
Q40.9688 29.2969 43.3281 25.4844
Q45.7031 21.6875 45.7031 17.2812
Q45.7031 11.7656 42.6719 7.29688
Q39.6562 2.82812 34.7188 0.3125
Q29.7812 -2.20312 24.3125 -2.20312
Q19.625 -2.20312 14.9062 -0.40625
Q10.2031 1.375 7.20312 4.9375
Q4.20312 8.5 4.20312 13.4844
Q4.20312 15.9688 5.85938 17.625
Q7.51562 19.2812 10.0156 19.2812
Q11.625 19.2812 12.9688 18.5312
Q14.3125 17.7812 15.0625 16.4062
Q15.8281 15.0469 15.8281 13.4844
Q15.8281 11.0312 14.1094 9.375
Q12.4062 7.71875 10.0156 7.71875
z
" id="Cmr10-33"/>
     <path d="
M4.98438 0
L4.98438 2.6875
Q4.98438 2.9375 5.17188 3.21875
L20.7031 20.4062
Q24.2188 24.2188 26.4062 26.7969
Q28.6094 29.3906 30.75 32.7656
Q32.9062 36.1406 34.1562 39.625
Q35.4062 43.1094 35.4062 47.0156
Q35.4062 51.125 33.8906 54.8594
Q32.375 58.5938 29.375 60.8438
Q26.375 63.0938 22.125 63.0938
Q17.7812 63.0938 14.3125 60.4688
Q10.8438 57.8594 9.42188 53.7188
Q9.8125 53.8125 10.5 53.8125
Q12.75 53.8125 14.3281 52.2969
Q15.9219 50.7812 15.9219 48.3906
Q15.9219 46.0938 14.3281 44.5
Q12.75 42.9219 10.5 42.9219
Q8.15625 42.9219 6.5625 44.5469
Q4.98438 46.1875 4.98438 48.3906
Q4.98438 52.1562 6.39062 55.4375
Q7.8125 58.7344 10.4688 61.2969
Q13.1406 63.875 16.4844 65.2344
Q19.8281 66.6094 23.5781 66.6094
Q29.2969 66.6094 34.2188 64.1875
Q39.1562 61.7656 42.0312 57.3438
Q44.9219 52.9375 44.9219 47.0156
Q44.9219 42.6719 43.0156 38.7656
Q41.1094 34.8594 38.125 31.6562
Q35.1562 28.4688 30.5156 24.4062
Q25.875 20.3594 24.4219 19
L13.0938 8.10938
L22.7031 8.10938
Q29.7812 8.10938 34.5469 8.21875
Q39.3125 8.34375 39.5938 8.59375
Q40.7656 9.85938 42 17.8281
L44.9219 17.8281
L42.0938 0
z
" id="Cmr10-32"/>
     <path d="
M10.2031 23
Q9.375 23 8.82812 23.625
Q8.29688 24.2656 8.29688 25
Q8.29688 25.7344 8.82812 26.3594
Q9.375 27 10.2031 27
L67.5781 27
Q68.3594 27 68.875 26.3594
Q69.3906 25.7344 69.3906 25
Q69.3906 24.2656 68.875 23.625
Q68.3594 23 67.5781 23
z
" id="Cmsy10-a1"/>
     <path d="
M31 -24.8125
Q25.4375 -20.4062 21.4062 -14.7188
Q17.3906 -9.03125 14.8125 -2.57812
Q12.25 3.85938 10.9844 10.8906
Q9.71875 17.9219 9.71875 25
Q9.71875 32.1719 10.9844 39.2031
Q12.25 46.2344 14.8594 52.7344
Q17.4844 59.2344 21.5312 64.8906
Q25.5938 70.5625 31 74.8125
Q31 75 31.5 75
L32.4219 75
Q32.7188 75 32.9531 74.7344
Q33.2031 74.4688 33.2031 74.125
Q33.2031 73.6875 33.0156 73.4844
Q28.125 68.7031 24.875 63.2344
Q21.625 57.7656 19.6406 51.5781
Q17.6719 45.4062 16.7969 38.7812
Q15.9219 32.1719 15.9219 25
Q15.9219 -6.78125 32.9062 -23.2969
Q33.2031 -23.5781 33.2031 -24.125
Q33.2031 -24.3594 32.9375 -24.6719
Q32.6719 -25 32.4219 -25
L31.5 -25
Q31 -25 31 -24.8125" id="Cmr10-28"/>
     <path d="
M6.5 -25
Q5.60938 -25 5.60938 -24.125
Q5.60938 -23.6875 5.8125 -23.4844
Q22.9062 -6.78125 22.9062 25
Q22.9062 56.7812 6 73.2969
Q5.60938 73.5312 5.60938 74.125
Q5.60938 74.4688 5.875 74.7344
Q6.15625 75 6.5 75
L7.42188 75
Q7.71875 75 7.90625 74.8125
Q15.0938 69.1406 19.875 61.0312
Q24.6562 52.9375 26.875 43.75
Q29.1094 34.5781 29.1094 25
Q29.1094 17.9219 27.9062 11.0625
Q26.7031 4.20312 24.0938 -2.45312
Q21.4844 -9.125 17.4844 -14.7656
Q13.4844 -20.4062 7.90625 -24.8125
Q7.71875 -25 7.42188 -25
z
" id="Cmr10-29"/>
     <path d="
M10.6875 11.2812
Q10.6875 13.5312 11.2188 16.2031
Q11.7656 18.8906 12.2969 20.625
Q12.8438 22.3594 14.75 27.3906
Q16.6562 32.4219 16.7031 32.625
Q18.0156 36.2812 18.0156 38.625
Q18.0156 41.6094 15.8281 41.6094
Q11.8594 41.6094 9.29688 37.5312
Q6.73438 33.4531 5.51562 28.4219
Q5.32812 27.7812 4.6875 27.7812
L3.51562 27.7812
Q2.6875 27.7812 2.6875 28.7188
L2.6875 29
Q4.29688 34.9688 7.60938 39.5781
Q10.9375 44.1875 16.0156 44.1875
Q19.5781 44.1875 22.0469 41.8438
Q24.5156 39.5 24.5156 35.8906
Q24.5156 34.0312 23.6875 31.9844
Q21.7344 26.9062 20.6094 23.8438
Q19.4844 20.7969 18.5312 17.0156
Q17.5781 13.2344 17.5781 10.0156
Q17.5781 6.25 19.3125 3.875
Q21.0469 1.51562 24.7031 1.51562
Q31.6406 1.51562 37.2031 12.2031
Q38.9688 15.6719 40.5312 20.3594
Q42.0938 25.0469 42.0938 27.9844
Q42.0938 31 41.1094 32.6875
Q40.1406 34.375 38.5781 36.2031
Q37.0156 38.0312 37.0156 39.1094
Q37.0156 41.0625 38.625 42.6719
Q40.2344 44.2812 42.1875 44.2812
Q44.5781 44.2812 45.625 42.0781
Q46.6875 39.8906 46.6875 37.1094
Q46.6875 33.7969 45.7344 29.2031
Q44.7812 24.6094 43.0938 19.6719
Q41.4062 14.75 39.9844 11.9219
Q33.4062 -1.125 24.6094 -1.125
Q18.3125 -1.125 14.5 2.01562
Q10.6875 5.17188 10.6875 11.2812" id="Cmmi10-76"/>
     <path d="
M6.20312 8.10938
Q6.20312 9.57812 6.5 10.8906
L13.7188 39.5938
L3.21875 39.5938
Q2.20312 39.5938 2.20312 40.9219
Q2.59375 43.1094 3.51562 43.1094
L14.5938 43.1094
L18.6094 59.4219
Q19 60.75 20.1719 61.6719
Q21.3438 62.5938 22.7969 62.5938
Q24.0781 62.5938 24.9219 61.8281
Q25.7812 61.0781 25.7812 59.8125
Q25.7812 59.5156 25.75 59.3438
Q25.7344 59.1875 25.6875 58.9844
L21.6875 43.1094
L31.9844 43.1094
Q33.0156 43.1094 33.0156 41.7969
Q32.9531 41.5469 32.8125 40.9531
Q32.6719 40.375 32.4219 39.9844
Q32.1719 39.5938 31.6875 39.5938
L20.7969 39.5938
L13.625 10.6875
Q12.8906 7.85938 12.8906 5.8125
Q12.8906 1.51562 15.8281 1.51562
Q20.2188 1.51562 23.6094 5.64062
Q27 9.76562 28.8125 14.7031
Q29.2031 15.2812 29.5938 15.2812
L30.8125 15.2812
Q31.2031 15.2812 31.4375 15.0156
Q31.6875 14.75 31.6875 14.4062
Q31.6875 14.2031 31.5938 14.1094
Q29.3906 8.0625 25.1875 3.46875
Q21 -1.125 15.5781 -1.125
Q11.625 -1.125 8.90625 1.45312
Q6.20312 4.04688 6.20312 8.10938" id="Cmmi10-74"/>
     <path d="
M7.51562 13.2812
Q6.6875 13.2812 6.14062 13.9062
Q5.60938 14.5469 5.60938 15.2812
Q5.60938 16.1094 6.14062 16.6875
Q6.6875 17.2812 7.51562 17.2812
L70.3125 17.2812
Q71.0469 17.2812 71.5781 16.6875
Q72.125 16.1094 72.125 15.2812
Q72.125 14.5469 71.5781 13.9062
Q71.0469 13.2812 70.3125 13.2812
z

M7.51562 32.7188
Q6.6875 32.7188 6.14062 33.2969
Q5.60938 33.8906 5.60938 34.7188
Q5.60938 35.4531 6.14062 36.0781
Q6.6875 36.7188 7.51562 36.7188
L70.3125 36.7188
Q71.0469 36.7188 71.5781 36.0781
Q72.125 35.4531 72.125 34.7188
Q72.125 33.8906 71.5781 33.2969
Q71.0469 32.7188 70.3125 32.7188
z
" id="Cmr10-3d"/>
    </defs>
    <g transform="translate(106.023382027 111.105667067)scale(0.18 -0.18)">
     <use xlink:href="#Cmmi10-76"/>
     <use transform="translate(48.388671875 0.0)" xlink:href="#Cmr10-28"/>
     <use transform="translate(87.20703125 0.0)" xlink:href="#Cmmi10-74"/>
     <use transform="translate(123.291015625 0.0)" xlink:href="#Cmr10-29"/>
     <use transform="translate(179.66796875 0.0)" xlink:href="#Cmr10-3d"/>
     <use transform="translate(263.7265625 0.0)" xlink:href="#Cmr10-33"/>
     <use transform="translate(313.7265625 0.0)" xlink:href="#Cmr10-32"/>
     <use transform="translate(363.7265625 0.0)" xlink:href="#Cmsy10-a1"/>
     <use transform="translate(441.412109375 0.0)" xlink:href="#Cmr10-33"/>
     <use transform="translate(491.412109375 0.0)" xlink:href="#Cmr10-32"/>
     <use transform="translate(541.412109375 0.0)" xlink:href="#Cmmi10-74"/>
    </g>
   </g>
  </g>
 </g>
 <defs>
  <clipPath id="p331d239072">
   <rect height="236.98" width="198.572307692" x="34.8903642751" y="32.620625"/>
  </clipPath>
 </defs>
</svg>
