<?xml version="1.0" encoding="utf-8" standalone="no"?>
<!DOCTYPE svg PUBLIC "-//W3C//DTD SVG 1.1//EN"
  "http://www.w3.org/Graphics/SVG/1.1/DTD/svg11.dtd">
<!-- Created with matplotlib (http://matplotlib.org/) -->
<svg height="277pt" version="1.1" viewBox="0 0 419 277" width="419pt" xmlns="http://www.w3.org/2000/svg" xmlns:xlink="http://www.w3.org/1999/xlink">
 <defs>
  <style type="text/css">
*{stroke-linecap:butt;stroke-linejoin:round;}
  </style>
 </defs>
 <g id="figure_1">
  <g id="patch_1">
   <path d="
M0 277.315
L419.67 277.315
L419.67 0
L0 0
z
" style="fill:#ffffff;"/>
  </g>
  <g id="axes_1">
   <g id="patch_2">
    <path d="
M7.2 252.931
L394.03 252.931
L394.03 32.6206
L7.2 32.6206
z
" style="fill:#ffffff;"/>
   </g>
   <g id="patch_3">
    <path clip-path="url(#p74d2ddab92)" d="
M41.207 248.695
L41.207 248.695
L41.2763 244.011
L41.3456 242.072
L41.4149 240.584
L41.4842 239.33
L41.5534 238.226
L41.6227 237.228
L41.692 236.311
L41.7613 235.457
L41.8306 234.656
L41.8998 233.898
L41.9691 233.178
L42.0384 232.489
L42.177 231.195
L42.3155 229.991
L42.4541 228.86
L42.5927 227.792
L42.7312 226.777
L42.8698 225.807
L43.0083 224.878
L43.1469 223.984
L43.424 222.289
L43.5973 221.285
L43.7705 220.316
L44.117 218.476
L44.3305 217.398
L44.5439 216.357
L44.9707 214.374
L45.3976 212.505
L45.8244 210.732
L46.1801 209.32
L46.5357 207.959
L46.8914 206.646
L47.247 205.375
L47.6392 204.018
L48.0314 202.706
L48.4235 201.432
L48.8157 200.196
L49.3134 198.674
L49.8111 197.203
L50.3089 195.777
L50.8066 194.393
L51.376 192.857
L51.9455 191.368
L52.515 189.922
L53.0845 188.516
L53.6031 187.268
L54.2193 185.824
L54.8354 184.417
L55.6285 182.659
L56.4216 180.956
L57.2146 179.304
L58.0077 177.699
L59.0817 175.595
L59.9642 173.922
L60.8467 172.296
L61.6394 170.873
L62.4321 169.483
L63.1135 168.314
L64.2702 166.38
L65.4269 164.506
L66.5296 162.772
L67.5759 161.172
L68.6221 159.612
L69.3226 158.589
L70.937 156.296
L72.0274 154.795
L73.1179 153.329
L75.0563 150.808
L75.7658 149.91
L77.1524 148.194
L78.539 146.525
L79.9855 144.833
L80.7613 143.944
L82.7242 141.754
L85.2288 139.074
L86.6411 137.616
L87.4213 136.827
L89.195 135.072
L90.9002 133.435
L91.9109 132.488
L93.3678 131.151
L94.8247 129.846
L95.3124 129.417
L97.0516 127.914
L98.708 126.522
L100.964 124.687
L102.247 123.674
L104.184 122.184
L105.493 121.203
L106.63 120.368
L107.774 119.544
L109.341 118.439
L112.089 116.568
L112.583 116.241
L114.159 115.214
L117.018 113.417
L118.846 112.311
L119.165 112.122
L120.668 111.242
L123.222 109.798
L123.939 109.404
L125.328 108.653
L127.826 107.347
L129.895 106.307
L131.68 105.441
L132.834 104.895
L134.649 104.058
L135.543 103.657
L137.644 102.739
L139.087 102.128
L140.556 101.524
L142.464 100.765
L143.7 100.288
L145.778 99.5135
L146.907 99.106
L147.949 98.7385
L150.803 97.7726
L151.689 97.4851
L153.716 96.8482
L154.58 96.5859
L156.23 96.0997
L158.582 95.4395
L159.476 95.1987
L161.183 94.7544
L162.683 94.3803
L163.793 94.1134
L165.655 93.6846
L167.781 93.2235
L169.264 92.9197
L170.861 92.6089
L172.268 92.3488
L174.394 91.9808
L175.403 91.8164
L176.614 91.6278
L178.348 91.3744
L180.646 91.0682
L181.667 90.9431
L183.928 90.6896
L185.013 90.5795
L186.944 90.402
L188.582 90.27
L190.001 90.1693
L191.624 90.0696
L193.571 89.9719
L194.452 89.9355
L195.895 89.8864
L198.338 89.8329
L200.317 89.817
L201.618 89.8198
L202.737 89.8308
L204.381 89.861
L205.711 89.8979
L207.036 89.9456
L208.753 90.0238
L211.38 90.1794
L212.09 90.2289
L214.194 90.3942
L216.285 90.5862
L217.126 90.6712
L218.585 90.8294
L221.09 91.1327
L221.566 91.1949
L224.147 91.5574
L226.08 91.857
L226.737 91.9643
L229.323 92.4144
L231.035 92.7363
L231.662 92.8592
L233.039 93.138
L234.682 93.4871
L235.96 93.7713
L237.605 94.1533
L240.381 94.8395
L241.157 95.0409
L242.382 95.3671
L244.722 96.0195
L245.766 96.3229
L248.098 97.0289
L249.263 97.3961
L251.733 98.2071
L252.343 98.4142
L253.621 98.8575
L255.09 99.3816
L257.624 100.324
L258.473 100.651
L260.485 101.448
L262.974 102.478
L263.912 102.879
L265.835 103.723
L266.859 104.185
L269.301 105.322
L269.629 105.479
L271.682 106.479
L273.623 107.459
L274.934 108.14
L275.937 108.671
L277.669 109.611
L279.141 110.431
L281.302 111.673
L282.777 112.546
L285.399 114.152
L286.149 114.625
L287.518 115.502
L289.613 116.884
L290.463 117.458
L292.141 118.615
L294.441 120.253
L295.86 121.294
L297.992 122.906
L299.484 124.067
L300.389 124.786
L302.882 126.821
L304.501 128.189
L305.627 129.163
L306.734 130.137
L309.295 132.465
L309.853 132.986
L311.294 134.355
L312.815 135.836
L314.335 137.359
L315.269 138.313
L315.981 139.053
L317.865 141.057
L320.051 143.471
L321.633 145.282
L323.921 148.003
L325.529 149.991
L326.809 151.622
L327.574 152.618
L328.971 154.48
L330.368 156.401
L330.472 156.547
L331.929 158.621
L333.386 160.769
L334.607 162.628
L335.581 164.153
L336.843 166.187
L338.312 168.647
L339.781 171.213
L340.704 172.881
L342.129 175.558
L342.964 177.187
L343.8 178.863
L344.635 180.591
L345.47 182.373
L346.477 184.604
L347.133 186.107
L347.788 187.654
L348.444 189.248
L349.1 190.894
L349.889 192.951
L350.679 195.098
L351.369 197.059
L351.86 198.504
L352.35 199.995
L352.84 201.54
L353.33 203.141
L353.986 205.384
L354.313 206.553
L354.641 207.759
L354.969 209.004
L355.296 210.292
L355.624 211.628
L355.952 213.017
L356.27 214.424
L356.589 215.894
L356.907 217.436
L357.226 219.062
L357.48 220.427
L357.733 221.863
L357.987 223.384
L358.241 225.004
L358.464 226.526
L358.575 227.329
L358.686 228.164
L358.798 229.034
L358.909 229.946
L359.021 230.905
L359.132 231.919
L359.243 233
L359.355 234.162
L359.466 235.426
L359.522 236.106
L359.577 236.824
L359.633 237.59
L359.689 238.413
L359.745 239.308
L359.8 240.298
L359.856 241.423
L359.912 242.756
L359.967 244.495
L360.023 248.695
L360.023 248.695
z
" style="fill:#008000;opacity:0.5;"/>
   </g>
   <g id="line2d_1">
    <path clip-path="url(#p74d2ddab92)" d="
M14.639 248.695
L386.591 248.695
L386.591 248.695" style="fill:none;"/>
   </g>
   <g id="line2d_2">
    <path clip-path="url(#p74d2ddab92)" d="
M41.207 248.695
L41.2763 244.011
L41.4149 240.584
L41.8306 234.656
L42.4541 228.86
L43.1469 223.984
L44.3305 217.398
L45.3976 212.505
L46.8914 206.646
L48.4235 201.432
L50.3089 195.777
L52.515 189.922
L54.8354 184.417
L57.2146 179.304
L59.9642 173.922
L63.1135 168.314
L66.5296 162.772
L69.3226 158.589
L73.1179 153.329
L77.1524 148.194
L80.7613 143.944
L85.2288 139.074
L89.195 135.072
L93.3678 131.151
L97.0516 127.914
L102.247 123.674
L107.774 119.544
L112.583 116.241
L117.018 113.417
L120.668 111.242
L125.328 108.653
L131.68 105.441
L137.644 102.739
L143.7 100.288
L147.949 98.7385
L154.58 96.5859
L161.183 94.7544
L167.781 93.2235
L174.394 91.9808
L180.646 91.0682
L186.944 90.402
L193.571 89.9719
L198.338 89.8329
L204.381 89.861
L208.753 90.0238
L214.194 90.3942
L221.09 91.1327
L226.737 91.9643
L233.039 93.138
L237.605 94.1533
L244.722 96.0195
L249.263 97.3961
L255.09 99.3816
L260.485 101.448
L266.859 104.185
L271.682 106.479
L277.669 109.611
L282.777 112.546
L287.518 115.502
L292.141 118.615
L297.992 122.906
L302.882 126.821
L306.734 130.137
L311.294 134.355
L315.981 139.053
L320.051 143.471
L323.921 148.003
L327.574 152.618
L330.472 156.547
L333.386 160.769
L336.843 166.187
L339.781 171.213
L342.964 177.187
L345.47 182.373
L347.788 187.654
L349.889 192.951
L351.86 198.504
L353.33 203.141
L354.969 209.004
L356.27 214.424
L357.48 220.427
L358.464 226.526
L359.132 231.919
L359.633 237.59
L359.912 242.756
L360.023 248.695
L360.023 248.695" style="fill:none;stroke:#0000ff;stroke-linecap:square;stroke-width:2.0;"/>
   </g>
   <g id="matplotlib.axis_1">
    <g id="xtick_1">
     <g id="line2d_3">
      <defs>
       <path d="
M0 0
L0 -4" id="m93b0483c22" style="stroke:#000000;stroke-width:0.5;"/>
      </defs>
      <g>
       <use style="stroke:#000000;stroke-width:0.5;" x="41.207032967" xlink:href="#m93b0483c22" y="248.694648669"/>
      </g>
     </g>
     <g id="text_1">
      <!-- -3 -->
      <defs>
       <path d="
M40.5781 39.3125
Q47.6562 37.7969 51.625 33
Q55.6094 28.2188 55.6094 21.1875
Q55.6094 10.4062 48.1875 4.48438
Q40.7656 -1.42188 27.0938 -1.42188
Q22.5156 -1.42188 17.6562 -0.515625
Q12.7969 0.390625 7.625 2.20312
L7.625 11.7188
Q11.7188 9.32812 16.5938 8.10938
Q21.4844 6.89062 26.8125 6.89062
Q36.0781 6.89062 40.9375 10.5469
Q45.7969 14.2031 45.7969 21.1875
Q45.7969 27.6406 41.2812 31.2656
Q36.7656 34.9062 28.7188 34.9062
L20.2188 34.9062
L20.2188 43.0156
L29.1094 43.0156
Q36.375 43.0156 40.2344 45.9219
Q44.0938 48.8281 44.0938 54.2969
Q44.0938 59.9062 40.1094 62.9062
Q36.1406 65.9219 28.7188 65.9219
Q24.6562 65.9219 20.0156 65.0312
Q15.375 64.1562 9.8125 62.3125
L9.8125 71.0938
Q15.4375 72.6562 20.3438 73.4375
Q25.25 74.2188 29.5938 74.2188
Q40.8281 74.2188 47.3594 69.1094
Q53.9062 64.0156 53.9062 55.3281
Q53.9062 49.2656 50.4375 45.0938
Q46.9688 40.9219 40.5781 39.3125" id="BitstreamVeraSans-Roman-33"/>
       <path d="
M4.89062 31.3906
L31.2031 31.3906
L31.2031 23.3906
L4.89062 23.3906
z
" id="BitstreamVeraSans-Roman-2d"/>
      </defs>
      <g transform="translate(33.395314217 266.371836169)scale(0.18 -0.18)">
       <use xlink:href="#BitstreamVeraSans-Roman-2d"/>
       <use x="36.083984375" xlink:href="#BitstreamVeraSans-Roman-33"/>
      </g>
     </g>
    </g>
    <g id="xtick_2">
     <g id="line2d_4">
      <g>
       <use style="stroke:#000000;stroke-width:0.5;" x="360.022967033" xlink:href="#m93b0483c22" y="248.694648669"/>
      </g>
     </g>
     <g id="text_2">
      <!-- 3 -->
      <g transform="translate(355.704373283 266.371836169)scale(0.18 -0.18)">
       <use xlink:href="#BitstreamVeraSans-Roman-33"/>
      </g>
     </g>
    </g>
    <g id="text_3">
     <!-- $x$ -->
     <defs>
      <path d="
M7.8125 2.875
Q9.57812 1.51562 12.7969 1.51562
Q15.9219 1.51562 18.3125 4.51562
Q20.7031 7.51562 21.5781 11.0781
L26.125 28.8125
Q27.2031 33.6406 27.2031 35.4062
Q27.2031 37.8906 25.8125 39.75
Q24.4219 41.6094 21.9219 41.6094
Q18.75 41.6094 15.9688 39.625
Q13.1875 37.6406 11.2812 34.5938
Q9.375 31.5469 8.59375 28.4219
Q8.40625 27.7812 7.8125 27.7812
L6.59375 27.7812
Q5.8125 27.7812 5.8125 28.7188
L5.8125 29
Q6.78125 32.7188 9.125 36.25
Q11.4688 39.7969 14.8594 41.9844
Q18.2656 44.1875 22.125 44.1875
Q25.7812 44.1875 28.7344 42.2344
Q31.6875 40.2812 32.9062 36.9219
Q34.625 39.9844 37.2812 42.0781
Q39.9375 44.1875 43.1094 44.1875
Q45.2656 44.1875 47.5 43.4219
Q49.75 42.6719 51.1719 41.1094
Q52.5938 39.5469 52.5938 37.2031
Q52.5938 34.6719 50.9531 32.8281
Q49.3125 31 46.7812 31
Q45.1719 31 44.0938 32.0312
Q43.0156 33.0625 43.0156 34.625
Q43.0156 36.7188 44.4531 38.2969
Q45.9062 39.8906 47.9062 40.1875
Q46.0938 41.6094 42.9219 41.6094
Q39.7031 41.6094 37.3281 38.625
Q34.9688 35.6406 33.9844 31.9844
L29.5938 14.3125
Q28.5156 10.2969 28.5156 7.71875
Q28.5156 5.17188 29.9531 3.34375
Q31.3906 1.51562 33.7969 1.51562
Q38.4844 1.51562 42.1562 5.64062
Q45.8438 9.76562 47.0156 14.7031
Q47.2188 15.2812 47.7969 15.2812
L49.0312 15.2812
Q49.4219 15.2812 49.6562 15.0156
Q49.9062 14.75 49.9062 14.4062
Q49.9062 14.3125 49.8125 14.1094
Q48.3906 8.15625 43.8438 3.51562
Q39.3125 -1.125 33.5938 -1.125
Q29.9375 -1.125 26.9844 0.84375
Q24.0312 2.82812 22.7969 6.20312
Q21.2344 3.26562 18.4688 1.0625
Q15.7188 -1.125 12.5938 -1.125
Q10.4531 -1.125 8.17188 -0.359375
Q5.90625 0.390625 4.48438 1.95312
Q3.07812 3.51562 3.07812 5.90625
Q3.07812 8.25 4.70312 10.1719
Q6.34375 12.1094 8.79688 12.1094
Q10.4531 12.1094 11.5781 11.1094
Q12.7031 10.1094 12.7031 8.5
Q12.7031 6.39062 11.2969 4.82812
Q9.90625 3.26562 7.8125 2.875" id="Cmmi10-78"/>
     </defs>
     <g transform="translate(402.03 248.694648669)scale(0.18 -0.18)">
      <use transform="translate(0.0 0.8125)" xlink:href="#Cmmi10-78"/>
     </g>
    </g>
   </g>
   <g id="matplotlib.axis_2">
    <g id="ytick_1">
     <g id="line2d_5">
      <defs>
       <path d="
M0 0
L4 0" id="m728421d6d4" style="stroke:#000000;stroke-width:0.5;"/>
      </defs>
      <g>
       <use style="stroke:#000000;stroke-width:0.5;" x="200.615" xlink:href="#m728421d6d4" y="89.8166900888"/>
      </g>
     </g>
     <g id="text_4">
      <!-- 3 -->
      <g transform="translate(187.9778125 94.7835650888)scale(0.18 -0.18)">
       <use xlink:href="#BitstreamVeraSans-Roman-33"/>
      </g>
     </g>
    </g>
    <g id="text_5">
     <!-- $y$ -->
     <defs>
      <path d="
M8.40625 -14.3125
Q10.5 -17.9219 15.7188 -17.9219
Q20.4531 -17.9219 23.9219 -14.5938
Q27.3906 -11.2812 29.5156 -6.5625
Q31.6406 -1.85938 32.8125 3.07812
Q28.375 -1.125 23.1875 -1.125
Q19.2344 -1.125 16.4531 0.234375
Q13.6719 1.60938 12.125 4.3125
Q10.5938 7.03125 10.5938 10.8906
Q10.5938 14.1562 11.4688 17.5938
Q12.3594 21.0469 13.9375 25.2656
Q15.5312 29.5 16.7031 32.625
Q18.0156 36.2812 18.0156 38.625
Q18.0156 41.6094 15.8281 41.6094
Q11.8594 41.6094 9.29688 37.5312
Q6.73438 33.4531 5.51562 28.4219
Q5.32812 27.7812 4.6875 27.7812
L3.51562 27.7812
Q2.6875 27.7812 2.6875 28.7188
L2.6875 29
Q4.29688 34.9688 7.60938 39.5781
Q10.9375 44.1875 16.0156 44.1875
Q19.5781 44.1875 22.0469 41.8438
Q24.5156 39.5 24.5156 35.8906
Q24.5156 34.0312 23.6875 31.9844
Q23.25 30.7656 21.6875 26.6562
Q20.125 22.5625 19.2812 19.875
Q18.4531 17.1875 17.9219 14.5938
Q17.3906 12.0156 17.3906 9.42188
Q17.3906 6.10938 18.7969 3.8125
Q20.2188 1.51562 23.2969 1.51562
Q29.5 1.51562 34.4219 9.07812
L42 39.8906
Q42.3281 41.2188 43.5469 42.1562
Q44.7812 43.1094 46.1875 43.1094
Q47.4062 43.1094 48.3125 42.3281
Q49.2188 41.5469 49.2188 40.2812
Q49.2188 39.7031 49.125 39.5
L39.2031 -0.296875
Q37.8906 -5.42188 34.375 -10.1094
Q30.8594 -14.7969 25.9062 -17.6562
Q20.9531 -20.5156 15.5781 -20.5156
Q12.9844 -20.5156 10.4375 -19.5
Q7.90625 -18.5 6.34375 -16.5
Q4.78125 -14.5 4.78125 -11.8125
Q4.78125 -9.07812 6.39062 -7.07812
Q8.01562 -5.07812 10.6875 -5.07812
Q12.3125 -5.07812 13.4062 -6.07812
Q14.5 -7.07812 14.5 -8.6875
Q14.5 -10.9844 12.7812 -12.6875
Q11.0781 -14.4062 8.79688 -14.4062
Q8.6875 -14.3594 8.59375 -14.3281
Q8.5 -14.3125 8.40625 -14.3125" id="Cmmi10-79"/>
     </defs>
     <g transform="translate(196.115 20.840625)scale(0.18 -0.18)">
      <use transform="translate(0.0 0.8125)" xlink:href="#Cmmi10-79"/>
     </g>
    </g>
   </g>
   <g id="patch_4">
    <path d="
M7.2 248.695
L394.03 248.695" style="fill:none;stroke:#000000;stroke-width:0.8;"/>
   </g>
   <g id="patch_5">
    <path d="
M200.615 252.931
L200.615 32.6206" style="fill:none;stroke:#000000;stroke-width:0.8;"/>
   </g>
  </g>
 </g>
 <defs>
  <clipPath id="p74d2ddab92">
   <rect height="220.310769231" width="386.83" x="7.2" y="32.620625"/>
  </clipPath>
 </defs>
</svg>
