<?xml version="1.0" encoding="utf-8" standalone="no"?>
<!DOCTYPE svg PUBLIC "-//W3C//DTD SVG 1.1//EN"
  "http://www.w3.org/Graphics/SVG/1.1/DTD/svg11.dtd">
<!-- Created with matplotlib (http://matplotlib.org/) -->
<svg height="276pt" version="1.1" viewBox="0 0 275 276" width="275pt" xmlns="http://www.w3.org/2000/svg" xmlns:xlink="http://www.w3.org/1999/xlink">
 <defs>
  <style type="text/css">
*{stroke-linecap:butt;stroke-linejoin:round;}
  </style>
 </defs>
 <g id="figure_1">
  <g id="patch_1">
   <path d="
M0 276.801
L275.67 276.801
L275.67 0
L0 0
z
" style="fill:#ffffff;"/>
  </g>
  <g id="axes_1">
   <g id="patch_2">
    <path d="
M7.2 269.601
L250.03 269.601
L250.03 32.6206
L7.2 32.6206
z
" style="fill:#ffffff;"/>
   </g>
   <g id="patch_3">
    <path clip-path="url(#pfbe49a6bba)" d="
M35.2188 242.257
L35.2188 242.257
L35.9032 239.595
L36.7093 236.485
L37.4352 233.708
L38.161 230.953
L38.7835 228.607
L39.5284 225.822
L40.4648 222.353
L41.1451 219.857
L41.8253 217.38
L43.1375 212.656
L43.425 211.63
L44.1958 208.898
L44.9666 206.191
L45.9261 202.856
L46.1777 201.987
L47.0277 199.074
L47.8777 196.19
L48.8207 193.026
L49.0386 192.301
L50.1628 188.588
L50.8287 186.414
L51.4946 184.258
L51.9819 182.692
L53.0139 179.409
L53.5682 177.664
L54.2793 175.444
L54.9905 173.245
L55.669 171.167
L56.797 167.754
L57.7956 164.777
L58.6799 162.176
L59.8298 158.843
L60.6979 156.363
L61.6088 153.794
L61.986 152.741
L62.6644 150.861
L63.3429 149.001
L63.929 147.409
L65.0862 144.308
L65.8999 142.161
L67.034 139.215
L67.6916 137.532
L68.3632 135.831
L69.0348 134.149
L69.8261 132.192
L70.5449 130.436
L71.5078 128.119
L72.2519 126.354
L72.9961 124.613
L73.4813 123.49
L74.8045 120.477
L75.3503 119.256
L76.538 116.641
L77.4877 114.593
L78.0902 113.313
L79.1815 111.033
L79.8886 109.582
L80.5956 108.153
L81.586 106.186
L81.9565 105.46
L82.7373 103.95
L83.5181 102.466
L83.8274 101.885
L85.0307 99.6626
L85.856 98.1734
L86.5075 97.0179
L87.7057 94.9392
L88.6949 93.2683
L89.3218 92.2304
L90.3587 90.55
L91.4469 88.8348
L92.1781 87.7101
L92.9263 86.5822
L93.6746 85.4778
L94.6823 84.0273
L95.1485 83.3706
L96.3412 81.732
L97.3274 80.422
L97.649 80.0037
L98.7129 78.6504
L99.8355 77.2736
L101.052 75.8417
L102.136 74.6172
L102.584 74.125
L103.436 73.2133
L104.313 72.3066
L105.255 71.3685
L106.157 70.5047
L107.004 69.7249
L107.85 68.9751
L108.632 68.3098
L109.453 67.638
L110.645 66.7128
L111.255 66.2623
L112.147 65.6318
L113.16 64.9565
L113.743 64.5867
L114.956 63.8635
L115.928 63.3284
L117.119 62.7262
L117.451 62.5693
L118.555 62.0793
L119.577 61.6716
L120.717 61.2682
L121.987 60.8825
L122.39 60.7744
L123.501 60.5111
L124.334 60.3474
L124.971 60.242
L125.829 60.1267
L126.687 60.0422
L127.438 59.9934
L128.364 59.9658
L129.482 59.9802
L129.857 59.9967
L130.847 60.0686
L131.97 60.1998
L132.662 60.3068
L133.434 60.4499
L134.207 60.6179
L135.045 60.8285
L135.882 61.0679
L136.544 61.2785
L137.161 61.4908
L138.379 61.9567
L139.309 62.3544
L140.391 62.8625
L141.091 63.2172
L141.769 63.5804
L142.549 64.0222
L143.33 64.4894
L144.527 65.2556
L145.087 65.6348
L146.151 66.3912
L146.537 66.677
L147.458 67.385
L148.327 68.0851
L149.196 68.8168
L150.16 69.6651
L150.581 70.048
L151.284 70.704
L151.988 71.3807
L152.217 71.6056
L153.392 72.7935
L154.569 74.0417
L155.241 74.7796
L156.409 76.1081
L156.972 76.7697
L157.713 77.6588
L158.453 78.5709
L158.687 78.8627
L159.595 80.0217
L160.529 81.2499
L161.235 82.2014
L161.94 83.1738
L163.245 85.0269
L163.976 86.096
L165.006 87.6406
L165.369 88.1957
L166.2 89.4858
L167.01 90.7729
L167.821 92.0875
L168.246 92.7874
L169.04 94.1168
L169.835 95.4726
L170.04 95.8264
L170.716 97.0068
L171.392 98.2064
L171.797 98.9326
L172.636 100.462
L173.476 102.022
L173.742 102.523
L174.91 104.753
L175.785 106.464
L176.826 108.538
L178.05 111.036
L178.693 112.374
L179.423 113.912
L180.152 115.472
L180.424 116.06
L181.385 118.159
L182.196 119.961
L183.006 121.79
L183.465 122.837
L184.368 124.924
L185.428 127.419
L186.525 130.048
L187.11 131.47
L188.348 134.53
L189.076 136.359
L190.042 138.82
L191.153 141.697
L192.19 144.431
L192.95 146.461
L194.058 149.468
L194.512 150.714
L195.345 153.021
L196.177 155.357
L197.063 157.876
L197.33 158.64
L198.077 160.799
L198.825 162.982
L199.291 164.353
L200.017 166.51
L200.965 169.358
L201.829 171.986
L202.693 174.645
L202.842 175.107
L203.651 177.632
L204.461 180.184
L205.231 182.636
L206.324 186.163
L206.772 187.621
L207.807 191.025
L208.525 193.414
L209.244 195.825
L209.624 197.11
L210.717 200.833
L211.927 205.018
L212.792 208.045
L213.903 211.979
L214.751 215.018
L215.894 219.16
L216.285 220.59
L217.544 225.236
L218.038 227.076
L218.725 229.654
L219.412 232.252
L219.961 234.343
L221.093 238.691
L222.011 242.257
L222.011 242.257
z
" style="fill:#0000ff;opacity:0.5;"/>
   </g>
   <g id="line2d_1">
    <path clip-path="url(#pfbe49a6bba)" d="
M11.8698 242.257
L245.36 242.257
L245.36 242.257" style="fill:none;"/>
   </g>
   <g id="line2d_2">
    <path clip-path="url(#pfbe49a6bba)" d="
M35.2188 242.257
L39.5284 225.822
L44.1958 208.898
L48.8207 193.026
L53.0139 179.409
L56.797 167.754
L60.6979 156.363
L65.0862 144.308
L69.0348 134.149
L72.9961 124.613
L76.538 116.641
L80.5956 108.153
L83.8274 101.885
L87.7057 94.9392
L91.4469 88.8348
L94.6823 84.0273
L97.649 80.0037
L101.052 75.8417
L104.313 72.3066
L107.004 69.7249
L109.453 67.638
L112.147 65.6318
L114.956 63.8635
L117.451 62.5693
L119.577 61.6716
L122.39 60.7744
L124.971 60.242
L127.438 59.9934
L129.857 59.9967
L132.662 60.3068
L135.045 60.8285
L137.161 61.4908
L139.309 62.3544
L141.769 63.5804
L144.527 65.2556
L146.537 66.677
L149.196 68.8168
L152.217 71.6056
L155.241 74.7796
L158.687 78.8627
L161.94 83.1738
L165.369 88.1957
L168.246 92.7874
L171.797 98.9326
L174.91 104.753
L178.693 112.374
L182.196 119.961
L185.428 127.419
L189.076 136.359
L192.95 146.461
L197.33 158.64
L200.965 169.358
L205.231 182.636
L209.624 197.11
L213.903 211.979
L218.725 229.654
L222.011 242.257
L222.011 242.257" style="fill:none;stroke:#0000ff;stroke-linecap:square;stroke-width:2.0;"/>
   </g>
   <g id="matplotlib.axis_1">
    <g id="xtick_1">
     <g id="line2d_3">
      <defs>
       <path d="
M0 0
L0 -4" id="m93b0483c22" style="stroke:#000000;stroke-width:0.5;"/>
      </defs>
      <g>
       <use style="stroke:#000000;stroke-width:0.5;" x="81.9169230769" xlink:href="#m93b0483c22" y="242.256778846"/>
      </g>
     </g>
     <g id="text_1">
      <!-- 1 -->
      <defs>
       <path d="
M12.4062 8.29688
L28.5156 8.29688
L28.5156 63.9219
L10.9844 60.4062
L10.9844 69.3906
L28.4219 72.9062
L38.2812 72.9062
L38.2812 8.29688
L54.3906 8.29688
L54.3906 0
L12.4062 0
z
" id="BitstreamVeraSans-Roman-31"/>
      </defs>
      <g transform="translate(78.0103605769 259.933966346)scale(0.18 -0.18)">
       <use xlink:href="#BitstreamVeraSans-Roman-31"/>
      </g>
     </g>
    </g>
    <g id="xtick_2">
     <g id="line2d_4">
      <g>
       <use style="stroke:#000000;stroke-width:0.5;" x="128.615" xlink:href="#m93b0483c22" y="242.256778846"/>
      </g>
     </g>
     <g id="text_2">
      <!-- 2 -->
      <defs>
       <path d="
M19.1875 8.29688
L53.6094 8.29688
L53.6094 0
L7.32812 0
L7.32812 8.29688
Q12.9375 14.1094 22.625 23.8906
Q32.3281 33.6875 34.8125 36.5312
Q39.5469 41.8438 41.4219 45.5312
Q43.3125 49.2188 43.3125 52.7812
Q43.3125 58.5938 39.2344 62.25
Q35.1562 65.9219 28.6094 65.9219
Q23.9688 65.9219 18.8125 64.3125
Q13.6719 62.7031 7.8125 59.4219
L7.8125 69.3906
Q13.7656 71.7812 18.9375 73
Q24.125 74.2188 28.4219 74.2188
Q39.75 74.2188 46.4844 68.5469
Q53.2188 62.8906 53.2188 53.4219
Q53.2188 48.9219 51.5312 44.8906
Q49.8594 40.875 45.4062 35.4062
Q44.1875 33.9844 37.6406 27.2188
Q31.1094 20.4531 19.1875 8.29688" id="BitstreamVeraSans-Roman-32"/>
      </defs>
      <g transform="translate(124.4496875 259.933966346)scale(0.18 -0.18)">
       <use xlink:href="#BitstreamVeraSans-Roman-32"/>
      </g>
     </g>
    </g>
    <g id="xtick_3">
     <g id="line2d_5">
      <g>
       <use style="stroke:#000000;stroke-width:0.5;" x="175.313076923" xlink:href="#m93b0483c22" y="242.256778846"/>
      </g>
     </g>
     <g id="text_3">
      <!-- 3 -->
      <defs>
       <path d="
M40.5781 39.3125
Q47.6562 37.7969 51.625 33
Q55.6094 28.2188 55.6094 21.1875
Q55.6094 10.4062 48.1875 4.48438
Q40.7656 -1.42188 27.0938 -1.42188
Q22.5156 -1.42188 17.6562 -0.515625
Q12.7969 0.390625 7.625 2.20312
L7.625 11.7188
Q11.7188 9.32812 16.5938 8.10938
Q21.4844 6.89062 26.8125 6.89062
Q36.0781 6.89062 40.9375 10.5469
Q45.7969 14.2031 45.7969 21.1875
Q45.7969 27.6406 41.2812 31.2656
Q36.7656 34.9062 28.7188 34.9062
L20.2188 34.9062
L20.2188 43.0156
L29.1094 43.0156
Q36.375 43.0156 40.2344 45.9219
Q44.0938 48.8281 44.0938 54.2969
Q44.0938 59.9062 40.1094 62.9062
Q36.1406 65.9219 28.7188 65.9219
Q24.6562 65.9219 20.0156 65.0312
Q15.375 64.1562 9.8125 62.3125
L9.8125 71.0938
Q15.4375 72.6562 20.3438 73.4375
Q25.25 74.2188 29.5938 74.2188
Q40.8281 74.2188 47.3594 69.1094
Q53.9062 64.0156 53.9062 55.3281
Q53.9062 49.2656 50.4375 45.0938
Q46.9688 40.9219 40.5781 39.3125" id="BitstreamVeraSans-Roman-33"/>
      </defs>
      <g transform="translate(170.994483173 259.933966346)scale(0.18 -0.18)">
       <use xlink:href="#BitstreamVeraSans-Roman-33"/>
      </g>
     </g>
    </g>
    <g id="xtick_4">
     <g id="line2d_6">
      <g>
       <use style="stroke:#000000;stroke-width:0.5;" x="222.011153846" xlink:href="#m93b0483c22" y="242.256778846"/>
      </g>
     </g>
     <g id="text_4">
      <!-- 4 -->
      <defs>
       <path d="
M37.7969 64.3125
L12.8906 25.3906
L37.7969 25.3906
z

M35.2031 72.9062
L47.6094 72.9062
L47.6094 25.3906
L58.0156 25.3906
L58.0156 17.1875
L47.6094 17.1875
L47.6094 0
L37.7969 0
L37.7969 17.1875
L4.89062 17.1875
L4.89062 26.7031
z
" id="BitstreamVeraSans-Roman-34"/>
      </defs>
      <g transform="translate(217.229903846 259.933966346)scale(0.18 -0.18)">
       <use xlink:href="#BitstreamVeraSans-Roman-34"/>
      </g>
     </g>
    </g>
    <g id="text_5">
     <!-- $x$ -->
     <defs>
      <path d="
M7.8125 2.875
Q9.57812 1.51562 12.7969 1.51562
Q15.9219 1.51562 18.3125 4.51562
Q20.7031 7.51562 21.5781 11.0781
L26.125 28.8125
Q27.2031 33.6406 27.2031 35.4062
Q27.2031 37.8906 25.8125 39.75
Q24.4219 41.6094 21.9219 41.6094
Q18.75 41.6094 15.9688 39.625
Q13.1875 37.6406 11.2812 34.5938
Q9.375 31.5469 8.59375 28.4219
Q8.40625 27.7812 7.8125 27.7812
L6.59375 27.7812
Q5.8125 27.7812 5.8125 28.7188
L5.8125 29
Q6.78125 32.7188 9.125 36.25
Q11.4688 39.7969 14.8594 41.9844
Q18.2656 44.1875 22.125 44.1875
Q25.7812 44.1875 28.7344 42.2344
Q31.6875 40.2812 32.9062 36.9219
Q34.625 39.9844 37.2812 42.0781
Q39.9375 44.1875 43.1094 44.1875
Q45.2656 44.1875 47.5 43.4219
Q49.75 42.6719 51.1719 41.1094
Q52.5938 39.5469 52.5938 37.2031
Q52.5938 34.6719 50.9531 32.8281
Q49.3125 31 46.7812 31
Q45.1719 31 44.0938 32.0312
Q43.0156 33.0625 43.0156 34.625
Q43.0156 36.7188 44.4531 38.2969
Q45.9062 39.8906 47.9062 40.1875
Q46.0938 41.6094 42.9219 41.6094
Q39.7031 41.6094 37.3281 38.625
Q34.9688 35.6406 33.9844 31.9844
L29.5938 14.3125
Q28.5156 10.2969 28.5156 7.71875
Q28.5156 5.17188 29.9531 3.34375
Q31.3906 1.51562 33.7969 1.51562
Q38.4844 1.51562 42.1562 5.64062
Q45.8438 9.76562 47.0156 14.7031
Q47.2188 15.2812 47.7969 15.2812
L49.0312 15.2812
Q49.4219 15.2812 49.6562 15.0156
Q49.9062 14.75 49.9062 14.4062
Q49.9062 14.3125 49.8125 14.1094
Q48.3906 8.15625 43.8438 3.51562
Q39.3125 -1.125 33.5938 -1.125
Q29.9375 -1.125 26.9844 0.84375
Q24.0312 2.82812 22.7969 6.20312
Q21.2344 3.26562 18.4688 1.0625
Q15.7188 -1.125 12.5938 -1.125
Q10.4531 -1.125 8.17188 -0.359375
Q5.90625 0.390625 4.48438 1.95312
Q3.07812 3.51562 3.07812 5.90625
Q3.07812 8.25 4.70312 10.1719
Q6.34375 12.1094 8.79688 12.1094
Q10.4531 12.1094 11.5781 11.1094
Q12.7031 10.1094 12.7031 8.5
Q12.7031 6.39062 11.2969 4.82812
Q9.90625 3.26562 7.8125 2.875" id="Cmmi10-78"/>
     </defs>
     <g transform="translate(258.03 242.256778846)scale(0.18 -0.18)">
      <use transform="translate(0.0 0.8125)" xlink:href="#Cmmi10-78"/>
     </g>
    </g>
   </g>
   <g id="matplotlib.axis_2">
    <g id="ytick_1">
     <g id="line2d_7">
      <defs>
       <path d="
M0 0
L4 0" id="m728421d6d4" style="stroke:#000000;stroke-width:0.5;"/>
      </defs>
      <g>
       <use style="stroke:#000000;stroke-width:0.5;" x="35.2188461538" xlink:href="#m728421d6d4" y="196.683701923"/>
      </g>
     </g>
     <g id="text_6">
      <!-- 1 -->
      <g transform="translate(23.4057211538 201.650576923)scale(0.18 -0.18)">
       <use xlink:href="#BitstreamVeraSans-Roman-31"/>
      </g>
     </g>
    </g>
    <g id="ytick_2">
     <g id="line2d_8">
      <g>
       <use style="stroke:#000000;stroke-width:0.5;" x="35.2188461538" xlink:href="#m728421d6d4" y="151.110625"/>
      </g>
     </g>
     <g id="text_7">
      <!-- 2 -->
      <g transform="translate(22.8882211538 156.0775)scale(0.18 -0.18)">
       <use xlink:href="#BitstreamVeraSans-Roman-32"/>
      </g>
     </g>
    </g>
    <g id="ytick_3">
     <g id="line2d_9">
      <g>
       <use style="stroke:#000000;stroke-width:0.5;" x="35.2188461538" xlink:href="#m728421d6d4" y="105.537548077"/>
      </g>
     </g>
     <g id="text_8">
      <!-- 3 -->
      <g transform="translate(22.5816586538 110.504423077)scale(0.18 -0.18)">
       <use xlink:href="#BitstreamVeraSans-Roman-33"/>
      </g>
     </g>
    </g>
    <g id="ytick_4">
     <g id="line2d_10">
      <g>
       <use style="stroke:#000000;stroke-width:0.5;" x="35.2188461538" xlink:href="#m728421d6d4" y="59.9644711538"/>
      </g>
     </g>
     <g id="text_9">
      <!-- 4 -->
      <g transform="translate(21.6563461538 64.9313461538)scale(0.18 -0.18)">
       <use xlink:href="#BitstreamVeraSans-Roman-34"/>
      </g>
     </g>
    </g>
    <g id="text_10">
     <!-- $y$ -->
     <defs>
      <path d="
M8.40625 -14.3125
Q10.5 -17.9219 15.7188 -17.9219
Q20.4531 -17.9219 23.9219 -14.5938
Q27.3906 -11.2812 29.5156 -6.5625
Q31.6406 -1.85938 32.8125 3.07812
Q28.375 -1.125 23.1875 -1.125
Q19.2344 -1.125 16.4531 0.234375
Q13.6719 1.60938 12.125 4.3125
Q10.5938 7.03125 10.5938 10.8906
Q10.5938 14.1562 11.4688 17.5938
Q12.3594 21.0469 13.9375 25.2656
Q15.5312 29.5 16.7031 32.625
Q18.0156 36.2812 18.0156 38.625
Q18.0156 41.6094 15.8281 41.6094
Q11.8594 41.6094 9.29688 37.5312
Q6.73438 33.4531 5.51562 28.4219
Q5.32812 27.7812 4.6875 27.7812
L3.51562 27.7812
Q2.6875 27.7812 2.6875 28.7188
L2.6875 29
Q4.29688 34.9688 7.60938 39.5781
Q10.9375 44.1875 16.0156 44.1875
Q19.5781 44.1875 22.0469 41.8438
Q24.5156 39.5 24.5156 35.8906
Q24.5156 34.0312 23.6875 31.9844
Q23.25 30.7656 21.6875 26.6562
Q20.125 22.5625 19.2812 19.875
Q18.4531 17.1875 17.9219 14.5938
Q17.3906 12.0156 17.3906 9.42188
Q17.3906 6.10938 18.7969 3.8125
Q20.2188 1.51562 23.2969 1.51562
Q29.5 1.51562 34.4219 9.07812
L42 39.8906
Q42.3281 41.2188 43.5469 42.1562
Q44.7812 43.1094 46.1875 43.1094
Q47.4062 43.1094 48.3125 42.3281
Q49.2188 41.5469 49.2188 40.2812
Q49.2188 39.7031 49.125 39.5
L39.2031 -0.296875
Q37.8906 -5.42188 34.375 -10.1094
Q30.8594 -14.7969 25.9062 -17.6562
Q20.9531 -20.5156 15.5781 -20.5156
Q12.9844 -20.5156 10.4375 -19.5
Q7.90625 -18.5 6.34375 -16.5
Q4.78125 -14.5 4.78125 -11.8125
Q4.78125 -9.07812 6.39062 -7.07812
Q8.01562 -5.07812 10.6875 -5.07812
Q12.3125 -5.07812 13.4062 -6.07812
Q14.5 -7.07812 14.5 -8.6875
Q14.5 -10.9844 12.7812 -12.6875
Q11.0781 -14.4062 8.79688 -14.4062
Q8.6875 -14.3594 8.59375 -14.3281
Q8.5 -14.3125 8.40625 -14.3125" id="Cmmi10-79"/>
     </defs>
     <g transform="translate(30.7188461538 20.840625)scale(0.18 -0.18)">
      <use transform="translate(0.0 0.8125)" xlink:href="#Cmmi10-79"/>
     </g>
    </g>
   </g>
   <g id="patch_4">
    <path d="
M7.2 242.257
L250.03 242.257" style="fill:none;stroke:#000000;stroke-width:0.8;"/>
   </g>
   <g id="patch_5">
    <path d="
M35.2188 269.601
L35.2188 32.6206" style="fill:none;stroke:#000000;stroke-width:0.8;"/>
   </g>
  </g>
 </g>
 <defs>
  <clipPath id="pfbe49a6bba">
   <rect height="236.98" width="242.83" x="7.2" y="32.620625"/>
  </clipPath>
 </defs>
</svg>
