<?xml version="1.0" encoding="utf-8" standalone="no"?>
<!DOCTYPE svg PUBLIC "-//W3C//DTD SVG 1.1//EN"
  "http://www.w3.org/Graphics/SVG/1.1/DTD/svg11.dtd">
<!-- Created with matplotlib (http://matplotlib.org/) -->
<svg height="280pt" version="1.1" viewBox="0 0 273 280" width="273pt" xmlns="http://www.w3.org/2000/svg" xmlns:xlink="http://www.w3.org/1999/xlink">
 <defs>
  <style type="text/css">
*{stroke-linecap:butt;stroke-linejoin:round;}
  </style>
 </defs>
 <g id="figure_1">
  <g id="patch_1">
   <path d="
M0 280.401
L273.42 280.401
L273.42 0
L0 0
z
" style="fill:#ffffff;"/>
  </g>
  <g id="axes_1">
   <g id="patch_2">
    <path d="
M7.2 273.201
L247.78 273.201
L247.78 32.6206
L7.2 32.6206
z
" style="fill:#ffffff;"/>
   </g>
   <g id="patch_3">
    <path clip-path="url(#pb9ae6f848b)" d="
M34.9592 245.441
L34.9592 106.645
L81.2246 106.645
L81.2246 245.441
z
" style="fill:#90ee90;"/>
   </g>
   <g id="patch_4">
    <path clip-path="url(#pb9ae6f848b)" d="
M34.9592 245.441
L34.9592 106.645
L81.2246 106.645
L81.2246 245.441
z
" style="fill:none;stroke:#000000;"/>
   </g>
   <g id="patch_5">
    <path clip-path="url(#pb9ae6f848b)" d="
M81.2246 245.441
L81.2246 60.3799
L127.49 60.3799
L127.49 245.441
z
" style="fill:#90ee90;"/>
   </g>
   <g id="patch_6">
    <path clip-path="url(#pb9ae6f848b)" d="
M81.2246 245.441
L81.2246 60.3799
L127.49 60.3799
L127.49 245.441
z
" style="fill:none;stroke:#000000;"/>
   </g>
   <g id="patch_7">
    <path clip-path="url(#pb9ae6f848b)" d="
M127.49 245.441
L127.49 106.645
L173.755 106.645
L173.755 245.441
z
" style="fill:#90ee90;"/>
   </g>
   <g id="patch_8">
    <path clip-path="url(#pb9ae6f848b)" d="
M127.49 245.441
L127.49 106.645
L173.755 106.645
L173.755 245.441
z
" style="fill:none;stroke:#000000;"/>
   </g>
   <g id="patch_9">
    <path clip-path="url(#pb9ae6f848b)" d="
M173.755 245.441
L173.755 245.441
L220.021 245.441
L220.021 245.441
z
" style="fill:#90ee90;"/>
   </g>
   <g id="patch_10">
    <path clip-path="url(#pb9ae6f848b)" d="
M173.755 245.441
L173.755 245.441
L220.021 245.441
L220.021 245.441
z
" style="fill:none;stroke:#000000;"/>
   </g>
   <g id="line2d_1">
    <path clip-path="url(#pb9ae6f848b)" d="
M11.8265 245.441
L12.6371 245.441
L14.6029 245.441
L14.82 245.441
L16.4256 245.441
L17.8066 245.441
L18.5098 245.441
L19.4718 245.441
L21.4524 245.441
L22.1825 245.441
L23.6584 245.441
L24.1923 245.441
L25.9723 245.441
L26.9857 245.441
L27.9008 245.441
L29.7195 245.441
L30.2031 245.441
L31.2319 245.441
L32.7922 245.441
L33.4788 245.441
L34.84 245.441
L36.3535 245.441
L37.6132 245.441
L38.7707 245.441
L39.6612 245.441
L41.0114 245.441
L41.6265 245.441
L43.4893 245.441
L44.4869 245.441
L45.3197 245.441
L46.6986 245.441
L47.6204 245.441
L49.0327 245.441
L50.1794 245.441
L51.0674 245.441
L51.9384 245.441
L53.9092 245.441
L54.8313 245.441
L55.8406 245.441
L56.7319 245.441
L58.4283 245.441
L59.8665 245.441
L60.3837 245.441
L61.7866 245.441
L62.9127 245.441
L63.6316 245.441
L64.8907 245.441
L65.9819 245.441
L67.4666 245.441
L68.2445 245.441
L69.4869 245.441
L71.5771 245.441
L72.2232 245.441
L73.9929 245.441
L74.9117 245.441
L75.4011 245.441" style="fill:none;"/>
   </g>
   <g id="line2d_2">
    <path clip-path="url(#pb9ae6f848b)" d="
M78.9478 245.441
L243.153 245.441
L243.153 245.441" style="fill:none;"/>
   </g>
   <g id="line2d_3">
    <path clip-path="url(#pb9ae6f848b)" d="
M34.9592 245.441
L39.6099 227.306
L44.2041 210.309
L48.6717 194.656
L52.4447 182.108
L56.9457 167.944
L60.7639 156.615
L64.4228 146.351
L68.494 135.609
L72.2406 126.358
L75.7077 118.337
L79.2175 110.747
L83.0426 103.081
L86.6974 96.3471
L89.944 90.8497
L92.9578 86.1544
L95.8751 81.9835
L99.1666 77.7193
L101.835 74.6063
L104.671 71.6348
L107.182 69.2939
L109.882 67.0812
L112.794 65.0479
L115.41 63.5341
L117.558 62.5121
L119.957 61.6064
L122.028 61.0248
L124.219 60.6111
L126.717 60.3928
L128.972 60.4274
L131.328 60.6983
L133.648 61.1995
L136.133 61.9945
L138.008 62.7709
L140.321 63.9386
L142.863 65.4881
L145.487 67.3805
L147.807 69.3019
L150.594 71.9178
L152.682 74.0974
L156.062 78.0245
L158.498 81.162
L161.264 85.0347
L164.259 89.6016
L167.078 94.2551
L170.517 100.395
L173.852 106.838
L176.779 112.891
L180.515 121.153
L184.397 130.375
L188 139.521
L191.188 148.08
L195.616 160.696
L199.509 172.489
L203.543 185.4
L207.971 200.379
L212.22 215.554
L216.947 233.351
L220.021 245.441
L220.021 245.441" style="fill:none;stroke:#0000ff;stroke-linecap:square;stroke-width:2.0;"/>
   </g>
   <g id="matplotlib.axis_1">
    <g id="xtick_1">
     <g id="line2d_4">
      <defs>
       <path d="
M0 0
L0 -4" id="m93b0483c22" style="stroke:#000000;stroke-width:0.5;"/>
      </defs>
      <g>
       <use style="stroke:#000000;stroke-width:0.5;" x="81.2246153846" xlink:href="#m93b0483c22" y="245.441394231"/>
      </g>
     </g>
     <g id="text_1">
      <!-- 1 -->
      <defs>
       <path d="
M12.4062 8.29688
L28.5156 8.29688
L28.5156 63.9219
L10.9844 60.4062
L10.9844 69.3906
L28.4219 72.9062
L38.2812 72.9062
L38.2812 8.29688
L54.3906 8.29688
L54.3906 0
L12.4062 0
z
" id="BitstreamVeraSans-Roman-31"/>
      </defs>
      <g transform="translate(77.3180528846 263.118581731)scale(0.18 -0.18)">
       <use xlink:href="#BitstreamVeraSans-Roman-31"/>
      </g>
     </g>
    </g>
    <g id="xtick_2">
     <g id="line2d_5">
      <g>
       <use style="stroke:#000000;stroke-width:0.5;" x="127.49" xlink:href="#m93b0483c22" y="245.441394231"/>
      </g>
     </g>
     <g id="text_2">
      <!-- 2 -->
      <defs>
       <path d="
M19.1875 8.29688
L53.6094 8.29688
L53.6094 0
L7.32812 0
L7.32812 8.29688
Q12.9375 14.1094 22.625 23.8906
Q32.3281 33.6875 34.8125 36.5312
Q39.5469 41.8438 41.4219 45.5312
Q43.3125 49.2188 43.3125 52.7812
Q43.3125 58.5938 39.2344 62.25
Q35.1562 65.9219 28.6094 65.9219
Q23.9688 65.9219 18.8125 64.3125
Q13.6719 62.7031 7.8125 59.4219
L7.8125 69.3906
Q13.7656 71.7812 18.9375 73
Q24.125 74.2188 28.4219 74.2188
Q39.75 74.2188 46.4844 68.5469
Q53.2188 62.8906 53.2188 53.4219
Q53.2188 48.9219 51.5312 44.8906
Q49.8594 40.875 45.4062 35.4062
Q44.1875 33.9844 37.6406 27.2188
Q31.1094 20.4531 19.1875 8.29688" id="BitstreamVeraSans-Roman-32"/>
      </defs>
      <g transform="translate(123.3246875 263.118581731)scale(0.18 -0.18)">
       <use xlink:href="#BitstreamVeraSans-Roman-32"/>
      </g>
     </g>
    </g>
    <g id="xtick_3">
     <g id="line2d_6">
      <g>
       <use style="stroke:#000000;stroke-width:0.5;" x="173.755384615" xlink:href="#m93b0483c22" y="245.441394231"/>
      </g>
     </g>
     <g id="text_3">
      <!-- 3 -->
      <defs>
       <path d="
M40.5781 39.3125
Q47.6562 37.7969 51.625 33
Q55.6094 28.2188 55.6094 21.1875
Q55.6094 10.4062 48.1875 4.48438
Q40.7656 -1.42188 27.0938 -1.42188
Q22.5156 -1.42188 17.6562 -0.515625
Q12.7969 0.390625 7.625 2.20312
L7.625 11.7188
Q11.7188 9.32812 16.5938 8.10938
Q21.4844 6.89062 26.8125 6.89062
Q36.0781 6.89062 40.9375 10.5469
Q45.7969 14.2031 45.7969 21.1875
Q45.7969 27.6406 41.2812 31.2656
Q36.7656 34.9062 28.7188 34.9062
L20.2188 34.9062
L20.2188 43.0156
L29.1094 43.0156
Q36.375 43.0156 40.2344 45.9219
Q44.0938 48.8281 44.0938 54.2969
Q44.0938 59.9062 40.1094 62.9062
Q36.1406 65.9219 28.7188 65.9219
Q24.6562 65.9219 20.0156 65.0312
Q15.375 64.1562 9.8125 62.3125
L9.8125 71.0938
Q15.4375 72.6562 20.3438 73.4375
Q25.25 74.2188 29.5938 74.2188
Q40.8281 74.2188 47.3594 69.1094
Q53.9062 64.0156 53.9062 55.3281
Q53.9062 49.2656 50.4375 45.0938
Q46.9688 40.9219 40.5781 39.3125" id="BitstreamVeraSans-Roman-33"/>
      </defs>
      <g transform="translate(169.436790865 263.118581731)scale(0.18 -0.18)">
       <use xlink:href="#BitstreamVeraSans-Roman-33"/>
      </g>
     </g>
    </g>
    <g id="xtick_4">
     <g id="line2d_7">
      <g>
       <use style="stroke:#000000;stroke-width:0.5;" x="220.020769231" xlink:href="#m93b0483c22" y="245.441394231"/>
      </g>
     </g>
     <g id="text_4">
      <!-- 4 -->
      <defs>
       <path d="
M37.7969 64.3125
L12.8906 25.3906
L37.7969 25.3906
z

M35.2031 72.9062
L47.6094 72.9062
L47.6094 25.3906
L58.0156 25.3906
L58.0156 17.1875
L47.6094 17.1875
L47.6094 0
L37.7969 0
L37.7969 17.1875
L4.89062 17.1875
L4.89062 26.7031
z
" id="BitstreamVeraSans-Roman-34"/>
      </defs>
      <g transform="translate(215.239519231 263.118581731)scale(0.18 -0.18)">
       <use xlink:href="#BitstreamVeraSans-Roman-34"/>
      </g>
     </g>
    </g>
    <g id="text_5">
     <!-- $x$ -->
     <defs>
      <path d="
M7.8125 2.875
Q9.57812 1.51562 12.7969 1.51562
Q15.9219 1.51562 18.3125 4.51562
Q20.7031 7.51562 21.5781 11.0781
L26.125 28.8125
Q27.2031 33.6406 27.2031 35.4062
Q27.2031 37.8906 25.8125 39.75
Q24.4219 41.6094 21.9219 41.6094
Q18.75 41.6094 15.9688 39.625
Q13.1875 37.6406 11.2812 34.5938
Q9.375 31.5469 8.59375 28.4219
Q8.40625 27.7812 7.8125 27.7812
L6.59375 27.7812
Q5.8125 27.7812 5.8125 28.7188
L5.8125 29
Q6.78125 32.7188 9.125 36.25
Q11.4688 39.7969 14.8594 41.9844
Q18.2656 44.1875 22.125 44.1875
Q25.7812 44.1875 28.7344 42.2344
Q31.6875 40.2812 32.9062 36.9219
Q34.625 39.9844 37.2812 42.0781
Q39.9375 44.1875 43.1094 44.1875
Q45.2656 44.1875 47.5 43.4219
Q49.75 42.6719 51.1719 41.1094
Q52.5938 39.5469 52.5938 37.2031
Q52.5938 34.6719 50.9531 32.8281
Q49.3125 31 46.7812 31
Q45.1719 31 44.0938 32.0312
Q43.0156 33.0625 43.0156 34.625
Q43.0156 36.7188 44.4531 38.2969
Q45.9062 39.8906 47.9062 40.1875
Q46.0938 41.6094 42.9219 41.6094
Q39.7031 41.6094 37.3281 38.625
Q34.9688 35.6406 33.9844 31.9844
L29.5938 14.3125
Q28.5156 10.2969 28.5156 7.71875
Q28.5156 5.17188 29.9531 3.34375
Q31.3906 1.51562 33.7969 1.51562
Q38.4844 1.51562 42.1562 5.64062
Q45.8438 9.76562 47.0156 14.7031
Q47.2188 15.2812 47.7969 15.2812
L49.0312 15.2812
Q49.4219 15.2812 49.6562 15.0156
Q49.9062 14.75 49.9062 14.4062
Q49.9062 14.3125 49.8125 14.1094
Q48.3906 8.15625 43.8438 3.51562
Q39.3125 -1.125 33.5938 -1.125
Q29.9375 -1.125 26.9844 0.84375
Q24.0312 2.82812 22.7969 6.20312
Q21.2344 3.26562 18.4688 1.0625
Q15.7188 -1.125 12.5938 -1.125
Q10.4531 -1.125 8.17188 -0.359375
Q5.90625 0.390625 4.48438 1.95312
Q3.07812 3.51562 3.07812 5.90625
Q3.07812 8.25 4.70312 10.1719
Q6.34375 12.1094 8.79688 12.1094
Q10.4531 12.1094 11.5781 11.1094
Q12.7031 10.1094 12.7031 8.5
Q12.7031 6.39062 11.2969 4.82812
Q9.90625 3.26562 7.8125 2.875" id="Cmmi10-78"/>
     </defs>
     <g transform="translate(255.78 245.441394231)scale(0.18 -0.18)">
      <use transform="translate(0.0 0.8125)" xlink:href="#Cmmi10-78"/>
     </g>
    </g>
   </g>
   <g id="matplotlib.axis_2">
    <g id="ytick_1">
     <g id="line2d_8">
      <defs>
       <path d="
M0 0
L4 0" id="m728421d6d4" style="stroke:#000000;stroke-width:0.5;"/>
      </defs>
      <g>
       <use style="stroke:#000000;stroke-width:0.5;" x="34.9592307692" xlink:href="#m728421d6d4" y="199.176009615"/>
      </g>
     </g>
     <g id="text_6">
      <!-- 1 -->
      <g transform="translate(23.1461057692 204.142884615)scale(0.18 -0.18)">
       <use xlink:href="#BitstreamVeraSans-Roman-31"/>
      </g>
     </g>
    </g>
    <g id="ytick_2">
     <g id="line2d_9">
      <g>
       <use style="stroke:#000000;stroke-width:0.5;" x="34.9592307692" xlink:href="#m728421d6d4" y="152.910625"/>
      </g>
     </g>
     <g id="text_7">
      <!-- 2 -->
      <g transform="translate(22.6286057692 157.8775)scale(0.18 -0.18)">
       <use xlink:href="#BitstreamVeraSans-Roman-32"/>
      </g>
     </g>
    </g>
    <g id="ytick_3">
     <g id="line2d_10">
      <g>
       <use style="stroke:#000000;stroke-width:0.5;" x="34.9592307692" xlink:href="#m728421d6d4" y="106.645240385"/>
      </g>
     </g>
     <g id="text_8">
      <!-- 3 -->
      <g transform="translate(22.3220432692 111.612115385)scale(0.18 -0.18)">
       <use xlink:href="#BitstreamVeraSans-Roman-33"/>
      </g>
     </g>
    </g>
    <g id="ytick_4">
     <g id="line2d_11">
      <g>
       <use style="stroke:#000000;stroke-width:0.5;" x="34.9592307692" xlink:href="#m728421d6d4" y="60.3798557692"/>
      </g>
     </g>
     <g id="text_9">
      <!-- 4 -->
      <g transform="translate(21.3967307692 65.3467307692)scale(0.18 -0.18)">
       <use xlink:href="#BitstreamVeraSans-Roman-34"/>
      </g>
     </g>
    </g>
    <g id="text_10">
     <!-- $y$ -->
     <defs>
      <path d="
M8.40625 -14.3125
Q10.5 -17.9219 15.7188 -17.9219
Q20.4531 -17.9219 23.9219 -14.5938
Q27.3906 -11.2812 29.5156 -6.5625
Q31.6406 -1.85938 32.8125 3.07812
Q28.375 -1.125 23.1875 -1.125
Q19.2344 -1.125 16.4531 0.234375
Q13.6719 1.60938 12.125 4.3125
Q10.5938 7.03125 10.5938 10.8906
Q10.5938 14.1562 11.4688 17.5938
Q12.3594 21.0469 13.9375 25.2656
Q15.5312 29.5 16.7031 32.625
Q18.0156 36.2812 18.0156 38.625
Q18.0156 41.6094 15.8281 41.6094
Q11.8594 41.6094 9.29688 37.5312
Q6.73438 33.4531 5.51562 28.4219
Q5.32812 27.7812 4.6875 27.7812
L3.51562 27.7812
Q2.6875 27.7812 2.6875 28.7188
L2.6875 29
Q4.29688 34.9688 7.60938 39.5781
Q10.9375 44.1875 16.0156 44.1875
Q19.5781 44.1875 22.0469 41.8438
Q24.5156 39.5 24.5156 35.8906
Q24.5156 34.0312 23.6875 31.9844
Q23.25 30.7656 21.6875 26.6562
Q20.125 22.5625 19.2812 19.875
Q18.4531 17.1875 17.9219 14.5938
Q17.3906 12.0156 17.3906 9.42188
Q17.3906 6.10938 18.7969 3.8125
Q20.2188 1.51562 23.2969 1.51562
Q29.5 1.51562 34.4219 9.07812
L42 39.8906
Q42.3281 41.2188 43.5469 42.1562
Q44.7812 43.1094 46.1875 43.1094
Q47.4062 43.1094 48.3125 42.3281
Q49.2188 41.5469 49.2188 40.2812
Q49.2188 39.7031 49.125 39.5
L39.2031 -0.296875
Q37.8906 -5.42188 34.375 -10.1094
Q30.8594 -14.7969 25.9062 -17.6562
Q20.9531 -20.5156 15.5781 -20.5156
Q12.9844 -20.5156 10.4375 -19.5
Q7.90625 -18.5 6.34375 -16.5
Q4.78125 -14.5 4.78125 -11.8125
Q4.78125 -9.07812 6.39062 -7.07812
Q8.01562 -5.07812 10.6875 -5.07812
Q12.3125 -5.07812 13.4062 -6.07812
Q14.5 -7.07812 14.5 -8.6875
Q14.5 -10.9844 12.7812 -12.6875
Q11.0781 -14.4062 8.79688 -14.4062
Q8.6875 -14.3594 8.59375 -14.3281
Q8.5 -14.3125 8.40625 -14.3125" id="Cmmi10-79"/>
     </defs>
     <g transform="translate(30.4592307692 20.840625)scale(0.18 -0.18)">
      <use transform="translate(0.0 0.8125)" xlink:href="#Cmmi10-79"/>
     </g>
    </g>
   </g>
   <g id="patch_11">
    <path d="
M7.2 245.441
L247.78 245.441" style="fill:none;stroke:#000000;stroke-width:0.8;"/>
   </g>
   <g id="patch_12">
    <path d="
M34.9592 273.201
L34.9592 32.6206" style="fill:none;stroke:#000000;stroke-width:0.8;"/>
   </g>
   <g id="PathCollection_1">
    <defs>
     <path d="
M0 2.73861
C0.726289 2.73861 1.42293 2.45006 1.93649 1.93649
C2.45006 1.42293 2.73861 0.726289 2.73861 0
C2.73861 -0.726289 2.45006 -1.42293 1.93649 -1.93649
C1.42293 -2.45006 0.726289 -2.73861 0 -2.73861
C-0.726289 -2.73861 -1.42293 -2.45006 -1.93649 -1.93649
C-2.45006 -1.42293 -2.73861 -0.726289 -2.73861 0
C-2.73861 0.726289 -2.45006 1.42293 -1.93649 1.93649
C-1.42293 2.45006 -0.726289 2.73861 0 2.73861
z
" id="C0_0_976255c095"/>
    </defs>
    <g clip-path="url(#pb9ae6f848b)">
     <use style="fill:#ff0000;" x="81.2246153846" xlink:href="#C0_0_976255c095" y="106.645240385"/>
    </g>
    <g clip-path="url(#pb9ae6f848b)">
     <use style="fill:#ff0000;" x="127.49" xlink:href="#C0_0_976255c095" y="60.3798557692"/>
    </g>
    <g clip-path="url(#pb9ae6f848b)">
     <use style="fill:#ff0000;" x="173.755384615" xlink:href="#C0_0_976255c095" y="106.645240385"/>
    </g>
    <g clip-path="url(#pb9ae6f848b)">
     <use style="fill:#ff0000;" x="220.020769231" xlink:href="#C0_0_976255c095" y="245.441394231"/>
    </g>
   </g>
  </g>
 </g>
 <defs>
  <clipPath id="pb9ae6f848b">
   <rect height="240.58" width="240.58" x="7.2" y="32.620625"/>
  </clipPath>
 </defs>
</svg>
