<?xml version="1.0" encoding="UTF-8" standalone="no"?>
<!-- Created with matplotlib (http://matplotlib.org/) -->

<svg
   xmlns:dc="http://purl.org/dc/elements/1.1/"
   xmlns:cc="http://creativecommons.org/ns#"
   xmlns:rdf="http://www.w3.org/1999/02/22-rdf-syntax-ns#"
   xmlns:svg="http://www.w3.org/2000/svg"
   xmlns="http://www.w3.org/2000/svg"
   xmlns:xlink="http://www.w3.org/1999/xlink"
   xmlns:sodipodi="http://sodipodi.sourceforge.net/DTD/sodipodi-0.dtd"
   xmlns:inkscape="http://www.inkscape.org/namespaces/inkscape"
   height="276pt"
   version="1.1"
   viewBox="0 0 419 276"
   width="419pt"
   id="svg2"
   inkscape:version="0.48.5 r10040"
   sodipodi:docname="PA.6.2.eps">
  <metadata
     id="metadata91">
    <rdf:RDF>
      <cc:Work
         rdf:about="">
        <dc:format>image/svg+xml</dc:format>
        <dc:type
           rdf:resource="http://purl.org/dc/dcmitype/StillImage" />
        <dc:title></dc:title>
      </cc:Work>
    </rdf:RDF>
  </metadata>
  <sodipodi:namedview
     pagecolor="#ffffff"
     bordercolor="#666666"
     borderopacity="1"
     objecttolerance="10"
     gridtolerance="10"
     guidetolerance="10"
     inkscape:pageopacity="0"
     inkscape:pageshadow="2"
     inkscape:window-width="640"
     inkscape:window-height="480"
     id="namedview89"
     showgrid="false"
     inkscape:zoom="0.54606205"
     inkscape:cx="261.875"
     inkscape:cy="172.5"
     inkscape:window-x="0"
     inkscape:window-y="0"
     inkscape:window-maximized="0"
     inkscape:current-layer="svg2" />
  <defs
     id="defs4">
    <style
       type="text/css"
       id="style6">
*{stroke-linecap:butt;stroke-linejoin:round;}
  </style>
  </defs>
  <g
     id="figure_1">
    <g
       id="patch_1">
      <path
         d=" M0 276.801 L419.67 276.801 L419.67 0 L0 0 z "
         style="fill:#ffffff;"
         id="path10" />
    </g>
    <g
       id="axes_1">
      <g
         id="patch_2">
        <path
           d=" M7.2 269.601 L394.03 269.601 L394.03 32.6206 L7.2 32.6206 z "
           style="fill:#ffffff;"
           id="path14" />
      </g>
      <g
         id="line2d_1">
        <path
           clip-path="url(#p24c1e4ac3f)"
           d=" M14.639 219.47 L386.591 219.47 L386.591 219.47"
           style="fill:none;"
           id="path17" />
      </g>
      <g
         id="line2d_2">
        <path
           clip-path="url(#p24c1e4ac3f)"
           d=" M28.9449 219.47 L30.7697 219.433 L32.4628 219.334 L34.6798 219.111 L38.0243 218.582 L41.6644 217.749 L44.3349 216.975 L49.1196 215.258 L52.1607 213.956 L55.7244 212.233 L60.3136 209.716 L62.8473 208.189 L68.5919 204.394 L73.6806 200.672 L79.0225 196.436 L83.0658 193.027 L89.4224 187.355 L96.0376 181.104 L103.188 174.024 L112.116 164.84 L125.436 150.767 L140.582 134.85 L149.517 125.818 L156.429 119.144 L162.364 113.697 L167.914 108.885 L174.317 103.725 L178.507 100.604 L182.776 97.6525 L187.075 94.9321 L190.097 93.1808 L194.444 90.9086 L198.59 89.03 L202.057 87.6872 L205.551 86.5544 L208.836 85.7008 L212.85 84.9472 L215.806 84.6045 L219.538 84.4392 L222.531 84.5297 L225.821 84.8664 L228.109 85.2515 L231.616 86.0885 L235.047 87.2057 L237.786 88.3155 L240.644 89.6858 L244.033 91.5983 L247.628 93.9782 L250.314 95.9988 L252.582 97.8701 L254.314 99.4026 L258.286 103.263 L262.486 107.881 L265.909 112.066 L268.985 116.156 L272.576 121.336 L275.547 125.96 L279.592 132.756 L281.875 136.852 L285.694 144.135 L289.591 152.134 L293.33 160.358 L297.417 169.98 L300.737 178.293 L305.383 190.687 L308.865 200.576 L312.814 212.423 L315.062 219.47 L315.062 219.47"
           style="fill:none;stroke:#0000ff;stroke-linecap:square;stroke-width:2.0;"
           id="path20" />
      </g>
      <g
         id="matplotlib.axis_1">
        <g
           id="xtick_1">
          <g
             id="line2d_3">
            <defs
               id="defs25">
              <path
                 d=" M0 0 L0 -4"
                 id="m93b0483c22"
                 style="stroke:#000000;stroke-width:0.5;" />
            </defs>
            <g
               id="g28">
              <use
                 style="stroke:#000000;stroke-width:0.5;"
                 x="315.061745562"
                 xlink:href="#m93b0483c22"
                 y="219.470240385"
                 id="use30" />
            </g>
          </g>
          <g
             id="text_1">
            <!-- 1 -->
            <defs
               id="defs33">
              <path
                 d=" M12.4062 8.29688 L28.5156 8.29688 L28.5156 63.9219 L10.9844 60.4062 L10.9844 69.3906 L28.4219 72.9062 L38.2812 72.9062 L38.2812 8.29688 L54.3906 8.29688 L54.3906 0 L12.4062 0 z "
                 id="BitstreamVeraSans-Roman-31" />
            </defs>
            <g
               transform="translate(311.155183062 237.147427885)scale(0.18 -0.18)"
               id="g36">
              <use
                 xlink:href="#BitstreamVeraSans-Roman-31"
                 id="use38" />
            </g>
          </g>
        </g>
        <g
           id="text_2">
          <!-- $x$ -->
          <defs
             id="defs41">
            <path
               d=" M7.8125 2.875 Q9.57812 1.51562 12.7969 1.51562 Q15.9219 1.51562 18.3125 4.51562 Q20.7031 7.51562 21.5781 11.0781 L26.125 28.8125 Q27.2031 33.6406 27.2031 35.4062 Q27.2031 37.8906 25.8125 39.75 Q24.4219 41.6094 21.9219 41.6094 Q18.75 41.6094 15.9688 39.625 Q13.1875 37.6406 11.2812 34.5938 Q9.375 31.5469 8.59375 28.4219 Q8.40625 27.7812 7.8125 27.7812 L6.59375 27.7812 Q5.8125 27.7812 5.8125 28.7188 L5.8125 29 Q6.78125 32.7188 9.125 36.25 Q11.4688 39.7969 14.8594 41.9844 Q18.2656 44.1875 22.125 44.1875 Q25.7812 44.1875 28.7344 42.2344 Q31.6875 40.2812 32.9062 36.9219 Q34.625 39.9844 37.2812 42.0781 Q39.9375 44.1875 43.1094 44.1875 Q45.2656 44.1875 47.5 43.4219 Q49.75 42.6719 51.1719 41.1094 Q52.5938 39.5469 52.5938 37.2031 Q52.5938 34.6719 50.9531 32.8281 Q49.3125 31 46.7812 31 Q45.1719 31 44.0938 32.0312 Q43.0156 33.0625 43.0156 34.625 Q43.0156 36.7188 44.4531 38.2969 Q45.9062 39.8906 47.9062 40.1875 Q46.0938 41.6094 42.9219 41.6094 Q39.7031 41.6094 37.3281 38.625 Q34.9688 35.6406 33.9844 31.9844 L29.5938 14.3125 Q28.5156 10.2969 28.5156 7.71875 Q28.5156 5.17188 29.9531 3.34375 Q31.3906 1.51562 33.7969 1.51562 Q38.4844 1.51562 42.1562 5.64062 Q45.8438 9.76562 47.0156 14.7031 Q47.2188 15.2812 47.7969 15.2812 L49.0312 15.2812 Q49.4219 15.2812 49.6562 15.0156 Q49.9062 14.75 49.9062 14.4062 Q49.9062 14.3125 49.8125 14.1094 Q48.3906 8.15625 43.8438 3.51562 Q39.3125 -1.125 33.5938 -1.125 Q29.9375 -1.125 26.9844 0.84375 Q24.0312 2.82812 22.7969 6.20312 Q21.2344 3.26562 18.4688 1.0625 Q15.7188 -1.125 12.5938 -1.125 Q10.4531 -1.125 8.17188 -0.359375 Q5.90625 0.390625 4.48438 1.95312 Q3.07812 3.51562 3.07812 5.90625 Q3.07812 8.25 4.70312 10.1719 Q6.34375 12.1094 8.79688 12.1094 Q10.4531 12.1094 11.5781 11.1094 Q12.7031 10.1094 12.7031 8.5 Q12.7031 6.39062 11.2969 4.82812 Q9.90625 3.26562 7.8125 2.875"
               id="Cmmi10-78" />
          </defs>
          <g
             transform="translate(402.03 219.470240385)scale(0.18 -0.18)"
             id="g44">
            <use
               transform="translate(0.0 0.8125)"
               xlink:href="#Cmmi10-78"
               id="use46" />
          </g>
        </g>
      </g>
      <g
         id="matplotlib.axis_2">
        <g
           id="text_3">
          <!-- $y$ -->
          <defs
             id="defs50">
            <path
               d=" M8.40625 -14.3125 Q10.5 -17.9219 15.7188 -17.9219 Q20.4531 -17.9219 23.9219 -14.5938 Q27.3906 -11.2812 29.5156 -6.5625 Q31.6406 -1.85938 32.8125 3.07812 Q28.375 -1.125 23.1875 -1.125 Q19.2344 -1.125 16.4531 0.234375 Q13.6719 1.60938 12.125 4.3125 Q10.5938 7.03125 10.5938 10.8906 Q10.5938 14.1562 11.4688 17.5938 Q12.3594 21.0469 13.9375 25.2656 Q15.5312 29.5 16.7031 32.625 Q18.0156 36.2812 18.0156 38.625 Q18.0156 41.6094 15.8281 41.6094 Q11.8594 41.6094 9.29688 37.5312 Q6.73438 33.4531 5.51562 28.4219 Q5.32812 27.7812 4.6875 27.7812 L3.51562 27.7812 Q2.6875 27.7812 2.6875 28.7188 L2.6875 29 Q4.29688 34.9688 7.60938 39.5781 Q10.9375 44.1875 16.0156 44.1875 Q19.5781 44.1875 22.0469 41.8438 Q24.5156 39.5 24.5156 35.8906 Q24.5156 34.0312 23.6875 31.9844 Q23.25 30.7656 21.6875 26.6562 Q20.125 22.5625 19.2812 19.875 Q18.4531 17.1875 17.9219 14.5938 Q17.3906 12.0156 17.3906 9.42188 Q17.3906 6.10938 18.7969 3.8125 Q20.2188 1.51562 23.2969 1.51562 Q29.5 1.51562 34.4219 9.07812 L42 39.8906 Q42.3281 41.2188 43.5469 42.1562 Q44.7812 43.1094 46.1875 43.1094 Q47.4062 43.1094 48.3125 42.3281 Q49.2188 41.5469 49.2188 40.2812 Q49.2188 39.7031 49.125 39.5 L39.2031 -0.296875 Q37.8906 -5.42188 34.375 -10.1094 Q30.8594 -14.7969 25.9062 -17.6562 Q20.9531 -20.5156 15.5781 -20.5156 Q12.9844 -20.5156 10.4375 -19.5 Q7.90625 -18.5 6.34375 -16.5 Q4.78125 -14.5 4.78125 -11.8125 Q4.78125 -9.07812 6.39062 -7.07812 Q8.01562 -5.07812 10.6875 -5.07812 Q12.3125 -5.07812 13.4062 -6.07812 Q14.5 -7.07812 14.5 -8.6875 Q14.5 -10.9844 12.7812 -12.6875 Q11.0781 -14.4062 8.79688 -14.4062 Q8.6875 -14.3594 8.59375 -14.3281 Q8.5 -14.3125 8.40625 -14.3125"
               id="Cmmi10-79" />
          </defs>
          <g
             transform="translate(24.4448816568 20.840625)scale(0.18 -0.18)"
             id="g53">
            <use
               transform="translate(0.0 0.8125)"
               xlink:href="#Cmmi10-79"
               id="use55" />
          </g>
        </g>
      </g>
      <g
         id="patch_3">
        <path
           d=" M7.2 219.47 L394.03 219.47"
           style="fill:none;stroke:#000000;stroke-width:0.8;"
           id="path58" />
      </g>
      <g
         id="patch_4">
        <path
           d=" M28.9449 269.601 L28.9449 32.6206"
           style="fill:none;stroke:#000000;stroke-width:0.8;"
           id="path61" />
      </g>
      <g
         id="text_4">
        <!-- $y=f(x)$ -->
        <defs
           id="defs64">
          <path
             d=" M31 -24.8125 Q25.4375 -20.4062 21.4062 -14.7188 Q17.3906 -9.03125 14.8125 -2.57812 Q12.25 3.85938 10.9844 10.8906 Q9.71875 17.9219 9.71875 25 Q9.71875 32.1719 10.9844 39.2031 Q12.25 46.2344 14.8594 52.7344 Q17.4844 59.2344 21.5312 64.8906 Q25.5938 70.5625 31 74.8125 Q31 75 31.5 75 L32.4219 75 Q32.7188 75 32.9531 74.7344 Q33.2031 74.4688 33.2031 74.125 Q33.2031 73.6875 33.0156 73.4844 Q28.125 68.7031 24.875 63.2344 Q21.625 57.7656 19.6406 51.5781 Q17.6719 45.4062 16.7969 38.7812 Q15.9219 32.1719 15.9219 25 Q15.9219 -6.78125 32.9062 -23.2969 Q33.2031 -23.5781 33.2031 -24.125 Q33.2031 -24.3594 32.9375 -24.6719 Q32.6719 -25 32.4219 -25 L31.5 -25 Q31 -25 31 -24.8125"
             id="Cmr10-28" />
          <path
             d=" M6.5 -25 Q5.60938 -25 5.60938 -24.125 Q5.60938 -23.6875 5.8125 -23.4844 Q22.9062 -6.78125 22.9062 25 Q22.9062 56.7812 6 73.2969 Q5.60938 73.5312 5.60938 74.125 Q5.60938 74.4688 5.875 74.7344 Q6.15625 75 6.5 75 L7.42188 75 Q7.71875 75 7.90625 74.8125 Q15.0938 69.1406 19.875 61.0312 Q24.6562 52.9375 26.875 43.75 Q29.1094 34.5781 29.1094 25 Q29.1094 17.9219 27.9062 11.0625 Q26.7031 4.20312 24.0938 -2.45312 Q21.4844 -9.125 17.4844 -14.7656 Q13.4844 -20.4062 7.90625 -24.8125 Q7.71875 -25 7.42188 -25 z "
             id="Cmr10-29" />
          <path
             d=" M9.71875 -16.5 Q11.5781 -17.9219 14.2031 -17.9219 Q17.7812 -17.9219 20.0156 -10.0156 Q20.9531 -6.20312 25.0938 15.0938 L29.6875 39.5938 L21.0938 39.5938 Q20.125 39.5938 20.125 40.9219 Q20.5156 43.1094 21.3906 43.1094 L30.3281 43.1094 L31.5 49.6094 Q32.0781 52.6406 32.5625 54.8125 Q33.0625 56.9844 33.625 58.8281 Q34.1875 60.6875 35.2969 62.9844 Q37.0156 66.2656 39.9219 68.3906 Q42.8281 70.5156 46.1875 70.5156 Q48.3906 70.5156 50.4688 69.7031 Q52.5469 68.8906 53.8594 67.2812 Q55.1719 65.6719 55.1719 63.4844 Q55.1719 60.9375 53.4844 59.0469 Q51.8125 57.1719 49.4219 57.1719 Q47.7969 57.1719 46.6562 58.1719 Q45.5156 59.1875 45.5156 60.7969 Q45.5156 62.9844 47 64.625 Q48.4844 66.2656 50.6875 66.5 Q48.8281 67.9219 46.0938 67.9219 Q44.5781 67.9219 43.2344 66.5 Q41.8906 65.0938 41.5 63.4844 Q40.875 60.9375 38.7188 49.7031 L37.5 43.1094 L47.7969 43.1094 Q48.7812 43.1094 48.7812 41.7969 Q48.7344 41.5469 48.5781 40.9375 Q48.4375 40.3281 48.1719 39.9531 Q47.9062 39.5938 47.5156 39.5938 L36.8125 39.5938 L32.1719 15.1875 Q31.2969 9.85938 30.1406 4.35938 Q29 -1.125 26.9219 -6.90625 Q24.8594 -12.7031 21.625 -16.6094 Q18.4062 -20.5156 14.0156 -20.5156 Q10.6406 -20.5156 7.98438 -18.5781 Q5.32812 -16.6562 5.32812 -13.4844 Q5.32812 -10.9375 6.95312 -9.04688 Q8.59375 -7.17188 11.0781 -7.17188 Q12.75 -7.17188 13.8594 -8.17188 Q14.9844 -9.1875 14.9844 -10.7969 Q14.9844 -12.9375 13.3906 -14.7188 Q11.8125 -16.5 9.71875 -16.5"
             id="Cmmi10-66" />
          <path
             d=" M7.51562 13.2812 Q6.6875 13.2812 6.14062 13.9062 Q5.60938 14.5469 5.60938 15.2812 Q5.60938 16.1094 6.14062 16.6875 Q6.6875 17.2812 7.51562 17.2812 L70.3125 17.2812 Q71.0469 17.2812 71.5781 16.6875 Q72.125 16.1094 72.125 15.2812 Q72.125 14.5469 71.5781 13.9062 Q71.0469 13.2812 70.3125 13.2812 z  M7.51562 32.7188 Q6.6875 32.7188 6.14062 33.2969 Q5.60938 33.8906 5.60938 34.7188 Q5.60938 35.4531 6.14062 36.0781 Q6.6875 36.7188 7.51562 36.7188 L70.3125 36.7188 Q71.0469 36.7188 71.5781 36.0781 Q72.125 35.4531 72.125 34.7188 Q72.125 33.8906 71.5781 33.2969 Q71.0469 32.7188 70.3125 32.7188 z "
             id="Cmr10-3d" />
        </defs>
        <g
           transform="translate(256.300059172 91.6943846154)scale(0.18 -0.18)"
           id="g70">
          <use
             xlink:href="#Cmmi10-79"
             id="use72" />
          <use
             transform="translate(66.58203125 0.0)"
             xlink:href="#Cmr10-3d"
             id="use74" />
          <use
             transform="translate(150.640625 0.0)"
             xlink:href="#Cmmi10-66"
             id="use76" />
          <use
             transform="translate(199.517578125 0.0)"
             xlink:href="#Cmr10-28"
             id="use78" />
          <use
             transform="translate(238.3359375 0.0)"
             xlink:href="#Cmmi10-78"
             id="use80" />
          <use
             transform="translate(295.416015625 0.0)"
             xlink:href="#Cmr10-29"
             id="use82" />
        </g>
      </g>
    </g>
  </g>
  <defs
     id="defs84">
    <clipPath
       id="p24c1e4ac3f">
      <rect
         height="236.98"
         width="386.83"
         x="7.2"
         y="32.620625"
         id="rect87" />
    </clipPath>
  </defs>
</svg>
