<?xml version="1.0" encoding="utf-8" standalone="no"?>
<!DOCTYPE svg PUBLIC "-//W3C//DTD SVG 1.1//EN"
  "http://www.w3.org/Graphics/SVG/1.1/DTD/svg11.dtd">
<!-- Created with matplotlib (http://matplotlib.org/) -->
<svg height="277pt" version="1.1" viewBox="0 0 418 277" width="418pt" xmlns="http://www.w3.org/2000/svg" xmlns:xlink="http://www.w3.org/1999/xlink">
 <defs>
  <style type="text/css">
*{stroke-linecap:butt;stroke-linejoin:round;}
  </style>
 </defs>
 <g id="figure_1">
  <g id="patch_1">
   <path d="
M0 277.122
L418.758 277.122
L418.758 0
L0 0
z
" style="fill:#ffffff;"/>
  </g>
  <g id="axes_1">
   <g id="patch_2">
    <path d="
M25.6373 263.001
L393.118 263.001
L393.118 32.6206
L25.6373 32.6206
z
" style="fill:#ffffff;"/>
   </g>
   <g id="line2d_1">
    <path clip-path="url(#p4428e462b3)" d="
M32.7043 248.502
L386.051 248.502
L386.051 248.502" style="fill:none;"/>
   </g>
   <g id="line2d_2">
    <path clip-path="url(#p4428e462b3)" d="
M124.313 47.1201
L127.303 60.2465
L130.13 71.5091
L132.72 80.9637
L135.577 90.5412
L138.495 99.5006
L141.534 108.043
L144.651 116.065
L146.963 121.578
L150.15 128.63
L153.179 134.804
L156.686 141.373
L159.8 146.739
L161.863 150.076
L166.217 156.601
L168.943 160.361
L172.47 164.893
L176.711 169.894
L180.352 173.839
L183.997 177.497
L187.017 180.329
L190.877 183.707
L195.777 187.646
L200.594 191.178
L206.055 194.823
L210.348 197.45
L215.524 200.369
L221.314 203.347
L227.862 206.393
L234.967 209.362
L241.607 211.862
L248.617 214.25
L256.667 216.715
L265.279 219.069
L272.458 220.837
L281.934 222.937
L292.07 224.929
L303.267 226.87
L314.173 228.539
L326.507 230.204
L340.588 231.863
L355.34 233.369
L371.679 234.811
L386.051 235.915
L386.051 235.915" style="fill:none;stroke:#ff0000;stroke-linecap:square;stroke-width:2.0;"/>
   </g>
   <g id="line2d_3">
    <path clip-path="url(#p4428e462b3)" d="
M124.313 174.418
L128.922 182.032
L132.937 188.299
L138.26 196.048
L142.645 201.938
L146.638 206.908
L150.417 211.266
L155.216 216.323
L157.876 218.901
L162.326 222.867
L166.359 226.101
L170.773 229.27
L174.436 231.622
L177.871 233.613
L181.694 235.601
L185.925 237.543
L190.622 239.409
L193.973 240.57
L199.151 242.118
L204.928 243.532
L210.676 244.661
L216.372 245.553
L223.033 246.36
L230.621 247.034
L239.788 247.591
L250.442 247.993
L265.098 248.284
L285.947 248.443
L332.364 248.5
L386.051 248.502
L386.051 248.502" style="fill:none;stroke:#0000ff;stroke-linecap:square;stroke-width:2.0;"/>
   </g>
   <g id="matplotlib.axis_1">
    <g id="xtick_1">
     <g id="line2d_4">
      <defs>
       <path d="
M0 0
L0 -4" id="m93b0483c22" style="stroke:#000000;stroke-width:0.5;"/>
      </defs>
      <g>
       <use style="stroke:#000000;stroke-width:0.5;" x="124.312602508" xlink:href="#m93b0483c22" y="248.501839729"/>
      </g>
     </g>
     <g id="text_1">
      <!-- 1 -->
      <defs>
       <path d="
M12.4062 8.29688
L28.5156 8.29688
L28.5156 63.9219
L10.9844 60.4062
L10.9844 69.3906
L28.4219 72.9062
L38.2812 72.9062
L38.2812 8.29688
L54.3906 8.29688
L54.3906 0
L12.4062 0
z
" id="BitstreamVeraSans-Roman-31"/>
      </defs>
      <g transform="translate(120.406040008 266.179027229)scale(0.18 -0.18)">
       <use xlink:href="#BitstreamVeraSans-Roman-31"/>
      </g>
     </g>
    </g>
    <g id="xtick_2">
     <g id="line2d_5">
      <g>
       <use style="stroke:#000000;stroke-width:0.5;" x="211.558642516" xlink:href="#m93b0483c22" y="248.501839729"/>
      </g>
     </g>
     <g id="text_2">
      <!-- 2 -->
      <defs>
       <path d="
M19.1875 8.29688
L53.6094 8.29688
L53.6094 0
L7.32812 0
L7.32812 8.29688
Q12.9375 14.1094 22.625 23.8906
Q32.3281 33.6875 34.8125 36.5312
Q39.5469 41.8438 41.4219 45.5312
Q43.3125 49.2188 43.3125 52.7812
Q43.3125 58.5938 39.2344 62.25
Q35.1562 65.9219 28.6094 65.9219
Q23.9688 65.9219 18.8125 64.3125
Q13.6719 62.7031 7.8125 59.4219
L7.8125 69.3906
Q13.7656 71.7812 18.9375 73
Q24.125 74.2188 28.4219 74.2188
Q39.75 74.2188 46.4844 68.5469
Q53.2188 62.8906 53.2188 53.4219
Q53.2188 48.9219 51.5312 44.8906
Q49.8594 40.875 45.4062 35.4062
Q44.1875 33.9844 37.6406 27.2188
Q31.1094 20.4531 19.1875 8.29688" id="BitstreamVeraSans-Roman-32"/>
      </defs>
      <g transform="translate(207.393330016 266.179027229)scale(0.18 -0.18)">
       <use xlink:href="#BitstreamVeraSans-Roman-32"/>
      </g>
     </g>
    </g>
    <g id="xtick_3">
     <g id="line2d_6">
      <g>
       <use style="stroke:#000000;stroke-width:0.5;" x="298.804682523" xlink:href="#m93b0483c22" y="248.501839729"/>
      </g>
     </g>
     <g id="text_3">
      <!-- 3 -->
      <defs>
       <path d="
M40.5781 39.3125
Q47.6562 37.7969 51.625 33
Q55.6094 28.2188 55.6094 21.1875
Q55.6094 10.4062 48.1875 4.48438
Q40.7656 -1.42188 27.0938 -1.42188
Q22.5156 -1.42188 17.6562 -0.515625
Q12.7969 0.390625 7.625 2.20312
L7.625 11.7188
Q11.7188 9.32812 16.5938 8.10938
Q21.4844 6.89062 26.8125 6.89062
Q36.0781 6.89062 40.9375 10.5469
Q45.7969 14.2031 45.7969 21.1875
Q45.7969 27.6406 41.2812 31.2656
Q36.7656 34.9062 28.7188 34.9062
L20.2188 34.9062
L20.2188 43.0156
L29.1094 43.0156
Q36.375 43.0156 40.2344 45.9219
Q44.0938 48.8281 44.0938 54.2969
Q44.0938 59.9062 40.1094 62.9062
Q36.1406 65.9219 28.7188 65.9219
Q24.6562 65.9219 20.0156 65.0312
Q15.375 64.1562 9.8125 62.3125
L9.8125 71.0938
Q15.4375 72.6562 20.3438 73.4375
Q25.25 74.2188 29.5938 74.2188
Q40.8281 74.2188 47.3594 69.1094
Q53.9062 64.0156 53.9062 55.3281
Q53.9062 49.2656 50.4375 45.0938
Q46.9688 40.9219 40.5781 39.3125" id="BitstreamVeraSans-Roman-33"/>
      </defs>
      <g transform="translate(294.486088773 266.179027229)scale(0.18 -0.18)">
       <use xlink:href="#BitstreamVeraSans-Roman-33"/>
      </g>
     </g>
    </g>
    <g id="xtick_4">
     <g id="line2d_7">
      <g>
       <use style="stroke:#000000;stroke-width:0.5;" x="386.050722531" xlink:href="#m93b0483c22" y="248.501839729"/>
      </g>
     </g>
     <g id="text_4">
      <!-- 4 -->
      <defs>
       <path d="
M37.7969 64.3125
L12.8906 25.3906
L37.7969 25.3906
z

M35.2031 72.9062
L47.6094 72.9062
L47.6094 25.3906
L58.0156 25.3906
L58.0156 17.1875
L47.6094 17.1875
L47.6094 0
L37.7969 0
L37.7969 17.1875
L4.89062 17.1875
L4.89062 26.7031
z
" id="BitstreamVeraSans-Roman-34"/>
      </defs>
      <g transform="translate(381.269472531 266.179027229)scale(0.18 -0.18)">
       <use xlink:href="#BitstreamVeraSans-Roman-34"/>
      </g>
     </g>
    </g>
    <g id="text_5">
     <!-- $x$ -->
     <defs>
      <path d="
M7.8125 2.875
Q9.57812 1.51562 12.7969 1.51562
Q15.9219 1.51562 18.3125 4.51562
Q20.7031 7.51562 21.5781 11.0781
L26.125 28.8125
Q27.2031 33.6406 27.2031 35.4062
Q27.2031 37.8906 25.8125 39.75
Q24.4219 41.6094 21.9219 41.6094
Q18.75 41.6094 15.9688 39.625
Q13.1875 37.6406 11.2812 34.5938
Q9.375 31.5469 8.59375 28.4219
Q8.40625 27.7812 7.8125 27.7812
L6.59375 27.7812
Q5.8125 27.7812 5.8125 28.7188
L5.8125 29
Q6.78125 32.7188 9.125 36.25
Q11.4688 39.7969 14.8594 41.9844
Q18.2656 44.1875 22.125 44.1875
Q25.7812 44.1875 28.7344 42.2344
Q31.6875 40.2812 32.9062 36.9219
Q34.625 39.9844 37.2812 42.0781
Q39.9375 44.1875 43.1094 44.1875
Q45.2656 44.1875 47.5 43.4219
Q49.75 42.6719 51.1719 41.1094
Q52.5938 39.5469 52.5938 37.2031
Q52.5938 34.6719 50.9531 32.8281
Q49.3125 31 46.7812 31
Q45.1719 31 44.0938 32.0312
Q43.0156 33.0625 43.0156 34.625
Q43.0156 36.7188 44.4531 38.2969
Q45.9062 39.8906 47.9062 40.1875
Q46.0938 41.6094 42.9219 41.6094
Q39.7031 41.6094 37.3281 38.625
Q34.9688 35.6406 33.9844 31.9844
L29.5938 14.3125
Q28.5156 10.2969 28.5156 7.71875
Q28.5156 5.17188 29.9531 3.34375
Q31.3906 1.51562 33.7969 1.51562
Q38.4844 1.51562 42.1562 5.64062
Q45.8438 9.76562 47.0156 14.7031
Q47.2188 15.2812 47.7969 15.2812
L49.0312 15.2812
Q49.4219 15.2812 49.6562 15.0156
Q49.9062 14.75 49.9062 14.4062
Q49.9062 14.3125 49.8125 14.1094
Q48.3906 8.15625 43.8438 3.51562
Q39.3125 -1.125 33.5938 -1.125
Q29.9375 -1.125 26.9844 0.84375
Q24.0312 2.82812 22.7969 6.20312
Q21.2344 3.26562 18.4688 1.0625
Q15.7188 -1.125 12.5938 -1.125
Q10.4531 -1.125 8.17188 -0.359375
Q5.90625 0.390625 4.48438 1.95312
Q3.07812 3.51562 3.07812 5.90625
Q3.07812 8.25 4.70312 10.1719
Q6.34375 12.1094 8.79688 12.1094
Q10.4531 12.1094 11.5781 11.1094
Q12.7031 10.1094 12.7031 8.5
Q12.7031 6.39062 11.2969 4.82812
Q9.90625 3.26562 7.8125 2.875" id="Cmmi10-78"/>
     </defs>
     <g transform="translate(401.117651772 248.501839729)scale(0.18 -0.18)">
      <use transform="translate(0.0 0.8125)" xlink:href="#Cmmi10-78"/>
     </g>
    </g>
   </g>
   <g id="matplotlib.axis_2">
    <g id="ytick_1">
     <g id="line2d_8">
      <defs>
       <path d="
M0 0
L4 0" id="m728421d6d4" style="stroke:#000000;stroke-width:0.5;"/>
      </defs>
      <g>
       <use style="stroke:#000000;stroke-width:0.5;" x="37.0665625" xlink:href="#m728421d6d4" y="147.81097465"/>
      </g>
     </g>
     <g id="text_6">
      <!-- 0.5 -->
      <defs>
       <path d="
M31.7812 66.4062
Q24.1719 66.4062 20.3281 58.9062
Q16.5 51.4219 16.5 36.375
Q16.5 21.3906 20.3281 13.8906
Q24.1719 6.39062 31.7812 6.39062
Q39.4531 6.39062 43.2812 13.8906
Q47.125 21.3906 47.125 36.375
Q47.125 51.4219 43.2812 58.9062
Q39.4531 66.4062 31.7812 66.4062
M31.7812 74.2188
Q44.0469 74.2188 50.5156 64.5156
Q56.9844 54.8281 56.9844 36.375
Q56.9844 17.9688 50.5156 8.26562
Q44.0469 -1.42188 31.7812 -1.42188
Q19.5312 -1.42188 13.0625 8.26562
Q6.59375 17.9688 6.59375 36.375
Q6.59375 54.8281 13.0625 64.5156
Q19.5312 74.2188 31.7812 74.2188" id="BitstreamVeraSans-Roman-30"/>
       <path d="
M10.6875 12.4062
L21 12.4062
L21 0
L10.6875 0
z
" id="BitstreamVeraSans-Roman-2e"/>
       <path d="
M10.7969 72.9062
L49.5156 72.9062
L49.5156 64.5938
L19.8281 64.5938
L19.8281 46.7344
Q21.9688 47.4688 24.1094 47.8281
Q26.2656 48.1875 28.4219 48.1875
Q40.625 48.1875 47.75 41.5
Q54.8906 34.8125 54.8906 23.3906
Q54.8906 11.625 47.5625 5.09375
Q40.2344 -1.42188 26.9062 -1.42188
Q22.3125 -1.42188 17.5469 -0.640625
Q12.7969 0.140625 7.71875 1.70312
L7.71875 11.625
Q12.1094 9.23438 16.7969 8.0625
Q21.4844 6.89062 26.7031 6.89062
Q35.1562 6.89062 40.0781 11.3281
Q45.0156 15.7656 45.0156 23.3906
Q45.0156 31 40.0781 35.4375
Q35.1562 39.8906 26.7031 39.8906
Q22.75 39.8906 18.8125 39.0156
Q14.8906 38.1406 10.7969 36.2812
z
" id="BitstreamVeraSans-Roman-35"/>
      </defs>
      <g transform="translate(7.2 152.77784965)scale(0.18 -0.18)">
       <use xlink:href="#BitstreamVeraSans-Roman-30"/>
       <use x="63.623046875" xlink:href="#BitstreamVeraSans-Roman-2e"/>
       <use x="95.41015625" xlink:href="#BitstreamVeraSans-Roman-35"/>
      </g>
     </g>
    </g>
    <g id="ytick_2">
     <g id="line2d_9">
      <g>
       <use style="stroke:#000000;stroke-width:0.5;" x="37.0665625" xlink:href="#m728421d6d4" y="47.1201095714"/>
      </g>
     </g>
     <g id="text_7">
      <!-- 1 -->
      <g transform="translate(25.2534375 52.0869845714)scale(0.18 -0.18)">
       <use xlink:href="#BitstreamVeraSans-Roman-31"/>
      </g>
     </g>
    </g>
    <g id="text_8">
     <!-- $y$ -->
     <defs>
      <path d="
M8.40625 -14.3125
Q10.5 -17.9219 15.7188 -17.9219
Q20.4531 -17.9219 23.9219 -14.5938
Q27.3906 -11.2812 29.5156 -6.5625
Q31.6406 -1.85938 32.8125 3.07812
Q28.375 -1.125 23.1875 -1.125
Q19.2344 -1.125 16.4531 0.234375
Q13.6719 1.60938 12.125 4.3125
Q10.5938 7.03125 10.5938 10.8906
Q10.5938 14.1562 11.4688 17.5938
Q12.3594 21.0469 13.9375 25.2656
Q15.5312 29.5 16.7031 32.625
Q18.0156 36.2812 18.0156 38.625
Q18.0156 41.6094 15.8281 41.6094
Q11.8594 41.6094 9.29688 37.5312
Q6.73438 33.4531 5.51562 28.4219
Q5.32812 27.7812 4.6875 27.7812
L3.51562 27.7812
Q2.6875 27.7812 2.6875 28.7188
L2.6875 29
Q4.29688 34.9688 7.60938 39.5781
Q10.9375 44.1875 16.0156 44.1875
Q19.5781 44.1875 22.0469 41.8438
Q24.5156 39.5 24.5156 35.8906
Q24.5156 34.0312 23.6875 31.9844
Q23.25 30.7656 21.6875 26.6562
Q20.125 22.5625 19.2812 19.875
Q18.4531 17.1875 17.9219 14.5938
Q17.3906 12.0156 17.3906 9.42188
Q17.3906 6.10938 18.7969 3.8125
Q20.2188 1.51562 23.2969 1.51562
Q29.5 1.51562 34.4219 9.07812
L42 39.8906
Q42.3281 41.2188 43.5469 42.1562
Q44.7812 43.1094 46.1875 43.1094
Q47.4062 43.1094 48.3125 42.3281
Q49.2188 41.5469 49.2188 40.2812
Q49.2188 39.7031 49.125 39.5
L39.2031 -0.296875
Q37.8906 -5.42188 34.375 -10.1094
Q30.8594 -14.7969 25.9062 -17.6562
Q20.9531 -20.5156 15.5781 -20.5156
Q12.9844 -20.5156 10.4375 -19.5
Q7.90625 -18.5 6.34375 -16.5
Q4.78125 -14.5 4.78125 -11.8125
Q4.78125 -9.07812 6.39062 -7.07812
Q8.01562 -5.07812 10.6875 -5.07812
Q12.3125 -5.07812 13.4062 -6.07812
Q14.5 -7.07812 14.5 -8.6875
Q14.5 -10.9844 12.7812 -12.6875
Q11.0781 -14.4062 8.79688 -14.4062
Q8.6875 -14.3594 8.59375 -14.3281
Q8.5 -14.3125 8.40625 -14.3125" id="Cmmi10-79"/>
     </defs>
     <g transform="translate(32.5665625 20.840625)scale(0.18 -0.18)">
      <use transform="translate(0.0 0.8125)" xlink:href="#Cmmi10-79"/>
     </g>
    </g>
   </g>
   <g id="patch_3">
    <path d="
M25.6373 248.502
L393.118 248.502" style="fill:none;stroke:#000000;stroke-width:0.8;"/>
   </g>
   <g id="patch_4">
    <path d="
M37.0666 263.001
L37.0666 32.6206" style="fill:none;stroke:#000000;stroke-width:0.8;"/>
   </g>
   <g id="text_9">
    <!-- $g(x) = \frac{1}{x^2}$ -->
    <defs>
     <path d="
M4.98438 0
L4.98438 2.6875
Q4.98438 2.9375 5.17188 3.21875
L20.7031 20.4062
Q24.2188 24.2188 26.4062 26.7969
Q28.6094 29.3906 30.75 32.7656
Q32.9062 36.1406 34.1562 39.625
Q35.4062 43.1094 35.4062 47.0156
Q35.4062 51.125 33.8906 54.8594
Q32.375 58.5938 29.375 60.8438
Q26.375 63.0938 22.125 63.0938
Q17.7812 63.0938 14.3125 60.4688
Q10.8438 57.8594 9.42188 53.7188
Q9.8125 53.8125 10.5 53.8125
Q12.75 53.8125 14.3281 52.2969
Q15.9219 50.7812 15.9219 48.3906
Q15.9219 46.0938 14.3281 44.5
Q12.75 42.9219 10.5 42.9219
Q8.15625 42.9219 6.5625 44.5469
Q4.98438 46.1875 4.98438 48.3906
Q4.98438 52.1562 6.39062 55.4375
Q7.8125 58.7344 10.4688 61.2969
Q13.1406 63.875 16.4844 65.2344
Q19.8281 66.6094 23.5781 66.6094
Q29.2969 66.6094 34.2188 64.1875
Q39.1562 61.7656 42.0312 57.3438
Q44.9219 52.9375 44.9219 47.0156
Q44.9219 42.6719 43.0156 38.7656
Q41.1094 34.8594 38.125 31.6562
Q35.1562 28.4688 30.5156 24.4062
Q25.875 20.3594 24.4219 19
L13.0938 8.10938
L22.7031 8.10938
Q29.7812 8.10938 34.5469 8.21875
Q39.3125 8.34375 39.5938 8.59375
Q40.7656 9.85938 42 17.8281
L44.9219 17.8281
L42.0938 0
z
" id="Cmr10-32"/>
     <path d="
M9.28125 0
L9.28125 3.51562
Q21.7812 3.51562 21.7812 6.6875
L21.7812 59.1875
Q16.6094 56.6875 8.6875 56.6875
L8.6875 60.2031
Q20.9531 60.2031 27.2031 66.6094
L28.6094 66.6094
Q28.9531 66.6094 29.2656 66.3281
Q29.5938 66.0625 29.5938 65.7188
L29.5938 6.6875
Q29.5938 3.51562 42.0938 3.51562
L42.0938 0
z
" id="Cmr10-31"/>
     <path d="
M31 -24.8125
Q25.4375 -20.4062 21.4062 -14.7188
Q17.3906 -9.03125 14.8125 -2.57812
Q12.25 3.85938 10.9844 10.8906
Q9.71875 17.9219 9.71875 25
Q9.71875 32.1719 10.9844 39.2031
Q12.25 46.2344 14.8594 52.7344
Q17.4844 59.2344 21.5312 64.8906
Q25.5938 70.5625 31 74.8125
Q31 75 31.5 75
L32.4219 75
Q32.7188 75 32.9531 74.7344
Q33.2031 74.4688 33.2031 74.125
Q33.2031 73.6875 33.0156 73.4844
Q28.125 68.7031 24.875 63.2344
Q21.625 57.7656 19.6406 51.5781
Q17.6719 45.4062 16.7969 38.7812
Q15.9219 32.1719 15.9219 25
Q15.9219 -6.78125 32.9062 -23.2969
Q33.2031 -23.5781 33.2031 -24.125
Q33.2031 -24.3594 32.9375 -24.6719
Q32.6719 -25 32.4219 -25
L31.5 -25
Q31 -25 31 -24.8125" id="Cmr10-28"/>
     <path d="
M6.5 -25
Q5.60938 -25 5.60938 -24.125
Q5.60938 -23.6875 5.8125 -23.4844
Q22.9062 -6.78125 22.9062 25
Q22.9062 56.7812 6 73.2969
Q5.60938 73.5312 5.60938 74.125
Q5.60938 74.4688 5.875 74.7344
Q6.15625 75 6.5 75
L7.42188 75
Q7.71875 75 7.90625 74.8125
Q15.0938 69.1406 19.875 61.0312
Q24.6562 52.9375 26.875 43.75
Q29.1094 34.5781 29.1094 25
Q29.1094 17.9219 27.9062 11.0625
Q26.7031 4.20312 24.0938 -2.45312
Q21.4844 -9.125 17.4844 -14.7656
Q13.4844 -20.4062 7.90625 -24.8125
Q7.71875 -25 7.42188 -25
z
" id="Cmr10-29"/>
     <path d="
M1.42188 -14.3125
Q1.42188 -11.8594 3.09375 -10.0312
Q4.78125 -8.20312 7.17188 -8.20312
Q8.79688 -8.20312 9.89062 -9.20312
Q10.9844 -10.2031 10.9844 -11.8125
Q10.9844 -13.625 9.95312 -15.0625
Q8.9375 -16.5 7.32812 -17.0938
Q10.0156 -17.9219 15.7188 -17.9219
Q20.3125 -17.9219 24.125 -14.375
Q27.9375 -10.8438 29.1094 -6.20312
L31.9844 5.51562
Q26.5625 0 20.7031 0
Q16.4062 0 13.3438 2.1875
Q10.2969 4.39062 8.6875 8.04688
Q7.07812 11.7188 7.07812 15.8281
Q7.07812 20.4062 8.95312 25.4375
Q10.8438 30.4688 14.2344 34.7656
Q17.625 39.0625 22.0156 41.625
Q26.4219 44.1875 31.2969 44.1875
Q34.2344 44.1875 36.5781 42.5781
Q38.9219 40.9688 40.2812 38.2812
Q41.2656 42.1875 44.5781 42.1875
Q45.8438 42.1875 46.7188 41.4219
Q47.6094 40.6719 47.6094 39.4062
Q47.6094 39.1094 47.5781 38.9531
Q47.5625 38.8125 47.5156 38.625
L36.0781 -6.78125
Q35.2969 -9.90625 33.2031 -12.5
Q31.1094 -15.0938 28.2656 -16.8281
Q25.4375 -18.5625 22.0625 -19.5312
Q18.7031 -20.5156 15.5781 -20.5156
Q9.85938 -20.5156 5.64062 -19.4062
Q1.42188 -18.3125 1.42188 -14.3125
M20.9062 2.59375
Q27.2969 2.59375 33.5 11.375
L39.0156 33.2031
Q38.3281 36.6719 36.2812 39.1406
Q34.2344 41.6094 31.1094 41.6094
Q27.7812 41.6094 24.8281 38.8906
Q21.875 36.1875 19.9219 32.4219
Q18.0625 28.8125 16.3281 22.0469
Q14.5938 15.2812 14.5938 11.375
Q14.5938 7.95312 16.1562 5.26562
Q17.7188 2.59375 20.9062 2.59375" id="Cmmi10-67"/>
     <path d="
M7.51562 13.2812
Q6.6875 13.2812 6.14062 13.9062
Q5.60938 14.5469 5.60938 15.2812
Q5.60938 16.1094 6.14062 16.6875
Q6.6875 17.2812 7.51562 17.2812
L70.3125 17.2812
Q71.0469 17.2812 71.5781 16.6875
Q72.125 16.1094 72.125 15.2812
Q72.125 14.5469 71.5781 13.9062
Q71.0469 13.2812 70.3125 13.2812
z

M7.51562 32.7188
Q6.6875 32.7188 6.14062 33.2969
Q5.60938 33.8906 5.60938 34.7188
Q5.60938 35.4531 6.14062 36.0781
Q6.6875 36.7188 7.51562 36.7188
L70.3125 36.7188
Q71.0469 36.7188 71.5781 36.0781
Q72.125 35.4531 72.125 34.7188
Q72.125 33.8906 71.5781 33.2969
Q71.0469 32.7188 70.3125 32.7188
z
" id="Cmr10-3d"/>
    </defs>
    <g transform="translate(176.998642516 99.9855421109)scale(0.18 -0.18)">
     <use transform="translate(0.0 0.8734375)" xlink:href="#Cmmi10-67"/>
     <use transform="translate(47.705078125 0.8734375)" xlink:href="#Cmr10-28"/>
     <use transform="translate(86.5234375 0.8734375)" xlink:href="#Cmmi10-78"/>
     <use transform="translate(143.603515625 0.8734375)" xlink:href="#Cmr10-29"/>
     <use transform="translate(199.98046875 0.8734375)" xlink:href="#Cmr10-3d"/>
     <use transform="translate(310.0390625 38.3734375)scale(0.7)" xlink:href="#Cmr10-31"/>
     <use transform="translate(284.0390625 -55.27609375)scale(0.7)" xlink:href="#Cmmi10-78"/>
     <use transform="translate(323.995117188 -25.51515625)scale(0.49)" xlink:href="#Cmr10-32"/>
     <path d="
M284.039 13.3734
L284.039 19.6234
L370.899 19.6234
L370.899 13.3734
L284.039 13.3734
z
"/>
    </g>
   </g>
   <g id="text_10">
    <!-- $f(x) = e^{-x^2}$ -->
    <defs>
     <path d="
M10.2031 23
Q9.375 23 8.82812 23.625
Q8.29688 24.2656 8.29688 25
Q8.29688 25.7344 8.82812 26.3594
Q9.375 27 10.2031 27
L67.5781 27
Q68.3594 27 68.875 26.3594
Q69.3906 25.7344 69.3906 25
Q69.3906 24.2656 68.875 23.625
Q68.3594 23 67.5781 23
z
" id="Cmsy10-a1"/>
     <path d="
M20.125 -1.125
Q15.3281 -1.125 11.7344 1.35938
Q8.15625 3.85938 6.26562 8.07812
Q4.39062 12.3125 4.39062 17
Q4.39062 24.125 7.98438 30.3906
Q11.5781 36.6719 17.7188 40.4219
Q23.875 44.1875 30.9062 44.1875
Q35.2031 44.1875 38.4062 41.9688
Q41.6094 39.75 41.6094 35.5938
Q41.6094 29.8281 37.0156 27.0156
Q32.4219 24.2188 26.6562 23.5625
Q20.9062 22.9062 13.9219 22.9062
L13.625 22.9062
Q12.0156 16.9375 12.0156 12.7031
Q12.0156 8.25 14.0625 4.875
Q16.1094 1.51562 20.3125 1.51562
Q26.2656 1.51562 31.75 4.25
Q37.25 6.98438 40.7188 11.8125
Q41.0156 12.1094 41.5 12.1094
Q42 12.1094 42.5 11.5469
Q43.0156 10.9844 43.0156 10.5
Q43.0156 10.1094 42.8281 9.90625
Q39.1562 4.78125 32.9531 1.82812
Q26.7656 -1.125 20.125 -1.125
M14.2031 25.4844
Q20.0156 25.4844 24.9531 26.0156
Q29.8906 26.5625 33.8906 28.7344
Q37.8906 30.9062 37.8906 35.5
Q37.8906 37.3594 36.8594 38.75
Q35.8438 40.1406 34.2031 40.875
Q32.5625 41.6094 30.8125 41.6094
Q26.5625 41.6094 23.1719 39.3125
Q19.7812 37.0156 17.5781 33.3281
Q15.375 29.6406 14.2031 25.4844" id="Cmmi10-65"/>
     <path d="
M9.71875 -16.5
Q11.5781 -17.9219 14.2031 -17.9219
Q17.7812 -17.9219 20.0156 -10.0156
Q20.9531 -6.20312 25.0938 15.0938
L29.6875 39.5938
L21.0938 39.5938
Q20.125 39.5938 20.125 40.9219
Q20.5156 43.1094 21.3906 43.1094
L30.3281 43.1094
L31.5 49.6094
Q32.0781 52.6406 32.5625 54.8125
Q33.0625 56.9844 33.625 58.8281
Q34.1875 60.6875 35.2969 62.9844
Q37.0156 66.2656 39.9219 68.3906
Q42.8281 70.5156 46.1875 70.5156
Q48.3906 70.5156 50.4688 69.7031
Q52.5469 68.8906 53.8594 67.2812
Q55.1719 65.6719 55.1719 63.4844
Q55.1719 60.9375 53.4844 59.0469
Q51.8125 57.1719 49.4219 57.1719
Q47.7969 57.1719 46.6562 58.1719
Q45.5156 59.1875 45.5156 60.7969
Q45.5156 62.9844 47 64.625
Q48.4844 66.2656 50.6875 66.5
Q48.8281 67.9219 46.0938 67.9219
Q44.5781 67.9219 43.2344 66.5
Q41.8906 65.0938 41.5 63.4844
Q40.875 60.9375 38.7188 49.7031
L37.5 43.1094
L47.7969 43.1094
Q48.7812 43.1094 48.7812 41.7969
Q48.7344 41.5469 48.5781 40.9375
Q48.4375 40.3281 48.1719 39.9531
Q47.9062 39.5938 47.5156 39.5938
L36.8125 39.5938
L32.1719 15.1875
Q31.2969 9.85938 30.1406 4.35938
Q29 -1.125 26.9219 -6.90625
Q24.8594 -12.7031 21.625 -16.6094
Q18.4062 -20.5156 14.0156 -20.5156
Q10.6406 -20.5156 7.98438 -18.5781
Q5.32812 -16.6562 5.32812 -13.4844
Q5.32812 -10.9375 6.95312 -9.04688
Q8.59375 -7.17188 11.0781 -7.17188
Q12.75 -7.17188 13.8594 -8.17188
Q14.9844 -9.1875 14.9844 -10.7969
Q14.9844 -12.9375 13.3906 -14.7188
Q11.8125 -16.5 9.71875 -16.5" id="Cmmi10-66"/>
    </defs>
    <g transform="translate(58.4010925058 155.01097465)scale(0.18 -0.18)">
     <use transform="translate(0.0 0.08484375)" xlink:href="#Cmmi10-66"/>
     <use transform="translate(48.876953125 0.08484375)" xlink:href="#Cmr10-28"/>
     <use transform="translate(87.6953125 0.08484375)" xlink:href="#Cmmi10-78"/>
     <use transform="translate(144.775390625 0.08484375)" xlink:href="#Cmr10-29"/>
     <use transform="translate(201.15234375 0.08484375)" xlink:href="#Cmr10-3d"/>
     <use transform="translate(285.2109375 0.08484375)" xlink:href="#Cmmi10-65"/>
     <use transform="translate(331.6953125 42.60046875)scale(0.7)" xlink:href="#Cmsy10-a1"/>
     <use transform="translate(386.075195312 42.60046875)scale(0.7)" xlink:href="#Cmmi10-78"/>
     <use transform="translate(426.03125 72.36140625)scale(0.49)" xlink:href="#Cmr10-32"/>
    </g>
   </g>
  </g>
 </g>
 <defs>
  <clipPath id="p4428e462b3">
   <rect height="230.380699301" width="367.480320513" x="25.637331259" y="32.620625"/>
  </clipPath>
 </defs>
</svg>
