<?xml version="1.0" encoding="utf-8" standalone="no"?>
<!DOCTYPE svg PUBLIC "-//W3C//DTD SVG 1.1//EN"
  "http://www.w3.org/Graphics/SVG/1.1/DTD/svg11.dtd">
<!-- Created with matplotlib (http://matplotlib.org/) -->
<svg height="277pt" version="1.1" viewBox="0 0 563 277" width="563pt" xmlns="http://www.w3.org/2000/svg" xmlns:xlink="http://www.w3.org/1999/xlink">
 <defs>
  <style type="text/css">
*{stroke-linecap:butt;stroke-linejoin:round;}
  </style>
 </defs>
 <g id="figure_1">
  <g id="patch_1">
   <path d="
M0 277.349
L563.67 277.349
L563.67 0
L0 0
z
" style="fill:#ffffff;"/>
  </g>
  <g id="axes_1">
   <g id="patch_2">
    <path d="
M7.2 255.367
L538.03 255.367
L538.03 32.6206
L7.2 32.6206
z
" style="fill:#ffffff;"/>
   </g>
   <g id="patch_3">
    <path clip-path="url(#p21049e8a99)" d="
M80.6317 248.729
L80.6317 90.955
L82.8333 89.1694
L84.9336 87.4943
L87.137 85.7694
L88.5665 84.6695
L90.6947 83.0618
L92.1091 82.0142
L93.4163 81.0614
L96.2913 79.0211
L97.1733 78.4111
L99.6703 76.7267
L100.754 76.016
L103.371 74.352
L104.495 73.6615
L106.009 72.754
L108.192 71.4935
L110.246 70.3616
L112.3 69.2832
L114.424 68.2261
L116.806 67.113
L118.554 66.346
L119.206 66.0708
L120.944 65.367
L123.358 64.4622
L125.825 63.6261
L126.42 63.4382
L129.199 62.6315
L130.231 62.3618
L131.917 61.957
L133.872 61.5432
L135.642 61.2206
L137.43 60.9451
L139.669 60.6721
L141.255 60.5273
L143.336 60.3989
L145.517 60.3392
L147.987 60.3646
L149.839 60.4483
L150.779 60.5119
L152.626 60.6784
L155.147 60.994
L156.732 61.2444
L159.512 61.7795
L160.843 62.0787
L162.813 62.5721
L164.367 63.0034
L167.016 63.8235
L168.265 64.2467
L169.743 64.7774
L172.002 65.65
L172.719 65.9424
L176.368 67.5429
L177.723 68.1841
L178.63 68.6272
L180.502 69.5756
L182.298 70.5289
L185.176 72.1408
L186.597 72.9744
L187.753 73.6698
L190.24 75.2179
L191.567 76.0727
L193.628 77.4367
L195.474 78.6961
L198.65 80.9402
L200.485 82.2796
L202.183 83.5444
L203.361 84.4356
L205.866 86.3677
L206.282 86.6929
L208.708 88.614
L210.373 89.9549
L213.541 92.5504
L213.903 92.8507
L216.943 95.3942
L218.183 96.4436
L219.725 97.7565
L221.513 99.289
L223.762 101.228
L225.545 102.774
L227.749 104.691
L229 105.781
L230.672 107.24
L233.914 110.067
L234.101 110.23
L237.568 113.243
L238.261 113.843
L240.642 115.894
L242.33 117.339
L245.159 119.737
L246.225 120.633
L247.283 121.517
L249.537 123.381
L252.545 125.825
L254.092 127.06
L254.586 127.451
L257.422 129.663
L259.62 131.335
L261.091 132.431
L262.369 133.37
L265.199 135.395
L267.321 136.863
L268.858 137.898
L269.763 138.496
L271.277 139.477
L274.644 141.566
L275.011 141.786
L278.305 143.688
L280.258 144.752
L281.928 145.623
L283.58 146.449
L284.781 147.026
L286.166 147.668
L288.309 148.608
L290.329 149.435
L292.286 150.18
L294.089 150.816
L295.559 151.3
L298.03 152.038
L300.494 152.682
L302.115 153.054
L303.754 153.389
L305.928 153.767
L307.528 153.997
L309.683 154.243
L311.116 154.365
L312.909 154.471
L315.049 154.529
L316.223 154.53
L319.582 154.409
L320.389 154.353
L322.524 154.154
L323.988 153.975
L327.036 153.492
L327.668 153.374
L330.718 152.714
L331.538 152.512
L334.424 151.718
L335.066 151.525
L337.363 150.78
L339.556 149.996
L341.055 149.419
L343.46 148.427
L344.817 147.831
L346.868 146.882
L348.228 146.221
L349.491 145.585
L351.392 144.589
L353.485 143.439
L355.618 142.211
L357.794 140.903
L359.138 140.067
L362.348 137.991
L363.308 137.348
L365.755 135.669
L367.105 134.717
L369.548 132.952
L370.334 132.373
L372.996 130.372
L374.197 129.452
L377.163 127.131
L378.207 126.3
L380.519 124.435
L381.853 123.344
L384.635 121.039
L385.42 120.382
L386.738 119.272
L388.477 117.797
L391.455 115.248
L392.611 114.251
L395.055 112.135
L396.053 111.267
L399.109 108.605
L401.213 106.769
L402.531 105.619
L404.002 104.337
L406.624 102.059
L407.436 101.355
L410.27 98.9127
L411.914 97.5057
L413.861 95.8514
L414.646 95.1893
L418.149 92.2649
L418.418 92.0426
L420.805 90.09
L423.517 87.9127
L424.45 87.1743
L426.122 85.8673
L428.811 83.8089
L431.132 82.079
L432.627 80.9894
L433.877 80.0938
L435.184 79.1734
L437.48 77.5969
L439.1 76.5165
L442.062 74.6142
L442.54 74.316
L445.078 72.7788
L447.429 71.4227
L448.945 70.5842
L450.72 69.6398
L450.72 248.729
z
" style="fill:#7fffd4;opacity:0.5;"/>
   </g>
   <g id="line2d_1">
    <path clip-path="url(#p21049e8a99)" d="
M17.4083 248.729
L503.395 248.729
L503.395 248.729" style="fill:none;"/>
   </g>
   <g id="line2d_2">
    <path clip-path="url(#p21049e8a99)" d="
M17.4083 141.676
L19.3574 140.486
L23.5261 137.798
L31.6706 132.04
L36.9983 127.963
L43.5943 122.642
L50.7614 116.606
L81.8812 89.9381
L87.7468 85.2983
L92.8245 81.4908
L97.5761 78.1351
L102.154 75.1164
L108.434 71.3575
L112.389 69.2377
L118.128 66.5289
L122.729 64.6899
L127.14 63.2177
L132.643 61.7964
L136.914 61.0195
L141.49 60.5093
L146.14 60.3363
L151.45 60.5661
L156.682 61.2358
L158.186 61.509
L163.117 62.6535
L167.752 64.0701
L172.499 65.8519
L175.277 67.0448
L180.705 69.6817
L186.018 72.6317
L190.958 75.6779
L195.433 78.6675
L199.97 81.9006
L206.403 86.7877
L214.158 93.0623
L221.974 99.6855
L248.719 122.707
L256.689 129.096
L264.366 134.806
L270.261 138.821
L277.338 143.143
L281.696 145.504
L286.212 147.688
L289.96 149.288
L293.405 150.581
L298.741 152.234
L302.998 153.24
L305.018 153.618
L308.643 154.134
L312.499 154.451
L316.787 154.522
L319.648 154.405
L323.861 153.992
L326.994 153.5
L329.04 153.095
L332.255 152.327
L336.11 151.196
L339.291 150.094
L344.969 147.763
L347.178 146.733
L351.186 144.699
L357.17 141.283
L363.524 137.202
L370.738 132.073
L376.012 128.039
L382.693 122.652
L392.73 114.149
L414.804 95.0555
L422.685 88.5755
L429.187 83.5257
L436.854 78.0215
L441.338 75.0703
L448.21 70.9873
L450.983 69.5033
L456.24 66.9681
L459.455 65.6053
L464.961 63.6184
L466.497 63.1444
L471.344 61.8861
L473.75 61.3973
L478.201 60.7349
L480.728 60.5
L486.176 60.3436
L489.322 60.4717
L493.216 60.8512
L496.807 61.4161
L499.927 62.0722
L503.395 62.9793
L503.395 62.9793" style="fill:none;stroke:#0000ff;stroke-linecap:square;stroke-width:2.0;"/>
   </g>
   <g id="line2d_3">
    <path clip-path="url(#p21049e8a99)" d="
M80.6317 90.955
L87.137 85.7694
L93.4163 81.0614
L99.6703 76.7267
L104.495 73.6615
L108.192 71.4935
L112.3 69.2832
L116.806 67.113
L120.944 65.367
L125.825 63.6261
L129.199 62.6315
L131.917 61.957
L135.642 61.2206
L139.669 60.6721
L143.336 60.3989
L147.987 60.3646
L152.626 60.6784
L156.732 61.2444
L160.843 62.0787
L164.367 63.0034
L169.743 64.7774
L172.719 65.9424
L178.63 68.6272
L182.298 70.5289
L187.753 73.6698
L193.628 77.4367
L198.65 80.9402
L203.361 84.4356
L210.373 89.9549
L219.725 97.7565
L230.672 107.24
L245.159 119.737
L252.545 125.825
L259.62 131.335
L265.199 135.395
L271.277 139.477
L275.011 141.786
L280.258 144.752
L284.781 147.026
L288.309 148.608
L292.286 150.18
L295.559 151.3
L300.494 152.682
L303.754 153.389
L307.528 153.997
L311.116 154.365
L315.049 154.529
L316.223 154.53
L320.389 154.353
L323.988 153.975
L327.668 153.374
L331.538 152.512
L335.066 151.525
L339.556 149.996
L343.46 148.427
L348.228 146.221
L351.392 144.589
L355.618 142.211
L359.138 140.067
L365.755 135.669
L370.334 132.373
L377.163 127.131
L381.853 123.344
L391.455 115.248
L420.805 90.09
L426.122 85.8673
L432.627 80.9894
L437.48 77.5969
L442.54 74.316
L447.429 71.4227
L450.72 69.6398
L450.72 69.6398" style="fill:none;stroke:#0000ff;stroke-linecap:square;"/>
   </g>
   <g id="line2d_4">
    <path clip-path="url(#p21049e8a99)" d="
M49.791 126.819
L55.3405 119.352
L59.8513 113.61
L65.3439 107.015
L70.4954 101.226
L75.1441 96.3314
L79.2562 92.2618
L84.1729 87.7166
L89.1366 83.4822
L93.6022 79.9769
L97.7655 76.9685
L101.939 74.2042
L106.305 71.5816
L109.89 69.6336
L114.864 67.239
L118.706 65.6341
L123.363 63.9744
L127.384 62.7937
L131.341 61.8598
L134.891 61.2143
L139.21 60.6746
L142.635 60.4383
L147.002 60.3827
L150.855 60.5625
L154.712 60.9573
L159.214 61.6898
L163.098 62.5573
L167.371 63.7632
L171.836 65.3054
L175.79 66.9115
L180.404 69.0709
L184.854 71.4453
L187.97 73.2782
L192.126 75.9411
L196.389 78.9317
L200.42 82.0012
L204.755 85.5648
L208.892 89.2178
L214.008 94.0782
L219.068 99.2565
L223.904 104.552
L228.001 109.303
L233.591 116.174
L234.835 117.766
L234.835 117.766" style="fill:none;stroke:#006400;stroke-linecap:square;stroke-width:2.0;"/>
   </g>
   <g id="line2d_5">
    <path clip-path="url(#p21049e8a99)" d="
M173.154 47.1012
L180 56.2118
L186.462 64.4356
L192.233 71.473
L197.971 78.1835
L204.399 85.3607
L211.033 92.3912
L217.63 99.002
L224.035 105.058
L230.041 110.413
L235.108 114.687
L240.988 119.366
L246.672 123.603
L252.352 127.557
L258.105 131.274
L263.794 134.668
L268.594 137.312
L274.103 140.1
L279.689 142.657
L285.696 145.103
L291.476 147.161
L296.567 148.733
L301.69 150.087
L307.038 151.257
L312.384 152.178
L318.196 152.897
L322.718 153.253
L328.307 153.447
L333.584 153.381
L338.937 153.066
L343.846 152.558
L349.513 151.711
L354.029 150.836
L358.198 149.871
L358.198 149.871" style="fill:none;stroke:#006400;stroke-linecap:square;stroke-width:2.0;"/>
   </g>
   <g id="line2d_6">
    <path clip-path="url(#p21049e8a99)" d="
M296.517 167.153
L304.819 163.744
L313.06 160.153
L321.428 156.295
L330.49 151.878
L339.836 147.06
L349.334 141.892
L358.968 136.37
L368.683 130.515
L378.487 124.317
L388.121 117.941
L398.45 110.792
L407.934 103.942
L417.49 96.7629
L426.339 89.8679
L436.188 81.9147
L446.01 73.6886
L456.101 64.9321
L466.406 55.6702
L475.633 47.1032
L481.561 41.4635
L481.561 41.4635" style="fill:none;stroke:#006400;stroke-linecap:square;stroke-width:2.0;"/>
   </g>
   <g id="matplotlib.axis_1">
    <g id="xtick_1">
     <g id="line2d_7">
      <defs>
       <path d="
M0 0
L0 -4" id="m93b0483c22" style="stroke:#000000;stroke-width:0.5;"/>
      </defs>
      <g>
       <use style="stroke:#000000;stroke-width:0.5;" x="80.631688938" xlink:href="#m93b0483c22" y="248.728718863"/>
      </g>
     </g>
     <g id="text_1">
      <!-- $x_0$ -->
      <defs>
       <path d="
M7.8125 2.875
Q9.57812 1.51562 12.7969 1.51562
Q15.9219 1.51562 18.3125 4.51562
Q20.7031 7.51562 21.5781 11.0781
L26.125 28.8125
Q27.2031 33.6406 27.2031 35.4062
Q27.2031 37.8906 25.8125 39.75
Q24.4219 41.6094 21.9219 41.6094
Q18.75 41.6094 15.9688 39.625
Q13.1875 37.6406 11.2812 34.5938
Q9.375 31.5469 8.59375 28.4219
Q8.40625 27.7812 7.8125 27.7812
L6.59375 27.7812
Q5.8125 27.7812 5.8125 28.7188
L5.8125 29
Q6.78125 32.7188 9.125 36.25
Q11.4688 39.7969 14.8594 41.9844
Q18.2656 44.1875 22.125 44.1875
Q25.7812 44.1875 28.7344 42.2344
Q31.6875 40.2812 32.9062 36.9219
Q34.625 39.9844 37.2812 42.0781
Q39.9375 44.1875 43.1094 44.1875
Q45.2656 44.1875 47.5 43.4219
Q49.75 42.6719 51.1719 41.1094
Q52.5938 39.5469 52.5938 37.2031
Q52.5938 34.6719 50.9531 32.8281
Q49.3125 31 46.7812 31
Q45.1719 31 44.0938 32.0312
Q43.0156 33.0625 43.0156 34.625
Q43.0156 36.7188 44.4531 38.2969
Q45.9062 39.8906 47.9062 40.1875
Q46.0938 41.6094 42.9219 41.6094
Q39.7031 41.6094 37.3281 38.625
Q34.9688 35.6406 33.9844 31.9844
L29.5938 14.3125
Q28.5156 10.2969 28.5156 7.71875
Q28.5156 5.17188 29.9531 3.34375
Q31.3906 1.51562 33.7969 1.51562
Q38.4844 1.51562 42.1562 5.64062
Q45.8438 9.76562 47.0156 14.7031
Q47.2188 15.2812 47.7969 15.2812
L49.0312 15.2812
Q49.4219 15.2812 49.6562 15.0156
Q49.9062 14.75 49.9062 14.4062
Q49.9062 14.3125 49.8125 14.1094
Q48.3906 8.15625 43.8438 3.51562
Q39.3125 -1.125 33.5938 -1.125
Q29.9375 -1.125 26.9844 0.84375
Q24.0312 2.82812 22.7969 6.20312
Q21.2344 3.26562 18.4688 1.0625
Q15.7188 -1.125 12.5938 -1.125
Q10.4531 -1.125 8.17188 -0.359375
Q5.90625 0.390625 4.48438 1.95312
Q3.07812 3.51562 3.07812 5.90625
Q3.07812 8.25 4.70312 10.1719
Q6.34375 12.1094 8.79688 12.1094
Q10.4531 12.1094 11.5781 11.1094
Q12.7031 10.1094 12.7031 8.5
Q12.7031 6.39062 11.2969 4.82812
Q9.90625 3.26562 7.8125 2.875" id="Cmmi10-78"/>
       <path d="
M25 -2.20312
Q12.75 -2.20312 8.32812 7.875
Q3.90625 17.9688 3.90625 31.8906
Q3.90625 40.5781 5.48438 48.2344
Q7.07812 55.9062 11.7812 61.25
Q16.5 66.6094 25 66.6094
Q31.5938 66.6094 35.7812 63.375
Q39.9844 60.1562 42.1875 55.0469
Q44.3906 49.9531 45.1875 44.1094
Q46 38.2812 46 31.8906
Q46 23.2969 44.4062 15.7969
Q42.8281 8.29688 38.1875 3.04688
Q33.5469 -2.20312 25 -2.20312
M25 0.390625
Q30.5625 0.390625 33.2969 6.09375
Q36.0312 11.8125 36.6719 18.75
Q37.3125 25.6875 37.3125 33.5
Q37.3125 41.0156 36.6719 47.3594
Q36.0312 53.7188 33.3125 58.8594
Q30.6094 64.0156 25 64.0156
Q19.3438 64.0156 16.6094 58.8281
Q13.875 53.6562 13.2344 47.3281
Q12.5938 41.0156 12.5938 33.5
Q12.5938 27.9375 12.8594 23
Q13.1406 18.0625 14.3125 12.8125
Q15.4844 7.5625 18.0938 3.96875
Q20.7031 0.390625 25 0.390625" id="Cmr10-30"/>
      </defs>
      <g transform="translate(70.911688938 265.109343863)scale(0.18 -0.18)">
       <use transform="translate(0.0 0.8125)" xlink:href="#Cmmi10-78"/>
       <use transform="translate(57.080078125 -24.696875)scale(0.7)" xlink:href="#Cmr10-30"/>
      </g>
     </g>
    </g>
    <g id="xtick_2">
     <g id="line2d_8">
      <g>
       <use style="stroke:#000000;stroke-width:0.5;" x="142.313074018" xlink:href="#m93b0483c22" y="248.728718863"/>
      </g>
     </g>
     <g id="text_2">
      <!-- $x_1$ -->
      <defs>
       <path d="
M9.28125 0
L9.28125 3.51562
Q21.7812 3.51562 21.7812 6.6875
L21.7812 59.1875
Q16.6094 56.6875 8.6875 56.6875
L8.6875 60.2031
Q20.9531 60.2031 27.2031 66.6094
L28.6094 66.6094
Q28.9531 66.6094 29.2656 66.3281
Q29.5938 66.0625 29.5938 65.7188
L29.5938 6.6875
Q29.5938 3.51562 42.0938 3.51562
L42.0938 0
z
" id="Cmr10-31"/>
      </defs>
      <g transform="translate(132.593074018 265.469343863)scale(0.18 -0.18)">
       <use transform="translate(0.0 0.8125)" xlink:href="#Cmmi10-78"/>
       <use transform="translate(57.080078125 -24.696875)scale(0.7)" xlink:href="#Cmr10-31"/>
      </g>
     </g>
    </g>
    <g id="xtick_3">
     <g id="line2d_9">
      <g>
       <use style="stroke:#000000;stroke-width:0.5;" x="203.994459098" xlink:href="#m93b0483c22" y="248.728718863"/>
      </g>
     </g>
     <g id="text_3">
      <!-- $x_2$ -->
      <defs>
       <path d="
M4.98438 0
L4.98438 2.6875
Q4.98438 2.9375 5.17188 3.21875
L20.7031 20.4062
Q24.2188 24.2188 26.4062 26.7969
Q28.6094 29.3906 30.75 32.7656
Q32.9062 36.1406 34.1562 39.625
Q35.4062 43.1094 35.4062 47.0156
Q35.4062 51.125 33.8906 54.8594
Q32.375 58.5938 29.375 60.8438
Q26.375 63.0938 22.125 63.0938
Q17.7812 63.0938 14.3125 60.4688
Q10.8438 57.8594 9.42188 53.7188
Q9.8125 53.8125 10.5 53.8125
Q12.75 53.8125 14.3281 52.2969
Q15.9219 50.7812 15.9219 48.3906
Q15.9219 46.0938 14.3281 44.5
Q12.75 42.9219 10.5 42.9219
Q8.15625 42.9219 6.5625 44.5469
Q4.98438 46.1875 4.98438 48.3906
Q4.98438 52.1562 6.39062 55.4375
Q7.8125 58.7344 10.4688 61.2969
Q13.1406 63.875 16.4844 65.2344
Q19.8281 66.6094 23.5781 66.6094
Q29.2969 66.6094 34.2188 64.1875
Q39.1562 61.7656 42.0312 57.3438
Q44.9219 52.9375 44.9219 47.0156
Q44.9219 42.6719 43.0156 38.7656
Q41.1094 34.8594 38.125 31.6562
Q35.1562 28.4688 30.5156 24.4062
Q25.875 20.3594 24.4219 19
L13.0938 8.10938
L22.7031 8.10938
Q29.7812 8.10938 34.5469 8.21875
Q39.3125 8.34375 39.5938 8.59375
Q40.7656 9.85938 42 17.8281
L44.9219 17.8281
L42.0938 0
z
" id="Cmr10-32"/>
      </defs>
      <g transform="translate(194.274459098 265.469343863)scale(0.18 -0.18)">
       <use transform="translate(0.0 0.8125)" xlink:href="#Cmmi10-78"/>
       <use transform="translate(57.080078125 -24.696875)scale(0.7)" xlink:href="#Cmr10-32"/>
      </g>
     </g>
    </g>
    <g id="xtick_4">
     <g id="line2d_10">
      <g>
       <use style="stroke:#000000;stroke-width:0.5;" x="265.675844178" xlink:href="#m93b0483c22" y="248.728718863"/>
      </g>
     </g>
     <g id="text_4">
      <!-- $x_3$ -->
      <defs>
       <path d="
M9.51562 7.71875
Q11.8594 4.29688 15.8125 2.64062
Q19.7812 0.984375 24.3125 0.984375
Q30.125 0.984375 32.5625 5.9375
Q35.0156 10.8906 35.0156 17.1875
Q35.0156 20.0156 34.5 22.8438
Q33.9844 25.6875 32.7656 28.125
Q31.5469 30.5625 29.4219 32.0312
Q27.2969 33.5 24.2188 33.5
L17.5781 33.5
Q16.7031 33.5 16.7031 34.4219
L16.7031 35.2969
Q16.7031 36.0781 17.5781 36.0781
L23.0938 36.5312
Q26.6094 36.5312 28.9219 39.1562
Q31.25 41.7969 32.3281 45.5781
Q33.4062 49.3594 33.4062 52.7812
Q33.4062 57.5625 31.1562 60.6406
Q28.9062 63.7188 24.3125 63.7188
Q20.5156 63.7188 17.0469 62.2812
Q13.5781 60.8438 11.5312 57.9062
Q11.7188 57.9531 11.8594 57.9844
Q12.0156 58.0156 12.2031 58.0156
Q14.4531 58.0156 15.9688 56.4531
Q17.4844 54.8906 17.4844 52.6875
Q17.4844 50.5312 15.9688 48.9688
Q14.4531 47.4062 12.2031 47.4062
Q10.0156 47.4062 8.45312 48.9688
Q6.89062 50.5312 6.89062 52.6875
Q6.89062 56.9844 9.46875 60.1562
Q12.0625 63.3281 16.1406 64.9688
Q20.2188 66.6094 24.3125 66.6094
Q27.3438 66.6094 30.7031 65.7031
Q34.0781 64.7969 36.8125 63.1094
Q39.5469 61.4219 41.2812 58.7812
Q43.0156 56.1562 43.0156 52.7812
Q43.0156 48.5781 41.1406 45.0156
Q39.2656 41.4531 35.9844 38.8594
Q32.7188 36.2812 28.8125 35.0156
Q33.1562 34.1875 37.0625 31.7344
Q40.9688 29.2969 43.3281 25.4844
Q45.7031 21.6875 45.7031 17.2812
Q45.7031 11.7656 42.6719 7.29688
Q39.6562 2.82812 34.7188 0.3125
Q29.7812 -2.20312 24.3125 -2.20312
Q19.625 -2.20312 14.9062 -0.40625
Q10.2031 1.375 7.20312 4.9375
Q4.20312 8.5 4.20312 13.4844
Q4.20312 15.9688 5.85938 17.625
Q7.51562 19.2812 10.0156 19.2812
Q11.625 19.2812 12.9688 18.5312
Q14.3125 17.7812 15.0625 16.4062
Q15.8281 15.0469 15.8281 13.4844
Q15.8281 11.0312 14.1094 9.375
Q12.4062 7.71875 10.0156 7.71875
z
" id="Cmr10-33"/>
      </defs>
      <g transform="translate(255.955844178 265.109343863)scale(0.18 -0.18)">
       <use transform="translate(0.0 0.8125)" xlink:href="#Cmmi10-78"/>
       <use transform="translate(57.080078125 -24.696875)scale(0.7)" xlink:href="#Cmr10-33"/>
      </g>
     </g>
    </g>
    <g id="xtick_5">
     <g id="line2d_11">
      <g>
       <use style="stroke:#000000;stroke-width:0.5;" x="327.357229259" xlink:href="#m93b0483c22" y="248.728718863"/>
      </g>
     </g>
     <g id="text_5">
      <!-- $x_4$ -->
      <defs>
       <path d="
M2.78125 16.5
L2.78125 20.0156
L33.6875 66.1094
Q34.0312 66.6094 34.7188 66.6094
L36.1875 66.6094
Q37.3125 66.6094 37.3125 65.4844
L37.3125 20.0156
L47.125 20.0156
L47.125 16.5
L37.3125 16.5
L37.3125 6.6875
Q37.3125 4.64062 40.2344 4.07812
Q43.1719 3.51562 47.0156 3.51562
L47.0156 0
L19.4844 0
L19.4844 3.51562
Q23.3438 3.51562 26.2656 4.07812
Q29.2031 4.64062 29.2031 6.6875
L29.2031 16.5
z

M6.10938 20.0156
L29.7812 20.0156
L29.7812 55.4219
z
" id="Cmr10-34"/>
      </defs>
      <g transform="translate(317.637229259 265.469343863)scale(0.18 -0.18)">
       <use transform="translate(0.0 0.8125)" xlink:href="#Cmmi10-78"/>
       <use transform="translate(57.080078125 -24.696875)scale(0.7)" xlink:href="#Cmr10-34"/>
      </g>
     </g>
    </g>
    <g id="xtick_6">
     <g id="line2d_12">
      <g>
       <use style="stroke:#000000;stroke-width:0.5;" x="389.038614339" xlink:href="#m93b0483c22" y="248.728718863"/>
      </g>
     </g>
     <g id="text_6">
      <!-- $x_5$ -->
      <defs>
       <path d="
M8.6875 11.375
Q9.71875 8.45312 11.8438 6.04688
Q13.9688 3.65625 16.875 2.3125
Q19.7812 0.984375 22.9062 0.984375
Q30.125 0.984375 32.8594 6.59375
Q35.5938 12.2031 35.5938 20.2188
Q35.5938 23.6875 35.4688 26.0469
Q35.3594 28.4219 34.8125 30.6094
Q33.8906 34.125 31.5625 36.7656
Q29.25 39.4062 25.875 39.4062
Q22.5156 39.4062 20.0938 38.375
Q17.6719 37.3594 16.1562 35.9844
Q14.6562 34.625 13.4844 33.1094
Q12.3125 31.5938 12.0156 31.5
L10.8906 31.5
Q10.6406 31.5 10.2656 31.8125
Q9.90625 32.125 9.90625 32.4219
L9.90625 65.8281
Q9.90625 66.0625 10.2188 66.3281
Q10.5469 66.6094 10.8906 66.6094
L11.1875 66.6094
Q17.9219 63.375 25.4844 63.375
Q32.9062 63.375 39.7969 66.6094
L40.0938 66.6094
Q40.4375 66.6094 40.7188 66.3594
Q41.0156 66.1094 41.0156 65.8281
L41.0156 64.8906
Q41.0156 64.4062 40.8281 64.4062
Q37.4062 59.8594 32.25 57.3125
Q27.0938 54.7812 21.5781 54.7812
Q17.5781 54.7812 13.375 55.9062
L13.375 37.0156
Q16.7031 39.7031 19.3125 40.8438
Q21.9219 42 25.9844 42
Q31.5 42 35.8594 38.8125
Q40.2344 35.6406 42.5781 30.5312
Q44.9219 25.4375 44.9219 20.125
Q44.9219 14.1094 41.9688 8.98438
Q39.0156 3.85938 33.9375 0.828125
Q28.8594 -2.20312 22.9062 -2.20312
Q17.9688 -2.20312 13.8438 0.328125
Q9.71875 2.875 7.34375 7.17188
Q4.98438 11.4688 4.98438 16.3125
Q4.98438 18.5625 6.4375 19.9688
Q7.90625 21.3906 10.1094 21.3906
Q12.3125 21.3906 13.7969 19.9375
Q15.2812 18.5 15.2812 16.3125
Q15.2812 14.1562 13.7969 12.6719
Q12.3125 11.1875 10.1094 11.1875
Q9.76562 11.1875 9.32812 11.25
Q8.89062 11.3281 8.6875 11.375" id="Cmr10-35"/>
      </defs>
      <g transform="translate(379.318614339 265.109343863)scale(0.18 -0.18)">
       <use transform="translate(0.0 0.8125)" xlink:href="#Cmmi10-78"/>
       <use transform="translate(57.080078125 -24.696875)scale(0.7)" xlink:href="#Cmr10-35"/>
      </g>
     </g>
    </g>
    <g id="xtick_7">
     <g id="line2d_13">
      <g>
       <use style="stroke:#000000;stroke-width:0.5;" x="450.719999419" xlink:href="#m93b0483c22" y="248.728718863"/>
      </g>
     </g>
     <g id="text_7">
      <!-- $x_6$ -->
      <defs>
       <path d="
M25 -2.20312
Q18.7969 -2.20312 14.6406 1.09375
Q10.5 4.39062 8.21875 9.64062
Q5.95312 14.8906 5.07812 20.6562
Q4.20312 26.4219 4.20312 32.3281
Q4.20312 40.2344 7.28125 48.1875
Q10.3594 56.1562 16.3281 61.375
Q22.3125 66.6094 30.5156 66.6094
Q33.9375 66.6094 36.8906 65.3125
Q39.8438 64.0156 41.5312 61.5
Q43.2188 58.9844 43.2188 55.4219
Q43.2188 53.375 41.8281 51.9844
Q40.4375 50.5938 38.375 50.5938
Q36.4219 50.5938 35 52
Q33.5938 53.4219 33.5938 55.4219
Q33.5938 57.375 35 58.7812
Q36.4219 60.2031 38.375 60.2031
L38.9219 60.2031
Q37.6406 62.0156 35.3281 62.8594
Q33.0156 63.7188 30.5156 63.7188
Q27.4844 63.7188 24.9219 62.3906
Q22.3594 61.0781 20.3125 58.8281
Q18.2656 56.5938 16.8906 53.875
Q15.5312 51.1719 14.7656 47.7031
Q14.0156 44.2344 13.8125 41.2031
Q13.625 38.1875 13.625 33.5938
Q15.375 37.7031 18.5938 40.3125
Q21.8281 42.9219 25.875 42.9219
Q30.3281 42.9219 33.9844 41.1094
Q37.6406 39.3125 40.2812 36.1094
Q42.9219 32.9062 44.3125 28.7969
Q45.7031 24.7031 45.7031 20.5156
Q45.7031 14.6562 43.0938 9.34375
Q40.4844 4.04688 35.7344 0.921875
Q31 -2.20312 25 -2.20312
M25 0.984375
Q28.8594 0.984375 31.2031 2.73438
Q33.5469 4.5 34.6406 7.39062
Q35.75 10.2969 36.0156 13.25
Q36.2812 16.2188 36.2812 20.5156
Q36.2812 26.1719 35.7344 30.1719
Q35.2031 34.1875 32.8125 37.2344
Q30.4219 40.2812 25.4844 40.2812
Q21.4375 40.2812 18.8281 37.5469
Q16.2188 34.8125 15.0156 30.6406
Q13.8125 26.4688 13.8125 22.6094
Q13.8125 21.2969 13.9219 20.6094
Q13.9219 20.4531 13.8906 20.3594
Q13.875 20.2656 13.8125 20.125
Q13.8125 15.8281 14.6875 11.4219
Q15.5781 7.03125 18.0625 4
Q20.5625 0.984375 25 0.984375" id="Cmr10-36"/>
      </defs>
      <g transform="translate(440.999999419 265.109343863)scale(0.18 -0.18)">
       <use transform="translate(0.0 0.8125)" xlink:href="#Cmmi10-78"/>
       <use transform="translate(57.080078125 -24.696875)scale(0.7)" xlink:href="#Cmr10-36"/>
      </g>
     </g>
    </g>
    <g id="text_8">
     <!-- $x$ -->
     <g transform="translate(546.03 248.728718863)scale(0.18 -0.18)">
      <use transform="translate(0.0 0.8125)" xlink:href="#Cmmi10-78"/>
     </g>
    </g>
   </g>
   <g id="matplotlib.axis_2">
    <g id="text_9">
     <!-- $y$ -->
     <defs>
      <path d="
M8.40625 -14.3125
Q10.5 -17.9219 15.7188 -17.9219
Q20.4531 -17.9219 23.9219 -14.5938
Q27.3906 -11.2812 29.5156 -6.5625
Q31.6406 -1.85938 32.8125 3.07812
Q28.375 -1.125 23.1875 -1.125
Q19.2344 -1.125 16.4531 0.234375
Q13.6719 1.60938 12.125 4.3125
Q10.5938 7.03125 10.5938 10.8906
Q10.5938 14.1562 11.4688 17.5938
Q12.3594 21.0469 13.9375 25.2656
Q15.5312 29.5 16.7031 32.625
Q18.0156 36.2812 18.0156 38.625
Q18.0156 41.6094 15.8281 41.6094
Q11.8594 41.6094 9.29688 37.5312
Q6.73438 33.4531 5.51562 28.4219
Q5.32812 27.7812 4.6875 27.7812
L3.51562 27.7812
Q2.6875 27.7812 2.6875 28.7188
L2.6875 29
Q4.29688 34.9688 7.60938 39.5781
Q10.9375 44.1875 16.0156 44.1875
Q19.5781 44.1875 22.0469 41.8438
Q24.5156 39.5 24.5156 35.8906
Q24.5156 34.0312 23.6875 31.9844
Q23.25 30.7656 21.6875 26.6562
Q20.125 22.5625 19.2812 19.875
Q18.4531 17.1875 17.9219 14.5938
Q17.3906 12.0156 17.3906 9.42188
Q17.3906 6.10938 18.7969 3.8125
Q20.2188 1.51562 23.2969 1.51562
Q29.5 1.51562 34.4219 9.07812
L42 39.8906
Q42.3281 41.2188 43.5469 42.1562
Q44.7812 43.1094 46.1875 43.1094
Q47.4062 43.1094 48.3125 42.3281
Q49.2188 41.5469 49.2188 40.2812
Q49.2188 39.7031 49.125 39.5
L39.2031 -0.296875
Q37.8906 -5.42188 34.375 -10.1094
Q30.8594 -14.7969 25.9062 -17.6562
Q20.9531 -20.5156 15.5781 -20.5156
Q12.9844 -20.5156 10.4375 -19.5
Q7.90625 -18.5 6.34375 -16.5
Q4.78125 -14.5 4.78125 -11.8125
Q4.78125 -9.07812 6.39062 -7.07812
Q8.01562 -5.07812 10.6875 -5.07812
Q12.3125 -5.07812 13.4062 -6.07812
Q14.5 -7.07812 14.5 -8.6875
Q14.5 -10.9844 12.7812 -12.6875
Q11.0781 -14.4062 8.79688 -14.4062
Q8.6875 -14.3594 8.59375 -14.3281
Q8.5 -14.3125 8.40625 -14.3125" id="Cmmi10-79"/>
     </defs>
     <g transform="translate(14.4503038578 20.840625)scale(0.18 -0.18)">
      <use transform="translate(0.0 0.8125)" xlink:href="#Cmmi10-79"/>
     </g>
    </g>
   </g>
   <g id="patch_4">
    <path d="
M7.2 248.729
L538.03 248.729" style="fill:none;stroke:#000000;stroke-width:0.8;"/>
   </g>
   <g id="patch_5">
    <path d="
M18.9503 255.367
L18.9503 32.6206" style="fill:none;stroke:#000000;stroke-width:0.8;"/>
   </g>
   <g id="text_10">
    <!-- $p_0$ -->
    <defs>
     <path d="
M-2.48438 -19.3906
Q-3.42188 -19.3906 -3.42188 -18.1094
Q-3.07812 -15.9219 -2.09375 -15.9219
Q1.03125 -15.9219 2.26562 -15.3594
Q3.51562 -14.7969 4.20312 -12.5
L15.4844 32.5156
Q16.2188 34.375 16.2188 37.3125
Q16.2188 41.6094 13.2812 41.6094
Q10.1562 41.6094 8.64062 37.8594
Q7.125 34.125 5.71875 28.4219
Q5.71875 27.7812 4.89062 27.7812
L3.71875 27.7812
Q3.46875 27.7812 3.17188 28.1406
Q2.875 28.5156 2.875 28.8125
Q3.95312 33.1562 4.95312 36.1719
Q5.95312 39.2031 8.07812 41.6875
Q10.2031 44.1875 13.375 44.1875
Q16.7969 44.1875 19.375 42.25
Q21.9688 40.3281 22.7031 37.0156
Q25.4375 40.1875 28.75 42.1875
Q32.0781 44.1875 35.5938 44.1875
Q39.7969 44.1875 42.8906 41.9375
Q46 39.7031 47.5625 36.0625
Q49.125 32.4219 49.125 28.2188
Q49.125 21.7812 45.8281 14.8906
Q42.5312 8.01562 36.8906 3.4375
Q31.25 -1.125 24.8125 -1.125
Q21.875 -1.125 19.5 0.53125
Q17.1406 2.20312 15.8281 4.89062
L11.2812 -12.8906
Q11.0312 -14.3594 10.9844 -14.5938
Q10.9844 -15.9219 17.5781 -15.9219
Q18.6094 -15.9219 18.6094 -17.1875
Q18.2656 -18.5 18.0469 -18.9375
Q17.8281 -19.3906 16.8906 -19.3906
z

M24.9062 1.51562
Q28.375 1.51562 31.3438 4.375
Q34.3281 7.23438 36.1875 10.7969
Q37.5469 13.4844 38.7344 17.3594
Q39.9375 21.2344 40.8125 25.625
Q41.7031 30.0312 41.7031 32.625
Q41.7031 34.9062 41.0938 36.9062
Q40.4844 38.9219 39.0938 40.2656
Q37.7031 41.6094 35.4062 41.6094
Q31.7344 41.6094 28.4844 38.9844
Q25.25 36.375 22.6094 32.5156
L22.6094 32.1719
L17.0938 10.1094
Q17.7812 6.54688 19.7344 4.03125
Q21.6875 1.51562 24.9062 1.51562" id="Cmmi10-70"/>
    </defs>
    <g transform="translate(71.541688938 71.0763051161)scale(0.18 -0.18)">
     <use transform="translate(0.0 0.8125)" xlink:href="#Cmmi10-70"/>
     <use transform="translate(50.29296875 -24.696875)scale(0.7)" xlink:href="#Cmr10-30"/>
    </g>
   </g>
   <g id="text_11">
    <!-- $p_1$ -->
    <g transform="translate(133.223074018 40.93452571)scale(0.18 -0.18)">
     <use transform="translate(0.0 0.8125)" xlink:href="#Cmmi10-70"/>
     <use transform="translate(50.29296875 -24.696875)scale(0.7)" xlink:href="#Cmr10-31"/>
    </g>
   </g>
   <g id="text_12">
    <!-- $p_2$ -->
    <g transform="translate(194.904459098 65.4010203866)scale(0.18 -0.18)">
     <use transform="translate(0.0 0.8125)" xlink:href="#Cmmi10-70"/>
     <use transform="translate(50.29296875 -24.696875)scale(0.7)" xlink:href="#Cmr10-32"/>
    </g>
   </g>
   <g id="text_13">
    <!-- $p_3$ -->
    <g transform="translate(256.585844178 115.849829254)scale(0.18 -0.18)">
     <use transform="translate(0.0 0.8125)" xlink:href="#Cmmi10-70"/>
     <use transform="translate(50.29296875 -24.696875)scale(0.7)" xlink:href="#Cmr10-33"/>
    </g>
   </g>
   <g id="text_14">
    <!-- $p_4$ -->
    <g transform="translate(318.267229259 133.914311342)scale(0.18 -0.18)">
     <use transform="translate(0.0 0.8125)" xlink:href="#Cmmi10-70"/>
     <use transform="translate(50.29296875 -24.696875)scale(0.7)" xlink:href="#Cmr10-34"/>
    </g>
   </g>
   <g id="text_15">
    <!-- $p_5$ -->
    <g transform="translate(379.948614339 97.4401060188)scale(0.18 -0.18)">
     <use transform="translate(0.0 0.8125)" xlink:href="#Cmmi10-70"/>
     <use transform="translate(50.29296875 -24.696875)scale(0.7)" xlink:href="#Cmr10-35"/>
    </g>
   </g>
   <g id="text_16">
    <!-- $p_6$ -->
    <g transform="translate(441.629999419 49.7610713363)scale(0.18 -0.18)">
     <use transform="translate(0.0 0.8125)" xlink:href="#Cmmi10-70"/>
     <use transform="translate(50.29296875 -24.696875)scale(0.7)" xlink:href="#Cmr10-36"/>
    </g>
   </g>
   <g id="text_17">
    <!-- $f(x)$ -->
    <defs>
     <path d="
M31 -24.8125
Q25.4375 -20.4062 21.4062 -14.7188
Q17.3906 -9.03125 14.8125 -2.57812
Q12.25 3.85938 10.9844 10.8906
Q9.71875 17.9219 9.71875 25
Q9.71875 32.1719 10.9844 39.2031
Q12.25 46.2344 14.8594 52.7344
Q17.4844 59.2344 21.5312 64.8906
Q25.5938 70.5625 31 74.8125
Q31 75 31.5 75
L32.4219 75
Q32.7188 75 32.9531 74.7344
Q33.2031 74.4688 33.2031 74.125
Q33.2031 73.6875 33.0156 73.4844
Q28.125 68.7031 24.875 63.2344
Q21.625 57.7656 19.6406 51.5781
Q17.6719 45.4062 16.7969 38.7812
Q15.9219 32.1719 15.9219 25
Q15.9219 -6.78125 32.9062 -23.2969
Q33.2031 -23.5781 33.2031 -24.125
Q33.2031 -24.3594 32.9375 -24.6719
Q32.6719 -25 32.4219 -25
L31.5 -25
Q31 -25 31 -24.8125" id="Cmr10-28"/>
     <path d="
M6.5 -25
Q5.60938 -25 5.60938 -24.125
Q5.60938 -23.6875 5.8125 -23.4844
Q22.9062 -6.78125 22.9062 25
Q22.9062 56.7812 6 73.2969
Q5.60938 73.5312 5.60938 74.125
Q5.60938 74.4688 5.875 74.7344
Q6.15625 75 6.5 75
L7.42188 75
Q7.71875 75 7.90625 74.8125
Q15.0938 69.1406 19.875 61.0312
Q24.6562 52.9375 26.875 43.75
Q29.1094 34.5781 29.1094 25
Q29.1094 17.9219 27.9062 11.0625
Q26.7031 4.20312 24.0938 -2.45312
Q21.4844 -9.125 17.4844 -14.7656
Q13.4844 -20.4062 7.90625 -24.8125
Q7.71875 -25 7.42188 -25
z
" id="Cmr10-29"/>
     <path d="
M9.71875 -16.5
Q11.5781 -17.9219 14.2031 -17.9219
Q17.7812 -17.9219 20.0156 -10.0156
Q20.9531 -6.20312 25.0938 15.0938
L29.6875 39.5938
L21.0938 39.5938
Q20.125 39.5938 20.125 40.9219
Q20.5156 43.1094 21.3906 43.1094
L30.3281 43.1094
L31.5 49.6094
Q32.0781 52.6406 32.5625 54.8125
Q33.0625 56.9844 33.625 58.8281
Q34.1875 60.6875 35.2969 62.9844
Q37.0156 66.2656 39.9219 68.3906
Q42.8281 70.5156 46.1875 70.5156
Q48.3906 70.5156 50.4688 69.7031
Q52.5469 68.8906 53.8594 67.2812
Q55.1719 65.6719 55.1719 63.4844
Q55.1719 60.9375 53.4844 59.0469
Q51.8125 57.1719 49.4219 57.1719
Q47.7969 57.1719 46.6562 58.1719
Q45.5156 59.1875 45.5156 60.7969
Q45.5156 62.9844 47 64.625
Q48.4844 66.2656 50.6875 66.5
Q48.8281 67.9219 46.0938 67.9219
Q44.5781 67.9219 43.2344 66.5
Q41.8906 65.0938 41.5 63.4844
Q40.875 60.9375 38.7188 49.7031
L37.5 43.1094
L47.7969 43.1094
Q48.7812 43.1094 48.7812 41.7969
Q48.7344 41.5469 48.5781 40.9375
Q48.4375 40.3281 48.1719 39.9531
Q47.9062 39.5938 47.5156 39.5938
L36.8125 39.5938
L32.1719 15.1875
Q31.2969 9.85938 30.1406 4.35938
Q29 -1.125 26.9219 -6.90625
Q24.8594 -12.7031 21.625 -16.6094
Q18.4062 -20.5156 14.0156 -20.5156
Q10.6406 -20.5156 7.98438 -18.5781
Q5.32812 -16.6562 5.32812 -13.4844
Q5.32812 -10.9375 6.95312 -9.04688
Q8.59375 -7.17188 11.0781 -7.17188
Q12.75 -7.17188 13.8594 -8.17188
Q14.9844 -9.1875 14.9844 -10.7969
Q14.9844 -12.9375 13.3906 -14.7188
Q11.8125 -16.5 9.71875 -16.5" id="Cmmi10-66"/>
    </defs>
    <g transform="translate(511.261730769 70.680727821)scale(0.18 -0.18)">
     <use xlink:href="#Cmmi10-66"/>
     <use transform="translate(48.876953125 0.0)" xlink:href="#Cmr10-28"/>
     <use transform="translate(87.6953125 0.0)" xlink:href="#Cmmi10-78"/>
     <use transform="translate(144.775390625 0.0)" xlink:href="#Cmr10-29"/>
    </g>
   </g>
   <g id="line2d_14">
    <path clip-path="url(#p21049e8a99)" d="
M80.6317 248.729
L80.6317 90.955" style="fill:none;stroke:#000000;stroke-linecap:square;"/>
   </g>
   <g id="line2d_15">
    <path clip-path="url(#p21049e8a99)" d="
M203.994 248.729
L203.994 84.9198" style="fill:none;stroke:#000000;stroke-linecap:square;"/>
   </g>
   <g id="line2d_16">
    <path clip-path="url(#p21049e8a99)" d="
M327.357 248.729
L327.357 153.433" style="fill:none;stroke:#000000;stroke-linecap:square;"/>
   </g>
   <g id="line2d_17">
    <path clip-path="url(#p21049e8a99)" d="
M450.72 248.729
L450.72 69.6398" style="fill:none;stroke:#000000;stroke-linecap:square;"/>
   </g>
   <g id="PathCollection_1">
    <defs>
     <path d="
M0 2.5
C0.663008 2.5 1.29895 2.23658 1.76777 1.76777
C2.23658 1.29895 2.5 0.663008 2.5 0
C2.5 -0.663008 2.23658 -1.29895 1.76777 -1.76777
C1.29895 -2.23658 0.663008 -2.5 0 -2.5
C-0.663008 -2.5 -1.29895 -2.23658 -1.76777 -1.76777
C-2.23658 -1.29895 -2.5 -0.663008 -2.5 0
C-2.5 0.663008 -2.23658 1.29895 -1.76777 1.76777
C-1.29895 2.23658 -0.663008 2.5 0 2.5
z
" id="C0_0_c2852accaa"/>
    </defs>
    <g clip-path="url(#p21049e8a99)">
     <use x="80.631688938" xlink:href="#C0_0_c2852accaa" y="90.95504108"/>
    </g>
    <g clip-path="url(#p21049e8a99)">
     <use x="142.313074018" xlink:href="#C0_0_c2852accaa" y="60.4532616739"/>
    </g>
    <g clip-path="url(#p21049e8a99)">
     <use x="203.994459098" xlink:href="#C0_0_c2852accaa" y="84.9197563506"/>
    </g>
    <g clip-path="url(#p21049e8a99)">
     <use x="265.675844178" xlink:href="#C0_0_c2852accaa" y="135.728565218"/>
    </g>
    <g clip-path="url(#p21049e8a99)">
     <use x="327.357229259" xlink:href="#C0_0_c2852accaa" y="153.433047306"/>
    </g>
    <g clip-path="url(#p21049e8a99)">
     <use x="389.038614339" xlink:href="#C0_0_c2852accaa" y="117.318841983"/>
    </g>
    <g clip-path="url(#p21049e8a99)">
     <use x="450.719999419" xlink:href="#C0_0_c2852accaa" y="69.6398073003"/>
    </g>
   </g>
  </g>
 </g>
 <defs>
  <clipPath id="p21049e8a99">
   <rect height="222.74658692" width="530.83" x="7.2" y="32.620625"/>
  </clipPath>
 </defs>
</svg>
