<?xml version="1.0" encoding="utf-8" standalone="no"?>
<!DOCTYPE svg PUBLIC "-//W3C//DTD SVG 1.1//EN"
  "http://www.w3.org/Graphics/SVG/1.1/DTD/svg11.dtd">
<!-- Created with matplotlib (http://matplotlib.org/) -->
<svg height="277pt" version="1.1" viewBox="0 0 296 277" width="296pt" xmlns="http://www.w3.org/2000/svg" xmlns:xlink="http://www.w3.org/1999/xlink">
 <defs>
  <style type="text/css">
*{stroke-linecap:butt;stroke-linejoin:round;}
  </style>
 </defs>
 <g id="figure_1">
  <g id="patch_1">
   <path d="
M0 277.321
L296.608 277.321
L296.608 0
L0 0
z
" style="fill:#ffffff;"/>
  </g>
  <g id="axes_1">
   <g id="patch_2">
    <path d="
M28.1384 258.335
L270.968 258.335
L270.968 32.6206
L28.1384 32.6206
z
" style="fill:#ffffff;"/>
   </g>
   <g id="patch_3">
    <path clip-path="url(#pf6cbaccbfc)" d="
M91.1808 248.701
L91.1808 126.951
L91.5259 126.576
L92.5918 125.427
L92.8408 125.161
L93.2466 124.729
L94.0978 123.829
L94.8414 123.05
L95.1221 122.758
L96.1365 121.71
L96.5143 121.323
L96.9138 120.916
L97.6072 120.214
L98.1733 119.645
L98.5935 119.225
L99.2732 118.551
L99.9564 117.879
L100.527 117.323
L101.326 116.55
L101.879 116.02
L102.181 115.732
L102.675 115.263
L103.779 114.227
L104.195 113.841
L104.527 113.534
L105.271 112.851
L106.024 112.167
L106.564 111.681
L106.931 111.353
L107.36 110.971
L107.933 110.464
L109.054 109.486
L109.368 109.215
L109.83 108.817
L110.68 108.094
L111.218 107.641
L111.492 107.412
L112.037 106.958
L112.858 106.281
L113.274 105.941
L114.161 105.225
L114.875 104.655
L115.045 104.52
L115.954 103.806
L116.572 103.326
L116.802 103.149
L117.578 102.555
L118.296 102.012
L118.875 101.58
L119.616 101.032
L119.838 100.868
L120.224 100.587
L121.229 99.8627
L121.912 99.3773
L122.549 98.9296
L122.913 98.6764
L123.34 98.3813
L123.829 98.0459
L124.843 97.3605
L125.301 97.0549
L125.596 96.8593
L126.114 96.5194
L126.87 96.0283
L127.786 95.4429
L128.386 95.0649
L128.663 94.8922
L129.066 94.6426
L130.003 94.0692
L130.689 93.6567
L131.054 93.4398
L131.411 93.2287
L132.48 92.6074
L132.61 92.5327
L133.376 92.0969
L134.073 91.707
L134.352 91.553
L135.221 91.078
L135.72 90.8097
L136.397 90.4507
L137.224 90.0197
L137.306 89.9774
L137.883 89.6821
L138.953 89.1462
L139.395 88.9286
L139.991 88.6396
L140.619 88.3396
L141.058 88.1329
L141.524 87.9157
L142.442 87.4965
L142.85 87.3135
L143.458 87.0445
L144.001 86.8082
L144.627 86.5406
L144.974 86.394
L146.022 85.9611
L146.605 85.726
L146.756 85.6661
L147.324 85.4421
L148.299 85.0674
L148.94 84.8276
L149.362 84.6725
L149.708 84.5467
L150.449 84.2826
L151.072 84.0662
L151.777 83.8267
L151.967 83.7632
L152.925 83.4504
L153.079 83.4011
L153.751 83.1894
L154.522 82.9537
L155.261 82.7348
L155.789 82.5824
L156.552 82.3685
L156.627 82.3478
L157.659 82.0707
L157.883 82.0123
L158.545 81.8435
L159.16 81.6915
L159.533 81.6015
L160.156 81.4552
L160.98 81.2691
L161.771 81.0985
L162.417 80.9647
L162.593 80.9293
L163.308 80.7889
L164.006 80.6581
L164.489 80.5712
L164.929 80.4945
L165.475 80.4025
L166.417 80.2528
L166.587 80.227
L167.63 80.0761
L168.243 79.9938
L168.627 79.9447
L169.489 79.841
L169.771 79.809
L170.169 79.7656
L171.2 79.6624
L171.536 79.6316
L172.401 79.5588
L172.553 79.547
L173.07 79.5089
L173.778 79.4622
L174.635 79.4138
L174.837 79.4038
L175.503 79.3742
L175.971 79.3568
L176.71 79.3348
L177.557 79.3178
L178.158 79.3113
L178.82 79.3092
L179.23 79.3106
L179.878 79.3172
L180.54 79.3293
L181.222 79.3474
L181.319 79.3505
L182.136 79.3808
L182.611 79.4023
L183.425 79.4456
L183.885 79.4737
L184.541 79.5183
L185.218 79.57
L185.747 79.6143
L186.362 79.6702
L186.89 79.722
L187.386 79.7737
L187.981 79.8399
L188.51 79.9024
L189.183 79.9868
L189.673 80.052
L190.155 80.119
L191.092 80.2573
L191.758 80.3623
L192.352 80.4606
L192.482 80.4828
L193.536 80.6696
L194.11 80.7771
L194.446 80.8421
L195.302 81.0137
L195.702 81.0971
L196.209 81.2056
L196.742 81.3231
L197.331 81.457
L197.823 81.5721
L198.543 81.7461
L198.885 81.8312
L199.746 82.0513
L200.388 82.2214
L201.012 82.3917
L201.751 82.5998
L202.277 82.7517
L202.687 82.873
L203.018 82.9721
L203.996 83.2732
L204.443 83.4147
L205.055 83.6124
L205.624 83.8006
L206.39 84.0601
L206.757 84.1872
L207.054 84.2909
L207.926 84.6026
L207.926 248.701
z
" style="fill:#7fffd4;opacity:0.5;"/>
   </g>
   <g id="line2d_1">
    <path clip-path="url(#pf6cbaccbfc)" d="
M32.8082 248.701
L266.299 248.701
L266.299 248.701" style="fill:none;"/>
   </g>
   <g id="line2d_2">
    <path clip-path="url(#pf6cbaccbfc)" d="
M47.4014 186.502
L52.8269 177.829
L57.9226 170.016
L63.7445 161.485
L69.5049 153.458
L74.6571 146.629
L79.9437 139.964
L85.5116 133.32
L90.5559 127.633
L96.275 121.568
L101.535 116.349
L107.119 111.185
L111.534 107.377
L116.303 103.535
L121.596 99.6009
L126.785 96.0829
L130.516 93.7602
L134.433 91.508
L138.374 89.4346
L143.486 87.0322
L147.638 85.3203
L151.927 83.7766
L155.98 82.528
L159.947 81.5037
L164.173 80.6277
L169.115 79.8848
L173.06 79.5096
L176.786 79.3329
L180.954 79.3396
L185.755 79.615
L189.771 80.0653
L193.786 80.716
L198.707 81.7867
L202.565 82.8366
L207.06 84.2931
L211.25 85.877
L214.705 87.3472
L219.417 89.5915
L223.498 91.758
L227.627 94.1609
L232.531 97.2897
L236.603 100.115
L241.764 103.992
L246.071 107.481
L250.299 111.13
L251.705 112.393
L251.705 112.393" style="fill:none;stroke:#0000ff;stroke-linecap:square;stroke-width:2.0;"/>
   </g>
   <g id="line2d_3">
    <path clip-path="url(#pf6cbaccbfc)" d="
M91.1808 126.951
L96.1365 121.71
L101.326 116.55
L106.564 111.681
L111.492 107.412
L116.572 103.326
L121.229 99.8627
L126.114 96.5194
L131.054 93.4398
L135.72 90.8097
L139.991 88.6396
L144.627 86.5406
L148.94 84.8276
L153.079 83.4011
L157.659 82.0707
L161.771 81.0985
L165.475 80.4025
L170.169 79.7656
L174.837 79.4038
L179.23 79.3106
L183.425 79.4456
L187.386 79.7737
L191.758 80.3623
L196.209 81.2056
L200.388 82.2214
L204.443 83.4147
L207.926 84.6026
L207.926 84.6026" style="fill:none;stroke:#0000ff;stroke-linecap:square;"/>
   </g>
   <g id="matplotlib.axis_1">
    <g id="xtick_1">
     <g id="line2d_4">
      <defs>
       <path d="
M0 0
L0 -4" id="m93b0483c22" style="stroke:#000000;stroke-width:0.5;"/>
      </defs>
      <g>
       <use style="stroke:#000000;stroke-width:0.5;" x="91.1808173077" xlink:href="#m93b0483c22" y="248.700630949"/>
      </g>
     </g>
     <g id="text_1">
      <!-- $-\Delta x$ -->
      <defs>
       <path d="
M7.8125 2.875
Q9.57812 1.51562 12.7969 1.51562
Q15.9219 1.51562 18.3125 4.51562
Q20.7031 7.51562 21.5781 11.0781
L26.125 28.8125
Q27.2031 33.6406 27.2031 35.4062
Q27.2031 37.8906 25.8125 39.75
Q24.4219 41.6094 21.9219 41.6094
Q18.75 41.6094 15.9688 39.625
Q13.1875 37.6406 11.2812 34.5938
Q9.375 31.5469 8.59375 28.4219
Q8.40625 27.7812 7.8125 27.7812
L6.59375 27.7812
Q5.8125 27.7812 5.8125 28.7188
L5.8125 29
Q6.78125 32.7188 9.125 36.25
Q11.4688 39.7969 14.8594 41.9844
Q18.2656 44.1875 22.125 44.1875
Q25.7812 44.1875 28.7344 42.2344
Q31.6875 40.2812 32.9062 36.9219
Q34.625 39.9844 37.2812 42.0781
Q39.9375 44.1875 43.1094 44.1875
Q45.2656 44.1875 47.5 43.4219
Q49.75 42.6719 51.1719 41.1094
Q52.5938 39.5469 52.5938 37.2031
Q52.5938 34.6719 50.9531 32.8281
Q49.3125 31 46.7812 31
Q45.1719 31 44.0938 32.0312
Q43.0156 33.0625 43.0156 34.625
Q43.0156 36.7188 44.4531 38.2969
Q45.9062 39.8906 47.9062 40.1875
Q46.0938 41.6094 42.9219 41.6094
Q39.7031 41.6094 37.3281 38.625
Q34.9688 35.6406 33.9844 31.9844
L29.5938 14.3125
Q28.5156 10.2969 28.5156 7.71875
Q28.5156 5.17188 29.9531 3.34375
Q31.3906 1.51562 33.7969 1.51562
Q38.4844 1.51562 42.1562 5.64062
Q45.8438 9.76562 47.0156 14.7031
Q47.2188 15.2812 47.7969 15.2812
L49.0312 15.2812
Q49.4219 15.2812 49.6562 15.0156
Q49.9062 14.75 49.9062 14.4062
Q49.9062 14.3125 49.8125 14.1094
Q48.3906 8.15625 43.8438 3.51562
Q39.3125 -1.125 33.5938 -1.125
Q29.9375 -1.125 26.9844 0.84375
Q24.0312 2.82812 22.7969 6.20312
Q21.2344 3.26562 18.4688 1.0625
Q15.7188 -1.125 12.5938 -1.125
Q10.4531 -1.125 8.17188 -0.359375
Q5.90625 0.390625 4.48438 1.95312
Q3.07812 3.51562 3.07812 5.90625
Q3.07812 8.25 4.70312 10.1719
Q6.34375 12.1094 8.79688 12.1094
Q10.4531 12.1094 11.5781 11.1094
Q12.7031 10.1094 12.7031 8.5
Q12.7031 6.39062 11.2969 4.82812
Q9.90625 3.26562 7.8125 2.875" id="Cmmi10-78"/>
       <path d="
M10.2031 23
Q9.375 23 8.82812 23.625
Q8.29688 24.2656 8.29688 25
Q8.29688 25.7344 8.82812 26.3594
Q9.375 27 10.2031 27
L67.5781 27
Q68.3594 27 68.875 26.3594
Q69.3906 25.7344 69.3906 25
Q69.3906 24.2656 68.875 23.625
Q68.3594 23 67.5781 23
z
" id="Cmsy10-a1"/>
       <path d="
M5.42188 0
Q4.59375 0 4.59375 0.78125
Q4.64062 0.875 4.65625 0.921875
Q4.6875 0.984375 4.6875 1.125
L39.1094 70.5156
Q39.5469 71.5781 40.9219 71.5781
L42.2812 71.5781
Q43.6562 71.5781 44.0938 70.5156
L78.5156 1.125
Q78.5625 1.03125 78.5781 0.953125
Q78.6094 0.875 78.6094 0.78125
Q78.6094 0 77.7812 0
z

M12.0156 8.01562
L64.7031 8.01562
L38.375 61.0781
z
" id="Cmr10-a2"/>
      </defs>
      <g transform="translate(71.4708173077 266.377818449)scale(0.18 -0.18)">
       <use transform="translate(0.0 0.421875)" xlink:href="#Cmsy10-a1"/>
       <use transform="translate(77.685546875 0.421875)" xlink:href="#Cmr10-a2"/>
       <use transform="translate(160.986328125 0.421875)" xlink:href="#Cmmi10-78"/>
      </g>
     </g>
    </g>
    <g id="xtick_2">
     <g id="line2d_5">
      <g>
       <use style="stroke:#000000;stroke-width:0.5;" x="207.926009615" xlink:href="#m93b0483c22" y="248.700630949"/>
      </g>
     </g>
     <g id="text_2">
      <!-- $\Delta x$ -->
      <g transform="translate(195.236009615 266.377818449)scale(0.18 -0.18)">
       <use transform="translate(0.0 0.421875)" xlink:href="#Cmr10-a2"/>
       <use transform="translate(83.30078125 0.421875)" xlink:href="#Cmmi10-78"/>
      </g>
     </g>
    </g>
    <g id="text_3">
     <!-- $x$ -->
     <g transform="translate(278.968413462 248.700630949)scale(0.18 -0.18)">
      <use transform="translate(0.0 0.8125)" xlink:href="#Cmmi10-78"/>
     </g>
    </g>
   </g>
   <g id="matplotlib.axis_2">
    <g id="text_4">
     <!-- $y$ -->
     <defs>
      <path d="
M8.40625 -14.3125
Q10.5 -17.9219 15.7188 -17.9219
Q20.4531 -17.9219 23.9219 -14.5938
Q27.3906 -11.2812 29.5156 -6.5625
Q31.6406 -1.85938 32.8125 3.07812
Q28.375 -1.125 23.1875 -1.125
Q19.2344 -1.125 16.4531 0.234375
Q13.6719 1.60938 12.125 4.3125
Q10.5938 7.03125 10.5938 10.8906
Q10.5938 14.1562 11.4688 17.5938
Q12.3594 21.0469 13.9375 25.2656
Q15.5312 29.5 16.7031 32.625
Q18.0156 36.2812 18.0156 38.625
Q18.0156 41.6094 15.8281 41.6094
Q11.8594 41.6094 9.29688 37.5312
Q6.73438 33.4531 5.51562 28.4219
Q5.32812 27.7812 4.6875 27.7812
L3.51562 27.7812
Q2.6875 27.7812 2.6875 28.7188
L2.6875 29
Q4.29688 34.9688 7.60938 39.5781
Q10.9375 44.1875 16.0156 44.1875
Q19.5781 44.1875 22.0469 41.8438
Q24.5156 39.5 24.5156 35.8906
Q24.5156 34.0312 23.6875 31.9844
Q23.25 30.7656 21.6875 26.6562
Q20.125 22.5625 19.2812 19.875
Q18.4531 17.1875 17.9219 14.5938
Q17.3906 12.0156 17.3906 9.42188
Q17.3906 6.10938 18.7969 3.8125
Q20.2188 1.51562 23.2969 1.51562
Q29.5 1.51562 34.4219 9.07812
L42 39.8906
Q42.3281 41.2188 43.5469 42.1562
Q44.7812 43.1094 46.1875 43.1094
Q47.4062 43.1094 48.3125 42.3281
Q49.2188 41.5469 49.2188 40.2812
Q49.2188 39.7031 49.125 39.5
L39.2031 -0.296875
Q37.8906 -5.42188 34.375 -10.1094
Q30.8594 -14.7969 25.9062 -17.6562
Q20.9531 -20.5156 15.5781 -20.5156
Q12.9844 -20.5156 10.4375 -19.5
Q7.90625 -18.5 6.34375 -16.5
Q4.78125 -14.5 4.78125 -11.8125
Q4.78125 -9.07812 6.39062 -7.07812
Q8.01562 -5.07812 10.6875 -5.07812
Q12.3125 -5.07812 13.4062 -6.07812
Q14.5 -7.07812 14.5 -8.6875
Q14.5 -10.9844 12.7812 -12.6875
Q11.0781 -14.4062 8.79688 -14.4062
Q8.6875 -14.3594 8.59375 -14.3281
Q8.5 -14.3125 8.40625 -14.3125" id="Cmmi10-79"/>
     </defs>
     <g transform="translate(145.053413462 20.840625)scale(0.18 -0.18)">
      <use transform="translate(0.0 0.8125)" xlink:href="#Cmmi10-79"/>
     </g>
    </g>
   </g>
   <g id="patch_4">
    <path d="
M28.1384 248.701
L270.968 248.701" style="fill:none;stroke:#000000;stroke-width:0.8;"/>
   </g>
   <g id="patch_5">
    <path d="
M149.553 258.335
L149.553 32.6206" style="fill:none;stroke:#000000;stroke-width:0.8;"/>
   </g>
   <g id="text_5">
    <!-- $P_0(-\Delta x,y_0)$ -->
    <defs>
     <path d="
M4.89062 0
Q3.90625 0 3.90625 1.3125
Q3.95312 1.5625 4.09375 2.17188
Q4.25 2.78125 4.51562 3.14062
Q4.78125 3.51562 5.17188 3.51562
Q11.2812 3.51562 13.7188 4.20312
Q14.9844 4.64062 15.5781 6.89062
L29.2969 61.8125
Q29.5 62.7969 29.5 63.1875
Q29.5 64.2656 28.3281 64.4062
Q26.4219 64.7969 21.0938 64.7969
Q20.125 64.7969 20.125 66.1094
Q20.1719 66.3594 20.3125 66.9688
Q20.4531 67.5781 20.7188 67.9375
Q21 68.3125 21.3906 68.3125
L55.9062 68.3125
Q60.6406 68.3125 65.0781 66.625
Q69.5312 64.9375 72.3594 61.4688
Q75.2031 58.0156 75.2031 53.0781
Q75.2031 46.7344 70.7344 41.75
Q66.2656 36.7656 59.5938 33.9844
Q52.9375 31.2031 46.6875 31.2031
L30.4219 31.2031
L24.3125 6.5
Q24.125 5.51562 24.125 5.07812
Q24.125 4.6875 24.2344 4.42188
Q24.3594 4.15625 24.5781 4.07812
Q24.8125 4 25.2969 3.90625
Q27.2031 3.51562 32.5156 3.51562
Q33.5 3.51562 33.5 2.20312
Q33.1562 0.78125 32.9531 0.390625
Q32.7656 0 31.7812 0
z

M30.9062 34.1875
L44.9219 34.1875
Q54.6406 34.1875 59.7188 39.4062
Q62.3125 42 63.9375 46.875
Q65.5781 51.7656 65.5781 55.7188
Q65.5781 60.6406 61.8125 62.7188
Q58.0625 64.7969 52.4844 64.7969
L42.9219 64.7969
Q40.1875 64.7969 39.2969 64.3281
Q38.4219 63.875 37.7031 61.375
z
" id="Cmmi10-50"/>
     <path d="
M31 -24.8125
Q25.4375 -20.4062 21.4062 -14.7188
Q17.3906 -9.03125 14.8125 -2.57812
Q12.25 3.85938 10.9844 10.8906
Q9.71875 17.9219 9.71875 25
Q9.71875 32.1719 10.9844 39.2031
Q12.25 46.2344 14.8594 52.7344
Q17.4844 59.2344 21.5312 64.8906
Q25.5938 70.5625 31 74.8125
Q31 75 31.5 75
L32.4219 75
Q32.7188 75 32.9531 74.7344
Q33.2031 74.4688 33.2031 74.125
Q33.2031 73.6875 33.0156 73.4844
Q28.125 68.7031 24.875 63.2344
Q21.625 57.7656 19.6406 51.5781
Q17.6719 45.4062 16.7969 38.7812
Q15.9219 32.1719 15.9219 25
Q15.9219 -6.78125 32.9062 -23.2969
Q33.2031 -23.5781 33.2031 -24.125
Q33.2031 -24.3594 32.9375 -24.6719
Q32.6719 -25 32.4219 -25
L31.5 -25
Q31 -25 31 -24.8125" id="Cmr10-28"/>
     <path d="
M25 -2.20312
Q12.75 -2.20312 8.32812 7.875
Q3.90625 17.9688 3.90625 31.8906
Q3.90625 40.5781 5.48438 48.2344
Q7.07812 55.9062 11.7812 61.25
Q16.5 66.6094 25 66.6094
Q31.5938 66.6094 35.7812 63.375
Q39.9844 60.1562 42.1875 55.0469
Q44.3906 49.9531 45.1875 44.1094
Q46 38.2812 46 31.8906
Q46 23.2969 44.4062 15.7969
Q42.8281 8.29688 38.1875 3.04688
Q33.5469 -2.20312 25 -2.20312
M25 0.390625
Q30.5625 0.390625 33.2969 6.09375
Q36.0312 11.8125 36.6719 18.75
Q37.3125 25.6875 37.3125 33.5
Q37.3125 41.0156 36.6719 47.3594
Q36.0312 53.7188 33.3125 58.8594
Q30.6094 64.0156 25 64.0156
Q19.3438 64.0156 16.6094 58.8281
Q13.875 53.6562 13.2344 47.3281
Q12.5938 41.0156 12.5938 33.5
Q12.5938 27.9375 12.8594 23
Q13.1406 18.0625 14.3125 12.8125
Q15.4844 7.5625 18.0938 3.96875
Q20.7031 0.390625 25 0.390625" id="Cmr10-30"/>
     <path d="
M9.90625 -18.0156
Q9.90625 -17.5781 10.2969 -17.1875
Q13.9219 -13.7188 15.9219 -9.17188
Q17.9219 -4.64062 17.9219 0.390625
L17.9219 1.60938
Q16.3125 0 13.9219 0
Q11.625 0 10.0156 1.60938
Q8.40625 3.21875 8.40625 5.51562
Q8.40625 7.85938 10.0156 9.42188
Q11.625 10.9844 13.9219 10.9844
Q17.4844 10.9844 19 7.6875
Q20.5156 4.39062 20.5156 0.390625
Q20.5156 -5.17188 18.2812 -10.1719
Q16.0625 -15.1875 12.0156 -19.1875
Q11.625 -19.3906 11.375 -19.3906
Q10.8906 -19.3906 10.3906 -18.9375
Q9.90625 -18.5 9.90625 -18.0156" id="Cmmi10-3b"/>
     <path d="
M6.5 -25
Q5.60938 -25 5.60938 -24.125
Q5.60938 -23.6875 5.8125 -23.4844
Q22.9062 -6.78125 22.9062 25
Q22.9062 56.7812 6 73.2969
Q5.60938 73.5312 5.60938 74.125
Q5.60938 74.4688 5.875 74.7344
Q6.15625 75 6.5 75
L7.42188 75
Q7.71875 75 7.90625 74.8125
Q15.0938 69.1406 19.875 61.0312
Q24.6562 52.9375 26.875 43.75
Q29.1094 34.5781 29.1094 25
Q29.1094 17.9219 27.9062 11.0625
Q26.7031 4.20312 24.0938 -2.45312
Q21.4844 -9.125 17.4844 -14.7656
Q13.4844 -20.4062 7.90625 -24.8125
Q7.71875 -25 7.42188 -25
z
" id="Cmr10-29"/>
    </defs>
    <g transform="translate(7.2 114.830053911)scale(0.16 -0.16)">
     <use xlink:href="#Cmmi10-50"/>
     <use transform="translate(64.208984375 -25.509375)scale(0.7)" xlink:href="#Cmr10-30"/>
     <use transform="translate(114.208984375 0.0)" xlink:href="#Cmr10-28"/>
     <use transform="translate(153.02734375 0.0)" xlink:href="#Cmsy10-a1"/>
     <use transform="translate(230.712890625 0.0)" xlink:href="#Cmr10-a2"/>
     <use transform="translate(314.013671875 0.0)" xlink:href="#Cmmi10-78"/>
     <use transform="translate(371.09375 0.0)" xlink:href="#Cmmi10-3b"/>
     <use transform="translate(400.76171875 0.0)" xlink:href="#Cmmi10-79"/>
     <use transform="translate(449.78515625 -25.509375)scale(0.7)" xlink:href="#Cmr10-30"/>
     <use transform="translate(499.78515625 0.0)" xlink:href="#Cmr10-29"/>
    </g>
   </g>
   <g id="text_6">
    <!-- $P_1(0,y_1)$ -->
    <defs>
     <path d="
M9.28125 0
L9.28125 3.51562
Q21.7812 3.51562 21.7812 6.6875
L21.7812 59.1875
Q16.6094 56.6875 8.6875 56.6875
L8.6875 60.2031
Q20.9531 60.2031 27.2031 66.6094
L28.6094 66.6094
Q28.9531 66.6094 29.2656 66.3281
Q29.5938 66.0625 29.5938 65.7188
L29.5938 6.6875
Q29.5938 3.51562 42.0938 3.51562
L42.0938 0
z
" id="Cmr10-31"/>
    </defs>
    <g transform="translate(90.6871153846 72.6421840537)scale(0.16 -0.16)">
     <use xlink:href="#Cmmi10-50"/>
     <use transform="translate(64.208984375 -25.509375)scale(0.7)" xlink:href="#Cmr10-31"/>
     <use transform="translate(114.208984375 0.0)" xlink:href="#Cmr10-28"/>
     <use transform="translate(153.02734375 0.0)" xlink:href="#Cmr10-30"/>
     <use transform="translate(203.02734375 0.0)" xlink:href="#Cmmi10-3b"/>
     <use transform="translate(232.6953125 0.0)" xlink:href="#Cmmi10-79"/>
     <use transform="translate(281.71875 -25.509375)scale(0.7)" xlink:href="#Cmr10-31"/>
     <use transform="translate(331.71875 0.0)" xlink:href="#Cmr10-29"/>
    </g>
   </g>
   <g id="text_7">
    <!-- $P_2(\Delta x,y_2)$ -->
    <defs>
     <path d="
M4.98438 0
L4.98438 2.6875
Q4.98438 2.9375 5.17188 3.21875
L20.7031 20.4062
Q24.2188 24.2188 26.4062 26.7969
Q28.6094 29.3906 30.75 32.7656
Q32.9062 36.1406 34.1562 39.625
Q35.4062 43.1094 35.4062 47.0156
Q35.4062 51.125 33.8906 54.8594
Q32.375 58.5938 29.375 60.8438
Q26.375 63.0938 22.125 63.0938
Q17.7812 63.0938 14.3125 60.4688
Q10.8438 57.8594 9.42188 53.7188
Q9.8125 53.8125 10.5 53.8125
Q12.75 53.8125 14.3281 52.2969
Q15.9219 50.7812 15.9219 48.3906
Q15.9219 46.0938 14.3281 44.5
Q12.75 42.9219 10.5 42.9219
Q8.15625 42.9219 6.5625 44.5469
Q4.98438 46.1875 4.98438 48.3906
Q4.98438 52.1562 6.39062 55.4375
Q7.8125 58.7344 10.4688 61.2969
Q13.1406 63.875 16.4844 65.2344
Q19.8281 66.6094 23.5781 66.6094
Q29.2969 66.6094 34.2188 64.1875
Q39.1562 61.7656 42.0312 57.3438
Q44.9219 52.9375 44.9219 47.0156
Q44.9219 42.6719 43.0156 38.7656
Q41.1094 34.8594 38.125 31.6562
Q35.1562 28.4688 30.5156 24.4062
Q25.875 20.3594 24.4219 19
L13.0938 8.10938
L22.7031 8.10938
Q29.7812 8.10938 34.5469 8.21875
Q39.3125 8.34375 39.5938 8.59375
Q40.7656 9.85938 42 17.8281
L44.9219 17.8281
L42.0938 0
z
" id="Cmr10-32"/>
    </defs>
    <g transform="translate(200.232307692 72.6421840537)scale(0.16 -0.16)">
     <use xlink:href="#Cmmi10-50"/>
     <use transform="translate(64.208984375 -25.509375)scale(0.7)" xlink:href="#Cmr10-32"/>
     <use transform="translate(114.208984375 0.0)" xlink:href="#Cmr10-28"/>
     <use transform="translate(153.02734375 0.0)" xlink:href="#Cmr10-a2"/>
     <use transform="translate(236.328125 0.0)" xlink:href="#Cmmi10-78"/>
     <use transform="translate(293.408203125 0.0)" xlink:href="#Cmmi10-3b"/>
     <use transform="translate(323.076171875 0.0)" xlink:href="#Cmmi10-79"/>
     <use transform="translate(372.099609375 -25.509375)scale(0.7)" xlink:href="#Cmr10-32"/>
     <use transform="translate(422.099609375 0.0)" xlink:href="#Cmr10-29"/>
    </g>
   </g>
   <g id="text_8">
    <!-- $0$ -->
    <g transform="translate(139.216153846 262.13707992)scale(0.18 -0.18)">
     <use transform="translate(0.0 0.390625)" xlink:href="#Cmr10-30"/>
    </g>
   </g>
   <g id="line2d_6">
    <path clip-path="url(#pf6cbaccbfc)" d="
M91.1808 248.701
L91.1808 126.951" style="fill:none;stroke:#000000;stroke-linecap:square;"/>
   </g>
   <g id="line2d_7">
    <path clip-path="url(#pf6cbaccbfc)" d="
M207.926 248.701
L207.926 84.6026" style="fill:none;stroke:#000000;stroke-linecap:square;"/>
   </g>
   <g id="PathCollection_1">
    <defs>
     <path d="
M0 2.5
C0.663008 2.5 1.29895 2.23658 1.76777 1.76777
C2.23658 1.29895 2.5 0.663008 2.5 0
C2.5 -0.663008 2.23658 -1.29895 1.76777 -1.76777
C1.29895 -2.23658 0.663008 -2.5 0 -2.5
C-0.663008 -2.5 -1.29895 -2.23658 -1.76777 -1.76777
C-2.23658 -1.29895 -2.5 -0.663008 -2.5 0
C-2.5 0.663008 -2.23658 1.29895 -1.76777 1.76777
C-1.29895 2.23658 -0.663008 2.5 0 2.5
z
" id="C0_0_c2852accaa"/>
    </defs>
    <g clip-path="url(#pf6cbaccbfc)">
     <use x="91.1808173077" xlink:href="#C0_0_c2852accaa" y="126.950505108"/>
    </g>
    <g clip-path="url(#pf6cbaccbfc)">
     <use x="149.553413462" xlink:href="#C0_0_c2852accaa" y="84.6026352503"/>
    </g>
    <g clip-path="url(#pf6cbaccbfc)">
     <use x="207.926009615" xlink:href="#C0_0_c2852accaa" y="84.6026352503"/>
    </g>
   </g>
  </g>
 </g>
 <defs>
  <clipPath id="pf6cbaccbfc">
   <rect height="225.714146341" width="242.83" x="28.1384134615" y="32.620625"/>
  </clipPath>
 </defs>
</svg>
