<?xml version="1.0" encoding="utf-8" standalone="no"?>
<!DOCTYPE svg PUBLIC "-//W3C//DTD SVG 1.1//EN"
  "http://www.w3.org/Graphics/SVG/1.1/DTD/svg11.dtd">
<!-- Created with matplotlib (http://matplotlib.org/) -->
<svg height="276pt" version="1.1" viewBox="0 0 275 276" width="275pt" xmlns="http://www.w3.org/2000/svg" xmlns:xlink="http://www.w3.org/1999/xlink">
 <defs>
  <style type="text/css">
*{stroke-linecap:butt;stroke-linejoin:round;}
  </style>
 </defs>
 <g id="figure_1">
  <g id="patch_1">
   <path d="
M0 276.914
L275.339 276.914
L275.339 0
L0 0
z
" style="fill:#ffffff;"/>
  </g>
  <g id="axes_1">
   <g id="patch_2">
    <path d="
M10.2265 265.481
L249.699 265.481
L249.699 32.6206
L10.2265 32.6206
z
" style="fill:#ffffff;"/>
   </g>
   <g id="line2d_1">
    <path clip-path="url(#pe647511517)" d="
M14.8317 240.648
L245.094 240.648
L245.094 240.648" style="fill:none;"/>
   </g>
   <g id="line2d_2">
    <path clip-path="url(#pe647511517)" d="
M14.8317 235.56
L23.8527 234.658
L30.4892 233.832
L38.2832 232.623
L44.2364 231.47
L49.9754 230.106
L53.8746 228.997
L57.6995 227.731
L61.771 226.143
L65.2944 224.519
L68.7012 222.675
L71.4892 220.921
L74.0369 219.082
L76.5142 217.037
L78.827 214.853
L80.9331 212.589
L83.1923 209.813
L85.4074 206.67
L87.3462 203.508
L89.3045 199.845
L91.0284 196.151
L92.8463 191.686
L94.5929 186.731
L96.2184 181.411
L97.8554 175.217
L99.4104 168.387
L100.994 160.272
L102.501 151.205
L103.929 141.125
L105.272 130.002
L106.636 116.689
L107.886 102.255
L109.104 85.6163
L110.292 66.3309
L111.425 44.356
L112.548 18.2387
L113.255 -1
M146.67 -1
L147.771 27.9494
L148.944 53.437
L150.137 74.9209
L151.402 93.9009
L152.717 110.378
L154.088 124.757
L155.526 137.433
L157.02 148.516
L158.502 157.833
L159.986 165.819
L161.516 172.898
L163.178 179.508
L164.866 185.28
L166.423 189.908
L168.158 194.412
L170.027 198.625
L171.765 202.047
L173.722 205.422
L175.614 208.283
L177.592 210.915
L179.833 213.528
L182.321 216.043
L184.299 217.802
L186.748 219.73
L189.56 221.658
L192.247 223.261
L195.61 224.997
L199.02 226.504
L203.047 228.02
L207.275 229.364
L212.473 230.741
L217.662 231.878
L224.338 233.075
L231.681 234.129
L239.076 234.983
L245.094 235.56
L245.094 235.56" style="fill:none;stroke:#0000ff;stroke-linecap:square;stroke-width:2.0;"/>
   </g>
   <g id="matplotlib.axis_1">
    <g id="xtick_1">
     <g id="line2d_3">
      <defs>
       <path d="
M0 0
L0 -4" id="m93b0483c22" style="stroke:#000000;stroke-width:0.5;"/>
      </defs>
      <g>
       <use style="stroke:#000000;stroke-width:0.5;" x="14.83171875" xlink:href="#m93b0483c22" y="240.648340169"/>
      </g>
     </g>
     <g id="text_1">
      <!-- -2 -->
      <defs>
       <path d="
M19.1875 8.29688
L53.6094 8.29688
L53.6094 0
L7.32812 0
L7.32812 8.29688
Q12.9375 14.1094 22.625 23.8906
Q32.3281 33.6875 34.8125 36.5312
Q39.5469 41.8438 41.4219 45.5312
Q43.3125 49.2188 43.3125 52.7812
Q43.3125 58.5938 39.2344 62.25
Q35.1562 65.9219 28.6094 65.9219
Q23.9688 65.9219 18.8125 64.3125
Q13.6719 62.7031 7.8125 59.4219
L7.8125 69.3906
Q13.7656 71.7812 18.9375 73
Q24.125 74.2188 28.4219 74.2188
Q39.75 74.2188 46.4844 68.5469
Q53.2188 62.8906 53.2188 53.4219
Q53.2188 48.9219 51.5312 44.8906
Q49.8594 40.875 45.4062 35.4062
Q44.1875 33.9844 37.6406 27.2188
Q31.1094 20.4531 19.1875 8.29688" id="BitstreamVeraSans-Roman-32"/>
       <path d="
M4.89062 31.3906
L31.2031 31.3906
L31.2031 23.3906
L4.89062 23.3906
z
" id="BitstreamVeraSans-Roman-2d"/>
      </defs>
      <g transform="translate(7.2 258.325527669)scale(0.18 -0.18)">
       <use xlink:href="#BitstreamVeraSans-Roman-2d"/>
       <use x="36.083984375" xlink:href="#BitstreamVeraSans-Roman-32"/>
      </g>
     </g>
    </g>
    <g id="xtick_2">
     <g id="line2d_4">
      <g>
       <use style="stroke:#000000;stroke-width:0.5;" x="72.3971773299" xlink:href="#m93b0483c22" y="240.648340169"/>
      </g>
     </g>
     <g id="text_2">
      <!-- -1 -->
      <defs>
       <path d="
M12.4062 8.29688
L28.5156 8.29688
L28.5156 63.9219
L10.9844 60.4062
L10.9844 69.3906
L28.4219 72.9062
L38.2812 72.9062
L38.2812 8.29688
L54.3906 8.29688
L54.3906 0
L12.4062 0
z
" id="BitstreamVeraSans-Roman-31"/>
      </defs>
      <g transform="translate(64.6951460799 258.325527669)scale(0.18 -0.18)">
       <use xlink:href="#BitstreamVeraSans-Roman-2d"/>
       <use x="36.083984375" xlink:href="#BitstreamVeraSans-Roman-31"/>
      </g>
     </g>
    </g>
    <g id="xtick_3">
     <g id="line2d_5">
      <g>
       <use style="stroke:#000000;stroke-width:0.5;" x="129.96263591" xlink:href="#m93b0483c22" y="240.648340169"/>
      </g>
     </g>
    </g>
    <g id="xtick_4">
     <g id="line2d_6">
      <g>
       <use style="stroke:#000000;stroke-width:0.5;" x="187.52809449" xlink:href="#m93b0483c22" y="240.648340169"/>
      </g>
     </g>
     <g id="text_3">
      <!-- 1 -->
      <g transform="translate(183.62153199 258.325527669)scale(0.18 -0.18)">
       <use xlink:href="#BitstreamVeraSans-Roman-31"/>
      </g>
     </g>
    </g>
    <g id="xtick_5">
     <g id="line2d_7">
      <g>
       <use style="stroke:#000000;stroke-width:0.5;" x="245.09355307" xlink:href="#m93b0483c22" y="240.648340169"/>
      </g>
     </g>
     <g id="text_4">
      <!-- 2 -->
      <g transform="translate(240.92824057 258.325527669)scale(0.18 -0.18)">
       <use xlink:href="#BitstreamVeraSans-Roman-32"/>
      </g>
     </g>
    </g>
    <g id="text_5">
     <!-- $x$ -->
     <defs>
      <path d="
M7.8125 2.875
Q9.57812 1.51562 12.7969 1.51562
Q15.9219 1.51562 18.3125 4.51562
Q20.7031 7.51562 21.5781 11.0781
L26.125 28.8125
Q27.2031 33.6406 27.2031 35.4062
Q27.2031 37.8906 25.8125 39.75
Q24.4219 41.6094 21.9219 41.6094
Q18.75 41.6094 15.9688 39.625
Q13.1875 37.6406 11.2812 34.5938
Q9.375 31.5469 8.59375 28.4219
Q8.40625 27.7812 7.8125 27.7812
L6.59375 27.7812
Q5.8125 27.7812 5.8125 28.7188
L5.8125 29
Q6.78125 32.7188 9.125 36.25
Q11.4688 39.7969 14.8594 41.9844
Q18.2656 44.1875 22.125 44.1875
Q25.7812 44.1875 28.7344 42.2344
Q31.6875 40.2812 32.9062 36.9219
Q34.625 39.9844 37.2812 42.0781
Q39.9375 44.1875 43.1094 44.1875
Q45.2656 44.1875 47.5 43.4219
Q49.75 42.6719 51.1719 41.1094
Q52.5938 39.5469 52.5938 37.2031
Q52.5938 34.6719 50.9531 32.8281
Q49.3125 31 46.7812 31
Q45.1719 31 44.0938 32.0312
Q43.0156 33.0625 43.0156 34.625
Q43.0156 36.7188 44.4531 38.2969
Q45.9062 39.8906 47.9062 40.1875
Q46.0938 41.6094 42.9219 41.6094
Q39.7031 41.6094 37.3281 38.625
Q34.9688 35.6406 33.9844 31.9844
L29.5938 14.3125
Q28.5156 10.2969 28.5156 7.71875
Q28.5156 5.17188 29.9531 3.34375
Q31.3906 1.51562 33.7969 1.51562
Q38.4844 1.51562 42.1562 5.64062
Q45.8438 9.76562 47.0156 14.7031
Q47.2188 15.2812 47.7969 15.2812
L49.0312 15.2812
Q49.4219 15.2812 49.6562 15.0156
Q49.9062 14.75 49.9062 14.4062
Q49.9062 14.3125 49.8125 14.1094
Q48.3906 8.15625 43.8438 3.51562
Q39.3125 -1.125 33.5938 -1.125
Q29.9375 -1.125 26.9844 0.84375
Q24.0312 2.82812 22.7969 6.20312
Q21.2344 3.26562 18.4688 1.0625
Q15.7188 -1.125 12.5938 -1.125
Q10.4531 -1.125 8.17188 -0.359375
Q5.90625 0.390625 4.48438 1.95312
Q3.07812 3.51562 3.07812 5.90625
Q3.07812 8.25 4.70312 10.1719
Q6.34375 12.1094 8.79688 12.1094
Q10.4531 12.1094 11.5781 11.1094
Q12.7031 10.1094 12.7031 8.5
Q12.7031 6.39062 11.2969 4.82812
Q9.90625 3.26562 7.8125 2.875" id="Cmmi10-78"/>
     </defs>
     <g transform="translate(257.698789756 240.648340169)scale(0.18 -0.18)">
      <use transform="translate(0.0 0.8125)" xlink:href="#Cmmi10-78"/>
     </g>
    </g>
   </g>
   <g id="matplotlib.axis_2">
    <g id="ytick_1">
     <g id="line2d_8">
      <defs>
       <path d="
M0 0
L4 0" id="m728421d6d4" style="stroke:#000000;stroke-width:0.5;"/>
      </defs>
      <g>
       <use style="stroke:#000000;stroke-width:0.5;" x="129.96263591" xlink:href="#m728421d6d4" y="261.003302515"/>
      </g>
     </g>
     <g id="text_6">
      <!-- -1 -->
      <g transform="translate(110.55857341 265.970177515)scale(0.18 -0.18)">
       <use xlink:href="#BitstreamVeraSans-Roman-2d"/>
       <use x="36.083984375" xlink:href="#BitstreamVeraSans-Roman-31"/>
      </g>
     </g>
    </g>
    <g id="ytick_2">
     <g id="line2d_9">
      <g>
       <use style="stroke:#000000;stroke-width:0.5;" x="129.96263591" xlink:href="#m728421d6d4" y="138.873528443"/>
      </g>
     </g>
     <g id="text_7">
      <!-- 5 -->
      <defs>
       <path d="
M10.7969 72.9062
L49.5156 72.9062
L49.5156 64.5938
L19.8281 64.5938
L19.8281 46.7344
Q21.9688 47.4688 24.1094 47.8281
Q26.2656 48.1875 28.4219 48.1875
Q40.625 48.1875 47.75 41.5
Q54.8906 34.8125 54.8906 23.3906
Q54.8906 11.625 47.5625 5.09375
Q40.2344 -1.42188 26.9062 -1.42188
Q22.3125 -1.42188 17.5469 -0.640625
Q12.7969 0.140625 7.71875 1.70312
L7.71875 11.625
Q12.1094 9.23438 16.7969 8.0625
Q21.4844 6.89062 26.7031 6.89062
Q35.1562 6.89062 40.0781 11.3281
Q45.0156 15.7656 45.0156 23.3906
Q45.0156 31 40.0781 35.4375
Q35.1562 39.8906 26.7031 39.8906
Q22.75 39.8906 18.8125 39.0156
Q14.8906 38.1406 10.7969 36.2812
z
" id="BitstreamVeraSans-Roman-35"/>
      </defs>
      <g transform="translate(117.47169841 143.840403443)scale(0.18 -0.18)">
       <use xlink:href="#BitstreamVeraSans-Roman-35"/>
      </g>
     </g>
    </g>
    <g id="ytick_3">
     <g id="line2d_10">
      <g>
       <use style="stroke:#000000;stroke-width:0.5;" x="129.96263591" xlink:href="#m728421d6d4" y="37.098716716"/>
      </g>
     </g>
     <g id="text_8">
      <!-- 10 -->
      <defs>
       <path d="
M31.7812 66.4062
Q24.1719 66.4062 20.3281 58.9062
Q16.5 51.4219 16.5 36.375
Q16.5 21.3906 20.3281 13.8906
Q24.1719 6.39062 31.7812 6.39062
Q39.4531 6.39062 43.2812 13.8906
Q47.125 21.3906 47.125 36.375
Q47.125 51.4219 43.2812 58.9062
Q39.4531 66.4062 31.7812 66.4062
M31.7812 74.2188
Q44.0469 74.2188 50.5156 64.5156
Q56.9844 54.8281 56.9844 36.375
Q56.9844 17.9688 50.5156 8.26562
Q44.0469 -1.42188 31.7812 -1.42188
Q19.5312 -1.42188 13.0625 8.26562
Q6.59375 17.9688 6.59375 36.375
Q6.59375 54.8281 13.0625 64.5156
Q19.5312 74.2188 31.7812 74.2188" id="BitstreamVeraSans-Roman-30"/>
      </defs>
      <g transform="translate(106.23013591 42.065591716)scale(0.18 -0.18)">
       <use xlink:href="#BitstreamVeraSans-Roman-31"/>
       <use x="63.623046875" xlink:href="#BitstreamVeraSans-Roman-30"/>
      </g>
     </g>
    </g>
    <g id="text_9">
     <!-- $y$ -->
     <defs>
      <path d="
M8.40625 -14.3125
Q10.5 -17.9219 15.7188 -17.9219
Q20.4531 -17.9219 23.9219 -14.5938
Q27.3906 -11.2812 29.5156 -6.5625
Q31.6406 -1.85938 32.8125 3.07812
Q28.375 -1.125 23.1875 -1.125
Q19.2344 -1.125 16.4531 0.234375
Q13.6719 1.60938 12.125 4.3125
Q10.5938 7.03125 10.5938 10.8906
Q10.5938 14.1562 11.4688 17.5938
Q12.3594 21.0469 13.9375 25.2656
Q15.5312 29.5 16.7031 32.625
Q18.0156 36.2812 18.0156 38.625
Q18.0156 41.6094 15.8281 41.6094
Q11.8594 41.6094 9.29688 37.5312
Q6.73438 33.4531 5.51562 28.4219
Q5.32812 27.7812 4.6875 27.7812
L3.51562 27.7812
Q2.6875 27.7812 2.6875 28.7188
L2.6875 29
Q4.29688 34.9688 7.60938 39.5781
Q10.9375 44.1875 16.0156 44.1875
Q19.5781 44.1875 22.0469 41.8438
Q24.5156 39.5 24.5156 35.8906
Q24.5156 34.0312 23.6875 31.9844
Q23.25 30.7656 21.6875 26.6562
Q20.125 22.5625 19.2812 19.875
Q18.4531 17.1875 17.9219 14.5938
Q17.3906 12.0156 17.3906 9.42188
Q17.3906 6.10938 18.7969 3.8125
Q20.2188 1.51562 23.2969 1.51562
Q29.5 1.51562 34.4219 9.07812
L42 39.8906
Q42.3281 41.2188 43.5469 42.1562
Q44.7812 43.1094 46.1875 43.1094
Q47.4062 43.1094 48.3125 42.3281
Q49.2188 41.5469 49.2188 40.2812
Q49.2188 39.7031 49.125 39.5
L39.2031 -0.296875
Q37.8906 -5.42188 34.375 -10.1094
Q30.8594 -14.7969 25.9062 -17.6562
Q20.9531 -20.5156 15.5781 -20.5156
Q12.9844 -20.5156 10.4375 -19.5
Q7.90625 -18.5 6.34375 -16.5
Q4.78125 -14.5 4.78125 -11.8125
Q4.78125 -9.07812 6.39062 -7.07812
Q8.01562 -5.07812 10.6875 -5.07812
Q12.3125 -5.07812 13.4062 -6.07812
Q14.5 -7.07812 14.5 -8.6875
Q14.5 -10.9844 12.7812 -12.6875
Q11.0781 -14.4062 8.79688 -14.4062
Q8.6875 -14.3594 8.59375 -14.3281
Q8.5 -14.3125 8.40625 -14.3125" id="Cmmi10-79"/>
     </defs>
     <g transform="translate(125.46263591 20.840625)scale(0.18 -0.18)">
      <use transform="translate(0.0 0.8125)" xlink:href="#Cmmi10-79"/>
     </g>
    </g>
   </g>
   <g id="patch_3">
    <path d="
M10.2265 240.648
L249.699 240.648" style="fill:none;stroke:#000000;stroke-width:0.8;"/>
   </g>
   <g id="patch_4">
    <path d="
M129.963 265.481
L129.963 32.6206" style="fill:none;stroke:#000000;stroke-width:0.8;"/>
   </g>
  </g>
 </g>
 <defs>
  <clipPath id="pe647511517">
   <rect height="232.860769231" width="239.472307692" x="10.2264820636" y="32.620625"/>
  </clipPath>
 </defs>
</svg>
