<?xml version="1.0" encoding="utf-8" standalone="no"?>
<!DOCTYPE svg PUBLIC "-//W3C//DTD SVG 1.1//EN"
  "http://www.w3.org/Graphics/SVG/1.1/DTD/svg11.dtd">
<!-- Created with matplotlib (http://matplotlib.org/) -->
<svg height="272pt" version="1.1" viewBox="0 0 419 272" width="419pt" xmlns="http://www.w3.org/2000/svg" xmlns:xlink="http://www.w3.org/1999/xlink">
 <defs>
  <style type="text/css">
*{stroke-linecap:butt;stroke-linejoin:round;}
  </style>
 </defs>
 <g id="figure_1">
  <g id="patch_1">
   <path d="
M0 272.896
L419.91 272.896
L419.91 0
L0 0
z
" style="fill:#ffffff;"/>
  </g>
  <g id="axes_1">
   <g id="patch_2">
    <path d="
M54.1257 251.923
L351.79 251.923
L351.79 33.38
L54.1257 33.38
z
" style="fill:#ffffff;"/>
   </g>
   <g id="patch_3">
    <path clip-path="url(#pee1c470ffa)" d="
M59.85 244.275
L59.85 244.275
L60.5556 243.511
L60.9119 243.125
L61.3869 242.61
L61.7063 242.264
L62.3386 241.579
L62.5505 241.35
L63.4311 240.396
L63.7037 240.1
L64.2643 239.493
L64.881 238.825
L65.1347 238.55
L65.7714 237.861
L66.2216 237.373
L66.6131 236.949
L66.9249 236.611
L67.3528 236.148
L68.161 235.272
L68.6346 234.759
L68.7227 234.664
L69.532 233.787
L69.8515 233.441
L70.3395 232.912
L70.8742 232.333
L71.4714 231.686
L71.9352 231.184
L72.2959 230.793
L72.8324 230.212
L73.4567 229.536
L73.6185 229.36
L74.2498 228.677
L74.5581 228.343
L75.2324 227.612
L75.6665 227.142
L75.9981 226.783
L76.4433 226.301
L77.0812 225.61
L77.7041 224.935
L78.1058 224.5
L78.351 224.234
L78.8044 223.743
L79.4525 223.041
L80.1842 222.248
L80.6427 221.752
L81.0408 221.32
L81.4097 220.921
L81.7484 220.554
L82.2789 219.979
L83.0906 219.1
L83.3418 218.828
L83.7781 218.355
L84.2148 217.882
L84.826 217.22
L85.0388 216.99
L85.9167 216.039
L86.2919 215.632
L86.5609 215.341
L87.1611 214.691
L87.6132 214.201
L88.3233 213.432
L88.5027 213.237
L89.0959 212.595
L89.8024 211.83
L90.1997 211.399
L90.3578 211.228
L90.9218 210.617
L91.5651 209.92
L92.1118 209.328
L92.6503 208.745
L92.8912 208.484
L93.4135 207.918
L94.0294 207.251
L94.5493 206.688
L94.6558 206.572
L95.3878 205.779
L95.9494 205.171
L96.4492 204.63
L96.8925 204.149
L97.2613 203.75
L97.7945 203.172
L98.2862 202.64
L98.7506 202.137
L99.2584 201.587
L99.6792 201.131
L100.17 200.599
L100.515 200.225
L100.96 199.744
L101.596 199.055
L101.925 198.697
L102.656 197.906
L102.963 197.574
L103.594 196.89
L104.181 196.254
L104.44 195.974
L104.716 195.674
L105.22 195.128
L106.054 194.225
L106.588 193.646
L106.941 193.264
L107.235 192.946
L107.648 192.498
L108.12 191.988
L108.68 191.381
L109.211 190.805
L109.942 190.014
L110.061 189.884
L110.848 189.032
L110.976 188.893
L111.711 188.098
L112.3 187.459
L112.44 187.308
L113.226 186.457
L113.399 186.269
L113.789 185.846
L114.455 185.125
L114.984 184.552
L115.566 183.922
L116.055 183.392
L116.195 183.24
L116.869 182.51
L117.399 181.936
L118.062 181.218
L118.392 180.86
L118.674 180.555
L119.471 179.692
L119.759 179.38
L120.038 179.078
L120.796 178.256
L121.388 177.615
L121.828 177.138
L121.968 176.987
L122.845 176.036
L122.981 175.89
L123.572 175.249
L123.876 174.92
L124.443 174.306
L125.017 173.684
L125.691 172.954
L126.019 172.599
L126.535 172.039
L126.958 171.581
L127.6 170.886
L128.05 170.398
L128.225 170.209
L128.884 169.495
L129.563 168.76
L129.72 168.589
L130.374 167.881
L130.769 167.453
L131.254 166.928
L131.69 166.456
L132.352 165.738
L132.608 165.462
L133.348 164.66
L133.784 164.187
L134.261 163.671
L134.655 163.243
L135.17 162.686
L135.501 162.327
L136.012 161.773
L136.79 160.931
L137.214 160.472
L137.302 160.376
L137.996 159.624
L138.421 159.164
L138.766 158.79
L139.311 158.2
L139.969 157.487
L140.55 156.858
L140.901 156.477
L141.151 156.207
L141.721 155.59
L142.505 154.74
L142.553 154.689
L143.481 153.684
L143.777 153.363
L144.265 152.834
L144.476 152.605
L145.009 152.028
L145.842 151.125
L145.965 150.992
L146.41 150.51
L147.146 149.713
L147.647 149.17
L148.028 148.758
L148.411 148.343
L148.956 147.752
L149.563 147.095
L149.789 146.85
L150.329 146.266
L151.148 145.379
L151.552 144.94
L152.015 144.438
L152.472 143.943
L153.008 143.363
L153.327 143.018
L153.717 142.595
L154.311 141.952
L154.625 141.612
L155.255 140.929
L155.255 244.275
z
" style="fill:#808080;opacity:0.5;"/>
   </g>
   <g id="patch_4">
    <path clip-path="url(#pee1c470ffa)" d="
M155.255 244.275
L155.255 140.929
L155.599 140.929
L156.232 140.929
L156.926 140.929
L157.116 140.929
L157.466 140.929
L158.235 140.929
L158.475 140.929
L158.943 140.929
L159.434 140.929
L159.928 140.929
L160.419 140.929
L161.098 140.929
L161.319 140.929
L161.739 140.929
L162.213 140.929
L162.798 140.929
L163.297 140.929
L163.684 140.929
L164.414 140.929
L165.056 140.929
L165.481 140.929
L165.704 140.929
L166.356 140.929
L166.77 140.929
L167.35 140.929
L167.761 140.929
L168.347 140.929
L168.548 140.929
L169.078 140.929
L169.483 140.929
L170.158 140.929
L170.816 140.929
L171.101 140.929
L171.478 140.929
L172.128 140.929
L172.692 140.929
L173.027 140.929
L173.395 140.929
L174.127 140.929
L174.621 140.929
L175.045 140.929
L175.578 140.929
L175.936 140.929
L176.51 140.929
L176.939 140.929
L177.506 140.929
L177.949 140.929
L178.335 140.929
L178.543 140.929
L179.011 140.929
L179.501 140.929
L180.263 140.929
L180.656 140.929
L181.316 140.929
L181.393 140.929
L181.942 140.929
L182.364 140.929
L182.98 140.929
L183.457 140.929
L183.993 140.929
L184.566 140.929
L185.152 140.929
L185.607 140.929
L185.965 140.929
L186.195 140.929
L186.873 140.929
L187.226 140.929
L188.053 140.929
L188.529 140.929
L188.583 140.929
L189.233 140.929
L189.927 140.929
L190.181 140.929
L190.654 140.929
L191.105 140.929
L191.681 140.929
L192.142 140.929
L192.537 140.929
L192.901 140.929
L193.825 140.929
L194.086 140.929
L194.358 140.929
L194.841 140.929
L195.703 140.929
L195.77 140.929
L196.576 140.929
L197.15 140.929
L197.325 140.929
L197.998 140.929
L198.215 140.929
L198.813 140.929
L199.444 140.929
L200.06 140.929
L200.436 140.929
L200.911 140.929
L201.307 140.929
L201.647 140.929
L202.338 140.929
L202.619 140.929
L203.284 140.929
L203.787 140.929
L204.355 140.929
L204.529 140.929
L205.309 140.929
L205.774 140.929
L206.211 140.929
L206.769 140.929
L207.13 140.929
L207.407 140.929
L207.916 140.929
L208.49 140.929
L208.962 140.929
L209.337 140.929
L209.897 140.929
L210.592 140.929
L210.961 140.929
L211.462 140.929
L211.604 140.929
L212.362 140.929
L212.921 140.929
L213.423 140.929
L213.769 140.929
L214.005 140.929
L214.855 140.929
L215.204 140.929
L215.483 140.929
L216.327 140.929
L216.627 140.929
L217.153 140.929
L217.761 140.929
L218.176 140.929
L218.442 140.929
L218.975 140.929
L219.679 140.929
L219.797 140.929
L220.364 140.929
L220.889 140.929
L221.562 140.929
L222.016 140.929
L222.32 140.929
L222.809 140.929
L223.407 140.929
L223.904 140.929
L224.201 140.929
L224.92 140.929
L225.31 140.929
L225.673 140.929
L226.075 140.929
L226.508 140.929
L227.098 140.929
L227.429 140.929
L228.308 140.929
L228.676 140.929
L229.171 140.929
L229.636 140.929
L230.062 140.929
L230.378 140.929
L231.231 140.929
L231.444 140.929
L231.749 140.929
L232.68 140.929
L233.082 140.929
L233.216 140.929
L233.71 140.929
L234.239 140.929
L234.862 140.929
L235.3 140.929
L235.801 140.929
L236.452 140.929
L236.535 140.929
L237.052 140.929
L237.575 140.929
L238.022 140.929
L238.536 140.929
L239.047 140.929
L239.51 140.929
L240.241 140.929
L240.668 140.929
L241.113 140.929
L241.645 140.929
L242.184 140.929
L242.583 140.929
L243.06 140.929
L243.582 140.929
L243.998 140.929
L244.379 140.929
L244.922 140.929
L245.217 140.929
L246.08 140.929
L246.209 140.929
L246.772 140.929
L247.101 140.929
L247.701 140.929
L248.097 140.929
L248.651 140.929
L249.359 140.929
L249.718 140.929
L250.22 140.929
L250.661 140.929
L250.661 244.275
z
" style="fill:#008000;opacity:0.5;"/>
   </g>
   <g id="patch_5">
    <path clip-path="url(#pee1c470ffa)" d="
M250.661 244.275
L250.661 140.929
L251.01 140.55
L251.437 140.088
L251.938 139.545
L252.793 138.619
L253.054 138.336
L253.658 137.682
L253.802 137.526
L254.662 136.595
L254.778 136.469
L255.446 135.745
L256.153 134.979
L256.271 134.852
L256.951 134.115
L257.608 133.403
L257.805 133.19
L258.212 132.749
L259 131.895
L259.473 131.383
L259.811 131.016
L260.261 130.529
L260.811 129.934
L261.062 129.662
L261.565 129.117
L262.268 128.355
L262.836 127.74
L262.895 127.677
L263.613 126.898
L264.164 126.302
L264.358 126.092
L264.972 125.427
L265.495 124.86
L266.091 124.214
L266.544 123.724
L267.021 123.207
L267.662 122.513
L268.081 122.059
L268.305 121.816
L268.644 121.449
L269.558 120.459
L269.701 120.304
L270.436 119.507
L270.835 119.075
L271.426 118.435
L271.845 117.981
L272.164 117.636
L272.91 116.827
L273.404 116.292
L273.887 115.769
L274.384 115.231
L274.534 115.068
L274.95 114.618
L275.455 114.071
L275.859 113.633
L276.48 112.961
L277.055 112.337
L277.722 111.615
L278.106 111.199
L278.632 110.63
L278.795 110.452
L279.52 109.667
L279.914 109.241
L280.492 108.614
L281.055 108.005
L281.389 107.643
L281.95 107.035
L282.366 106.585
L282.575 106.358
L283.353 105.515
L283.906 104.917
L284.027 104.785
L284.611 104.153
L285.269 103.44
L285.668 103.008
L286.284 102.341
L286.51 102.096
L286.952 101.617
L287.464 101.062
L288.154 100.315
L288.367 100.084
L288.822 99.5914
L289.596 98.7529
L290.075 98.2334
L290.635 97.627
L291 97.2322
L291.436 96.7599
L291.983 96.1672
L292.235 95.8943
L292.971 95.0966
L293.176 94.8752
L293.616 94.3977
L294.15 93.8194
L294.842 93.0701
L295.278 92.5975
L295.583 92.2676
L296.053 91.758
L296.582 91.1856
L297.34 90.3639
L297.79 89.8767
L297.988 89.6628
L298.799 88.7836
L298.854 88.7241
L299.601 87.9145
L300.068 87.4093
L300.713 86.71
L301.149 86.2384
L301.329 86.0431
L301.924 85.3989
L302.239 85.0578
L302.695 84.5636
L303.624 83.5567
L303.979 83.1722
L304.545 82.5592
L304.676 82.4181
L305.227 81.8206
L305.823 81.1748
L306.204 80.7619
L306.938 79.9675
L307.34 79.5315
L307.718 79.1226
L308.118 78.6888
L308.697 78.0616
L309.307 77.4008
L309.653 77.0261
L310.05 76.5968
L310.367 76.2525
L310.853 75.7268
L311.504 75.0216
L312.202 74.2656
L312.532 73.9076
L313.079 73.3153
L313.351 73.0206
L313.788 72.5472
L314.232 72.0666
L314.828 71.4207
L315.568 70.6196
L315.651 70.5289
L316.574 69.5297
L316.797 69.2878
L317.292 68.7513
L317.772 68.2315
L318.022 67.9613
L318.786 67.1331
L319.431 66.4345
L319.601 66.2501
L320.103 65.7062
L320.538 65.2357
L321.135 64.5888
L321.476 64.219
L322.286 63.3418
L322.626 62.9738
L323.241 62.3076
L323.704 61.8058
L324.228 61.2378
L324.465 60.9818
L324.739 60.6845
L325.479 59.8835
L325.841 59.4907
L326.563 58.7085
L326.737 58.5205
L327.22 57.9972
L327.698 57.4792
L328.284 56.8448
L328.856 56.2256
L329.206 55.8464
L329.689 55.3231
L330.315 54.6452
L330.636 54.2969
L331.033 53.8668
L331.826 53.0078
L332.184 52.6201
L332.742 52.0159
L332.904 51.8406
L333.692 50.9866
L334.167 50.4725
L334.524 50.0852
L334.886 49.6927
L335.554 48.9691
L335.964 48.5255
L336.646 47.7865
L337.18 47.2078
L337.2 47.1865
L337.972 46.3503
L338.616 45.6533
L338.663 45.6013
L339.399 44.8041
L339.82 44.3486
L340.082 44.065
L340.999 43.0719
L341.386 42.6523
L341.983 42.0058
L342.405 41.548
L342.91 41.0018
L343.091 40.805
L343.501 40.3615
L344.129 39.6811
L344.412 39.3745
L345.297 38.4153
L345.682 37.9987
L346.066 37.5827
L346.066 244.275
z
" style="fill:#a52a2a;opacity:0.5;"/>
   </g>
   <g id="line2d_1">
    <path clip-path="url(#pee1c470ffa)" d="
M59.85 244.275
L155.255 140.929
L155.255 140.929" style="fill:none;stroke:#0000ff;stroke-linecap:square;stroke-width:2.0;"/>
   </g>
   <g id="line2d_2">
    <path clip-path="url(#pee1c470ffa)" d="
M155.255 140.929
L250.661 140.929
L250.661 140.929" style="fill:none;stroke:#0000ff;stroke-linecap:square;stroke-width:2.0;"/>
   </g>
   <g id="line2d_3">
    <path clip-path="url(#pee1c470ffa)" d="
M250.661 140.929
L346.066 37.5827
L346.066 37.5827" style="fill:none;stroke:#0000ff;stroke-linecap:square;stroke-width:2.0;"/>
   </g>
   <g id="matplotlib.axis_1">
    <g id="xtick_1">
     <g id="line2d_4">
      <path d="
M107.553 251.923
L107.553 33.38" style="fill:none;stroke:#000000;stroke-dasharray:1.000000,3.000000;stroke-dashoffset:0.0;stroke-width:0.5;"/>
     </g>
     <g id="line2d_5">
      <defs>
       <path d="
M0 0
L0 -4" id="m93b0483c22" style="stroke:#000000;stroke-width:0.5;"/>
      </defs>
      <g>
       <use style="stroke:#000000;stroke-width:0.5;" x="107.552653091" xlink:href="#m93b0483c22" y="244.274936082"/>
      </g>
     </g>
     <g id="text_1">
      <!-- 1 -->
      <defs>
       <path d="
M12.4062 8.29688
L28.5156 8.29688
L28.5156 63.9219
L10.9844 60.4062
L10.9844 69.3906
L28.4219 72.9062
L38.2812 72.9062
L38.2812 8.29688
L54.3906 8.29688
L54.3906 0
L12.4062 0
z
" id="BitstreamVeraSans-Roman-31"/>
      </defs>
      <g transform="translate(103.646090591 261.952123582)scale(0.18 -0.18)">
       <use xlink:href="#BitstreamVeraSans-Roman-31"/>
      </g>
     </g>
    </g>
    <g id="xtick_2">
     <g id="line2d_6">
      <path d="
M155.255 251.923
L155.255 33.38" style="fill:none;stroke:#000000;stroke-dasharray:1.000000,3.000000;stroke-dashoffset:0.0;stroke-width:0.5;"/>
     </g>
     <g id="line2d_7">
      <g>
       <use style="stroke:#000000;stroke-width:0.5;" x="155.255306182" xlink:href="#m93b0483c22" y="244.274936082"/>
      </g>
     </g>
     <g id="text_2">
      <!-- 2 -->
      <defs>
       <path d="
M19.1875 8.29688
L53.6094 8.29688
L53.6094 0
L7.32812 0
L7.32812 8.29688
Q12.9375 14.1094 22.625 23.8906
Q32.3281 33.6875 34.8125 36.5312
Q39.5469 41.8438 41.4219 45.5312
Q43.3125 49.2188 43.3125 52.7812
Q43.3125 58.5938 39.2344 62.25
Q35.1562 65.9219 28.6094 65.9219
Q23.9688 65.9219 18.8125 64.3125
Q13.6719 62.7031 7.8125 59.4219
L7.8125 69.3906
Q13.7656 71.7812 18.9375 73
Q24.125 74.2188 28.4219 74.2188
Q39.75 74.2188 46.4844 68.5469
Q53.2188 62.8906 53.2188 53.4219
Q53.2188 48.9219 51.5312 44.8906
Q49.8594 40.875 45.4062 35.4062
Q44.1875 33.9844 37.6406 27.2188
Q31.1094 20.4531 19.1875 8.29688" id="BitstreamVeraSans-Roman-32"/>
      </defs>
      <g transform="translate(151.089993682 261.952123582)scale(0.18 -0.18)">
       <use xlink:href="#BitstreamVeraSans-Roman-32"/>
      </g>
     </g>
    </g>
    <g id="xtick_3">
     <g id="line2d_8">
      <path d="
M202.958 251.923
L202.958 33.38" style="fill:none;stroke:#000000;stroke-dasharray:1.000000,3.000000;stroke-dashoffset:0.0;stroke-width:0.5;"/>
     </g>
     <g id="line2d_9">
      <g>
       <use style="stroke:#000000;stroke-width:0.5;" x="202.957959273" xlink:href="#m93b0483c22" y="244.274936082"/>
      </g>
     </g>
     <g id="text_3">
      <!-- 3 -->
      <defs>
       <path d="
M40.5781 39.3125
Q47.6562 37.7969 51.625 33
Q55.6094 28.2188 55.6094 21.1875
Q55.6094 10.4062 48.1875 4.48438
Q40.7656 -1.42188 27.0938 -1.42188
Q22.5156 -1.42188 17.6562 -0.515625
Q12.7969 0.390625 7.625 2.20312
L7.625 11.7188
Q11.7188 9.32812 16.5938 8.10938
Q21.4844 6.89062 26.8125 6.89062
Q36.0781 6.89062 40.9375 10.5469
Q45.7969 14.2031 45.7969 21.1875
Q45.7969 27.6406 41.2812 31.2656
Q36.7656 34.9062 28.7188 34.9062
L20.2188 34.9062
L20.2188 43.0156
L29.1094 43.0156
Q36.375 43.0156 40.2344 45.9219
Q44.0938 48.8281 44.0938 54.2969
Q44.0938 59.9062 40.1094 62.9062
Q36.1406 65.9219 28.7188 65.9219
Q24.6562 65.9219 20.0156 65.0312
Q15.375 64.1562 9.8125 62.3125
L9.8125 71.0938
Q15.4375 72.6562 20.3438 73.4375
Q25.25 74.2188 29.5938 74.2188
Q40.8281 74.2188 47.3594 69.1094
Q53.9062 64.0156 53.9062 55.3281
Q53.9062 49.2656 50.4375 45.0938
Q46.9688 40.9219 40.5781 39.3125" id="BitstreamVeraSans-Roman-33"/>
      </defs>
      <g transform="translate(198.639365523 261.952123582)scale(0.18 -0.18)">
       <use xlink:href="#BitstreamVeraSans-Roman-33"/>
      </g>
     </g>
    </g>
    <g id="xtick_4">
     <g id="line2d_10">
      <path d="
M250.661 251.923
L250.661 33.38" style="fill:none;stroke:#000000;stroke-dasharray:1.000000,3.000000;stroke-dashoffset:0.0;stroke-width:0.5;"/>
     </g>
     <g id="line2d_11">
      <g>
       <use style="stroke:#000000;stroke-width:0.5;" x="250.660612364" xlink:href="#m93b0483c22" y="244.274936082"/>
      </g>
     </g>
     <g id="text_4">
      <!-- 4 -->
      <defs>
       <path d="
M37.7969 64.3125
L12.8906 25.3906
L37.7969 25.3906
z

M35.2031 72.9062
L47.6094 72.9062
L47.6094 25.3906
L58.0156 25.3906
L58.0156 17.1875
L47.6094 17.1875
L47.6094 0
L37.7969 0
L37.7969 17.1875
L4.89062 17.1875
L4.89062 26.7031
z
" id="BitstreamVeraSans-Roman-34"/>
      </defs>
      <g transform="translate(245.879362364 261.952123582)scale(0.18 -0.18)">
       <use xlink:href="#BitstreamVeraSans-Roman-34"/>
      </g>
     </g>
    </g>
    <g id="xtick_5">
     <g id="line2d_12">
      <path d="
M298.363 251.923
L298.363 33.38" style="fill:none;stroke:#000000;stroke-dasharray:1.000000,3.000000;stroke-dashoffset:0.0;stroke-width:0.5;"/>
     </g>
     <g id="line2d_13">
      <g>
       <use style="stroke:#000000;stroke-width:0.5;" x="298.363265455" xlink:href="#m93b0483c22" y="244.274936082"/>
      </g>
     </g>
     <g id="text_5">
      <!-- 5 -->
      <defs>
       <path d="
M10.7969 72.9062
L49.5156 72.9062
L49.5156 64.5938
L19.8281 64.5938
L19.8281 46.7344
Q21.9688 47.4688 24.1094 47.8281
Q26.2656 48.1875 28.4219 48.1875
Q40.625 48.1875 47.75 41.5
Q54.8906 34.8125 54.8906 23.3906
Q54.8906 11.625 47.5625 5.09375
Q40.2344 -1.42188 26.9062 -1.42188
Q22.3125 -1.42188 17.5469 -0.640625
Q12.7969 0.140625 7.71875 1.70312
L7.71875 11.625
Q12.1094 9.23438 16.7969 8.0625
Q21.4844 6.89062 26.7031 6.89062
Q35.1562 6.89062 40.0781 11.3281
Q45.0156 15.7656 45.0156 23.3906
Q45.0156 31 40.0781 35.4375
Q35.1562 39.8906 26.7031 39.8906
Q22.75 39.8906 18.8125 39.0156
Q14.8906 38.1406 10.7969 36.2812
z
" id="BitstreamVeraSans-Roman-35"/>
      </defs>
      <g transform="translate(294.117796705 261.952123582)scale(0.18 -0.18)">
       <use xlink:href="#BitstreamVeraSans-Roman-35"/>
      </g>
     </g>
    </g>
    <g id="xtick_6">
     <g id="line2d_14">
      <path d="
M346.066 251.923
L346.066 33.38" style="fill:none;stroke:#000000;stroke-dasharray:1.000000,3.000000;stroke-dashoffset:0.0;stroke-width:0.5;"/>
     </g>
     <g id="line2d_15">
      <g>
       <use style="stroke:#000000;stroke-width:0.5;" x="346.065918547" xlink:href="#m93b0483c22" y="244.274936082"/>
      </g>
     </g>
     <g id="text_6">
      <!-- 6 -->
      <defs>
       <path d="
M33.0156 40.375
Q26.375 40.375 22.4844 35.8281
Q18.6094 31.2969 18.6094 23.3906
Q18.6094 15.5312 22.4844 10.9531
Q26.375 6.39062 33.0156 6.39062
Q39.6562 6.39062 43.5312 10.9531
Q47.4062 15.5312 47.4062 23.3906
Q47.4062 31.2969 43.5312 35.8281
Q39.6562 40.375 33.0156 40.375
M52.5938 71.2969
L52.5938 62.3125
Q48.875 64.0625 45.0938 64.9844
Q41.3125 65.9219 37.5938 65.9219
Q27.8281 65.9219 22.6719 59.3281
Q17.5312 52.7344 16.7969 39.4062
Q19.6719 43.6562 24.0156 45.9219
Q28.375 48.1875 33.5938 48.1875
Q44.5781 48.1875 50.9531 41.5156
Q57.3281 34.8594 57.3281 23.3906
Q57.3281 12.1562 50.6875 5.35938
Q44.0469 -1.42188 33.0156 -1.42188
Q20.3594 -1.42188 13.6719 8.26562
Q6.98438 17.9688 6.98438 36.375
Q6.98438 53.6562 15.1875 63.9375
Q23.3906 74.2188 37.2031 74.2188
Q40.9219 74.2188 44.7031 73.4844
Q48.4844 72.75 52.5938 71.2969" id="BitstreamVeraSans-Roman-36"/>
      </defs>
      <g transform="translate(341.534981047 261.952123582)scale(0.18 -0.18)">
       <use xlink:href="#BitstreamVeraSans-Roman-36"/>
      </g>
     </g>
    </g>
    <g id="text_7">
     <!-- time $t$ -->
     <defs>
      <path id="BitstreamVeraSans-Roman-20"/>
      <path d="
M52 44.1875
Q55.375 50.25 60.0625 53.125
Q64.75 56 71.0938 56
Q79.6406 56 84.2812 50.0156
Q88.9219 44.0469 88.9219 33.0156
L88.9219 0
L79.8906 0
L79.8906 32.7188
Q79.8906 40.5781 77.0938 44.375
Q74.3125 48.1875 68.6094 48.1875
Q61.625 48.1875 57.5625 43.5469
Q53.5156 38.9219 53.5156 30.9062
L53.5156 0
L44.4844 0
L44.4844 32.7188
Q44.4844 40.625 41.7031 44.4062
Q38.9219 48.1875 33.1094 48.1875
Q26.2188 48.1875 22.1562 43.5312
Q18.1094 38.875 18.1094 30.9062
L18.1094 0
L9.07812 0
L9.07812 54.6875
L18.1094 54.6875
L18.1094 46.1875
Q21.1875 51.2188 25.4844 53.6094
Q29.7812 56 35.6875 56
Q41.6562 56 45.8281 52.9688
Q50 49.9531 52 44.1875" id="BitstreamVeraSans-Roman-6d"/>
      <path d="
M9.42188 54.6875
L18.4062 54.6875
L18.4062 0
L9.42188 0
z

M9.42188 75.9844
L18.4062 75.9844
L18.4062 64.5938
L9.42188 64.5938
z
" id="BitstreamVeraSans-Roman-69"/>
      <path d="
M6.20312 8.10938
Q6.20312 9.57812 6.5 10.8906
L13.7188 39.5938
L3.21875 39.5938
Q2.20312 39.5938 2.20312 40.9219
Q2.59375 43.1094 3.51562 43.1094
L14.5938 43.1094
L18.6094 59.4219
Q19 60.75 20.1719 61.6719
Q21.3438 62.5938 22.7969 62.5938
Q24.0781 62.5938 24.9219 61.8281
Q25.7812 61.0781 25.7812 59.8125
Q25.7812 59.5156 25.75 59.3438
Q25.7344 59.1875 25.6875 58.9844
L21.6875 43.1094
L31.9844 43.1094
Q33.0156 43.1094 33.0156 41.7969
Q32.9531 41.5469 32.8125 40.9531
Q32.6719 40.375 32.4219 39.9844
Q32.1719 39.5938 31.6875 39.5938
L20.7969 39.5938
L13.625 10.6875
Q12.8906 7.85938 12.8906 5.8125
Q12.8906 1.51562 15.8281 1.51562
Q20.2188 1.51562 23.6094 5.64062
Q27 9.76562 28.8125 14.7031
Q29.2031 15.2812 29.5938 15.2812
L30.8125 15.2812
Q31.2031 15.2812 31.4375 15.0156
Q31.6875 14.75 31.6875 14.4062
Q31.6875 14.2031 31.5938 14.1094
Q29.3906 8.0625 25.1875 3.46875
Q21 -1.125 15.5781 -1.125
Q11.625 -1.125 8.90625 1.45312
Q6.20312 4.04688 6.20312 8.10938" id="Cmmi10-74"/>
      <path d="
M56.2031 29.5938
L56.2031 25.2031
L14.8906 25.2031
Q15.4844 15.9219 20.4844 11.0625
Q25.4844 6.20312 34.4219 6.20312
Q39.5938 6.20312 44.4531 7.46875
Q49.3125 8.73438 54.1094 11.2812
L54.1094 2.78125
Q49.2656 0.734375 44.1875 -0.34375
Q39.1094 -1.42188 33.8906 -1.42188
Q20.7969 -1.42188 13.1562 6.1875
Q5.51562 13.8125 5.51562 26.8125
Q5.51562 40.2344 12.7656 48.1094
Q20.0156 56 32.3281 56
Q43.3594 56 49.7812 48.8906
Q56.2031 41.7969 56.2031 29.5938
M47.2188 32.2344
Q47.125 39.5938 43.0938 43.9844
Q39.0625 48.3906 32.4219 48.3906
Q24.9062 48.3906 20.3906 44.1406
Q15.875 39.8906 15.1875 32.1719
z
" id="BitstreamVeraSans-Roman-65"/>
      <path d="
M18.3125 70.2188
L18.3125 54.6875
L36.8125 54.6875
L36.8125 47.7031
L18.3125 47.7031
L18.3125 18.0156
Q18.3125 11.3281 20.1406 9.42188
Q21.9688 7.51562 27.5938 7.51562
L36.8125 7.51562
L36.8125 0
L27.5938 0
Q17.1875 0 13.2344 3.875
Q9.28125 7.76562 9.28125 18.0156
L9.28125 47.7031
L2.6875 47.7031
L2.6875 54.6875
L9.28125 54.6875
L9.28125 70.2188
z
" id="BitstreamVeraSans-Roman-74"/>
     </defs>
     <g transform="translate(359.790236918 244.274936082)scale(0.18 -0.18)">
      <use transform="translate(0.0 0.015625)" xlink:href="#BitstreamVeraSans-Roman-74"/>
      <use transform="translate(39.208984375 0.015625)" xlink:href="#BitstreamVeraSans-Roman-69"/>
      <use transform="translate(66.9921875 0.015625)" xlink:href="#BitstreamVeraSans-Roman-6d"/>
      <use transform="translate(164.404296875 0.015625)" xlink:href="#BitstreamVeraSans-Roman-65"/>
      <use transform="translate(225.927734375 0.015625)" xlink:href="#BitstreamVeraSans-Roman-20"/>
      <use transform="translate(257.71484375 0.015625)" xlink:href="#Cmmi10-74"/>
     </g>
    </g>
   </g>
   <g id="matplotlib.axis_2">
    <g id="ytick_1">
     <g id="line2d_16">
      <path d="
M54.1257 209.826
L351.79 209.826" style="fill:none;stroke:#000000;stroke-dasharray:1.000000,3.000000;stroke-dashoffset:0.0;stroke-width:0.5;"/>
     </g>
     <g id="line2d_17">
      <defs>
       <path d="
M0 0
L4 0" id="m728421d6d4" style="stroke:#000000;stroke-width:0.5;"/>
      </defs>
      <g>
       <use style="stroke:#000000;stroke-width:0.5;" x="59.85" xlink:href="#m728421d6d4" y="209.82623695"/>
      </g>
     </g>
     <g id="text_8">
      <!-- 10 -->
      <defs>
       <path d="
M31.7812 66.4062
Q24.1719 66.4062 20.3281 58.9062
Q16.5 51.4219 16.5 36.375
Q16.5 21.3906 20.3281 13.8906
Q24.1719 6.39062 31.7812 6.39062
Q39.4531 6.39062 43.2812 13.8906
Q47.125 21.3906 47.125 36.375
Q47.125 51.4219 43.2812 58.9062
Q39.4531 66.4062 31.7812 66.4062
M31.7812 74.2188
Q44.0469 74.2188 50.5156 64.5156
Q56.9844 54.8281 56.9844 36.375
Q56.9844 17.9688 50.5156 8.26562
Q44.0469 -1.42188 31.7812 -1.42188
Q19.5312 -1.42188 13.0625 8.26562
Q6.59375 17.9688 6.59375 36.375
Q6.59375 54.8281 13.0625 64.5156
Q19.5312 74.2188 31.7812 74.2188" id="BitstreamVeraSans-Roman-30"/>
      </defs>
      <g transform="translate(36.1175 214.79311195)scale(0.18 -0.18)">
       <use xlink:href="#BitstreamVeraSans-Roman-31"/>
       <use x="63.623046875" xlink:href="#BitstreamVeraSans-Roman-30"/>
      </g>
     </g>
    </g>
    <g id="ytick_2">
     <g id="line2d_18">
      <path d="
M54.1257 175.378
L351.79 175.378" style="fill:none;stroke:#000000;stroke-dasharray:1.000000,3.000000;stroke-dashoffset:0.0;stroke-width:0.5;"/>
     </g>
     <g id="line2d_19">
      <g>
       <use style="stroke:#000000;stroke-width:0.5;" x="59.85" xlink:href="#m728421d6d4" y="175.377537819"/>
      </g>
     </g>
     <g id="text_9">
      <!-- 20 -->
      <g transform="translate(35.459375 180.344412819)scale(0.18 -0.18)">
       <use xlink:href="#BitstreamVeraSans-Roman-32"/>
       <use x="63.623046875" xlink:href="#BitstreamVeraSans-Roman-30"/>
      </g>
     </g>
    </g>
    <g id="ytick_3">
     <g id="line2d_20">
      <path d="
M54.1257 140.929
L351.79 140.929" style="fill:none;stroke:#000000;stroke-dasharray:1.000000,3.000000;stroke-dashoffset:0.0;stroke-width:0.5;"/>
     </g>
     <g id="line2d_21">
      <g>
       <use style="stroke:#000000;stroke-width:0.5;" x="59.85" xlink:href="#m728421d6d4" y="140.928838688"/>
      </g>
     </g>
     <g id="text_10">
      <!-- 30 -->
      <g transform="translate(35.5128125 145.895713688)scale(0.18 -0.18)">
       <use xlink:href="#BitstreamVeraSans-Roman-33"/>
       <use x="63.623046875" xlink:href="#BitstreamVeraSans-Roman-30"/>
      </g>
     </g>
    </g>
    <g id="ytick_4">
     <g id="line2d_22">
      <path d="
M54.1257 106.48
L351.79 106.48" style="fill:none;stroke:#000000;stroke-dasharray:1.000000,3.000000;stroke-dashoffset:0.0;stroke-width:0.5;"/>
     </g>
     <g id="line2d_23">
      <g>
       <use style="stroke:#000000;stroke-width:0.5;" x="59.85" xlink:href="#m728421d6d4" y="106.480139557"/>
      </g>
     </g>
     <g id="text_11">
      <!-- 40 -->
      <g transform="translate(35.020625 111.447014557)scale(0.18 -0.18)">
       <use xlink:href="#BitstreamVeraSans-Roman-34"/>
       <use x="63.623046875" xlink:href="#BitstreamVeraSans-Roman-30"/>
      </g>
     </g>
    </g>
    <g id="ytick_5">
     <g id="line2d_24">
      <path d="
M54.1257 72.0314
L351.79 72.0314" style="fill:none;stroke:#000000;stroke-dasharray:1.000000,3.000000;stroke-dashoffset:0.0;stroke-width:0.5;"/>
     </g>
     <g id="line2d_25">
      <g>
       <use style="stroke:#000000;stroke-width:0.5;" x="59.85" xlink:href="#m728421d6d4" y="72.0314404253"/>
      </g>
     </g>
     <g id="text_12">
      <!-- 50 -->
      <g transform="translate(35.5296875 76.9983154253)scale(0.18 -0.18)">
       <use xlink:href="#BitstreamVeraSans-Roman-35"/>
       <use x="63.623046875" xlink:href="#BitstreamVeraSans-Roman-30"/>
      </g>
     </g>
    </g>
    <g id="text_13">
     <!-- velocity $v(t)$ -->
     <defs>
      <path d="
M31 -24.8125
Q25.4375 -20.4062 21.4062 -14.7188
Q17.3906 -9.03125 14.8125 -2.57812
Q12.25 3.85938 10.9844 10.8906
Q9.71875 17.9219 9.71875 25
Q9.71875 32.1719 10.9844 39.2031
Q12.25 46.2344 14.8594 52.7344
Q17.4844 59.2344 21.5312 64.8906
Q25.5938 70.5625 31 74.8125
Q31 75 31.5 75
L32.4219 75
Q32.7188 75 32.9531 74.7344
Q33.2031 74.4688 33.2031 74.125
Q33.2031 73.6875 33.0156 73.4844
Q28.125 68.7031 24.875 63.2344
Q21.625 57.7656 19.6406 51.5781
Q17.6719 45.4062 16.7969 38.7812
Q15.9219 32.1719 15.9219 25
Q15.9219 -6.78125 32.9062 -23.2969
Q33.2031 -23.5781 33.2031 -24.125
Q33.2031 -24.3594 32.9375 -24.6719
Q32.6719 -25 32.4219 -25
L31.5 -25
Q31 -25 31 -24.8125" id="Cmr10-28"/>
      <path d="
M6.5 -25
Q5.60938 -25 5.60938 -24.125
Q5.60938 -23.6875 5.8125 -23.4844
Q22.9062 -6.78125 22.9062 25
Q22.9062 56.7812 6 73.2969
Q5.60938 73.5312 5.60938 74.125
Q5.60938 74.4688 5.875 74.7344
Q6.15625 75 6.5 75
L7.42188 75
Q7.71875 75 7.90625 74.8125
Q15.0938 69.1406 19.875 61.0312
Q24.6562 52.9375 26.875 43.75
Q29.1094 34.5781 29.1094 25
Q29.1094 17.9219 27.9062 11.0625
Q26.7031 4.20312 24.0938 -2.45312
Q21.4844 -9.125 17.4844 -14.7656
Q13.4844 -20.4062 7.90625 -24.8125
Q7.71875 -25 7.42188 -25
z
" id="Cmr10-29"/>
      <path d="
M30.6094 48.3906
Q23.3906 48.3906 19.1875 42.75
Q14.9844 37.1094 14.9844 27.2969
Q14.9844 17.4844 19.1562 11.8438
Q23.3438 6.20312 30.6094 6.20312
Q37.7969 6.20312 41.9844 11.8594
Q46.1875 17.5312 46.1875 27.2969
Q46.1875 37.0156 41.9844 42.7031
Q37.7969 48.3906 30.6094 48.3906
M30.6094 56
Q42.3281 56 49.0156 48.375
Q55.7188 40.7656 55.7188 27.2969
Q55.7188 13.875 49.0156 6.21875
Q42.3281 -1.42188 30.6094 -1.42188
Q18.8438 -1.42188 12.1719 6.21875
Q5.51562 13.875 5.51562 27.2969
Q5.51562 40.7656 12.1719 48.375
Q18.8438 56 30.6094 56" id="BitstreamVeraSans-Roman-6f"/>
      <path d="
M9.42188 75.9844
L18.4062 75.9844
L18.4062 0
L9.42188 0
z
" id="BitstreamVeraSans-Roman-6c"/>
      <path d="
M10.6875 11.2812
Q10.6875 13.5312 11.2188 16.2031
Q11.7656 18.8906 12.2969 20.625
Q12.8438 22.3594 14.75 27.3906
Q16.6562 32.4219 16.7031 32.625
Q18.0156 36.2812 18.0156 38.625
Q18.0156 41.6094 15.8281 41.6094
Q11.8594 41.6094 9.29688 37.5312
Q6.73438 33.4531 5.51562 28.4219
Q5.32812 27.7812 4.6875 27.7812
L3.51562 27.7812
Q2.6875 27.7812 2.6875 28.7188
L2.6875 29
Q4.29688 34.9688 7.60938 39.5781
Q10.9375 44.1875 16.0156 44.1875
Q19.5781 44.1875 22.0469 41.8438
Q24.5156 39.5 24.5156 35.8906
Q24.5156 34.0312 23.6875 31.9844
Q21.7344 26.9062 20.6094 23.8438
Q19.4844 20.7969 18.5312 17.0156
Q17.5781 13.2344 17.5781 10.0156
Q17.5781 6.25 19.3125 3.875
Q21.0469 1.51562 24.7031 1.51562
Q31.6406 1.51562 37.2031 12.2031
Q38.9688 15.6719 40.5312 20.3594
Q42.0938 25.0469 42.0938 27.9844
Q42.0938 31 41.1094 32.6875
Q40.1406 34.375 38.5781 36.2031
Q37.0156 38.0312 37.0156 39.1094
Q37.0156 41.0625 38.625 42.6719
Q40.2344 44.2812 42.1875 44.2812
Q44.5781 44.2812 45.625 42.0781
Q46.6875 39.8906 46.6875 37.1094
Q46.6875 33.7969 45.7344 29.2031
Q44.7812 24.6094 43.0938 19.6719
Q41.4062 14.75 39.9844 11.9219
Q33.4062 -1.125 24.6094 -1.125
Q18.3125 -1.125 14.5 2.01562
Q10.6875 5.17188 10.6875 11.2812" id="Cmmi10-76"/>
      <path d="
M32.1719 -5.07812
Q28.375 -14.8438 24.75 -17.8125
Q21.1406 -20.7969 15.0938 -20.7969
L7.90625 -20.7969
L7.90625 -13.2812
L13.1875 -13.2812
Q16.8906 -13.2812 18.9375 -11.5156
Q21 -9.76562 23.4844 -3.21875
L25.0938 0.875
L2.98438 54.6875
L12.5 54.6875
L29.5938 11.9219
L46.6875 54.6875
L56.2031 54.6875
z
" id="BitstreamVeraSans-Roman-79"/>
      <path d="
M2.98438 54.6875
L12.5 54.6875
L29.5938 8.79688
L46.6875 54.6875
L56.2031 54.6875
L35.6875 0
L23.4844 0
z
" id="BitstreamVeraSans-Roman-76"/>
      <path d="
M48.7812 52.5938
L48.7812 44.1875
Q44.9688 46.2969 41.1406 47.3438
Q37.3125 48.3906 33.4062 48.3906
Q24.6562 48.3906 19.8125 42.8438
Q14.9844 37.3125 14.9844 27.2969
Q14.9844 17.2812 19.8125 11.7344
Q24.6562 6.20312 33.4062 6.20312
Q37.3125 6.20312 41.1406 7.25
Q44.9688 8.29688 48.7812 10.4062
L48.7812 2.09375
Q45.0156 0.34375 40.9844 -0.53125
Q36.9688 -1.42188 32.4219 -1.42188
Q20.0625 -1.42188 12.7812 6.34375
Q5.51562 14.1094 5.51562 27.2969
Q5.51562 40.6719 12.8594 48.3281
Q20.2188 56 33.0156 56
Q37.1562 56 41.1094 55.1406
Q45.0625 54.2969 48.7812 52.5938" id="BitstreamVeraSans-Roman-63"/>
     </defs>
     <g transform="translate(7.2 20.88)scale(0.18 -0.18)">
      <use transform="translate(0.0 0.015625)" xlink:href="#BitstreamVeraSans-Roman-76"/>
      <use transform="translate(59.1796875 0.015625)" xlink:href="#BitstreamVeraSans-Roman-65"/>
      <use transform="translate(120.703125 0.015625)" xlink:href="#BitstreamVeraSans-Roman-6c"/>
      <use transform="translate(148.486328125 0.015625)" xlink:href="#BitstreamVeraSans-Roman-6f"/>
      <use transform="translate(209.66796875 0.015625)" xlink:href="#BitstreamVeraSans-Roman-63"/>
      <use transform="translate(264.6484375 0.015625)" xlink:href="#BitstreamVeraSans-Roman-69"/>
      <use transform="translate(292.431640625 0.015625)" xlink:href="#BitstreamVeraSans-Roman-74"/>
      <use transform="translate(331.640625 0.015625)" xlink:href="#BitstreamVeraSans-Roman-79"/>
      <use transform="translate(390.8203125 0.015625)" xlink:href="#BitstreamVeraSans-Roman-20"/>
      <use transform="translate(422.607421875 0.015625)" xlink:href="#Cmmi10-76"/>
      <use transform="translate(470.99609375 0.015625)" xlink:href="#Cmr10-28"/>
      <use transform="translate(509.814453125 0.015625)" xlink:href="#Cmmi10-74"/>
      <use transform="translate(545.8984375 0.015625)" xlink:href="#Cmr10-29"/>
     </g>
    </g>
   </g>
   <g id="patch_6">
    <path d="
M54.1257 244.275
L351.79 244.275" style="fill:none;stroke:#000000;stroke-width:0.8;"/>
   </g>
   <g id="patch_7">
    <path d="
M59.85 251.923
L59.85 33.38" style="fill:none;stroke:#000000;stroke-width:0.8;"/>
   </g>
  </g>
 </g>
 <defs>
  <clipPath id="pee1c470ffa">
   <rect height="218.542547289" width="297.664555288" x="54.1256816291" y="33.38"/>
  </clipPath>
 </defs>
</svg>
